<?xml version="1.0" encoding="UTF-8"?>
<svg id="Artwork" xmlns="http://www.w3.org/2000/svg" viewBox="0 0 255.12 17.52">
  <defs>
    <style>
      .cls-1 {
        fill: #fff;
      }
    </style>
  </defs>
  <path class="cls-1" d="M224.89,3.29v3.84h30.23v3.27h-30.23v3.84h30.23v3.26h-34.07V.03h34.07v3.26h-30.23ZM212.66,7.1h-23.36V0h-3.84v17.47h3.84v-6.52h23.35v6.52h3.84V0h-3.84v7.1ZM149.29,3.88v9.75c-.01,2.13,1.7,3.87,3.83,3.88,0,0,.01,0,.02,0l27.84-.03v-3.84h-27.32c-.26,0-.48-.21-.5-.47V4.41c.04-.31.31-.55.63-.54h27.19V.03h-27.79c-2.14,0-3.89,1.72-3.9,3.86h0ZM140.83,7.12h-24.52c-.34.03-.63-.23-.65-.56,0,0,0-.02,0-.03v-2.62c0-.34.28-.62.62-.62,0,0,.02,0,.02,0h27.83V.03h-28.54c-2.12.03-3.82,1.76-3.79,3.88v2.62c0,2.14,1.74,3.88,3.88,3.88h24.52c.34-.02.63.24.64.59,0,0,0,0,0,.01h0v2.63c0,.34-.28.61-.61.6-.01,0-.02,0-.03,0h-27.88v3.26h28.5c2.14,0,3.88-1.73,3.88-3.86h0v-2.63c0-2.14-1.74-3.87-3.88-3.88h0ZM107.36,17.41v.05h-3.86v-.69c0-2.14-1.74-3.88-3.88-3.88h-21.42v4.6h-3.84V.01h29.1c2.13,0,3.86,1.72,3.86,3.85h0v3.79c.01,2.08-1.63,3.8-3.72,3.88,2.29,1.06,3.76,3.36,3.75,5.88h0ZM103.47,4.53c0-.36-.29-.66-.66-.66h-24.62s0,5.18,0,5.18h24.69c.33-.02.59-.31.58-.64h0v-3.87ZM69.72,3.88v9.75h0c.01,2.12-1.7,3.85-3.83,3.87-.01,0-.02,0-.03,0h-24.58c-2.14.02-3.88-1.71-3.9-3.85,0,0,0,0,0,0V3.89c.01-2.14,1.76-3.88,3.9-3.87h24.64c2.11.02,3.8,1.74,3.8,3.85ZM65.89,4.53c-.01-.36-.31-.66-.67-.66h-23.34c-.32,0-.59.23-.63.54v8.77c.02.26.24.47.5.47h23.52c.34-.02.61-.3.62-.64V4.53ZM32.88,3.88v5.15c0,2.13-1.72,3.86-3.85,3.86,0,0-.01,0-.02,0H3.84v4.6H0V.02h29c2.13-.01,3.87,1.71,3.88,3.84,0,0,0,.01,0,.02h0ZM29.03,4.53c0-.36-.29-.66-.66-.66H3.84s0,5.18,0,5.18h24.61c.34-.02.59-.3.58-.64v-3.87Z"/>
</svg>