<?xml version="1.0" encoding="UTF-8"?>
<svg id="Layer_1" data-name="Layer 1" xmlns="http://www.w3.org/2000/svg" viewBox="0 0 80 80">
  <defs>
    <style>
      .cls-1 {
        fill: #fff;
      }

      .cls-2 {
        fill: #078543;
      }

      .cls-3 {
        fill: #ec1c24;
      }
    </style>
  </defs>
  <path class="cls-2" d="M40,80v-16.71c-12.65-.25-22.85-10.57-22.85-23.29s10.19-23.04,22.85-23.29V0H20C8.95,0,0,8.95,0,20V60c0,11.05,8.95,20,20,20h20Z"/>
  <path class="cls-2" d="M24.92,40c0,9.31,6.43,17.1,15.09,19.22V20.78c-8.66,2.12-15.09,9.91-15.09,19.22Z"/>
  <path class="cls-1" d="M40.47,16.69c8.33,0,15.62,4.38,19.74,10.96-3.63-4.54-9.21-7.46-15.47-7.46-1.64,0-3.21,.22-4.73,.59v25.22l4.96-6.3-4.47-6.67,7.53,2.77,4.96-6.3-.31,8.01,7.53,2.77-7.72,2.19-.31,8.01-4.46-6.66-7.72,2.18v13.22c1.52,.37,3.1,.59,4.73,.59,6.26,0,11.84-2.92,15.47-7.46-4.12,6.57-11.42,10.96-19.74,10.96-.16,0-.31-.02-.46-.02v16.71h20c11.05,0,20-8.95,20-20V20c0-11.05-8.95-20-20-20h-20V16.71c.16,0,.31-.02,.46-.02Z"/>
  <polygon class="cls-3" points="52.18 50.49 52.49 42.48 60.21 40.29 52.68 37.52 52.99 29.51 48.03 35.81 40.49 33.04 44.97 39.71 40 46.01 47.72 43.83 52.18 50.49"/>
  <path class="cls-3" d="M60.21,52.36c-3.63,4.54-9.21,7.46-15.47,7.46-1.64,0-3.21-.22-4.73-.59-8.66-2.12-15.09-9.91-15.09-19.22s6.43-17.09,15.09-19.22c1.52-.37,3.1-.59,4.73-.59,6.26,0,11.84,2.91,15.47,7.46-4.12-6.57-11.42-10.96-19.74-10.96-.16,0-.31,.02-.46,.02-12.65,.25-22.85,10.57-22.85,23.29s10.19,23.04,22.85,23.29c.16,0,.31,.02,.46,.02,8.33,0,15.62-4.39,19.74-10.96Z"/>
</svg>