<?xml version="1.0" encoding="UTF-8"?>
<svg id="Layer_1" data-name="Layer 1" xmlns="http://www.w3.org/2000/svg" viewBox="0 0 80 80">
  <defs>
    <style>
      .cls-1 {
        fill: #f8d512;
      }

      .cls-2 {
        fill: #cd2028;
      }
    </style>
  </defs>
  <path class="cls-2" d="M26.94,36.18c.27,.98,1.25,2.31,2.66,3.82h21.23c.02-.31,.05-.61,.05-.92,0-8.57-6.53-15.55-14.87-16.43l.41-3.78c1.3,.14,2.56,.39,3.77,.76l.52-1.73c1.39,.42,2.73,.98,4.01,1.66l-.85,1.59c1.18,.62,2.29,1.36,3.32,2.2l1.13-1.38c1.12,.92,2.15,1.95,3.07,3.07l-1.35,1.11c.85,1.02,1.6,2.13,2.23,3.31l1.53-.81c.68,1.28,1.24,2.62,1.66,4.01l-1.63,.5c.38,1.26,.65,2.57,.78,3.92l1.7-.17c.1,1.03,.1,2.07,.06,3.1h23.65V20c0-11.05-8.95-20-20-20H20C8.95,0,0,8.95,0,20v20H25.83c.07-1.18,.41-2.45,1.11-3.82Zm6.07-6.84l1.78-5.49,1.79,5.49h5.77l-4.67,3.39,1.78,5.49-4.67-3.39-4.66,3.39,1.78-5.49-4.67-3.39h5.77Z"/>
  <path d="M20,80H60c11.05,0,20-8.95,20-20v-20h-23.65c-.02,.41-.02,.83-.06,1.23l-1.7-.16c-.13,1.35-.39,2.66-.77,3.93l1.62,.49c-.42,1.39-.97,2.73-1.66,4.01l-1.5-.81c-.63,1.19-1.38,2.3-2.22,3.33l1.31,1.08c-.54,.66-1.13,1.27-1.74,1.86l-4.66-3.22c3.37-2.86,5.57-7.04,5.83-11.74H29.59c6.45,6.91,22.09,17.73,22.09,17.73l-1.9,2.24s-9.91-6.04-16.98-10.06c-3.44-2.07-7.25-5.32-6.97-9.91H0v20c0,11.05,8.95,20,20,20Zm32.11-22.12l3.62,3.04s1.88,1.73,2.54,2.8c.97,1.57-.22,3.51-1.73,2.47-.81-.56-.85-1.84-2.15-3.05-.89-.82-1.62-1.74-4.1-2.31l-.25-.53,2.07-2.42Zm-28.3-6.03c2.86,2.35,6.47,3.83,10.46,3.83,1.89,0,3.69-.33,5.39-.92l2.16,1.28,.9,3.48c-.66,.27-1.34,.51-2.02,.73l-.49-1.62c-1.26,.38-2.57,.65-3.93,.78l.17,1.68c-1.44,.14-2.9,.14-4.34,0l.16-1.69c-1.35-.14-2.66-.42-3.91-.82l-.51,1.67c-1.39-.42-2.73-.98-4-1.66l.84-1.57c-1.17-.64-2.28-1.38-3.3-2.22l2.43-2.96Z"/>
  <polygon class="cls-1" points="30.13 38.22 34.79 34.83 39.46 38.22 37.68 32.73 42.35 29.34 36.58 29.34 34.79 23.85 33.01 29.34 27.24 29.34 31.91 32.73 30.13 38.22"/>
  <path class="cls-1" d="M54.39,63.14c1.3,1.21,1.34,2.49,2.15,3.05,1.51,1.04,2.69-.91,1.73-2.47-.66-1.07-2.54-2.8-2.54-2.8l-3.62-3.04-2.07,2.42,.25,.53c2.48,.56,3.21,1.49,4.1,2.31Zm2.62,.07l.36,.37-.36,.36-.37-.36,.37-.37Zm-1.85-1.9l.37,.36-.37,.37-.36-.37,.36-.36Zm-1.98-1.76l.37,.36-.37,.36-.36-.36,.36-.36Z"/>
  <path class="cls-1" d="M56.29,36.9l-1.7,.17c-.13-1.35-.4-2.66-.78-3.92l1.63-.5c-.42-1.39-.97-2.73-1.66-4.01l-1.53,.81c-.64-1.18-1.38-2.29-2.23-3.31l1.35-1.11c-.92-1.13-1.95-2.15-3.07-3.07l-1.13,1.38c-1.03-.83-2.15-1.57-3.32-2.2l.85-1.59c-1.28-.68-2.62-1.24-4.01-1.66l-.52,1.73c-1.21-.37-2.47-.62-3.77-.76l-.41,3.78c8.34,.88,14.87,7.85,14.87,16.43,0,.31-.03,.61-.05,.92-.26,4.7-2.46,8.88-5.83,11.74l4.66,3.22c.61-.58,1.2-1.2,1.74-1.86l-1.31-1.08c.85-1.03,1.59-2.14,2.22-3.33l1.5,.81c.68-1.28,1.24-2.62,1.66-4.01l-1.62-.49c.38-1.26,.64-2.57,.77-3.93l1.7,.16c.04-.41,.04-.82,.06-1.23,.04-1.03,.04-2.07-.06-3.1Z"/>
  <path class="cls-1" d="M23.85,58.58c1.27,.68,2.62,1.24,4,1.66l.51-1.67c1.25,.4,2.56,.68,3.91,.82l-.16,1.69c1.44,.14,2.89,.14,4.34,0l-.17-1.68c1.35-.13,2.67-.4,3.93-.78l.49,1.62c.69-.22,1.36-.46,2.02-.73l-.9-3.48-2.16-1.28c-1.7,.59-3.5,.92-5.39,.92-3.99,0-7.6-1.47-10.46-3.83l-2.43,2.96c1.03,.84,2.14,1.57,3.3,2.22l-.84,1.57Z"/>
  <path class="cls-1" d="M25.83,40c-.28,4.58,3.53,7.84,6.97,9.91,7.08,4.02,16.98,10.06,16.98,10.06l1.9-2.24s-15.64-10.82-22.09-17.73c-1.41-1.51-2.39-2.84-2.66-3.82-.7,1.36-1.03,2.63-1.11,3.82Zm3.47,1.49h.12c5.91,6.8,14.28,10.21,20.45,15.99v.12s-.12,0-.12,0c-6.13-5.75-14.52-9.15-20.46-15.99v-.12Z"/>
  <path d="M49.74,57.61h.13s0-.13,0-.13c-6.17-5.78-14.54-9.18-20.45-15.98h-.12s0,.11,0,.11c5.94,6.84,14.33,10.24,20.46,15.99Z"/>
  <polygon points="53.55 59.91 53.18 59.55 52.82 59.91 53.18 60.27 53.55 59.91"/>
  <polygon points="55.53 61.67 55.16 61.3 54.81 61.67 55.16 62.04 55.53 61.67"/>
  <rect x="56.75" y="63.32" width=".52" height=".52" transform="translate(-28.22 58.37) rotate(-44.62)"/>
</svg>