<?xml version="1.0" encoding="UTF-8"?>
<svg id="Layer_1" data-name="Layer 1" xmlns="http://www.w3.org/2000/svg" viewBox="0 0 80 80">
  <defs>
    <style>
      .cls-1 {
        fill: #fff;
      }

      .cls-2 {
        fill: #fabe4a;
      }

      .cls-3 {
        fill: #74a9db;
      }

      .cls-4 {
        fill: #83371b;
      }
    </style>
  </defs>
  <path class="cls-3" d="M0,60c0,11.05,8.95,20,20,20H60c11.05,0,20-8.95,20-20v-5.42H0v5.42Z"/>
  <path class="cls-1" d="M0,54.58H80V25.42H0v29.16Zm26.93-14.73l.25-.07c2.52-.09,5.05-.18,7.56-.28-.76-.31-1.6-.18-2.38-.4-.67-.15-1.23-.56-1.88-.76l-1.07-.17-1.17-.06-.97-.66,.09-.24v-.02s0,.01,0,.01l.04-.11,.47,.34,.7,.13,1.42-.09,1.51,.4,.97,.34c.79,.13,1.6,.06,2.4,.2-2.24-1.02-4.48-2.06-6.72-3.07l-.28-.24,.19-.24,.56,.16c2.27,.84,4.52,1.69,6.78,2.51-.6-.55-1.42-.77-2.07-1.27l-.83-.79-1.29-1.08-1.32-.63-.65-.97,.15-.19v-.03s.01,.02,.01,.02l.08-.1,.34,.51,1.05,.51c.59,.16,1.19,.42,1.66,.82l.96,.95c.73,.57,1.65,.8,2.42,1.31-1.69-1.79-3.35-3.61-5.04-5.41l-.19-.33,.28-.16,.41,.33c1.78,1.65,3.55,3.3,5.33,4.93-.32-.69-.92-1.18-1.32-1.81l-.55-1.19-.84-1.55-.9-.95-.29-1.13,.28-.34,.14,.33,.4,.84,1.32,1.23,.66,1.32c.37,1.02,1.3,1.68,1.91,2.54-.86-2.31-1.71-4.62-2.57-6.93l-.04-.3,.28-.1,.26,.43c1.03,2.21,2.04,4.43,3.06,6.64,0-.77-.42-1.47-.53-2.22-.17-.87,.1-1.75-.11-2.61l-.53-1.42,.15-1.41,.26-.03,.03-.02v.02s.12-.01,.12-.01l-.13,.59,.16,.68,.65,1.36,.18,1.49,.1,1.17c.19,.73,.55,1.42,.69,2.16,.07-2.47,.19-4.93,.27-7.39l.08-.36,.33,.03,.07,.54c.1,2.41,.17,4.83,.28,7.25l.26-1.54c.03-.62,.2-1.21,.48-1.76l.54-1.51,.02-1.06,.19-.58h0s0-.02,0-.02l.26-.8,.48-.28,.17,.19-.33,.46-.13,.7,.09,1.37-.4,1.55-.33,.92c-.16,.8-.08,1.63-.21,2.43,1.03-2.25,2.07-4.5,3.1-6.75l.31-.24,.1,.39c-.87,2.38-1.77,4.75-2.63,7.14,.58-.64,.81-1.52,1.35-2.19l1.27-1.27,.6-.94,.54-1.14,.97-.65,.2,.15h.02s-.01,0-.01,0l.1,.07-.52,.34-.51,1.05c-.17,.59-.41,1.19-.83,1.67l-.94,.96c-.56,.72-.8,1.63-1.3,2.39,1.76-1.63,3.52-3.26,5.29-4.89l.4-.31,.23,.23-.33,.42c-1.65,1.79-3.31,3.57-4.96,5.36,.67-.29,1.14-.86,1.73-1.26l1.23-.59,1.54-.8,1.03-.96,1.17-.27,.28,.27-.33,.14-.81,.37-.85,1-1.46,.92-.93,.44c-.68,.45-1.21,1.1-1.88,1.57,2.32-.85,4.65-1.72,6.98-2.59l.39,.11-.2,.3c-2.3,1.06-4.62,2.11-6.92,3.18,.62-.02,1.19-.27,1.77-.44l1.64-.15c.6,.05,1.22,.05,1.79-.16l1.2-.46,1.06,.06,.37,.29-.1,.24-.58-.14-.7,.16-1.31,.64-1.53,.19-1.06,.07c-.77,.19-1.49,.56-2.27,.72,1.14,0,2.29,.08,3.43,.12,1.36,.04,2.71,.09,4.07,.15l.33,.22-.28,.23c-2.54,.1-5.08,.17-7.62,.29l1.66,.26,1.65,.47,1.62,.56,1.53,.06,.88,.47,.2,.41-.19,.16-.54-.38-1.1-.04c-.63,.08-1.29,.07-1.89-.13l-1.2-.49c-.88-.25-1.82-.13-2.73-.28,2.19,.99,4.38,2.01,6.59,3.01l.41,.29-.14,.1h0s-.02,.01-.02,.01l-.18,.12c-2.4-.88-4.78-1.78-7.18-2.65l1.61,.97,1.21,1.01,1.17,1.05,.97,.42,.42,.37h.03s.02,.04,.02,.04l.64,.57,.06,.53-.26,.03-.36-.55-.98-.43c-.59-.17-1.18-.41-1.66-.82l-.96-.94c-.73-.57-1.65-.8-2.42-1.31,1.7,1.81,3.38,3.64,5.08,5.46l.09,.42-.38-.07c-1.6-1.49-3.21-2.97-4.81-4.47l-.76-.69c.28,.62,.8,1.09,1.2,1.64l.65,1.28,.72,1.46,.71,.72,.64,1.28-.15,.55-.26-.06-.11-.64-.74-.77-1.22-1.37-.55-1.29c-.45-.78-1.17-1.34-1.69-2.07,.86,2.33,1.72,4.65,2.58,6.97l-.1,.4-.31-.24c-.96-2.08-1.92-4.16-2.87-6.25l-.29-.62c.01,.61,.26,1.18,.43,1.76l.16,1.58,.09,1.64,.39,.99,.03,.57v.03s0,.04,0,.04l.04,.85-.35,.4-.19-.17,.14-.64-.39-.99c-.3-.54-.55-1.13-.6-1.75l-.02-1.37c-.11-.92-.61-1.74-.78-2.65-.07,2.49-.19,4.96-.26,7.45l-.24,.38-.22-.3c-.09-2.53-.19-5.05-.29-7.59l-.25,1.55c-.05,.61-.2,1.21-.48,1.75l-.56,1.61-.09,1.64-.69,.94-.21-.1h-.02s.01,0,.01,0l-.1-.05,.37-.53,.07-.89c-.09-.67-.12-1.36,.08-2.01l.55-1.38c.21-.87,.11-1.77,.25-2.64-1.01,2.25-2.05,4.49-3.07,6.73l-.34,.28-.1-.39c.88-2.38,1.77-4.75,2.64-7.13-.54,.58-.76,1.37-1.22,2l-.84,.9-1.11,1.36-.58,1.23-.94,.67-.38-.18,.31-.24,.59-.72c.19-.61,.35-1.24,.7-1.78l.93-1.03c.77-.73,1-1.82,1.58-2.69-1.77,1.63-3.52,3.27-5.29,4.9l-.4,.3-.23-.23,.28-.38c1.43-1.54,2.87-3.08,4.28-4.62l.72-.79c-.69,.32-1.18,.92-1.81,1.33l-1.18,.55-1.55,.83-.89,.85-1.04,.35-.45-.15,.06-.26,.65-.11,.66-.6,1.13-1.13,1.25-.58c1-.39,1.61-1.28,2.46-1.88-2.2,.8-4.41,1.64-6.61,2.45l-.56,.16-.19-.25,.25-.21c2.28-1.05,4.57-2.11,6.87-3.15-.76,0-1.45,.39-2.18,.52-.89,.2-1.8-.09-2.69,.13l-1.45,.53-1.33-.15-.15-.39h.32s.81,.03,.81,.03l.95-.48,1.54-.45h1.22c.94-.1,1.78-.6,2.7-.78-2.45-.07-4.89-.19-7.34-.27l-.42-.08v-.31Z"/>
  <path class="cls-3" d="M60,0H20C8.95,0,0,8.95,0,20v5.42H80v-5.42c0-11.05-8.95-20-20-20Z"/>
  <path class="cls-4" d="M34.68,40.5c-.93,.18-1.76,.68-2.7,.78h-1.22l-1.54,.45-.95,.48h-.81s-.32-.03-.32-.03l.15,.39,1.33,.15,1.45-.53c.88-.22,1.8,.07,2.69-.13,.74-.12,1.42-.52,2.18-.52-2.3,1.05-4.59,2.1-6.87,3.15l-.25,.21,.19,.25,.56-.16c2.21-.82,4.41-1.65,6.61-2.45-.85,.59-1.46,1.49-2.46,1.88l-1.25,.58-1.13,1.13-.66,.6-.65,.11-.06,.26,.45,.15,1.04-.35,.89-.85,1.55-.83,1.18-.55c.63-.41,1.12-1.01,1.81-1.33l-.72,.79c-1.42,1.54-2.85,3.09-4.28,4.62l-.28,.38,.23,.23,.4-.3c1.76-1.63,3.51-3.27,5.29-4.9-.58,.87-.81,1.96-1.58,2.69l-.93,1.03c-.36,.54-.51,1.17-.7,1.78l-.59,.72-.31,.24,.38,.18,.94-.67,.58-1.23,1.11-1.36,.84-.9c.46-.63,.68-1.42,1.22-2-.86,2.38-1.76,4.75-2.64,7.13l.1,.39,.34-.28c1.02-2.24,2.07-4.48,3.07-6.73-.14,.87-.03,1.78-.25,2.64l-.55,1.38c-.19,.65-.16,1.34-.08,2.01l-.07,.89-.37,.53,.1,.05,.4-.6,.07-.67-.07-1.53,.39-1.32,.38-1.37c.07-.7,.03-1.4,.18-2.09l.27,.08c-.17,.74-.09,1.52-.19,2.28l-.33,1.08,.43-1.02c.11-.77,.11-1.55,.36-2.29l.25,.03c-.27,.82-.16,1.7-.41,2.52-.17,.6-.53,1.11-.7,1.7l-.17,1.46-.36,1.45-.5,.3,.21,.1,.69-.94,.09-1.64,.56-1.61c.28-.54,.43-1.14,.48-1.75l.25-1.55c.1,2.53,.2,5.06,.29,7.59l.22,.3,.24-.38c.07-2.49,.19-4.96,.26-7.45,.17,.91,.67,1.73,.78,2.65l.02,1.37c.05,.62,.29,1.2,.6,1.75l.39,.99-.14,.64,.19,.17,.35-.4-.04-.85-.19,1.03-.19,.11,.1-1.02-.53-1.07-.41-1.41v-1.28c-.1-.96-.62-1.81-.81-2.74l.28-.05c.14,.86,.61,1.63,.76,2.49l.05,.87-.02-1.22c-.19-.73-.47-1.43-.52-2.17l.23-.09c.05,.62,.28,1.19,.45,1.78l.15,1.59c-.04,.6-.03,1.21,.16,1.8l.48,1.34-.03-.57-.39-.99-.09-1.64-.16-1.58c-.17-.58-.41-1.15-.43-1.76l.29,.62c.95,2.08,1.91,4.17,2.87,6.25l.31,.24,.1-.4c-.86-2.32-1.72-4.64-2.58-6.97,.52,.72,1.24,1.29,1.69,2.07l.55,1.29,1.22,1.37,.74,.77,.11,.64,.26,.06,.15-.55-.64-1.28-.71-.72-.72-1.46-.65-1.28c-.4-.55-.92-1.01-1.2-1.64l.76,.69c1.6,1.5,3.21,2.98,4.81,4.47l.38,.07-.09-.42c-1.7-1.81-3.38-3.64-5.08-5.46,.77,.51,1.69,.74,2.42,1.31l.96,.94c.47,.41,1.06,.65,1.66,.82l.98,.43,.36,.55,.26-.03-.06-.53-.64-.57,.6,.83-.02,.27-.4-.6-.74-.37-1.47-.58-.93-.8-1-.8c-.65-.36-1.35-.6-1.96-1.01l.15-.22c.65,.43,1.39,.66,2.07,1.04l.88,.76-.95-.92c-.62-.34-1.28-.65-1.83-1.1l.12-.23c.66,.56,1.53,.8,2.2,1.36l1.1,1.12,1.04,.71,1.1,.51-.42-.37-.97-.42-1.17-1.05-1.21-1.01-1.61-.97c2.4,.87,4.78,1.78,7.18,2.65l.18-.12-.22-.02c-2.36-.87-4.71-1.75-7.06-2.61l.18-.21c.93,.35,1.84,.68,2.76,1.03l.26,.07c-1-.45-2-.92-3-1.37l.1-.24c2.29,1.08,4.61,2.11,6.9,3.18l.08,.16,.14-.1-.41-.29c-2.2-1-4.39-2.02-6.59-3.01,.9,.14,1.84,.03,2.73,.28l1.2,.49c.6,.2,1.25,.21,1.89,.13l1.1,.04,.54,.38,.19-.16-.2-.41-.88-.47-1.53-.06-1.62-.56-1.65-.47-1.66-.26c2.54-.12,5.08-.19,7.62-.29l.28-.23-.33-.22c-1.35-.05-2.71-.1-4.07-.15-1.14-.04-2.29-.11-3.43-.12,.78-.17,1.5-.54,2.27-.72l1.06-.07,1.53-.19,1.31-.64,.7-.16,.58,.14,.1-.24-.37-.29-1.06-.06-1.2,.46c-.57,.21-1.19,.21-1.79,.16l-1.64,.15c-.57,.17-1.14,.42-1.77,.44,2.3-1.07,4.62-2.13,6.92-3.18l.2-.3-.39-.11c-2.32,.86-4.65,1.73-6.98,2.59,.66-.47,1.2-1.11,1.88-1.57l.93-.44,1.46-.92,.85-1,.81-.37,.33-.14-.28-.27-1.17,.27-1.03,.96-1.54,.8-1.23,.59c-.59,.4-1.06,.97-1.73,1.26,1.65-1.79,3.31-3.57,4.96-5.36l.33-.42-.23-.23-.4,.31c-1.76,1.63-3.52,3.26-5.29,4.89,.5-.77,.73-1.67,1.3-2.39l.94-.96c.41-.48,.66-1.08,.83-1.67l.51-1.05,.52-.34-.1-.07-.58,.4-.47,1.03-.77,1.59-.96,.99c-.59,.74-.83,1.71-1.37,2.49l-.22-.16c.43-.64,.66-1.38,1.04-2.05l.74-.89-.94,1c-.33,.6-.62,1.24-1.1,1.76l-.2-.12c.57-.65,.79-1.51,1.33-2.17l.89-.86,.95-1.26,.54-1.16,.86-.64,.24,.02-.2-.15-.97,.65-.54,1.14-.6,.94-1.27,1.27c-.55,.66-.77,1.55-1.35,2.19,.86-2.39,1.76-4.76,2.63-7.14l-.1-.39-.31,.24c-1.04,2.25-2.07,4.5-3.1,6.75,.13-.8,.05-1.63,.21-2.43l.33-.92,.4-1.55-.09-1.37,.13-.7,.33-.46-.17-.19-.48,.28-.26,.8,.58-.9,.23-.05-.42,.65v1.11s-.12,1.74-.12,1.74l-.5,1.23c-.28,.93-.13,1.92-.32,2.87l-.27-.08c.19-.82,.06-1.67,.21-2.49l.29-.87-.44,1.08c-.11,.74-.1,1.51-.36,2.22l-.24-.02c.2-.6,.19-1.25,.27-1.88l.45-1.43c.27-.53,.5-1.09,.55-1.69l.07-1.47-.19,.58-.02,1.06-.54,1.51c-.28,.55-.45,1.15-.48,1.76l-.26,1.54c-.1-2.42-.18-4.84-.28-7.25l-.07-.54-.33-.03-.08,.36c-.09,2.46-.2,4.92-.27,7.39-.14-.74-.5-1.43-.69-2.16l-.1-1.17-.18-1.49-.65-1.36-.16-.68,.13-.59h-.12s-.14,.74-.14,.74l.37,.93,.6,1.65v1.37c.1,.99,.65,1.86,.83,2.82l-.28,.05c-.15-.86-.62-1.62-.77-2.49l-.06-.87v1.18c.2,.74,.51,1.46,.56,2.24l-.25,.05c-.04-.81-.46-1.54-.57-2.34v-1.22s-.23-1.75-.23-1.75l-.43-1.14,.17-1.09,.17-.12-.26,.03-.15,1.41,.53,1.42c.2,.86-.06,1.74,.11,2.61,.11,.76,.53,1.45,.53,2.22-1.02-2.22-2.04-4.43-3.06-6.64l-.26-.43-.28,.1,.04,.3c.86,2.31,1.71,4.62,2.57,6.93-.61-.86-1.55-1.51-1.91-2.54l-.66-1.32-1.32-1.23-.4-.84-.14-.33-.28,.34,.29,1.13,.9,.95,.84,1.55,.55,1.19c.41,.63,1.01,1.13,1.32,1.81-1.79-1.63-3.56-3.29-5.33-4.93l-.41-.33-.28,.16,.19,.33c1.69,1.8,3.35,3.62,5.04,5.41-.77-.51-1.69-.74-2.42-1.31l-.96-.95c-.47-.4-1.07-.66-1.66-.82l-1.05-.51-.34-.51-.08,.1,.42,.6,.99,.44,1.61,.77,.98,.97c.75,.6,1.72,.83,2.5,1.37l-.15,.22c-.63-.43-1.36-.66-2.02-1.02l-.93-.77,1.15,1.02,1.62,1.01-.12,.21c-.63-.56-1.46-.78-2.12-1.3l-.87-.87-1.31-1.01-1.16-.53-.64-.86,.02-.24-.15,.19,.65,.97,1.32,.63,1.29,1.08,.83,.79c.64,.5,1.47,.72,2.07,1.27-2.26-.82-4.51-1.67-6.78-2.51l-.56-.16-.19,.24,.28,.24c2.24,1.02,4.48,2.05,6.72,3.07-.79-.14-1.61-.07-2.4-.2l-.97-.34-1.51-.4-1.42,.09-.7-.13-.47-.34-.04,.11,.63,.42h1.05c.59-.06,1.22-.06,1.8,.12l1.23,.5c.93,.27,1.92,.12,2.87,.32l-.08,.27c-.83-.19-1.69-.06-2.52-.23l-.85-.29,1.18,.46c.72,.09,1.44,.11,2.13,.34l-.03,.25c-.81-.28-1.7-.15-2.52-.41-.59-.16-1.12-.52-1.71-.7l-1.45-.17-1.48-.38-.26-.48-.09,.24,.97,.66,1.17,.06,1.07,.17c.65,.2,1.22,.6,1.88,.76,.78,.22,1.63,.09,2.38,.4-2.51,.1-5.04,.19-7.56,.28l-.25,.07v.31l.42,.08c2.45,.08,4.9,.19,7.34,.27Zm-6.31,4.43l-.41,.08,.18-.21c2.03-.94,4.07-1.88,6.11-2.81l.72-.34,.12,.24c-1,.45-2,.91-3,1.36l.7-.23c.8-.3,1.6-.61,2.4-.89l.09,.22c-2.3,.86-4.6,1.71-6.9,2.56Zm5.52-.28l-1.03,.45-1.6,.89-.93,.85-1.1,.26-.19-.13,.81-.19,.6-.59,1.4-1.29,1.31-.56c.83-.46,1.41-1.27,2.22-1.78l.14,.24c-.72,.46-1.24,1.17-1.96,1.63l-.85,.4,1.21-.52c.57-.44,1.1-.94,1.75-1.27l.15,.2c-.73,.35-1.24,1.01-1.94,1.41Zm-2.65,4.26l-.37,.31-.02-.23c1.71-1.85,3.43-3.7,5.15-5.55l.16,.19c-.57,.62-1.13,1.23-1.71,1.85l-.39,.45,.45-.4c.62-.57,1.23-1.14,1.84-1.71l.19,.16c-1.76,1.65-3.54,3.29-5.3,4.93Zm4.79-2.14l-1.12,1.1-.71,1.04-.51,1.13-.86,.63-.27-.03,.59-.41,.47-1.02,.79-1.62,.94-.96c.59-.75,.83-1.71,1.37-2.5l.21,.16c-.42,.63-.66,1.38-1.04,2.04l-.74,.89,.85-.84c.38-.66,.67-1.37,1.19-1.93l.21,.13c-.57,.66-.81,1.53-1.37,2.19Zm-.84,5.08l-.21,.17,.03-.26c.52-1.41,1.04-2.82,1.57-4.23,.35-.95,.69-1.9,1.07-2.84l.21,.13c-.36,.92-.69,1.86-1.04,2.79l-.09,.29c.44-1.01,.91-2,1.36-2.99l.23,.09c-1.04,2.28-2.09,4.57-3.14,6.85Zm4.91,.74l-.06,.42h-.09l-.07-.42c-.09-2.45-.19-4.89-.27-7.34h.26c.04,1.15,.08,2.3,.12,3.43,.05-1.13,.09-2.27,.13-3.41l.26-.02c-.09,2.45-.19,4.89-.28,7.34Zm4.82-.99l.08,.41-.21-.17c-.96-2.11-1.93-4.22-2.9-6.33l-.23-.52,.22-.09c.46,1,.92,2,1.37,3l-.24-.72c-.29-.8-.6-1.6-.89-2.4l.23-.09c.85,2.3,1.7,4.6,2.56,6.9Zm-.55-5.92l.66,1.27,.74,1.54,.71,.71,.62,1.16-.14,.56-.2-.83-.72-.7-1.16-1.32-.51-1.23c-.47-.86-1.28-1.44-1.8-2.26l.23-.14c.42,.65,1.01,1.14,1.49,1.73l.56,1.08c-.04-.7-.55-1.25-.97-1.77l-.83-1.19,.19-.15,1.14,1.54Zm4.73,3.27l.11,.25-.26-.1c-1.84-1.71-3.67-3.42-5.52-5.13l.19-.17c.64,.59,1.27,1.18,1.9,1.76l.39,.35c-.68-.79-1.41-1.52-2.11-2.31l.18-.18c1.7,1.84,3.41,3.69,5.12,5.52Zm-1.79-8.01l1.22,.42c.55,.28,1.12,.52,1.73,.56l1.43,.07,.91,.57,.05,.24-.61-.41-.71-.06-1.55,.06-1.29-.4-1.43-.38c-.66-.05-1.34-.03-2-.16l.08-.27c.75,.17,1.53,.09,2.29,.19l1.07,.33-1.11-.45c-.73-.1-1.49-.1-2.2-.34l.04-.26c.67,.24,1.4,.19,2.09,.31Zm5.22-1.07l.4,.03,.07,.12-.2,.06c-2.52,.09-5.04,.19-7.55,.28l.02-.26c1.1-.03,2.2-.07,3.31-.13-1.1-.06-2.21-.09-3.31-.13l-.02-.26c2.42,.09,4.85,.18,7.28,.27Zm-5.65-1.74l1.54-.14c.63,.05,1.29,.04,1.89-.18l1.21-.46,1.09,.18,.14,.21-.79-.14-.82,.33-1.5,.6-1.32,.04c-1.1,0-2.05,.62-3.09,.82l-.05-.28c.86-.15,1.63-.62,2.48-.77l.86-.06h-1.16c-.75,.2-1.47,.51-2.25,.55l-.05-.24c.63-.04,1.21-.29,1.81-.45Zm4.87-3.13l.26-.03-.2,.23c-2.28,1.04-4.55,2.09-6.82,3.13l-.09-.23c.99-.46,1.99-.92,2.99-1.36l-.67,.21c-.81,.31-1.62,.6-2.42,.91l-.11-.24c2.35-.87,4.71-1.75,7.06-2.62Zm-5.71,.35l1.06-.47,1.6-.87,.94-.87,1.1-.25,.18,.13-.76,.16-.53,.47-.98,1.08-1.24,.66-1.5,.92-1.31,1.11-.14-.23c.64-.41,1.12-.99,1.7-1.46l1.11-.58-1.1,.44c-.61,.46-1.17,1.01-1.87,1.36l-.16-.2c.72-.34,1.22-.99,1.9-1.4Zm2.94-4.51l.21-.08-.11,.26c-1.7,1.83-3.41,3.68-5.12,5.52l-.17-.19c.75-.81,1.52-1.6,2.25-2.43-.83,.74-1.61,1.5-2.43,2.25l-.19-.17c1.85-1.72,3.7-3.43,5.56-5.15Zm-4.53-2l.44-.88,.1,.2c-.88,2.37-1.76,4.74-2.64,7.1l-.23-.09c.28-.8,.6-1.6,.89-2.4l.24-.71c-.47,1-.91,2-1.37,2.99l-.24-.09c.94-2.04,1.88-4.09,2.81-6.13Zm-4.57-1.68l.14-.2,.07,.2c.09,2.52,.19,5.05,.29,7.56l-.26-.03c-.04-1.13-.08-2.27-.13-3.41-.05,1.14-.09,2.28-.12,3.42l-.26,.02c.09-2.52,.19-5.04,.28-7.56Zm-4.9,1.03l-.02-.24,.21,.17c1.05,2.29,2.1,4.57,3.14,6.85l-.23,.08c-.45-.99-.92-1.99-1.37-2.99l.22,.67c.3,.8,.59,1.61,.91,2.41l-.23,.11c-.87-2.36-1.75-4.71-2.63-7.08Zm.34,5.7l-.44-1.03-.88-1.6-.87-.93-.24-1.09,.13-.19,.18,.8,.59,.62,1.3,1.4,.51,1.22c.45,.88,1.3,1.47,1.81,2.31l-.24,.13c-.46-.72-1.16-1.25-1.63-1.96l-.4-.85,.62,1.32c.42,.53,.87,1.03,1.18,1.63l-.2,.16c-.34-.73-1.01-1.24-1.42-1.94Zm-4.25-2.65l-.32-.37,.23-.02c1.86,1.72,3.7,3.43,5.55,5.15l-.18,.18c-.82-.75-1.6-1.51-2.43-2.24,.74,.82,1.5,1.61,2.24,2.43l-.17,.19c-1.64-1.77-3.28-3.54-4.92-5.3Zm-2.94,3.95l-.18-.22,.41,.09c2.3,.86,4.61,1.71,6.91,2.56l-.11,.24c-.93-.36-1.87-.7-2.79-1.04l-.29-.09c1,.45,1.99,.91,2.99,1.37l-.09,.23c-2.28-1.04-4.57-2.09-6.85-3.14Zm6.82,3.54c.3-1.22,1.06-2.3,2.09-3.01,.76-.53,1.67-.85,2.61-.91,1.06-.07,2.14,.19,3.04,.74,1.12,.68,1.97,1.8,2.31,3.06,.34,1.27,.2,2.68-.44,3.84-.55,1.02-1.44,1.84-2.51,2.3-1.27,.56-2.78,.57-4.06,.03-1.09-.45-2.02-1.29-2.57-2.33-.62-1.13-.78-2.49-.47-3.73Zm-.2,1.87l.03,.28c-.9,.15-1.69,.65-2.58,.78l-.73,.05,1.18-.03c.73-.19,1.43-.48,2.2-.52l.06,.24c-.81,.05-1.54,.46-2.34,.56l-1.18,.02c-.6-.04-1.23,0-1.79,.22l-1.21,.43-1.07-.2-.11-.18,.8,.14,.85-.34,1.49-.59,1.31-.04c1.1,0,2.05-.62,3.1-.82Zm-7.78-.65l.41-.07c2.45-.09,4.9-.18,7.35-.27v.26c-1.13,.04-2.26,.07-3.39,.13,1.12,.05,2.25,.1,3.36,.13l.02,.26c-2.51-.09-5.04-.19-7.55-.28l-.2-.15Z"/>
  <path class="cls-2" d="M40,31.3c.05,1.14,.09,2.28,.13,3.41l.26,.03c-.1-2.52-.19-5.04-.29-7.56l-.07-.2-.14,.2c-.09,2.52-.19,5.05-.28,7.56l.26-.02c.04-1.14,.08-2.28,.12-3.42Z"/>
  <path class="cls-2" d="M37.37,28.46l.43,1.14,.22,1.75v1.22c.13,.8,.54,1.53,.58,2.34l.25-.05c-.05-.78-.36-1.5-.54-2.24v-1.18s.04,.87,.04,.87c.16,.86,.62,1.63,.77,2.49l.28-.05c-.19-.96-.73-1.83-.82-2.82v-1.37s-.62-1.65-.62-1.65l-.37-.93,.14-.73v-.02s-.03,.02-.03,.02l-.17,.12-.17,1.09Z"/>
  <path class="cls-2" d="M41.37,31.46l-.45,1.43c-.08,.63-.07,1.28-.27,1.88l.24,.02c.25-.71,.24-1.48,.36-2.22l.44-1.08-.29,.87c-.15,.83-.03,1.67-.21,2.49l.27,.08c.19-.95,.05-1.94,.32-2.87l.5-1.23,.11-1.74v-1.11s.43-.65,.43-.65l-.23,.05-.58,.9h0s0,.02,0,.02l-.07,1.47c-.05,.6-.28,1.16-.55,1.69Z"/>
  <path class="cls-2" d="M37.87,35.17c-.31-.81-.6-1.61-.91-2.41l-.22-.67c.45,1,.92,2,1.37,2.99l.23-.08c-1.04-2.28-2.09-4.57-3.14-6.85l-.21-.17,.02,.24c.88,2.36,1.76,4.72,2.63,7.08l.23-.11Z"/>
  <path class="cls-2" d="M43.27,32.09l-.24,.71c-.28,.79-.6,1.59-.89,2.4l.23,.09c.88-2.36,1.76-4.73,2.64-7.1l-.1-.2-.44,.88c-.93,2.04-1.88,4.09-2.81,6.13l.24,.09c.46-1,.91-2,1.37-2.99Z"/>
  <path class="cls-2" d="M36.96,35.68c-.31-.6-.76-1.11-1.18-1.63l-.62-1.32,.4,.85c.47,.71,1.17,1.24,1.63,1.96l.24-.13c-.52-.84-1.36-1.43-1.81-2.31l-.51-1.22-1.3-1.4-.59-.62-.18-.8-.13,.19,.24,1.09,.87,.93,.88,1.6,.44,1.03c.41,.69,1.07,1.2,1.42,1.94l.2-.16Z"/>
  <path class="cls-2" d="M46.32,29.97l-.54,1.16-.95,1.26-.89,.86c-.54,.66-.76,1.52-1.33,2.17l.2,.12c.48-.51,.76-1.16,1.1-1.76l.94-1-.74,.89c-.38,.67-.61,1.41-1.04,2.05l.22,.16c.54-.79,.77-1.75,1.37-2.49l.96-.99,.77-1.59,.47-1.03,.58-.4h.01s-.02,0-.02,0l-.24-.02-.86,.64Z"/>
  <path class="cls-2" d="M36.18,36.37c-.74-.82-1.51-1.61-2.24-2.43,.83,.73,1.61,1.49,2.43,2.24l.18-.18c-1.85-1.71-3.69-3.43-5.55-5.15l-.23,.02,.32,.37c1.64,1.76,3.28,3.53,4.92,5.3l.17-.19Z"/>
  <path class="cls-2" d="M46.07,33.93c-.73,.83-1.5,1.62-2.25,2.43l.17,.19c1.71-1.84,3.41-3.69,5.12-5.52l.11-.26-.21,.08c-1.86,1.72-3.71,3.44-5.56,5.15l.19,.17c.82-.75,1.6-1.51,2.43-2.25Z"/>
  <path class="cls-2" d="M29.96,33.69l1.16,.53,1.31,1.01,.87,.87c.66,.52,1.49,.74,2.12,1.3l.12-.21-1.62-1.01-1.15-1.02,.93,.77c.66,.37,1.39,.6,2.02,1.02l.15-.22c-.78-.54-1.75-.78-2.5-1.37l-.98-.97-1.61-.77-.99-.44-.42-.6v-.02s-.01,.03-.01,.03l-.02,.24,.64,.86Z"/>
  <path class="cls-2" d="M46.18,35.6l1.1-.44-1.11,.58c-.58,.47-1.07,1.05-1.7,1.46l.14,.23,1.31-1.11,1.5-.92,1.24-.66,.98-1.08,.53-.47,.76-.16-.18-.13-1.1,.25-.94,.87-1.6,.87-1.06,.47c-.68,.41-1.18,1.05-1.9,1.4l.16,.2c.69-.35,1.25-.9,1.87-1.36Z"/>
  <polygon class="cls-2" points="37.78 38.7 37.31 39.03 37.84 39.36 37.78 38.7 37.78 38.7"/>
  <polygon class="cls-2" points="38.46 38.74 38.4 39.36 38.9 39.11 38.46 38.74"/>
  <polygon class="cls-2" points="42.15 39.36 42.69 39.03 42.22 38.7 42.22 38.7 42.15 39.36"/>
  <path class="cls-2" d="M38,44.79c1.29,.54,2.79,.54,4.06-.03,1.06-.46,1.96-1.28,2.51-2.3,.64-1.16,.78-2.57,.44-3.84-.35-1.26-1.19-2.38-2.31-3.06-.91-.56-1.98-.81-3.04-.74-.94,.06-1.85,.38-2.61,.91-1.03,.71-1.79,1.79-2.09,3.01-.31,1.24-.15,2.6,.47,3.73,.56,1.04,1.48,1.88,2.57,2.33Zm1.29-5.81l-.38-.25-.37-.23-.65-.07-1.22,.59,.54-.51,.98-.21,.78,.35,.48,.28-.17,.06Zm-1.51-.38l.91,.11,.39,.39-.48,.24-.56,.07-1.02-.31,.76-.5Zm-.69,.75l1.11,.22,1.11-.4s-.82,1.1-2.22,.19Zm3.45,3.92l.24,.48-.37-.4-.41-.12-.41,.12-.37,.4,.23-.48,.48-.23-.43-.14-.68-.49,.65,.31,.54,.17,.53-.17,.66-.31-.68,.49-.43,.14,.47,.23Zm-1.58-.93l1.04-.06,1.04,.06-1.04,.12-1.04-.12Zm1.61-.4l-.58,.05-.58-.05-.67,.37,.71-.54,.54,.05,.54-.05,.72,.54-.68-.37Zm.11-2.77l1.11,.4,1.11-.22c-1.4,.92-2.22-.19-2.22-.19Zm1.27,.25l-.56-.07-.47-.24,.38-.39,.91-.11,.76,.5-1.02,.31Zm.14-.97l-.65,.07-.37,.23-.38,.25-.18-.06,.48-.28,.79-.35,.97,.21,.55,.51-1.22-.59Zm-1.69-.36l1.21-.5,.88,.11,.99,.78c-.64-.5-1.75-.7-2.03-.65-.3,.05-.95,.16-1.16,1.01-.21,.83,.43,1.72,.43,1.72l-.22,.05c-.4-.63-.54-2.12-.09-2.52Zm.09,2.83c.11,.05,.55,.52,.55-.28l.09,.57-.21,.14-.48-.07-.44,.06-.43-.06-.49,.07-.21-.14,.09-.57c0,.8,.45,.33,.55,.28l.5,.27,.5-.27Zm-3-3.22l.89-.11,1.2,.5c.46,.41,.31,1.89-.09,2.52l-.21-.05s.63-.89,.42-1.72c-.21-.85-.86-.96-1.15-1.01-.3-.04-1.41,.15-2.03,.65l.98-.78Z"/>
  <polygon class="cls-2" points="41.09 39.11 41.6 39.36 41.53 38.74 41.09 39.11"/>
  <path class="cls-2" d="M35.07,38.11c-1-.46-1.99-.92-2.99-1.37l.29,.09c.93,.34,1.86,.68,2.79,1.04l.11-.24c-2.31-.85-4.61-1.71-6.91-2.56l-.41-.09,.18,.22c2.28,1.05,4.56,2.1,6.85,3.14l.09-.23Z"/>
  <path class="cls-2" d="M44.83,37.87c.8-.31,1.61-.6,2.42-.91l.67-.21c-1,.44-2,.9-2.99,1.36l.09,.23c2.27-1.04,4.54-2.09,6.82-3.13l.2-.23-.26,.03c-2.35,.87-4.71,1.75-7.06,2.62l.11,.24Z"/>
  <path class="cls-2" d="M29.09,38.07l1.45,.17c.59,.18,1.12,.54,1.71,.7,.82,.26,1.7,.14,2.52,.41l.03-.25c-.69-.23-1.42-.24-2.13-.34l-1.18-.46,.85,.29c.83,.17,1.69,.04,2.52,.23l.08-.27c-.94-.2-1.94-.05-2.87-.32l-1.23-.5c-.58-.18-1.2-.18-1.8-.11h-1.05s-.63-.43-.63-.43h-.02s.01,.01,.01,.01l.26,.48,1.48,.38Z"/>
  <path class="cls-2" d="M47.39,38.3h1.16s-.86,.05-.86,.05c-.85,.15-1.62,.63-2.48,.77l.05,.28c1.04-.21,1.99-.82,3.09-.82l1.32-.04,1.5-.6,.82-.33,.79,.14-.14-.21-1.09-.18-1.21,.46c-.6,.22-1.26,.23-1.89,.18l-1.54,.14c-.6,.16-1.19,.41-1.81,.45l.05,.24c.78-.04,1.5-.35,2.25-.54Z"/>
  <path class="cls-2" d="M34.71,40.13c-1.11-.03-2.24-.07-3.36-.13,1.12-.06,2.25-.09,3.37-.13v-.26c-2.43,.09-4.88,.18-7.33,.27l-.41,.07,.2,.15c2.52,.09,5.04,.19,7.55,.28l-.02-.26Z"/>
  <path class="cls-2" d="M45.29,39.88c1.1,.04,2.21,.07,3.31,.13-1.11,.06-2.21,.1-3.31,.13l-.02,.26c2.51-.09,5.03-.19,7.55-.28l.2-.06-.07-.12-.4-.03c-2.43-.09-4.87-.18-7.28-.27l.02,.26Z"/>
  <path class="cls-2" d="M30.35,41.47l-1.49,.59-.85,.34-.8-.14,.11,.18,1.07,.2,1.21-.43c.56-.23,1.19-.26,1.79-.22l1.18-.02c.8-.1,1.53-.51,2.34-.56l-.06-.24c-.77,.04-1.47,.33-2.2,.52l-1.18,.03,.73-.05c.89-.13,1.68-.63,2.58-.78l-.03-.28c-1.05,.21-2,.82-3.1,.82l-1.31,.04Z"/>
  <path class="cls-2" d="M45.2,40.91c.72,.24,1.48,.24,2.2,.34l1.11,.45-1.07-.33c-.76-.1-1.54-.02-2.29-.19l-.08,.27c.65,.13,1.33,.11,2,.16l1.43,.38,1.29,.4,1.55-.06,.71,.06,.61,.41-.05-.24-.91-.57-1.43-.07c-.61-.04-1.19-.28-1.73-.56l-1.22-.42c-.69-.12-1.42-.07-2.09-.31l-.04,.26Z"/>
  <path class="cls-2" d="M35.19,42.15c-.8,.28-1.6,.59-2.4,.89l-.7,.23c1-.45,1.99-.91,3-1.36l-.12-.24-.72,.34c-2.04,.93-4.07,1.87-6.11,2.81l-.18,.21,.41-.08c2.3-.85,4.61-1.7,6.9-2.56l-.09-.22Z"/>
  <path class="cls-2" d="M45.03,41.66l-.1,.24c1,.45,2,.92,3,1.37l-.26-.07c-.93-.35-1.84-.68-2.76-1.03l-.18,.21c2.36,.87,4.71,1.74,7.06,2.61l.22,.02h.02s0-.01,0-.01l-.08-.16c-2.29-1.07-4.62-2.1-6.9-3.18Z"/>
  <path class="cls-2" d="M33.93,44.32l-1.21,.52,.85-.4c.72-.47,1.23-1.17,1.96-1.63l-.14-.24c-.81,.51-1.39,1.32-2.22,1.78l-1.31,.56-1.4,1.29-.6,.59-.81,.19,.19,.13,1.1-.26,.93-.85,1.6-.89,1.03-.45c.7-.4,1.21-1.06,1.94-1.41l-.15-.2c-.65,.33-1.19,.83-1.75,1.27Z"/>
  <path class="cls-2" d="M47.88,45.09l-1.1-1.12c-.66-.56-1.53-.8-2.2-1.36l-.12,.23c.55,.46,1.21,.77,1.83,1.1l.95,.92-.88-.76c-.68-.38-1.42-.61-2.07-1.04l-.15,.22c.61,.41,1.32,.65,1.96,1.01l1,.8,.93,.8,1.47,.58,.74,.37,.4,.6,.02-.27-.6-.83-.02-.03h-.03s-1.1-.52-1.1-.52l-1.04-.71Z"/>
  <path class="cls-2" d="M34.52,45.54l-.45,.4,.39-.45c.57-.62,1.14-1.23,1.71-1.85l-.16-.19c-1.72,1.85-3.44,3.7-5.15,5.55l.02,.23,.37-.31c1.77-1.64,3.54-3.28,5.3-4.93l-.19-.16c-.61,.57-1.23,1.14-1.84,1.71Z"/>
  <path class="cls-2" d="M43.82,43.63c.7,.78,1.43,1.51,2.11,2.31l-.39-.35c-.63-.58-1.27-1.17-1.9-1.76l-.19,.17c1.85,1.71,3.68,3.42,5.52,5.13l.26,.1-.11-.25c-1.71-1.83-3.41-3.68-5.12-5.52l-.18,.18Z"/>
  <path class="cls-2" d="M36,46.4l-.85,.84,.74-.89c.38-.66,.62-1.41,1.04-2.04l-.21-.16c-.55,.78-.78,1.75-1.37,2.5l-.94,.96-.79,1.62-.47,1.02-.59,.41,.27,.03,.86-.63,.51-1.13,.71-1.04,1.12-1.1c.56-.66,.79-1.53,1.37-2.19l-.21-.13c-.52,.56-.81,1.27-1.19,1.93Z"/>
  <path class="cls-2" d="M43.05,44.32l.83,1.19c.42,.52,.93,1.07,.97,1.77l-.56-1.08c-.47-.6-1.06-1.09-1.49-1.73l-.23,.14c.52,.82,1.34,1.4,1.8,2.26l.51,1.23,1.16,1.32,.72,.7,.2,.83,.14-.56-.62-1.16-.71-.71-.74-1.54-.66-1.27-1.14-1.54-.19,.15Z"/>
  <path class="cls-2" d="M36.74,47.92l.09-.29c.34-.93,.67-1.87,1.04-2.79l-.21-.13c-.38,.94-.72,1.89-1.07,2.84-.53,1.41-1.05,2.82-1.57,4.23l-.03,.26,.21-.17c1.05-2.28,2.1-4.57,3.14-6.85l-.23-.09c-.45,.99-.92,1.98-1.36,2.99Z"/>
  <path class="cls-2" d="M42.14,44.81c.28,.8,.59,1.6,.89,2.4l.24,.72c-.45-1-.92-2-1.37-3l-.22,.09,.23,.52c.96,2.11,1.93,4.22,2.9,6.33l.21,.17-.08-.41c-.86-2.3-1.71-4.6-2.56-6.9l-.23,.09Z"/>
  <path class="cls-2" d="M38.07,50.92l.17-1.46c.18-.59,.54-1.1,.7-1.7,.25-.82,.14-1.71,.41-2.52l-.25-.03c-.25,.74-.25,1.52-.36,2.29l-.43,1.02,.33-1.08c.1-.75,.02-1.53,.19-2.28l-.27-.08c-.14,.69-.11,1.39-.18,2.09l-.38,1.37-.39,1.32,.07,1.53-.07,.67-.4,.6h-.01s.02,0,.02,0l.5-.3,.36-1.45Z"/>
  <path class="cls-2" d="M41.99,48.44l-.15-1.59c-.17-.58-.4-1.15-.45-1.78l-.23,.09c.05,.75,.34,1.45,.52,2.17l.02,1.22-.05-.87c-.15-.86-.62-1.63-.76-2.49l-.28,.05c.19,.93,.7,1.78,.8,2.74v1.28s.42,1.41,.42,1.41l.53,1.07-.1,1.02,.19-.11,.19-1.03v-.04s0-.03,0-.03l-.48-1.34c-.19-.59-.19-1.2-.16-1.8Z"/>
  <path class="cls-2" d="M40,48.69c-.05-1.13-.09-2.27-.12-3.41h-.26c.09,2.43,.19,4.88,.27,7.32l.07,.42h.09l.06-.42c.09-2.45,.18-4.89,.28-7.34l-.26,.02c-.04,1.13-.08,2.28-.13,3.41Z"/>
  <path class="cls-4" d="M40.69,39.17s.82,1.1,2.22,.19l-1.11,.22-1.11-.4Z"/>
  <polygon class="cls-4" points="40 41.82 39.46 41.77 38.74 42.31 39.41 41.94 40 41.99 40.58 41.94 41.26 42.31 40.54 41.77 40 41.82"/>
  <polygon class="cls-4" points="41.19 42.41 40.53 42.72 40 42.89 39.46 42.72 38.81 42.41 39.49 42.9 39.93 43.04 39.45 43.27 39.22 43.75 39.59 43.34 40 43.22 40.41 43.34 40.79 43.75 40.54 43.27 40.07 43.04 40.5 42.9 41.19 42.41"/>
  <path class="cls-4" d="M39.31,39.17l-1.11,.4-1.11-.22c1.4,.92,2.22-.19,2.22-.19Z"/>
  <path class="cls-4" d="M38.55,37.83c.29,.05,.94,.16,1.15,1.01,.21,.83-.42,1.72-.42,1.72l.21,.05c.4-.63,.55-2.12,.09-2.52l-1.2-.5-.89,.11-.98,.78c.63-.5,1.73-.7,2.03-.65Z"/>
  <polygon class="cls-4" points="41.03 42.34 40 42.28 38.96 42.34 40 42.46 41.03 42.34"/>
  <path class="cls-4" d="M41.31,38.72l-.38,.39,.47,.24,.56,.07,1.02-.31-.76-.5-.91,.11Zm-.22,.39l.44-.37,.07,.62-.51-.25Zm1.6-.07l-.54,.32,.06-.65h0l.47,.33Z"/>
  <polygon class="cls-4" points="41.8 38.31 41.01 38.66 40.53 38.93 40.71 38.99 41.09 38.74 41.46 38.51 42.1 38.44 43.32 39.03 42.77 38.52 41.8 38.31"/>
  <path class="cls-4" d="M38.94,40.63l-.09,.57,.21,.14,.49-.07,.43,.06,.44-.06,.48,.07,.21-.14-.09-.57c0,.8-.44,.33-.55,.28l-.5,.27-.5-.27c-.1,.05-.56,.52-.55-.28Z"/>
  <polygon class="cls-4" points="38.98 38.66 38.2 38.31 37.22 38.52 36.68 39.03 37.9 38.44 38.55 38.51 38.92 38.74 39.3 38.99 39.47 38.93 38.98 38.66"/>
  <path class="cls-4" d="M38.6,39.35l.48-.24-.39-.39-.91-.11-.76,.5,1.02,.31,.56-.07Zm-.14-.61l.43,.37-.5,.25,.07-.62Zm-1.15,.3l.47-.33h0l.06,.65-.53-.32Z"/>
  <path class="cls-4" d="M40.72,40.55s-.64-.89-.43-1.72c.21-.85,.86-.96,1.16-1.01,.28-.04,1.4,.15,2.03,.65l-.99-.78-.88-.11-1.21,.5c-.45,.41-.31,1.89,.09,2.52l.22-.05Z"/>
</svg>