<?xml version="1.0" encoding="UTF-8"?>
<svg id="Layer_1" data-name="Layer 1" xmlns="http://www.w3.org/2000/svg" viewBox="0 0 80 80">
  <defs>
    <style>
      .cls-1 {
        fill: #fff;
      }

      .cls-2 {
        fill: #134b8e;
      }

      .cls-3 {
        fill: #ee3f42;
      }
    </style>
  </defs>
  <path class="cls-2" d="M24.64,11.58h15.36v13.12h-15.42l15.42,10.28v5.03h-7.58L13.76,27.57v12.43H.65v-12.43l-.65,.43v28.05l5.21,1.97,1.99-6.21,1.99,6.21,6.1-2.31-3.6,5.43,5.61,3.33-6.49,.56,.88,6.46-4.49-4.73-3.95,4.16c3.57,5.46,9.73,9.08,16.74,9.08H60c5.81,0,11.02-2.49,14.68-6.45l-1.88-1.98-2.19,2.31,.43-3.16-3.17-.28,2.74-1.63-1.76-2.65,2.98,1.13,.97-3.04,.98,3.04,2.98-1.13-1.76,2.65,2.22,1.32c1.76-2.98,2.79-6.44,2.79-10.15v-14.46l-.61-.38-1.69,1.05,.47-1.93-1.52-1.28,1.99-.15,.75-1.84,.61,1.49V20c0-4.27-1.35-8.23-3.64-11.48l-1.37,2.06,2.74,1.63-3.17,.28,.44,3.16-2.2-2.31-2.19,2.31,.43-3.16-3.17-.28,2.74-1.63-1.76-2.65,2.98,1.13,.97-3.03,.98,3.03,2.33-.88C72.46,3.23,66.62,0,60,0h-20V1.34l-15.36,10.24Zm27.82,19.98l2.97,1.13,.98-3.04,.98,3.04,2.98-1.13-1.77,2.66,2.75,1.62-3.18,.28,.44,3.16-2.2-2.31-2.2,2.31,.44-3.16-3.17-.28,2.74-1.62-1.76-2.66Z"/>
  <path class="cls-2" d="M.6,64.77c.48,1.97,1.26,3.83,2.28,5.52l.72-5.26-3.01-.26Z"/>
  <path class="cls-2" d="M74.91,73.29c.77-.86,1.46-1.79,2.07-2.78l-2.43,.21,.35,2.56Z"/>
  <path class="cls-2" d="M0,57.06v2.94c0,.9,.08,1.78,.19,2.64l2.52-1.5-2.72-4.08Z"/>
  <path class="cls-2" d="M26.87,0h-6.87c-2.18,0-4.27,.36-6.24,1.01v7.74L26.87,0Z"/>
  <path class="cls-1" d="M3.38,8.88c-1.11,1.65-1.97,3.48-2.55,5.44H3.38v-5.44Z"/>
  <polygon class="cls-1" points="13.76 27.57 32.42 40 40 40 40 39.88 17.17 24.7 22.37 24.7 40 36.42 40 34.98 24.58 24.7 40 24.7 40 21.97 11.03 21.97 11.03 40 13.76 40 13.76 27.57"/>
  <polygon class="cls-1" points=".65 40 3.38 40 3.38 21.97 0 21.97 0 24.7 .65 24.7 .65 25.89 0 26.31 0 28 .65 27.57 .65 40"/>
  <path class="cls-1" d="M40,14.31v-2.73h-15.36L40,1.34V0h-5.6L17,11.58h-3.24v-1.31L29.21,0h-2.34L13.76,8.74V1.01c-.95,.31-1.86,.7-2.74,1.14V14.31h28.97Z"/>
  <path class="cls-3" d="M3.38,21.97v18.04h7.64V21.97h28.97v-7.65H11.03V2.14c-3.09,1.56-5.73,3.88-7.64,6.73v5.44H.83c-.53,1.8-.83,3.71-.83,5.69v1.97H3.38Z"/>
  <polygon class="cls-3" points="17.17 24.7 40 39.88 40 36.42 22.37 24.7 17.17 24.7"/>
  <polygon class="cls-3" points="13.76 11.58 17 11.58 34.4 0 29.21 0 13.76 10.27 13.76 11.58"/>
  <polygon class="cls-3" points=".65 24.7 0 24.7 0 26.31 .65 25.89 .65 24.7"/>
  <path class="cls-1" d="M11.69,71.49l-.88-6.46,6.49-.56-5.61-3.33,3.6-5.43-6.1,2.31-1.99-6.21-1.99,6.21-5.21-1.97v1.01l2.72,4.08-2.52,1.5c.1,.72,.23,1.43,.4,2.13l3.01,.26-.72,5.26c.13,.21,.25,.42,.38,.62l3.95-4.16,4.49,4.73Z"/>
  <path class="cls-1" d="M76.76,66.18l-2.98,1.13-.98-3.04-.97,3.04-2.98-1.13,1.76,2.65-2.74,1.63,3.17,.28-.43,3.16,2.19-2.31,1.88,1.98c.08-.09,.16-.17,.24-.26l-.35-2.56,2.43-.21c.08-.12,.15-.25,.23-.37l-2.22-1.32,1.76-2.65Z"/>
  <polygon class="cls-1" points="54.65 36.11 54.21 39.27 56.41 36.97 58.61 39.27 58.17 36.11 61.35 35.84 58.6 34.22 60.37 31.56 57.39 32.69 56.41 29.65 55.43 32.69 52.46 31.56 54.22 34.22 51.48 35.84 54.65 36.11"/>
  <path class="cls-1" d="M72.8,6.03l-.97,3.03-2.98-1.13,1.76,2.65-2.74,1.63,3.17,.28-.43,3.16,2.19-2.31,2.2,2.31-.44-3.16,3.17-.28-2.74-1.63,1.37-2.06c-.08-.12-.17-.23-.26-.35l-2.33,.88-.98-3.03Z"/>
  <polygon class="cls-1" points="78.65 42.86 76.66 43 78.18 44.29 77.71 46.22 79.39 45.17 80 45.54 80 42.51 79.39 41.02 78.65 42.86"/>
</svg>