<?xml version="1.0" encoding="UTF-8"?>
<svg id="Layer_1" data-name="Layer 1" xmlns="http://www.w3.org/2000/svg" viewBox="0 0 80 80">
  <defs>
    <style>
      .cls-1 {
        fill: #fff;
      }

      .cls-2 {
        fill: #cd2028;
      }
    </style>
  </defs>
  <path class="cls-1" d="M0,20V60c0,11.05,8.95,20,20,20h5.81l11.49-5.02-20.02-8.74,20.02-8.75-20.02-8.74,20.02-8.74-20.02-8.75,20.02-8.74L17.27,13.76,37.3,5.02,25.81,0h-5.81C8.95,0,0,8.95,0,20Z"/>
  <path class="cls-2" d="M17.27,13.76l20.02,8.75-20.02,8.74,20.02,8.75-20.02,8.74,20.02,8.74-20.02,8.75,20.02,8.74-11.49,5.02H60c11.05,0,20-8.95,20-20V20c0-11.05-8.95-20-20-20H25.81l11.48,5.02L17.27,13.76Z"/>
</svg>