<?xml version="1.0" encoding="UTF-8"?>
<svg id="Layer_1" data-name="Layer 1" xmlns="http://www.w3.org/2000/svg" viewBox="0 0 80 80">
  <defs>
    <style>
      .cls-1 {
        fill: #006b50;
      }

      .cls-2 {
        fill: #ed2d43;
      }
    </style>
  </defs>
  <path class="cls-1" d="M60,80c11.05,0,20-8.95,20-20V20c0-11.05-8.95-20-20-20H20C8.95,0,0,8.95,0,20V60c0,11.05,8.95,20,20,20H60ZM10.54,40c0-14.36,11.64-26.01,26.01-26.01s26.01,11.65,26.01,26.01-11.65,26.01-26.01,26.01-26.01-11.64-26.01-26.01Z"/>
  <path class="cls-2" d="M62.56,40c0-14.36-11.65-26.01-26.01-26.01S10.54,25.64,10.54,40s11.64,26.01,26.01,26.01,26.01-11.64,26.01-26.01Z"/>
</svg>