<?xml version="1.0" encoding="UTF-8"?>
<svg id="Layer_1" data-name="Layer 1" xmlns="http://www.w3.org/2000/svg" viewBox="0 0 80 80">
  <defs>
    <style>
      .cls-1 {
        fill: #ffc72a;
      }

      .cls-2 {
        fill: #263678;
      }
    </style>
  </defs>
  <path class="cls-2" d="M18.14,.09C7.97,1.04,0,9.58,0,20V60c0,10.42,7.97,18.96,18.14,19.91V.09Z"/>
  <path class="cls-1" d="M20,80H60c.63,0,1.25-.04,1.86-.09V.09c-.61-.06-1.23-.09-1.86-.09H20c-.63,0-1.25,.04-1.86,.09V79.91c.61,.06,1.23,.09,1.86,.09Zm2.47-54.64c3.28,.67,6.72,2.26,9.05,4.67l-1.6-.38c-1.31-.25,3.55,16.02,3.55,16.02l4.38-.66v-15.51c-1.02-.03-2.62,.24-3.54,.54,2.96-2.94,5.69-10.46,5.69-10.46,0,0,2.73,7.54,5.68,10.49-.91-.31-2.52-.58-3.55-.55v15.52l4.38,.64s4.86-16.34,3.56-16.03l-1.6,.39c2.34-2.41,5.77-3.99,9.06-4.67l.2,.42c-4.66,6.58-8.03,24.2-8.03,24.2l-7.56-1v11.43h-4.28v-11.45l-7.55,1.01s-3.33-17.66-8.04-24.21l.2-.41Z"/>
  <path class="cls-2" d="M80,60V20C80,9.58,72.03,1.04,61.86,.09V79.91c10.17-.94,18.14-9.49,18.14-19.91Z"/>
  <path d="M37.86,48.97v11.45h4.28v-11.43l7.56,1s3.38-17.63,8.03-24.2l-.2-.42c-3.29,.68-6.72,2.26-9.06,4.67l1.6-.39c1.3-.32-3.56,16.03-3.56,16.03l-4.38-.64v-15.52c1.03-.03,2.64,.24,3.55,.55-2.95-2.95-5.68-10.49-5.68-10.49,0,0-2.73,7.52-5.69,10.46,.92-.3,2.52-.57,3.54-.54v15.51l-4.38,.66s-4.87-16.28-3.55-16.02l1.6,.38c-2.33-2.41-5.77-4-9.05-4.67l-.2,.41c4.7,6.55,8.04,24.21,8.04,24.21l7.55-1.01Z"/>
</svg>