<?xml version="1.0" encoding="UTF-8"?>
<svg id="Layer_1" data-name="Layer 1" xmlns="http://www.w3.org/2000/svg" viewBox="0 0 80 80">
  <defs>
    <style>
      .cls-1 {
        fill: #fff;
      }

      .cls-2 {
        fill: #2b286c;
      }

      .cls-3 {
        fill: #f5c115;
      }

      .cls-4 {
        fill: #009247;
      }
    </style>
  </defs>
  <path class="cls-4" d="M60,0H20C8.95,0,0,8.95,0,20v12.05L40,6.51l40,25.54v-12.05c0-11.05-8.95-20-20-20Z"/>
  <path class="cls-4" d="M0,47.95v12.05c0,11.05,8.95,20,20,20H60c11.05,0,20-8.95,20-20v-12.05l-40,25.54L0,47.95Z"/>
  <path class="cls-3" d="M0,32.05v15.9l40,25.55,40-25.54v-15.91L40,6.51,0,32.05Zm62.46,7.95c0,1.32-.12,2.61-.34,3.87-.02,.13-.04,.26-.07,.38-.1,.51-.21,1.01-.34,1.5,0,.03-.01,.06-.02,.09,0,0,0,0,0,0-2.57,9.57-11.31,16.62-21.69,16.62-12.42,0-22.47-10.06-22.47-22.47,0-2.48,.41-4.87,1.15-7.1,.02-.06,.04-.12,.06-.18,3.02-8.83,11.39-15.18,21.26-15.18,12.4,0,22.46,10.06,22.46,22.46Z"/>
  <path class="cls-2" d="M62.06,44.26c-.1,.51-.21,1.01-.34,1.5,.13-.49,.24-1,.34-1.5Z"/>
  <path class="cls-2" d="M18.75,32.72c.19-.55,.39-1.09,.62-1.61,2.3-.38,4.66-.64,7.06-.72,13.55-.48,26.1,4.03,35.93,11.87-.05,.54-.13,1.08-.23,1.61,.22-1.26,.34-2.55,.34-3.87,0-12.4-10.06-22.46-22.46-22.46-9.87,0-18.23,6.35-21.26,15.18Zm28.18-.61l.2-.63,.21,.63h.66l-.54,.39,.2,.63-.54-.39-.54,.39,.21-.63-.54-.39h.66Z"/>
  <path class="cls-2" d="M26.54,33.59c-2.86,.1-5.64,.44-8.34,.99,.14-.57,.3-1.13,.49-1.68-.74,2.23-1.15,4.62-1.15,7.1,0,12.41,10.05,22.47,22.47,22.47,10.38,0,19.11-7.05,21.69-16.62-9.43-8.04-21.79-12.73-35.15-12.26Zm-5.52,14.75l-.36-.26-.36,.26,.14-.42-.36-.26h.44l.14-.42,.13,.42h.44l-.36,.26,.14,.42Zm.96-11.29l-.54-.39-.54,.39,.2-.64-.54-.39h.66l.2-.64,.2,.64h.67l-.54,.39,.2,.64Zm1.83,8.91l.2,.64-.54-.4-.55,.4,.2-.64-.54-.4h.66l.21-.64,.2,.64h.67l-.54,.4Zm2.14-1.15l-.27-.2-.27,.2,.1-.32-.27-.2h.33l.1-.32,.1,.32h.34l-.28,.2,.1,.32Zm2.01,6.19l-.46-.33-.46,.33,.18-.54-.47-.34h.57l.18-.54,.18,.54h.56l-.45,.34,.17,.54Zm.74-2.26l-.46-.34-.47,.34,.18-.54-.46-.33h.57l.18-.54,.17,.54h.57l-.46,.33,.17,.54Zm11.53,9.7l-.16-.12-.18,.12,.06-.2-.16-.12h.21l.07-.21,.06,.21h.21l-.18,.12,.06,.2Zm11.56-.56l-.37-.27-.36,.27,.14-.43-.36-.26h.45l.14-.43,.14,.43h.45l-.36,.26,.14,.43Zm7.26-9.53l.13-.41,.13,.41h.44l-.35,.25,.13,.41-.35-.25-.35,.25,.13-.41-.34-.25h.43Zm-1.92,1.75h.59l-.48,.35,.18,.56-.47-.35-.48,.35,.19-.56-.48-.35h.59l.19-.56,.18,.56Zm-1.31-2.05l.21-.65,.21,.65h.68l-.55,.4,.21,.64-.55-.4-.55,.4,.2-.64-.55-.4h.67Zm-.46,3.9l.18-.55,.18,.55h.58l-.46,.34,.18,.55-.48-.34-.47,.34,.19-.55-.48-.34h.58Zm-1.76,1.22l.14-.42,.14,.42h.44l-.36,.27,.14,.42-.37-.27-.36,.27,.14-.42-.36-.27h.45Zm-2.36-.46l.12-.42,.15,.42h.43l-.35,.26,.13,.42-.36-.26-.35,.26,.13-.42-.36-.26h.45Zm.07,2.16l.18-.56,.19,.56h.59l-.48,.35,.18,.56-.48-.35-.47,.35,.18-.56-.48-.35h.59Zm-2.63-1.36l.15-.45,.15,.45h.48l-.38,.28,.14,.45-.38-.28-.38,.28,.15-.45-.38-.28h.47Zm-1.66,1.88h.61l-.49,.36,.19,.58-.49-.36-.5,.36,.19-.58-.49-.36h.61l.19-.58,.19,.58Zm-1.15-16.61l.15-.46,.15,.46h.48l-.38,.28,.15,.46-.39-.28-.39,.28,.15-.46-.39-.28h.48Zm-.94,14.13l.14-.44,.15,.44h.47l-.38,.27,.15,.44-.39-.27-.37,.27,.14-.44-.37-.27h.46Zm-2.38-7.08l.17-.52,.17,.52h.55l-.44,.32,.18,.52-.45-.32-.44,.32,.17-.52-.45-.32h.55Zm-1.92,5.46l-.54-.4-.54,.4,.2-.64-.54-.39h.66l.21-.63,.2,.63h.67l-.54,.39,.2,.64Zm-.7-7.54l.15-.49,.16,.49h.51l-.41,.3,.16,.49-.42-.31-.41,.31,.16-.49-.42-.3h.51Zm-1.13,3.76l.09-.28,.09,.28h.29l-.24,.16,.09,.27-.23-.17-.23,.17,.09-.27-.23-.16h.28Zm-1.14-1.72l.14-.41,.13,.41h.44l-.36,.25,.14,.42-.35-.26-.35,.26,.13-.42-.35-.25h.43Zm-6.56-4.77l.17-.52,.17,.52h.55l-.44,.32,.18,.52-.45-.32-.45,.32,.18-.52-.45-.32h.55Zm-.39,11.12l.2-.63,.21,.63h.66l-.54,.39,.21,.63-.55-.39-.54,.39,.21-.63-.54-.39h.66Z"/>
  <path class="cls-1" d="M26.42,30.39c-2.39,.08-4.75,.33-7.06,.72-.23,.53-.43,1.07-.62,1.61-.02,.06-.04,.12-.06,.18-.18,.55-.35,1.11-.49,1.68,2.7-.54,5.48-.89,8.34-.99,13.36-.47,25.72,4.21,35.15,12.26,0,0,0,0,0,0,0-.03,.01-.06,.02-.09,.13-.49,.24-.99,.34-1.5,.02-.13,.05-.25,.07-.38,.09-.53,.17-1.07,.23-1.61-9.82-7.84-22.38-12.36-35.93-11.87Zm-4.48,2.77l-.72,.41-.81-.19-.41-.77,.02-.57,.15-.33,.26-.24,.46-.15,.81,.19,.41,.78-.18,.87Zm2.6,0l-.37-.45-.26-.3-.14-.08h-.23s-.09,0-.09,0l.09,.91-.45,.04-.19-2.19,.92-.09h.53s.27,.2,.27,.2l.12,.34-.1,.42-.42,.24,.26,.16,.28,.33,.31,.4-.52,.05Zm3.03-.75l-.22,.39-.31,.19-.39,.06-.83,.02-.06-2.2,.82-.02,.41,.03,.33,.2,.22,.35,.09,.52-.06,.47Zm2.61,.62l-1.66-.03,.02-2.2,1.63,.02v.37s-1.19-.02-1.19-.02v.49s1.09,.01,1.09,.01v.37s-1.11-.02-1.11-.02v.6s1.22,.01,1.22,.01v.37Zm2.99,.18l-.4-.02,.12-1.73-.56,1.7-.42-.03-.31-1.76-.13,1.72-.4-.02,.15-2.19,.66,.05,.29,1.52,.49-1.47,.66,.05-.16,2.19Zm4.16-1.29l-1.17-.18-.08,.48,1.1,.16-.06,.37-1.09-.17-.09,.59,1.22,.18-.06,.37-1.65-.25,.33-2.17,1.61,.25-.06,.37Zm3.77,1.44l-.23,.17-.25,.05-.46-.07-.28-.06-.19,.81-.43-.1,.5-2.14,.69,.16,.51,.15,.26,.28,.03,.45-.15,.32Zm2.83,.36l-.26,.35-.47,.07,.18,.24,.14,.42,.15,.49-.51-.15-.18-.55-.13-.38-.1-.13-.21-.08-.08-.03-.25,.88-.43-.12,.6-2.11,.89,.26,.47,.2,.19,.27v.36Zm2.7,1.42l-.54,.69-.83,.03-.64-.53v-.88l.28-.5,.29-.22,.34-.09,.48,.08,.63,.54v.89Zm1.51,1.41l.28,.05,.27-.03,.11-.26-.48-.19,.15-.34,.88,.36-.33,.81-.47,.07-.53-.11-.5-.36-.19-.53,.1-.6,.37-.51,.54-.22,.53,.1,.53,.4,.09,.55-.43-.09-.07-.31-.26-.21h-.5s-.37,.44-.37,.44l-.06,.61,.35,.36Zm3.9,.41l-.3,.31h-.48s.13,.26,.13,.26l.08,.43,.06,.5-.48-.23-.08-.57-.07-.39-.08-.14-.19-.12-.08-.04-.39,.83-.4-.19,.94-1.98,.84,.4,.44,.28,.15,.3-.07,.36Zm2.13,1.4l-.18,.33-.96-.53-.28,.53,1.07,.58-.18,.33-1.47-.8,1.05-1.93,1.42,.78-.18,.33-1.05-.57-.23,.43,.97,.52Zm2.42,1.17l-.39-.22,.03-.27-.2-.21-.3-.09-.13,.09v.14s.26,.33,.26,.33l.32,.38,.09,.32-.1,.34-.27,.25-.38,.05-.45-.18-.45-.5,.07-.62,.38,.19-.03,.36,.22,.25,.32,.09,.21-.12,.03-.14-.1-.16-.25-.27-.32-.44,.06-.48,.24-.22,.35-.05,.41,.16,.44,.48-.06,.53Zm2.19,1.45l-.38-.23,.03-.27-.19-.22-.29-.1-.14,.07v.15s.24,.35,.24,.35l.31,.4,.08,.33-.12,.34-.29,.23-.38,.04-.44-.21-.42-.51,.09-.62,.38,.21-.05,.35,.21,.27,.32,.11,.2-.12,.04-.13-.08-.17-.24-.28-.29-.46,.09-.48,.25-.21,.36-.03,.39,.18,.41,.5-.09,.52Zm2.17,2.2l-.73,.48-.8-.22-.44-.71,.27-.83,.42-.39,.34-.12h.34s.44,.23,.44,.23l.44,.71-.28,.85Z"/>
  <polygon class="cls-1" points="51.25 36.29 50.93 36.14 50.7 36.64 51 36.78 51.36 36.93 51.51 36.9 51.63 36.77 51.65 36.58 51.53 36.43 51.25 36.29"/>
  <polygon class="cls-1" points="60.09 41.79 59.61 42.14 59.42 42.7 59.64 43.11 60.1 43.22 60.59 42.87 60.8 42.32 60.56 41.9 60.09 41.79"/>
  <polygon class="cls-1" points="40.63 32.59 40.33 32.5 40.12 32.46 39.98 33.06 40.21 33.12 40.57 33.17 40.73 33.09 40.81 32.93 40.78 32.72 40.63 32.59"/>
  <polygon class="cls-1" points="20.95 31.69 20.54 31.94 20.46 32.52 20.71 33.06 21.17 33.18 21.58 32.94 21.66 32.35 21.41 31.81 20.95 31.69"/>
  <polygon class="cls-1" points="43.34 33.29 43.03 33.19 42.71 33.1 42.55 33.64 42.86 33.73 43.25 33.81 43.4 33.76 43.49 33.61 43.48 33.42 43.34 33.29"/>
  <polygon class="cls-1" points="45.41 34.09 45.07 34.58 45.04 35.17 45.39 35.5 45.86 35.45 46.21 34.97 46.24 34.38 45.88 34.06 45.41 34.09"/>
  <polygon class="cls-1" points="26.98 31.33 26.78 31.23 26.41 31.22 26.22 31.23 26.26 32.68 26.59 32.67 26.86 32.64 27.03 32.54 27.14 32.33 27.18 31.93 27.12 31.54 26.98 31.33"/>
  <polygon class="cls-1" points="24.31 31.62 24.23 31.44 24.05 31.38 23.73 31.4 23.39 31.43 23.44 31.98 23.76 31.95 24.15 31.89 24.27 31.79 24.31 31.62"/>
  <path class="cls-4" d="M20.9,31.31l-.46,.15-.26,.24-.15,.33-.02,.57,.41,.77,.81,.19,.72-.41,.18-.87-.41-.78-.81-.19Zm.67,1.62l-.4,.25-.46-.13-.25-.53,.08-.58,.41-.25,.46,.12,.24,.54-.08,.59Z"/>
  <path class="cls-4" d="M24.49,32.37l-.26-.16,.42-.24,.1-.42-.12-.34-.27-.19h-.53s-.92,.07-.92,.07l.19,2.19,.45-.04-.09-.91h.09s.23,0,.23,0l.14,.08,.26,.3,.37,.45,.52-.05-.31-.4-.28-.33Zm-.33-.48l-.39,.06-.32,.03-.05-.56,.34-.03,.33-.02,.18,.07,.08,.18-.03,.17-.12,.1Z"/>
  <path class="cls-4" d="M27.33,31.07l-.33-.2-.41-.03-.82,.02,.06,2.2,.83-.02,.39-.06,.31-.19,.22-.39,.06-.47-.09-.52-.22-.35Zm-.19,1.26l-.11,.22-.17,.1-.27,.03h-.33s-.04-1.44-.04-1.44h.19s.37,0,.37,0l.2,.1,.14,.21,.06,.39-.04,.4Z"/>
  <polygon class="cls-4" points="28.98 32.04 30.08 32.06 30.09 31.68 28.98 31.67 28.99 31.18 30.18 31.2 30.19 30.83 28.55 30.8 28.53 33 30.19 33.03 30.2 32.65 28.96 32.64 28.98 32.04"/>
  <polygon class="cls-4" points="32.18 32.43 31.89 30.91 31.23 30.86 31.08 33.06 31.48 33.08 31.61 31.36 31.92 33.12 32.34 33.15 32.9 31.45 32.78 33.18 33.19 33.2 33.34 31.01 32.68 30.97 32.18 32.43"/>
  <polygon class="cls-4" points="35.46 33.47 37.11 33.72 37.17 33.35 35.95 33.17 36.04 32.58 37.13 32.74 37.19 32.37 36.1 32.21 36.18 31.73 37.35 31.91 37.4 31.54 35.79 31.29 35.46 33.47"/>
  <path class="cls-4" d="M40.97,32.3l-.51-.15-.69-.16-.5,2.14,.43,.1,.19-.81,.28,.06,.46,.07,.25-.05,.23-.17,.15-.32-.03-.45-.26-.28Zm-.25,.79l-.16,.08-.36-.05-.24-.06,.15-.61,.21,.05,.3,.09,.15,.14,.03,.21-.09,.15Z"/>
  <path class="cls-4" d="M43.27,32.88l-.89-.26-.6,2.11,.43,.12,.25-.88,.08,.03,.21,.08,.1,.13,.13,.38,.18,.55,.51,.15-.15-.49-.14-.42-.18-.24,.47-.07,.26-.35v-.36l-.19-.27-.47-.2Zm.13,.88l-.15,.05-.39-.08-.31-.09,.16-.54,.32,.09,.31,.1,.14,.13v.19s-.08,.15-.08,.15Z"/>
  <path class="cls-4" d="M45.53,33.63l-.34,.09-.29,.22-.28,.5v.88l.64,.53,.83-.03,.54-.69v-.89l-.63-.54-.48-.08Zm.68,1.34l-.35,.48-.47,.05-.36-.33,.03-.59,.35-.48,.47-.03,.36,.32-.03,.59Z"/>
  <polygon class="cls-4" points="48.23 35.13 48.73 35.14 48.98 35.35 49.05 35.65 49.48 35.74 49.4 35.19 48.87 34.79 48.34 34.69 47.8 34.91 47.43 35.41 47.33 36.01 47.53 36.54 48.03 36.9 48.56 37.01 49.03 36.94 49.36 36.13 48.48 35.77 48.33 36.11 48.81 36.3 48.7 36.57 48.43 36.59 48.15 36.54 47.8 36.18 47.86 35.58 48.23 35.13"/>
  <path class="cls-4" d="M51.53,36.01l-.84-.4-.94,1.98,.4,.19,.39-.83,.08,.04,.19,.12,.08,.14,.07,.39,.08,.57,.48,.23-.06-.5-.08-.43-.13-.27h.48s.3-.3,.3-.3l.07-.36-.15-.3-.44-.28Zm.1,.76l-.11,.13-.15,.03-.37-.15-.3-.14,.23-.5,.32,.15,.28,.14,.11,.15-.02,.19Z"/>
  <polygon class="cls-4" points="54.48 37.95 54.65 37.63 53.23 36.85 52.18 38.78 53.65 39.58 53.82 39.25 52.75 38.67 53.03 38.14 53.99 38.67 54.17 38.34 53.2 37.82 53.43 37.39 54.48 37.95"/>
  <polygon class="cls-4" points="55.8 38.34 55.46 38.39 55.21 38.61 55.15 39.09 55.47 39.54 55.72 39.8 55.82 39.96 55.78 40.1 55.57 40.23 55.25 40.14 55.03 39.88 55.06 39.53 54.68 39.34 54.61 39.96 55.06 40.45 55.51 40.63 55.89 40.58 56.16 40.33 56.26 39.99 56.17 39.67 55.85 39.28 55.57 38.95 55.59 38.8 55.72 38.72 56.02 38.81 56.23 39.02 56.2 39.29 56.59 39.51 56.65 38.98 56.21 38.5 55.8 38.34"/>
  <polygon class="cls-4" points="58.06 39.75 57.7 39.78 57.45 39.99 57.36 40.47 57.66 40.93 57.9 41.21 57.98 41.38 57.94 41.51 57.74 41.63 57.42 41.52 57.2 41.25 57.25 40.91 56.87 40.7 56.78 41.31 57.2 41.83 57.65 42.04 58.03 42 58.31 41.76 58.43 41.42 58.36 41.1 58.05 40.7 57.8 40.35 57.81 40.2 57.95 40.13 58.25 40.24 58.43 40.45 58.4 40.73 58.78 40.96 58.87 40.43 58.45 39.93 58.06 39.75"/>
  <path class="cls-4" d="M60.35,41.38h-.34s-.34,.1-.34,.1l-.42,.39-.27,.83,.44,.71,.8,.22,.73-.48,.28-.85-.44-.71-.44-.22Zm.25,1.49l-.49,.35-.46-.11-.23-.41,.19-.56,.48-.35,.47,.12,.24,.41-.2,.55Z"/>
  <polygon class="cls-1" points="46.6 33.13 47.14 32.75 47.68 33.13 47.47 32.5 48.01 32.11 47.35 32.11 47.14 31.48 46.93 32.11 46.27 32.11 46.81 32.5 46.6 33.13"/>
  <polygon class="cls-1" points="40.3 50.26 40.09 49.62 39.89 50.26 39.23 50.26 39.76 50.65 39.56 51.29 40.09 50.89 40.63 51.29 40.43 50.65 40.97 50.26 40.3 50.26"/>
  <polygon class="cls-1" points="55.49 49.08 56.04 48.68 56.59 49.08 56.38 48.44 56.93 48.04 56.25 48.04 56.04 47.39 55.83 48.04 55.15 48.04 55.7 48.44 55.49 49.08"/>
  <polygon class="cls-1" points="58.84 49.01 59.18 48.76 59.53 49.01 59.4 48.59 59.75 48.34 59.32 48.34 59.18 47.93 59.06 48.34 58.62 48.34 58.96 48.59 58.84 49.01"/>
  <polygon class="cls-1" points="56.18 50.09 56.66 50.44 56.47 51 56.95 50.65 57.43 51 57.25 50.44 57.73 50.09 57.13 50.09 56.95 49.53 56.77 50.09 56.18 50.09"/>
  <polygon class="cls-1" points="55.08 52.83 55.55 52.49 56.02 52.83 55.84 52.28 56.3 51.94 55.72 51.94 55.55 51.39 55.37 51.94 54.79 51.94 55.27 52.28 55.08 52.83"/>
  <polygon class="cls-1" points="53.39 53.84 53.75 53.58 54.11 53.84 53.97 53.42 54.33 53.15 53.89 53.15 53.75 52.73 53.61 53.15 53.16 53.15 53.52 53.42 53.39 53.84"/>
  <polygon class="cls-1" points="51.03 53.37 51.38 53.11 51.74 53.37 51.61 52.95 51.96 52.7 51.52 52.7 51.38 52.28 51.25 52.7 50.81 52.7 51.16 52.95 51.03 53.37"/>
  <polygon class="cls-1" points="48.45 54.23 48.84 53.95 49.22 54.23 49.08 53.78 49.46 53.5 48.98 53.5 48.84 53.05 48.69 53.5 48.22 53.5 48.6 53.78 48.45 54.23"/>
  <polygon class="cls-1" points="51.56 57.19 51.42 56.76 51.29 57.19 50.84 57.19 51.2 57.45 51.06 57.87 51.42 57.61 51.79 57.87 51.65 57.45 52.01 57.19 51.56 57.19"/>
  <polygon class="cls-1" points="46.04 55.38 46.54 55.74 46.34 56.32 46.84 55.96 47.33 56.32 47.14 55.74 47.64 55.38 47.03 55.38 46.84 54.8 46.65 55.38 46.04 55.38"/>
  <polygon class="cls-1" points="44.71 53.61 45.08 53.34 45.47 53.61 45.31 53.17 45.69 52.9 45.22 52.9 45.08 52.46 44.93 52.9 44.48 52.9 44.85 53.17 44.71 53.61"/>
  <polygon class="cls-1" points="51.03 55.77 51.5 55.42 51.97 55.77 51.79 55.21 52.27 54.86 51.68 54.86 51.5 54.3 51.32 54.86 50.73 54.86 51.2 55.21 51.03 55.77"/>
  <polygon class="cls-1" points="40.13 58.11 40.07 57.91 40 58.11 39.8 58.11 39.96 58.24 39.9 58.44 40.07 58.31 40.23 58.44 40.17 58.24 40.35 58.11 40.13 58.11"/>
  <polygon class="cls-1" points="45.64 39.51 46.03 39.23 46.42 39.51 46.27 39.05 46.66 38.77 46.18 38.77 46.03 38.31 45.88 38.77 45.4 38.77 45.79 39.05 45.64 39.51"/>
  <polygon class="cls-1" points="39.67 44.53 40.08 44.23 40.5 44.53 40.34 44.04 40.75 43.75 40.24 43.75 40.08 43.26 39.93 43.75 39.42 43.75 39.83 44.04 39.67 44.53"/>
  <polygon class="cls-1" points="42.28 46.66 42.72 46.34 43.17 46.66 43 46.14 43.44 45.82 42.89 45.82 42.72 45.3 42.55 45.82 42 45.82 42.45 46.14 42.28 46.66"/>
  <polygon class="cls-1" points="37.45 46.45 37.8 46.2 38.15 46.45 38.01 46.03 38.37 45.78 37.93 45.78 37.8 45.38 37.66 45.78 37.23 45.78 37.58 46.03 37.45 46.45"/>
  <polygon class="cls-1" points="38.66 47.94 38.89 47.77 39.12 47.94 39.03 47.67 39.27 47.5 38.98 47.5 38.89 47.22 38.8 47.5 38.52 47.5 38.75 47.67 38.66 47.94"/>
  <polygon class="cls-1" points="21.64 36.02 21.44 35.39 21.23 36.02 20.57 36.02 21.11 36.41 20.9 37.05 21.44 36.66 21.98 37.05 21.78 36.41 22.31 36.02 21.64 36.02"/>
  <polygon class="cls-1" points="30.82 41.86 31.27 41.54 31.72 41.86 31.54 41.33 31.98 41.01 31.43 41.01 31.27 40.49 31.1 41.01 30.55 41.01 31 41.33 30.82 41.86"/>
  <polygon class="cls-1" points="23.48 44.93 23.27 45.57 22.6 45.57 23.14 45.96 22.93 46.6 23.48 46.2 24.02 46.6 23.81 45.96 24.35 45.57 23.68 45.57 23.48 44.93"/>
  <polygon class="cls-1" points="25.78 44.3 25.68 43.98 25.58 44.3 25.25 44.3 25.52 44.5 25.41 44.82 25.68 44.62 25.95 44.82 25.84 44.5 26.12 44.3 25.78 44.3"/>
  <polygon class="cls-1" points="28.41 47.86 28.24 47.32 28.07 47.86 27.5 47.86 27.96 48.2 27.78 48.74 28.24 48.4 28.7 48.74 28.53 48.2 28.98 47.86 28.41 47.86"/>
  <polygon class="cls-1" points="30.38 53.15 30.91 52.77 31.46 53.15 31.25 52.52 31.79 52.13 31.12 52.13 30.91 51.5 30.71 52.13 30.04 52.13 30.58 52.52 30.38 53.15"/>
  <polygon class="cls-1" points="27.68 50.13 27.5 49.59 27.33 50.13 26.76 50.13 27.22 50.46 27.05 51 27.5 50.67 27.96 51 27.79 50.46 28.24 50.13 27.68 50.13"/>
  <polygon class="cls-1" points="20.79 47.66 20.66 47.24 20.52 47.66 20.08 47.66 20.44 47.92 20.3 48.34 20.66 48.08 21.02 48.34 20.88 47.92 21.23 47.66 20.79 47.66"/>
</svg>