<?xml version="1.0" encoding="UTF-8"?>
<svg id="Layer_1" data-name="Layer 1" xmlns="http://www.w3.org/2000/svg" xmlns:xlink="http://www.w3.org/1999/xlink" viewBox="0 0 80 80">
  <defs>
    <style>
      .cls-1 {
        fill: #00247d;
      }

      .cls-2 {
        fill: url(#linear-gradient-2);
      }

      .cls-3 {
        fill: #fff;
      }

      .cls-4 {
        fill: #ffc6b5;
      }

      .cls-5 {
        fill: url(#linear-gradient-6);
      }

      .cls-6 {
        fill: #9c5100;
      }

      .cls-7 {
        fill: #006129;
      }

      .cls-8 {
        fill: url(#linear-gradient-5);
      }

      .cls-9 {
        fill: url(#linear-gradient-7);
      }

      .cls-10 {
        fill: #f7c600;
      }

      .cls-11 {
        fill: none;
        stroke: #000;
        stroke-linecap: round;
        stroke-linejoin: round;
        stroke-width: 0px;
      }

      .cls-12 {
        fill: url(#linear-gradient-3);
      }

      .cls-13 {
        fill: url(#linear-gradient);
      }

      .cls-14 {
        fill: #cf142b;
      }

      .cls-15 {
        fill: url(#linear-gradient-4);
      }
    </style>
    <linearGradient id="linear-gradient" x1="-646.72" y1="-156.07" x2="-648.26" y2="-156.58" gradientTransform="translate(703.58 372.68) scale(1 2.25)" gradientUnits="userSpaceOnUse">
      <stop offset="0" stop-color="red"/>
      <stop offset="1" stop-color="#ff0"/>
    </linearGradient>
    <linearGradient id="linear-gradient-2" x1="-646.05" y1="-171.71" x2="-647.6" y2="-172.23" gradientTransform="translate(702.8 413.98) scale(1 2.25)" xlink:href="#linear-gradient"/>
    <linearGradient id="linear-gradient-3" x1="-645.78" y1="-187.14" x2="-647.33" y2="-187.65" gradientTransform="translate(702.49 454.69) scale(1 2.25)" xlink:href="#linear-gradient"/>
    <linearGradient id="linear-gradient-4" x1="-668.67" y1="-203.83" x2="-670.21" y2="-204.35" gradientTransform="translate(729.2 498.78) scale(1 2.25)" xlink:href="#linear-gradient"/>
    <linearGradient id="linear-gradient-5" x1="-642.8" y1="-217.5" x2="-644.34" y2="-218.01" gradientTransform="translate(699 534.84) scale(1 2.25)" xlink:href="#linear-gradient"/>
    <linearGradient id="linear-gradient-6" x1="-643.47" y1="-233.64" x2="-645.02" y2="-234.16" gradientTransform="translate(699.79 577.45) scale(1 2.25)" xlink:href="#linear-gradient"/>
    <linearGradient id="linear-gradient-7" x1="-769.36" y1="-187.32" x2="-770.91" y2="-187.83" gradientTransform="translate(846.72 455.34) scale(1 2.25)" xlink:href="#linear-gradient"/>
  </defs>
  <path class="cls-1" d="M60,0H29V.91L9.5,10.67H29s0,2.93,0,2.93v11.73H9.51l19.49,9.75v4.92h-9.84L0,30.42v29.58c0,11.05,8.95,20,20,20H60c7.84,0,14.61-4.53,17.89-11.1-1.43,.27-2.97,.46-4.64,.51-12.2-.22-18.88-7.99-18.88-7.99,0,0-1.63,2.6-3.95,.54-2.24-2.65-.54-4.36-.54-4.36,0,0,1.91-1.09,2.45-1.83,.88-1.03,1.16-2.39,2.65-2.39,1.77,.13,2.45,1.57,2.45,1.57,0,0,6.13,6.47,12.75,7.29-14.92-7.16-15.47-11.59-15.4-12.67l.07-32.43,24.9-.09C78.33,7.4,70.04,0,60,0Z"/>
  <path class="cls-1" d="M79.94,61.18c.02-.27,.04-.53,.04-.8-1.17,.6-2.45,1.23-3.87,1.87,1.28-.13,2.57-.53,3.83-1.07Z"/>
  <polygon class="cls-3" points="29 36.72 29 35.08 9.51 25.33 29 25.33 29 22.4 0 22.4 0 25.33 6.23 25.33 29 36.72"/>
  <polygon class="cls-3" points="29 40 0 25.5 0 30.42 19.16 40 29 40"/>
  <path class="cls-3" d="M29,13.6v-2.93H9.5S29,.91,29,.91V0h-8L3.45,8.78c-1,1.48-1.8,3.1-2.38,4.82H29Z"/>
  <path class="cls-14" d="M29,22.4V13.6H1.06c-.68,2.01-1.06,4.16-1.06,6.4v2.4H29Z"/>
  <polygon class="cls-14" points="29 36.72 6.23 25.33 0 25.33 0 25.5 29 40 29 36.72"/>
  <path class="cls-14" d="M20,0C13.11,0,7.04,3.48,3.45,8.78L21,0h-1Z"/>
  <path class="cls-3" d="M54.78,49.56c-.07,1.09,.48,5.51,15.4,12.67-6.61-.82-12.75-7.29-12.75-7.29,0,0-.67-1.44-2.45-1.57-1.5,0-1.77,1.36-2.65,2.39-.54,.75-2.45,1.83-2.45,1.83,0,0-1.7,1.7,.54,4.36,2.32,2.05,3.95-.54,3.95-.54,0,0,6.67,7.77,18.88,7.99,1.67-.05,3.21-.23,4.64-.51,.11-.21,.21-.42,.31-.64-1.41,.32-2.87,.53-4.36,.53-.19,0-.4,0-.59-.01h-.13c-9.69,0-17.86-7.2-18.88-8.13l-.66,.72c-.15,.16-.89,.94-1.35,.87-.45-.07-2.29-1.28-2.43-2.51-.15-1.2,1.04-1.97,1.14-2.04,.15-.12,2.96-2.32,3.29-3.46v-.03s.04-.03,.04-.03c.76-.76,2.11,.43,2.17,.47h.01c.07,.1,7.51,8.51,15.83,8.51,.25,0,.5-.01,.75-.03,2.58-.07,4.89-.62,6.88-1.36,.02-.19,.02-.38,.03-.57-1.26,.54-2.55,.94-3.83,1.07,1.42-.64,2.7-1.27,3.87-1.87,0-.13,.02-.25,.02-.38v-.53c-2.03,1.12-4.29,2.28-6.78,3.51h-.04s-.06-.01-.06-.01c-11.23-5.79-17.59-9.28-17.66-13.74l.13-31.34h.13l24.14-.14c-.03-.24-.07-.46-.11-.7l-24.9,.09-.07,32.43Z"/>
  <path class="cls-7" d="M61.9,43.95c-.06,0-.11-.01-.17-.03l-1.69,2.48h1.05c.06-.13,.27-.51,.58-.67-.15-.08-.25-.24-.25-.42,0-.26,.22-.48,.48-.48,.13,0,.25,.04,.34,.15,.09,.09,.15,.21,.15,.34s-.04,.25-.15,.34c-.03,.03-.07,.05-.1,.07,.3,.15,.55,.52,.63,.67h1l-1.7-2.49c-.05,.02-.11,.04-.16,.04Z"/>
  <path class="cls-7" d="M55.74,49.21c.07,4.3,6.35,7.76,17.44,13.48,2.51-1.24,4.79-2.41,6.82-3.53v-12.23c-.02-.1-.02-.17-.02-.17v-.06h.02v-11.38s-.06-.04-.08-.07c-.19-.23-.16-.45-.16-.45v-.06h.24v-1.16s-.02-.03-.03-.05c-.09-.1-.16-.21-.16-.43,0-.16,.09-.33,.19-.49v-12.61c0-.67-.04-1.33-.1-1.99l-24.03,.13-.13,31.06Zm9.84,4.12c-.16,.09-.35,.18-.35,.25-.03,.18-.1,.48-.28,.56-.09,.04-.21,.01-.31-.07-.09-.07-.13-.16-.13-.26,.01-.34,.53-.72,.59-.76,.29-.18,.62-.4,.72-.5-.6,.06-.82,.38-1.09,.78-.26,.4-.57,.84-1.35,1,.28,.26,.23,.62,.23,.63v.07s-3.34-.01-3.34-.01v-.07c0-.19,.03-.41,.19-.6-.26-.1-.51-.25-.81-.65-.63-.06-1.06-.25-1.29-.53-.19-.23-.16-.45-.16-.45v-.06h.26c.02-.13,.05-.22,.08-.28,.03-.07,.06-.13,.04-.32,.03-.37-.07-.48-.16-.6-.09-.1-.16-.21-.16-.43s.15-.44,.31-.67c.19-.26,.38-.54,.32-.81l-.03-.16,.13,.09c.29,.18,.45,.4,.51,.62,.04,.19,0,.4-.13,.59-.04,.13,0,.18,.1,.28s.26,.26,.23,.6h0c-.09,.31-.19,.48-.26,.63-.08,.14-.14,.27-.18,.47h.57s1.8-2.67,1.8-2.67c-.04-.07-.07-.14-.07-.24,0-.12,.04-.23,.13-.32,.09-.09,.19-.13,.32-.13,.25,0,.44,.21,.44,.44,0,.08-.03,.16-.07,.23l1.81,2.66c.26-.16,1.36-.8,1.92-.63,.13,.04,.22,.12,.28,.23,.13,.62-.41,.89-.81,1.11Zm1.89-18.57c.26-.44,.56-.92,.79-1.25,.4-.53,1.63-1.94,1.77-2.1,.02-.1,.08-.6,.18-1.24-.07-.11-.12-.24-.12-.37-.04-.47,.16-.84,.39-1.14v-.02c-.03-1.26,.84-1.85,1.09-1.99v-.04s.56-.92,1.42-1.07h.06s.01,.04,.01,.04c0,0,.02,.03,.03,.07l.03-.06c.09-.38,.13-.76,.07-.81-.26,.06-.84-.19-1.09-.32-.23-.13-.13-.45-.06-.66,.01-.04,.03-.1,.04-.13-.01-.01-.03-.01-.04-.04-.06-.09-.03-.34,0-.47-.1-.03-.26-.09-.29-.22-.01-.09,.03-.18,.12-.22,.03-.01,.07-.03,.12-.03,.09-.09,.35-.45,.34-.62-.03-.23-.07-.67-.07-.67h0s.02-.13,.02-.13c-.04,.02-.1,.01-.15,0-.1-.03-.32-.15-.38-.6-.01-.15,.01-.26,.09-.34,.13-.15,.38-.15,.54-.15h.12c.03-.18,.26-.59,.29-.62h.01s.03-.01,.03-.01c.04,0,.06,.03,.09,.06,.04,.06,.13,.15,.32,.18,.1,.01,.16-.04,.26-.18s.22-.29,.47-.34c.4-.07,.65,.35,.72,.5,.18-.01,.78-.03,1.31,.41,.57,.48,.87,1.33,.87,2.52,.26,.18,.4,.35,.38,.51,0,.22-.23,.34-.23,.35-.01,.01-.26,.09-.37,.44-.06,.22-.22,.34-.35,.42-.01,0-.03,.01-.04,.02-.03,.01-.06,.03-.08,.04-.04,.01-.06,.02-.08,.03-.01,.1-.06,.24-.18,.36-.01,.01-.02,.02-.03,.03-.06,.05-.13,.1-.23,.13-.03,.07-.09,.07-.12,.07-.04,0-.09-.01-.13-.03-.12-.06-.16-.21-.19-.32-.01-.04-.03-.09-.04-.12,0,0,0,0,0,0-.06,.56,.22,.78,.22,.78h.01s.01,.03,.01,.03h0s.03,0,.03,0c.19,0,.67-.01,.78,.09h.01c.63,.65,1.69,1.75,1.64,2.19,0,.07-.03,.12-.05,.16,.06,.14,.16,.45,.38,1.16,.15,.48,.41,1.33,.45,1.67,.06,.34,.41,2.89,.28,3.27-.06,.16-.34,.57-.67,1.06-.32,.48-.7,1.03-.78,1.22-.13,.38-.89,1.76-.97,1.91-.03,.19-.05,.35-.07,.51v.74c.06,.06,.22,.19,.24,.4,.01,.18,1.04,4.65,1.58,6.98h0v.03c-.03,.09-.1,.21-.23,.23,.04,.09,.15,.28,.25,.44,.19,.32,.4,.67,.41,.84,.01,.12,.16,.63,.32,1.19,.28,.95,.48,1.64,.47,1.83,0,.01-.09,.89-.22,1.09,0,.06,.09,.31,.15,.51,.19,.62,.32,1.06,.26,1.2-.1,.26-.88,.26-1.11,.25l-.19-.03c-.01,.13-.06,.29-.22,.31-.05,0-.17,0-.31,0,.07,.2,.13,.73-.64,1.68-.25,.26-.48,.41-.72,.41h-.09c-.65-.09-1.1-1.1-1.11-1.16l-.06-.12c-.14,.03-.29,.05-.44,.05h-.12c-.35-.03-.59-.16-.69-.38-.16-.37-.06-.48,.06-.56-.1-.1-.47-.29-.62-.28,.03,.01,.06,.04,.09,.06,.15,.09,.32,.19,.31,.37-.03,.26-.56,.65-.76,.65-.09,0-.18-.1-.32-.23,0,0,0,0,0,0l-.02,.02h-.01c-.32,.16-2.24,1.16-2.55,1.25-.04,.01-.07,.03-.12,.03-.09,0-.18-.03-.25-.1-.09-.09-.13-.22-.1-.34,0-.02,.02-.02,.02-.04-.15,0-.26-.04-.3-.12-.04-.13-.01-.22,.01-.26,.07-.12,.26-.19,.56-.21,.05,0,.1-.02,.16-.04-.15-.13-.19-.18-.2-.21-.12,.02-.24,.03-.33,.01-.35-.07-.51-.35-.51-.53,0-.06,.03-.19,.09-.38,.06-.19,.13-.45,.12-.54-.01-.06-.04-.13-.09-.22-.06-.12-.13-.26-.13-.44,0-.28,.45-1.1,.53-1.25l-.03-4.19c-.15-.01-.48-.07-.51-.37-.02-.23,.33-3.23,.59-5.29-.05,.04-.09,.07-.09,.1-.03,.18-.1,.48-.28,.56-.09,.04-.21,.01-.31-.07-.09-.07-.13-.16-.13-.26,.01-.34,.53-.72,.59-.76,.1-.06,.21-.13,.31-.19,.01-.08,.02-.14,.03-.21-.33,.13-.5,.39-.7,.69-.26,.4-.57,.84-1.35,1,.28,.26,.23,.62,.23,.63v.07s-3.34-.01-3.34-.01v-.07c0-.19,.03-.41,.19-.6-.26-.12-.51-.25-.81-.65-.63-.06-1.06-.25-1.29-.53-.19-.23-.16-.45-.16-.45v-.06h.26c.02-.14,.05-.23,.08-.29,.03-.07,.06-.13,.04-.32,.03-.37-.07-.48-.16-.6-.09-.1-.16-.21-.16-.43s.15-.44,.31-.67c.19-.26,.38-.54,.32-.81l-.03-.16,.13,.09c.29,.18,.45,.4,.51,.62,.04,.19,0,.4-.13,.59-.04,.13,0,.18,.1,.28s.26,.26,.23,.6h0c-.09,.31-.19,.48-.26,.63-.08,.15-.14,.28-.19,.48h.61l-.04-.03,1.76-2.57c-.06-.36-.05-.75-.04-1.01v-.26c-.01-.31,.45-.89,.94-1.48,.09-.1,.15-.18,.19-.23,.1-.13,.28-.43,.48-.76Zm-8.71-12.09v-.06h.24c.02-.14,.05-.23,.08-.29,.03-.07,.06-.13,.04-.32,.03-.37-.07-.48-.16-.6-.09-.1-.16-.21-.16-.43s.15-.44,.31-.67c.19-.26,.38-.54,.32-.81l-.03-.16,.13,.09c.29,.18,.45,.4,.51,.62,.04,.19,0,.4-.13,.59-.04,.13,0,.18,.1,.28,.1,.1,.26,.26,.23,.6h0c-.09,.31-.19,.48-.26,.63-.08,.15-.14,.28-.19,.48h.63l-.04-.03,1.81-2.65c-.05-.07-.08-.15-.08-.24,0-.12,.04-.23,.13-.32,.09-.09,.19-.13,.32-.13,.25,0,.44,.21,.44,.44,0,.09-.03,.17-.08,.24l1.82,2.66c.27-.17,1.36-.79,1.91-.63,.13,.04,.22,.12,.28,.23,.13,.62-.41,.89-.81,1.11-.16,.09-.35,.18-.35,.25-.03,.18-.1,.48-.28,.56-.09,.04-.21,.01-.31-.07-.09-.07-.13-.16-.13-.26,.01-.34,.53-.72,.59-.76,.29-.18,.62-.4,.72-.5-.6,.06-.82,.38-1.09,.78-.26,.4-.57,.84-1.35,1,.28,.26,.23,.62,.23,.63v.07s-3.34-.01-3.34-.01v-.07c0-.19,.03-.41,.19-.6-.26-.12-.51-.25-.81-.65-.63-.06-1.06-.25-1.29-.53-.19-.23-.16-.45-.16-.45Zm-.12,6.06v-.06h.26c.02-.14,.05-.23,.08-.29,.03-.07,.06-.13,.04-.32,.03-.37-.07-.48-.16-.6-.09-.1-.16-.21-.16-.43s.15-.44,.31-.67c.19-.26,.38-.54,.32-.81l-.03-.16,.13,.09c.29,.18,.45,.4,.51,.62,.04,.19,0,.4-.13,.59-.04,.13,0,.18,.1,.28,.1,.1,.26,.26,.23,.6h0c-.09,.31-.19,.48-.26,.63-.08,.15-.14,.28-.19,.48h.61l-.04-.03,1.81-2.65c-.04-.07-.07-.14-.07-.22,0-.23,.21-.44,.44-.44,.12,0,.23,.04,.32,.13,.09,.09,.13,.19,.13,.32,0,.08-.03,.15-.07,.22l1.81,2.62c.29-.18,1.36-.78,1.9-.62,.13,.04,.22,.12,.28,.23,.13,.62-.41,.89-.81,1.11-.16,.09-.35,.18-.35,.25-.03,.18-.1,.48-.28,.56-.09,.04-.21,.01-.31-.07-.09-.07-.13-.16-.13-.26,.01-.34,.53-.72,.59-.76,.29-.18,.62-.4,.72-.5-.6,.06-.82,.38-1.09,.78-.26,.4-.57,.84-1.35,1,.28,.26,.23,.62,.23,.63v.07s-3.34-.01-3.34-.01v-.07c0-.19,.03-.41,.19-.6-.26-.1-.51-.25-.81-.65-.63-.06-1.06-.25-1.29-.53-.19-.23-.16-.45-.16-.45Zm-.04,5.97v-.06h.26c.02-.14,.05-.23,.08-.29,.03-.07,.06-.13,.04-.32,.03-.37-.07-.48-.16-.6-.09-.1-.16-.21-.16-.43s.15-.44,.31-.67c.19-.26,.38-.54,.32-.81l-.03-.16,.13,.09c.29,.18,.45,.4,.51,.62,.04,.19,0,.4-.13,.59-.04,.13,0,.18,.1,.28s.26,.26,.23,.6h0c-.09,.31-.19,.48-.26,.63-.08,.15-.14,.28-.19,.48h.61l-.04-.03,1.81-2.65c-.05-.07-.08-.15-.08-.24,0-.12,.04-.23,.13-.32,.09-.09,.19-.13,.32-.13,.25,0,.44,.21,.44,.44,0,.09-.03,.17-.08,.24l1.81,2.66c.26-.16,1.38-.8,1.92-.63,.13,.04,.22,.12,.28,.23,.13,.62-.41,.89-.81,1.11-.16,.09-.35,.18-.35,.25-.03,.18-.1,.48-.28,.56-.09,.04-.21,.01-.31-.07-.09-.07-.13-.16-.13-.26,.01-.34,.53-.72,.59-.76,.29-.18,.62-.4,.72-.5-.6,.06-.82,.38-1.09,.78-.26,.4-.57,.84-1.35,1,.28,.26,.23,.62,.23,.63v.07s-3.34-.01-3.34-.01v-.07c0-.19,.03-.41,.19-.6-.26-.1-.51-.25-.81-.65-.63-.06-1.06-.25-1.29-.53-.19-.23-.16-.45-.16-.45Zm-.51,11.75v-.06h.26c.02-.13,.05-.22,.08-.28,.03-.07,.06-.13,.04-.32,.03-.37-.07-.48-.16-.6-.09-.1-.16-.21-.16-.43s.15-.44,.31-.67c.19-.26,.38-.54,.32-.81l-.03-.16,.13,.09c.29,.18,.45,.4,.51,.62,.04,.19,0,.4-.13,.59-.04,.13,0,.18,.1,.28,.1,.1,.26,.26,.23,.6h0c-.09,.31-.19,.48-.26,.63-.08,.14-.14,.27-.18,.47h.57s1.8-2.67,1.8-2.67c-.04-.07-.07-.14-.07-.24,0-.12,.04-.23,.13-.32,.09-.09,.19-.13,.32-.13,.25,0,.44,.21,.44,.44,0,.08-.03,.16-.07,.23l1.82,2.65c.28-.17,1.36-.79,1.91-.62,.13,.04,.22,.12,.28,.23,.13,.62-.41,.89-.81,1.11-.16,.09-.35,.18-.35,.25-.03,.18-.1,.48-.28,.56-.09,.04-.21,.01-.31-.07-.09-.07-.13-.16-.13-.26,.01-.34,.53-.72,.59-.76,.29-.18,.62-.4,.72-.5-.6,.06-.82,.38-1.09,.78-.26,.4-.57,.84-1.35,1,.28,.26,.23,.62,.23,.63v.07s-3.34-.01-3.34-.01v-.07c0-.19,.03-.41,.19-.6-.26-.1-.51-.25-.81-.65-.63-.06-1.06-.25-1.29-.53-.19-.23-.16-.45-.16-.45Z"/>
  <path class="cls-7" d="M62.41,32.18c-.06,0-.11-.01-.17-.03l-1.69,2.5h1.05c.06-.13,.27-.51,.58-.67-.15-.08-.25-.24-.25-.42,0-.13,.04-.25,.15-.34,.1-.09,.21-.15,.34-.15,.26,0,.48,.22,.48,.48,0,.18-.1,.33-.25,.41,.3,.15,.55,.52,.63,.67h1.01l-1.71-2.5c-.05,.02-.11,.04-.16,.04Z"/>
  <path class="cls-7" d="M76.46,32.4c0,.06,.03,.15,.07,.23,.06,.15,.13,.32,.13,.51,0,.15-.06,.32-.12,.5-.07,.19-.13,.4-.12,.54,.03,.2,.05,.61,.06,.9,.48-1.08,.73-1.74,.74-1.91,.01-.29-.23-.94-.51-1.27-.04,.15-.12,.25-.18,.33-.06,.06-.09,.1-.09,.16Z"/>
  <path class="cls-7" d="M72.11,21.24s.04,.03,.06,.03h0s-.04-.02-.06-.04c0,0,0,0,0,0Z"/>
  <path class="cls-7" d="M62.01,50.19c-.06,0-.11-.01-.17-.03l-1.69,2.48h1.05c.06-.13,.27-.51,.58-.67-.15-.08-.25-.24-.25-.42,0-.26,.22-.48,.48-.48,.13,0,.25,.04,.34,.15,.09,.09,.15,.21,.15,.34s-.04,.25-.15,.34c-.03,.03-.07,.05-.1,.07,.3,.15,.55,.52,.63,.67h1l-1.7-2.49c-.05,.02-.11,.04-.16,.04Z"/>
  <path class="cls-7" d="M62.45,26.21c-.06,0-.11-.01-.17-.03l-1.7,2.5h1.05c.06-.13,.27-.51,.58-.67-.04-.02-.08-.04-.11-.08-.09-.1-.15-.21-.15-.34s.04-.25,.15-.34c.1-.09,.21-.15,.34-.15,.26,0,.48,.22,.48,.48,0,.18-.1,.33-.24,.41,.3,.15,.54,.52,.62,.67h1.01l-1.7-2.48c-.05,.01-.11,.02-.18,.02Z"/>
  <path class="cls-7" d="M69.83,40.49c.03-.23,.06-.39,.08-.44,.09-.34,.32-1.41,.4-1.77-.09,.03-.21,.04-.28,.01-.04-.03-.07-.06-.07-.1-.03-.16,.79-3.02,1.04-3.89,0,0,.05-.53,.1-1.1-.25,.28-.91,1-1.2,1.23-.35,.28-1.89,1.41-1.91,1.42-.23,.16-.59,.45-.57,.59t.01,.03c.28,.18,.25,1,.23,1.09h0c-.08,.21-.34,.91-.59,1.41l1.45,2.11c.2-.12,.79-.45,1.31-.59Z"/>
  <path class="cls-7" d="M62.57,20.16c-.06,0-.11-.01-.17-.03l-1.69,2.5h1.05c.06-.13,.27-.51,.58-.67-.15-.08-.25-.24-.25-.42,0-.26,.22-.48,.48-.48,.13,0,.25,.04,.34,.15,.09,.09,.15,.21,.15,.34s-.04,.25-.15,.34c-.03,.03-.07,.05-.1,.07,.3,.15,.55,.52,.63,.68h1.01l-1.71-2.5c-.05,.02-.11,.04-.16,.04Z"/>
  <path class="cls-7" d="M65.52,41.11c.06-.13,.27-.51,.58-.67-.15-.08-.25-.24-.25-.42,0-.26,.22-.48,.48-.48,.13,0,.25,.04,.34,.15,.09,.09,.15,.21,.15,.34s-.04,.25-.15,.34c-.03,.03-.07,.05-.1,.07,.3,.15,.55,.52,.63,.68h1.01l-1.28-1.88c-.08,.14-.16,.24-.22,.27-.01,.01-.03,.01-.04,.01s-.03,0-.04-.01c-.33-.07-.51-.32-.62-.63l-1.52,2.24h1.05Z"/>
  <path d="M55.59,17.88l-.13,31.34c.07,4.46,6.42,7.95,17.66,13.74l.06,.03h.04c2.49-1.25,4.75-2.41,6.78-3.52v-.31c-2.03,1.12-4.31,2.29-6.82,3.53-11.09-5.72-17.37-9.18-17.44-13.48l.13-31.06,24.03-.13c0-.09-.03-.18-.04-.27l-24.14,.14h-.13Z"/>
  <path class="cls-10" d="M62.74,20.12l1.71,2.5h.25s.04-.02,.06-.03l-1.82-2.66c-.05,.08-.11,.15-.2,.19Z"/>
  <path class="cls-10" d="M62.4,20.12c-.06-.02-.11-.05-.16-.1-.02-.02-.04-.05-.05-.08l-1.81,2.65,.04,.03h.28l1.69-2.5Z"/>
  <path class="cls-10" d="M62.57,21.87c.09,0,.18-.03,.23-.1,.06-.06,.1-.15,.1-.23s-.03-.18-.1-.23c-.06-.07-.15-.1-.23-.1-.19,0-.34,.15-.34,.34s.15,.34,.34,.34Z"/>
  <path class="cls-10" d="M63.73,24.32h-2.54s-.01,.02-.01,.02c-.15,.12-.21,.26-.22,.5h3.07c0-.1-.04-.34-.3-.52Z"/>
  <path class="cls-10" d="M61.11,24.16v.03s0,0,.02,0h0s2.55-.02,2.55-.02h.06c.84-.13,1.13-.55,1.41-.96,.28-.41,.53-.79,1.25-.84,.1,.01,.12,.06,.12,.09,.01,.04,.03,.18-.81,.67-.15,.1-.53,.41-.53,.65,0,.06,.03,.1,.07,.15,.07,.06,.13,.07,.18,.06,.09-.03,.16-.21,.21-.45,.01-.13,.21-.23,.43-.35,.38-.21,.85-.45,.75-.94-.03-.07-.09-.12-.18-.15-.56-.16-1.86,.65-1.88,.65h-.01s-1.38,0-1.38,0v-.03c-.16-.26-.48-.7-.78-.7-.4,.01-.69,.7-.69,.7v.04h-1.9c.07,.29,.35,1.15,1.12,1.39Z"/>
  <path class="cls-10" d="M60.15,23.51c-.18-.31-.27-.61-.3-.75h-.94c0,.06,.03,.18,.13,.29,.14,.17,.45,.37,1.11,.45Z"/>
  <path d="M60.21,23.66c.29,.4,.54,.53,.81,.65-.16,.19-.19,.41-.19,.6v.07h3.33s.01-.06,.01-.06c0-.01,.04-.37-.23-.63,.78-.16,1.09-.6,1.35-1,.26-.4,.48-.72,1.09-.78-.1,.1-.43,.32-.72,.5-.06,.04-.57,.43-.59,.76,0,.1,.04,.19,.13,.26,.1,.09,.22,.12,.31,.07,.18-.07,.25-.38,.28-.56,0-.07,.19-.16,.35-.25,.4-.22,.94-.5,.81-1.11-.06-.12-.15-.19-.28-.23-.55-.16-1.64,.46-1.91,.63-.02,.01-.04,.03-.06,.03h-1.26c-.08-.15-.33-.53-.63-.68,.04-.02,.07-.04,.1-.07,.1-.09,.15-.21,.15-.34s-.06-.25-.15-.34c-.09-.1-.21-.15-.34-.15-.26,0-.48,.22-.48,.48,0,.18,.11,.33,.25,.42-.3,.16-.52,.54-.58,.67h-1.96c.04-.21,.11-.34,.19-.48,.07-.15,.18-.32,.26-.62h0c.03-.35-.13-.51-.23-.62-.1-.1-.15-.15-.1-.28,.13-.19,.18-.4,.13-.59-.06-.22-.22-.44-.51-.62l-.13-.09,.03,.16c.06,.26-.13,.54-.32,.81-.16,.23-.31,.45-.31,.67s.07,.32,.16,.43c.09,.12,.19,.23,.16,.6,.01,.19-.01,.25-.04,.32-.03,.07-.06,.15-.08,.29h-.23v.06s-.04,.22,.15,.45c.23,.28,.66,.47,1.29,.53Zm-1.01-1.26c.04-.09,.07-.18,.06-.4,.03-.41-.09-.56-.19-.69-.07-.09-.13-.16-.13-.34s.15-.37,.29-.59c.18-.23,.35-.48,.37-.76,.19,.13,.31,.29,.34,.45,.03,.16,0,.32-.12,.5-.09,.22,.01,.32,.12,.43,.1,.1,.22,.22,.21,.48-.09,.28-.18,.44-.25,.59-.07,.16-.15,.31-.21,.53h-.53c.01-.1,.04-.16,.04-.21Zm.65,.37c.03,.14,.12,.44,.3,.75-.66-.08-.97-.29-1.11-.45-.1-.12-.13-.23-.13-.29h.94Zm2.04-.04s.29-.69,.69-.7c.29,0,.62,.44,.76,.7v.03s1.39,.01,1.39,.01h.01s1.32-.82,1.88-.66c.09,.03,.15,.07,.18,.15,.1,.48-.37,.73-.75,.94-.22,.12-.41,.22-.43,.35-.04,.25-.12,.43-.21,.45-.04,.01-.1,0-.18-.06-.04-.04-.07-.09-.07-.15,0-.23,.38-.54,.53-.65,.84-.5,.82-.63,.81-.67,0-.03-.01-.07-.12-.09-.72,.04-.97,.43-1.25,.84-.28,.41-.57,.84-1.41,.95h-.06s-2.55,.02-2.55,.02h0s-.01,0-.02,0v-.03c-.76-.24-1.04-1.1-1.11-1.39h1.88v-.04Zm.7-1.53c.09,0,.18,.03,.23,.1,.07,.06,.1,.15,.1,.23s-.04,.18-.1,.23c-.06,.07-.15,.1-.23,.1-.19,0-.34-.15-.34-.34s.15-.34,.34-.34Zm-1.61,3.64c.01-.23,.07-.38,.22-.5h.01s2.54-.02,2.54-.02c.25,.18,.3,.42,.3,.53h-3.07Zm.16-.59h0Zm-.03-.04h0s.01,0,.01,0c0,0,0,0-.01,0Z"/>
  <path class="cls-10" d="M61.09,24.23s0,0,.01,0v-.02s-.01,0-.01,0Z"/>
  <path class="cls-7" d="M59.89,22.08c.07-.15,.16-.31,.25-.59,.01-.26-.1-.38-.21-.48-.1-.1-.21-.21-.12-.43,.12-.18,.15-.34,.12-.5-.03-.16-.15-.32-.34-.45-.01,.28-.19,.53-.37,.76-.15,.22-.29,.41-.29,.59s.06,.25,.13,.34c.1,.13,.22,.28,.19,.69,.01,.22-.01,.31-.06,.4,0,.04-.03,.1-.04,.21h.53c.06-.22,.13-.37,.21-.53Z"/>
  <path class="cls-13" d="M59.89,22.08c.07-.15,.16-.31,.25-.59,.01-.26-.1-.38-.21-.48-.1-.1-.21-.21-.12-.43,.12-.18,.15-.34,.12-.5-.03-.16-.15-.32-.34-.45-.01,.28-.19,.53-.37,.76-.15,.22-.29,.41-.29,.59s.06,.25,.13,.34c.1,.13,.22,.28,.19,.69,.01,.22-.01,.31-.06,.4,0,.04-.03,.1-.04,.21h.53c.06-.22,.13-.37,.21-.53Z"/>
  <path class="cls-10" d="M62.57,20.02c.18,0,.31-.13,.31-.31s-.13-.31-.31-.31c-.09,0-.16,.03-.22,.09-.06,.06-.09,.13-.09,.22s.03,.16,.09,.22c.06,.06,.13,.09,.22,.09Z"/>
  <path d="M62.4,20.12c.05,.02,.11,.03,.17,.03s.11-.02,.16-.04c.09-.04,.15-.11,.2-.19,.04-.07,.08-.15,.08-.24,0-.23-.19-.44-.44-.44-.13,0-.23,.04-.32,.13-.09,.09-.13,.21-.13,.32,0,.1,.03,.17,.08,.24,.02,.03,.03,.06,.05,.08,.05,.05,.1,.08,.16,.1Zm-.14-.41c0-.09,.03-.16,.09-.22,.06-.06,.13-.09,.22-.09,.18,0,.31,.13,.31,.31s-.13,.31-.31,.31c-.09,0-.16-.03-.22-.09-.06-.06-.09-.13-.09-.22Z"/>
  <path class="cls-10" d="M62.29,26.18c-.09-.04-.16-.1-.21-.19l-1.81,2.65,.04,.03h.28l1.7-2.5Z"/>
  <path class="cls-10" d="M62.63,26.19l1.7,2.48h.25s.04-.03,.07-.04l-1.81-2.62s-.04,.07-.06,.1c-.04,.04-.09,.07-.14,.08Z"/>
  <path class="cls-10" d="M62.22,27.83c.06,.06,.15,.1,.23,.1,.19,0,.34-.15,.34-.34s-.15-.34-.34-.34c-.09,0-.18,.03-.23,.1-.06,.06-.1,.15-.1,.23s.03,.18,.1,.23Z"/>
  <path class="cls-10" d="M63.61,30.38h0s-2.52,0-2.52,0l-.03,.02c-.13,.1-.21,.25-.21,.5h3.07c0-.1-.04-.35-.31-.53Z"/>
  <path class="cls-10" d="M60.99,30.22v.04s0,0,.02,.01v-.02h2.64c.82-.13,1.11-.55,1.39-.96,.28-.41,.53-.79,1.25-.84,.1,.01,.12,.06,.12,.09,.01,.04,.03,.18-.81,.67-.15,.1-.53,.41-.53,.65,0,.06,.03,.1,.07,.15,.07,.06,.13,.07,.18,.06,.09-.03,.16-.21,.21-.45,.01-.13,.21-.23,.43-.35,.38-.21,.85-.45,.75-.94-.03-.07-.09-.12-.19-.15-.56-.16-1.86,.65-1.88,.65h-.01s-1.38,0-1.38,0v-.03c-.16-.26-.48-.7-.78-.7-.4,.01-.69,.7-.69,.7v.04h-1.89c.08,.3,.36,1.14,1.12,1.38Z"/>
  <path class="cls-10" d="M60.04,29.59c-.18-.3-.27-.6-.31-.75h-.94c0,.06,.03,.18,.13,.29,.14,.17,.45,.37,1.12,.45Z"/>
  <path d="M60.09,29.72c.29,.4,.54,.54,.81,.65-.16,.19-.19,.41-.19,.6v.07h3.33s.01-.06,.01-.06c0-.01,.04-.37-.23-.63,.78-.16,1.09-.6,1.35-1,.26-.4,.48-.72,1.09-.78-.1,.1-.43,.32-.72,.5-.06,.04-.57,.43-.59,.76,0,.1,.04,.19,.13,.26,.1,.09,.22,.12,.31,.07,.18-.07,.25-.38,.28-.56,0-.07,.19-.16,.35-.25,.4-.22,.94-.5,.81-1.11-.06-.12-.15-.19-.28-.23-.54-.16-1.61,.44-1.9,.62-.02,.01-.05,.03-.07,.04h-1.26c-.08-.15-.33-.52-.62-.67,.15-.08,.24-.24,.24-.41,0-.26-.22-.48-.48-.48-.13,0-.23,.06-.34,.15-.1,.09-.15,.21-.15,.34s.06,.23,.15,.34c.03,.04,.07,.06,.11,.08-.3,.16-.52,.54-.58,.67h-1.95c.04-.21,.11-.34,.19-.48,.07-.15,.18-.32,.26-.62h0c.03-.35-.13-.51-.23-.62-.1-.1-.15-.15-.1-.28,.13-.19,.18-.4,.13-.59-.06-.22-.22-.44-.51-.62l-.13-.09,.03,.16c.06,.26-.13,.54-.32,.81-.16,.23-.31,.45-.31,.67s.07,.32,.16,.43c.09,.12,.19,.23,.16,.6,.01,.19-.01,.25-.04,.32-.03,.07-.06,.15-.08,.29h-.24v.06s-.04,.22,.15,.45c.23,.28,.66,.47,1.29,.53Zm-1.01-1.26c.04-.09,.07-.18,.06-.4,.03-.41-.09-.56-.19-.69-.07-.09-.13-.16-.13-.34s.15-.37,.29-.59c.18-.23,.35-.48,.37-.76,.19,.13,.31,.29,.34,.45,.03,.16,0,.32-.12,.5-.09,.22,.01,.32,.12,.43,.1,.1,.22,.22,.21,.48-.09,.28-.18,.44-.25,.59-.07,.16-.15,.31-.21,.53h-.53c.01-.1,.04-.16,.04-.21Zm.65,.38c.03,.14,.13,.44,.31,.75-.67-.08-.98-.29-1.12-.45-.1-.12-.13-.23-.13-.29h.94Zm2.03-.04s.29-.69,.69-.7c.29,0,.62,.44,.76,.7v.03s1.39,.01,1.39,.01h.01s1.32-.82,1.88-.66c.1,.03,.16,.07,.19,.15,.1,.48-.37,.73-.75,.94-.22,.12-.41,.22-.43,.35-.04,.25-.12,.43-.21,.45-.04,.01-.1,0-.18-.06-.04-.04-.07-.09-.07-.15,0-.23,.38-.54,.53-.65,.84-.5,.82-.63,.81-.67,0-.03-.01-.07-.12-.09-.72,.04-.97,.43-1.25,.84-.28,.41-.57,.83-1.39,.95h-2.64v.03s-.02,0-.03-.01v-.04c-.75-.24-1.03-1.08-1.11-1.38h1.88v-.04Zm.7-1.54c.19,0,.34,.15,.34,.34s-.15,.34-.34,.34c-.09,0-.18-.04-.23-.1-.07-.06-.1-.15-.1-.23s.04-.18,.1-.23c.06-.07,.15-.1,.23-.1Zm-1.6,3.65c0-.25,.07-.4,.21-.5l.03-.02h2.52s0,0,0,0c.26,.18,.31,.43,.31,.54h-3.07Zm.15-.6h0Zm-.03-.04h0s.01,0,.01,0c0,0,0,0-.01,0Z"/>
  <path class="cls-10" d="M60.97,30.28s0,0,.01,0v-.02s-.01,0-.01,0Z"/>
  <path class="cls-7" d="M59.77,28.13c.07-.15,.16-.31,.25-.59,.01-.26-.1-.38-.21-.48-.1-.1-.21-.21-.12-.43,.12-.18,.15-.34,.12-.5-.03-.16-.15-.32-.34-.45-.01,.28-.19,.53-.37,.76-.15,.22-.29,.41-.29,.59s.06,.25,.13,.34c.1,.13,.22,.28,.19,.69,.01,.22-.01,.31-.06,.4,0,.04-.03,.1-.04,.21h.53c.06-.22,.13-.37,.21-.53Z"/>
  <path class="cls-2" d="M59.77,28.13c.07-.15,.16-.31,.25-.59,.01-.26-.1-.38-.21-.48-.1-.1-.21-.21-.12-.43,.12-.18,.15-.34,.12-.5-.03-.16-.15-.32-.34-.45-.01,.28-.19,.53-.37,.76-.15,.22-.29,.41-.29,.59s.06,.25,.13,.34c.1,.13,.22,.28,.19,.69,.01,.22-.01,.31-.06,.4,0,.04-.03,.1-.04,.21h.53c.06-.22,.13-.37,.21-.53Z"/>
  <path class="cls-10" d="M62.45,26.08c.09,0,.16-.03,.22-.09,.06-.06,.09-.13,.09-.22s-.03-.16-.09-.22c-.06-.06-.13-.09-.22-.09-.18,0-.31,.13-.31,.31s.13,.31,.31,.31Z"/>
  <path d="M62.29,26.18c.05,.02,.11,.03,.17,.03,.07,0,.12,0,.18-.02,.05-.01,.1-.04,.14-.08,.03-.03,.04-.06,.06-.1,.04-.07,.07-.15,.07-.22,0-.13-.04-.23-.13-.32-.09-.09-.21-.13-.32-.13-.23,0-.44,.21-.44,.44,0,.08,.03,.15,.07,.22,.05,.08,.12,.15,.21,.19Zm-.14-.41c0-.18,.13-.31,.31-.31,.09,0,.16,.03,.22,.09,.06,.06,.09,.13,.09,.22s-.03,.16-.09,.22c-.06,.06-.13,.09-.22,.09-.18,0-.31-.13-.31-.31Z"/>
  <path class="cls-10" d="M62.24,32.15c-.06-.02-.11-.05-.16-.1-.02-.02-.04-.05-.05-.08l-1.81,2.65,.04,.03h.28l1.69-2.5Z"/>
  <path class="cls-10" d="M62.58,32.14l1.71,2.5h.25s.03-.02,.05-.03l-1.81-2.66c-.05,.08-.11,.15-.2,.19Z"/>
  <path class="cls-10" d="M62.41,33.9c.19,0,.34-.15,.34-.34s-.15-.34-.34-.34c-.09,0-.18,.03-.23,.1-.06,.06-.1,.15-.1,.23,0,.19,.15,.34,.34,.34Z"/>
  <path class="cls-10" d="M60,35.55c-.18-.3-.27-.6-.31-.75h-.94c0,.06,.03,.18,.13,.29,.14,.17,.45,.37,1.12,.45Z"/>
  <path class="cls-10" d="M63.55,36.35h0s-2.5,0-2.5,0l-.03,.02c-.15,.12-.21,.25-.22,.5h3.07c0-.1-.04-.35-.31-.53Z"/>
  <path class="cls-10" d="M60.94,36.19v.04s0,0,.02,.01v-.02h2.63c.82-.13,1.11-.55,1.39-.96,.28-.41,.53-.79,1.25-.84,.1,.01,.12,.06,.12,.09,.01,.04,.03,.18-.81,.67-.15,.1-.53,.41-.53,.65,0,.06,.03,.1,.07,.15,.07,.06,.13,.07,.18,.06,.09-.03,.16-.21,.21-.45,.01-.13,.21-.23,.43-.35,.38-.21,.85-.45,.75-.94-.03-.07-.09-.12-.18-.15-.56-.16-1.86,.65-1.88,.65h-.01s-1.38,0-1.38,0v-.03c-.16-.26-.48-.7-.78-.7-.4,.01-.69,.7-.69,.7v.04h-1.89c.08,.3,.36,1.14,1.12,1.38Z"/>
  <path d="M60.05,35.69c.29,.4,.54,.54,.81,.65-.16,.19-.19,.41-.19,.6v.07h3.33s.01-.06,.01-.06c0-.01,.04-.37-.23-.63,.78-.16,1.09-.6,1.35-1,.26-.4,.48-.72,1.09-.78-.1,.1-.43,.32-.72,.5-.06,.04-.57,.43-.59,.76,0,.1,.04,.19,.13,.26,.1,.09,.22,.12,.31,.07,.18-.07,.25-.38,.28-.56,0-.07,.19-.16,.35-.25,.4-.22,.94-.5,.81-1.11-.06-.12-.15-.19-.28-.23-.54-.17-1.66,.47-1.92,.63-.02,0-.04,.02-.05,.03h-1.26c-.08-.15-.33-.52-.63-.67,.14-.08,.25-.24,.25-.41,0-.26-.22-.48-.48-.48-.13,0-.23,.06-.34,.15-.1,.09-.15,.21-.15,.34,0,.18,.11,.33,.25,.42-.3,.16-.52,.54-.58,.67h-1.95c.04-.21,.11-.34,.19-.48,.07-.15,.18-.32,.26-.62h0c.03-.35-.13-.51-.23-.62s-.15-.15-.1-.28c.13-.19,.18-.4,.13-.59-.06-.22-.22-.44-.51-.62l-.13-.09,.03,.16c.06,.26-.13,.54-.32,.81-.16,.23-.31,.45-.31,.67s.07,.32,.16,.43c.09,.12,.19,.23,.16,.6,.01,.19-.01,.25-.04,.32-.03,.07-.06,.15-.08,.29h-.24v.06s-.04,.22,.15,.45c.23,.28,.66,.47,1.29,.53Zm-1.01-1.26c.04-.09,.07-.18,.06-.4,.03-.41-.09-.56-.19-.69-.07-.09-.13-.16-.13-.34s.15-.37,.29-.59c.18-.23,.35-.48,.37-.76,.19,.13,.31,.29,.34,.45,.03,.16,0,.32-.12,.5-.09,.22,.01,.32,.12,.43s.22,.22,.21,.48c-.09,.28-.18,.44-.25,.59-.07,.16-.15,.31-.21,.53h-.53c.01-.1,.04-.16,.04-.21Zm.65,.38c.03,.14,.13,.44,.31,.75-.67-.08-.98-.29-1.12-.45-.1-.12-.13-.23-.13-.29h.94Zm2.03-.04s.29-.69,.69-.7c.29,0,.62,.44,.76,.7v.03s1.39,.01,1.39,.01h.01s1.32-.82,1.88-.66c.09,.03,.15,.07,.18,.15,.1,.48-.37,.73-.75,.94-.22,.12-.41,.22-.43,.35-.04,.25-.12,.43-.21,.45-.04,.01-.1,0-.18-.06-.04-.04-.07-.09-.07-.15,0-.23,.38-.54,.53-.65,.84-.5,.82-.63,.81-.67,0-.03-.01-.07-.12-.09-.72,.04-.97,.43-1.25,.84-.28,.41-.57,.83-1.39,.95h-2.63v.03s-.02,0-.03-.01v-.04c-.75-.24-1.03-1.08-1.11-1.38h1.88v-.04Zm.7-1.54c.19,0,.34,.15,.34,.34s-.15,.34-.34,.34-.34-.15-.34-.34c0-.09,.04-.18,.1-.23,.06-.07,.15-.1,.23-.1Zm-1.61,3.65c.01-.25,.07-.38,.22-.5l.03-.02h2.5s0,0,0,0c.26,.18,.31,.43,.31,.54h-3.07Zm.16-.6h0Zm-.03-.04h0s.01,0,.01,0c0,0,0,0-.01,0Z"/>
  <path class="cls-10" d="M60.93,36.25s0,0,.01,0v-.02s-.01,0-.01,0Z"/>
  <path class="cls-7" d="M59.73,34.1c.07-.15,.16-.31,.25-.59,.01-.26-.1-.38-.21-.48s-.21-.21-.12-.43c.12-.18,.15-.34,.12-.5-.03-.16-.15-.32-.34-.45-.01,.28-.19,.53-.37,.76-.15,.22-.29,.41-.29,.59s.06,.25,.13,.34c.1,.13,.22,.28,.19,.69,.01,.22-.01,.31-.06,.4,0,.04-.03,.1-.04,.21h.53c.06-.22,.13-.37,.21-.53Z"/>
  <path class="cls-12" d="M59.73,34.1c.07-.15,.16-.31,.25-.59,.01-.26-.1-.38-.21-.48s-.21-.21-.12-.43c.12-.18,.15-.34,.12-.5-.03-.16-.15-.32-.34-.45-.01,.28-.19,.53-.37,.76-.15,.22-.29,.41-.29,.59s.06,.25,.13,.34c.1,.13,.22,.28,.19,.69,.01,.22-.01,.31-.06,.4,0,.04-.03,.1-.04,.21h.53c.06-.22,.13-.37,.21-.53Z"/>
  <path class="cls-10" d="M62.41,32.05c.18,0,.31-.13,.31-.31s-.13-.31-.31-.31c-.09,0-.16,.03-.22,.09-.06,.06-.09,.13-.09,.22s.03,.16,.09,.22c.06,.06,.13,.09,.22,.09Z"/>
  <path d="M62.24,32.15c.05,.02,.11,.03,.17,.03s.11-.02,.16-.04c.09-.04,.15-.11,.2-.19,.04-.07,.08-.16,.08-.24,0-.23-.19-.44-.44-.44-.13,0-.23,.04-.32,.13-.09,.09-.13,.21-.13,.32,0,.1,.03,.17,.08,.24,.02,.03,.03,.06,.05,.08,.05,.05,.1,.08,.16,.1Zm-.14-.41c0-.09,.03-.16,.09-.22,.06-.06,.13-.09,.22-.09,.18,0,.31,.13,.31,.31s-.13,.31-.31,.31c-.09,0-.16-.03-.22-.09-.06-.06-.09-.13-.09-.22Z"/>
  <path class="cls-10" d="M65.99,38.87c-.04-.11-.07-.24-.09-.36l-1.76,2.57,.04,.03h.28l1.52-2.24Z"/>
  <path class="cls-10" d="M68.45,41.11s.04-.03,.07-.04l-1.45-2.11c-.05,.1-.1,.19-.15,.27l1.28,1.88h.25Z"/>
  <path class="cls-10" d="M66.33,40.37c.09,0,.18-.03,.23-.1,.06-.06,.1-.15,.1-.23s-.03-.18-.1-.23c-.04-.07-.13-.1-.23-.1-.19,0-.34,.15-.34,.34s.15,.34,.34,.34Z"/>
  <path class="cls-10" d="M69.69,41.5c-.07,.04-.14,.09-.22,.14-.15,.1-.53,.41-.53,.65,0,.06,.03,.1,.07,.15,.07,.06,.13,.07,.18,.06,.09-.03,.16-.21,.21-.45,.01-.1,.12-.18,.26-.26,.01-.1,.02-.18,.04-.27Z"/>
  <path class="cls-10" d="M69.81,40.65c-.59,.17-1.28,.59-1.29,.59h-.01s-1.38,0-1.38,0v-.03c-.16-.26-.48-.7-.78-.7-.4,.01-.69,.7-.69,.7v.04h-1.91c.07,.29,.35,1.15,1.12,1.39v.02s.01,0,.02,.01h2.56s.06-.02,.06-.02c.84-.12,1.13-.54,1.41-.95,.22-.32,.43-.62,.85-.76,.02-.11,.03-.21,.04-.31Z"/>
  <path class="cls-10" d="M63.9,42c-.18-.3-.27-.61-.3-.74h-.93c0,.06,.03,.18,.13,.29,.14,.16,.44,.36,1.09,.45Z"/>
  <path class="cls-10" d="M67.5,42.81h-2.54s-.01,.02-.01,.02c-.15,.12-.22,.26-.22,.5h3.07c0-.1-.05-.34-.3-.52Z"/>
  <path class="cls-10" d="M64.85,42.72s0,0,.01,0v-.02s-.01,0-.01,0Z"/>
  <path class="cls-7" d="M63.64,40.57c.07-.15,.16-.31,.25-.59,.01-.26-.1-.38-.21-.48s-.21-.21-.12-.43c.12-.18,.15-.34,.12-.5s-.15-.32-.34-.45c-.01,.28-.19,.53-.37,.76-.15,.22-.29,.41-.29,.59s.06,.25,.13,.34c.1,.13,.22,.28,.19,.69,.01,.22-.01,.31-.06,.4,0,.04-.03,.1-.04,.21h.53c.06-.22,.13-.37,.21-.53Z"/>
  <path class="cls-15" d="M63.64,40.57c.07-.15,.16-.31,.25-.59,.01-.26-.1-.38-.21-.48s-.21-.21-.12-.43c.12-.18,.15-.34,.12-.5s-.15-.32-.34-.45c-.01,.28-.19,.53-.37,.76-.15,.22-.29,.41-.29,.59s.06,.25,.13,.34c.1,.13,.22,.28,.19,.69,.01,.22-.01,.31-.06,.4,0,.04-.03,.1-.04,.21h.53c.06-.22,.13-.37,.21-.53Z"/>
  <path class="cls-10" d="M61.73,43.91c-.06-.02-.11-.05-.15-.1-.03-.03-.04-.06-.06-.09l-1.8,2.65h.02s.3,.01,.3,.01l1.69-2.48Z"/>
  <path class="cls-10" d="M62.06,43.91l1.7,2.49h.26s.04-.02,.06-.04l-1.82-2.65c-.05,.09-.12,.16-.21,.2Z"/>
  <path class="cls-10" d="M61.9,45.65c.09,0,.18-.03,.23-.1,.06-.06,.1-.15,.1-.23s-.03-.18-.1-.23c-.04-.06-.13-.1-.23-.1-.19,0-.34,.15-.34,.34s.15,.34,.34,.34Z"/>
  <path class="cls-10" d="M59.47,47.3c-.18-.3-.27-.61-.3-.74h-.93c0,.06,.03,.18,.13,.29,.14,.16,.44,.36,1.09,.45Z"/>
  <path class="cls-10" d="M60.43,47.95v.02s0,0,.02,0h0s2.64-.02,2.64-.02c.82-.12,1.11-.54,1.39-.95,.28-.41,.53-.79,1.25-.84,.1,.01,.12,.06,.12,.09,.01,.04,.03,.18-.81,.67-.15,.1-.53,.41-.53,.65,0,.06,.03,.1,.07,.15,.07,.06,.13,.07,.18,.06,.09-.03,.16-.21,.21-.45,.01-.13,.21-.23,.43-.35,.38-.21,.85-.45,.75-.94-.03-.07-.09-.12-.18-.15-.56-.16-1.86,.65-1.88,.65h-.01s-1.38,0-1.38,0v-.03c-.16-.26-.48-.7-.78-.7-.4,.01-.69,.7-.69,.7v.04h-1.91c.07,.29,.35,1.15,1.12,1.39Z"/>
  <path class="cls-10" d="M63.06,48.1h0s-2.5,0-2.5,0l-.03,.02c-.15,.12-.22,.26-.22,.5h3.07c0-.1-.04-.35-.31-.53Z"/>
  <path d="M59.54,47.44c.29,.4,.54,.54,.81,.65-.16,.19-.19,.41-.19,.6v.07h3.33s.01-.06,.01-.06c0-.01,.04-.37-.23-.63,.78-.16,1.09-.6,1.35-1,.26-.4,.48-.72,1.09-.78-.1,.1-.43,.32-.72,.5-.06,.04-.57,.43-.59,.76,0,.1,.04,.19,.13,.26,.1,.09,.22,.12,.31,.07,.18-.07,.25-.38,.28-.56,0-.07,.19-.16,.35-.25,.4-.22,.94-.5,.81-1.11-.06-.12-.15-.19-.28-.23-.55-.16-1.63,.45-1.91,.62-.02,.01-.05,.03-.06,.04h-1.26c-.08-.15-.33-.52-.63-.67,.04-.02,.07-.04,.1-.07,.1-.09,.15-.21,.15-.34s-.06-.25-.15-.34c-.09-.1-.21-.15-.34-.15-.26,0-.48,.22-.48,.48,0,.18,.11,.33,.25,.42-.3,.16-.52,.54-.58,.67h-1.94c.04-.2,.11-.33,.18-.47,.07-.15,.18-.32,.26-.62h0c.03-.35-.13-.51-.23-.62-.1-.1-.15-.15-.1-.28,.13-.19,.18-.4,.13-.59-.06-.22-.22-.44-.51-.62l-.13-.09,.03,.16c.06,.26-.13,.54-.32,.81-.16,.23-.31,.45-.31,.67s.07,.32,.16,.43c.09,.12,.19,.23,.16,.6,.01,.19-.01,.25-.04,.32-.03,.06-.06,.15-.08,.28h-.25v.06s-.04,.22,.15,.45c.23,.28,.66,.47,1.29,.53Zm-1.01-1.26c.04-.09,.07-.18,.06-.4,.03-.41-.09-.56-.19-.69-.07-.09-.13-.16-.13-.34s.15-.37,.29-.59c.18-.23,.35-.48,.37-.76,.19,.13,.31,.29,.34,.45,.03,.16,0,.32-.12,.5-.09,.22,.01,.32,.12,.43s.22,.22,.21,.48c-.09,.28-.18,.44-.25,.59-.07,.16-.15,.31-.21,.53h-.53c.01-.1,.04-.15,.04-.21Zm.65,.38c.03,.14,.12,.44,.3,.74-.65-.09-.96-.28-1.09-.45-.1-.12-.13-.23-.13-.29h.93Zm2.05-.04s.29-.69,.69-.7c.29,0,.62,.44,.76,.7v.03s1.39,.01,1.39,.01h.01s1.32-.82,1.88-.66c.09,.03,.15,.07,.18,.15,.1,.48-.37,.73-.75,.94-.22,.12-.41,.22-.43,.35-.04,.25-.12,.43-.21,.45-.04,.01-.1,0-.18-.06-.04-.04-.07-.09-.07-.15,0-.23,.38-.54,.53-.65,.84-.5,.82-.63,.81-.67,0-.03-.01-.07-.12-.09-.72,.04-.97,.43-1.25,.84-.28,.41-.57,.83-1.39,.95h-2.64v.02s-.01,0-.02,0v-.02c-.77-.24-1.04-1.1-1.12-1.39h1.9v-.04Zm.69-1.54c.1,0,.19,.04,.23,.1,.07,.06,.1,.15,.1,.23s-.04,.18-.1,.23c-.06,.07-.15,.1-.23,.1-.19,0-.34-.15-.34-.34s.15-.34,.34-.34Zm-1.6,3.65c0-.23,.07-.38,.22-.5l.03-.02h2.5s0,0,0,0c.26,.18,.31,.43,.31,.54h-3.07Zm.15-.6h0Zm-.03-.03h0s.01,0,.01,0c0,0,0,0-.01,0Z"/>
  <path class="cls-10" d="M60.42,48s0,0,.01,0h-.01s0,0,0,0Z"/>
  <path class="cls-7" d="M59.21,45.85c.07-.15,.16-.31,.25-.59,.01-.26-.1-.38-.21-.48s-.21-.21-.12-.43c.12-.18,.15-.34,.12-.5-.03-.16-.15-.32-.34-.45-.01,.28-.19,.53-.37,.76-.15,.22-.29,.41-.29,.59s.06,.25,.13,.34c.1,.13,.22,.28,.19,.69,.01,.22-.01,.31-.06,.4,0,.06-.03,.1-.04,.21h.53c.06-.22,.13-.37,.21-.53Z"/>
  <path class="cls-8" d="M59.21,45.85c.07-.15,.16-.31,.25-.59,.01-.26-.1-.38-.21-.48s-.21-.21-.12-.43c.12-.18,.15-.34,.12-.5-.03-.16-.15-.32-.34-.45-.01,.28-.19,.53-.37,.76-.15,.22-.29,.41-.29,.59s.06,.25,.13,.34c.1,.13,.22,.28,.19,.69,.01,.22-.01,.31-.06,.4,0,.06-.03,.1-.04,.21h.53c.06-.22,.13-.37,.21-.53Z"/>
  <path class="cls-10" d="M61.9,43.8c.18,0,.31-.13,.31-.31s-.13-.31-.31-.31c-.09,0-.16,.03-.22,.09-.06,.06-.09,.13-.09,.22s.03,.16,.09,.22c.06,.06,.13,.09,.22,.09Z"/>
  <path d="M61.73,43.91c.05,.02,.11,.03,.17,.03s.11-.02,.16-.04c.09-.04,.16-.11,.21-.2,.04-.07,.07-.15,.07-.23,0-.23-.19-.44-.44-.44-.13,0-.23,.04-.32,.13-.09,.09-.13,.21-.13,.32,0,.09,.03,.17,.07,.24,.02,.03,.03,.06,.06,.09,.05,.05,.1,.08,.15,.1Zm-.14-.42c0-.09,.03-.16,.09-.22,.06-.06,.13-.09,.22-.09,.18,0,.31,.13,.31,.31s-.13,.31-.31,.31c-.09,0-.16-.03-.22-.09-.06-.06-.09-.13-.09-.22Z"/>
  <path class="cls-10" d="M62.18,50.16l1.7,2.49h.26s.03-.02,.05-.03l-1.81-2.66c-.05,.08-.12,.16-.2,.2Z"/>
  <path class="cls-10" d="M61.85,50.16c-.06-.02-.11-.05-.15-.1-.03-.03-.04-.06-.06-.09l-1.8,2.65h.02s.3,.01,.3,.01l1.69-2.48Z"/>
  <path class="cls-10" d="M62.01,51.89c.09,0,.18-.03,.23-.1,.06-.06,.1-.15,.1-.23s-.03-.18-.1-.23c-.06-.06-.13-.1-.23-.1-.19,0-.34,.15-.34,.34s.15,.34,.34,.34Z"/>
  <path class="cls-10" d="M66.06,52.14c-.56-.16-1.86,.65-1.88,.65h-.01s-1.38,0-1.38,0v-.03c-.16-.26-.48-.7-.78-.7-.4,.01-.69,.7-.69,.7v.04h-1.9c.07,.29,.35,1.15,1.12,1.39v.03s0,0,.02,0h0s2.55-.02,2.55-.02h.06c.84-.13,1.13-.55,1.41-.96,.28-.41,.53-.79,1.25-.84,.1,.01,.12,.06,.12,.09,.01,.04,.03,.18-.81,.67-.15,.1-.53,.41-.53,.65,0,.06,.03,.1,.07,.15,.07,.06,.13,.07,.18,.06,.09-.03,.16-.21,.21-.45,.01-.13,.21-.23,.43-.35,.38-.21,.85-.45,.75-.94-.03-.07-.09-.12-.18-.15Z"/>
  <path class="cls-10" d="M63.17,54.35h-2.54s-.01,.02-.01,.02c-.13,.12-.21,.26-.22,.5h3.07c0-.1-.04-.34-.3-.52Z"/>
  <path class="cls-10" d="M59.59,53.55c-.18-.31-.27-.61-.3-.75h-.94c0,.06,.03,.18,.13,.29,.14,.17,.45,.37,1.11,.45Z"/>
  <path d="M66.11,51.98c-.55-.17-1.66,.47-1.92,.63-.02,0-.04,.02-.05,.03h-1.26c-.08-.15-.33-.52-.63-.67,.04-.02,.07-.04,.1-.07,.1-.09,.15-.21,.15-.34s-.06-.25-.15-.34c-.09-.1-.21-.15-.34-.15-.26,0-.48,.22-.48,.48,0,.18,.11,.33,.25,.42-.3,.16-.52,.54-.58,.67h-1.94c.04-.2,.11-.33,.18-.47,.07-.15,.18-.32,.26-.62h0c.03-.35-.13-.51-.23-.62s-.15-.15-.1-.28c.13-.19,.18-.4,.13-.59-.06-.22-.22-.44-.51-.62l-.13-.09,.03,.16c.06,.26-.13,.54-.32,.81-.16,.23-.31,.45-.31,.67s.07,.32,.16,.43c.09,.12,.19,.23,.16,.6,.01,.19-.01,.25-.04,.32-.03,.06-.06,.15-.08,.28h-.25v.06s-.04,.22,.15,.45c.23,.28,.66,.47,1.29,.53,.29,.4,.54,.54,.81,.65-.16,.19-.19,.41-.19,.6v.07h3.33s.01-.06,.01-.06c0-.01,.04-.37-.23-.63,.78-.16,1.09-.6,1.35-1,.26-.4,.48-.72,1.09-.78-.1,.1-.43,.32-.72,.5-.06,.04-.57,.43-.59,.76,0,.1,.04,.19,.13,.26,.1,.09,.22,.12,.31,.07,.18-.07,.25-.38,.28-.56,0-.07,.19-.16,.35-.25,.4-.22,.94-.5,.81-1.11-.06-.12-.15-.19-.28-.23Zm-.62,1.25c-.22,.12-.41,.22-.43,.35-.04,.25-.12,.43-.21,.45-.04,.01-.1,0-.18-.06-.04-.04-.07-.09-.07-.15,0-.23,.38-.54,.53-.65,.84-.5,.82-.63,.81-.67,0-.03-.01-.07-.12-.09-.72,.04-.97,.43-1.25,.84-.28,.41-.57,.84-1.41,.95h-.06s-2.55,.02-2.55,.02h0s-.01,0-.02,0v-.03c-.76-.24-1.04-1.1-1.11-1.39h1.88v-.04s.31-.69,.7-.7c.29,0,.62,.44,.76,.7v.03s1.39,.01,1.39,.01h.01s1.32-.82,1.88-.66c.09,.03,.15,.07,.18,.15,.1,.48-.37,.73-.75,.94Zm-5.09,1.64c.01-.23,.09-.38,.22-.5h.01s2.54-.02,2.54-.02c.25,.18,.3,.42,.3,.53h-3.07Zm-1.76-2.46c.04-.09,.07-.18,.06-.4,.03-.41-.09-.56-.19-.69-.07-.09-.13-.16-.13-.34s.15-.37,.29-.59c.18-.23,.35-.48,.37-.76,.19,.13,.31,.29,.34,.45,.03,.16,0,.32-.12,.5-.09,.22,.01,.32,.12,.43,.1,.1,.22,.22,.21,.48-.09,.28-.18,.44-.25,.59-.07,.16-.15,.31-.21,.53h-.53c.01-.1,.04-.15,.04-.21Zm.65,.38c.03,.14,.12,.44,.3,.75-.66-.08-.97-.29-1.11-.45-.1-.12-.13-.23-.13-.29h.94Zm1.27,1.5h0Zm-.03-.05h0s.01,0,.01,0c0,0,0,0-.01,0Zm1.48-3.03c.1,0,.18,.04,.23,.1,.07,.06,.1,.15,.1,.23s-.04,.18-.1,.23c-.06,.07-.15,.1-.23,.1-.19,0-.34-.15-.34-.34s.15-.34,.34-.34Z"/>
  <path class="cls-10" d="M60.54,54.25s0,0,.01,0h-.01s0,0,0,0Z"/>
  <path class="cls-7" d="M59.33,52.1c.07-.15,.16-.31,.25-.59,.01-.26-.1-.38-.21-.48-.1-.1-.21-.21-.12-.43,.12-.18,.15-.34,.12-.5-.03-.16-.15-.32-.34-.45-.01,.28-.19,.53-.37,.76-.15,.22-.29,.41-.29,.59s.06,.25,.13,.34c.1,.13,.22,.28,.19,.69,.01,.22-.01,.31-.06,.4,0,.06-.03,.1-.04,.21h.53c.06-.22,.13-.37,.21-.53Z"/>
  <path class="cls-5" d="M59.33,52.1c.07-.15,.16-.31,.25-.59,.01-.26-.1-.38-.21-.48-.1-.1-.21-.21-.12-.43,.12-.18,.15-.34,.12-.5-.03-.16-.15-.32-.34-.45-.01,.28-.19,.53-.37,.76-.15,.22-.29,.41-.29,.59s.06,.25,.13,.34c.1,.13,.22,.28,.19,.69,.01,.22-.01,.31-.06,.4,0,.06-.03,.1-.04,.21h.53c.06-.22,.13-.37,.21-.53Z"/>
  <path class="cls-10" d="M62.01,50.05c.18,0,.31-.13,.31-.31s-.13-.31-.31-.31c-.09,0-.16,.03-.22,.09-.06,.06-.09,.13-.09,.22s.03,.16,.09,.22c.06,.06,.13,.09,.22,.09Z"/>
  <path d="M61.85,50.16c.05,.02,.11,.03,.17,.03s.11-.02,.16-.04c.09-.04,.16-.11,.2-.2,.04-.07,.07-.15,.07-.23,0-.23-.19-.44-.44-.44-.13,0-.23,.04-.32,.13-.09,.09-.13,.21-.13,.32,0,.09,.03,.17,.07,.24,.02,.03,.03,.06,.06,.09,.05,.05,.1,.08,.15,.1Zm-.14-.42c0-.09,.03-.16,.09-.22,.06-.06,.13-.09,.22-.09,.18,0,.31,.13,.31,.31s-.13,.31-.31,.31c-.09,0-.16-.03-.22-.09-.06-.06-.09-.13-.09-.22Z"/>
  <path class="cls-10" d="M80,35.15v-.25h-.11c0,.05,.03,.15,.11,.25Z"/>
  <path d="M79.76,34.79s-.03,.22,.16,.45c.02,.03,.05,.05,.08,.07v-.17c-.08-.1-.11-.2-.11-.25h.11v-.16h-.22v.06Z"/>
  <path class="cls-7" d="M80,33.33v-.43c-.03,.06-.06,.13-.06,.19,0,.11,.03,.18,.06,.24Z"/>
  <path class="cls-9" d="M80,33.33v-.43c-.03,.06-.06,.13-.06,.19,0,.11,.03,.18,.06,.24Z"/>
  <path d="M79.97,33.53s.02,.03,.03,.05v-.25c-.04-.06-.06-.13-.06-.24,0-.06,.03-.13,.06-.19v-.29c-.11,.17-.19,.33-.19,.49,0,.22,.07,.32,.16,.43Z"/>
  <path d="M79.98,46.76s0,.07,.02,.17v-.23h0v.06Z"/>
  <path class="cls-10" d="M77.28,54.78c.15,.1,.29,.22,.21,.41-.1,.16-.21,.19-.28,.2,.03,.06,.06,.11,.06,.16,0,.07-.01,.13-.06,.18-.07,.09-.16,.12-.25,.12-.05,0-.09-.01-.14-.03,.03,.06,.05,.12,.05,.19,0,.12-.07,.22-.21,.29-.12,.04-.21,.07-.29,.07-.23,0-.35-.21-.45-.38-.04-.07-.07-.15-.13-.21l-.04-.06,.64-.38,.36-.42h.01s.16-.3,.16-.3c-.13,0-.23-.02-.29-.03-.1,.16-.43,.6-.67,.57-.15-.01-.31-.15-.43-.26-.03-.03-.06-.06-.1-.09,.01,.04,.03,.09,.06,.13,.06,.15,.13,.29,.07,.38,0,0-.01,0-.01,.01,0,0,0,0,0,0,0,0,0,0,0,0-.03,.04-.1,.08-.19,.1l.04,.08s.44,1.01,1.01,1.09c.22,.03,.44-.09,.66-.35,.82-1.03,.65-1.51,.6-1.6h0c-.16,0-.33-.02-.49-.03,.04,.04,.08,.08,.13,.12Z"/>
  <path class="cls-4" d="M77.36,55.12c.04-.07,0-.12-.16-.22-.06-.04-.13-.09-.18-.15l-.12,.22,.29,.29s.1-.03,.16-.15Z"/>
  <path class="cls-4" d="M71.31,54.74s-.07,.06-.11,.09c.13,.2,.23,.33,.3,.38l.72-.39-.11-.11c-.11-.04-.22-.07-.35-.05-.17,.02-.32,.05-.46,.08Z"/>
  <path class="cls-4" d="M69.86,55.83c.22-.06,.5-.1,.67-.12-.13-.1-.22-.18-.3-.24-.1,.05-.2,.08-.27,.08-.32,.01-.43,.09-.44,.13-.03,.03-.03,.09,0,.15,.02,.03,.13,.04,.28,.03,.02-.01,.03-.02,.05-.03Z"/>
  <path class="cls-4" d="M73.97,26.23c.53-.11,1.15-.54,1.36-.69h0c-.07-.07-.35-.33-.28-.95-.09-.08-.18-.2-.28-.34-.03-.03-.04-.06-.06-.09-.04-.05-.02-.13,0-.24-.33,.52-.72,.63-.96,.63-.15,0-.23-.03-.23-.03l.04-.13-.03,.06,.03-.06s.73,.26,1.22-.91h0s-.07-.09-.11-.13c-.04-.04-.07-.09-.12-.13-.09-.1,.01-.25,.1-.37,.03-.04,.09-.13,.09-.16-.01-.04-.09-.06-.25-.1-.06-.01-.15-.03-.23-.06-.07-.01-.13-.07-.16-.13-.12-.22,.01-.65,.09-.84-.09-.03-.21-.1-.35-.31-.18-.23-.41-.26-.75-.07-.19,.11-.48,.12-.66,.11v.08c-.01,.07,.03,.45,.06,.66,.03,.25-.35,.73-.43,.76h-.04s-.03,0-.03,0c-.01,0-.06,.01-.07,.04-.01,.01-.01,.03-.01,.04,.01,.06,.15,.12,.25,.13h.07s-.01,.07-.01,.07l.33,.02v.13s-.35-.02-.35-.02c-.03,.15-.04,.28-.03,.31h.4s.06,.03,.07,.06c.01,.03-.01,.06-.04,.07l-.38,.16-.02-.05s-.01,.04-.02,.07c-.07,.22-.13,.43,0,.5,.34,.18,.81,.35,1,.32,.01,.01,.03,.01,.04,.01,.03,0,.07,.01,.09,.04,.15,.15,0,.76-.04,.95l-.07,.14c.13,.22,.39,.5,.78,.42Zm-.81-3.81s-.15,.06-.25,.06-.21-.03-.28-.09c-.03-.03-.04-.09-.03-.13,.01-.04,.06-.07,.12-.07,.01,0,.04-.01,.07-.01,.15-.03,.32-.07,.4,.04,.04,.07,.03,.15-.03,.21Z"/>
  <polygon class="cls-4" points="72.21 23.66 72.21 23.67 72.22 23.66 72.21 23.66"/>
  <path class="cls-4" d="M74.29,21.56h0s-.03,0-.05-.02c.03,.01,.05,.02,.05,.02Z"/>
  <path class="cls-4" d="M73.49,21.03s.02,0,.02,0c0,0-.02,0-.02,0Z"/>
  <path class="cls-4" d="M70.66,28.46c.06-.07,.12-.13,.18-.19,.13-.13,.25-.25,.28-.34l.37-1.03c-.3,.22-.78,.7-.83,1.55Z"/>
  <path class="cls-4" d="M66.5,39.32c0-.44-.34-1.12-.5-1.42,0,.54,.07,1.2,.5,1.42Z"/>
  <path class="cls-4" d="M66,37.24v.28c0,.06,0,.12,0,.18l.03-.02s.63,1.09,.6,1.69c0,0,0,0,.02,0,.06-.01,.2-.25,.36-.59h-.12s-.04-1.01-.04-1.01h.13s.04,.99,.04,.99c.17-.35,.36-.81,.52-1.24,.01-.32-.01-.85-.18-.95-.06-.03-.09-.09-.09-.15,0-.25,.53-.62,.63-.69,.01-.01,1.55-1.14,1.91-1.41,.32-.25,1.16-1.19,1.28-1.32l.06-.73c0-.12,.01-.22,.01-.3,0-.41-.07-.97-.09-1.11-.11-.06-.48-.24-.73-.52-.1,.65-.16,1.11-.17,1.12h0s-.01,.03-.01,.03c-.01,.01-1.38,1.55-1.79,2.11-.23,.31-.53,.79-.79,1.23-.21,.34-.38,.63-.48,.76-.04,.06-.12,.15-.19,.23-.32,.4-.92,1.11-.91,1.39Z"/>
  <path d="M65.86,37.24v.26c0,.26-.01,.64,.04,1.01,.02,.13,.05,.25,.09,.36,.11,.31,.29,.56,.62,.63,.01,.01,.03,.01,.04,.01s.03,0,.04-.01c.06-.03,.14-.13,.22-.27,.05-.08,.1-.17,.15-.27,.25-.5,.52-1.2,.59-1.4h0c.01-.1,.04-.92-.23-1.1t-.01-.03c-.01-.13,.34-.43,.57-.59,.01-.01,1.55-1.14,1.91-1.42,.29-.23,.94-.95,1.2-1.23-.05,.57-.1,1.1-.1,1.1-.25,.87-1.07,3.73-1.04,3.89,0,.04,.03,.07,.07,.1,.07,.03,.19,.01,.28-.01-.07,.37-.31,1.44-.4,1.77-.02,.05-.04,.21-.08,.44-.52,.14-1.11,.46-1.31,.59-.02,.01-.05,.03-.07,.04h-1.26c-.08-.15-.33-.53-.63-.68,.04-.02,.07-.04,.1-.07,.1-.09,.15-.21,.15-.34s-.06-.25-.15-.34c-.09-.1-.21-.15-.34-.15-.26,0-.48,.22-.48,.48,0,.18,.11,.33,.25,.42-.3,.16-.52,.54-.58,.67h-1.95c.04-.21,.11-.34,.19-.48,.07-.15,.18-.32,.26-.62h0c.03-.35-.13-.51-.23-.62s-.15-.15-.1-.28c.13-.19,.18-.4,.13-.59-.06-.22-.22-.44-.51-.62l-.13-.09,.03,.16c.06,.26-.13,.54-.32,.81-.16,.23-.31,.45-.31,.67s.07,.32,.16,.43c.09,.12,.19,.23,.16,.6,.01,.19-.01,.25-.04,.32-.03,.07-.06,.15-.08,.29h-.24v.06s-.04,.22,.15,.45c.23,.28,.66,.47,1.29,.53,.29,.4,.54,.53,.81,.65-.16,.19-.19,.41-.19,.6v.07h3.33s.01-.06,.01-.06c0-.01,.04-.37-.23-.63,.78-.16,1.09-.6,1.35-1,.2-.3,.37-.55,.7-.69,0,.07-.02,.14-.03,.21-.1,.07-.2,.13-.31,.19-.06,.04-.57,.43-.59,.76,0,.1,.04,.19,.13,.26,.1,.09,.22,.12,.31,.07,.18-.07,.25-.38,.28-.56,0-.03,.04-.07,.09-.1-.26,2.06-.61,5.07-.59,5.29,.03,.29,.37,.35,.51,.37l.03,4.19c-.07,.15-.53,.97-.53,1.25,0,.18,.07,.32,.13,.44,.04,.09,.07,.16,.09,.22,.01,.09-.06,.35-.12,.54-.06,.19-.09,.32-.09,.38,0,.18,.16,.45,.51,.53,.09,.02,.2,.01,.33-.01,0,.02,.05,.07,.2,.21-.06,.02-.12,.04-.16,.04-.29,.01-.48,.09-.56,.21-.03,.04-.06,.13-.01,.26,.04,.09,.16,.11,.3,.12,0,.01-.02,.02-.02,.04-.03,.12,.01,.25,.1,.34,.07,.07,.16,.1,.25,.1,.04,0,.07-.01,.12-.03,.31-.09,2.23-1.09,2.55-1.26h.01s.02,0,.02,0c0,0,0,0,0,0,.15,.13,.23,.23,.32,.23,.21,0,.73-.38,.76-.65,.01-.18-.16-.28-.31-.37-.03-.01-.06-.04-.09-.06,.15-.01,.51,.18,.62,.28-.12,.07-.22,.19-.06,.56,.1,.22,.34,.35,.69,.38h.12c.15,0,.31-.02,.44-.05l.06,.12c.01,.06,.47,1.07,1.11,1.16h.09c.23,0,.47-.15,.72-.41,.77-.95,.71-1.49,.64-1.68,.15,0,.27,0,.31,0,.16-.01,.21-.18,.22-.31l.19,.03c.23,.01,1.01,.01,1.11-.25,.06-.15-.07-.59-.26-1.2-.06-.21-.15-.45-.15-.51,.13-.19,.22-1.07,.22-1.09,.01-.19-.19-.88-.47-1.83-.16-.56-.31-1.07-.32-1.19-.01-.16-.22-.51-.41-.84-.1-.16-.21-.35-.25-.44,.13-.03,.21-.15,.23-.23h0v-.03c-.54-2.33-1.57-6.81-1.58-6.98-.01-.21-.18-.34-.25-.4v-.74c.04-.16,.06-.32,.09-.51,.07-.15,.84-1.53,.97-1.91,.07-.19,.45-.73,.78-1.22,.34-.48,.62-.89,.67-1.06,.13-.38-.22-2.93-.28-3.27-.04-.34-.31-1.19-.45-1.67-.22-.7-.32-1.01-.38-1.16,.03-.05,.05-.1,.05-.16,.04-.44-1.01-1.54-1.64-2.17h-.01c-.1-.12-.59-.1-.78-.1h-.03s-.01-.01-.01-.01h-.01s-.28-.23-.22-.79c0,0,0,0,0,0,.01,.03,.03,.07,.04,.12,.03,.12,.07,.26,.19,.32,.04,.01,.09,.03,.13,.03,.03,0,.09,0,.12-.07,.09-.03,.17-.08,.23-.13,.01-.01,.02-.02,.03-.03,.12-.12,.17-.25,.18-.36,0,0,0,0,0,0,.02,0,.05-.02,.08-.03,.03,0,.05-.02,.08-.04,.01,0,.03-.01,.04-.02,.14-.07,.29-.19,.35-.42,.1-.35,.35-.43,.37-.44,0-.01,.23-.13,.23-.35,.01-.16-.12-.34-.38-.51,0-1.19-.29-2.04-.87-2.52-.53-.44-1.13-.43-1.31-.41-.07-.15-.32-.57-.72-.5-.25,.04-.37,.21-.47,.34s-.16,.19-.26,.18c-.19-.03-.28-.12-.32-.18-.03-.03-.04-.06-.09-.06h-.04s-.26,.45-.29,.63h-.12c-.16,0-.41,0-.54,.15-.07,.07-.1,.19-.09,.34,.06,.45,.28,.57,.38,.6,.06,.01,.11,.03,.15,0l-.02,.12h0s.04,.45,.07,.69c.01,.16-.25,.53-.34,.62-.04,0-.09,.01-.12,.03-.09,.04-.13,.13-.12,.22,.03,.13,.19,.19,.29,.22-.03,.13-.06,.38,0,.47,.01,.03,.03,.03,.04,.04-.01,.03-.03,.09-.04,.13-.07,.21-.18,.53,.06,.66,.25,.13,.82,.38,1.09,.32,.06,.04,.01,.43-.07,.81l-.03,.06s-.03-.07-.03-.07v-.06s-.07,.01-.07,.01c-.87,.15-1.38,1.03-1.41,1.07v.04c-.27,.14-1.14,.73-1.1,1.99v.02c-.23,.29-.43,.66-.4,1.14,0,.14,.06,.26,.12,.37-.1,.65-.16,1.14-.18,1.24-.15,.16-1.38,1.57-1.77,2.1-.23,.32-.53,.81-.79,1.25-.21,.34-.38,.63-.48,.76-.04,.06-.1,.13-.19,.23-.48,.59-.95,1.17-.94,1.48Zm1.73-2.39c.26-.44,.56-.92,.79-1.23,.41-.56,1.77-2.1,1.79-2.11h.01v-.03s.07-.47,.17-1.12c.25,.28,.61,.46,.73,.52,.01,.15,.09,.7,.09,1.11,0,.07,0,.18-.01,.3l-.06,.73c-.12,.13-.95,1.07-1.28,1.32-.35,.26-1.89,1.39-1.91,1.41-.1,.07-.63,.44-.63,.69,0,.06,.03,.12,.09,.15,.16,.1,.19,.63,.18,.95-.16,.43-.35,.89-.52,1.24l-.04-.99h-.13s.04,1.02,.04,1.02h.12c-.16,.33-.3,.57-.36,.58,0,0,0,0-.02,0,.03-.6-.59-1.65-.6-1.69l-.03,.02c0-.06,0-.13,0-.18v-.28c-.01-.28,.59-1,.91-1.39,.07-.09,.15-.18,.19-.23,.1-.13,.28-.43,.48-.76Zm3.4-6.47c.15-.16,.26-.28,.31-.4l.45-1.29s.48-.82,1.25-.98c.09,.19,.41,.79,1.03,.66,.65-.13,1.35-.66,1.48-.76,.28-.01,.6,0,.65,.04h.03c1.03,1.01,1.64,1.8,1.61,2.07,0,.03-.01,.05-.02,.07-.01-.01-.02-.01-.04-.01h-.01c-.6,.18-1.03,.5-1.26,.95-.12,.24-.18,.53-.2,.85-.02,.13-.02,.25-.02,.37,0,.02,0,.04,0,.06,0,.05,0,.1,0,.15,.01,.07,.04,.15,.05,.23,.06,.41,.15,.86,.33,1.37h0s.01,.03,.01,.03c0,0,0,.01,.01,.02,0,0,0,.02,0,.03-.03,.15-.1,.23-.18,.32-.07,.07-.13,.15-.13,.25,0,.09,.04,.18,.09,.29,.06,.13,.12,.29,.12,.45,0,.13-.06,.29-.12,.45-.07,.21-.15,.43-.12,.6,.04,.25,.06,.94,.07,1.12-.03,.07-.05,.12-.09,.2-.04,.07-.06,.13-.07,.16l-.03,.06c-.73,1.7-1.22,2.77-1.33,2.92-.23,.28-.26,1.32-.25,1.6,.03,.35,.5,.69,.79,.76h.06c.34,0,.92-.62,.95-.73,.03-.07-.04-.19-.12-.32-.04-.06-.1-.16-.1-.21,.04-.04,.08-.18,.12-.37v.12s.03,.01,.03,.01c0,0,.21,.13,.22,.32,.01,.23,1.45,6.5,1.57,6.98-.01,.03-.07,.13-.15,.12-.01,0-.01,0-.02,0v-.04c-.21,.04-.54-.32-.7-.57l-.06-.09-.06,.09s-.59,.85-1.72,.1l-.06-.04-.04,.06c-.19,.31-.44,.5-.75,.57-.78,.18-1.7-.45-1.72-.45l-.04-.03-.04,.03s-.54,.44-1.1,.38c-.26-.03-.48-.18-.67-.43l-.04-.07-.06,.06c-.62,.67-1.33,.91-1.33,.91l.02,.07c-.11,0-.38-.04-.39-.23-.03-.29,.75-6.79,.85-7.16,.12-.41,.41-1.85,.43-1.91v-.04s.01,.01,.01,.01c.13-.04,.5-.37,.53-.41l-.09-.1c-.15,.13-.41,.35-.48,.38l.02,.05-.08,.04c-.13,.06-.26,.09-.28,.06,0-.16,.62-2.38,1.04-3.84,.01-.07,.19-1.85,.19-2.33s-.09-1.17-.09-1.17v-.04h-.03s-.92-.41-.94-.98c-.06-.65,.38-1.1,.7-1.44Zm.13-.45c-.03,.09-.15,.21-.28,.34-.06,.06-.12,.12-.18,.19,.05-.85,.53-1.33,.83-1.55l-.37,1.03Zm2.17-3.21s-.06-.04-.09-.04c-.01,0-.03,0-.04-.01-.19,.03-.66-.15-1-.32-.13-.07-.07-.28,0-.5,0-.03,.01-.04,.02-.07l.02,.05,.38-.16s.06-.04,.04-.07c-.01-.03-.04-.06-.07-.06h-.4s0-.17,.03-.31l.34,.02v-.13s-.32-.02-.32-.02v-.05s-.06-.01-.06-.01c-.1-.01-.23-.07-.25-.13,0-.01,0-.03,.01-.04,.01-.03,.06-.04,.07-.04h.03s.04,0,.04,0c.07-.03,.45-.51,.43-.76-.03-.21-.07-.59-.07-.66v-.08c.19,0,.48,0,.67-.11,.34-.19,.57-.16,.75,.07,.15,.21,.26,.28,.35,.31-.07,.19-.21,.62-.09,.84,.03,.06,.09,.12,.16,.13,.09,.03,.18,.04,.23,.06,.16,.04,.23,.06,.25,.1,0,.03-.06,.12-.09,.16-.09,.12-.19,.26-.1,.37,.04,.04,.07,.09,.12,.13,.04,.04,.08,.09,.11,.14h0c-.48,1.17-1.19,.92-1.22,.91l-.04,.13s.09,.03,.23,.03c.24,0,.63-.11,.96-.63-.03,.1-.04,.19,0,.24,.01,.03,.03,.06,.06,.09,.1,.14,.19,.26,.28,.34-.07,.62,.21,.88,.28,.94h0c-.21,.16-.82,.6-1.36,.7-.4,.09-.65-.2-.78-.42l.07-.14c.04-.19,.19-.81,.04-.95Zm-1.08-1.05s0,0,0,0h0Zm6.61,10.22c-.04,.15-.35,.6-.65,1.03-.35,.51-.72,1.04-.79,1.26-.13,.38-.95,1.88-.97,1.89v.03c-.12,.69-.25,1.44-.29,1.51-.02,.01-.02,.03-.03,.05-.08,0-.56,.07-.88,.79-.03-.18-.09-.31-.19-.4-.1-.09-.22-.11-.28-.12,.01-.42,.09-1.03,.22-1.2,.16-.19,.82-1.72,1.35-2.95l.03-.06s.03-.07,.07-.16c.4-.89,.94-2.11,.95-2.39,.01-.37-.29-1.17-.63-1.5-.44-1.31-.5-2.26-.15-2.92,.21-.41,.57-.69,1.11-.87,.13,.34,.75,2.29,.84,2.8,.1,.7,.38,2.9,.28,3.2Zm-1.58-.7c-.01,.17-.27,.83-.74,1.91-.01-.28-.03-.7-.06-.9-.01-.15,.04-.35,.12-.54,.06-.18,.12-.35,.12-.5,0-.19-.07-.37-.13-.51-.04-.09-.07-.18-.07-.23s.03-.1,.09-.16c.06-.09,.14-.19,.18-.33,.27,.34,.52,.98,.51,1.27Zm-1.14,6.6c.02,.06,.06,.12,.1,.19,.03,.07,.1,.19,.1,.22-.03,.12-.63,.73-.87,.67-.06-.01-.14-.04-.21-.08,0,0,0-.01,0-.02,.28-.91,.81-.98,.87-.98Zm-1.36,.28s.11,0,.2,.09c.11,.1,.16,.3,.17,.56-.19-.13-.35-.3-.36-.47,0-.05,0-.11,0-.17Zm4.6,11.28c-.01,.34-.12,.92-.18,1.01-.07,.04-.04,.15,.12,.65,.13,.38,.32,1,.28,1.11-.04,.12-.54,.18-.97,.16l-.29-.05h.07c-.03-.29-.15-.93-.62-1.12-.41-.18-.98,.03-1.69,.62-.54,.45-.97,.63-1.22,.5-.37-.19-.29-.97-.29-.98h-.13s-.07,.88,.37,1.11c.07,.04,.16,.06,.25,.06,.28,0,.66-.19,1.13-.57,.66-.54,1.17-.75,1.54-.6,.41,.18,.5,.75,.53,1h.01s0,.07,0,.07c0,0,.01,.23-.1,.25-.15,.01-1.16-.04-1.54-.07h-.04l-.03,.03c-.15,.23-.43,.56-.56,.54-.1,0-.25-.13-.35-.22-.13-.1-.23-.19-.31-.12-.07,.07-.03,.18,.04,.34,.03,.07,.1,.23,.09,.26-.04,.04-.54,.19-.95,.1-.22-.04-.35-.13-.41-.28-.13-.32-.06-.35,0-.38,.03-.01,.06-.03,.07-.07,.01-.03,0-.06-.01-.09-.06-.12-.5-.38-.75-.38-.03,0-.07,0-.09,.09-.04,.03-.06,.06-.06,.09,0,.07,.08,.11,.17,.18h-.02c-.12,.19-.23,.29-.31,.28-.15-.03-.26-.4-.29-.53,0-.03-.01-.04-.01-.06s-.01-.04-.01-.07c-.03-.21-.1-.63-.43-.76-.25-.1-.59,0-1.01,.31-.45,.32-.82,.44-1.09,.35-.26-.09-.34-.38-.34-.38l-.13,.03s.09,.37,.43,.48c.32,.12,.72-.01,1.22-.37,.38-.28,.67-.38,.88-.29,.25,.1,.31,.47,.34,.65,0,.04,.01,.09,.01,.1s.01,.03,.01,.06c.06,.21,.18,.6,.41,.63h.03c.15,0,.28-.12,.41-.36,.09,.06,.18,.13,.16,.19-.03,.19-.48,.51-.63,.51-.03-.01-.15-.12-.22-.21-.06-.07-.13-.14-.21-.22-.04-.05-.09-.1-.16-.18l-.04-.04-.04,.03c-.18-.12-.39-.2-.62-.16-.26,.04-.48,.09-.66,.14-.01-.01-.03-.02-.05-.02,0,0-.63,.22-.94,.34-.19,.05-.38,.09-.49,.06-.29-.06-.41-.29-.41-.4,0-.04,.04-.21,.09-.34,.06-.23,.13-.48,.12-.6,0-.09-.04-.18-.09-.26-.06-.12-.12-.23-.12-.38,0-.22,.38-.94,.53-1.2h.01s-.03-4.35-.03-4.35c.21-.08,.73-.32,1.23-.85,.12,.14,.26,.24,.41,.31h-.04s.12,3.59,.32,6.07h.13c-.2-2.39-.31-5.74-.32-6.04,.07,.03,.14,.06,.22,.07,.53,.07,1.03-.28,1.17-.38,.19,.13,1.03,.62,1.77,.45,.32-.07,.59-.26,.79-.57,1,.62,1.6,.1,1.79-.1,.13,.17,.42,.5,.69,.54,0,.07,.08,.21,.28,.54,.18,.28,.38,.65,.4,.78,0,.13,.15,.63,.32,1.2,.21,.72,.47,1.6,.45,1.77Zm-1.69,3.36c.04,.09,.22,.57-.6,1.6-.22,.26-.44,.38-.66,.35-.57-.07-1.01-1.07-1.01-1.09l-.04-.08c.09-.03,.16-.06,.19-.1,0,0,0,0,0,0,0,0,.01,0,.01-.01,.06-.09-.01-.23-.07-.38-.03-.04-.04-.09-.06-.13,.04,.03,.07,.06,.1,.09,.12,.12,.28,.25,.43,.26,.25,.03,.57-.41,.67-.57,.05,0,.16,.02,.29,.03l-.16,.3h-.01s-.36,.41-.36,.41l-.64,.38,.04,.06c.06,.06,.09,.13,.13,.21,.1,.18,.22,.38,.45,.38,.09,0,.18-.03,.29-.07,.13-.07,.21-.18,.21-.29,0-.06-.02-.13-.05-.19,.04,.01,.09,.03,.14,.03,.09,0,.18-.03,.25-.12,.04-.04,.06-.1,.06-.18,0-.05-.03-.11-.06-.16,.07,0,.19-.04,.28-.2,.09-.19-.06-.31-.21-.41-.04-.03-.08-.08-.13-.12,.16,.01,.33,.02,.49,.03h0Zm-.75,.28l.12-.22c.04,.06,.12,.1,.18,.15,.16,.1,.21,.15,.16,.22-.06,.12-.13,.15-.16,.15l-.29-.29Zm-.18,1.01c0,.07-.04,.13-.13,.18-.31,.18-.4,.04-.56-.23-.03-.04-.06-.1-.09-.15l.43-.28c.13,.1,.37,.31,.35,.48Zm-.16-.59l.22-.25c.16,.12,.37,.31,.38,.44,0,.03-.01,.04-.03,.06-.16,.15-.32,.04-.35,.01l-.22-.26Zm-6.76,.65c0-.06,.04-.09,.1-.1,.31-.09,.82-.13,.82-.13h.18s-.13-.12-.13-.12c-.26-.21-.56-.44-.67-.54,.22-.09,.79-.29,.94-.34,.01,.01,.01,.03,.03,.04,.16,.26,.35,.54,.54,.5s.63-.37,.79-.48c.06,.07,.13,.15,.18,.21-.4,.21-2.21,1.16-2.49,1.23-.1,.03-.18-.03-.21-.06-.06-.06-.09-.15-.07-.21Zm-.28-.37s.12-.12,.44-.13c.07,0,.17-.04,.27-.08,.08,.07,.18,.14,.3,.24-.18,.01-.45,.06-.67,.12-.02,0-.03,.02-.05,.03-.15,0-.26,0-.28-.03-.03-.06-.03-.12,0-.15Zm2.7-.87l-.72,.39c-.07-.04-.17-.17-.3-.38,.04-.03,.07-.06,.11-.09,.14-.03,.29-.06,.46-.08,.13-.02,.24,0,.35,.05l.11,.11Zm-2.83-12.77c-.04,.25-.12,.43-.21,.45-.04,.01-.1,0-.18-.06-.04-.04-.07-.09-.07-.15,0-.23,.38-.54,.53-.65,.08-.05,.16-.1,.22-.14-.01,.09-.02,.18-.04,.27-.14,.08-.25,.16-.26,.26Zm-.48-.32c-.28,.41-.57,.84-1.41,.95h-.06s-2.56,.02-2.56,.02c0,0-.02,0-.03-.01v-.02c-.77-.24-1.04-1.1-1.11-1.39h1.9v-.04s.31-.69,.7-.7c.29,0,.62,.44,.76,.7v.03s1.39,.01,1.39,.01h.01s.7-.44,1.29-.61c-.01,.09-.03,.19-.04,.31-.43,.14-.64,.43-.85,.76Zm-4.18,1.61c0-.23,.07-.38,.22-.5h.01s2.54-.02,2.54-.02c.25,.18,.3,.42,.3,.53h-3.07Zm-1.77-2.45c.04-.09,.07-.18,.06-.4,.03-.41-.09-.56-.19-.69-.07-.09-.13-.16-.13-.34s.15-.37,.29-.59c.18-.23,.35-.48,.37-.76,.19,.13,.31,.29,.34,.45s0,.32-.12,.5c-.09,.22,.01,.32,.12,.43s.22,.22,.21,.48c-.09,.28-.18,.44-.25,.59-.07,.16-.15,.31-.21,.53h-.53c.01-.1,.04-.16,.04-.21Zm.65,.37c.03,.14,.12,.44,.3,.74-.65-.09-.96-.28-1.09-.45-.1-.12-.13-.23-.13-.29h.93Zm1.28,1.5h0Zm-.03-.04h0s.01,0,.01,0c0,0,0,0-.01,0Zm1.48-3.03c.1,0,.19,.03,.23,.1,.07,.06,.1,.15,.1,.23s-.04,.18-.1,.23c-.06,.07-.15,.1-.23,.1-.19,0-.34-.15-.34-.34s.15-.34,.34-.34Zm-.33-1.79c.16,.29,.51,.98,.5,1.42-.43-.22-.5-.88-.5-1.42Zm10.04-13.42h-.06v.07s.01,.32-.35,.44c-.07,.01-.12,.01-.16,0-.06-.03-.09-.15-.12-.23-.03-.12-.06-.22-.16-.22-.07,0-.25-.26-.31-.35-.03-.04-.04-.07-.06-.09-.01-.04,.04-.19,.07-.28,.03-.07,.05-.12,.06-.17,.09,.08,.28,.24,.51,.18,.19-.04,.51,.16,.62,.25h.01c.16,.07,.26,.09,.34,.09,.03,0,.03,0,.05,0-.14,.25-.43,.32-.44,.32Zm-3.89-3.24v.02s.01,.01,.01,.01c-.01,0-.04-.01-.06-.03,0,0,0,0,0,0-.07-.06-.17-.18-.2-.45,0-.1,.01-.18,.06-.23,.09-.1,.29-.1,.44-.1,.12,0,.18,0,.22-.04,.01-.01,.03-.03,.03-.06,0-.07,.15-.37,.22-.5,.06,.06,.16,.16,.37,.19,.18,.03,.28-.1,.38-.23,.1-.12,.19-.25,.38-.28,.37-.06,.6,.47,.6,.47v.04s.07-.01,.07-.01c.01,0,.67-.1,1.25,.38,.54,.45,.82,1.28,.82,2.45v.02c-.07-.11-.16-.19-.21-.19v.09l-.03,.04s.15,.1,.16,.23c.01,.1-.06,.22-.21,.32l.09,.12c.28-.21,.29-.4,.25-.53,0-.03-.03-.04-.04-.06h.01c.23,.15,.35,.28,.35,.42s-.15,.22-.15,.22c-.01,0-.32,.1-.44,.53,0,0,0,.01-.01,.02l-.08-.05s.01-.01,.01-.01c-.04,.01-.19-.01-.32-.06-.07-.06-.45-.34-.72-.26-.21,.06-.41-.19-.41-.19l-.04,.04s0,0,0,0c-.03-.09-.1-.18-.19-.26-.03-.04-.07-.07-.1-.12-.01-.01,.07-.15,.1-.19,.07-.1,.13-.18,.12-.26-.01-.13-.15-.16-.35-.21-.06-.01-.13-.03-.22-.06-.03,0-.06-.03-.07-.06-.09-.18,.06-.63,.12-.79l.04-.1-.12,.07h0s-.02,0-.05-.01c-.05-.02-.15-.08-.29-.26-.09-.13-.23-.24-.44-.25,0,0-.02,0-.02,0-.13,0-.28,.02-.46,.14-.26,.15-.75,.09-.75,.09h-.13Z"/>
  <path class="cls-3" d="M78.16,47.58c-.2-.33-.27-.47-.28-.54-.27-.04-.56-.37-.69-.54-.19,.21-.79,.72-1.79,.1-.21,.31-.47,.5-.79,.57-.75,.16-1.58-.32-1.77-.45-.15,.1-.65,.45-1.17,.38-.08,0-.15-.05-.22-.07,0,.3,.12,3.65,.32,6.03h-.13c-.21-2.46-.32-6.01-.32-6.06h.04c-.15-.07-.29-.17-.41-.31-.5,.52-1.02,.77-1.23,.85l.03,4.33h-.01c-.15,.28-.53,1-.53,1.22,0,.15,.06,.26,.12,.38,.04,.09,.09,.18,.09,.26,.01,.12-.06,.37-.12,.6-.04,.13-.09,.29-.09,.34,0,.1,.12,.34,.41,.4,.12,.03,.3,0,.49-.06,.31-.12,.94-.34,.94-.34,.02,0,.03,0,.05,.02,.18-.04,.39-.09,.66-.14,.23-.04,.44,.04,.62,.16l.04-.03,.04,.04c.07,.07,.12,.13,.16,.18,.08,.07,.15,.15,.21,.22,.07,.09,.19,.19,.22,.21,.15,0,.6-.32,.63-.51,.01-.06-.08-.12-.16-.19-.13,.24-.26,.36-.41,.36h-.03c-.23-.03-.35-.43-.41-.63,0-.03-.01-.04-.01-.06s-.01-.06-.01-.1c-.03-.18-.09-.54-.34-.65-.21-.09-.5,.01-.88,.29-.5,.35-.89,.48-1.22,.37-.34-.12-.43-.47-.43-.48l.13-.03s.07,.29,.34,.38c.26,.09,.63-.03,1.09-.35,.43-.31,.76-.41,1.01-.31,.32,.13,.4,.56,.43,.76,0,.03,.01,.06,.01,.07s.01,.03,.01,.06c.03,.13,.15,.5,.29,.53,.07,.01,.19-.09,.31-.29h.02c-.09-.05-.17-.09-.17-.16,0-.03,.01-.06,.06-.09,.01-.09,.06-.09,.09-.09,.25,0,.69,.26,.75,.38,.01,.03,.03,.06,.01,.09-.01,.04-.04,.06-.07,.07-.06,.03-.13,.06,0,.38,.06,.15,.19,.23,.41,.28,.41,.09,.91-.06,.95-.1,.01-.03-.06-.19-.09-.26-.07-.16-.12-.26-.04-.34,.07-.07,.18,.01,.31,.12,.1,.09,.25,.22,.35,.22,.13,.01,.41-.31,.56-.54l.03-.03h.04c.38,.03,1.39,.09,1.54,.07,.12-.01,.1-.25,.1-.25v-.07h-.01c-.03-.25-.12-.82-.53-1-.37-.15-.88,.06-1.54,.6-.47,.38-.85,.57-1.13,.57-.09,0-.18-.01-.25-.06-.44-.23-.37-1.09-.37-1.13h.13s-.07,.81,.29,1c.25,.13,.67-.04,1.22-.5,.7-.59,1.28-.79,1.69-.62,.47,.19,.59,.84,.62,1.11h-.07s.29,.06,.29,.06c.43,.01,.92-.04,.97-.16,.04-.12-.15-.73-.28-1.11-.16-.5-.19-.6-.12-.65,.06-.09,.16-.67,.18-1.01,.01-.18-.25-1.06-.45-1.77-.18-.57-.32-1.07-.32-1.2-.01-.13-.22-.5-.4-.78Zm-7.16,5.97l-.1-.09c.09-.12,.19-1.5,.23-2.45h.13c-.01,.56-.12,2.36-.26,2.54Zm7.25-.6c-1.35-1.2-2.24-5.32-2.27-5.5l.13-.03s.92,4.24,2.23,5.43l-.09,.1Z"/>
  <polygon class="cls-3" points="75.54 55.37 75.53 55.38 75.54 55.37 75.54 55.37"/>
  <path class="cls-3" d="M71.23,30.79h.03v.06s.09,.69,.09,1.17-.18,2.26-.19,2.33c-.43,1.47-1.04,3.68-1.04,3.84,.01,.03,.15,0,.28-.06l.08-.04-.02-.05c.07-.03,.34-.25,.48-.38l.09,.1s-.4,.37-.53,.41h0s0,.03,0,.03c-.01,.06-.31,1.5-.43,1.91-.1,.37-.88,6.86-.85,7.16,.01,.19,.28,.23,.39,.23l-.02-.07s.72-.23,1.33-.91l.06-.06,.04,.07c.19,.25,.41,.4,.67,.43,.56,.06,1.1-.38,1.1-.38l.04-.03,.04,.03s.94,.63,1.72,.45c.31-.07,.56-.26,.75-.57l.04-.06,.06,.04c1.13,.75,1.69-.06,1.72-.1l.06-.09,.06,.09c.16,.25,.48,.62,.69,.57v.04s.02-.01,.03,0c.07,.01,.13-.09,.15-.12-.12-.48-1.55-6.75-1.57-6.98-.01-.19-.22-.32-.22-.32h-.03s0-.13,0-.13c-.04,.19-.08,.32-.12,.37,0,.04,.06,.15,.1,.21,.07,.13,.15,.25,.12,.32-.03,.12-.62,.73-.95,.73h-.06c-.29-.07-.76-.41-.79-.76-.01-.28,.01-1.32,.25-1.6,.12-.15,.6-1.22,1.33-2.92l.03-.06s.03-.09,.07-.16c.03-.07,.06-.13,.09-.2,0-.18-.03-.87-.07-1.12-.03-.18,.04-.4,.12-.6,.06-.16,.12-.32,.12-.45,0-.16-.06-.32-.12-.45-.04-.12-.09-.21-.09-.29,0-.1,.06-.18,.13-.25,.07-.09,.15-.18,.18-.32,0,0,0-.02,0-.03,0,0,0-.01-.01-.02h-.01v-.03c-.17-.51-.27-.96-.33-1.37-.02-.08-.04-.16-.05-.23,0-.05,0-.1,0-.15,0-.02,0-.04,0-.06,0-.12,0-.24,.02-.37,.02-.32,.08-.61,.2-.85,.23-.45,.66-.78,1.26-.95h.01s.02,0,.04,.01c0-.02,.02-.04,.02-.07,.03-.26-.59-1.06-1.61-2.05h-.03c-.04-.06-.37-.07-.65-.06-.13,.1-.84,.63-1.48,.76-.62,.13-.94-.47-1.03-.66-.76,.16-1.25,.97-1.25,.98l-.45,1.29c-.04,.12-.16,.23-.31,.4-.32,.34-.76,.79-.7,1.44,.01,.57,.92,.97,.94,.97Zm4.85,10c.16,1.33,.66,4.87,.94,5.22l-.1,.07c-.35-.45-.94-5.09-.97-5.28h.13Zm-1.16,.59c.1,1.17,.41,4.3,.57,4.59l-.12,.07c-.21-.37-.56-4.21-.59-4.65h.13Zm-1.67-11.04h.13s.07,1.53,2.27,2.99l-.07,.1c-2.26-1.51-2.33-3.04-2.33-3.09Zm1.06,3.33l-.07,.12c-.91-.62-.89-1.95-.89-2.01h.13s-.01,1.32,.84,1.89Zm-1.28-3.46c-.07,.22-.7,2.05-1.26,2.26l-.04-.13c.41-.16,.98-1.61,1.17-2.17l.13,.04Zm-.22,1.45c0,.06-.01,1.47-.21,1.98l-.13-.04c.18-.5,.21-1.92,.21-1.94h.13Zm-.82-.97c-.07,.01-.16,.03-.22,.03-.13,0-.21-.04-.22-.04l.06-.12s.56,.25,1.07-.82l.13,.06c-.23,.48-.51,.79-.82,.89Zm-.38,5.24c.01-.06,.04-.1,.06-.15,.13-.38,.16-1.48,.16-1.48h.13s-.03,1.13-.16,1.53c-.01,.04-.03,.09-.06,.15-.15,.38-.35,.97-.31,1.47h-.15c-.04-.51,.18-1.11,.32-1.51Zm-.12,2.25c0,.09-.5,3.2-.28,3.76l-.13,.06c-.23-.61,.24-3.63,.28-3.83-.06,0-.11,0-.14,0-.18,.83-.92,4.41-.68,6.63h-.13c-.28-2.52,.72-6.79,.72-6.83l.13,.03s0,.02-.01,.05c.29,.02,1.38,.1,1.87,.14v.12c-.46-.03-1.21-.08-1.63-.11Zm1.51,8.03h-.13c.13-1.2,.23-6.64,.23-6.7h.13c0,.06-.1,5.51-.23,6.7Zm1.51-7.95c-.66,0-1.11-.23-1.14-.25l.06-.12s.53,.26,1.25,.22v.13c-.06,.01-.12,.01-.16,.01Zm.6-.89h-.13c.04-.51,.01-1.1-.09-1.16-.22-.13-.25-1.07-.25-1.36h.13c0,.56,.07,1.19,.18,1.25,.25,.13,.19,1.01,.16,1.28Zm-.47-3.27c-.09-.04-.18-.07-.26-.1-.13-.03-.23,.06-.41,.21-.16,.15-.35,.32-.63,.35-.03,.01-.04,.01-.07,.01-.51,0-.95-.54-.97-.56l.1-.09s.44,.56,.91,.51c.23-.01,.4-.18,.56-.32,.16-.15,.32-.29,.54-.23,.1,.03,.19,.06,.29,.1,.26,.1,.59,.25,1.17,.19v.13c-.6,.06-.95-.09-1.23-.21Zm1.64-3.58s-.35,.22-.69,.34c-.12,.01-.28,.06-.5,.06-.31,0-.7-.07-1.17-.34-.63-.35-.47-1.19-.41-1.44,.07-.25,.1-.25,.13-.25v.07l.06,.04s-.21,.54-.09,.98c.06,.22,.18,.38,.37,.48,.76,.43,1.31,.34,1.57,.25,.31-.12,.66-.32,.66-.32l.07,.12Zm.81-3.29l.09,.1c-.28,.22-.95,.89-.84,1.29l-.13,.04c-.18-.57,.84-1.41,.88-1.44Zm-.53-.48c-.48,.54-.51,.54-.54,.54v-.07l-.03-.06s.26-.28,.47-.5l.1,.09Zm-.56-.32l.07,.12c-.79,.5-2.02,1.42-1.99,1.73h-.13c-.04-.48,1.7-1.63,2.05-1.85Zm-3.75-.1l.12,.06c-.12,.23-.28,.65-.23,.78,.01,.06,.09,.19,.16,.34,.19,.34,.44,.82,.48,1.16,.07,.51,.01,.87,.01,.88l-.13-.03s.07-.34,0-.81c-.04-.32-.29-.78-.47-1.11-.09-.16-.15-.29-.18-.37-.07-.22,.18-.78,.23-.89Zm-.43,1.2c.04,.29,.13,.76,.21,.84,.15,.15,.53,.78,.57,1.06l-.12,.03c-.04-.23-.4-.85-.54-.98-.15-.15-.23-.79-.25-.92h.13Z"/>
  <path class="cls-10" d="M72.57,55.08c-.04-.06-.12-.13-.18-.21-.16,.12-.6,.44-.79,.48s-.38-.23-.54-.5c-.01-.01-.01-.03-.03-.04-.15,.04-.72,.25-.94,.34,.12,.1,.41,.34,.67,.54l.13,.1h-.18s-.51,.06-.82,.15c-.06,.01-.1,.04-.1,.1-.01,.06,.01,.15,.07,.21,.03,.03,.1,.09,.21,.06,.28-.07,2.1-1.03,2.49-1.23Z"/>
  <path class="cls-4" d="M75.95,55.78s.06,.1,.09,.15c.16,.28,.25,.41,.56,.23,.09-.04,.13-.1,.13-.18,.01-.18-.22-.38-.35-.48l-.43,.28Z"/>
  <path class="cls-4" d="M77.14,55.65s.03-.03,.03-.06c-.01-.13-.22-.32-.38-.44l-.22,.25,.22,.26s.19,.13,.35-.01Z"/>
  <path class="cls-4" d="M77.71,27.89c-.54,.18-.91,.45-1.11,.87-.35,.66-.29,1.61,.15,2.92,.34,.32,.65,1.13,.63,1.5-.01,.28-.56,1.5-.95,2.39-.04,.09-.06,.15-.07,.16l-.03,.06c-.53,1.23-1.19,2.76-1.35,2.95-.14,.17-.21,.78-.22,1.2,.06,0,.18,.02,.28,.12,.1,.09,.16,.22,.19,.4,.32-.72,.8-.78,.88-.79,0-.02,.01-.03,.03-.05,.04-.07,.18-.82,.28-1.51v-.03s.85-1.51,.98-1.89c.07-.22,.44-.75,.79-1.26,.29-.43,.6-.88,.65-1.03,.1-.29-.18-2.49-.28-3.2-.09-.51-.7-2.46-.84-2.8Z"/>
  <path class="cls-4" d="M75.23,40.76s0,.01,0,.02c.07,.04,.14,.07,.21,.08,.23,.06,.84-.56,.87-.67,0-.03-.07-.15-.1-.22-.04-.07-.07-.13-.1-.19-.06,0-.59,.07-.87,.98Z"/>
  <path class="cls-4" d="M75.11,40.7c0-.25-.06-.46-.17-.56-.09-.09-.17-.09-.2-.09,0,.07,0,.13,0,.17,0,.16,.18,.34,.36,.47Z"/>
  <path class="cls-6" d="M75.91,24.89s-.02,.02-.03,.03c.01-.01,.02-.02,.03-.03Z"/>
  <path class="cls-6" d="M76.48,24.17s-.02,0-.05,0c-.07,0-.18-.01-.34-.07h-.01c-.1-.1-.43-.31-.62-.26-.22,.06-.42-.1-.51-.18-.01,.05-.03,.1-.06,.17-.03,.09-.09,.23-.07,.28,.01,.01,.03,.04,.06,.09,.06,.09,.23,.35,.31,.35,.1,0,.13,.1,.16,.22,.03,.09,.06,.21,.12,.23,.04,.01,.09,.01,.16,0,.37-.12,.35-.44,.35-.44v-.06h.06s.31-.08,.44-.33Z"/>
  <path class="cls-6" d="M76.09,24.53s.04-.02,.08-.03c-.03,0-.06,.02-.08,.03,0,0,0,0,0,0Z"/>
  <path class="cls-6" d="M76.3,24.44s-.03,.02-.04,.02c.01,0,.02-.01,.04-.02Z"/>
  <path class="cls-6" d="M73.03,21.17c.19-.11,.33-.14,.46-.14,0,0,.02,0,.02,0,.2,.01,.35,.12,.44,.25,.13,.18,.23,.24,.29,.26,.03,0,.04,.01,.05,.01l.12-.07-.04,.1c-.06,.16-.21,.62-.12,.79,.01,.03,.04,.06,.07,.06,.09,.03,.16,.04,.22,.06,.21,.04,.34,.07,.35,.21,.01,.09-.04,.16-.12,.26-.03,.04-.12,.18-.1,.19,.03,.04,.07,.07,.1,.12,.09,.09,.16,.18,.19,.26,0,0,0,0,0,0l.04-.04s.21,.25,.41,.19c.26-.07,.65,.21,.72,.26,.13,.04,.28,.07,.32,.06,0,0-.01,0-.01,.01l.08,.05s0-.01,.01-.02c.12-.43,.43-.53,.44-.53,0,0,.15-.09,.15-.22s-.12-.26-.35-.41h-.01s.03,.03,.04,.06c.04,.13,.03,.32-.25,.53l-.09-.12c.15-.1,.22-.22,.21-.32-.01-.13-.15-.22-.16-.23l.03-.04v-.09s.14,.08,.21,.19v-.02c0-1.17-.28-1.99-.82-2.45-.57-.48-1.23-.38-1.25-.38h-.06s-.01-.03-.01-.03c0,0-.23-.53-.6-.47-.19,.03-.28,.16-.38,.28-.1,.13-.21,.26-.38,.23-.21-.03-.31-.13-.37-.19-.07,.13-.22,.43-.22,.5,0,.03-.01,.04-.03,.06-.04,.04-.1,.04-.22,.04-.15,0-.35,0-.44,.1-.04,.06-.06,.13-.06,.23,.03,.27,.12,.39,.2,.45,.02,.01,.04,.02,.06,.03v-.02s.12,.01,.12,.01c0,0,.48,.06,.75-.09Zm1.41-.73h.13s-.06,.43,.18,.67c.15,.16,.38,.22,.69,.19h.1s-.03,.07-.03,.07c-.12,.5,.22,.66,.23,.66l-.06,.16s-.43-.19-.34-.73c-.31,.01-.54-.07-.7-.25-.28-.29-.21-.75-.21-.78Z"/>
  <path d="M73.95,28.3h.13c-.03-.31,1.2-1.23,1.99-1.73l-.07-.12c-.35,.22-2.1,1.36-2.05,1.85Z"/>
  <path d="M76.02,27.24v.07s.06,0,.54-.54l-.1-.09c-.21,.22-.44,.47-.47,.5l.03,.06Z"/>
  <path d="M76.21,28.69l.13-.04c-.12-.4,.56-1.07,.84-1.29l-.09-.1s-1.06,.87-.88,1.44Z"/>
  <path d="M72.19,27.61c.18,.34,.43,.79,.47,1.11,.07,.47,0,.81,0,.81l.13,.03s.06-.37-.01-.88c-.04-.34-.29-.82-.48-1.16-.07-.15-.15-.28-.16-.34-.04-.13,.12-.54,.23-.78l-.12-.06c-.06,.12-.31,.67-.23,.89,.03,.07,.09,.21,.18,.37Z"/>
  <path d="M71.94,28.49c.15,.13,.5,.75,.54,.98l.12-.03c-.04-.28-.43-.91-.57-1.06-.07-.07-.16-.54-.21-.84h-.13c.01,.15,.1,.79,.25,.94Z"/>
  <path d="M71.61,30.58l-.06,.12s.09,.04,.22,.04c.06,0,.15-.01,.22-.03,.31-.1,.59-.41,.82-.89l-.13-.06c-.51,1.07-1.04,.84-1.07,.82Z"/>
  <path d="M75.55,30.75c-.26,.09-.81,.18-1.57-.25-.19-.1-.31-.26-.37-.48-.12-.44,.06-.94,.09-.98l-.06-.04v-.07s-.06,0-.13,.25c-.06,.25-.22,1.09,.41,1.44,.47,.26,.87,.34,1.17,.34,.22,0,.38-.04,.5-.06,.34-.12,.67-.32,.69-.34l-.07-.12s-.35,.21-.66,.32Z"/>
  <path d="M75.65,33.36c-2.2-1.47-2.27-2.98-2.27-2.99h-.13c0,.06,.07,1.58,2.33,3.09l.07-.1Z"/>
  <path d="M73.47,31.8h-.13c0,.06-.01,1.39,.89,2.01l.07-.12c-.85-.57-.84-1.88-.84-1.89Z"/>
  <path d="M71.72,32.36l.04,.13c.56-.21,1.19-2.04,1.26-2.26l-.13-.04c-.19,.56-.76,2.01-1.17,2.17Z"/>
  <path d="M72.6,33.66c.19-.51,.21-1.92,.21-1.98h-.13s-.03,1.44-.21,1.94l.13,.04Z"/>
  <path d="M74.7,34c-.1-.04-.19-.07-.29-.1-.22-.06-.38,.09-.54,.23-.16,.15-.32,.31-.56,.32-.47,.04-.91-.51-.91-.51l-.1,.09s.45,.56,.97,.56c.03,0,.04,0,.07-.01,.28-.03,.47-.21,.63-.35,.18-.15,.28-.23,.41-.21,.09,.03,.18,.06,.26,.1,.28,.12,.63,.26,1.25,.21v-.13c-.6,.06-.92-.09-1.19-.19Z"/>
  <path d="M74.77,34.87h-.13c0,.29,.03,1.23,.25,1.36,.1,.06,.13,.65,.09,1.14h.13c.03-.25,.09-1.13-.16-1.26-.1-.06-.18-.69-.18-1.25Z"/>
  <path d="M71.74,36c.03-.06,.04-.1,.06-.15,.13-.4,.16-1.48,.16-1.53h-.13s-.03,1.1-.16,1.48c-.01,.04-.04,.09-.06,.15-.15,.4-.37,1-.32,1.53h.15c-.04-.51,.16-1.1,.31-1.48Z"/>
  <path d="M73.12,38.2c-.5-.04-1.58-.12-1.87-.14,0-.03,.01-.05,.01-.05l-.13-.03s-1,4.31-.72,6.85h.13c-.25-2.23,.49-5.82,.68-6.64,.03,0,.08,0,.14,0-.04,.2-.51,3.22-.28,3.83l.13-.06c-.22-.57,.27-3.68,.28-3.76,.42,.03,1.17,.08,1.63,.11v-.12Z"/>
  <path d="M73.43,37.92l-.06,.12s.48,.25,1.14,.25c.04,0,.1,0,.18-.01v-.13c-.73,.04-1.26-.22-1.26-.22Z"/>
  <path d="M72.87,46.22h.13c.13-1.17,.23-6.63,.23-6.69h-.13c0,.06-.1,5.5-.23,6.69Z"/>
  <path d="M77.02,46.01c-.28-.35-.78-3.89-.94-5.22h-.13c.03,.21,.62,4.84,.97,5.29l.1-.07Z"/>
  <path d="M75.49,45.98c-.16-.29-.47-3.42-.57-4.59h-.13c.03,.45,.38,4.3,.59,4.66l.12-.07Z"/>
  <path d="M75.98,47.45c.03,.18,.92,4.3,2.27,5.5l.09-.1c-1.31-1.19-2.21-5.38-2.23-5.43l-.13,.03Z"/>
  <path d="M70.9,53.46l.1,.09c.15-.18,.25-1.98,.26-2.54h-.13c-.04,.95-.15,2.33-.23,2.45Z"/>
  <path d="M74.64,21.21c.16,.18,.4,.26,.7,.25-.09,.54,.34,.73,.34,.73l.06-.16s-.35-.16-.23-.66l.03-.09h-.1c-.31,.04-.54-.01-.69-.18-.23-.25-.18-.66-.18-.66h-.13s-.07,.47,.21,.76Z"/>
  <line class="cls-11" x1="73.53" y1="24.45" x2="73.56" y2="24.39"/>
  <path d="M72.79,22.17s-.06,.01-.07,.01c-.06,0-.1,.03-.12,.07-.01,.04,0,.1,.03,.13,.07,.06,.18,.09,.28,.09s.21-.01,.25-.06c.06-.06,.07-.13,.03-.21-.07-.12-.25-.07-.4-.04Z"/>
  <path class="cls-10" d="M52.17,59.48c.38,.12,1.04,.38,1.33,.89,.09,.16,.14,.32,.15,.49l.4-.44c-.25-.25-.84-.83-1.36-1.34l-.53,.39Z"/>
  <path class="cls-10" d="M78.37,66.52c-.04,.19,0,.5,.25,.5,.03,0,.06,0,.09,0,.14-.36,.28-.72,.4-1.1-.23,.07-.46,.14-.7,.21-.01,.13-.03,.26-.04,.4Z"/>
  <path class="cls-10" d="M61.31,59.3c-2.96-2.13-4.94-4.33-5.07-4.47-.09-.07-1.19-1.01-1.76-.5-.35,1.12-2.64,2.99-3.23,3.47,.28-.02,.61,.02,.8,.23,.29,.32,2.32,2.32,2.33,2.33l-.03,.03c.36,.34,8.73,8.11,18.76,8.11h.15c1.75,.06,3.47-.16,5.1-.56,.11-.26,.21-.52,.31-.79-.26,.08-.53,.16-.79,.24-.09,.09-.16-.06-.07-.09,.23-.12,.29-.4,.34-.65,.16-1.09,.29-2.19,.44-3.29,.03-.06-.01-.18,.07-.18,.3,.35,.59,.7,.89,1.05,.16-.72,.28-1.46,.36-2.21-1.99,.72-4.3,1.26-6.85,1.34-4.58,.28-8.9-2.07-11.73-4.08Zm-3.92,2.8c-.09-.03-.07-.1-.04-.18,.23-1.13,.48-2.24,.72-3.37,.04-.19,.1-.44-.09-.59-.09-.06,.04-.16,.1-.06,.45,.32,.92,.66,1.38,.98-.04,.13-.12,.04-.21-.01-.19-.19-.43-.01-.41,.22-.16,.75-.32,1.48-.48,2.23,.62-.37,1.23-.72,1.83-1.09,.22-.1,.38-.38,.15-.57-.09-.04-.22-.19-.09-.21,.31,.22,.63,.45,.97,.69-.06,.16-.19,0-.31,.03-.31,.01-.56,.21-.82,.35-.89,.53-1.8,1.06-2.7,1.57Zm6.41-.43c-.15-.1-.38-.13-.5,.03-.22,.35-.4,.7-.6,1.07-.26,.5-.56,1-.82,1.5-.13,.18,.01,.4,.19,.48,.04,.04,.07,.06,.12,.09-.03,.09-.07,.1-.13,.04-.54-.29-1.09-.59-1.63-.89,.03-.09,.07-.1,.13-.04,.15,.1,.38,.13,.5-.04,.22-.35,.4-.7,.6-1.07,.26-.5,.56-1,.82-1.5,.13-.18-.01-.4-.19-.48-.06-.03-.15-.06-.07-.13,.03-.04,.12,.04,.16,.06,.51,.28,1.04,.57,1.55,.85-.03,.09-.07,.1-.13,.04Zm4.08,2.57c-.06-.56-.47-1.07-1.04-1.2-.43-.12-.88,.1-1.13,.45-.38,.51-.62,1.16-.65,1.79-.01,.37,.15,.73,.47,.94,.25,.16,.56,.23,.87,.22,.1-.31,.23-.62,.32-.94,.03-.21-.18-.34-.35-.38-.03-.06,.04-.13,.1-.07,.54,.19,1.09,.38,1.61,.57-.01,.21-.25-.01-.37,.06-.21,.07-.22,.32-.29,.48-.06,.19-.13,.37-.19,.56-.72,.04-1.47-.1-2.1-.47-.62-.38-1.03-1.13-.91-1.86,.09-.63,.48-1.22,1.06-1.5,.53-.28,1.17-.28,1.73-.06,.31,.1,.56,.29,.79,.5,.15,.19,.41,.19,.53-.03,.03,.04,.07,.06,.1,.07-.15,.41-.29,.82-.44,1.23-.18-.01-.06-.25-.12-.37Zm3.62-.13c-.16-.03-.38-.03-.45,.15-.07,.25-.09,.51-.13,.76-.1,.72-.22,1.42-.32,2.14-.04,.15,.01,.34,.18,.38,.1,.03,.21,.04,.29,.06,0,.06-.01,.13-.09,.09-.62-.09-1.23-.19-1.85-.28,0-.06,.01-.13,.09-.09,.16,.03,.38,.03,.45-.15,.07-.25,.09-.51,.13-.76,.1-.72,.22-1.42,.32-2.14,.04-.15-.01-.32-.18-.38-.09-.04-.19-.04-.29-.06,0-.06,.01-.13,.09-.09,.62,.09,1.23,.19,1.85,.28,0,.06-.01,.13-.09,.09Zm2.48,1.13c.04,.67,.06,1.36,.1,2.04-.01,.18,.13,.34,.31,.29,.26-.01,.54,0,.81-.07,.37-.1,.57-.47,.67-.81,.06-.09,.01-.32,.16-.31h.04c-.03,.44-.04,.88-.07,1.32-1.1,.06-2.2,.12-3.3,.18-.01-.07,0-.12,.09-.1,.16,0,.38-.07,.4-.26,.01-.32-.03-.66-.03-.98-.03-.65-.06-1.31-.1-1.95,.01-.19-.16-.34-.34-.34-.06-.03-.22,.06-.21-.04-.03-.09,.09-.04,.15-.06,.62-.03,1.23-.06,1.83-.09,.01,.07,0,.12-.09,.1-.18,0-.4,.04-.44,.23-.03,.28,.01,.57,.01,.85Z"/>
  <path class="cls-10" d="M50.86,58.09c-.33,.27-.88,.85-.8,1.61,.13,1.07,1.82,2.2,2.2,2.26,.23,.04,.73-.39,1.06-.74,.08-.27,.07-.5-.05-.72-.35-.62-1.42-.82-1.42-.84l-.31-.06,.96-.72c-.31-.31-.58-.58-.67-.69-.19-.22-.78-.13-.97-.07v-.04Z"/>
  <path class="cls-10" d="M78.47,65.92c.23-.07,.46-.14,.69-.21,.04-.14,.07-.29,.11-.43-.21-.25-.42-.5-.63-.75-.06,.47-.12,.92-.18,1.39Z"/>
  <path d="M72.28,63.14c-8.32,0-15.75-8.4-15.83-8.49h-.01c-.06-.06-1.41-1.25-2.17-.48l-.03,.03v.03c-.34,1.14-3.15,3.34-3.3,3.46-.1,.07-1.29,.84-1.14,2.04,.15,1.23,1.98,2.43,2.43,2.51,.45,.07,1.2-.7,1.35-.87l.66-.72c1.01,.92,9.18,8.13,18.88,8.13h.13c.19,.01,.4,.01,.59,.01,1.5,0,2.95-.21,4.36-.53,.05-.11,.11-.21,.15-.32-1.64,.39-3.35,.62-5.1,.56h-.15c-10.02,0-18.4-7.77-18.76-8.11l.03-.03s-2.04-2.01-2.33-2.33c-.19-.21-.52-.25-.8-.23,.59-.48,2.88-2.35,3.23-3.47,.57-.51,1.67,.43,1.76,.5,.13,.15,2.11,2.35,5.07,4.47,2.83,2.01,7.16,4.36,11.73,4.08,2.55-.07,4.86-.61,6.85-1.34,0-.1,0-.2,.01-.29-1.99,.74-4.31,1.3-6.88,1.36-.25,.01-.5,.03-.75,.03Zm-18.22-2.72l-.4,.44c0-.17-.05-.33-.15-.49-.29-.51-.95-.78-1.33-.89l.53-.39c.51,.51,1.1,1.09,1.36,1.34Zm-2.22-2.22c.09,.11,.36,.37,.67,.69l-.96,.72,.31,.06s1.07,.22,1.42,.84c.11,.22,.13,.45,.05,.72-.33,.35-.83,.78-1.06,.74-.38-.06-2.07-1.19-2.2-2.26-.08-.76,.47-1.34,.8-1.61v.04c.2-.06,.79-.15,.98,.07Z"/>
  <path d="M61.22,60.15c-.34-.23-.66-.47-.97-.69-.13,.01,0,.16,.09,.21,.23,.19,.07,.47-.15,.57-.6,.37-1.22,.72-1.83,1.09,.16-.75,.32-1.48,.48-2.23-.01-.23,.22-.41,.41-.22,.09,.06,.16,.15,.21,.01-.45-.32-.92-.66-1.38-.98-.06-.1-.19,0-.1,.06,.19,.15,.13,.4,.09,.59-.23,1.13-.48,2.24-.72,3.37-.03,.07-.04,.15,.04,.18,.89-.51,1.8-1.04,2.7-1.57,.26-.15,.51-.34,.82-.35,.12-.03,.25,.13,.31-.03Z"/>
  <path d="M62.22,60.72c-.07,.07,.01,.1,.07,.13,.18,.09,.32,.31,.19,.48-.26,.5-.56,1-.82,1.5-.21,.37-.38,.72-.6,1.07-.12,.18-.35,.15-.5,.04-.06-.06-.1-.04-.13,.04,.54,.31,1.09,.6,1.63,.89,.06,.06,.1,.04,.13-.04-.04-.03-.07-.04-.12-.09-.18-.09-.32-.31-.19-.48,.26-.5,.56-1,.82-1.5,.21-.37,.38-.72,.6-1.07,.12-.16,.35-.13,.5-.03,.06,.06,.1,.04,.13-.04-.51-.28-1.04-.57-1.55-.85-.04-.01-.13-.1-.16-.06Z"/>
  <path d="M68,64.61c.15-.41,.29-.82,.44-1.23-.03-.01-.07-.03-.1-.07-.12,.22-.38,.22-.53,.03-.23-.21-.48-.4-.79-.5-.56-.22-1.2-.22-1.73,.06-.57,.28-.97,.87-1.06,1.5-.12,.73,.29,1.48,.91,1.86,.63,.37,1.38,.51,2.1,.47,.06-.19,.13-.37,.19-.56,.07-.16,.09-.41,.29-.48,.12-.07,.35,.15,.37-.06-.53-.19-1.07-.38-1.61-.57-.06-.06-.13,.01-.1,.07,.18,.04,.38,.18,.35,.38-.09,.32-.22,.63-.32,.94-.31,.01-.62-.06-.87-.22-.32-.21-.48-.57-.47-.94,.03-.63,.26-1.28,.65-1.79,.25-.35,.7-.57,1.13-.45,.57,.13,.98,.65,1.04,1.2,.06,.12-.06,.35,.12,.37Z"/>
  <path d="M69.66,63.83c.1,.01,.21,.01,.29,.06,.16,.06,.22,.23,.18,.38-.1,.72-.22,1.42-.32,2.14-.04,.25-.06,.51-.13,.76-.07,.18-.29,.18-.45,.15-.07-.04-.09,.03-.09,.09,.62,.09,1.23,.19,1.85,.28,.07,.04,.09-.03,.09-.09-.09-.01-.19-.03-.29-.06-.16-.04-.22-.23-.18-.38,.1-.72,.22-1.42,.32-2.14,.04-.25,.06-.51,.13-.76,.07-.18,.29-.18,.45-.15,.07,.04,.09-.03,.09-.09-.62-.09-1.23-.19-1.85-.28-.07-.04-.09,.03-.09,.09Z"/>
  <path d="M74.41,64.16c.09,.01,.1-.03,.09-.1-.6,.03-1.22,.06-1.83,.09-.06,.01-.18-.03-.15,.06-.01,.1,.15,.01,.21,.04,.18,0,.35,.15,.34,.34,.04,.65,.07,1.31,.1,1.95,0,.32,.04,.66,.03,.98-.01,.19-.23,.26-.4,.26-.09-.01-.1,.03-.09,.1,1.1-.06,2.2-.12,3.3-.18,.03-.44,.04-.88,.07-1.32h-.04c-.15-.01-.1,.22-.16,.31-.1,.34-.31,.7-.67,.81-.26,.07-.54,.06-.81,.07-.18,.04-.32-.12-.31-.29-.04-.67-.06-1.36-.1-2.04,0-.28-.04-.57-.01-.85,.04-.19,.26-.23,.44-.23Z"/>
  <path d="M78.57,63.38c-.15,1.1-.28,2.2-.44,3.29-.04,.25-.1,.53-.34,.65-.09,.03-.01,.18,.07,.09,.26-.08,.53-.16,.79-.24,.02-.05,.04-.1,.05-.15-.03,0-.07,.01-.09,0-.25,0-.29-.31-.25-.5,.01-.13,.03-.26,.04-.4,.24-.07,.47-.14,.7-.21,.02-.07,.03-.14,.05-.2-.23,.07-.46,.14-.69,.21,.06-.47,.12-.92,.18-1.39,.21,.25,.42,.5,.63,.75,.09-.34,.19-.67,.26-1.02-.3-.35-.59-.7-.89-1.05-.09,0-.04,.12-.07,.18Z"/>
</svg>