<?xml version="1.0" encoding="UTF-8"?>
<svg id="Layer_1" data-name="Layer 1" xmlns="http://www.w3.org/2000/svg" viewBox="0 0 80 80">
  <defs>
    <style>
      .cls-1 {
        fill: #037b5f;
      }

      .cls-2 {
        fill: #cd2028;
      }

      .cls-3 {
        fill: #fbd015;
      }
    </style>
  </defs>
  <path class="cls-1" d="M18.13,.09C7.96,1.04,0,9.58,0,20V60c0,10.42,7.96,18.96,18.13,19.91V.09Z"/>
  <path class="cls-2" d="M20,80H60c.63,0,1.25-.04,1.86-.09V.09c-.61-.06-1.23-.09-1.86-.09H20c-.63,0-1.25,.04-1.87,.09V79.91c.62,.06,1.24,.09,1.87,.09Zm17.53-42.35l2.47-7.62,2.48,7.62h8l-6.48,4.7,2.47,7.62-6.48-4.71-6.48,4.71,2.47-7.62-6.47-4.7h8.01Z"/>
  <path class="cls-3" d="M80,60V20C80,9.58,72.03,1.04,61.86,.09V79.91c10.17-.94,18.14-9.49,18.14-19.91Z"/>
  <polygon class="cls-3" points="33.52 49.97 40 45.26 46.48 49.97 44.01 42.35 50.48 37.65 42.48 37.65 40 30.02 37.53 37.65 29.52 37.65 35.99 42.35 33.52 49.97"/>
</svg>