<?xml version="1.0" encoding="UTF-8"?>
<svg id="Layer_1" data-name="Layer 1" xmlns="http://www.w3.org/2000/svg" viewBox="0 0 80 80">
  <defs>
    <style>
      .cls-1 {
        fill: #fff;
      }

      .cls-2 {
        fill: #e21e38;
      }
    </style>
  </defs>
  <path class="cls-2" d="M0,20V60c0,6.18,2.8,11.7,7.2,15.37V4.63C2.8,8.3,0,13.82,0,20Z"/>
  <path class="cls-1" d="M60,0H20C15.13,0,10.67,1.74,7.2,4.63V75.37c3.47,2.89,7.93,4.63,12.8,4.63H60c4.87,0,9.33-1.74,12.8-4.64V4.64c-3.47-2.89-7.93-4.64-12.8-4.64Zm-6.91,52.65l1.1,3.77c-4.33-.52-8.21-.99-12.53-1.5l-.96,.82,.33,13.79h-2.08l.33-13.79-.96-.82c-4.32,.51-8.21,.98-12.53,1.5l1.1-3.77c.18-.66-.08-1.39-.57-1.79l-12.57-10.67,2.61-1.28c1.14-.43,.82-1.1,.41-2.72l-1.92-7.29,7.3,1.6c.71,.11,1.18-.36,1.29-.81l.94-3.43,5.77,6.75c.82,1.08,2.48,1.08,1.97-1.42l-2.46-13.68,3.31,1.79c.93,.54,1.86,.63,2.38-.34l4.64-8.9,4.64,8.9c.52,.97,1.45,.88,2.38,.34l3.31-1.79-2.47,13.68c-.52,2.51,1.15,2.51,1.97,1.42l5.77-6.75,.95,3.43c.11,.45,.58,.92,1.29,.81l7.29-1.6-1.91,7.29c-.41,1.62-.73,2.29,.41,2.72l2.6,1.28-12.56,10.67c-.49,.41-.75,1.13-.57,1.79Z"/>
  <path class="cls-2" d="M72.8,4.64V75.36c4.4-3.67,7.2-9.19,7.2-15.36V20c0-6.18-2.8-11.7-7.2-15.36Z"/>
  <path class="cls-2" d="M66.23,40.19l-2.6-1.28c-1.14-.43-.82-1.1-.41-2.72l1.91-7.29-7.29,1.6c-.71,.11-1.19-.36-1.29-.81l-.95-3.43-5.77,6.75c-.82,1.08-2.48,1.08-1.97-1.42l2.47-13.68-3.31,1.79c-.93,.54-1.86,.63-2.38-.34l-4.64-8.9-4.64,8.9c-.52,.97-1.45,.88-2.38,.34l-3.31-1.79,2.46,13.68c.52,2.51-1.14,2.51-1.97,1.42l-5.77-6.75-.94,3.43c-.11,.45-.58,.92-1.29,.81l-7.3-1.6,1.92,7.29c.41,1.62,.73,2.29-.41,2.72l-2.61,1.28,12.57,10.67c.49,.41,.75,1.13,.57,1.79l-1.1,3.77c4.32-.52,8.2-.99,12.53-1.5l.96,.82-.33,13.79h2.08l-.33-13.79,.96-.82c4.33,.51,8.21,.98,12.53,1.5l-1.1-3.77c-.18-.66,.08-1.39,.57-1.79l12.56-10.67Z"/>
</svg>