<?xml version="1.0" encoding="UTF-8"?>
<svg id="Layer_1" data-name="Layer 1" xmlns="http://www.w3.org/2000/svg" viewBox="0 0 80 80">
  <defs>
    <style>
      .cls-1 {
        fill: #fff;
      }

      .cls-2 {
        fill: #cd2028;
      }

      .cls-3 {
        fill: #fbd015;
      }

      .cls-4 {
        fill: #22408c;
      }
    </style>
  </defs>
  <path class="cls-4" d="M80,20c0-11.05-8.95-20-20-20H20C8.95,0,0,8.95,0,20v20.04H80V20ZM19.55,38.88l-2.27-1.65-2.26,1.65,.87-2.65-2.26-1.65h2.79l.87-2.65,.86,2.65h2.8l-2.27,1.65,.87,2.65Zm11.3-3.67l-2.26-1.64-2.27,1.64,.86-2.65-2.26-1.65h2.79l.87-2.65,.87,2.65h2.79l-2.26,1.65,.86,2.65Zm11.32,3.67l-2.26-1.65-2.26,1.65,.86-2.65-2.27-1.65h2.81l.86-2.65,.86,2.65h2.8l-2.26,1.65,.87,2.65Z"/>
  <path class="cls-4" d="M20,80H60c10.4,0,18.95-7.95,19.9-18.1H.1c.96,10.15,9.5,18.1,19.9,18.1Zm19.05-14.28l.86-2.66,.86,2.66h2.8l-2.26,1.64,.87,2.65-2.26-1.64-2.26,1.64,.86-2.65-2.27-1.64h2.81Zm-11.32,3.67l.87-2.65,.87,2.65h2.79l-2.26,1.65,.86,2.65-2.26-1.65-2.27,1.65,.86-2.65-2.26-1.65h2.79Zm-11.31-3.67l.87-2.66,.86,2.66h2.8l-2.27,1.64,.87,2.65-2.27-1.64-2.26,1.64,.87-2.65-2.26-1.64h2.79Z"/>
  <polygon class="cls-1" points="9.66 47.33 10.94 47.33 10.3 46.86 9.66 47.33"/>
  <polygon class="cls-1" points="46.26 47.33 47.54 47.33 46.9 46.86 46.26 47.33"/>
  <polygon class="cls-1" points="8.91 45.84 6.63 44.2 9.43 44.2 10.3 41.55 11.16 44.2 13.96 44.2 11.69 45.84 12.18 47.33 45.02 47.33 45.5 45.84 43.23 44.2 46.03 44.2 46.9 41.55 47.76 44.2 50.56 44.2 48.3 45.84 48.78 47.33 80 47.33 80 40.04 0 40.04 0 47.33 8.42 47.33 8.91 45.84"/>
  <polygon class="cls-2" points="10.3 53.43 10.68 54.61 46.51 54.61 46.9 53.43 47.28 54.61 80 54.61 80 47.33 48.78 47.33 49.16 48.5 47.54 47.33 46.26 47.33 44.64 48.5 45.02 47.33 12.18 47.33 12.56 48.5 10.94 47.33 9.66 47.33 8.04 48.5 8.42 47.33 0 47.33 0 54.61 9.92 54.61 10.3 53.43"/>
  <path class="cls-1" d="M80,60v-5.39H47.28l.48,1.47h2.8l-2.26,1.65,.87,2.66-2.26-1.65-2.26,1.65,.86-2.66-2.27-1.65h2.8l.48-1.47H10.68l.48,1.47h2.8l-2.26,1.65,.86,2.66-2.25-1.65-2.27,1.65,.87-2.66-2.27-1.65h2.8l.48-1.47H0v5.39c0,.64,.04,1.27,.1,1.9H79.9c.06-.63,.1-1.26,.1-1.9Z"/>
  <polygon class="cls-3" points="18.15 34.58 17.29 31.92 16.42 34.58 13.63 34.58 15.89 36.23 15.02 38.88 17.29 37.23 19.55 38.88 18.68 36.23 20.95 34.58 18.15 34.58"/>
  <polygon class="cls-3" points="13.96 44.2 11.16 44.2 10.3 41.55 9.43 44.2 6.63 44.2 8.91 45.84 8.42 47.33 8.04 48.5 9.66 47.33 10.3 46.86 10.94 47.33 12.56 48.5 12.18 47.33 11.69 45.84 13.96 44.2"/>
  <polygon class="cls-3" points="9.92 54.61 9.43 56.09 6.63 56.09 8.91 57.74 8.04 60.4 10.3 58.75 12.56 60.4 11.69 57.74 13.96 56.09 11.16 56.09 10.68 54.61 10.3 53.43 9.92 54.61"/>
  <polygon class="cls-3" points="15.02 70.01 17.29 68.37 19.55 70.01 18.68 67.36 20.95 65.72 18.15 65.72 17.29 63.05 16.42 65.72 13.63 65.72 15.89 67.36 15.02 70.01"/>
  <polygon class="cls-3" points="29.46 30.9 28.6 28.25 27.73 30.9 24.94 30.9 27.19 32.55 26.33 35.21 28.6 33.56 30.85 35.21 29.99 32.55 32.26 30.9 29.46 30.9"/>
  <polygon class="cls-3" points="26.33 73.69 28.6 72.04 30.85 73.69 29.99 71.03 32.26 69.38 29.46 69.38 28.6 66.73 27.73 69.38 24.94 69.38 27.19 71.03 26.33 73.69"/>
  <polygon class="cls-3" points="37.65 70.01 39.9 68.37 42.17 70.01 41.3 67.36 43.56 65.72 40.77 65.72 39.9 63.05 39.05 65.72 36.24 65.72 38.51 67.36 37.65 70.01"/>
  <polygon class="cls-3" points="50.56 44.2 47.76 44.2 46.9 41.55 46.03 44.2 43.23 44.2 45.5 45.84 45.02 47.33 44.64 48.5 46.26 47.33 46.9 46.86 47.54 47.33 49.16 48.5 48.78 47.33 48.3 45.84 50.56 44.2"/>
  <polygon class="cls-3" points="46.51 54.61 46.03 56.09 43.23 56.09 45.5 57.74 44.64 60.4 46.9 58.75 49.16 60.4 48.3 57.74 50.56 56.09 47.76 56.09 47.28 54.61 46.9 53.43 46.51 54.61"/>
  <polygon class="cls-3" points="40.77 34.58 39.9 31.92 39.05 34.58 36.24 34.58 38.51 36.23 37.65 38.88 39.9 37.23 42.17 38.88 41.3 36.23 43.56 34.58 40.77 34.58"/>
</svg>