<?xml version="1.0" encoding="UTF-8"?>
<svg id="Layer_1" data-name="Layer 1" xmlns="http://www.w3.org/2000/svg" viewBox="0 0 80 80">
  <defs>
    <style>
      .cls-1 {
        fill: #00247d;
      }

      .cls-2 {
        fill: #fff;
      }

      .cls-3 {
        fill: #073163;
      }

      .cls-4 {
        fill: #024919;
      }

      .cls-5 {
        fill: #059334;
      }

      .cls-6 {
        fill: #f9d050;
      }

      .cls-7 {
        fill: #fcea83;
      }

      .cls-8 {
        fill: #0b50a0;
      }

      .cls-9 {
        fill: #00493d;
      }

      .cls-10 {
        fill: #cf142b;
      }

      .cls-11 {
        fill: #db161c;
      }
    </style>
  </defs>
  <path class="cls-1" d="M64.82,58.01c-.36,.68-.73,1.29-1.12,1.84,.58,.47,1.18,.89,1.81,1.26,2.1,1.25,4.46,1.94,7.16,2.11-2.71-1.23-5.59-2.83-7.85-5.22Z"/>
  <path class="cls-1" d="M10.5,10.67H30s0,2.93,0,2.93v11.73H10.51l19.49,9.75v4.92h-9.84L0,29.92v30.08c0,11.05,8.95,20,20,20H60c8.09,0,15.05-4.82,18.19-11.73-1.44,.28-2.86,.42-4.18,.42-4.49,0-9.97-1.48-14.43-5.26-1.11,.54-2.28,.83-3.41,.83-.76,0-1.48-.13-2.17-.38-.94-.35-1.64-.92-1.94-1.53,0,0,0,0,0,0-.66-.98-1.17-3.09-1.5-4.71-.38-1.17-.06-1.95,.94-2.32,1.01-.37,2.07,.4,2.71,1.94,.08,.18,.17,.4,.27,.62,.27,.22,.53,.39,.78,.51-.29-.47-.57-.95-.84-1.46-1.09-2.07,.29-3.2,1.2-3.68,.01-.01,.04-.01,.06-.03,.82-.35,1.94-1.2,2.49-1.77l.02-.02c.07-.08,.12-.15,.2-.23,.82-.82,1.67-1.08,2.38-.99-.44-1.9-.67-4-.67-6.33v-13.71c0-.4,.31-.7,.7-.7h4.5c-.12-.3-.18-.64-.14-.98,.06-.57,.37-1.09,.81-1.36,.14-.09,.28-.18,.43-.26-.1-.07-.19-.13-.25-.18-.01-.01-.03-.03-.04-.04-.62-.57-.75-1.2-.73-1.63,.01-.53,.23-1.07,.6-1.45-.03-.07-.04-.15-.06-.21-.15-.12-.4-.18-.7-.18-.54,.04-1.16-.19-1.64-.63-.13-.12-.32-.32-.45-.57-.1,.01-.21,0-.31-.04-.22-.09-.4-.28-.44-.51-.1-.54,0-1.04,.29-1.39,.23-.28,.56-.45,.91-.48,.09-.01,.16-.04,.23-.04,.03,0,.07-.02,.11-.03,.03-.02,.05-.06,.08-.08l.03,.04c.36-.29,.85-.44,1.43-.41,.76,.04,1.51,.41,1.91,.92,.07,.1,.17,.16,.29,.21,.21-.1,.48-.18,.78-.21-.93-.73-1.9-1.44-2.41-1.75-.28-.18-.41-.51-.31-.84,.06-.19,.21-.33,.39-.41-.04-.02-.09-.05-.13-.08-.29-.16-.44-.5-.35-.82,.09-.32,.4-.53,.73-.51,.27,.02,.54,.06,.81,.11-.29-.22-.56-.42-.8-.55-.29-.18-.43-.53-.31-.85,.12-.32,.44-.51,.78-.45,.59,.1,1.19,.29,1.78,.57-.04-.08-.09-.16-.12-.23-.16-.29-.09-.66,.18-.88,.23-.18,.54-.19,.79-.05-.08-.12-.16-.24-.24-.36-.18-.25-.16-.6,.03-.84s.53-.32,.81-.21c.67,.27,1.3,.73,1.88,1.38,.25-.11,.5-.16,.74-.16,.06-.31,.16-.57,.26-.78,.06-.13,.12-.25,.13-.35,.07-.26,.29-.47,.56-.53,.28-.04,.56,.07,.7,.31,.03,.04,.04,.09,.07,.13,.28-.22,.59-.41,.92-.5s.69,.09,.82,.41c.18-.03,.35-.03,.51,0,.16,.03,.3,.11,.4,.22,.07-.07,.13-.13,.2-.2,.25-.23,.63-.26,.89-.06,.03,.02,.04,.05,.07,.07-3.14-6.93-10.1-11.75-18.2-11.75H30V.91L10.5,10.67Z"/>
  <path class="cls-1" d="M79.85,62.37c.06-.54,.1-1.09,.12-1.65-1.5,1.01-3.08,1.82-4.61,2.52,1.62-.1,3.11-.39,4.5-.87Z"/>
  <path class="cls-1" d="M78.36,12.54c-.03,.06-.06,.13-.09,.2,.09-.06,.19-.11,.29-.17-.05-.13-.09-.26-.15-.39,.01,.12,0,.25-.06,.36Z"/>
  <path class="cls-2" d="M1.06,13.6H30s0-2.93,0-2.93H10.5S30,.91,30,.91V0h-8L3,9.5c-.79,1.28-1.45,2.65-1.94,4.1Z"/>
  <path class="cls-2" d="M12.52,1.46c-.95,.39-1.86,.85-2.74,1.37l2.74-1.37Z"/>
  <polygon class="cls-2" points="30 40 .67 25.33 7.23 25.33 30 36.72 30 35.08 10.51 25.33 30 25.33 30 22.4 0 22.4 0 29.92 20.16 40 30 40"/>
  <path class="cls-10" d="M30,22.4V13.6H1.06c-.68,2.01-1.06,4.16-1.06,6.4v2.4H30Z"/>
  <polygon class="cls-10" points=".67 25.33 30 40 30 36.72 7.23 25.33 .67 25.33"/>
  <path class="cls-10" d="M3,9.5L22,0h-2c-2.65,0-5.17,.53-7.48,1.46l-2.74,1.37c-2.76,1.65-5.09,3.94-6.78,6.67Z"/>
  <path class="cls-2" d="M74.01,63.17h-.04c-3.17-1.37-6.73-3.19-9.27-6.17-.56,1.15-1.14,2.12-1.78,2.94,3.03,2.62,6.7,3.92,11.11,3.92,2.07,0,3.97-.28,5.72-.86,.03-.21,.07-.43,.1-.64-1.39,.48-2.88,.77-4.5,.87,1.53-.69,3.11-1.51,4.61-2.52,0-.24,.04-.48,.04-.72v-.03c-1.91,1.34-4,2.35-5.94,3.18h-.04Zm-10.32-3.3c.39-.55,.76-1.17,1.12-1.84,2.26,2.39,5.14,3.99,7.85,5.22-2.7-.17-5.06-.86-7.16-2.11-.63-.37-1.23-.79-1.81-1.26Z"/>
  <path class="cls-2" d="M60.9,56.12h0c-.04-.2-.15-.31-.31-.31-.26-.01-.6,.24-.78,.66,.12,.16,.23,.33,.35,.49,.24-.24,.5-.52,.74-.84Z"/>
  <path class="cls-2" d="M79.54,29.87c-.59,0-1.31-.12-1.66-.45-.06-.04-.1-.11-.15-.16-.26,.14-.76,.16-1.03,.16h-.16c-.26-.01-1.09-.06-1.49-.34-.26,.14-.96,.26-1.63,.26-.37,0-.71-.04-.97-.13h-.01c-.19,.05-.35,.09-.51,.12-.62,.16-1.04,.25-1.42,.25-.04,0-.07-.01-.11-.02-.22,.06-.48,.17-.76,.28-.18,.07-.36,.15-.55,.22h10.92v-.22c-.13,.02-.29,.03-.46,.03Z"/>
  <path class="cls-2" d="M79.51,26.81c-.08-.25-.19-.52-.34-.84-.65,.26-1.43,.45-2.29,.55,.03,.03,.05,.07,.08,.1,.29-.12,.67-.12,1.42-.06,.51,.04,.87,.08,1.14,.24Z"/>
  <path class="cls-2" d="M72.18,26.21s-.09-.03-.14-.04c-.03,.02-.06,.05-.1,.07,.07,0,.15-.02,.23-.03Z"/>
  <path class="cls-2" d="M77.24,11.74c-.07,.07-.13,.13-.2,.2-.1-.11-.24-.2-.4-.22-.16-.03-.34-.03-.51,0-.13-.32-.48-.5-.82-.41s-.65,.28-.92,.5c-.03-.04-.04-.09-.07-.13-.15-.23-.43-.35-.7-.31-.26,.06-.48,.26-.56,.53-.01,.1-.07,.22-.13,.35-.1,.21-.21,.47-.26,.78-.23,0-.49,.05-.74,.16-.58-.64-1.2-1.11-1.88-1.38-.28-.12-.62-.03-.81,.21s-.21,.59-.03,.84c.08,.11,.16,.24,.24,.36-.25-.14-.56-.13-.79,.05-.26,.22-.34,.59-.18,.88,.03,.07,.08,.15,.12,.23-.59-.27-1.19-.47-1.78-.57-.34-.06-.66,.13-.78,.45-.12,.32,.01,.67,.31,.85,.23,.13,.51,.33,.8,.55-.27-.06-.54-.1-.81-.11-.34-.01-.65,.19-.73,.51-.09,.32,.06,.66,.35,.82,.04,.02,.09,.05,.13,.08-.18,.08-.33,.22-.39,.41-.1,.32,.03,.66,.31,.84,.51,.3,1.48,1.02,2.41,1.75-.29,.03-.57,.12-.78,.21-.11-.05-.21-.11-.29-.21-.4-.51-1.14-.88-1.91-.92-.57-.03-1.06,.11-1.43,.41l-.03-.04s-.05,.05-.08,.08c-.04,0-.08,.02-.11,.03-.07,0-.15,.03-.23,.04-.35,.03-.67,.21-.91,.48-.29,.35-.4,.85-.29,1.39,.04,.23,.22,.43,.44,.51,.1,.04,.21,.06,.31,.04,.13,.25,.32,.45,.45,.57,.48,.44,1.1,.67,1.64,.63,.31,0,.56,.06,.7,.18,.01,.06,.03,.13,.06,.21-.37,.38-.59,.92-.6,1.45-.01,.43,.12,1.06,.73,1.63,.01,.01,.03,.03,.04,.04,.06,.05,.15,.11,.25,.18-.15,.08-.29,.17-.43,.26-.44,.28-.75,.79-.81,1.36-.03,.35,.02,.68,.14,.98h-4.5c-.4,0-.7,.31-.7,.7v13.71c0,2.33,.23,4.43,.67,6.33-.7-.09-1.55,.17-2.38,.99-.08,.08-.13,.16-.2,.23l-.02,.02c-.56,.57-1.67,1.42-2.49,1.77-.01,.01-.04,.01-.06,.03-.91,.48-2.29,1.61-1.2,3.68,.27,.51,.55,.99,.84,1.46-.25-.13-.51-.3-.78-.51-.1-.23-.19-.44-.27-.62-.65-1.54-1.7-2.3-2.71-1.94-1,.37-1.32,1.14-.94,2.32,.32,1.61,.84,3.73,1.5,4.71,0,0,0,0,0,0,.31,.62,1,1.18,1.94,1.53,.69,.25,1.41,.38,2.17,.38,1.13,0,2.29-.29,3.41-.83,4.45,3.78,9.93,5.26,14.43,5.26,1.32,0,2.74-.14,4.18-.42,.1-.23,.21-.45,.3-.68-1.55,.33-3.07,.49-4.48,.49-4.46,0-9.92-1.51-14.31-5.36-.01,0-.02,.02-.04,.02-1.33,.69-2.51,.91-3.46,.91s-1.61-.21-1.98-.34c-.83-.32-1.47-.81-1.67-1.32h0c-.65-.95-1.16-3.25-1.42-4.53-.22-.65-.29-1.29,.56-1.6,.84-.31,1.57,.67,1.97,1.6,.1,.22,.21,.49,.33,.78,.03,.02,.05,.03,.08,.05,.94,.78,1.78,1.04,2.52,1-.59-.82-1.14-1.69-1.64-2.64-.65-1.25-.34-2.19,.95-2.89,.92-.4,2.1-1.29,2.7-1.94,.03-.03,.06-.06,.09-.09l.02,.02s.08-.1,.13-.15c.34-.34,.79-.62,1.19-.75,.51-.16,.95-.09,1.3,.18l.06-.06c.06,.06,.15,.14,.23,.21-.63-2.13-.94-4.56-.94-7.31v-13.82h5.96c-.16-.1-.32-.21-.5-.37-.29-.29-.43-.7-.38-1.14,.04-.4,.25-.75,.54-.92,.45-.29,.89-.55,1.44-.57,.01-.07,.04-.13,.09-.18-.69-.23-1.17-.56-1.36-.7-.37-.34-.56-.75-.56-1.17,.01-.53,.29-.94,.54-1.16,.18-.13,.21-.19,.21-.22s-.07-.1-.15-.18h-.01s-.01-.03-.01-.03c-.06-.16-.07-.23-.09-.29,0-.06-.01-.06-.1-.16-.25-.25-.66-.4-1.19-.4-.45,.04-.92-.22-1.2-.47-.23-.21-.38-.44-.38-.62,0-.03,0-.07,.01-.1-.09,0-.15-.03-.21-.06-.09-.04-.13-.06-.28,.04l-.13,.1-.03-.16c-.07-.35-.01-.67,.18-.91,.13-.18,.34-.28,.54-.28,.07-.03,.16-.04,.23-.06,.15-.03,.29-.06,.41-.13,.23-.23,.62-.35,1.07-.32,.59,.03,1.17,.31,1.47,.69,.22,.29,.54,.45,.9,.5h0s.06-.01,.08-.02c.25-.14,.71-.31,1.03-.19h.03v-.03l.03-.03c.21-.21,.43-.38,.65-.52-1.14-.92-2.53-1.97-3.21-2.38l.03-.09c.97,.12,2.08,.57,3.3,1.32-1.11-1.04-2.41-2.03-3.4-2.55l.03-.09c1.2,.08,2.41,.6,3.63,1.3-1.07-1.36-2.36-2.48-3.24-2.99l.03-.09c1.19,.19,2.39,.79,3.58,1.79-.23-.45-.46-.9-.67-1.3-.23-.45-.43-.84-.57-1.11l.07-.06c.13,.1,.28,.21,.44,.32,.56,.4,1.33,.96,2.25,2.19-.64-1.59-1.4-2.82-2.06-3.79l-.09-.13,.15,.06c.71,.29,1.37,.85,1.98,1.64,.45-.45,.96-.46,1.57-.26-.21-.53-.03-.92,.15-1.31,.07-.16,.13-.31,.18-.45l.03-.1,.06,.09c.13,.19,.31,.65,.35,1.01,.26-.38,.84-.97,1.35-1.1l.02,.06s0,0,0,0c0,0,0,0,0,0v.02c-.14,.07-.21,.31-.29,.57-.03,.1-.06,.22-.1,.32,.47-.41,1.03-.63,1.42-.57v.07s.01,0,.01,0c0,0,0,0-.01,0h0c-.4,.08-.54,.42-.7,.82-.03,.08-.08,.16-.12,.24-.04,.08-.07,.16-.12,.24-.01,.03-.02,.05-.04,.08,.27-.12,.58-.18,.86-.22,.4-.46,.83-.89,1.31-1.35l.07,.06c-.3,.64-.61,1.55-.9,2.49,.53-.65,1.15-1.18,1.87-1.6-.07-.19-.13-.39-.21-.58-.1,.06-.2,.11-.29,.17,.03-.07,.06-.14,.09-.2,.06-.11,.07-.24,.06-.36-.06-.15-.14-.29-.21-.43-.02-.02-.04-.05-.07-.07-.26-.21-.65-.18-.89,.06Z"/>
  <path class="cls-2" d="M77.09,17.1c.78-.97,1.53-1.7,2.22-2.24-.12-.44-.24-.87-.39-1.3-.65,.93-1.39,2.36-1.83,3.53Z"/>
  <path class="cls-2" d="M78.63,20.37c.48,.13,.93,.35,1.37,.65v-1.02c0-.14-.02-.27-.02-.41-.46,.25-.92,.51-1.35,.78Z"/>
  <path class="cls-2" d="M79.92,18.42c0-.09,0-.19-.01-.28-.14,.14-.28,.29-.42,.43,.14-.05,.29-.1,.43-.15Z"/>
  <path class="cls-2" d="M78.05,18.15c.45-.41,1.02-.89,1.67-1.36-.04-.22-.06-.44-.1-.66-.58,.71-1.12,1.4-1.57,2.02Z"/>
  <path class="cls-2" d="M77.12,20.23s.01,0,.02,0v-.05s-.01,.03-.02,.05Z"/>
  <path class="cls-2" d="M73.13,14.63c-.26-.32-.72-.49-1.23-.46,.17,.23,.33,.48,.5,.75,.18-.21,.42-.32,.74-.29Z"/>
  <path class="cls-2" d="M73.35,15.07c-.18-.01-.47,.05-.78,.14,.09,.16,.18,.34,.26,.52,.12-.23,.34-.48,.52-.66Z"/>
  <path class="cls-7" d="M62.74,59.79c.64-.83,1.23-1.8,1.79-2.97-.01-.01-.02-.03-.04-.04-.86-1.05-1.55-2.23-2.12-3.53-.06,1.3-.94,2.73-2.1,3.87,.77,1.01,1.59,1.9,2.46,2.67Z"/>
  <path class="cls-7" d="M56.71,59.46c-.76,.08-1.62-.14-2.57-.86,.31,.7,.67,1.57,1.06,2.52l.12,.29-.26-.16c-.94-.56-1.73-.5-2.1-.21-.25,.21-.32,.5-.21,.85,.16,.45,.78,.92,1.55,1.22,.74,.28,2.73,.77,5.22-.56-1.01-.91-1.95-1.93-2.82-3.1Z"/>
  <path class="cls-7" d="M70.58,66.72c.13,0,.41-.15,.56-.78,.06-.57-.07-.85-.21-.85h-.15c-.07-.07-.07,0-.15,.07l-.21,1.41c-.07,.07,0,.15,0,.15h.15Z"/>
  <path class="cls-7" d="M65.93,64.33c-.21,.43-.21,.84,0,.98,.21,.06,.48-.22,.7-.7,.15-.41,.21-.84,0-.91-.28-.15-.56,.21-.7,.63Z"/>
  <path class="cls-7" d="M73.74,65.37h-.15q-.07,0-.07,.07l-.07,1.48,.07,.07q.07,0,.15,.07c.22,0,.43-.22,.43-.85s-.22-.85-.35-.85Z"/>
  <path class="cls-7" d="M59.72,56.73v.02s-.12-.16-.12-.16c-.35-.48-.7-1-1-1.55-.44-.66-.7-1.24-.65-1.82,0-.04,.01-.08,.02-.13,.02-.11,.04-.21,.08-.32,.02-.05,.02-.11,.04-.16-.63,.53-1.44,1.07-2.1,1.35-1.2,.65-1.47,1.45-.87,2.6,4.37,8.36,12.63,11.34,18.89,11.34,1.44,0,2.99-.17,4.57-.52,.16-.4,.31-.8,.44-1.21-.07-.08-.13-.18-.15-.32l-.28-.91c-.07-.15-.15-.15-.21-.15l-.07-.07,.7-.21v.07c-.07,.07-.15,.15-.07,.28l.2,.91c.12-.4,.22-.82,.32-1.23-.04,0-.07-.01-.1-.01v-.07l.13-.06c.09-.38,.15-.76,.21-1.15-1.75,.56-3.65,.84-5.7,.84-6.06,0-10.75-2.42-14.29-7.35Zm.93,5.35l.07-.07c.07,.07,.15,.07,.28,0l.91-1.19-.07-.07c-.15-.07-.35-.07-.56,.15v-.07l.28-.35,1.06,.78h.01s.56,.41,.56,.41v.07c-.15-.07-.21-.07-.28,.07l-.35,.5,.43,.28,.35-.5c.07-.15,0-.21-.07-.28l.07-.07,.56,.43v.07c-.07-.07-.21-.07-.28,.07l-.7,1.13c-.15,.07-.07,.15,0,.21v.07l-.63-.43h.07c.07,0,.15,0,.21-.07l.35-.56-.43-.29-.35,.5c-.07,.15,0,.21,.07,.28l-.07,.07-.56-.43v-.07c.15,.07,.21,.07,.28-.07l.78-1.06c.07-.14,0-.2-.07-.27l-.3,.36h-.07c.21-.21,.15-.5,0-.56v-.07l-.91,1.19c-.15,.07-.07,.21,0,.28h-.07l-.56-.43Zm-2.68-2.67l.07-.07c.07,.07,.15,.15,.28,0l.91-.91c.15-.07,.15-.15,.07-.28l.5,.56c-.07-.07-.21-.07-.28,0l-.43,.43,.35,.35,.43-.35c.15-.15,.07-.21,0-.28l.07-.07,.5,.56h-.07c-.07,0-.15-.07-.28,.07l-.91,.85c-.15,.15-.15,.21-.07,.28v.07l-.5-.56c.07,0,.21,.07,.28,0l.5-.5-.35-.35-.5,.43c-.07,.07-.07,.21,0,.28h-.07l-.5-.5Zm1.85,1.89l.07-.07c.07,.15,.21,.15,.28,0,0-.07,.07-.21,.07-.28l-.21-.21,.06-.07-.07,.07-.15-.15c-.07,.07-.15,.07-.21,.15-.21,.15-.15,.21-.07,.28v.07l-.35-.35h.07l.28-.07,1.41-.78,.07,.07s-.07,.07-.7,1.48c0,.15-.07,.21,0,.35l-.56-.5Zm4.91,1.42l1.19,.56-.28,.56-.07-.07c.21-.28,0-.56-.07-.63-.07,0-.15-.07-.21-.07s-.07,0-.15,.15c-.07,.07-.28,.5-.28,.5,.07,.07,.21,.21,.5-.15h.07l-.43,.85-.07-.07c.21-.43-.07-.5-.15-.5l-.28,.56c-.07,.15,0,.21,.07,.21v.07l-.69-.34,.07-.07c.07,.07,.21,.07,.28-.07l.56-1.19c.07-.15,0-.21-.07-.28Zm2.6,1.28v-.09l.63,.28v.07c-.07-.07-.21-.07-.21,.07l-.35,.91c-.07,.28-.07,.56,.15,.63,.22,.07,.43-.07,.56-.43l.28-.85c.07-.15,0-.21-.07-.28l.35,.07v.07c-.07,0-.15,0-.21,.15l-.28,.85c-.15,.35-.35,.63-.78,.5-.28-.07-.5-.43-.35-.78l.35-.91c.07-.15,0-.21-.07-.28Zm1.42,.54s0-.05,0-.06h-.06s.06,0,.06,0l.43,.06,.43,1.33,.21-.85c.07-.15,0-.21-.07-.28l.43,.07h0s.43,.08,.69,.15c.35,.07,.64,.35,.5,1.04h.01c-.15,.78-.5,.85-.85,.78l-.7-.15h.07c.06,0,.13-.06,.21-.21l.21-1.26c.06-.21-.07-.21-.15-.28v-.06l-.06,.06c-.07,0-.15,0-.21,.15l-.35,1.54h-.07l-.56-1.69-.35,1.13c0,.21,.07,.21,.15,.28v.07l-.43-.15v-.07c.07,.07,.21,0,.21-.15l.35-1.26-.07-.21Zm2.82,.63v-.07l1.26,.15-.07,.56c0-.35-.21-.5-.35-.5-.07-.07-.15-.07-.21-.07q-.07,0-.07,.21c0,.07-.07,.56-.07,.56,.07,0,.28,.07,.43-.35l-.07,.91h-.07c0-.43-.21-.43-.28-.43l-.07,.63q0,.15,.07,.15l.15,.07c.21,0,.43-.07,.56-.5h.07l-.15,.56-1.33-.15c.15,0,.21-.07,.28-.21l.15-1.31c0-.15-.15-.21-.21-.21Zm-4.65-.41c-.21,.48-.56,.76-1.06,.56-.43-.15-.48-.63-.28-1.13,.21-.48,.63-.76,1.06-.56,.43,.22,.48,.7,.28,1.13Zm6.03,2.38v-.07c.07,0,.15-.06,.15-.21l.07-1.33c0-.13-.13-.21-.21-.21v-.07s.43,0,.7,.07c.35,0,.7,.21,.7,.91h-.01c-.07,.76-.43,.91-.78,.91h-.63Zm-17-11.51l1.19-.63c.15-.07,.15-.15,.07-.21l.07-.07,.35,.7h-.06c-.07-.07-.15-.15-.28-.07l-.5,.28,.21,.43,.56-.21c.15-.07,.07-.21,.07-.28h.07l.28,.63c-.07-.07-.15-.15-.28-.07l-1.19,.63c-.15,.07-.15,.15-.07,.21l-.07,.07-.35-.63,.07-.07c.07,.07,.15,.15,.28,.07l.56-.28-.21-.51-.56,.28c-.15,.07-.15,.21-.15,.28h-.07l-.28-.62h.07c0,.07,.07,.15,.21,.07Zm2.54,1.41c-.07-.06-.15-.15-.15-.21-.07,0-.07-.07-.21,.07-.07,.07-.5,.35-.5,.35,.07,.07,.15,.28,.5,.07h.07l-.78,.56v-.07c.35-.28,.21-.5,.15-.56l-.5,.35c-.15,.07-.15,.15-.15,.21,.07,0,.07,.07,.15,.15,.07,.15,.28,.28,.63,.15l.07,.07-.56,.21-.7-1.13h.07c.07,.07,.15,.15,.28,.07l1.06-.79c.15-.07,.15-.15,.07-.28h.07l.7,1.06-.5,.35v-.07c.28-.21,.28-.5,.21-.56Zm17.48,8.42l.16,1.33c0,.15,.07,.15,.21,.15v.07l-.78,.07c.07-.07,.21-.15,.21-.28l-.15-1.33c-.07-.15-.15-.15-.28-.15v-.07l.78-.07c-.07,.07-.21,.15-.15,.28Zm1.35,1.14c0,.15,.07,.21,.21,.21v.07l-.69,.06v-.07c.07,0,.15-.07,.15-.21l-.28-1.48h-.07c-.15,.07-.28,.21-.21,.5h-.07l-.07-.5,1.26-.21,.07,.5h-.07c0-.28-.21-.35-.43-.35h-.07l.28,1.48Z"/>
  <path class="cls-7" d="M60.58,60.24s-.21,.07-.56,.28l.07,.15,.21,.21,.28-.63Z"/>
  <path class="cls-11" d="M58.78,54.92c.25,.5,.56,.95,.87,1.39,.23-.48,.65-.72,.97-.7,.19,.01,.34,.12,.43,.28,.77-1.02,1.32-2.35,1.01-3.46-.03-.07-.05-.15-.08-.23-.14-.34-.35-.65-.68-.93-.21-.21-.47-.28-.73-.28-.59,0-1.2,.4-1.58,.76-1.17,1.17-1,1.97-.19,3.17Z"/>
  <path class="cls-11" d="M51.34,57.41c.22,1.11,.65,2.96,1.16,4.03,.03-.22,.15-.41,.32-.56,.47-.38,1.26-.35,2.08,.04-.35-.87-.69-1.64-.97-2.27-.18-.43-.34-.79-.47-1.11-.25-.6-.82-1.53-1.47-1.53-.07,0-.16,.01-.23,.04-.66,.23-.65,.67-.43,1.35Z"/>
  <path class="cls-9" d="M55.95,56.16h.07c0-.07,0-.21,.15-.28l.56-.28,.21,.51-.56,.28c-.13,.07-.21,0-.28-.07l-.07,.07,.35,.63,.07-.07c-.07-.06-.07-.13,.07-.21l1.19-.63c.13-.07,.21,0,.28,.07l-.28-.63h-.07c0,.07,.07,.21-.07,.28l-.56,.21-.21-.43,.5-.28c.13-.07,.21,0,.28,.07h.06l-.35-.7-.07,.07c.07,.06,.07,.13-.07,.21l-1.19,.63c-.13,.07-.21,0-.21-.07h-.07l.28,.62Z"/>
  <path class="cls-9" d="M58.28,57.66l.5-.35-.7-1.06h-.07c.07,.13,.07,.21-.07,.28l-1.06,.79c-.13,.07-.21,0-.28-.07h-.07l.7,1.13,.56-.21-.07-.07c-.35,.13-.56,0-.63-.15-.07-.07-.07-.15-.15-.15,0-.06,0-.13,.15-.21l.5-.35c.06,.06,.21,.28-.15,.56v.07l.78-.56h-.07c-.35,.21-.43,0-.5-.07,0,0,.43-.28,.5-.35,.13-.15,.13-.07,.21-.07,0,.06,.07,.15,.15,.21,.07,.06,.07,.35-.21,.56v.07Z"/>
  <path class="cls-9" d="M58.54,59.9c-.07-.07-.07-.21,0-.28l.5-.43,.35,.35-.5,.5c-.07,.07-.21,0-.28,0l.5,.56v-.07c-.07-.07-.07-.13,.07-.28l.91-.85c.13-.15,.21-.07,.28-.07h.07l-.5-.56-.07,.07c.07,.07,.15,.13,0,.28l-.43,.35-.35-.35,.43-.43c.07-.07,.21-.07,.28,0l-.5-.56c.07,.13,.07,.21-.07,.28l-.91,.91c-.13,.15-.21,.07-.28,0l-.07,.07,.5,.5h.07Z"/>
  <path class="cls-9" d="M60.37,61.44c.63-1.41,.7-1.48,.7-1.48l-.07-.07-1.41,.78-.28,.07h-.07l.35,.35v-.07c-.07-.07-.13-.13,.07-.28,.06-.07,.13-.07,.21-.15l.15,.15,.07-.07-.07-.15c.35-.21,.56-.28,.56-.28l-.28,.63-.21-.21-.06,.07,.21,.21c0,.07-.07,.21-.07,.28-.07,.15-.21,.15-.28,0l-.07,.07,.56,.5c-.07-.15,0-.21,0-.35Z"/>
  <path class="cls-9" d="M61.21,62.5h.07c-.07-.07-.15-.21,0-.28l.91-1.19v.07c.15,.06,.21,.35,0,.56h.07l.3-.36c.07,.07,.14,.13,.07,.27l-.78,1.06c-.07,.15-.13,.15-.28,.07v.07l.56,.43,.07-.07c-.07-.07-.15-.13-.07-.28l.35-.5,.43,.29-.35,.56c-.06,.07-.13,.07-.21,.07h-.07l.63,.43v-.07c-.07-.06-.15-.13,0-.21l.7-1.13c.07-.15,.21-.15,.28-.07v-.07l-.56-.43-.07,.07c.07,.07,.15,.13,.07,.28l-.35,.5-.43-.28,.35-.5c.07-.15,.13-.15,.28-.07v-.07l-.56-.43h-.01s-1.06-.76-1.06-.76l-.28,.35v.07c.21-.22,.41-.22,.56-.15l.07,.07-.91,1.19c-.13,.07-.21,.07-.28,0l-.07,.07,.56,.43Z"/>
  <path class="cls-9" d="M64.25,64.19c-.07,.15-.21,.15-.28,.07l-.07,.07,.69,.34v-.07c-.07,0-.15-.06-.07-.21l.28-.56c.07,0,.35,.07,.15,.5l.07,.07,.43-.85h-.07c-.29,.35-.43,.22-.5,.15,0,0,.21-.43,.28-.5,.07-.15,.09-.15,.15-.15s.13,.07,.21,.07c.07,.07,.28,.35,.07,.63l.07,.07,.28-.56-1.19-.56c.07,.07,.15,.13,.07,.28l-.56,1.19Z"/>
  <path class="cls-9" d="M66.64,63.63c-.43-.21-.85,.07-1.06,.56-.21,.5-.15,.98,.28,1.13,.5,.21,.85-.07,1.06-.56,.21-.43,.15-.91-.28-1.13Zm0,.98c-.22,.48-.5,.76-.7,.7-.21-.15-.21-.56,0-.98,.15-.43,.43-.78,.7-.63,.21,.07,.15,.5,0,.91Z"/>
  <path class="cls-9" d="M67.05,65.18c-.15,.35,.07,.7,.35,.78,.43,.13,.63-.15,.78-.5l.28-.85c.06-.15,.13-.15,.21-.15v-.07l-.35-.07c.07,.07,.15,.13,.07,.28l-.28,.85c-.13,.35-.34,.5-.56,.43-.22-.07-.22-.35-.15-.63l.35-.91c0-.15,.13-.15,.21-.07v-.07l-.63-.28v.09c.07,.07,.15,.13,.07,.28l-.35,.91Z"/>
  <path class="cls-9" d="M68.68,64.46h.06s-.03,0-.06,0Z"/>
  <path class="cls-9" d="M68.27,66.15v.07l.43,.15v-.07c-.07-.07-.15-.07-.15-.28l.35-1.13,.56,1.69h.07l.35-1.54c.06-.15,.13-.15,.21-.15l.06-.06v.06c.07,.07,.21,.07,.15,.28l-.21,1.26c-.07,.15-.15,.21-.21,.21h-.07l.7,.15c.35,.07,.7,0,.85-.78h-.01c.14-.69-.15-.97-.5-1.04-.27-.07-.66-.14-.69-.14h0s-.43-.08-.43-.08c.07,.07,.15,.13,.07,.28l-.21,.85-.43-1.33-.43-.06s0,.03,0,.06l.07,.21-.35,1.26c0,.15-.13,.22-.21,.15Zm2.17,.43l.21-1.41c.07-.07,.07-.15,.15-.07h.15c.13,0,.26,.28,.21,.85-.15,.63-.43,.78-.56,.78h-.15s-.07-.07,0-.15Z"/>
  <path class="cls-9" d="M71.35,66.88l1.33,.15,.15-.56h-.07c-.13,.43-.35,.5-.56,.5l-.15-.07q-.07,0-.07-.15l.07-.63c.07,0,.28,0,.28,.43h.07l.07-.91c-.15,.43-.35,.35-.43,.35,0,0,.07-.48,.07-.56q0-.21,.07-.21c.06,0,.13,0,.21,.07,.15,0,.35,.15,.35,.5l.07-.56-1.26-.15v.07c.06,0,.21,.06,.21,.21l-.15,1.31c-.07,.13-.13,.21-.28,.21Z"/>
  <path class="cls-9" d="M74.35,66.22h.01c0-.7-.35-.91-.7-.91-.28-.07-.7-.07-.7-.07v.07c.07,0,.21,.07,.21,.21l-.07,1.33c0,.15-.07,.21-.15,.21v.07h.63c.35,0,.7-.15,.78-.91Zm-.69,.85q-.07-.07-.15-.07l-.07-.07,.07-1.48q0-.07,.07-.07h.15c.13,0,.35,.22,.35,.85s-.21,.85-.43,.85Z"/>
  <path class="cls-9" d="M76.11,65.17l-.78,.07v.07c.13,0,.21,0,.28,.15l.15,1.33c0,.13-.13,.21-.21,.28l.78-.07v-.07c-.13,0-.21,0-.21-.15l-.16-1.33c-.06-.13,.07-.21,.15-.28Z"/>
  <path class="cls-9" d="M77.53,65.46h.07l-.07-.5-1.26,.21,.07,.5h.07c-.07-.29,.06-.43,.21-.5h.07l.28,1.48c0,.13-.07,.21-.15,.21v.07l.69-.06v-.07c-.13,0-.21-.06-.21-.21l-.28-1.48h.07c.22,0,.43,.07,.43,.35Z"/>
  <path class="cls-9" d="M79.37,64.52s.06,0,.1,.01c.01-.05,.03-.09,.04-.14l-.13,.06v.07Z"/>
  <path class="cls-9" d="M79.02,64.58v-.07l-.7,.21,.07,.07c.06,0,.13,0,.21,.15l.28,.91c.02,.14,.08,.24,.15,.32,.04-.13,.08-.26,.12-.39l-.2-.91c-.07-.13,0-.21,.07-.28Z"/>
  <path class="cls-2" d="M69.56,29.63c.13-.06,.25-.11,.37-.16-.15-.05-.3-.11-.46-.21-.65-.35-1.36-1.22-1.53-1.6-.03-.07-.04-.13-.06-.19-.03-.11-.04-.19-.09-.23-.46,0-.87,.21-1.38,.54-.23,.15-.41,.44-.44,.78-.04,.37,.07,.72,.32,.97,.31,.28,.59,.44,.86,.53h1.16c.09-.02,.18-.04,.27-.06,.32-.09,.65-.23,.97-.37Z"/>
  <path class="cls-2" d="M74.86,28.92c-.27-.25-.45-.62-.59-1.02-.07-.18-.14-.37-.2-.55-.04-.15-.1-.29-.15-.44-.07-.21-.21-.33-.4-.41-.23-.03-.45-.06-.66-.11-.16,0-.33,0-.53,.02-.4,.03-.68,.08-.9,.13-.14,.07-.28,.14-.42,.19,.14,.15,.26,.38,.42,.72,.03,.06,.06,.13,.09,.21,.14,.36,.33,.8,.61,1.11,.08,.07,.15,.14,.24,.18,.54,.29,1.98,.16,2.49,0,0,0-.01-.02-.02-.02Z"/>
  <path class="cls-2" d="M79.84,28.21c-.04-.4-.07-.78-.21-.94l-.07-.09,.04-.03s0-.02,0-.03c-.19-.25-.52-.32-1.22-.37-.72-.04-1.06-.04-1.29,.05,.02,.04,.06,.06,.08,.1,.12,.29,.18,.6,.23,.89,.09,.48,.18,.94,.45,1.26l.06,.06h0s.07,.1,.12,.13h.01c.38,.4,1.41,.46,1.97,.38v-.3c-.06-.18-.08-.37-.1-.56-.03-.18-.05-.37-.06-.55Z"/>
  <path class="cls-3" d="M79.96,27.61c.02,.1,.03,.2,.04,.31v-.3s-.03,0-.04-.02Z"/>
  <path class="cls-3" d="M76.93,26.98c-.09-.18-.24-.31-.42-.41-.31,.03-.63,.04-.96,.04-.58,0-1.1-.02-1.59-.07,.14,.19,.24,.5,.36,.86,.18,.57,.38,1.22,.81,1.48,.23,.18,.78,.29,1.41,.32,.53,.01,.89-.04,1.06-.1-.26-.35-.35-.82-.44-1.28-.06-.29-.12-.59-.22-.85Z"/>
  <path class="cls-3" d="M67.94,27.09c.09,.09,.12,.21,.15,.34,.01,.06,.03,.12,.04,.18,.12,.31,.79,1.14,1.42,1.48,.7,.41,1.14,.31,2.29,.04,.09-.01,.18-.04,.28-.06-.4-.32-.63-.89-.81-1.33-.03-.07-.06-.13-.09-.21-.17-.37-.28-.59-.44-.71-1.04,.37-1.96,.32-2.69,.12-.08,.04-.14,.09-.16,.15Z"/>
  <path class="cls-6" d="M66.56,17.66c.73,.47,2.01,1.45,3.06,2.29,.09-.05,.19-.1,.28-.14-.19-.13-.36-.25-.5-.35l.06-.07c.14,.11,.32,.24,.52,.38,.16-.06,.31-.1,.47-.13-.13-.14-.26-.27-.4-.41-1.29-.85-2.47-1.39-3.5-1.57Z"/>
  <path class="cls-6" d="M66.51,16.33c1.25,.71,2.89,2.05,4.06,3.3,.23-.03,.46-.03,.68,.02-.03-.07-.06-.15-.1-.22-.53-.56-1.2-1.14-1.73-1.44l.04-.09c.44,.25,1.01,.72,1.52,1.22-.27-.49-.58-.96-.93-1.41-1.2-.71-2.38-1.24-3.56-1.38Z"/>
  <path class="cls-6" d="M76.72,15c.28-.92,.59-1.86,.89-2.54-.38,.37-.72,.72-1.04,1.08,0,0,.02,0,.03,0h.13s.03,.07,.03,.07c-.22,.09-.51,.36-.76,.61-.08,.1-.16,.2-.23,.3,.29,.07,.68,.31,.8,.56l-.07,.06c-.09-.09-.63-.07-.95-.03,.16,.09,.31,.28,.44,.45,.07,.09,.14,.18,.21,.26,.16-.29,.34-.56,.53-.81Z"/>
  <path class="cls-6" d="M76.27,15.89s.05,.05,.07,.07l.15,.09h-.18c-.12,0-.22-.01-.31-.03,0,0,0,0,0,0,0,.02,.01,.03,.02,.05,0,0,0,0,0,0,0-.02,.02-.03,.02-.05,.04,0,.09,0,.13,.01-.02,.03-.04,.07-.05,.1,.12,.1,.22,.24,.3,.4,.35-.63,.73-1.27,.98-1.59l.07,.06c-.26,.33-.64,.99-1,1.64,.09,.2,.15,.41,.17,.59,.06,.05,.12,.12,.17,.2,.03-.04,.06-.08,.09-.11,.43-1.24,1.25-2.86,1.97-3.85-.02-.06-.05-.13-.07-.19-1.07,.62-1.89,1.48-2.54,2.62Z"/>
  <path d="M76.9,14.75c.29-.94,.6-1.85,.9-2.49l-.07-.06c-.48,.46-.91,.89-1.31,1.35-.28,.04-.59,.1-.86,.22,.02-.02,.02-.05,.04-.08,.05-.08,.08-.16,.12-.24,.04-.08,.09-.17,.12-.24,.16-.4,.31-.73,.7-.81h0v-.09c-.4-.06-.95,.16-1.42,.57,.04-.1,.07-.22,.1-.32,.07-.26,.15-.5,.29-.57v-.02s0,0,0,0l-.02-.06c-.51,.13-1.09,.72-1.35,1.1-.04-.37-.22-.82-.35-1.01l-.06-.09-.03,.1c-.04,.15-.1,.29-.18,.45-.18,.38-.35,.78-.15,1.31-.61-.19-1.12-.19-1.57,.26-.61-.79-1.27-1.35-1.98-1.64l-.15-.06,.09,.13c.66,.97,1.42,2.2,2.06,3.79-.92-1.24-1.69-1.8-2.25-2.19-.16-.12-.31-.22-.44-.32l-.07,.06c.15,.28,.34,.66,.57,1.11,.2,.41,.43,.85,.67,1.3-1.19-.99-2.39-1.6-3.58-1.79l-.03,.09c.88,.51,2.17,1.63,3.24,2.99-1.22-.7-2.43-1.22-3.63-1.3l-.03,.09c.99,.52,2.29,1.51,3.4,2.55-1.22-.75-2.33-1.2-3.3-1.32l-.03,.09c.68,.41,2.07,1.46,3.21,2.38-.22,.14-.44,.31-.65,.52l-.03,.03h0s-.03,.03-.03,.03c-.32-.12-.78,.05-1.03,.19-.02,0-.07,0-.08,.01h0c-.36-.05-.68-.21-.9-.5-.29-.38-.88-.66-1.47-.69-.45-.03-.84,.09-1.07,.32-.12,.07-.26,.1-.41,.13-.07,.01-.16,.03-.23,.06-.21,0-.41,.1-.54,.28-.19,.23-.25,.56-.18,.91l.03,.16,.13-.1c.15-.1,.19-.09,.28-.04,.06,.03,.12,.06,.21,.06-.01,.03-.01,.07-.01,.1,0,.18,.15,.41,.38,.62,.28,.25,.75,.51,1.2,.47,.53,0,.94,.15,1.19,.4,.09,.1,.1,.1,.1,.16,.01,.06,.03,.13,.09,.29h.01s.01,.03,.01,.03c.07,.07,.15,.15,.15,.18s-.03,.09-.21,.22c-.25,.22-.53,.63-.54,1.16,0,.43,.19,.84,.56,1.17,.18,.14,.67,.47,1.36,.7-.05,.05-.08,.11-.09,.18-.55,.02-.99,.28-1.44,.57-.29,.18-.5,.53-.54,.92-.04,.44,.09,.85,.38,1.14,.18,.16,.34,.27,.5,.37h-5.96v13.82c0,2.75,.31,5.18,.94,7.31-.08-.07-.17-.15-.23-.21l-.06,.06c-.35-.27-.8-.34-1.3-.18-.4,.13-.85,.41-1.19,.75-.05,.05-.08,.1-.13,.15l-.02-.02s-.06,.06-.09,.09c-.6,.65-1.77,1.54-2.7,1.94-1.29,.7-1.6,1.64-.95,2.89,.5,.95,1.05,1.82,1.64,2.64-.74,.04-1.58-.22-2.52-1-.02-.02-.05-.03-.08-.05-.12-.28-.24-.55-.33-.78-.4-.92-1.13-1.91-1.97-1.6-.85,.31-.78,.95-.56,1.6,.26,1.28,.78,3.58,1.42,4.53h0c.2,.51,.84,1,1.67,1.32,.37,.13,1.07,.34,1.98,.34s2.13-.22,3.46-.91c.01,0,.02-.02,.04-.02,4.38,3.85,9.84,5.36,14.31,5.36,1.42,0,2.93-.16,4.48-.49,.03-.07,.05-.15,.08-.23-1.58,.35-3.13,.52-4.57,.52-6.26,0-14.52-2.98-18.89-11.34-.6-1.14-.34-1.95,.87-2.6,.66-.28,1.47-.82,2.1-1.35-.02,.05-.02,.11-.04,.16-.04,.11-.07,.22-.08,.32,0,.04-.01,.08-.02,.13-.04,.59,.21,1.16,.65,1.82,.29,.56,.65,1.07,1,1.55l.12,.16v-.02c3.55,4.94,8.24,7.35,14.3,7.35,2.05,0,3.95-.28,5.7-.84,.01-.08,.02-.16,.04-.24-1.75,.57-3.66,.86-5.72,.86-4.41,0-8.08-1.3-11.11-3.92,.64-.82,1.22-1.79,1.78-2.94,2.54,2.98,6.1,4.8,9.27,6.15h.04s.04,0,.04,0c1.94-.84,4.03-1.84,5.94-3.18v-.25c-1.91,1.37-4.02,2.38-5.99,3.23-2.44-1.06-5.11-2.37-7.36-4.29-.71-.61-1.38-1.27-1.99-2.01-.42-.51-.78-1.06-1.13-1.63-.83-1.36-1.46-2.9-1.89-4.61-.26-1.02-.45-2.1-.57-3.25-.11-1.04-.18-2.13-.18-3.28v-13.6h19.1v-.22h-10.92c.19-.07,.37-.15,.55-.22,.28-.11,.53-.22,.76-.28,.04,0,.07,.02,.11,.02,.38,0,.81-.09,1.42-.25,.16-.03,.32-.07,.51-.12h.01c.26,.09,.6,.13,.97,.13,.67,0,1.37-.13,1.63-.26,.41,.28,1.23,.32,1.49,.34h.16c.28,0,.77-.03,1.03-.16,.05,.06,.09,.12,.15,.16,.35,.34,1.07,.45,1.66,.45,.17,0,.32-.01,.46-.03v-.22c-.55,.08-1.58,.02-1.97-.37h-.01s-.08-.1-.12-.14h0s-.06-.06-.06-.06c-.28-.32-.37-.78-.45-1.26-.06-.29-.12-.6-.23-.89-.02-.04-.05-.06-.08-.1,.23-.08,.57-.08,1.29-.05,.7,.05,1.03,.12,1.22,.37,0,.01,0,.02,0,.03l-.04,.03,.07,.09c.13,.16,.16,.54,.21,.94,.02,.18,.04,.37,.06,.55,.02,.19,.05,.38,.1,.56v-1.4c-.01-.11-.03-.22-.04-.31,.01,0,.03,0,.04,.02v-.25c-.11-.08-.18-.18-.22-.27-.07-.36-.22-.73-.44-1.21,.24-.1,.46-.21,.66-.32v-.37c-.93,.58-2.53,1.07-4.45,1.07-2.35,0-3.84-.38-5-1.25-.57-.44-1.04-.72-1.38-.92l-.1-.06h-.01c-.23-.09-.53-.32-.67-.62-.09-.19-.1-.37-.03-.54,.13-.53-.12-1.11-.38-1.75-.03-.06-.06-.13-.09-.21,.25-.13,.67-.26,.85-.18l.04,.03,.07-.03v.68l.16-.12c.38-.26,1.32-.48,2.11-.41h.12s0-.1,0-.1c0-.4,.06-.75,.16-.94h.02c-.11,.32-.17,.77-.17,1.03v.1h.1c.23,0,.63,.19,.76,.32l.04,.04h.09c.43-.16,1-.44,1.23-.67h.01v-.04s.03-.1,.04-.15c.06-.24,.12-.53,.1-.78h.06c0,.27-.01,.6-.13,.84l-.04,.1,.1,.04c.47,.21,.88,.7,1.29,1.17l.04,.04h.06c.1-.04,.25-.09,.43-.13,.31-.09,.69-.19,.91-.23h.04s.03-.06,.03-.06c.13-.27,.35-.77,.45-1.13l.04,.03c0,.14-.02,.26-.06,.32l-.06,.1,.1,.04c.99,.37,2.31,1.38,3.08,2.2v-.33c-.77-.78-1.95-1.67-2.89-2.05,.01-.09,.03-.19,.03-.25,1.15-.07,2.01,.24,2.86,.86v-.27c-.44-.3-.89-.51-1.37-.65,.43-.27,.89-.54,1.35-.78,0-.04,0-.07,0-.11-.5,.27-1,.56-1.47,.86-.11-.03-.23-.05-.35-.07,.51-.36,1.2-.78,1.8-1.1,0-.03,0-.07,0-.1-.67,.35-1.42,.82-1.93,1.18-.06,0-.11-.02-.17-.02,.39-.41,.9-.92,1.45-1.49,.2-.08,.41-.15,.62-.22,0-.03,0-.07,0-.11-.15,.05-.29,.09-.43,.15,.14-.14,.28-.28,.42-.43,0-.04,0-.09,0-.13-.83,.84-1.62,1.65-2.17,2.21,0,0-.02,0-.03,0-.18,0-.37,0-.57,0,0,0-.01,0-.02,0,0-.02,.01-.03,.02-.05,.04-.11,.07-.22,.09-.35,.07-.24,.08-.54,.06-.81,.41-.43,1.29-1.3,2.45-2.14,0-.03,0-.07-.01-.1-.65,.47-1.22,.95-1.67,1.36,.45-.62,.99-1.31,1.57-2.02,0-.04-.01-.09-.02-.13-.73,.89-1.41,1.77-1.92,2.5-.17,.16-.3,.3-.41,.41-.02-.16-.06-.3-.11-.4,0,0,0,0-.01-.02,0-.03,.01-.05,.01-.07,0-.04,0-.09-.01-.14,.69-.9,1.69-2.1,2.18-2.65l-.07-.06c-.48,.54-1.44,1.68-2.13,2.58-.04-.21-.13-.45-.24-.64,.51-.67,1.31-1.64,2.46-2.53-.01-.04-.02-.08-.03-.12-.68,.54-1.44,1.26-2.22,2.24,.44-1.17,1.18-2.6,1.83-3.53-.01-.04-.03-.07-.04-.11-.71,1-1.54,2.62-1.97,3.85-.03,.04-.06,.08-.09,.11-.05-.08-.11-.15-.17-.2-.02-.18-.08-.39-.17-.59,.35-.65,.74-1.3,1-1.64l-.07-.06c-.25,.32-.63,.96-.98,1.59-.08-.16-.18-.3-.3-.4,.02-.03,.04-.07,.05-.1-.04,0-.09,0-.13-.01,0,.02-.02,.03-.02,.05,0,0,0,0,0,0,0-.02-.01-.03-.02-.05,0,0,0,0,0,0,.09,.02,.19,.03,.31,.03h.18l-.15-.09s-.05-.05-.07-.07c.65-1.14,1.48-2,2.54-2.62-.01-.04-.03-.08-.05-.12-.73,.42-1.35,.95-1.87,1.6Zm-.92,.8c-.13-.18-.28-.37-.44-.45,.32-.04,.87-.06,.95,.03l.07-.06c-.13-.25-.51-.48-.8-.56,.08-.1,.16-.2,.23-.3,.25-.25,.54-.51,.76-.61l-.03-.09h-.13s-.02,.02-.03,.02c.32-.36,.66-.71,1.04-1.08-.3,.68-.61,1.61-.89,2.54-.19,.25-.37,.52-.53,.81-.07-.08-.14-.17-.21-.26Zm.57,1.6s-.09-.03-.14-.03c-.06,0-.11,.02-.16,.04-.17-.33-.42-.6-.69-.6-.15,0-.3,.08-.45,.2,.15-.38,.41-.68,.67-.68,.4,0,.7,.61,.77,1.08Zm.52,1.26s-.05-.04-.09-.05c-.09-.01-.18,0-.26,.06-.18,.11-.34,.35-.47,.64-.04-.28-.12-.56-.28-.73-.06-.07-.13-.11-.21-.13,.07-.52,.36-1,.65-1,.31,0,.65,.72,.66,1.2Zm.07,1.42c-.02,.13-.05,.25-.1,.37l-.09-.06-.04-.04c-.15-.16-.39-.29-.67-.41,0-.04,.02-.08,.02-.12,0-.08,0-.18,0-.27,.13-.39,.33-.68,.51-.79,.06-.03,.1-.04,.15-.04,.01,0,.03,0,.04,.01,.04,0,.09,.04,.12,.1,.15,.25,.18,.85,.06,1.25Zm-.88,1.51c-.23,.06-.59,.16-.88,.23-.13,.04-.26,.07-.35,.1-.38-.44-.78-.89-1.23-1.13,.1-.26,.12-.6,.12-.87,.81-.23,2.26,.03,2.8,.51-.09,.32-.31,.84-.45,1.14Zm-4.05-.23c-.16-.12-.48-.28-.76-.32,.01-.28,.09-.72,.19-.97,.38-.31,1.26-.37,1.79-.13,.03,.21-.06,.5-.12,.73-.01,.04-.01,.09-.03,.12-.21,.19-.69,.44-1.07,.57Zm-3.15-.04v-.41c.67-.66,1.42-.94,2.13-.81-.1,.21-.15,.51-.16,.87-.66-.04-1.48,.12-1.97,.35Zm-2.1-6.5c1.14,.24,2.3,.88,3.45,1.87,.43,.82,.87,1.64,1.27,2.31-.08,.23-.11,.57-.07,.88-.02,.01-.05,.02-.07,.04h-.02c-.08-.09-.16-.18-.25-.27-1.04-2.06-3-3.99-4.3-4.83Zm2.74,.31c-.18-.35-.34-.67-.47-.92,.09,.06,.19,.12,.28,.19,.67,.48,1.64,1.19,2.83,3.06,0,0,0,.01,0,.02-.12,.05-.23,.16-.33,.3-.25-.51-.54-1-.69-1.24l-.07,.06c.15,.25,.45,.76,.71,1.28-.14,.25-.22,.59-.22,.95,0,.01,0,.02,0,.04,0,0,0,0,0,0,0,0,0,.02-.01,.03-.64-1.09-1.41-2.6-2.01-3.77Zm.23-2.32c.64,.29,1.24,.82,1.79,1.54,0,0,0,0,0,0l-.07,.09h.12s0-.01,.01-.02c.19,.25,.37,.53,.55,.83-.05,.07-.09,.14-.13,.22l-.03,.09,.09-.03c.07-.02,.14-.04,.2-.05,.11,.19,.21,.4,.31,.61,0,.01-.01,.02-.01,.03l-.03,.15,.1-.07s.01,.02,.02,.04c-.07,.17-.13,.35-.14,.53,0,.02,0,.03,0,.04-.05,.05-.09,.1-.13,.16-.23-.58-.46-1.15-.63-1.61l-.09,.03c.18,.48,.42,1.08,.66,1.69-.05,.08-.09,.17-.13,.26-.11-.17-.22-.34-.33-.49-.65-1.7-1.43-3.01-2.12-4.03Zm1.97,1.61c.51-.03,.98,.13,1.23,.46-.31-.02-.56,.08-.74,.29-.16-.27-.33-.52-.5-.75Zm.93,1.56c-.09-.18-.17-.36-.26-.52,.32-.08,.61-.15,.78-.14-.18,.18-.4,.43-.52,.66Zm.74-.1c.13-.03,.25-.06,.35-.11,0,0,0,0,.01,.01-.04,.2,0,.39,.09,.59-.13,.11-.24,.27-.33,.46-.14-.17-.3-.29-.47-.29-.15,0-.29,.07-.43,.19,.03-.23,.11-.46,.23-.64,.18-.1,.36-.16,.54-.21Zm.87,1.13s.07,.1,.1,.15l.1,.15-.04-.21c-.02-.28,.03-.52,.09-.74,.16,.1,.29,.28,.38,.49-.05,.1-.09,.22-.12,.34-.09,.11-.17,.25-.23,.4-.1-.08-.22-.13-.34-.13-.1,0-.2,.04-.3,.1-.06-.22-.16-.44-.29-.62,.08-.19,.18-.35,.3-.47,.1,.19,.23,.37,.36,.56Zm.34-1.39c.06,.02,.11,.05,.16,.08-.05,.04-.1,.09-.14,.16,0,0,0,0,0,0,0-.08,.01-.17-.01-.24Zm1.14,.64s0,.01,0,.02c-.05-.02-.1-.03-.15-.03-.24,0-.48,.2-.65,.5-.1-.21-.25-.38-.42-.47,0-.01,0-.02,0-.04,0,0,0,0,0-.01,.04-.12,.08-.23,.14-.33,.05-.07,.1-.12,.15-.16,.09,.05,.17,.11,.25,.18,.18,.14,.36,.28,.66,.35Zm-.36,.65c.23,0,.46,.25,.61,.56-.24,.16-.43,.55-.49,.97,0,0-.01,0-.02,0-.1-.03-.22,0-.34,.09-.03,.02-.05,.06-.08,.08-.05-.32-.21-.71-.44-.94,.16-.43,.49-.75,.76-.75Zm.34,1.75c.22,.26,.31,.81,.26,1.16,0,.04-.02,.06-.03,.1-.32-.12-.69-.2-1.06-.24-.03-.14-.07-.28-.13-.41,.1-.28,.25-.52,.43-.65,.07-.06,.15-.09,.22-.09h.06c.09,0,.18,.04,.25,.13Zm-1.67-.01c-.21,0-.42,.15-.59,.39-.01-.03-.03-.07-.04-.1,0-.04-.02-.06-.02-.1,0-.65,.4-1.29,.79-1.29,.43,0,.73,.69,.78,1.16-.1,.12-.19,.28-.26,.46-.16-.29-.38-.51-.67-.51Zm-1.75-1.1c.22,0,.44,.46,.54,.9-.23,.01-.44,.25-.58,.57-.18-.21-.37-.32-.53-.28-.03,0-.06,.02-.08,.04,.02-.69,.37-1.23,.65-1.23Zm.76-.91c.32,0,.64,.53,.75,.98-.27,.22-.48,.66-.51,1.12-.1-.15-.23-.25-.37-.28-.09-.47-.33-1-.63-1,0,0-.01,0-.02,0,.15-.44,.49-.82,.78-.82Zm-1.44,2.27c.03-.06,.07-.09,.12-.1h.04c.12,0,.28,.11,.43,.31-.06,.17-.1,.35-.1,.54-.23,.04-.43,.1-.6,.2-.04-.36,0-.76,.11-.95Zm1.52,.81c-.29-.09-.62-.12-.94-.08,.04-.57,.35-1.11,.65-1.11,.23,0,.43,.27,.54,.59-.1,.17-.18,.38-.22,.61,0,0-.02,0-.03,0Zm-2.33-.34c-.51-.5-1.09-.97-1.52-1.22l-.04,.09c.53,.3,1.2,.88,1.73,1.44,.04,.07,.07,.15,.1,.22-.23-.05-.46-.05-.68-.02-1.17-1.25-2.81-2.59-4.06-3.3,1.18,.13,2.36,.67,3.56,1.38,.34,.45,.66,.93,.93,1.41Zm-.93,.11c.14,.14,.27,.28,.4,.41-.16,.03-.31,.06-.47,.13-.2-.14-.39-.27-.52-.38l-.06,.07c.14,.1,.31,.22,.5,.35-.09,.04-.19,.09-.28,.14-1.05-.85-2.33-1.82-3.06-2.29,1.03,.18,2.2,.72,3.5,1.57Zm3.5,.29s-.07-.02-.11-.03c.09-.55,.43-1.02,.77-1.02,.38,0,.66,.48,.75,.94-.44-.03-.86,0-1.19,.11h-.04s-.18,.01-.18,.01Zm4.81,7.04c-.75-.06-1.13-.06-1.42,.06-.03-.03-.05-.08-.08-.1,.86-.1,1.64-.3,2.29-.55,.15,.32,.26,.6,.34,.84-.26-.16-.62-.2-1.14-.24Zm-.78,2.54c-.16,.06-.53,.12-1.06,.1-.63-.03-1.17-.15-1.41-.32-.43-.26-.63-.91-.81-1.48-.11-.36-.22-.67-.36-.86,.49,.04,1.01,.07,1.59,.07,.33,0,.65-.01,.96-.04,.18,.1,.33,.23,.42,.41,.1,.26,.16,.56,.22,.85,.09,.45,.18,.92,.44,1.28Zm-5.21-.16c-.09-.04-.17-.11-.24-.18-.27-.3-.46-.75-.61-1.11-.03-.07-.06-.15-.09-.21-.16-.34-.28-.57-.42-.72,.14-.06,.28-.12,.42-.19,.22-.06,.5-.1,.9-.13,.2-.02,.37-.02,.53-.02,.21,.04,.43,.08,.66,.11,.19,.08,.33,.2,.4,.41,.04,.15,.1,.29,.15,.44,.06,.19,.13,.37,.2,.55,.14,.4,.32,.77,.59,1.02,0,0,.01,.02,.02,.02-.51,.16-1.95,.29-2.49,0Zm-4.07,1.11h-1.16c-.27-.09-.55-.25-.86-.53-.25-.25-.37-.6-.32-.97,.03-.34,.21-.63,.44-.78,.51-.33,.91-.54,1.38-.54,.05,.04,.06,.13,.09,.23,.01,.06,.03,.12,.06,.19,.16,.38,.88,1.25,1.53,1.6,.16,.1,.31,.16,.46,.21-.12,.05-.24,.1-.37,.16-.32,.13-.65,.28-.97,.37-.09,.02-.18,.04-.27,.06Zm-.22-3.11c.73,.2,1.66,.25,2.69-.12,.16,.12,.27,.33,.44,.71,.03,.07,.06,.13,.09,.21,.18,.44,.41,1.01,.81,1.33-.1,.01-.19,.04-.28,.06-1.14,.26-1.58,.37-2.29-.04-.63-.34-1.31-1.17-1.42-1.48-.01-.06-.03-.12-.04-.18-.03-.13-.06-.25-.15-.34,.02-.06,.07-.11,.16-.15Zm-1.21-3.35c0-.11-.07-.2-.17-.3h.01s-.01-.05-.01-.05c.04-.06,.25-.09,.62-.09,.28,.04,.45-.07,.59-.23,0,.53,.23,1.07,.85,1.35,.37,.18,.87,.45,1.53,.97,.43,.35,.92,.63,1.49,.84-2.63,1.68-4.76,.24-5.17-.08-.31-.29-.47-.65-.47-1.01,0-.45,.25-.82,.47-1.01,.16-.15,.28-.25,.28-.38Zm-.06-1.61c.21-.26,.41-.53,.57-.5l.03-.21c-.28-.04-.51,.26-.76,.57-.32,.4-.56,.67-.82,.56h0s-.04,0-.07,0c.26-.15,.44-.39,.57-.6,.13-.19,.25-.37,.37-.38l-.03-.21c-.21,.03-.35,.25-.5,.47-.2,.29-.42,.64-.87,.64-.06,0-.12-.01-.18-.01-.02,0-.05,0-.07,0,.23-.11,.46-.31,.6-.54l-.18-.12c-.26,.38-.7,.63-.92,.53v.02c-.19-.08-.36-.19-.48-.31-.22-.19-.31-.37-.31-.45,0-.03,0-.05,.01-.07h0v-.03s.01-.09,0-.13v-.19h-.21v.12h0s-.07-.03-.12-.04c-.09-.04-.19-.09-.34-.03-.03-.28,.06-.47,.15-.57,.1-.13,.25-.21,.4-.21h.03c.07-.03,.15-.04,.23-.06,.03,0,.07-.02,.11-.03-.05,.07-.1,.14-.14,.2-.03,.06-.06,.1-.09,.15l.18,.12s.06-.1,.09-.15c.1-.18,.22-.35,.37-.45v-.02s0-.01,0-.01c.19-.19,.51-.29,.91-.26,.53,.04,1.06,.28,1.32,.62,.25,.31,.6,.5,.99,.57,.06,.26,.13,.53,.2,.87,.04,.21-.06,.4-.16,.48-.09,.07-.18,.1-.26,.09h-.03c-.19,0-.38,.09-.57,.18-.16,.07-.35,.16-.43,.12l-.02,.02c-.06-.05-.11-.09-.18-.13,.22-.12,.42-.36,.62-.59Zm5.36,4.22c-.08,0-.16,.02-.23,.03,.03-.02,.06-.05,.1-.07,.04,.01,.09,.03,.14,.04Zm-11.9,30.9c1.15-1.14,2.04-2.57,2.1-3.87,.57,1.3,1.26,2.48,2.12,3.53,.01,.01,.02,.03,.04,.04-.56,1.17-1.15,2.15-1.79,2.97-.88-.78-1.7-1.67-2.46-2.67Zm.27-6.13c.26,0,.53,.07,.73,.28,.33,.27,.54,.59,.68,.93,.03,.08,.05,.15,.08,.23,.31,1.12-.24,2.44-1.01,3.46-.09-.16-.23-.26-.43-.28-.32-.01-.73,.22-.97,.7-.31-.44-.62-.89-.87-1.39-.81-1.2-.98-1.99,.19-3.17,.38-.37,1-.76,1.58-.76Zm-.74,5.49c.18-.43,.52-.68,.78-.66,.16,0,.26,.12,.31,.31h0c-.24,.32-.5,.6-.74,.84-.12-.16-.23-.33-.35-.49Zm-.29,6.08c-2.49,1.33-4.48,.84-5.22,.56-.78-.29-1.39-.76-1.55-1.22-.12-.35-.04-.65,.21-.85,.37-.29,1.16-.35,2.1,.21l.26,.16-.12-.29c-.39-.96-.75-1.82-1.06-2.52,.95,.72,1.81,.94,2.57,.86,.86,1.17,1.81,2.19,2.82,3.1Zm-7.52-6.54c.65,0,1.22,.92,1.47,1.53,.13,.32,.29,.69,.47,1.11,.28,.63,.62,1.41,.97,2.27-.82-.4-1.61-.43-2.08-.04-.18,.15-.29,.34-.32,.56-.51-1.07-.94-2.92-1.16-4.03-.22-.67-.23-1.11,.43-1.35,.07-.03,.16-.04,.23-.04ZM75.35,15.62c-.18-.15-.34-.28-.62-.34l-.1-.03,.06,.09c.1,.16,.04,.37-.03,.63-.07,.22-.13,.45-.13,.73h-.01c-.32-.45-.63-.88-.45-1.29l.07-.16-.12,.12c-.12,.09-.26,.12-.44,.16-.19,.04-.41,.1-.62,.23,.12-.23,.38-.5,.56-.67l.06-.06-.07-.03c-.22-.07-.66,.04-1.13,.18,.18-.34,.47-.5,.89-.44h.1s-.06-.07-.06-.07c-.26-.4-.79-.62-1.39-.59,.44-.43,.92-.38,1.55-.18l.1,.03-.04-.1c-.25-.53-.07-.94,.1-1.32,.04-.12,.1-.23,.15-.37,.13,.25,.29,.72,.29,1.01h-.04c0,.18,0,.62-.06,.75l.09,.04c.06-.12,.07-.44,.06-.67l.04-.07c.18-.29,.67-.87,1.17-1.1-.09,.12-.13,.29-.18,.47-.04,.16-.1,.33-.16,.48h-.01c-.16,.14-.44,.65-.44,1.07h.09c0-.39,.25-.85,.41-.99h.01c.38-.37,.87-.63,1.25-.68-.28,.15-.4,.45-.53,.76-.1,.22-.2,.47-.36,.67l-.02-.03c-.19,.13-.44,.34-.51,.66l.09,.03c.04-.16,.14-.29,.25-.4l.05,.04c.07-.06,.15-.13,.21-.21,.28-.21,.7-.28,1.07-.32-.25,.18-.53,.47-.75,.69-.07,.06-.13,.12-.18,.18l-.09,.09h.12c.22,0,.6,.19,.79,.41-.31-.06-.92,0-1.09,.06v.09c.23,0,.4,.22,.57,.47,.09,.12,.18,.25,.28,.34-.43-.03-.65-.21-.85-.37Z"/>
  <path class="cls-6" d="M76.88,17.52c.11,.19,.2,.42,.24,.64,.69-.89,1.65-2.04,2.13-2.58l.07,.06c-.49,.55-1.49,1.74-2.18,2.65,0,.05,.01,.1,.01,.14,0,.03-.01,.05-.01,.07,0,0,0,0,.01,.02,.06,.09,.09,.24,.11,.4,.11-.11,.25-.25,.41-.41,.5-.72,1.18-1.61,1.92-2.5-.07-.34-.17-.68-.26-1.02-1.14,.9-1.95,1.86-2.46,2.53Z"/>
  <path class="cls-6" d="M79.31,18.75c-.56,.57-1.06,1.08-1.45,1.49,.06,0,.11,.01,.17,.02,.51-.36,1.26-.83,1.93-1.18,0-.18-.01-.37-.03-.55-.21,.07-.41,.14-.62,.22Z"/>
  <path class="cls-6" d="M77.28,19.03c.02,.27,0,.57-.06,.81-.01,.12-.05,.24-.09,.35v.05c.19-.01,.39-.02,.57,0,0,0,.02,0,.03,0,.54-.57,1.33-1.37,2.17-2.21-.02-.16-.05-.32-.07-.49-.65,.56-1.85,1.68-2.47,2.49l-.07-.06c.63-.83,1.88-1.98,2.53-2.54-.02-.18-.05-.35-.08-.53-1.16,.85-2.04,1.71-2.45,2.14Z"/>
  <path class="cls-6" d="M72.06,16.59c.11,.15,.22,.32,.33,.49,.04-.09,.08-.18,.13-.26-.24-.61-.48-1.21-.66-1.69l.09-.03c.17,.46,.4,1.03,.63,1.61,.04-.06,.09-.11,.13-.16,0-.01,0-.03,0-.04,.02-.19,.07-.37,.14-.53,0-.01-.01-.02-.02-.04l-.1,.07,.03-.15s.01-.02,.01-.03c-.1-.21-.2-.42-.31-.61-.07,.02-.13,.04-.2,.05l-.09,.03,.03-.09c.04-.09,.08-.15,.13-.22-.18-.3-.36-.58-.55-.83,0,0,0,0-.01,0h-.12s.07-.07,.07-.07c0,0,0,0,0,0-.55-.72-1.15-1.24-1.79-1.54,.69,1.03,1.47,2.34,2.12,4.03Z"/>
  <path class="cls-6" d="M71.26,19.4c.09,.09,.17,.18,.25,.27h.02s.05-.02,.07-.04c-.04-.31,0-.65,.07-.88-.4-.67-.84-1.49-1.27-2.31-1.15-1-2.31-1.63-3.45-1.87,1.31,.84,3.26,2.77,4.3,4.83Z"/>
  <path class="cls-6" d="M71.71,18.65s0-.02,.01-.03c0,0,0,0,0,0,0-.01,0-.02,0-.04,0-.36,.09-.7,.22-.95-.25-.52-.55-1.03-.71-1.28l.07-.06c.16,.24,.45,.73,.69,1.24,.1-.15,.21-.26,.33-.3,0,0,0-.01,0-.02-1.19-1.87-2.16-2.58-2.83-3.06-.09-.07-.19-.13-.28-.19,.13,.25,.29,.57,.47,.92,.6,1.17,1.37,2.68,2.01,3.77Z"/>
  <path class="cls-6" d="M78.16,20.27c.12,.02,.24,.04,.35,.07,.47-.3,.97-.59,1.47-.86,0-.1-.01-.2-.02-.3-.6,.32-1.29,.73-1.8,1.1Z"/>
  <path d="M77.29,19.95l.07,.06c.62-.81,1.82-1.93,2.47-2.49,0-.04-.01-.07-.02-.11-.64,.56-1.89,1.71-2.53,2.54Z"/>
  <path class="cls-6" d="M74.79,15.6s0,0,0,0c.04-.07,.09-.11,.14-.16-.05-.03-.1-.06-.16-.08,.02,.07,.02,.16,.01,.24Z"/>
  <path class="cls-6" d="M73.04,15.83c-.11,.19-.19,.41-.23,.64,.14-.12,.28-.19,.43-.19,.17,0,.33,.12,.47,.29,.09-.19,.2-.34,.33-.46-.09-.19-.14-.39-.09-.59,0,0,0,0-.01-.01-.1,.05-.23,.08-.35,.11-.18,.04-.36,.11-.54,.21Z"/>
  <path class="cls-6" d="M75.26,15.65c-.08-.07-.16-.12-.25-.18-.05,.04-.1,.1-.15,.16-.06,.09-.11,.21-.14,.33,0,0,0,0,0,.01,0,.01,0,.02,0,.04,.17,.09,.31,.27,.42,.47,.17-.29,.41-.5,.65-.5,.05,0,.1,.02,.15,.03,0,0,0-.01,0-.02-.29-.07-.48-.21-.66-.35Z"/>
  <path class="cls-6" d="M74.08,16.2c-.12,.12-.23,.28-.3,.47,.13,.18,.23,.41,.29,.62,.09-.06,.19-.1,.3-.1,.13,0,.24,.05,.34,.13,.06-.15,.14-.28,.23-.4,.03-.12,.07-.23,.12-.34-.09-.21-.22-.39-.38-.49-.06,.22-.11,.45-.09,.74l.04,.21-.1-.15s-.07-.1-.1-.15c-.13-.18-.26-.37-.36-.56Z"/>
  <path class="cls-6" d="M72.46,17.2s.01,0,.02,0c.31,0,.54,.53,.63,1,.14,.03,.27,.13,.37,.28,.03-.46,.24-.9,.51-1.12-.11-.45-.43-.98-.75-.98-.29,0-.63,.39-.78,.82Z"/>
  <path class="cls-6" d="M75.77,16.08c-.25,0-.52,.3-.67,.68,.14-.12,.3-.2,.45-.2,.26,0,.52,.27,.69,.6,.05-.03,.11-.04,.16-.04,.05,0,.09,.01,.14,.03-.08-.46-.37-1.08-.77-1.08Z"/>
  <path class="cls-6" d="M74.79,17.4c.23,.24,.39,.62,.44,.94,.03-.03,.05-.06,.08-.08,.12-.09,.23-.12,.34-.09,0,0,.01,0,.02,0,.06-.43,.25-.81,.49-.97-.15-.31-.38-.56-.61-.56-.28,0-.6,.32-.76,.75Z"/>
  <path class="cls-6" d="M74.89,18.89c.07-.17,.16-.33,.26-.46-.05-.47-.35-1.16-.78-1.16-.4,0-.79,.65-.79,1.29,0,.04,.01,.06,.02,.1,.01,.03,.03,.06,.04,.1,.16-.23,.37-.39,.59-.39,.28,0,.51,.22,.67,.51Z"/>
  <path class="cls-6" d="M71.82,18.51s.05-.03,.08-.04c.16-.04,.35,.07,.53,.28,.14-.33,.36-.56,.58-.57-.09-.44-.32-.9-.54-.9-.28,0-.63,.54-.65,1.23Z"/>
  <path class="cls-6" d="M76.41,17.21c-.28,0-.58,.47-.65,1,.07,.02,.15,.06,.21,.13,.15,.17,.24,.45,.28,.73,.13-.29,.29-.53,.47-.64,.09-.06,.18-.07,.26-.06,.03,0,.06,.02,.09,.05,0-.48-.35-1.2-.66-1.2Z"/>
  <path class="cls-6" d="M77.08,18.59c-.03-.06-.07-.1-.12-.1-.01-.01-.03-.01-.04-.01-.04,0-.09,.01-.15,.04-.17,.1-.37,.4-.51,.79,0,.09,0,.19,0,.27,0,.04-.02,.08-.02,.12,.28,.11,.51,.25,.67,.41l.04,.04,.09,.06c.05-.11,.08-.24,.1-.37,.12-.4,.09-1-.06-1.25Z"/>
  <path class="cls-6" d="M75.64,18.26h-.06c-.07,0-.15,.03-.22,.09-.18,.13-.33,.38-.43,.65,.06,.13,.1,.27,.13,.41,.37,.04,.73,.12,1.06,.24,0-.04,.02-.06,.03-.1,.04-.35-.04-.89-.26-1.16-.07-.09-.16-.13-.25-.13Z"/>
  <path class="cls-6" d="M71.69,19.59c.17-.1,.37-.16,.6-.2,0-.19,.05-.37,.1-.54-.15-.2-.31-.31-.43-.31h-.04s-.09,.04-.12,.1c-.11,.19-.15,.59-.11,.95Z"/>
  <path class="cls-6" d="M73.57,18.86c-.12-.32-.31-.59-.54-.59-.3,0-.62,.55-.65,1.11,.32-.04,.65,0,.94,.08,0,0,.02,0,.03,0,.04-.22,.12-.43,.22-.61Z"/>
  <path class="cls-6" d="M73.74,19.53h.04c.33-.13,.76-.16,1.19-.12-.1-.46-.37-.94-.75-.94-.34,0-.68,.48-.77,1.02,.03,.01,.08,.02,.11,.03h.18Z"/>
  <polygon class="cls-6" points="75.51 11.97 75.5 11.98 75.5 11.98 75.51 11.97"/>
  <path class="cls-6" d="M76.55,12.4s-.01,0-.01,0h0s0,0,.01,0Z"/>
  <path class="cls-6" d="M75.71,13.46c-.04,.08-.07,.16-.12,.24,.04-.08,.08-.16,.12-.24Z"/>
  <path class="cls-6" d="M75.92,15.65c-.18-.25-.34-.47-.56-.47v-.09c.15-.06,.76-.12,1.07-.06-.19-.22-.57-.41-.79-.41h-.12l.09-.09c.04-.06,.1-.12,.18-.18,.22-.22,.5-.51,.75-.69-.37,.04-.79,.12-1.07,.32-.06,.07-.13,.15-.21,.21l-.05-.04c-.11,.11-.2,.24-.25,.4l-.09-.03c.07-.32,.32-.53,.51-.66l.02,.03c.16-.2,.26-.45,.36-.67,.13-.31,.25-.62,.53-.76-.38,.04-.87,.31-1.25,.69h-.01c-.16,.14-.41,.6-.41,.98h-.09c0-.43,.28-.94,.44-1.09h.01c.07-.14,.12-.3,.16-.47,.04-.18,.09-.35,.18-.47-.5,.23-1,.81-1.17,1.1l-.04,.07c0,.23,0,.54-.06,.67l-.09-.04c.06-.13,.06-.57,.06-.75h.04c0-.29-.16-.76-.29-1.01-.04,.13-.1,.25-.15,.37-.18,.38-.35,.79-.1,1.32l.04,.1-.1-.03c-.63-.21-1.11-.25-1.55,.18,.6-.03,1.13,.19,1.39,.59l.06,.09h-.1c-.43-.07-.72,.09-.89,.43,.47-.13,.91-.25,1.13-.18l.07,.03-.06,.06c-.18,.18-.44,.44-.56,.67,.21-.13,.43-.19,.62-.23,.18-.04,.32-.07,.44-.16l.12-.12-.07,.16c-.18,.41,.13,.84,.45,1.28h.01c0-.26,.06-.5,.13-.72,.07-.26,.13-.47,.03-.63l-.06-.09,.1,.03c.28,.06,.44,.19,.62,.34,.21,.16,.43,.34,.85,.37-.1-.09-.19-.22-.28-.34Z"/>
  <path class="cls-5" d="M66.14,25c0,.37,.16,.72,.47,1.01,.41,.32,2.55,1.76,5.17,.08-.57-.21-1.06-.49-1.49-.84-.66-.51-1.16-.79-1.53-.97-.62-.28-.85-.82-.85-1.35-.13,.16-.31,.28-.59,.23-.37,0-.57,.03-.62,.09,0,0,0,.01,.01,.04h-.01c.1,.11,.17,.2,.17,.31,0,.13-.12,.23-.28,.38-.22,.19-.47,.56-.47,1.01Z"/>
  <path class="cls-5" d="M79.34,25.89c.22,.48,.37,.86,.44,1.21,.04,.09,.12,.19,.22,.27v-1.81c-.2,.11-.42,.22-.66,.32Z"/>
  <path class="cls-5" d="M66.21,22.58c.07,.04,.12,.09,.18,.13l.02-.02c.07,.04,.26-.04,.43-.12,.19-.09,.38-.18,.57-.18h.03c.09,.01,.18-.01,.26-.09,.1-.09,.21-.28,.16-.48-.07-.33-.14-.6-.2-.87-.39-.07-.74-.26-.99-.57-.26-.34-.79-.57-1.32-.62-.4-.03-.72,.07-.91,.26h-.01s.01,.03,.01,.03c-.15,.1-.26,.28-.37,.45-.03,.04-.06,.1-.09,.15l-.18-.12s.06-.09,.09-.15c.04-.07,.09-.14,.14-.2-.04,0-.07,.02-.11,.03-.09,.01-.16,.03-.23,.06h-.03c-.15,0-.29,.07-.4,.21-.09,.1-.18,.29-.15,.57,.15-.06,.25-.01,.34,.03,.04,.01,.07,.03,.12,.04h0v-.12h.21v.19s0,.09,0,.13v.03h0s-.01,.04-.01,.07c0,.09,.09,.26,.31,.45,.13,.12,.29,.23,.48,.31v-.02c.23,.1,.67-.15,.93-.53l.18,.12c-.14,.23-.37,.42-.6,.54,.02,0,.05,0,.07,0,.06,0,.12,0,.18,.01,.45,0,.67-.35,.87-.64,.15-.22,.29-.44,.5-.47l.03,.21c-.12,.01-.23,.19-.37,.38-.14,.2-.31,.45-.57,.6,.02,0,.05,0,.07,.02h0c.26,.11,.5-.17,.82-.57,.25-.31,.48-.62,.76-.57l-.03,.21c-.16-.03-.37,.23-.57,.5-.19,.23-.4,.47-.62,.59Zm-1.76-1.76c.07,.07,.28,0,.35,0,.29,0,.35,.43,.5,.43-.28,0-.63,.13-.7-.07-.07-.07-.15-.21-.15-.35Zm.85-.13c.12,.12,.29,.18,.41,.18v.2s.01,0,.01,0h-.01c-.16,0-.39-.08-.56-.23-.19-.19-.28-.16-.41-.1-.06,.03-.13,.06-.22,.06v-.21s.09-.01,.13-.04c.15-.06,.34-.15,.65,.15Z"/>
  <path class="cls-5" d="M76.92,20.86l-.1-.04,.06-.1c.04-.06,.05-.18,.06-.32l-.04-.03c-.11,.36-.32,.86-.45,1.13l-.03,.04h-.04c-.22,.06-.6,.16-.91,.25-.18,.04-.32,.09-.43,.12h-.06s-.04-.03-.04-.03c-.41-.47-.82-.97-1.29-1.17l-.1-.04,.04-.1c.12-.24,.13-.57,.13-.84h-.06c.02,.25-.04,.54-.1,.78-.01,.04-.03,.1-.04,.15v.03h-.01c-.23,.25-.81,.53-1.23,.67h-.09s-.04-.03-.04-.03c-.13-.13-.53-.32-.76-.32h-.1v-.1c0-.25,.06-.71,.17-1.03h-.02c-.1,.19-.16,.54-.16,.94v.12h-.12c-.79-.09-1.73,.13-2.11,.4l-.16,.12v-.68l-.07,.03-.04-.03c-.18-.09-.6,.04-.85,.18,.03,.07,.06,.15,.09,.21,.26,.63,.51,1.22,.38,1.75-.07,.18-.06,.35,.03,.54,.15,.29,.44,.53,.67,.6h.01s.1,.07,.1,.07c.34,.21,.81,.48,1.38,.92,1.16,.87,2.65,1.25,5,1.25,1.91,0,3.52-.49,4.45-1.07v-1.51c-.62,.39-1.63,.8-1.67,.81l-.07,.04-.04-.09c-.34-.75-1.17-2.13-1.61-2.8l-.03-.04v-.04c.04-.1,.09-.21,.13-.31,.03-.09,.09-.21,.09-.23v-.16l.15,.07c1.02,.48,2.36,1.4,3.07,2.24v-.11c-.77-.82-2.09-1.83-3.08-2.2Zm-3.46,.03l.06-.04,.06,.04c.26,.19,.85,.7,1.07,1.01v.03s.01,.03,.01,.03c0,.59-.18,2.17-.26,2.93v.25h-.1c-.62,0-1.53-.15-2.02-.44l-.06-.03v-.06c.07-1.11,.13-2.26,0-2.92v-.09s.07-.03,.07-.03c.37-.15,.85-.43,1.17-.69Zm-1.45,.56l.04,.03v.06c.07,.7,0,2.46-.07,2.9v.16l-.15-.1c-1-.76-2.41-1.69-3.07-1.88l-.12-.03,.06-.12c.06-.12,.13-.59,.13-.79v-.06l.04-.03c.63-.4,2.07-.72,3.12-.15Zm5.97,3.02l.06,.12-.13,.03c-.76,.22-2.01,.53-2.87,.53-.09,0-.16,0-.25-.01h-.12s.01-.13,.01-.13c.15-.98,.21-2.36,.21-2.86v-.09h.09c.22-.06,.6-.16,.91-.25,.18-.04,.32-.09,.43-.12h.07s.04,.04,.04,.04c.34,.54,1.19,2.02,1.55,2.74Z"/>
  <path class="cls-9" d="M77.14,20.43c0,.06-.01,.16-.03,.25,.94,.38,2.12,1.27,2.89,2.05v-1.44c-.85-.62-1.71-.93-2.86-.86Z"/>
  <path class="cls-9" d="M76.71,20.2c-.54-.48-1.99-.75-2.8-.51,0,.26-.01,.6-.12,.87,.45,.23,.85,.69,1.23,1.13,.09-.03,.22-.06,.35-.1,.29-.07,.65-.18,.88-.23,.15-.31,.37-.82,.45-1.14Z"/>
  <path class="cls-9" d="M73.31,20.42c.06-.23,.15-.53,.12-.73-.53-.23-1.41-.18-1.79,.13-.1,.25-.18,.69-.19,.97,.28,.04,.6,.21,.76,.32,.38-.13,.87-.38,1.07-.57,.01-.03,.01-.07,.03-.12Z"/>
  <path class="cls-9" d="M71.18,19.85c-.7-.13-1.45,.15-2.13,.81v.41c.48-.23,1.31-.4,1.97-.35,.01-.35,.06-.66,.16-.87Z"/>
  <path class="cls-9" d="M76.96,21.17s-.04,.09-.06,.16c-.04,.09-.07,.18-.1,.25,.44,.66,1.19,1.94,1.55,2.68,.43-.18,1.19-.51,1.63-.81-.62-.82-1.97-1.77-3.02-2.29Z"/>
  <path d="M76.93,20.93l-.15-.07v.16s-.06,.15-.09,.23c-.04,.1-.09,.21-.12,.31v.04s.01,.04,.01,.04c.44,.67,1.28,2.05,1.61,2.8l.04,.09,.07-.04s1.05-.42,1.67-.81v-.52c-.7-.83-2.04-1.76-3.07-2.24Zm3.05,2.52c-.44,.29-1.2,.63-1.63,.81-.37-.75-1.11-2.02-1.55-2.68,.03-.07,.06-.16,.1-.25,.01-.07,.04-.12,.06-.16,1.06,.51,2.41,1.47,3.02,2.29Z"/>
  <path class="cls-9" d="M76.29,21.92c-.09,.03-.21,.06-.34,.09-.28,.07-.6,.18-.84,.22-.01,.56-.09,1.79-.21,2.71,.79,.03,2.01-.26,2.82-.47-.37-.72-1.1-1.99-1.44-2.55Z"/>
  <path d="M76.38,21.67h-.07c-.1,.04-.25,.09-.43,.13-.31,.09-.69,.19-.91,.23h-.09v.1c0,.5-.06,1.88-.21,2.86v.12s.1,.01,.1,.01c.09,.01,.16,.01,.25,.01,.87,0,2.11-.31,2.87-.53l.13-.03-.06-.12c-.37-.72-1.22-2.2-1.55-2.74l-.04-.06Zm1.35,2.8c-.81,.21-2.02,.5-2.82,.47,.12-.92,.19-2.16,.21-2.71,.23-.04,.56-.15,.84-.22,.13-.03,.25-.06,.34-.09,.34,.56,1.07,1.83,1.44,2.55Z"/>
  <path class="cls-9" d="M73.53,21.11c-.31,.23-.73,.48-1.07,.63,.1,.67,.04,1.72-.01,2.82,.44,.22,1.2,.37,1.76,.38v-.07c.1-.75,.26-2.27,.28-2.87-.19-.25-.66-.66-.95-.88Z"/>
  <path d="M72.28,21.58l-.09,.03v.09c.15,.66,.09,1.8,.01,2.92v.06l.06,.03c.5,.29,1.41,.44,2.02,.44h.1v-.25c.09-.76,.26-2.35,.26-2.93v-.06c-.23-.31-.82-.82-1.09-1.01l-.06-.04-.06,.04c-.32,.26-.81,.54-1.17,.69Zm2.2,.41c-.01,.6-.18,2.13-.26,2.87v.07c-.57-.01-1.33-.16-1.77-.38,.06-1.1,.12-2.14,.01-2.82,.34-.15,.76-.4,1.07-.63,.29,.22,.76,.63,.95,.88Z"/>
  <path class="cls-9" d="M71.89,21.59c-1-.5-2.29-.18-2.82,.13-.01,.19-.07,.51-.12,.72,.75,.26,2.08,1.17,2.87,1.77,.06-.59,.1-1.99,.06-2.63Z"/>
  <path d="M68.88,21.59l-.04,.03v.06c0,.21-.07,.67-.13,.79l-.06,.12,.12,.03c.66,.19,2.07,1.11,3.07,1.88l.15,.1v-.16c.07-.44,.15-2.2,.07-2.9v-.06l-.04-.03c-1.06-.57-2.49-.25-3.12,.15Zm2.95,2.63c-.79-.6-2.13-1.51-2.87-1.77,.04-.21,.1-.53,.12-.72,.53-.31,1.82-.63,2.82-.13,.04,.63,0,2.04-.06,2.63Z"/>
  <path d="M64.6,21.17c.07,.21,.43,.07,.7,.07-.15,0-.21-.43-.5-.43-.07,0-.28,.07-.35,0,0,.15,.07,.28,.15,.35Z"/>
  <path d="M65.73,21.07s-.01,0-.01,0h0s.01,0,.01,0Z"/>
  <path d="M64.53,20.79c.09,0,.16-.03,.22-.06,.13-.06,.22-.09,.41,.1,.17,.16,.4,.23,.56,.23v-.2c-.12,0-.29-.06-.41-.18-.31-.29-.5-.21-.65-.15-.04,.03-.09,.04-.13,.04v.21Z"/>
  <path class="cls-2" d="M80,50.5v-.37l-.37,.27c.12,.03,.24,.06,.37,.1Z"/>
  <path class="cls-2" d="M76.48,40.35c-.85,.85-1.83,1.41-2.46,1.41-.7,0-1.69-.56-2.45-1.41-.98-.98-2.46-1.33-4.15,0-1.61,1.33-2.6,.78-3.45,0-.83-.76-1.53-1.04-3.07-1.05v3.69c.96-.15,1.47,.13,2.41,1,.88,.77,1.92,.74,3.14,.38l.96-2.97,.74,2.27c1.14-.53,2.26-.92,3.46,.45,.43,.48,1.33,1.19,2.39,1.19,.98,0,1.97-.69,2.39-1.19,1.17-1.39,2.33-.98,3.49-.43l.12-.36v-3.38c-1.41-.85-2.72-.48-3.52,.39Z"/>
  <path class="cls-2" d="M67.93,58.27c.46-.34,1.83-.48,3.06,.13l.85-2.63-2.49-1.8c-.75,.12-1.55,.4-2.27,.74-1.44,.61-2.2,.63-3.53,.31,.35,.57,.71,1.12,1.13,1.63,.6,.74,1.27,1.41,1.99,2.01,.48-.15,.82-.07,1.27-.39Z"/>
  <path class="cls-2" d="M76.19,55.77l.86,2.64c1.14-.57,2.39-.49,2.95-.21v-3.9c-.44-.15-.89-.28-1.31-.34l-2.49,1.81Z"/>
  <path class="cls-2" d="M71.96,58.84c.8,.33,1.31,.42,2.07,.42s1.26-.09,2.05-.41l-2.06-1.49-2.05,1.49Z"/>
  <path class="cls-2" d="M74.01,48.79c-.91,0-2.52-.91-2.99-1.13-.17-.1-.33-.17-.49-.23l-.94,.68,.84,2.58c.06,.03,.11,.05,.16,.08,.81,.47,1.71,.82,2.55,.97l.86-2.66,.86,2.66c.84-.15,1.75-.5,2.58-.97,.05-.03,.1-.04,.15-.07l.84-2.59-.96-.7c-.17,.06-.35,.14-.53,.25-.41,.22-2.1,1.13-2.95,1.13Z"/>
  <path class="cls-2" d="M64.92,51.49c.55,0,1.16-.12,1.81-.45,.63-.3,1.17-.53,1.69-.64l-1-.72-2.5,1.81Z"/>
  <path class="cls-2" d="M63.28,51.04c.25,.16,.55,.28,.88,.36l.94-2.89c-.6,0-1.2-.13-1.66-.51-1.08-.88-1.64-.86-2.36-.85,.12,1.15,.31,2.23,.57,3.25,.86-.17,1.21,.37,1.63,.64Z"/>
  <path class="cls-10" d="M71.39,30.99c-.29,.04-.6,.18-.75,.37,.19-.16,.47-.25,.74-.29,0-.03,0-.05,.02-.08Z"/>
  <polygon class="cls-10" points="63.76 37.68 63.75 37.68 63.75 37.7 63.76 37.68"/>
  <path class="cls-10" d="M75.54,34.43c-.84,.16-1.7,.32-2.48,.32h-.43s.04,.03,.05,.03h0s.35,.01,.35,.01c1.54,0,3.37-.63,4.91-.63,.84,0,1.49,.16,2.05,.3v-.05c-.57-.13-1.21-.29-2.03-.29-.76,0-1.61,.16-2.43,.31Z"/>
  <path class="cls-10" d="M75.99,31.7c-.2,.08-.44,.1-.64,.1-.6,0-.95,.14-1.14,.32,.23-.16,.59-.27,1.13-.27,.28,0,.5-.06,.65-.15Z"/>
  <path class="cls-10" d="M78.56,30.77s.03-.03,.05-.05c-.25,.09-.56,.09-.87,.1-.34,.01-.66,.01-.87,.13-.19,.1-.32,.2-.42,.3,.1-.08,.21-.16,.37-.24,.43-.24,1.22-.07,1.74-.24Z"/>
  <path class="cls-10" d="M68.47,33.02s-.07-.07-.1-.11c-.04,0-.07,0-.09,.02-.03,.01-.05,.05-.08,.09,.08-.04,.17-.05,.27,0Z"/>
  <path class="cls-10" d="M77.8,32.07c.2-.04,.33,.25,.56,.41,0,0,.02,0,.03,0-.13-.06-.22-.18-.31-.26-.08-.09-.14-.14-.2-.16-.03,0-.05,.02-.08,.02h0Z"/>
  <path class="cls-10" d="M79.37,31.52s.03,0,.04,0c-.03-.03-.06-.06-.1-.07-.25-.14-.7-.13-1.21,0-.03,.02-.07,.04-.1,.06,.51-.15,1.05-.19,1.36,.01Z"/>
  <path class="cls-10" d="M76.24,33.31c-.88,0-1.4-.1-1.63-.32,.16,.23,.63,.35,1.62,.35,1.24,0,1.94-.34,3.77-.35v-.03c-.97,0-1.62,.1-2.22,.2-.5,.07-.97,.15-1.54,.15Z"/>
  <path class="cls-10" d="M76.13,31.62s-.05,.04-.08,.06c.02-.01,.05-.02,.07-.03,0,0,.01-.02,.01-.02Z"/>
  <path class="cls-10" d="M63.3,32.8s-.02,.03-.03,.05c.02,0,.03-.03,.06-.03-.01,0-.01,0-.03-.01Z"/>
  <path class="cls-10" d="M67.44,36.74c-.21,.1-.41,.22-.5,.38l-.19,.29c.23-.12,.46-.26,.64-.41,.03-.1,.04-.18,.04-.26Z"/>
  <path class="cls-10" d="M71.96,31.47s.02-.04,.03-.06c-.19,.1-.41,.13-.56,.13h0s0,.06,0,.07c.15,0,.37-.04,.54-.14Z"/>
  <path class="cls-10" d="M72.17,31.97s.02-.06,.04-.09c-.12,0-.25,.01-.28,.04h0s-.05,.09-.08,.12c.05-.05,.18-.06,.33-.07Z"/>
  <path class="cls-10" d="M72.68,32.55s0-.02,0-.03v-.03c-.03-.06-.06-.1-.12-.13-.09-.04-.24-.02-.4,.04-.03,.04-.06,.09-.12,.12,.23-.12,.5-.13,.63,.03Z"/>
  <path class="cls-10" d="M70.14,30.88s0-.02-.01-.03c-.22,.12-.46,.29-.59,.45,.17-.17,.39-.32,.6-.42Z"/>
  <path class="cls-10" d="M70.54,31.47l-.13-.05c.03,.07,.04,.13,.02,.19,.02-.05,.07-.09,.1-.14Z"/>
  <path class="cls-10" d="M68.75,31.89s0-.03,0-.05l-.04-.04c-.06-.06-.21-.1-.34-.09-.07,.01-.12,.04-.15,.09,.18-.07,.42,0,.52,.09Z"/>
  <path class="cls-10" d="M69.4,31.47l-.07-.02c0,.06,0,.11-.01,.16,.01-.05,.05-.09,.08-.14Z"/>
  <path class="cls-10" d="M72.5,34.73c-.08-.05-.13-.11-.17-.17,.03,.07,.08,.13,.14,.18,.03,0,.06,.02,.1,.02h.01s-.06-.01-.06-.01h-.03Z"/>
  <path class="cls-10" d="M65.38,33.31c.47,.74,1.25,1.33,1.93,1.45,.02-.03,.04-.05,.06-.08-.7-.11-1.53-.7-2.04-1.49-.04-.04-.07-.09-.1-.14,.02,.09,.07,.18,.15,.26Z"/>
  <path class="cls-10" d="M65.21,35.15s-.03,.02-.04,.04c.02-.01,.04-.03,.06-.04,0,0-.01,0-.02,0Z"/>
  <path class="cls-10" d="M67.33,37.22s-.02,.02-.03,.02c.01,0,.02-.02,.03-.02,0,0,0,0,0,0Z"/>
  <path class="cls-10" d="M64.78,34.63s-.04,.03-.07,.06c-.04,.03-.09,.07-.13,.12,0,0,.01,0,.02,0,.09-.08,.18-.16,.27-.16-.04,0-.06-.01-.1-.01Z"/>
  <path class="cls-10" d="M65.73,38.02c.34-.12,.94-.37,1.42-.68-.47,.29-1.02,.51-1.33,.62h-.03c-.06,0-.09,.01-.15,.03-.06,.01-.12,.04-.21,.04-.03,0-.06,0-.09,0v.06s.02,0,.03,0c.15,0,.21-.07,.35-.07Z"/>
  <path class="cls-10" d="M79.14,34.9s-.06,0-.09,0c.23,.04,.57,.29,.95,.52v-.03c-.11-.07-.22-.14-.32-.2-.21-.13-.4-.24-.54-.29Z"/>
  <path class="cls-10" d="M79.63,34.98s.09,.06,.13,.09c.07,.05,.16,.1,.24,.15v-.15c-.06-.01-.12-.03-.18-.04-.07-.01-.13-.03-.19-.04Z"/>
  <path class="cls-10" d="M64.91,32s-.02,.02-.02,.07c0,0,0,0,0,.01,.01,0,.02-.01,.04-.01,0-.02-.01-.04-.01-.06Z"/>
  <path class="cls-10" d="M64.1,37.32c.13,.01,.27,.1,.36,.27,.09,.13,.29,.31,.51,.41,.03,0,.06-.01,.1-.02-.29-.1-.55-.33-.65-.5-.1-.19-.23-.26-.33-.25,0,0,0,.01,0,.03,.02,.02,0,.03,0,.05Z"/>
  <path class="cls-10" d="M63.62,32.11c.07,.07,.13,.18,.19,.25h.01s-.01-.07-.02-.09h0s-.09-.1-.12-.16c-.03-.04-.06-.1-.09-.12h-.01c-.03-.06-.06-.06-.07-.06-.03,0-.07,.02-.1,.04,.01,.02,.02,.04,.03,.06,.07,0,.14,0,.19,.07Z"/>
  <path class="cls-10" d="M64.45,31.65c0-.05-.02-.1-.05-.15,0,.02-.01,.04-.02,.07,.03,.02,.05,.05,.07,.08Z"/>
  <path class="cls-10" d="M65.42,32.21s0,0,0-.01c0-.03-.02-.03-.03-.05,0,0-.02,.01-.02,.02,.02,.02,.04,.02,.05,.05Z"/>
  <path class="cls-10" d="M73.09,38.55h0s.02,0,.02,0c0,0-.01,0-.02,0Z"/>
  <path class="cls-10" d="M64.4,34.04s-.06,.01-.09,.03c-.03,.01-.04,.03-.07,.03,.01,0,.02,.02,.03,.02,.06-.03,.12-.05,.19-.05-.02,0-.04-.02-.06-.03Z"/>
  <path class="cls-10" d="M64.68,32.49s.02-.08,.03-.13h-.09s.02,.06,.02,.09l.04,.04Z"/>
  <path class="cls-10" d="M60.9,30.28v9.02c1.54,.01,2.23,.29,3.07,1.05,.85,.78,1.83,1.33,3.45,0,1.69-1.33,3.17-.98,4.15,0,.76,.85,1.75,1.41,2.45,1.41,.63,0,1.61-.56,2.46-1.41,.8-.87,2.11-1.24,3.52-.39v-2.84c-.83-.09-1.69-.27-2.23-.45h-.03s-.01-.03-.01-.03c-.01-.01-.04-.03-.06-.04-.03,.09-.09,.16-.13,.23-.06,.1-.12,.19-.12,.29,0,.35,.15,.56,.48,.67l.12,.04-.07,.12c-.12,.19-.28,.29-.45,.29-.1,0-.21-.03-.29-.09-.03,.04-.06,.09-.09,.13-.07,.09-.13,.19-.13,.31l-.09,.02s-.02,.04-.02,.07c-.01-.02-.02-.04-.04-.06h-.07s-.06-.1-.1-.15h-.01c-.15,.22-.37,.4-.62,.5-.13,.05-.24,.06-.35,.04,0,0-.01,.02-.02,.02v-.02s-.04,0-.06,0c-.21,.15-.43,.19-.63,.15-.13-.03-.25-.1-.32-.21-.18,.09-.38,.09-.53,.03-.01,.04-.04,.07-.07,.09-.04,.04-.07,.07-.1,.18,0,.07-.04,.15-.13,.19-.03,.02-.07,.02-.11,.03,0,0,0,0,0,0-.01,0-.03,0-.04,.01-.01,.07-.04,.14-.08,.18-.15,.07-.28,.13-.43,.28,.07-.07,.07-.29,.07-.5,0-.03,.01-.06,.02-.08-.04-.05-.07-.12-.08-.2v-.09s-.06,0-.1,0c-.01,0-.02,0-.03,0-.05,0-.1,0-.14-.01-.03,0-.07,.01-.1,.01-.15-.06-.28,0-.35,.15,0-.17,.11-.33,.24-.43,0-.08,0-.17,.04-.26-.07,0-.13-.01-.21-.04v.04s-.05-.09-.07-.13c-.02,0-.04,0-.06,0-.15,0-.43,.13-.5,.21,.06-.23,.29-.49,.52-.52,0-.03,0-.06,.02-.1v-.03c.1-.09,.28-.18,.44-.15-.07-.13-.22-.28-.42-.2,.28-.21,.63-.07,.78,0,0,0,0,0,0,0,.19-.04,.4,.03,.56,.19h.01c.1,.16,.18,.18,.6,.1h.01c.25,0,.66-.21,1.1-.54-.29-.09-.47-.23-.53-.43-.07-.31,.19-.63,.38-.82-.23-.03-.51,0-.7,.1-.15,.07-.31,.16-.45,.23-1.26,.66-2.55,1.35-3.46,1.2,.03,.07,.06,.16,.1,.23l.07,.15h-.18c-.19,0-.53,0-.73-.13-.06,.15-.1,.37-.01,.54l-.09,.06s0,.05,.02,.07c-.01-.01-.04-.03-.06-.04l-.04,.03c-.09-.09-.34-.19-.53-.25,0,.06,0,.12-.01,.18-.01,.09-.01,.18,.01,.25l-.08,.05s0,.05,0,.07c-.02-.02-.04-.03-.05-.04l-.05,.03c-.19-.19-.48-.28-.56-.21-.16,.16-.44,.23-.66,.19-.15,.19-.34,.32-.57,.4l-.13,.04v-.26c-.12,.16-.28,.32-.48,.43l-.15,.07v-.38c-.07,.07-.16,.13-.25,.18-.1,.06-.22,.15-.23,.19h-.02s-.06,.05-.07,.07c.01-.03,.01-.06,.02-.1l-.14-.05c.03-.07,.04-.15,.04-.22-.03,.02-.06,.04-.09,.06-.03,.03-.07,.05-.1,.07-.07,.05-.15,.08-.23,.11-.05,.02-.08,.05-.14,.06,0,0,0-.01,0-.02,0,0,0,0,0,0l-.21,.04,.1-.19s.01-.03,.01-.03c-.03,.02-.07,.02-.1,.04-.05,.03-.1,.04-.16,.06-.02,0-.05,.01-.07,.02-.07,.01-.13,.02-.2,.01-.03,0-.06,0-.08,0-.03,.06-.09,.12-.16,.15-.04,.07-.13,.12-.25,.12,0,0-.02,0-.02,0-.03,.06-.07,.12-.14,.17-.13,.07-.48,.13-.63-.15,.13,.06,.24-.04,.32-.2-.09-.06-.16-.14-.18-.24-.01-.04-.01-.07,0-.12-.09-.03-.18-.09-.25-.15-.03,0-.04,.02-.08,.02-.22-.07-.43,.07-.5,.28,0-.3,.16-.69,.47-.75,0-.04,.03-.08,.04-.11,0,0,0-.01,.01-.01-.1-.09-.16-.21-.18-.34,0-.08,.01-.16,.04-.24,0-.01-.02-.01-.03-.03-.07-.15-.35-.22-.5-.15,.31-.24,.65-.26,.83-.08,.06-.01,.13-.02,.21-.02,.01-.09,.05-.15,.08-.22-.03-.03-.06-.05-.08-.09,0-.13-.21-.28-.35-.28,.24-.13,.62-.08,.73,.16,.2-.01,.41,.11,.51,.35,.12,.18,.5,.5,.79,.44h.01c.06,0,.09-.01,.15-.03,.06-.01,.12-.04,.19-.04,.26-.08,.66-.25,1.04-.46v-.45c-.1,0-.22-.03-.32-.04-.12-.01-.22-.03-.28-.03h-.25l.18-.18s.04-.09,.06-.13c.01-.04,.04-.1,.06-.15-.28,.01-.54-.04-.78-.1l-.18-.04,.13-.13c.07-.07,.1-.19,.13-.32,0-.01,0-.03,.01-.04-.06,0-.12-.01-.19-.01-.13-.01-.29-.03-.43,0l-.19,.04,.09-.25c.03-.1,.07-.23,.13-.34-.22-.01-.45-.07-.73-.18l.04-.21c.1,0,.21-.09,.29-.16h.01c-.22-.07-.37-.18-.5-.28-.07-.06-.13-.1-.21-.13l.07-.19c.07,.03,.13,0,.23-.06,.01,0,.03-.01,.03-.01-.1-.09-.21-.21-.26-.32-.04,.03-.09,.07-.13,.1-.15,.08-.4,.03-.6-.12-.15,.07-.5,.07-.7-.28,.14,.07,.34,.14,.47-.13-.01-.12,0-.23,.04-.32,.03-.06,.06-.1,.1-.15-.07-.06-.13-.13-.15-.22-.02-.08-.02-.16,0-.24-.01-.02-.03-.04-.04-.07-.07-.15-.29-.15-.5-.07,.22-.35,.65-.43,.85-.35,.03,.02,.06,.04,.09,.07,.03-.01,.06-.03,.09-.04,.09,0,.16,.01,.22,.07v-.26c.04-.13,.11-.19,.19-.24,.03-.14,.01-.3-.16-.36,.5,0,.63,.07,.7,.28,0,.02,0,.03,0,.05,.14,.1,.23,.28,.23,.45,0,.07,.01,.15,.03,.21,.03-.04,.06-.09,.09-.1,.04-.03,.1-.04,.16-.05,0-.14,.02-.3-.18-.42,.35-.07,.56,.07,.63,.28,.09,.11,.1,.2,.09,.28,.06,.06,.12,.15,.13,.25,.03,.16-.01,.4-.22,.54-.1,.1,0,.26,.07,.34h.01c.45,.73,1.22,1.31,1.85,1.42,.03-.25,.15-.5,.35-.7,.01-.15,.07-.34,.15-.48,.04-.29,.16-.48,.32-.57,.03-.01,.06-.03,.1-.03h0c-.23-.26-.44-.65-.28-.95,.06-.13,.19-.22,.35-.25,.12-.01,.23,0,.35,.03,.03-.22,.16-.4,.28-.56,.07-.09,.15-.19,.15-.25l.21-.03,.04,.13c.03,.09,.06,.18,.09,.26,.22-.23,.54-.43,.78-.53l.31-.13-.19,.28c-.04,.06,.03,.19,.1,.31,.03,.04,.06,.09,.07,.15,.25-.25,.69-.4,1.07-.4h.25l-.18,.18c-.09,.09-.1,.25-.1,.38,.18-.01,.41-.09,.51-.23l.19-.29v.35c0,.19-.06,.38-.13,.53h.56l-.18,.18c-.09,.09-.12,.16-.15,.25,0,.01-.01,.03-.01,.04,.12-.01,.23,0,.32,.04,.1,.04,.18,.13,.22,.25,.15,.26-.06,.62-.22,.88v.03s-.04,.01-.04,.01c-.06,.03-.12,.07-.16,.1-.04,.03-.07,.06-.12,.07,0,.07,0,.18-.01,.26-.01,.09-.03,.22-.01,.25,.04,.09,.07,.15,.1,.21,.06,.15,.09,.22,.19,.29h.45c.76,0,1.61-.16,2.43-.31,.84-.16,1.7-.32,2.48-.32,.83,0,1.48,.15,2.05,.28v-.85c-.71,.03-1.29,.12-1.83,.21-.59,.1-1.16,.21-1.83,.21-2.43,0-2.57-1.03-2.57-1.23,0-.35,.34-.95,1.58-.95,.32,0,.57-.06,.69-.18,.1-.19,.35-.47,.75-.66,.25-.15,.62-.15,.97-.16,.37-.01,.75-.01,.98-.19l.16-.12v.21c0,.19-.16,.44-.37,.63,.37-.04,.66,0,.88,.12,.18,.1,.28,.23,.32,.43l.06,.25-.22-.13c-.26-.16-.72-.09-1.04,.01-.15,.03-.25,.07-.35,.1-.01,0-.04,.01-.07,.01,.04,.03,.07,.07,.1,.12,.12,.13,.23,.26,.41,.26h.29l-.22,.19c-.44,.37-1.16,.4-1.94,.09l-.09-.03c-.25-.09-.7-.25-1-.25-.63,0-1.01,.12-1.01,.32,0,.31,.51,.45,1.58,.45,.56,0,1-.07,1.51-.15,.59-.09,1.23-.19,2.2-.21-.01-.06-.01-.12,0-.16,0-.12,0-.19-.12-.28l-.25-.19h.32s.06,0,.09,0v-1.93h-19.1Z"/>
  <path class="cls-8" d="M73.11,45.56l-2.57,1.87c.16,.06,.32,.13,.49,.23,.47,.22,2.08,1.13,2.99,1.13,.85,0,2.54-.91,2.95-1.13,.18-.11,.36-.19,.53-.25l-2.55-1.85h4.34l.6-1.86c-1.16-.54-2.32-.95-3.49,.43-.43,.5-1.41,1.19-2.39,1.19-1.06,0-1.97-.7-2.39-1.19-1.2-1.37-2.32-.99-3.46-.45l.61,1.88h4.34Z"/>
  <path class="cls-8" d="M63.44,48.01c.47,.37,1.06,.51,1.66,.51l.13-.41-3.51-2.55h4.34l.39-1.19c-1.22,.36-2.26,.39-3.14-.38-.94-.87-1.44-1.16-2.41-1v.88c0,1.16,.07,2.24,.18,3.28,.72,0,1.28-.03,2.36,.85Z"/>
  <path class="cls-8" d="M77.11,52.23l.5-1.54s-.1,.04-.15,.07c-.83,.47-1.74,.82-2.58,.97l.49,1.49h4.34l-1.02,.74c.43,.07,.87,.19,1.31,.34v-3.81c-.12-.04-.25-.07-.37-.1l-2.52,1.83Z"/>
  <path class="cls-8" d="M67.08,54.71c.72-.34,1.52-.62,2.27-.74l-1.02-.74h4.34l.49-1.49c-.84-.15-1.74-.5-2.55-.97-.06-.03-.11-.05-.16-.08l.5,1.54-2.52-1.83c-.52,.11-1.06,.34-1.69,.64-.65,.32-1.26,.45-1.81,.45l-1.02,.74,.27-.83c-.34-.08-.64-.2-.88-.36-.42-.27-.76-.8-1.63-.64,.43,1.71,1.06,3.25,1.89,4.61,1.33,.32,2.1,.31,3.53-.31Z"/>
  <path class="cls-8" d="M77.05,58.41l.48,1.49-1.46-1.06c-.79,.32-1.3,.41-2.05,.41s-1.27-.09-2.07-.42l-1.47,1.06,.49-1.5c-1.22-.6-2.59-.46-3.06-.13-.45,.32-.79,.24-1.27,.39,2.24,1.92,4.92,3.23,7.36,4.29,1.96-.84,4.07-1.86,5.99-3.23v-1.52c-.56-.28-1.81-.36-2.95,.21Z"/>
  <path class="cls-6" d="M65.08,32.2c-.09-.03-.13-.08-.15-.13-.02,0-.03,.01-.04,.01,0,.05-.01,.11-.04,.16-.01,.03-.03,.09-.03,.1h-.1c-.02,.06-.02,.1-.03,.14l.06,.06s-.03,.03-.04,.04v.03h-.21c0-.1,.01-.13,.1-.22l.05,.05s-.02-.05-.02-.08h-.01c-.01-.09-.04-.16-.06-.22-.04-.15-.09-.28-.09-.44,0-.02-.02-.04-.02-.07-.02-.03-.04-.06-.07-.08-.04,.08-.12,.15-.19,.15-.1,0-.21-.04-.28-.08,0,.18,0,.41,.06,.52l-.17,.12s0,.06,.02,.08l.08-.08s.03,.03,.04,.04h.01v.2s0,0,.01,0h-.01c-.09,0-.12-.02-.21-.1l.06-.06c-.06-.08-.12-.19-.19-.25-.05-.07-.12-.08-.19-.07,.03,.09,.02,.2-.09,.31-.04,.03-.07,.05-.1,.06,.04,.05,.09,.09,.17,.11v.17c.12,.03,.28,.09,.41,.21l-.15,.15c-.12-.12-.31-.18-.35-.18v-.06s-.04,.02-.06,.03c0,0-.01,.02-.02,.02-.03,.07-.04,.15-.03,.23,.06,.03,.12,.08,.17,.15,.01,.03,0,.06,0,.09,.15,.09,.3,.13,.37,.1,.07-.04,.13-.1,.18-.18,.03-.03,.04-.06,.07-.09l.14,.12h.03v.16c.06,.14,.24,.3,.35,.34l-.03,.21s-.08,.03-.11,.04c.02,0,.04,.03,.06,.03-.07,0-.13,.02-.19,.05,.16,.12,.33,.22,.66,.22v.21s-.09,.03-.14,.08c.03,0,.06,.01,.1,.01-.1,0-.18,.08-.27,.16,.24,.07,.47,.08,.64,.04l.06,.21s-.07,.05-.09,.09c0,0,.01,0,.02,0-.03,0-.04,.03-.06,.04-.04,.06-.07,.13-.1,.21,.12,0,.22,.01,.32,.03s.22,.03,.25,.01l.23-.12-.07,.23c-.01,.06-.03,.12-.04,.19-.01,.09-.04,.19-.09,.28,.25,.06,.51,.09,.79,.03l.07,.19s-.12,.18-.15,.26c0,.01-.01,.03-.01,.04,.04,0,.09,.01,.13,.01,.09,.01,.19,.02,.29,.03,0-.03,.01-.06,.02-.09h0c-.09-.48,0-.81,.21-1.08h0c.04-.15,.12-.42,.29-.66-.68-.12-1.46-.71-1.93-1.45-.07-.07-.13-.17-.15-.26-.09-.16-.1-.36,.04-.49h.01c.13-.11,.16-.25,.13-.36-.01-.02-.04-.03-.05-.05-.07,.04-.15,.06-.28,.03Z"/>
  <polygon class="cls-6" points="72.12 33.5 72.12 33.5 72.12 33.5 72.12 33.5"/>
  <path class="cls-6" d="M73.08,39.08s-.02,0-.03,0c.01,0,.02,0,.03,0Z"/>
  <path class="cls-6" d="M73.71,39.47s0,0,0,0c0,0,0,0,0,0Z"/>
  <path class="cls-6" d="M73.03,34.79h-.35v.19c-.34,0-.57-.1-.71-.23-.04,.25-.14,.4-.35,.55l-.04-.05c-.07,.27-.19,.49-.42,.66-.05,.16-.15,.32-.33,.45l-.16,.13v-.24s-.06,.06-.09,.09l-.18,.18v-.12c-.09,.18-.23,.34-.45,.56l-.16-.13c.04-.06,.06-.13,.07-.22-.23,.32-.51,.57-.72,.67l-.02-.04c-.11,.1-.23,.19-.33,.25l-.13-.16c.09-.09,.1-.26,.1-.45,0-.02,0-.04,0-.05-.19,.16-.39,.25-.62,.33v-.03c-.21,.28-.51,.52-.91,.72l-.09-.19c.07-.04,.13-.25,.18-.43-.01,0-.02,.02-.03,.02-.05,.03-.09,.07-.15,.1-.48,.31-1.08,.56-1.42,.68-.15,0-.21,.07-.35,.07,0,0,0,0-.01,0v.06c-.16,.03-.34,.06-.52,.06-.34,0-.65-.1-.95-.29h-.01s-.04-.04-.07-.06c-.04-.01-.07-.04-.11-.07-.04,0-.09,0-.14,0-.02,.08-.1,.13-.15,.18-.02,0-.06,0-.09-.01,0,.03-.01,.06,0,.1,.01,.08,.05,.15,.12,.21,.09-.02,.17-.02,.24,0,.1,.01,.16,.01,.21-.03l.15,.15c-.06,.09-.16,.1-.25,.1-.04,0-.09,0-.12-.01-.06-.01-.13,0-.19,.01,0,.01,0,.04-.01,.05,0,0-.01,.02-.02,.03,.11,.06,.17,.12,.1,.26,0,.03-.02,.04-.03,.06,.06,.04,.13,.07,.21,.08,.02-.01,.03-.03,.06-.04,.15-.07,.31-.19,.35-.29l.19,.09c-.09,.16-.31,.32-.47,.4h-.03s-.01,.03-.01,.03c-.03,.03-.03,.04-.03,.07,.01,.04,.05,.08,.11,.12,.09-.04,.22-.03,.27,.02,.04,.02,.07,.06,.08,.11,.06,0,.11-.02,.14-.04,.06-.03,.07-.07,.07-.09v-.13h.06c.03-.06,.07-.13,.11-.19,.03-.04,.06-.09,.07-.13l.19,.09c-.03,.06-.06,.1-.09,.15-.03,.04-.06,.08-.08,.12,.28,0,.54-.11,.58-.28l.07-.28,.13,.25c.06,.1,.04,.21,.01,.29,.16-.07,.31-.21,.43-.38l.19-.29v.35c0,.07,0,.16-.01,.26,.01-.01,.04-.03,.06-.04,.15-.09,.29-.19,.29-.29l.21-.04c.06,.1,.07,.23,.07,.35,.18-.13,.31-.32,.37-.48l.06-.16,.12,.12c.07,.07,.09,.19,.1,.34,.15-.07,.28-.19,.37-.32l.04-.07h.02s.02-.05,.03-.09c.01-.09,.04-.19,.07-.28l.19,.09c-.03,.06-.04,.13-.06,.22,0,.03-.02,.06-.02,.09,.14,0,.29-.04,.38-.12,.16-.16,.43-.09,.66,.06v-.07c.01-.1,.01-.21-.03-.25l.1-.18c.15,.04,.38,.13,.57,.22-.01-.25,.09-.48,.15-.59l.09-.16,.1,.15c.09,.12,.32,.15,.51,.16-.04-.1-.07-.21-.07-.31v-.15h.02c.01-.27,.19-.56,.57-.69l.07,.21c-.31,.1-.44,.34-.43,.54,.84,.16,2.12-.51,3.38-1.17,.15-.09,.31-.16,.45-.25,.32-.16,.76-.15,1.06-.07l.21,.06-.06,.05s.03,.01,.05,.02c.07,.03,.15,.06,.19,.09,.11-.13,.29-.25,.45-.33-.22-.19-.41-.31-.82-.29v-.21c.54-.04,.78,.16,1.07,.43,.19,.18,.41,.36,.76,.54v-.13l.18,.18s.04,.03,.07,.04c.03,.01,.07,.03,.12,.07,.53,.17,1.36,.34,2.16,.43v-1.46c-.39-.23-.73-.48-.95-.52,.03,0,.06,0,.09,0-.02,0-.05-.03-.08-.03v-.21c.37,0,.59,.04,.84,.1,.03,0,.07,.01,.1,.02v-.33c-.56-.14-1.21-.3-2.05-.3-1.54,0-3.37,.63-4.91,.63Zm-1.54,2.23v-.21c.07,0,.1-.09,.1-.1h.21c0,.12-.12,.31-.31,.31Zm.56,.03l-.15-.15c.06-.06,.18-.25,.18-.35h.21c.01,.19-.15,.43-.23,.5Zm.54-.12l-.09-.19c.09-.04,.09-.22,.09-.32h.21c-.01,.16-.01,.41-.21,.51Z"/>
  <path class="cls-6" d="M69.94,38.58s-.01-.05-.02-.07l-.04,.03s.05,.03,.06,.04Z"/>
  <path class="cls-6" d="M70.05,32.61s.05-.08,.05-.12v-.06s.04-.07,.06-.1c-.08,0-.16,0-.24-.01-.08,.02-.16,.05-.2,.11-.03,.03-.04,.09-.03,.15,.01,.04,.04,.07,.09,.09,.08,.03,.18,0,.28-.05Z"/>
  <path class="cls-6" d="M69.45,31.45s0,.01-.01,.03h-.04s-.07,.09-.08,.13c.01-.05,.02-.1,.01-.16l-.1-.03s0-.01,.01-.03c.03-.1-.01-.23-.06-.37-.01,.03-.04,.06-.06,.09-.13,.18-.28,.38-.23,.6l.05,.28,.11,.04c-.07,.21-.09,.43-.01,.57,.01,.03,.04,.04,.06,.06,.02-.05,.02-.09,.04-.14l.21,.07c-.19,.57-.16,.76-.15,.82,.06,.04,.22,.19,.41,.18,.09,0,.18-.05,.25-.13-.1-.08-.12-.15-.12-.34,0-.09,.03-.17,.07-.23-.04,0-.08-.01-.11-.02-.1-.03-.18-.12-.22-.22-.04-.12-.01-.23,.06-.34,.03-.04,.08-.07,.13-.1-.14-.1-.25-.24-.28-.41l.21-.03c.03,.15,.1,.25,.23,.31,.04,.02,.08,.02,.13,.03,.02,0,.03-.01,.05-.01v.02c.1,0,.2,0,.29-.05,.03-.03,.06-.04,.1-.04h.38l-.31,.21s-.01,.01-.03,.01c-.03,.03-.06,.12-.09,.18-.01,.03-.03,.07-.04,.1,0,.11-.05,.18-.1,.25h0s0,0,0,0c-.03,.04-.07,.08-.1,.12-.09,.09-.15,.15-.15,.23,0,.15,0,.16,.15,.25,.07,.01,.12,.01,.16,0,.04-.03,.09-.09,.12-.21,0-.13,.07-.26,.13-.37,.03-.06,.07-.13,.07-.18,0-.23,.15-.38,.38-.38v.15s.04,0,.06,0c.03,0,.06-.01,.09-.01,.15-.04,.26,.01,.35,.04,.06,.03,.1,.04,.12,.03l.09,.19s-.09,.04-.12,.04c-.07,0-.13-.03-.19-.06-.04-.02-.07-.03-.11-.04-.08,.06-.11,.14-.07,.21,.03,.06,.1,.12,.19,.09l.06,.21c-.12,.03-.23,.04-.35,.04-.2,0-.35-.06-.45-.12-.03,.06-.05,.11-.05,.16v.03c-.04,.18-.12,.29-.22,.35-.04,.03-.1,.04-.16,.04-.03,0-.07,0-.1-.02,0,.14,.05,.25,.22,.34,.21,.04,.5-.25,.57-.48l.04-.18,.13,.13c.09,.09,.19,.12,.29,.09,.16-.04,.31-.19,.38-.4l.03-.07h.07c.13,0,.26,0,.45-.06l.09,.19c-.08,.06-.15,.12-.2,.19h0s.07-.04,.12-.07c.04-.03,.1-.07,.16-.12,.19-.29,.25-.49,.19-.6-.13-.16-.4-.15-.63-.03,.05-.03,.09-.08,.12-.12-.02,0-.04,0-.06,.02l-.1-.18c.09-.06,.1-.12,.15-.22,0-.02,.02-.04,.02-.05-.15,0-.28,.02-.33,.07,.03-.03,.05-.09,.08-.13l-.14-.14c.06-.06,.13-.18,.18-.3-.17,.1-.39,.14-.54,.14,0-.02,0-.05,0-.07h-.09v-.1c0-.09,0-.22,.04-.36-.26,.03-.54,.13-.74,.29-.03,.04-.07,.08-.08,.12h-.01s-.08,.08-.1,.13c.02-.06,0-.12-.02-.19l-.05-.02c.01-.06-.04-.18-.1-.26-.05-.08-.1-.17-.12-.26-.21,.1-.43,.25-.6,.42-.04,.05-.07,.1-.09,.15Z"/>
  <path class="cls-6" d="M70.99,32.87c-.04-.09-.04-.18,0-.27-.06,0-.12,0-.18-.02,0,.01,0,.03,0,.04,0,.07-.03,.14-.07,.21,.04,.03,.14,.08,.29,.09-.01-.01-.01-.03-.03-.06Z"/>
  <path class="cls-6" d="M76.87,38.69s.01-.05,.02-.07h-.05s.02,.05,.04,.07Z"/>
  <path class="cls-6" d="M64.96,39.42c-.07,.01-.13,.01-.2,.01,.07,0,.13,0,.2-.01Z"/>
  <path class="cls-6" d="M63.32,32.77s-.02,.02-.03,.03c.01,0,.01,.01,.03,.01v-.04Z"/>
  <path class="cls-6" d="M65.19,39.35c-.05,.02-.1,.05-.16,.06,.06-.02,.11-.03,.16-.06Z"/>
  <path class="cls-6" d="M66.01,39.56s.05-.05,.07-.08l-.05-.02s0,.06-.02,.1Z"/>
  <path class="cls-6" d="M69.23,38.86s0-.05,0-.07l-.04,.03s.04,.03,.05,.04Z"/>
  <path class="cls-6" d="M65.38,39.5c.06-.01,.09-.05,.14-.06-.04,.02-.08,.04-.13,.05,0,0,0,.01,0,.02Z"/>
  <path class="cls-6" d="M65.85,39.26s-.07,.05-.1,.07c.04-.03,.07-.05,.1-.07Z"/>
  <path class="cls-6" d="M73.13,37.92s0,.03-.01,.05c.06,.06,.08,.07,.15,.03l.09,.19c-.06,.03-.1,.04-.15,.04-.04,0-.07-.02-.1-.03v.06l-.25-.25c-.07-.07-.21,.01-.26,.06,0,0,0,.02,0,.03,0,0,.01,0,.02,0,.15,0,.15,.07,.07,.15,0,.04-.03,.06-.05,.08,0,0,0,0,0,0,.12,.04,.32-.01,.48,.06v.02s.03-.01,.06-.04l.15,.15s-.12,.1-.22,.1v-.17l-.02,.08s.01,0,.02,0h-.02v.06h-.13s-.02,.04-.03,.07c0,0,.02,0,.03,0,.15,0,.21,.07,.21,.21,0,0,0,0,0,.01,.05-.01,.09-.02,.14-.06l.09,.11v-.08s.1-.07,.13-.1l.15,.15c-.07,.07-.15,.14-.25,.15-.01,.03-.04,.07-.03,.11,0,.02,.02,.04,.02,.06,.06-.02,.12-.02,.18,.01,.02,.02,.03,.05,.05,.07,.02,0,.04,0,.06-.01,.04-.01,.04-.03,.06-.04v-.03c.04-.18,.12-.23,.16-.29t.04-.12v-.25l.18,.18c.1,.1,.34,.1,.5-.01l.1-.07,.04,.07c.13-.07,.25-.17,.43-.34l.15,.15c-.15,.16-.28,.26-.42,.35,.03,.02,.07,.04,.11,.04,.16,.03,.35-.01,.51-.15l.06-.04,.06,.03c.05-.07,.1-.16,.13-.34l.21,.04c-.02,.12-.06,.21-.1,.3,.03,0,.05,0,.08-.02,.25-.09,.48-.31,.59-.57v-.02c.01-.1,.03-.21,.09-.32l.19,.09c-.05,.1-.07,.19-.07,.28,.02,.03,.04,.06,.05,.1,.03-.06,.07-.12,.1-.16,.06-.07,.1-.15,.1-.21v-.35l.19,.29c.06,.07,.15,.13,.25,.13,.07,0,.15-.03,.21-.09-.34-.16-.5-.43-.5-.82,0-.18,.09-.29,.16-.41,.04-.06,.07-.12,.09-.18-.38-.18-.62-.38-.81-.55-.19,.06-.45,.26-.49,.36l-.06,.13c.2-.16,.4-.05,.6-.19-.21,.22,.15,.35,.21,.54,.06,.21,.06,.5-.15,.7,.07-.28-.35-.35-.21-.56-.35,0-.35-.07-.28-.28-.13,0-.35-.06-.21-.21,0,0,.02,0,.03-.02l-.1-.1s-.15-.07-.23-.12c-.05-.03-.1-.04-.14-.07-.24,.22-.45,.5-.41,.7,.04,.19,.34,.28,.57,.32l.22,.04-.18,.15c-.43,.35-1,.72-1.39,.73-.4,.06-.62,.09-.79-.18-.18-.17-.33-.15-.41-.13-.02,.02-.03,.05-.05,.07,0,.01-.02,.02-.03,.03Z"/>
  <path class="cls-6" d="M69.6,33.79c-.19,0-.35-.08-.45-.15,0,0,0,.01,0,.02-.01,.22-.04,.41-.07,.54h0c-.04,.09-.09,.28-.03,.43,0,0,0,0,0,0,.21-.2,.39-.5,.55-.84Z"/>
  <path class="cls-6" d="M72.33,34.57c-.05-.07-.09-.15-.12-.24-.03-.06-.06-.12-.09-.21-.04-.1-.03-.23-.02-.37,0,0-.02,0-.03,0-.04-.01-.07-.04-.09-.06-.06-.06-.09-.13-.07-.22,.01-.09,.04-.16,.1-.25h-.09c-.1,.23-.29,.41-.5,.47-.13,.03-.25,.01-.37-.04-.08,.13-.2,.26-.34,.36h.03c-.29,.83-.6,1.1-1.06,1.1-.02,0-.05,0-.07,0-.32,.36-.63,.43-1.11,.33-.22,0-.31-.18-.24-.34h-.14s-.01-.1-.03-.15c-.03-.09-.04-.16-.04-.21v-.06c.1-.16,.13-.32,.09-.4l-.04-.09,.09-.04s.07-.07,.09-.19c.03-.1,.01-.21,0-.23l-.04-.09,.09-.04c.12-.06,.22-.16,.22-.19h.21c0,.13-.13,.26-.26,.35,.01,.09,.01,.18-.01,.28-.01,.06-.04,.19-.13,.26,.04,.16-.03,.35-.09,.47,0,.03,.01,.09,.03,.13,.02,.05,.02,.07,.03,.1,.06-.06,.14-.11,.28-.13,.1,0,.19-.04,.28-.09-.02-.03-.05-.04-.06-.07-.1-.22-.03-.47,.03-.59,.03-.1,.04-.29,.07-.48,.01-.19,.03-.38,.07-.54h0c0-.06,.02-.12,.04-.2-.07-.04-.14-.1-.18-.18,0-.02,0-.05-.01-.07l-.32-.21s-.04-.03-.1,.01c-.01,.01-.02,.03-.03,.05,.02,.02,.03,.05,.05,.07l.03,.03v.04s.07,.1,.1,.13l-.12,.18s-.07-.03-.1-.03c.03,.03,.06,.07,.1,.11-.1-.05-.19-.04-.27,0-.04,.05-.07,.11-.09,.18l.14,.14s-.1,.09-.16,.12c-.04,.03-.07,.05-.1,.08-.04,.09-.06,.19-.07,.26,.02,0,.03-.02,.05-.02v.21s-.04,.01-.06,.03c-.04,.03-.09,.04-.14,.04-.1,.14-.16,.29-.18,.44,.06-.04,.12-.1,.2-.13l.09,.19c-.27,.11-.42,.31-.52,.54,.11-.08,.22-.16,.36-.25l.1,.18c-.54,.32-.8,.59-.81,1.08,.13-.2,.31-.4,.55-.61l.13,.16c-.37,.32-.57,.61-.67,.95h.01v.06c.16-.13,.35-.22,.56-.32l.15-.07h0c.11-.09,.21-.22,.29-.38l.19,.09c-.14,.27-.33,.45-.49,.58,0,.12-.01,.24-.07,.42v.03s-.04,.01-.04,.01c-.01,.01-.04,.02-.05,.04h.04s-.03,.1-.03,.1c-.03,.1-.04,.21-.07,.29,.44-.29,.69-.65,.73-1.07l.21,.03c-.02,.16-.06,.31-.13,.46,.19-.08,.36-.19,.53-.4,0-.03,.01-.06,.03-.09h.02c.06-.08,.13-.17,.2-.29l.19,.1c-.08,.15-.16,.27-.24,.37-.03,.1-.03,.21-.03,.32,0,.07,0,.16-.01,.23,.22-.19,.34-.43,.38-.7l.21,.03c-.02,.13-.06,.24-.1,.35,.18-.19,.36-.43,.47-.68l.19,.07c-.03,.07-.03,.18-.03,.28v.09c.15-.19,.22-.34,.26-.56h.21s.01,.06,.01,.09c.07-.09,.12-.19,.12-.35h.21c0,.08-.01,.16-.03,.22h.02v.09c.1-.15,.15-.32,.15-.59h.21s0,.09,0,.14c.19-.24,.23-.57,.23-1.05h.21c0,.17,0,.33-.02,.47,.13-.14,.16-.31,.16-.77h.21c0,.09,0,.15,0,.22h0c0,.07,.13,.24,.47,.29-.06-.05-.11-.11-.14-.18Zm-.94-.34c-.06,.03-.13,.03-.21,.03-.06,.15-.13,.25-.23,.28-.01,0-.03,.01-.06,.01,0,.01-.01,.04-.01,.06-.06,.16-.12,.34-.25,.4-.09,.21-.31,.43-.6,.44-.07,.06-.19,.12-.31,.13,0,.06-.07,.16-.13,.22l-.15-.15c.06-.06,.1-.18,.1-.21v-.1h.1c.1,0,.22-.06,.28-.1l.03-.03h.04c.22,0,.41-.18,.47-.35l.03-.07h.07s.09-.19,.12-.26c.01-.06,.04-.12,.06-.16l.06-.13,.09,.09s.07-.07,.12-.22l.03-.13,.12,.06s.09,.01,.15,0c.06-.03,.1-.07,.13-.15l.21,.07c-.04,.13-.13,.23-.25,.28Z"/>
  <path class="cls-6" d="M70.49,34.12s-.08,.03-.13,.03c-.03,0-.07,0-.1-.01h-.01s0-.02,0-.02c-.17,.33-.32,.58-.46,.78,.29-.02,.5-.21,.7-.78Z"/>
  <path class="cls-6" d="M74.61,32.99c-.1-.09-.16-.21-.16-.35,0-.23,.22-.53,1.23-.53,.32,0,.81,.16,1.07,.25l.09,.03c.59,.23,1.13,.26,1.51,.08-.22-.15-.36-.44-.56-.41v.1h-.56v-.21h.56v.1s.05-.02,.08-.02c-.02,0-.04-.02-.05-.02l-.04-.21c.13-.03,.23-.07,.34-.1,.1-.03,.22-.07,.37-.1,.1-.03,.51-.15,.88-.09-.31-.2-.86-.16-1.36-.01,.03-.01,.06-.04,.1-.06-.02,0-.03,0-.05,.01l-.07-.21c.22-.09,.45-.3,.59-.49-.52,.18-1.31,0-1.74,.24-.15,.07-.27,.16-.37,.24-.15,.14-.22,.26-.24,.29v.03s-.06,.03-.09,.05c0,0-.01,.02-.01,.02-.02,.01-.05,.02-.07,.03-.02,0-.04,.02-.06,.03-.16,.09-.37,.15-.65,.15-.54,0-.9,.11-1.13,.27-.16,.14-.22,.3-.22,.42,0,.1,.07,1.01,2.36,1.01,.66,0,1.22-.09,1.79-.19,.56-.1,1.14-.19,1.86-.21v-.15c-1.83,.01-2.53,.35-3.77,.35-.99,0-1.46-.13-1.62-.35Z"/>
  <path class="cls-6" d="M64.47,37.59c-.09-.18-.23-.26-.36-.27,0,.05-.04,.1-.15,.15,0,0-.02,0-.02,0,0,.04-.02,.06-.02,.11v.1s.06,.04,.1,.08c.3,.2,.6,.28,.96,.25-.22-.11-.42-.28-.51-.41Z"/>
  <path class="cls-6" d="M68.23,31.8s-.03,.03-.04,.04c-.07,.14-.02,.32,.08,.48,0,0,.01-.02,.02-.03,.04-.04,.07-.06,.12-.07-.01-.03-.03-.04-.04-.06h.01v-.21c.13,0,.22,.16,.31,.34l.15,.31c-.06-.2-.07-.43,.02-.65h.02s-.14-.13-.14-.13c0,.02,0,.03,0,.05-.1-.09-.34-.16-.52-.09Z"/>
  <path d="M64.4,31.5s.04,.1,.05,.15c0,.02,.02,.04,.02,.07,0,.16,.04,.29,.09,.44,.01,.06,.04,.13,.06,.22h.01s.09-.02,.09-.02h.1s.01-.09,.03-.12c.03-.05,.04-.11,.04-.16,0,0,0,0,0-.01,0-.05,.01-.06,.02-.07,0-.03,0-.05,0-.08-.06,0-.12,.02-.16,.05-.03,.01-.06,.06-.09,.1-.01-.06-.03-.13-.03-.21,0-.17-.09-.35-.23-.45,0,.03,0,.06,0,.09Z"/>
  <path d="M63.4,31.98s.07-.04,.1-.04c.01,0,.04,0,.07,.04h.01s.06,.09,.09,.13c.03,.06,.07,.12,.12,.16h0s.17-.12,.17-.12c-.05-.11-.06-.33-.06-.52-.07-.04-.11-.1-.07-.13,0-.02,.01-.04,.02-.06-.08,.05-.15,.11-.19,.24v.26c-.06-.06-.13-.07-.22-.07-.03,0-.06,.03-.09,.04,.02,.02,.03,.04,.05,.07Z"/>
  <path d="M73.41,39.22s-.02-.04-.02-.06c0-.05,.01-.08,.03-.11,.1-.01,.18-.09,.25-.15l-.15-.15s-.1,.1-.13,.1v.08l-.09-.11s-.09,.04-.14,.06c-.01,.1-.13,.16-.25,.18,.04,.01,.09,.01,.14,.01,.01,0,.02,0,.03,0,.03,0,.06,0,.1,0v.09c.02,.08,.04,.14,.08,.2,.03-.07,.08-.12,.15-.14Z"/>
  <path d="M75.47,34.35c-.82,.15-1.67,.31-2.43,.31h-.45c-.1-.07-.13-.15-.19-.29-.03-.06-.06-.12-.1-.21-.01-.03,0-.16,.01-.25,.01-.09,.01-.19,.01-.26,.04-.01,.07-.04,.12-.07,.04-.03,.1-.07,.16-.1h.03s.01-.04,.01-.04c.16-.26,.37-.62,.22-.88-.04-.12-.12-.21-.22-.25-.09-.04-.21-.06-.32-.04,0-.01,.01-.03,.01-.04,.03-.09,.06-.16,.15-.25l.18-.18h-.56c.07-.15,.13-.34,.13-.53v-.35l-.19,.29c-.1,.15-.34,.22-.51,.23,0-.13,.01-.29,.1-.38l.18-.18h-.25c-.38,0-.82,.15-1.07,.4-.01-.06-.04-.1-.07-.15-.07-.12-.15-.25-.1-.31l.19-.28-.31,.13c-.23,.1-.56,.29-.78,.53-.03-.09-.06-.18-.09-.26l-.04-.13-.21,.03c0,.06-.07,.16-.15,.25-.12,.16-.25,.34-.28,.56-.12-.03-.23-.04-.35-.03-.16,.03-.29,.12-.35,.25-.16,.31,.04,.69,.28,.94h0s-.07,.03-.1,.04c-.16,.09-.28,.28-.32,.57-.07,.15-.13,.34-.15,.48-.21,.21-.32,.45-.35,.7-.63-.12-1.39-.69-1.85-1.41h-.01c-.07-.09-.18-.25-.07-.35,.21-.15,.25-.38,.22-.54-.02-.1-.07-.19-.13-.25,0,.04-.03,.07-.06,.1,0,.02,.03,.03,.03,.05,0,0,0,0,0,.01,.02,.1,0,.24-.13,.34h-.01c-.15,.15-.14,.34-.04,.51,.03,.05,.06,.1,.1,.14,.51,.79,1.33,1.38,2.04,1.49-.02,.03-.04,.05-.06,.08-.17,.24-.25,.51-.29,.66h0c-.21,.28-.3,.6-.21,1.09h0s-.01,.06-.02,.09c-.1,0-.2-.02-.29-.03-.04,0-.09-.01-.13-.01,0-.01,.01-.03,.01-.04,.03-.09,.1-.23,.15-.26l-.07-.19c-.28,.06-.54,.03-.79-.03,.04-.09,.07-.19,.09-.28,.01-.07,.03-.13,.04-.19l.07-.23-.23,.12s-.15,0-.25-.01-.21-.03-.32-.03c.03-.07,.06-.15,.1-.21,.01-.02,.03-.02,.04-.04,.03-.03,.05-.07,.09-.09l-.06-.21c-.17,.04-.4,.03-.64-.04,0,0-.01,0-.02,0,.04-.04,.09-.09,.13-.12,.02-.02,.04-.04,.07-.06,.05-.04,.1-.08,.14-.08v-.21c-.33,0-.49-.1-.66-.22-.01,0-.02-.02-.03-.02,.03,0,.04-.01,.07-.03,.03-.02,.06-.02,.09-.03,.04-.02,.07-.04,.11-.04l.03-.21c-.11-.04-.29-.2-.35-.34v-.16h-.03l-.14-.12s-.04,.06-.07,.09c-.04,.07-.1,.13-.18,.18-.07,.03-.22,0-.37-.1,.01,.13-.04,.27-.21,.33,0,0,0,0,0,0,.21,.14,.45,.2,.6,.12,.04-.03,.09-.07,.13-.1,.06,.12,.16,.23,.26,.32,0,0-.01,.01-.03,.01-.1,.06-.16,.09-.23,.06l-.07,.19c.07,.03,.13,.07,.21,.13,.13,.1,.28,.21,.5,.26h-.01c-.09,.09-.19,.18-.29,.18l-.04,.21c.28,.1,.51,.16,.73,.18-.06,.1-.1,.23-.13,.34l-.09,.25,.19-.04c.13-.03,.29-.01,.43,0,.07,0,.13,.01,.19,.01-.01,.01-.01,.03-.01,.04-.03,.13-.06,.25-.13,.32l-.13,.13,.18,.04c.23,.06,.5,.12,.78,.1-.01,.04-.04,.1-.06,.15-.01,.04-.04,.12-.06,.13l-.18,.18h.25c.06,0,.16,.01,.28,.03,.1,.01,.22,.04,.32,.04v.45c-.38,.21-.79,.37-1.04,.46-.07,0-.13,.03-.19,.04-.06,.01-.09,.03-.15,.03h-.01c-.29,.06-.67-.26-.79-.44-.11-.24-.31-.36-.51-.35,.01,.03,.03,.06,.04,.09,.1-.02,.24,.05,.33,.25,.1,.17,.36,.4,.65,.5-.03,0-.07,.01-.1,.02-.36,.03-.66-.05-.96-.25-.04-.04-.07-.06-.1-.08v-.1s.01-.07,.02-.11c-.05,0-.11-.04-.18-.11-.03,.06-.07,.13-.08,.22-.08,0-.15,0-.21,.02,.03,.03,.06,.05,.08,.08,.02,.04,.02,.08,.01,.11,.05,0,.1,0,.14,0,.04,.03,.07,.06,.11,.07,.03,.01,.04,.01,.07,.04h.01c.31,.21,.62,.31,.95,.31,.18,0,.35-.03,.53-.06v-.06s-.03-.06-.03-.06c.03,0,.06,.01,.09,0,.09,0,.15-.03,.21-.04,.06-.01,.09-.03,.15-.03h.03c.32-.11,.86-.33,1.33-.62,.05-.03,.1-.07,.15-.1,.01,0,.02-.02,.03-.02,0,0,0,0,0,0-.04,.18-.11,.4-.18,.43l.09,.19c.4-.2,.7-.44,.9-.72v.03c.24-.08,.44-.17,.63-.33,0,.02,0,.04,0,.05,0,.19-.01,.37-.1,.45l.13,.16c.11-.06,.22-.14,.33-.25l.02,.04c.21-.1,.48-.35,.72-.67-.01,.09-.03,.16-.07,.22l.16,.13c.22-.22,.37-.38,.45-.56v.12l.18-.18s.06-.06,.09-.09v.24l.16-.13c.18-.13,.28-.28,.33-.45,.23-.17,.35-.39,.42-.66l.04,.05c.21-.15,.3-.3,.35-.55,.14,.13,.37,.23,.71,.23v-.19h0s-.03-.03-.05-.04h.43c.78,0,1.64-.16,2.48-.32,.82-.15,1.67-.31,2.43-.31,.82,0,1.46,.16,2.03,.29v-.09c-.58-.13-1.22-.28-2.05-.28-.78,0-1.64,.16-2.48,.32Zm-11.7,3.33h-.01s0,0,0,0h.01Zm8.36-4.18s0,0,0,0c0,0,0,0,0,0,0,0,0,0,0,0Zm-2-2.66s0,.02,.01,.03c.02,.09,.07,.18,.12,.26,.06,.09,.12,.21,.1,.26l.05,.02,.13,.05h.01s.05-.07,.08-.11c.16-.19,.46-.33,.75-.37,0,.03-.01,.05-.02,.08-.03,.14-.04,.27-.04,.36v.1h.1c.15,0,.37-.03,.56-.13,0,.02-.02,.04-.03,.06-.05,.12-.12,.24-.18,.3l.14,.14h0s.16-.03,.28-.03c-.02,.03-.03,.06-.04,.09,0,.02-.02,.04-.02,.05-.04,.1-.06,.16-.15,.22l.1,.18s.04,0,.06-.02c.16-.06,.31-.08,.4-.04,.06,.03,.09,.07,.1,.13v.03s.01,.02,.02,.03c.05,.11,0,.31-.19,.6-.06,.04-.12,.09-.16,.12-.04,.03-.09,.06-.12,.07h0c.05-.07,.12-.14,.2-.19l-.09-.19c-.19,.06-.32,.06-.45,.06h-.07l-.03,.07c-.07,.21-.22,.35-.38,.4-.1,.03-.21,0-.29-.09l-.13-.13-.04,.18c-.07,.23-.37,.53-.57,.48-.17-.08-.23-.2-.22-.34,.03,0,.07,.02,.1,.02,.06,0,.12-.01,.16-.04,.1-.06,.18-.18,.22-.35v-.03c0-.05,.02-.11,.05-.16,.1,.06,.25,.12,.45,.12,.12,0,.23-.01,.35-.04l-.06-.21c-.09,.03-.16-.03-.19-.09-.04-.07-.01-.16,.07-.21,.03,0,.07,.02,.11,.04,.06,.03,.12,.06,.19,.06,.03,0,.07-.01,.12-.04l-.09-.19s-.06,0-.12-.03c-.09-.03-.21-.09-.35-.04-.03,0-.06,.01-.09,.01-.01,0-.04,0-.06,0v-.15c-.23,0-.38,.15-.38,.38,0,.04-.04,.12-.07,.18-.06,.1-.13,.23-.13,.37-.03,.12-.07,.18-.12,.21-.04,.01-.09,.01-.16,0-.15-.09-.15-.1-.15-.25,0-.09,.06-.15,.15-.23,.03-.03,.07-.07,.1-.12,0,0,0,0,0,0h0c.05-.07,.09-.14,.1-.25,.01-.03,.03-.07,.04-.1,.03-.06,.06-.15,.09-.18,.01,0,.01-.01,.03-.01l.31-.21h-.38s-.07,.01-.1,.04c-.09,.05-.19,.06-.29,.05v-.02s-.03,0-.05,.01c-.04,0-.09,0-.13-.03-.13-.06-.21-.16-.23-.31l-.21,.03c.02,.17,.13,.31,.28,.41-.05,.03-.1,.06-.13,.1-.07,.1-.1,.22-.06,.34,.04,.1,.12,.19,.22,.22,.03,.01,.07,.02,.11,.02-.04,.06-.07,.13-.07,.23,0,.2,.02,.26,.12,.34-.08,.07-.16,.13-.25,.13-.19,.01-.35-.13-.41-.18-.01-.06-.04-.25,.15-.82l-.21-.07c-.02,.06-.02,.09-.04,.14-.02-.02-.05-.03-.06-.06-.07-.15-.06-.37,.01-.57l-.11-.04-.05-.28c-.04-.22,.1-.43,.23-.6,.01-.03,.04-.06,.06-.09,.04,.13,.09,.26,.06,.37t-.01,.03l.1,.03,.07,.02h.04s.01,0,.01-.02c.01-.05,.05-.1,.09-.15,.13-.16,.37-.33,.59-.45Zm-.41,1.58c.04-.06,.12-.1,.2-.11,.08,.01,.16,.02,.24,.01-.01,.03-.03,.07-.04,.1v.03s-.01,.03-.01,.03c0,.05-.02,.08-.05,.12-.09,.05-.2,.08-.28,.05-.04-.01-.07-.04-.09-.09-.01-.06,0-.12,.03-.15Zm1.09,.19s0-.02,0-.04c.06,.02,.11,.02,.18,.02-.03,.09-.04,.18,0,.27,.01,.03,.01,.04,.03,.06-.15-.01-.25-.06-.29-.09,.04-.08,.07-.15,.07-.21Zm-2.42-.91c.13-.01,.28,.03,.34,.09l.04,.04,.14,.14h-.02c-.09,.2-.08,.44-.02,.64l-.15-.31c-.09-.18-.18-.34-.31-.34v.21h-.01s.03,.03,.04,.06c-.04,.01-.07,.03-.12,.07,0,0-.01,.02-.02,.03-.1-.17-.15-.35-.08-.48,0-.02,.02-.03,.04-.04,.04-.04,.09-.08,.15-.09Zm-1.44,5.41c.09-.16,.29-.28,.5-.38,0,.09-.01,.16-.04,.26-.18,.15-.41,.29-.64,.41l.19-.29Zm5.63-2.36s-.07-.01-.1-.02c-.34-.05-.47-.22-.47-.29h0c0-.07,0-.13,0-.22h-.21c0,.46-.04,.63-.16,.77,.02-.14,.02-.3,.02-.47h-.21c0,.48-.04,.81-.23,1.05,0-.05,0-.1,0-.14h-.21c0,.26-.04,.44-.15,.59v-.09h-.02c.02-.06,.03-.14,.03-.22h-.21c0,.16-.04,.26-.12,.35,0-.03-.01-.06-.01-.07h-.21c-.04,.21-.12,.35-.26,.54v-.09c0-.1,0-.21,.03-.28l-.19-.07c-.11,.26-.28,.5-.47,.68,.04-.1,.08-.22,.1-.35l-.21-.03c-.04,.28-.16,.51-.38,.7,.01-.07,.01-.16,.01-.23,0-.11,0-.22,.03-.32,.08-.1,.16-.22,.24-.37l-.19-.1c-.07,.12-.13,.22-.2,.3h-.02s-.02,.05-.03,.08c-.17,.21-.34,.32-.53,.4,.07-.14,.11-.3,.13-.46l-.21-.03c-.04,.43-.29,.78-.73,1.07,.03-.09,.04-.19,.07-.29l.03-.09h-.04s.04-.03,.05-.04h.03s.01-.04,.01-.04c.06-.18,.07-.3,.07-.42,.16-.13,.35-.3,.49-.58l-.19-.09c-.08,.17-.19,.29-.29,.39h0s-.15,.06-.15,.06c-.21,.1-.4,.19-.56,.32v-.06h-.01c.1-.35,.3-.63,.67-.95l-.13-.16c-.24,.21-.42,.41-.55,.61,.01-.49,.27-.76,.81-1.08l-.1-.18c-.14,.08-.25,.16-.36,.25,.1-.23,.25-.44,.52-.54l-.09-.19c-.08,.03-.13,.08-.2,.13,.02-.15,.08-.3,.18-.44,.06,0,.1-.01,.14-.04,.01-.01,.04-.03,.06-.03v-.21s-.03,.01-.05,.02c0-.08,.03-.17,.07-.26,.03-.03,.06-.05,.1-.08,.06-.03,.12-.07,.16-.12l-.14-.14c.03-.08,.06-.14,.09-.18,.03-.03,.05-.07,.08-.09,.02-.02,.06-.02,.09-.02,.03,0,.06,.01,.1,.03l.12-.18s-.1-.1-.1-.13v-.04l-.03-.03s-.04-.04-.05-.07c0-.02,.01-.04,.03-.05,.06-.04,.09-.03,.1-.01l.32,.21s0,.05,.01,.07c.04,.08,.1,.14,.18,.18-.02,.08-.03,.14-.04,.2h0c-.04,.16-.06,.35-.07,.54-.03,.19-.04,.38-.07,.48-.06,.12-.13,.37-.03,.59,.01,.03,.04,.05,.06,.07,.06-.03,.11-.09,.17-.14,0,0,0,0,0,0-.06-.15-.01-.34,.03-.41h0c.03-.15,.06-.34,.07-.56,0,0,0-.01,0-.02,.1,.07,.26,.16,.45,.15,.02-.04,.04-.08,.06-.12,.15,0,.28-.06,.35-.21-.07,.21,0,.41,.28,.56-.02,.03-.03,.06-.05,.09,0,0,0,0,0,0h.01s.07,.03,.1,.03c.04,0,.08-.02,.13-.03-.21,.57-.41,.76-.7,.78-.05,.07-.1,.14-.15,.19,.02,0,.05,0,.07,0,.45,0,.76-.26,1.06-1.09h-.03c.14-.11,.26-.24,.34-.37,.12,.06,.23,.07,.37,.04,.21-.06,.4-.23,.5-.47h.09c-.06,.09-.09,.16-.1,.25-.01,.09,.01,.16,.07,.22,.01,.01,.04,.04,.09,.06,0,0,.02,0,.03,0-.01,.14-.03,.27,.02,.37,.03,.09,.06,.15,.09,.21,.03,.09,.07,.17,.12,.24,.04,.06,.09,.12,.17,.17h.03s.06,.01,.06,.01h-.01Z"/>
  <path d="M63.22,33.1c-.01-.08,0-.16,.03-.23,0,0,.01-.02,.02-.02,0-.02,.02-.03,.03-.05,0-.01,.02-.02,.03-.03v.1s.23,.06,.35,.18l.15-.15c-.13-.12-.29-.18-.41-.21v-.17c-.08-.02-.13-.06-.17-.11-.13,.07-.22,.02-.29-.07-.02,.08-.02,.16,0,.24,.01,.09,.07,.16,.15,.22-.04,.04-.07,.09-.1,.15-.04,.09-.05,.21-.04,.32,0,0,0,0,.01-.02,.05-.18,.15-.2,.25-.15Z"/>
  <path d="M79.59,32.2l.25,.19c.12,.09,.12,.16,.12,.28-.01,.04-.01,.1,0,.16-.97,.01-1.61,.12-2.2,.21-.51,.07-.95,.15-1.51,.15-1.07,0-1.58-.15-1.58-.45,0-.21,.38-.32,1.01-.32,.29,0,.75,.16,1,.25l.09,.03c.78,.31,1.5,.28,1.94-.09l.22-.19h-.29c-.18,0-.29-.13-.41-.26-.03-.04-.06-.09-.1-.12,.03,0,.06-.01,.07-.01,.1-.03,.21-.07,.35-.1,.32-.1,.78-.18,1.04-.01l.22,.13-.06-.25c-.04-.19-.15-.32-.32-.43-.22-.12-.51-.16-.88-.12,.21-.19,.37-.44,.37-.63v-.21l-.16,.12c-.23,.18-.62,.18-.98,.19-.35,.01-.72,.01-.97,.16-.4,.19-.65,.47-.75,.66-.12,.12-.37,.18-.69,.18-1.25,0-1.58,.6-1.58,.95,0,.21,.13,1.23,2.57,1.23,.67,0,1.25-.1,1.83-.21,.55-.09,1.12-.18,1.83-.21v-.32c-.72,.02-1.31,.11-1.86,.21-.57,.1-1.13,.19-1.79,.19-2.29,0-2.36-.91-2.36-1.01,0-.12,.06-.28,.22-.42,.2-.17,.54-.32,1.14-.32,.2,0,.44-.02,.64-.1,.02,0,.04-.02,.06-.03,.03-.02,.05-.04,.08-.06,.02-.02,.05-.03,.07-.05v-.03s.11-.15,.25-.29c.1-.1,.23-.2,.42-.3,.21-.12,.53-.12,.87-.13,.31-.01,.62-.01,.87-.1-.01,.02-.03,.03-.05,.05-.14,.19-.37,.4-.59,.49l.07,.21s.03,0,.05-.01c.51-.13,.95-.14,1.21,0,.04,.01,.07,.04,.1,.07-.01,0-.03,0-.04,0-.37-.06-.78,.06-.88,.09-.15,.03-.26,.07-.37,.1-.1,.03-.21,.07-.34,.1l.04,.21s.03,.01,.05,.02c.06,.02,.12,.07,.2,.16,.09,.09,.18,.21,.31,.26,0,0-.02,0-.03,0-.38,.18-.92,.15-1.51-.08l-.09-.03c-.26-.09-.75-.25-1.07-.25-1.01,0-1.23,.29-1.23,.53,0,.14,.05,.26,.16,.35,.23,.22,.75,.32,1.63,.32,.57,0,1.04-.07,1.54-.15,.59-.1,1.24-.19,2.22-.2v-.76s-.06,0-.09,0h-.32Z"/>
  <path d="M77.73,36.38s-.04-.01-.07-.04l-.18-.18v.13c-.35-.18-.57-.37-.76-.54-.29-.26-.53-.47-1.09-.43v.21c.42-.03,.61,.1,.83,.29-.16,.08-.34,.19-.45,.33-.04-.03-.12-.06-.19-.09-.01,0-.03-.02-.05-.02l.06-.05-.21-.06c-.29-.07-.73-.09-1.06,.07-.15,.09-.31,.16-.45,.25-1.26,.66-2.54,1.33-3.38,1.17,0-.2,.12-.44,.43-.54l-.07-.21c-.38,.13-.56,.42-.57,.69h-.02s0,.14,0,.14c0,.1,.03,.21,.07,.31-.19-.01-.43-.04-.51-.16l-.1-.15-.09,.16c-.06,.1-.16,.34-.15,.59-.19-.09-.43-.18-.57-.22l-.1,.18s.04,.15,.03,.25v.07c-.23-.15-.5-.22-.66-.06-.09,.09-.24,.12-.38,.12,0-.03,.02-.06,.02-.09,.01-.09,.03-.16,.06-.22l-.19-.09c-.03,.09-.06,.19-.07,.28,0,.04-.02,.06-.03,.1h-.02s-.04,.07-.04,.07c-.09,.13-.22,.25-.37,.32-.01-.15-.03-.26-.1-.34l-.12-.12-.06,.16c-.06,.16-.19,.35-.37,.48,0-.12-.01-.25-.07-.35l-.21,.04c0,.1-.15,.21-.29,.29-.01,.01-.04,.03-.06,.04,.01-.1,.01-.19,.01-.26v-.35l-.19,.29c-.12,.18-.26,.31-.43,.38,.03-.09,.04-.19-.01-.29l-.13-.25-.07,.28c-.04,.18-.3,.29-.58,.28,.02-.04,.05-.08,.08-.12,.03-.04,.06-.09,.09-.15l-.19-.09s-.04,.09-.07,.13c-.05,.06-.09,.13-.11,.2h-.06s0,.12,0,.12c0,.01-.01,.06-.07,.09-.03,.01-.07,.03-.14,.04,.02,.07,.01,.14-.02,.22,0,0,.02,0,.02,0,.12,0,.21-.04,.25-.12,.07-.03,.13-.09,.16-.15,.03,0,.06,0,.08,0,.07,0,.13,0,.2-.01,.02,0,.05-.01,.07-.02,.06-.01,.11-.04,.16-.06,.03-.01,.07-.02,.1-.04,0,0-.01,.01-.01,.03l-.1,.19,.21-.04s0,0,0,0c.05,0,.09-.03,.13-.05,.08-.03,.16-.06,.23-.11,.04-.02,.07-.05,.1-.07,.03-.02,.06-.04,.09-.06,0,.07-.01,.15-.04,.22l.14,.05,.05,.02h.02s.13-.13,.23-.18c.09-.04,.18-.1,.25-.18v.38l.15-.07c.21-.1,.37-.26,.48-.43v.26l.13-.04c.23-.07,.43-.21,.57-.4,.22,.04,.5-.03,.66-.19,.07-.07,.37,.01,.56,.21l.05-.03,.04-.03,.08-.05c-.03-.07-.03-.16-.01-.25,.01-.06,.01-.12,.01-.18,.19,.06,.44,.16,.53,.25l.04-.03,.04-.03,.09-.06c-.09-.18-.04-.4,.01-.54,.21,.13,.54,.13,.73,.13h.18l-.07-.15c-.04-.07-.07-.16-.1-.23,.91,.15,2.2-.54,3.46-1.2,.15-.07,.31-.16,.45-.23,.19-.1,.47-.13,.7-.1-.19,.19-.45,.51-.38,.82,.06,.19,.23,.34,.53,.43-.44,.34-.85,.54-1.1,.54h-.01c-.43,.07-.5,.06-.6-.09h-.01c-.16-.18-.36-.25-.56-.2,.05,.05,.02,.14-.03,.21,.08-.03,.23-.04,.41,.13,.18,.26,.4,.23,.79,.18,.4-.01,.97-.38,1.39-.73l.18-.15-.22-.04c-.23-.04-.53-.13-.57-.32-.04-.2,.18-.48,.41-.7,.04,.02,.09,.04,.14,.07,.09,.04,.21,.09,.23,.12l.1,.1s-.02,0-.03,.02c-.15,.15,.07,.21,.21,.21-.07,.21-.07,.28,.28,.28-.15,.21,.28,.28,.21,.56,.21-.21,.21-.5,.15-.7-.06-.19-.41-.32-.21-.54-.2,.14-.4,.02-.6,.19l.06-.13c.04-.1,.3-.3,.49-.36,.19,.17,.44,.37,.81,.55-.02,.06-.05,.11-.09,.18-.07,.12-.16,.23-.16,.41,0,.4,.16,.66,.5,.82-.06,.06-.13,.09-.21,.09-.1,0-.19-.06-.25-.13l-.19-.29v.35c0,.06-.04,.13-.1,.21-.03,.04-.07,.1-.1,.16-.01-.03-.03-.06-.05-.1,0-.09,.01-.19,.07-.28l-.19-.09c-.06,.11-.07,.22-.08,.32v.02c-.11,.26-.34,.48-.59,.57-.03,0-.05,.01-.08,.02,.04-.09,.07-.18,.1-.3l-.21-.04c-.04,.17-.08,.27-.13,.34l-.06-.03-.06,.04c-.16,.13-.35,.18-.51,.15-.04,0-.08-.03-.11-.04,.14-.09,.27-.2,.42-.35l-.15-.15c-.18,.16-.29,.27-.43,.34l-.04-.07-.1,.07c-.16,.12-.4,.12-.5,.01l-.18-.18v.25q0,.07-.04,.12c-.04,.06-.12,.12-.16,.29v.03s-.01,.03-.06,.04c-.02,0-.04,0-.06,.01,.03,.06,.04,.12,.03,.18,.01,0,.03,0,.04-.01,0,0,0,0,0,0,.04-.01,.08-.01,.11-.03,.09-.04,.13-.12,.13-.19,.03-.1,.06-.13,.1-.18,.03-.01,.06-.04,.07-.09,.15,.06,.35,.06,.53-.03,.07,.1,.19,.18,.32,.21,.21,.04,.43,0,.63-.15,.01,0,.03,0,.05,0v.02s.02-.02,.03-.02c.1,.02,.22,0,.35-.04,.25-.1,.47-.28,.62-.51h.01c.04,.06,.07,.12,.1,.18h.07s.05-.03,.05-.03l.09-.02c0-.12,.06-.22,.13-.31,.03-.04,.06-.09,.09-.13,.09,.06,.19,.09,.29,.09,.18,0,.34-.1,.45-.29l.07-.12-.12-.04c-.34-.12-.48-.32-.48-.67,0-.1,.06-.19,.12-.29,.04-.07,.1-.15,.13-.23,.01,.01,.04,.03,.06,.04h.01s.03,.03,.03,.03c.54,.18,1.4,.36,2.23,.45v-.24c-.79-.09-1.62-.25-2.16-.43-.04-.04-.09-.06-.12-.07Z"/>
  <path d="M63.4,38.53s.03,.02,.04,.03c0-.01,0-.02,.02-.03,0,0,0-.03,.01-.05,.06-.02,.13-.03,.19-.01,.03,.01,.07,.01,.12,.01,.09,0,.19-.01,.25-.1l-.15-.15s-.1,.04-.21,.03c-.07-.01-.15-.02-.24,0-.07-.06-.11-.13-.12-.21,0-.04,0-.07,0-.1-.06,0-.11-.04-.16-.11-.03,.08-.05,.16-.04,.24,.01,.13,.07,.25,.18,.34-.01,0-.01,.01-.01,.01-.01,.03-.04,.07-.04,.11,.05-.01,.1-.03,.16-.02Z"/>
  <path d="M79.07,34.66v.21s.04,.02,.06,.03c.14,.05,.33,.16,.54,.29,.1,.07,.21,.13,.32,.2v-.17c-.08-.05-.16-.1-.24-.15-.04-.03-.09-.06-.13-.09,.06,.01,.12,.03,.19,.04,.05,.01,.11,.03,.18,.04v-.28s-.07-.01-.1-.02c-.25-.06-.47-.1-.82-.1Z"/>
  <path d="M63.82,39.44s.04-.08,.08-.1c-.06-.04-.1-.08-.11-.12,0-.03,0-.04,.03-.07h.01s.03-.03,.03-.03c.16-.07,.38-.23,.47-.4l-.19-.09c-.04,.1-.21,.22-.35,.29-.03,0-.04,.02-.06,.04-.08,0-.15-.04-.21-.08-.02,.06-.07,.11-.17,.12,.07,.07,.16,.12,.25,.15-.01,.04-.01,.07,0,.12,.02,.1,.09,.18,.18,.24,.01-.03,.03-.05,.04-.08Z"/>
  <path d="M72.59,38.11s0-.02,0-.03c.06-.04,.19-.13,.26-.06l.25,.25v-.06s.06,.03,.1,.03c.04,0,.09-.01,.15-.04l-.09-.19c-.07,.04-.09,.03-.15-.03,0-.02,0-.04,.01-.05-.09,.08-.25,.03-.25-.1,0,0,0,0,0,0-.16-.03-.34,.06-.42,.15v.03s-.02,.06-.03,.1c.05,0,.11,0,.16,.02Z"/>
  <path d="M72.93,38.67s.01-.05,.03-.07h.12v-.06s.01,0,.01,0l.02-.08v.17c.1,0,.19-.09,.22-.1l-.15-.15s-.05,.03-.06,.04v-.02c-.16-.07-.36-.01-.48-.06,0,0,0,0,0,0-.04,.06-.09,.08-.17,.06,.02,.04,.03,.09,.07,.13v-.04c.07,.03,.13,.04,.21,.04-.03,.08-.04,.17-.04,.26,.08-.06,.16-.11,.23-.11Z"/>
  <path d="M71.3,34.02c-.06,.01-.1,.01-.15,0l-.12-.06-.03,.13c-.04,.15-.09,.21-.12,.22l-.09-.09-.06,.13s-.04,.1-.06,.16c-.03,.07-.09,.25-.12,.26h-.07l-.03,.07c-.06,.18-.25,.35-.47,.35h-.04l-.03,.03c-.06,.04-.18,.1-.28,.1h-.1v.1s-.04,.15-.1,.21l.15,.15c.06-.06,.13-.16,.13-.22,.12-.01,.23-.07,.31-.13,.29-.01,.51-.23,.6-.44,.13-.06,.19-.23,.25-.4,0-.01,.01-.04,.01-.06,.03,0,.04-.01,.06-.01,.1-.03,.18-.13,.23-.28,.07,0,.15,0,.21-.03,.12-.04,.21-.15,.25-.28l-.21-.07c-.03,.07-.07,.12-.13,.15Z"/>
  <path d="M68.29,34.9s-.03-.1-.03-.13c.06-.12,.13-.31,.09-.47,.09-.07,.12-.21,.13-.26,.03-.1,.03-.19,.01-.28,.13-.09,.26-.22,.26-.34h-.21s-.1,.12-.22,.18l-.09,.04,.04,.09s.03,.13,0,.23c-.01,.12-.06,.18-.09,.19l-.09,.04,.04,.09c.04,.07,.01,.23-.07,.4v.03s-.01,.03-.01,.03c0,.04,.01,.12,.04,.21,.01,.04,.03,.12,.03,.15h.14s.01-.06,.04-.09c0-.03,0-.05-.03-.1Z"/>
  <path d="M71.49,36.82v.21c.19,0,.31-.19,.31-.31h-.21s-.03,.1-.1,.1Z"/>
  <path d="M71.9,36.91l.15,.15c.09-.07,.25-.31,.23-.5h-.21c0,.1-.12,.29-.18,.35Z"/>
  <path d="M72.5,36.74l.09,.19c.19-.1,.19-.35,.21-.51h-.21c0,.1,0,.28-.09,.32Z"/>
  <path d="M64.6,32.4c-.09,.09-.1,.12-.1,.22h.21v-.03s.03-.03,.04-.04l-.06-.06-.04-.04-.05-.05Z"/>
  <path d="M63.75,32.42c.08,.08,.12,.1,.21,.1v-.2h-.01s-.03-.03-.04-.04l-.08,.08h-.01s-.06,.07-.06,.07Z"/>
  <path d="M63.97,32.52s0,0-.01,0h0s.01,0,.01,0Z"/>
  <polygon points="77.8 31.96 77.24 31.96 77.24 32.17 77.8 32.17 77.8 32.07 77.8 32.06 77.8 31.96"/>
  <path class="cls-3" d="M68.33,35s-.03,.06-.04,.09c-.06,.16,.03,.34,.24,.34,.47,.1,.79,.02,1.11-.33,.05-.06,.1-.12,.15-.19,.14-.2,.29-.45,.46-.78,.02-.03,.03-.05,.05-.09-.28-.15-.35-.35-.28-.56-.07,.15-.21,.21-.35,.21-.02,.04-.04,.08-.06,.12-.16,.35-.35,.65-.55,.84-.05,.05-.11,.11-.17,.14-.09,.05-.18,.09-.28,.09-.13,.02-.22,.07-.28,.13Z"/>
  <path class="cls-3" d="M63.24,32.41s.06-.03,.1-.06c.11-.11,.12-.22,.09-.31,0-.02-.02-.04-.03-.06-.01-.02-.03-.05-.05-.07-.03-.03-.05-.05-.09-.07-.21-.07-.63,0-.85,.35,.21-.07,.43-.07,.5,.07,.01,.02,.03,.04,.04,.07,.06,.09,.16,.14,.29,.07Z"/>
  <path class="cls-3" d="M63.91,31.63c.07,.04,.18,.08,.28,.08,.07,0,.15-.06,.19-.15,.01-.02,.02-.04,.02-.07,0-.03,0-.06,0-.09,0-.02,0-.04,0-.05-.07-.21-.21-.28-.7-.28,.18,.06,.2,.22,.16,.36,0,.02,0,.04-.02,.06-.04,.03,0,.08,.07,.13Z"/>
  <path class="cls-3" d="M64.93,32.06c.02,.05,.07,.1,.15,.13,.13,.03,.22,0,.28-.03,0,0,.02,0,.02-.02,.03-.03,.05-.06,.06-.1,.02-.08,0-.17-.09-.28-.07-.21-.28-.35-.63-.28,.19,.12,.18,.28,.18,.42,0,.03,0,.05,0,.08,0,.02,0,.04,.01,.06Z"/>
  <path class="cls-3" d="M63.4,33.35s.01-.06,0-.09c-.05-.07-.11-.12-.17-.15-.1-.05-.2-.03-.25,.15,0,0,0,0-.01,.02-.13,.27-.33,.2-.47,.13,.2,.35,.55,.35,.7,.28,0,0,0,0,0,0,.17-.06,.22-.2,.21-.33Z"/>
  <path class="cls-3" d="M63.32,37.96s.07,.01,.09,.01c.04-.05,.13-.11,.15-.18,0-.03,0-.07-.01-.11-.02-.04-.05-.05-.08-.08-.18-.18-.52-.16-.83,.08,.15-.07,.43,0,.5,.15,0,.02,.02,.02,.03,.03,.05,.07,.1,.1,.16,.11Z"/>
  <path class="cls-3" d="M63.93,37.47s.02,0,.02,0c.11-.05,.15-.11,.15-.15,0-.02,.01-.04,0-.05,0-.01,0-.02,0-.03,0-.04-.02-.06-.04-.09-.11-.24-.49-.29-.73-.16,.15,0,.35,.15,.35,.28,.02,.04,.05,.06,.08,.09,.06,.06,.12,.1,.18,.11Z"/>
  <path class="cls-3" d="M63.52,38.89s.03-.03,.03-.06c.06-.14,0-.2-.1-.26-.02,0-.02-.02-.04-.03-.06-.01-.11,.01-.16,.02-.31,.06-.47,.45-.47,.75,.07-.21,.28-.35,.5-.28,.04,0,.05-.02,.08-.02,.09-.02,.15-.06,.17-.12Z"/>
  <path class="cls-3" d="M64.26,39.48s-.04-.09-.08-.11c-.05-.05-.18-.06-.27-.02-.04,.02-.08,.05-.08,.1-.01,.03-.02,.05-.04,.08-.08,.16-.19,.26-.32,.2,.15,.28,.5,.22,.63,.15,.07-.05,.11-.1,.14-.17,.04-.08,.04-.16,.02-.22Z"/>
  <path class="cls-3" d="M73.13,37.92s.02-.01,.03-.03c.02-.01,.03-.04,.05-.07,.05-.07,.08-.15,.03-.21,0,0,0,0,0,0-.15-.07-.5-.21-.78,0,.2-.07,.35,.07,.42,.2,0,0,0,0,0,0,0,.13,.16,.18,.25,.1Z"/>
  <path class="cls-3" d="M72.63,38.34s.05-.04,.05-.08c.07-.07,.07-.15-.07-.15,0,0-.01,0-.02,0-.05-.02-.11-.03-.16-.02-.23,.03-.47,.29-.52,.52,.07-.07,.35-.21,.5-.21,.02,.01,.04,0,.06,0,.08,.02,.14,0,.17-.06Z"/>
  <path class="cls-3" d="M73.16,38.88s0,0,0-.01c0-.13-.06-.21-.21-.21,0,0-.02,0-.03,0-.08,0-.16,.05-.23,.11-.13,.11-.24,.27-.24,.43,.07-.15,.21-.21,.35-.15,.03,0,.06,0,.1-.01,.12-.02,.24-.08,.25-.18Z"/>
  <path class="cls-3" d="M73.64,39.31s-.02-.05-.05-.07c-.06-.03-.12-.03-.18-.01-.07,.02-.12,.06-.15,.14,0,.03-.02,.05-.02,.08,0,.21,0,.43-.07,.5,.15-.15,.28-.21,.43-.28,.03-.03,.07-.1,.08-.18,0-.06,0-.12-.03-.18Z"/>
  <path class="cls-6" d="M61.72,45.56l3.51,2.55-.13,.41-.94,2.89-.27,.83,1.02-.74,2.5-1.81,1,.72,2.52,1.83-.5-1.54-.84-2.58,.94-.68,2.57-1.87h-4.34l-.61-1.88-.74-2.27-.96,2.97-.39,1.19h-4.34Zm5.69-2.89l1.04,3.24h3.45l-2.8,2.05,1.05,3.29-2.77-2.04-2.79,2.04,1.08-3.3-2.77-2.04h3.44l1.06-3.24Z"/>
  <polygon class="cls-4" points="62.91 45.91 65.68 47.95 64.6 51.25 67.39 49.21 70.16 51.25 69.1 47.96 71.9 45.91 68.45 45.91 67.41 42.67 66.35 45.91 62.91 45.91"/>
  <polygon class="cls-6" points="79.28 45.56 74.94 45.56 77.49 47.41 78.45 48.1 77.61 50.7 77.11 52.23 79.63 50.4 80 50.14 80 49.65 77.81 51.25 78.9 47.95 76.13 45.91 79.57 45.91 80 44.59 80 43.34 79.88 43.7 79.28 45.56"/>
  <polygon class="cls-4" points="79.57 45.91 76.13 45.91 78.9 47.95 77.81 51.25 80 49.65 80 44.59 79.57 45.91"/>
  <path class="cls-6" d="M73.15,51.74l-.49,1.49h-4.34l1.02,.74,2.49,1.8-.85,2.63-.49,1.5,1.47-1.06,2.05-1.49,2.06,1.49,1.46,1.06-.48-1.49-.86-2.64,2.49-1.81,1.02-.74h-4.34l-.49-1.49-.86-2.66-.86,2.66Zm1.9,1.85h3.45l-2.8,2.05,1.05,3.29-2.77-2.04-2.79,2.04,1.08-3.3-2.77-2.04h3.44l1.06-3.24,1.04,3.24Z"/>
  <polygon class="cls-4" points="72.95 53.58 69.51 53.58 72.28 55.62 71.2 58.92 73.99 56.88 76.76 58.92 75.7 55.63 78.5 53.58 75.05 53.58 74.01 50.34 72.95 53.58"/>
</svg>