<?xml version="1.0" encoding="UTF-8"?>
<svg id="Layer_1" data-name="Layer 1" xmlns="http://www.w3.org/2000/svg" viewBox="0 0 80 80">
  <defs>
    <style>
      .cls-1 {
        fill: #fff;
      }

      .cls-2 {
        fill: #23439b;
      }

      .cls-3 {
        fill: #d23027;
      }
    </style>
  </defs>
  <path class="cls-1" d="M80,40V20c0-11.05-8.95-20-20-20h-21.86V40h41.86Z"/>
  <path class="cls-3" d="M20,80H60c11.05,0,20-8.95,20-20v-20H0v20c0,11.05,8.95,20,20,20Z"/>
  <path class="cls-2" d="M38.14,0H20C8.95,0,0,8.95,0,20v20H38.14V0Zm-15.45,28.01l-6.42-4.66-6.42,4.66,2.45-7.55-6.41-4.67h7.93l2.45-7.54,2.46,7.54h7.93l-6.42,4.67,2.45,7.55Z"/>
  <polygon class="cls-1" points="18.72 15.8 16.26 8.25 13.82 15.8 5.89 15.8 12.3 20.46 9.85 28.01 16.26 23.35 22.68 28.01 20.24 20.46 26.65 15.8 18.72 15.8"/>
</svg>