<?xml version="1.0" encoding="UTF-8"?>
<svg id="Layer_1" data-name="Layer 1" xmlns="http://www.w3.org/2000/svg" viewBox="0 0 80 80">
  <defs>
    <style>
      .cls-1 {
        fill: #dc2d26;
      }

      .cls-2 {
        fill: #fd0;
      }
    </style>
  </defs>
  <path class="cls-1" d="M60,0H20C8.95,0,0,8.95,0,20V60c0,11.05,8.95,20,20,20H60c11.05,0,20-8.95,20-20V20c0-11.05-8.95-20-20-20Zm-18.02,10.39l2.07,2.09,2.64-1.33-1.34,2.63,2.08,2.09-2.91-.47-1.35,2.63-.45-2.92-2.91-.47,2.63-1.33-.45-2.91ZM20.52,28.37l-7.25-5.27-7.25,5.27,2.77-8.53L1.54,14.57H10.5l2.77-8.52,2.77,8.52h8.96l-7.25,5.27,2.77,8.53Zm15.77,8.5l-.18,2.94-1.58-2.49-2.86,.73,1.88-2.27-1.57-2.5,2.74,1.09,1.88-2.27-.19,2.95,2.74,1.09-2.87,.73Zm.03-30.5l-.19,2.95-1.58-2.5-2.85,.73,1.89-2.27-1.57-2.49,2.74,1.09,1.89-2.27-.18,2.95,2.74,1.09-2.86,.73Zm9.72,24.09l-2.38-1.73-2.39,1.73,.92-2.81-2.38-1.73h2.94s.92-2.81,.92-2.81l.9,2.81h2.95s-2.38,1.73-2.38,1.73l.9,2.81Z"/>
  <polygon class="cls-2" points="16.04 14.57 13.27 6.05 10.5 14.57 1.54 14.57 8.79 19.84 6.02 28.37 13.27 23.1 20.52 28.37 17.75 19.84 25 14.57 16.04 14.57"/>
  <polygon class="cls-2" points="36.63 1.6 34.74 3.87 32.01 2.78 33.58 5.27 31.69 7.54 34.55 6.81 36.13 9.31 36.32 6.36 39.18 5.63 36.44 4.54 36.63 1.6"/>
  <polygon class="cls-2" points="42.71 15.11 43.17 18.02 44.52 15.39 47.42 15.86 45.34 13.77 46.69 11.15 44.05 12.48 41.98 10.39 42.43 13.31 39.8 14.64 42.71 15.11"/>
  <polygon class="cls-2" points="44.57 25.91 43.67 23.1 42.75 25.91 39.8 25.91 42.19 27.64 41.27 30.44 43.66 28.71 46.04 30.45 45.14 27.64 47.52 25.91 44.57 25.91"/>
  <polygon class="cls-2" points="36.61 32.1 34.72 34.37 31.98 33.28 33.55 35.77 31.67 38.04 34.53 37.31 36.11 39.81 36.29 36.86 39.16 36.14 36.42 35.05 36.61 32.1"/>
</svg>