<?xml version="1.0" encoding="UTF-8"?>
<svg id="Layer_1" data-name="Layer 1" xmlns="http://www.w3.org/2000/svg" viewBox="0 0 80 80">
  <defs>
    <style>
      .cls-1 {
        fill: #fff;
      }

      .cls-2 {
        fill: #ffc71f;
      }

      .cls-3 {
        fill: #3f75ba;
      }

      .cls-4 {
        fill: #cd2028;
      }

      .cls-5 {
        fill: #3e8e43;
      }
    </style>
  </defs>
  <path class="cls-2" d="M79.91,18.13C78.96,7.96,70.41,0,60,0H20C13.06,0,6.95,3.54,3.36,8.91l13.83,9.22h62.71Z"/>
  <path class="cls-3" d="M20,80H60c10.42,0,18.97-7.97,19.91-18.14H17.2l-13.84,9.23c3.59,5.37,9.7,8.91,16.64,8.91Z"/>
  <path class="cls-4" d="M17.2,61.86h62.71c.06-.61,.09-1.23,.09-1.86v-20h-30L17.2,61.86Z"/>
  <path class="cls-1" d="M50,40h30V20c0-.63-.04-1.25-.09-1.87H17.19l32.8,21.87Z"/>
  <path class="cls-5" d="M50,40L17.19,18.13,3.36,8.91C1.24,12.08,0,15.9,0,20v2.55c2.06-.78,4.29-1.23,6.62-1.23,1.88,0,3.7,.28,5.41,.8-4.91,.66-9.19,3.29-12.03,7.06v21.63c2.84,3.78,7.12,6.41,12.03,7.07-1.71,.52-3.53,.8-5.41,.8-2.34,0-4.56-.45-6.62-1.23v2.55c0,4.1,1.24,7.91,3.36,11.09l13.84-9.23,32.8-21.86ZM14.13,56.45l-2.1-1.53-2.1,1.53,.8-2.48-2.11-1.53h2.61l.8-2.48,.8,2.48h2.61l-2.11,1.53,.79,2.48Zm-.79-11.28l.79,2.47-2.1-1.53-2.1,1.53,.8-2.47-2.11-1.53h2.61l.8-2.48,.8,2.48h2.61l-2.11,1.53Zm0-8.81l.79,2.48-2.1-1.53-2.1,1.53,.8-2.48-2.11-1.53h2.61l.8-2.48,.8,2.48h2.61l-2.11,1.53Zm0-8.81l.79,2.48-2.1-1.53-2.1,1.53,.8-2.48-2.11-1.53h2.61l.8-2.47,.8,2.47h2.61l-2.11,1.53Z"/>
  <path class="cls-1" d="M12.03,57.88c-4.91-.65-9.19-3.29-12.03-7.07v6.64c2.06,.78,4.29,1.23,6.62,1.23,1.88,0,3.7-.28,5.41-.8Z"/>
  <path class="cls-1" d="M12.03,22.12c-1.71-.52-3.53-.8-5.41-.8-2.34,0-4.56,.45-6.62,1.23v6.63c2.84-3.78,7.12-6.41,12.03-7.06Z"/>
  <polygon class="cls-1" points="12.03 23.54 11.23 26.01 8.62 26.01 10.73 27.54 9.93 30.02 12.03 28.49 14.13 30.02 13.34 27.54 15.45 26.01 12.83 26.01 12.03 23.54"/>
  <polygon class="cls-1" points="12.03 32.35 11.23 34.83 8.62 34.83 10.73 36.35 9.93 38.83 12.03 37.3 14.13 38.83 13.34 36.35 15.45 34.83 12.83 34.83 12.03 32.35"/>
  <polygon class="cls-1" points="12.03 41.16 11.23 43.64 8.62 43.64 10.73 45.17 9.93 47.64 12.03 46.11 14.13 47.64 13.34 45.17 15.45 43.64 12.83 43.64 12.03 41.16"/>
  <polygon class="cls-1" points="12.83 52.45 12.03 49.97 11.23 52.45 8.62 52.45 10.73 53.98 9.93 56.45 12.03 54.92 14.13 56.45 13.34 53.98 15.45 52.45 12.83 52.45"/>
</svg>