<?xml version="1.0" encoding="UTF-8"?>
<svg id="Layer_1" data-name="Layer 1" xmlns="http://www.w3.org/2000/svg" viewBox="0 0 80 80">
  <defs>
    <style>
      .cls-1 {
        fill: #393f91;
      }

      .cls-2 {
        fill: #fff;
      }

      .cls-3 {
        fill: #f3ea24;
      }

      .cls-4 {
        fill: #4972b7;
      }

      .cls-5 {
        fill: #502e18;
      }

      .cls-6 {
        fill: #f2e924;
      }

      .cls-7 {
        fill: #8e3a37;
      }

      .cls-8 {
        fill: #ffc50c;
      }

      .cls-9 {
        fill: #d62027;
      }

      .cls-10 {
        fill: #554c21;
      }

      .cls-11 {
        fill: #301610;
      }

      .cls-12 {
        fill: #f2e926;
      }

      .cls-13 {
        fill: #28388f;
      }
    </style>
  </defs>
  <path class="cls-13" d="M20,80H60c11.05,0,20-8.95,20-20v-5.42h-29.56c-1.25,1.08-2.68,2-4.21,2.69-1.71,.76-3.96,1.26-6.19,1.37h-.04s0,0,0,0h-.03c-2.23-.11-4.48-.61-6.19-1.37-1.53-.69-2.95-1.61-4.21-2.69H0v5.42c0,11.05,8.95,20,20,20Z"/>
  <path class="cls-2" d="M55.51,26.3v17.69s0,.42,0,.42l-.04,1.04c-.18,1.53-.61,2.99-1.28,4.35-.59,1.2-1.37,2.34-2.31,3.39-.45,.49-.94,.96-1.45,1.4h29.56V25.42h-24.49v.88Z"/>
  <path class="cls-2" d="M28.11,53.18c-.94-1.05-1.72-2.19-2.31-3.39-.67-1.36-1.1-2.82-1.28-4.35l-.04-1.04v-.41s0-17.69,0-17.69v-.88H0v29.15H29.56c-.51-.44-1-.9-1.45-1.4Z"/>
  <path class="cls-9" d="M24.48,26.3v17.69s0,.41,0,.41l.04,1.04c.18,1.53,.61,2.99,1.28,4.35,.59,1.2,1.37,2.34,2.31,3.39,.45,.49,.94,.96,1.45,1.4,1.25,1.08,2.67,2,4.21,2.69,1.71,.76,3.96,1.26,6.19,1.37h.04s.04,0,.04,0c2.23-.11,4.48-.61,6.19-1.37,1.53-.69,2.96-1.61,4.21-2.69,.51-.44,1-.9,1.45-1.4,.94-1.05,1.72-2.19,2.31-3.39,.67-1.36,1.1-2.82,1.28-4.35l.04-1.04v-.42s0-17.69,0-17.69v-.88h24.49v-5.42c0-11.05-8.95-20-20-20H20C8.95,0,0,8.95,0,20v5.42H24.48v.88Zm15.34-16.26l4.05,3.1,4.31-2.61,3.4,3.69,4.86-1.98,2.7,4.71-3.84,7.76c-5.17-1.85-10.4-2.66-15.52-2.64-5.12,.01-10.37,.92-15.1,2.6l-3.84-7.72,2.6-4.66,4.86,2.08,3.25-3.85,4.45,2.57,3.81-3.05Zm15.44,35.37c-.18,1.5-.6,2.95-1.26,4.28-.58,1.18-1.35,2.31-2.28,3.34-1.52,1.69-3.45,3.08-5.58,4.04-1.68,.75-3.9,1.24-6.11,1.35h-.07c-2.21-.11-4.43-.6-6.11-1.35-2.13-.95-4.06-2.35-5.59-4.04-.93-1.03-1.69-2.15-2.28-3.34-.65-1.33-1.08-2.77-1.26-4.28l-.03-1.42V26.3s0-.66,0-.66h30.59v18.35s-.03,1.42-.03,1.42Z"/>
  <path class="cls-9" d="M26.58,49.4c.57,1.16,1.32,2.23,2.18,3.19,1.49,1.64,3.33,2.96,5.36,3.87,1.76,.79,3.95,1.2,5.88,1.3,1.93-.1,4.12-.51,5.88-1.3,2.03-.9,3.87-2.22,5.36-3.87,.86-.96,1.61-2.03,2.18-3.19,.63-1.28,1.03-2.66,1.19-4.06l.03-1.34V26.3H25.36v17.7s.03,1.34,.03,1.34c.17,1.41,.57,2.79,1.19,4.06Zm-.98-16.67h5.71v-6.18h5.79v6.18h5.79v-6.18h5.79v6.18h5.71v6.2h-5.71v6.19h5.7l-.02,.18c-.16,1.41-.56,2.75-1.17,3.98-.35,.7-.76,1.39-1.25,2.04h-3.26v3.23c-.9,.66-1.88,1.22-2.91,1.68-.84,.38-1.83,.68-2.88,.9v-5.81h-5.79v5.81c-1.05-.22-2.04-.52-2.88-.9-1.03-.46-2-1.03-2.9-1.68v-3.23h-3.27c-.48-.65-.9-1.33-1.25-2.04-.61-1.24-1.01-2.58-1.17-3.98v-.18s5.69,0,5.69,0v-6.19h-5.71v-6.2Z"/>
  <rect class="cls-9" x="37.11" y="38.93" width="5.79" height="6.19"/>
  <rect class="cls-9" x="31.32" y="45.13" width="5.79" height="6.2"/>
  <rect class="cls-9" x="42.89" y="32.73" width="5.79" height="6.2"/>
  <rect class="cls-9" x="31.32" y="32.73" width="5.79" height="6.2"/>
  <rect class="cls-9" x="42.89" y="45.13" width="5.79" height="6.2"/>
  <rect class="cls-2" x="42.89" y="26.55" width="5.79" height="6.18"/>
  <rect class="cls-2" x="37.11" y="32.73" width="5.79" height="6.2"/>
  <rect class="cls-2" x="48.68" y="32.73" width="5.71" height="6.2"/>
  <rect class="cls-2" x="25.61" y="32.73" width="5.71" height="6.2"/>
  <rect class="cls-2" x="37.11" y="45.13" width="5.79" height="6.2"/>
  <path class="cls-2" d="M51.95,51.33c.48-.65,.9-1.33,1.25-2.04,.61-1.24,1.01-2.58,1.17-3.98l.02-.18h-5.7v6.2h3.26Z"/>
  <path class="cls-2" d="M25.62,45.13v.18c.18,1.41,.57,2.75,1.18,3.98,.34,.7,.76,1.39,1.25,2.04h3.27v-6.2h-5.7Z"/>
  <rect class="cls-2" x="31.32" y="26.55" width="5.79" height="6.18"/>
  <rect class="cls-2" x="42.89" y="38.93" width="5.79" height="6.19"/>
  <rect class="cls-2" x="31.32" y="38.93" width="5.79" height="6.19"/>
  <path class="cls-2" d="M42.89,57.14c1.05-.22,2.04-.52,2.88-.9,1.03-.46,2-1.03,2.91-1.68v-3.23h-5.79v5.81Z"/>
  <path class="cls-2" d="M31.32,54.56c.91,.66,1.88,1.22,2.9,1.68,.84,.38,1.83,.68,2.88,.9v-5.81h-5.79v3.23Z"/>
  <path class="cls-2" d="M55.3,25.64H24.71v18.35s.03,1.42,.03,1.42c.18,1.5,.6,2.95,1.26,4.28,.59,1.18,1.35,2.31,2.28,3.34,1.52,1.69,3.45,3.08,5.59,4.04,1.67,.75,3.9,1.24,6.11,1.35h.07c2.21-.11,4.43-.6,6.11-1.35,2.13-.95,4.06-2.35,5.58-4.04,.93-1.03,1.7-2.15,2.28-3.34,.66-1.33,1.08-2.77,1.26-4.28l.03-1.42V26.3s0-.66,0-.66Zm-29.94,.66h29.28v17.7s-.03,1.34-.03,1.34c-.16,1.41-.57,2.79-1.19,4.06-.57,1.16-1.31,2.23-2.18,3.19-1.49,1.64-3.33,2.96-5.36,3.87-1.76,.79-3.95,1.2-5.88,1.3-1.93-.1-4.12-.51-5.88-1.3-2.03-.9-3.87-2.22-5.36-3.87-.86-.96-1.61-2.03-2.18-3.19-.62-1.28-1.03-2.66-1.19-4.06l-.03-1.34V26.3Z"/>
  <path class="cls-2" d="M28.31,14.38l-4.86-2.08-2.6,4.66,3.84,7.72c4.73-1.68,9.98-2.59,15.1-2.6,5.12-.01,10.35,.79,15.52,2.64l3.84-7.76-2.7-4.71-4.86,1.98-3.4-3.69-4.31,2.61-4.05-3.1-3.81,3.05-4.45-2.57-3.25,3.85Zm2.17,8.17c-.62,.13-1.24,.26-1.85,.43-.61,.16-1.22,.34-1.81,.55-.69,.23-1.37,.5-2.04,.75-1.16-2.45-2.31-4.9-3.48-7.35h0c.77-1.36,1.55-2.72,2.32-4.07h0c1.6,.7,3.21,1.4,4.81,2.09,.68,2.52,1.36,5.05,2.03,7.57v.02Zm24.61,1.79l-.69-.27c-.78-.3-1.58-.58-2.38-.81-.91-.26-1.82-.48-2.74-.68h0s.38-1.28,.38-1.28c0,0,1.49,.45,2.23,.68l1.44,.46c.77,.25,2.3,.79,2.3,.79,0,0-.14,.33-.53,1.11Zm1.3-2.68l-.39,.8s-1.28-.65-2.78-1.15c-1.5-.5-3.35-.82-3.35-.82l.03-.09,.16-.59v-.02s.03-.1,.03-.1l.4-1.43,6.53,2.1-.64,1.3Zm-.23-8.74c.78,1.3,1.56,2.61,2.33,3.91l.15,.25h0s-.09,.18-.09,.18c-.38,.77-.75,1.54-1.13,2.31-.91-.39-1.82-.76-2.75-1.09-1.29-.45-2.61-.79-3.94-1.07l.72-2.59s3.13-1.27,4.7-1.9Zm-8.06-1.71h0c1.09,1.2,2.19,2.39,3.28,3.59h0s0,.02,0,.02l-.12,.41c-.7,2.44-1.4,4.87-2.09,7.3-.73-.15-1.46-.29-2.2-.41-1.28-.21-2.57-.33-3.86-.43h0c.24-2.69,.48-5.37,.72-8.04,1.43-.81,2.85-1.63,4.27-2.44Zm-12.01,2.45c1.24-.99,2.49-1.98,3.73-2.97h0c1.3,.99,2.6,1.97,3.9,2.96v.05c-.23,2.66-.46,5.32-.68,7.98h-.13c-.79-.04-1.57-.07-2.35-.08-1.24-.01-2.49,.03-3.73,.08-.25-2.67-.49-5.34-.74-8.01h0Zm-4.4-2.52l.58,.34c1.23,.7,2.46,1.4,3.69,2.1l.06,.04c.05,.67,.12,1.34,.17,2.01l.02,.32,.15,1.6h.01c.06,.69,.13,1.38,.19,2.06h0c.06,.69,.12,1.36,.18,2.04v.03c-1.3,.09-2.6,.23-3.89,.44-.76,.11-1.53,.25-2.29,.38-.23-.84-.46-1.69-.68-2.54l-.03-.1c-.28-1.04-.56-2.09-.84-3.14l-.36-1.32v-.05s-.12-.42-.12-.42c0,0,0,0,0,0,.02-.03,2.11-2.55,3.14-3.8h0Z"/>
  <path class="cls-2" d="M30.57,14.2c.11-.03,.22-.06,.33-.09-.11,.03-.22,.06-.33,.09Z"/>
  <path class="cls-2" d="M28.66,14.9c.22-.1,.44-.18,.67-.27-.25,.1-.48,.19-.67,.27Z"/>
  <polygon class="cls-2" points="29.9 20 29.9 20 30.05 20.57 29.9 20"/>
  <path class="cls-1" d="M43.11,21.68c1.29,.1,2.58,.23,3.86,.43,.74,.12,1.46,.27,2.2,.41,.7-2.43,1.4-4.87,2.09-7.3l.12-.41h0v-.02c-1.09-1.19-2.19-2.39-3.28-3.59h0c-1.42,.81-2.85,1.63-4.27,2.44-.24,2.68-.47,5.35-.72,8.03h0Zm4.27-1.06l-.06,.1-.17,.03-.38-.02v-.18s.21-.21,.21-.21l.44,.11-.03,.17Zm1.24,.38l-.26,.19-.42-.04v-.22l.25-.21,.44,.15v.13Zm-3.09-5.8l.68-.18h.45s.16,0,.16,0l.21,.08,.17,.02,.38,.12,.33,.06,.42-.05,.14-.07h.17v.11l-.36,.24-.29,.09-.38,.02h-.23s.03,.05,.03,.05l.32,.12,.33,.14,.36,.05,.58-.05,.14-.04h.15s0,.1,0,.1l-.63,.29-.63,.05-.81-.14-.31-.13-.48-.14-.35,.07-.85-.57,.32-.27Zm-.81,3.47v-.02s0-.13,0-.13h-.12s-.03-.16-.03-.16l.09-.12-.11-.07,.07-.21,.4-.4-.19-.05v-.04s.04-.1,.04-.1l-.12-.07,.04-.2-.47,.03-.12-.1,.03-.25,.15-.29,.13-.37-.29-.29-.05-.23,.1-.14,.53,.27,.11-.11,.24-.13,.85,.57,.07,.02,.59-.02-.21,.31-.55,.27,.35,.46,.05,.06,.13,.09,.17,.04,.32,.03,.14,.04,.14-.05,.27-.04h.13s.24-.03,.24-.03l.15-.06h.19s.17,.05,.17,.05l.23-.04h.27s.24,.04,.24,.04l.19-.06,.21-.15,.14-.09,.09,.09,.04,.2v.29s-.13,.29-.13,.29l.06,.1v.17s-.05,.1-.05,.1l-.18,.26-.06,.15-.02,.36,.05,.11-.08,.1v.3s.09,.07,.09,.07v.31s-.06,.06-.06,.06l-.4,.38-.06,.13v.26s-.28,.21-.28,.21l-.43-.16,.06-.11,.23-.34,.05-.17v-.39s-.01-.07-.01-.07l-.27-.19-.41,.42-.1,.09-.08,.22-.2,.11-.07,.18-.43-.1,.1-.14,.03-.14,.05-.11,.3-.49-.3,.02-.11-.09-.25,.09-.1-.06-.17,.1h-.17s-.2,.38-.2,.38l-.18,.25-.04,.24-.03,.36-.13,.1-.1,.1h-.02s-.1-.03-.1-.03l.1,.02-.09,.24-.15,.06h-.4s0-.2,0-.2l.18-.18,.36,.06-.34-.1,.14-.37,.09-.16v-.49s.15-.44,.15-.44l-.16-.08-.23,.05-.07,.05-.33,.54v.08s-.06,.23-.06,.23l-.08,.12-.5-.13,.08-.25,.18-.26,.13-.18,.03-.05,.02-.02,.06-.09v-.27s.05-.15,.05-.15v-.23s0-.04,0-.04Zm-.56,1.57l.49,.11v.17s-.11,.15-.11,.15l-.16,.05h-.42s-.02-.22-.02-.22l.22-.26Z"/>
  <path class="cls-9" d="M46.43,15.95l.48,.14,.31,.13,.81,.14,.63-.05,.63-.29v-.1s-.14,0-.14,0l-.14,.04-.58,.05-.36-.05-.33-.14-.32-.12-.03-.06h.23s.38,0,.38,0l.29-.09,.36-.24v-.11h-.17s-.14,.07-.14,.07l-.42,.05-.33-.06-.38-.12-.17-.02-.21-.08-.16-.02h-.45s-.68,.19-.68,.19l-.32,.27,.85,.57,.35-.07Zm2.27,.06v.22s-.07,.05-.07,.05l-.02-.27h.09Zm-.56-.01l.08,.19-.05,.14h-.11s.06-.2,.06-.2l-.1-.17,.12,.04Zm-.05-.64h.08s0,.17,0,.17l-.09,.03,.02-.2Zm-.5,.01l.03,.27h-.04s-.07-.33-.07-.33l.09,.06Zm-.21,.73l.08-.38,.04,.03,.04,.23-.06,.09-.13,.08,.03-.04Zm-.35-1l-.03,.3-.03,.1-.04-.43,.09,.03Zm-.16,.62l-.1,.23,.02-.19-.07-.28,.15,.23Zm-.52-.69l.07,.26v.19s-.03-.04-.03-.04l-.05-.22-.09-.18h.09Zm-.73,.37l-.24-.08,.14-.11,.22,.18,.04,.12-.16-.12Zm.29,.13l.23,.17,.04,.2-.08,.05-.09-.27-.1-.15Z"/>
  <polygon class="cls-7" points="46.38 15.44 46.4 15.48 46.41 15.29 46.34 15.03 46.25 15.04 46.34 15.22 46.38 15.44"/>
  <polygon class="cls-7" points="47 15.41 47.03 15.1 46.93 15.07 46.97 15.51 47 15.41"/>
  <polygon class="cls-7" points="45.52 15.22 45.38 15.33 45.61 15.41 45.78 15.52 45.74 15.4 45.52 15.22"/>
  <polygon class="cls-7" points="47.62 15.64 47.59 15.38 47.5 15.31 47.58 15.63 47.62 15.64"/>
  <polygon class="cls-7" points="48.17 15.36 48.09 15.36 48.07 15.56 48.16 15.53 48.17 15.36"/>
  <polygon class="cls-10" points="44.71 19.08 44.7 19.35 44.64 19.44 44.72 19.37 44.75 19.06 44.77 18.94 44.74 18.7 44.75 18.92 44.71 19.08"/>
  <polygon class="cls-10" points="46.6 17.28 46.98 17.32 47.14 17.35 47.51 17.28 47.72 17.29 47.9 17.24 48.03 17.18 48.21 17.2 48.42 17.23 48.62 17.2 48.87 17.2 49.16 17.23 49.34 17.17 49.58 16.98 49.68 16.93 49.76 17.05 49.77 17.32 49.77 17.53 49.65 17.74 49.71 17.88 49.68 18.08 49.41 18.52 49.39 18.9 49.43 19.03 49.35 19.11 49.34 19.35 49.37 19.45 49.44 19.5 49.43 19.81 48.99 20.21 48.92 20.33 48.91 20.61 48.66 20.8 48.25 20.66 48.3 20.57 48.53 20.22 48.58 20.06 48.59 19.63 48.55 19.55 48.27 19.37 47.86 19.79 47.75 19.88 47.67 20.11 47.48 20.2 47.41 20.37 47.03 20.28 47.14 20.11 47.17 19.96 47.53 19.38 47.24 19.42 47.13 19.39 47.07 19.31 46.8 19.41 46.73 19.32 46.55 19.45 46.36 19.45 46.14 19.86 45.94 20.18 45.91 20.7 45.75 20.81 45.69 20.88 45.27 20.77 45.38 20.46 45.48 20.33 45.5 20.21 45.5 19.77 45.65 19.32 45.43 19.22 45.15 19.31 44.79 19.9 44.77 20.14 44.68 20.29 44.21 20.18 44.33 19.91 44.49 19.68 44.59 19.5 44.47 19.68 44.28 19.94 44.2 20.2 44.7 20.32 44.77 20.2 44.82 19.97 44.83 19.89 45.16 19.35 45.23 19.3 45.46 19.25 45.62 19.33 45.48 19.76 45.47 20.25 45.39 20.42 45.25 20.79 45.58 20.88 45.69 20.9 45.7 20.91 45.8 20.81 45.93 20.71 45.96 20.35 45.99 20.11 46.18 19.86 46.38 19.48 46.55 19.47 46.72 19.37 46.81 19.44 47.06 19.35 47.17 19.44 47.48 19.42 47.17 19.9 47.12 20.01 47.09 20.16 47 20.29 47.43 20.4 47.5 20.22 47.69 20.11 47.77 19.9 47.87 19.81 48.28 19.39 48.55 19.57 48.57 19.65 48.56 20.04 48.51 20.21 48.28 20.55 48.22 20.67 48.66 20.83 48.93 20.62 48.94 20.36 49 20.24 49.4 19.86 49.45 19.8 49.46 19.49 49.37 19.42 49.38 19.12 49.46 19.02 49.41 18.91 49.43 18.55 49.49 18.4 49.67 18.14 49.71 18.05 49.72 17.88 49.67 17.77 49.8 17.48 49.8 17.19 49.76 16.99 49.67 16.9 49.53 16.99 49.32 17.14 49.13 17.21 48.89 17.18 48.62 17.17 48.39 17.21 48.22 17.18 48.03 17.16 47.87 17.22 47.63 17.26 47.5 17.25 47.23 17.29 47.1 17.34 46.96 17.3 46.64 17.26 46.48 17.23 46.34 17.14 46.41 17.22 46.6 17.28"/>
  <polygon class="cls-10" points="44.65 18.49 44.62 18.36 44.74 18.21 44.63 18.2 44.59 18.12 44.68 17.95 45.1 17.53 44.87 17.49 44.94 17.34 44.8 17.27 44.85 17.08 44.35 17.1 44.25 17.02 44.26 16.83 44.42 16.53 44.57 16.09 44.29 15.83 44.23 15.62 44.31 15.48 44.84 15.76 45.12 15.53 45.21 15.52 46.06 16.09 46.66 16.07 46.45 16.36 45.91 16.6 46.29 17.08 45.94 16.62 46.49 16.35 46.7 16.04 46.11 16.07 46.04 16.05 45.19 15.48 44.95 15.61 44.84 15.72 44.31 15.46 44.21 15.59 44.26 15.82 44.54 16.11 44.42 16.48 44.26 16.77 44.23 17.03 44.35 17.13 44.82 17.1 44.78 17.3 44.9 17.36 44.85 17.46 44.86 17.51 45.04 17.56 44.64 17.95 44.57 18.16 44.68 18.23 44.59 18.35 44.62 18.5 44.74 18.52 44.74 18.64 44.79 18.47 44.65 18.49"/>
  <path class="cls-3" d="M44.75,19.06l-.02,.31-.08,.07-.02,.02-.03,.05-.1,.18-.17,.23-.11,.27,.47,.12,.09-.15v-.24s.38-.59,.38-.59l.28-.09,.22,.1-.15,.45v.44s-.02,.12-.02,.12l-.09,.14-.11,.31,.42,.11,.06-.07,.16-.11,.03-.52,.2-.33,.21-.41h.19s.18-.13,.18-.13l.07,.09,.27-.1,.06,.08,.11,.03,.29-.04-.36,.59-.02,.14-.11,.17,.39,.1,.06-.17,.2-.1,.08-.23,.11-.09,.42-.42,.28,.18,.04,.09-.02,.42-.05,.16-.23,.34-.05,.09,.4,.14,.26-.19v-.28s.08-.12,.08-.12l.43-.4v-.31s-.06-.05-.06-.05l-.03-.1v-.24s.09-.08,.09-.08l-.04-.13,.02-.38,.27-.44,.03-.2-.06-.15,.12-.21v-.21s0-.26,0-.26l-.09-.12-.1,.05-.24,.19-.17,.06-.29-.03h-.25l-.2,.04-.22-.03h-.18s-.13,.04-.13,.04l-.18,.05h-.21s-.37,.07-.37,.07l-.17-.03-.38-.04-.19-.06-.07-.08-.05-.06-.39-.48,.54-.24,.22-.29-.6,.02-.85-.57-.09,.02-.27,.22-.53-.28-.08,.14,.06,.21,.28,.27-.15,.44-.15,.29v.19s.09,.08,.09,.08l.5-.03-.05,.2,.14,.07-.06,.15,.23,.04-.42,.42-.1,.17,.04,.08h.11s-.12,.16-.12,.16l.03,.13h.14s-.04,.16-.04,.16v.02s0,.04,0,.04l.03,.24-.03,.12Zm4.92-2.03l-.06,.38-.18,.02-.05-.1,.29-.3Zm-.91,1.07l.14,.27,.3,.3,.04,.05h-.28s-.09,.08-.09,.08l-.06-.36-.13-.43v-.08s.07,.18,.07,.18Zm-.19,.62l.08,.49,.02,.09h-.07s-.06-.34-.06-.34l-.07-.26,.1,.02Zm-.32-1l.07,.48v.1s-.05,0-.05,0l-.06-.34-.06-.25h.1Zm-.67-.11l.13,.33,.03,.13-.12,.02-.1-.41v-.07s.05,0,.05,0Zm-.15,.99l.08-.43h.02l-.04,.55-.1,.22-.02-.06,.06-.28Zm-.5-.91l.13,.34,.04,.13-.11,.02-.1-.41v-.07s.05,0,.05,0Zm-.22,1.09l.08-.43h.02l-.04,.55-.1,.23v-.06s.05-.28,.05-.28Zm-.44-.93l.14,.34,.03,.12-.12,.02-.1-.41v-.07s.05,0,.05,0Zm-.33-1.6l.52-.05-.19,.15-.14,.08-.13,.06-.25-.11,.2-.13Zm-.18,2.58l.08,.48v.1s-.05,0-.05,0l-.06-.34-.07-.25,.1,.02Zm-.45-.5l-.07-.34-.06-.25,.1,.02,.07,.48v.1s-.05,0-.05,0Zm-.36-2l.31-.08,.27,.08-.18,.09-.09,.06-.13-.07-.19-.08Z"/>
  <polygon class="cls-7" points="46.76 15.96 46.86 15.73 46.71 15.5 46.78 15.77 46.76 15.96"/>
  <polygon class="cls-7" points="46.17 15.9 46.13 15.7 45.91 15.53 46.01 15.69 46.09 15.95 46.17 15.9"/>
  <polygon class="cls-7" points="47.54 15.98 47.5 15.76 47.46 15.73 47.38 16.11 47.36 16.15 47.48 16.07 47.54 15.98"/>
  <polygon class="cls-7" points="48.06 16.33 48.17 16.34 48.22 16.2 48.14 16.01 48.02 15.97 48.12 16.14 48.06 16.33"/>
  <polygon class="cls-7" points="48.71 16.24 48.7 16.02 48.6 16.02 48.63 16.29 48.71 16.24"/>
  <polygon class="cls-10" points="46.13 16.4 46.27 16.32 46.46 16.17 45.94 16.22 45.74 16.35 45.99 16.46 46.13 16.4"/>
  <polygon class="cls-10" points="45.26 16.45 45.35 16.39 45.53 16.3 45.26 16.22 44.95 16.3 45.14 16.38 45.26 16.45"/>
  <polygon class="cls-10" points="49.61 17.41 49.67 17.02 49.38 17.32 49.43 17.43 49.61 17.41"/>
  <polygon class="cls-10" points="48.27 18.29 48.34 18.29 48.33 18.19 48.25 17.71 48.15 17.69 48.21 17.94 48.27 18.29"/>
  <polygon class="cls-10" points="45.28 17.73 45.18 17.71 45.24 17.96 45.31 18.3 45.37 18.31 45.36 18.21 45.28 17.73"/>
  <polygon class="cls-10" points="45.78 19.38 45.84 19.38 45.83 19.28 45.76 18.8 45.65 18.78 45.72 19.03 45.78 19.38"/>
  <polygon class="cls-10" points="48.59 19.29 48.66 19.29 48.65 19.2 48.57 18.71 48.47 18.69 48.54 18.95 48.59 19.29"/>
  <polygon class="cls-10" points="46.32 18.31 46.44 18.29 46.41 18.17 46.27 17.83 46.21 17.83 46.22 17.9 46.32 18.31"/>
  <polygon class="cls-10" points="47.63 18.07 47.74 18.05 47.71 17.92 47.58 17.58 47.51 17.58 47.53 17.65 47.63 18.07"/>
  <polygon class="cls-10" points="46.98 18.14 47.09 18.12 47.06 18 46.93 17.66 46.87 17.66 46.87 17.73 46.98 18.14"/>
  <polygon class="cls-10" points="48.82 18.43 48.87 18.79 48.96 18.72 49.24 18.71 49.2 18.66 48.9 18.36 48.76 18.09 48.68 17.92 48.69 17.99 48.82 18.43"/>
  <polygon class="cls-10" points="47.48 18.69 47.52 18.14 47.5 18.14 47.43 18.57 47.36 18.85 47.38 18.91 47.48 18.69"/>
  <polygon class="cls-10" points="46.76 18.87 46.8 18.32 46.79 18.32 46.71 18.76 46.64 19.04 46.66 19.1 46.76 18.87"/>
  <polygon class="cls-9" points="44.39 20.7 44.56 20.66 44.67 20.51 44.67 20.34 44.18 20.23 43.96 20.49 43.98 20.71 44.39 20.7"/>
  <polygon class="cls-9" points="46.76 20.54 46.77 20.72 47.15 20.74 47.32 20.7 47.39 20.61 47.42 20.43 46.98 20.33 46.76 20.54"/>
  <polygon class="cls-9" points="47.95 20.92 47.95 21.13 48.37 21.17 48.63 20.99 48.64 20.86 48.2 20.71 47.95 20.92"/>
  <polygon class="cls-9" points="45.04 21 45.04 21.21 45.43 21.2 45.59 21.15 45.68 20.9 45.58 20.88 45.22 20.82 45.04 21"/>
  <path class="cls-1" d="M28.66,14.9c.19-.09,.42-.18,.67-.27,.41-.16,.82-.31,1.24-.43,.11-.03,.22-.06,.33-.09,.17-.05,.34-.11,.52-.14l1.51-.22c1.02-.1,2.04-.1,3.06-.1h.05l-.06-.04c-1.23-.7-2.46-1.41-3.69-2.1l-.58-.34h0c-1.04,1.25-3.12,3.77-3.14,3.8,.04-.02,.08-.03,.12-.05Z"/>
  <path class="cls-9" d="M32.92,13.74l-1.51,.22c-.18,.04-.35,.1-.52,.14-.11,.03-.22,.06-.33,.09-.42,.12-.83,.26-1.24,.43-.22,.09-.45,.17-.67,.27-.04,.02-.08,.03-.12,.05,0,0,0,0,0,0l.11,.42v.05s.37,1.32,.37,1.32l1.1-.38c.58-.17,1.17-.29,1.76-.38l1.68-.22,1.54-.1h.7s.39-.01,.39-.01c-.05-.67-.12-1.34-.17-2.01h-.05c-1.02,0-2.04,0-3.06,.1Z"/>
  <path class="cls-1" d="M35.11,15.66l-1.54,.1-1.68,.22c-.59,.1-1.19,.21-1.76,.38l-1.1,.38c.28,1.05,.56,2.1,.84,3.14l.03,.1v-.02s-.39-1.47-.39-1.47v-.05c1-.33,2.02-.6,3.06-.75,1.26-.2,2.55-.2,3.82-.13l-.15-1.6-.02-.32h-.39s-.7,.01-.7,.01Z"/>
  <path class="cls-9" d="M32.55,17.7c-1.04,.15-2.06,.42-3.06,.75v.05l.39,1.47v.02s0,.01,0,.01h0s0,0,0,0l.15,.56h0c1.18-.3,2.39-.51,3.6-.67,.97-.13,1.94-.2,2.91-.26h0c-.06-.69-.12-1.38-.19-2.07h-.01c-1.27-.08-2.55-.07-3.82,.12Z"/>
  <path class="cls-1" d="M30.06,20.57h0l-.15-.56h0s-.01-.01-.01-.01c.23,.85,.45,1.7,.68,2.54,.76-.13,1.52-.27,2.29-.38,1.29-.21,2.59-.35,3.89-.44v-.03c-.06-.68-.12-1.36-.18-2.03-.97,.06-1.94,.13-2.91,.26-1.21,.15-2.41,.37-3.6,.67Z"/>
  <path class="cls-4" d="M23.63,12.86h0c-.77,1.35-1.55,2.71-2.32,4.06h0c1.16,2.46,2.31,4.91,3.48,7.36,.67-.25,1.35-.52,2.04-.75,.6-.21,1.2-.39,1.81-.55,.61-.16,1.23-.3,1.85-.43v-.02c-.68-2.52-1.36-5.05-2.03-7.57-1.6-.7-3.21-1.4-4.81-2.09Zm.58,2.96l.11-.94,.82,.59,.85-.32-.13,.88,.8,.63-.89,.36-.2,.88-.69-.51-.87,.4,.11-.95-.86-.61,.97-.41Zm4.38,2.59l-.03,1.46-.61,.95-.57,.42-.31,.15-1.57,.12-1.11-.53-.6-.75,1.6,.13,1.26-.24,1.07-.66,.72-.85,.14-.2Z"/>
  <polygon class="cls-2" points="26.66 20.12 25.4 20.36 23.79 20.23 24.39 20.98 25.5 21.5 27.07 21.38 27.38 21.23 27.96 20.82 28.57 19.87 28.59 18.41 28.45 18.62 27.73 19.46 26.66 20.12"/>
  <path class="cls-8" d="M24,17.8l.87-.4,.69,.51,.2-.88,.89-.36-.8-.63,.13-.88-.85,.32-.82-.59-.11,.94-.97,.41,.86,.61-.11,.95Zm2.59-1.13l-.85,.35-.2,.84-.57-1.42,1.62,.24Zm-2.51,.11l-.71-.5,1.6,.15-.61-1.48,.68,.53-.07,.95,1.01-1.24-.14,.85-.87,.39-.12,.95-.78,.38,.9-1.33-.89,.35Z"/>
  <polygon class="cls-6" points="25.97 15.19 24.96 16.43 25.83 16.04 25.97 15.19"/>
  <polygon class="cls-6" points="24.35 14.95 24.96 16.43 25.03 15.48 24.35 14.95"/>
  <polygon class="cls-6" points="24.84 17.38 24.96 16.43 24.06 17.76 24.84 17.38"/>
  <polygon class="cls-6" points="23.37 16.28 24.07 16.78 24.96 16.43 23.37 16.28"/>
  <polygon class="cls-6" points="25.53 17.85 25.74 17.02 26.58 16.67 24.96 16.43 25.53 17.85"/>
  <path class="cls-4" d="M40.57,21.6c.78,0,1.56,.04,2.35,.08h.13c.23-2.67,.46-5.33,.68-7.98v-.05c-1.3-.99-2.6-1.97-3.9-2.96h0c-1.24,.99-2.49,1.98-3.73,2.97h0c.25,2.69,.49,5.36,.74,8.02,1.24-.05,2.48-.09,3.73-.08Zm-.24-6.13l.25-.05v-.38s.2-.05,.2-.05l.02-.17-.26-.34v-.21l.21,.03,.2,.07,.05,.05,.11,.16,.11-.03v-.22s.33-.22,.33-.22l.34,.17v.25h.17l-.04-.2v-.05s.25-.07,.25-.07l.11-.08h.22s.03,.15,.03,.15l-.21,.29v.23s.19,.08,.19,.08l.06,.38,.29,.28,.02,.21,.1,.15,.05,.19h-.17s.02,.33,.02,.33h-.2l-.03,.31h-.37s0,.19,0,.19l-.1,.16-.68,.08-.26-.06h-.27s-.02-.12-.02-.12l-.15-.11-.12-.07-.25-.04-.05-.24-.18-.03-.05-.18-.09-.13,.08-.24-.11-.11,.19-.36Zm-.19,1.87v.25h.17l-.04-.19v-.05s.25-.06,.25-.06l.11-.09h.22s.02,.15,.02,.15l-.2,.29v.22s.19,.09,.19,.09l.06,.37,.29,.29,.02,.21,.1,.15,.06,.2-.17-.02,.02,.35h-.2l-.04,.31h-.36s-.01,.19-.01,.19l-.1,.16-.69,.08-.26-.07h-.27s-.01-.12-.01-.12l-.15-.11-.12-.07-.26-.04-.04-.24-.17-.03-.06-.17-.09-.14,.08-.23-.12-.11,.2-.36,.25-.05v-.38s.2-.05,.2-.05l.02-.17-.26-.34v-.21l.21,.03,.19,.07,.05,.05,.11,.16,.11-.03,.02-.22,.31-.22,.34,.17Zm-3.4-1.03l-.09-.13,.09-.24-.12-.11,.19-.36,.25-.05v-.38s.21-.05,.21-.05l.02-.17-.26-.34v-.21l.21,.03,.19,.07,.05,.05,.11,.16,.1-.03,.02-.22,.32-.22,.34,.17v.25h.17l-.04-.2v-.05s.25-.07,.25-.07l.11-.08h.22s.03,.15,.03,.15l-.21,.29v.23s.19,.08,.19,.08l.07,.38,.29,.28,.02,.21,.1,.15,.05,.19h-.17s.02,.33,.02,.33h-.2l-.04,.31h-.37s0,.19,0,.19l-.1,.16-.69,.08-.25-.06h-.27s-.02-.12-.02-.12l-.15-.11-.11-.07-.26-.04-.04-.24-.18-.03-.05-.18Z"/>
  <path class="cls-10" d="M37.01,16.77l.26,.04,.11,.07,.15,.11,.02,.11h.27s.25,.07,.25,.07l.69-.08,.1-.16v-.18s.38-.01,.38-.01l.04-.31h.2l-.02-.34h.17s-.05-.18-.05-.18l-.1-.15-.02-.21-.29-.28-.07-.38-.19-.08v-.23s.2-.29,.2-.29l-.03-.15h-.22s-.11,.08-.11,.08l-.24,.07v.05s.03,.2,.03,.2h-.16v-.25s-.35-.17-.35-.17l-.32,.22-.02,.22-.1,.03-.11-.16-.05-.05-.19-.07-.21-.03v.21l.26,.34-.02,.17-.21,.05v.38s-.24,.05-.24,.05l-.19,.36,.12,.11-.09,.24,.09,.13,.05,.18,.18,.03,.04,.24Zm1.91-.71l.02-.04,.19-.26,.28-.03,.11,.21,.03,.11h-.12s-.09-.15-.09-.15l-.04,.03,.1,.14,.03,.31h-.14l-.06-.2-.05,.02,.05,.2-.03,.3h-.14l-.13-.23v-.06s0-.35,0-.35Zm-1.34,.93v-.04s-.22-.15-.22-.15l.03-.19h.19s.04,.35,.04,.35l-.04,.04Zm.48,.13l-.15-.04,.06-.09h.13s.07,.12,.07,.12h-.11Zm-.1-.62l.17-.11,.33,.08-.05,.14-.09,.13h-.21s-.13-.12-.13-.12v-.12Zm.22,.62l.05-.17,.11-.04,.12,.18-.28,.04Zm-.01-.81v-.13s.15-.1,.15-.1l.04-.09-.17,.07h-.19l-.19-.03,.11,.11,.14,.03v.14l-.16,.1-.06-.02-.05-.2-.15-.08v-.13s-.17-.06-.17-.06l-.02-.12-.08-.06v-.27h.09s.09,.14,.09,.14l.22,.23h.12s.03-.04,.03-.04l.11-.26h.2s.2,.26,.2,.26l.1-.02,.13-.23,.19-.15,.05,.03v.46s-.22,.04-.22,.04l-.02,.27-.14,.15-.31-.04Zm.29-.91h-.32v-.2l.18-.12h-.36l-.09,.02,.16,.09v.23h-.54s-.08-.13-.08-.13v-.12s.16-.14,.16-.14l.81-.11,.21,.03,.15,.22,.03,.2-.14,.04h-.17Zm.06,.2l-.1,.08-.11-.08,.11-.08,.1,.08Zm-.67,0l-.1,.08-.1-.08,.1-.08,.1,.08Zm.95,1.13v.21s-.09,.11-.09,.11l-.11-.1-.03-.05-.05-.21,.25-.14,.1,.18h-.08Zm-1.06-2.32l.21-.03,.02-.15,.04-.03,.04,.02,.02,.16h.23s0,.14,0,.14l-.19-.03-.05-.09h-.1s-.03,.09-.03,.09l-.21,.02v-.09Zm-.69,.07v-.13s.28,.3,.28,.3h.2l.02,.02,.22-.05,.5-.02h.3s0-.05,0-.05l.44-.33v.08s-.16,.25-.16,.25l-.03,.06v.23s-.04,.06-.04,.06h-.23s-.98,.09-.98,.09l-.16,.04h-.12s.02-.19,.02-.19l-.27-.34Zm.13,1.8l.02,.49-.16-.02-.04-.21,.13-.31,.06,.05Zm-.37,.19l-.03-.09,.11-.28-.08-.16h.22s.05,.24,.05,.24l-.27,.28,.03,.02h-.04Z"/>
  <polygon class="cls-12" points="37.99 14.38 38.09 14.37 38.14 14.47 38.33 14.5 38.33 14.35 38.1 14.36 38.08 14.2 38.04 14.18 38 14.21 37.98 14.36 37.77 14.39 37.76 14.48 37.97 14.47 37.99 14.38"/>
  <polygon class="cls-12" points="37.32 14.98 37.44 15 37.6 14.96 38.58 14.88 38.81 14.87 38.86 14.81 38.85 14.59 38.88 14.53 39.05 14.28 39.04 14.2 38.6 14.53 38.6 14.59 38.3 14.58 37.8 14.6 37.57 14.65 37.56 14.63 37.35 14.63 37.07 14.33 37.07 14.46 37.34 14.8 37.32 14.98"/>
  <polygon class="cls-12" points="38.8 15.35 38.77 15.15 38.62 14.93 38.4 14.9 37.59 15.02 37.41 15.16 37.43 15.27 37.51 15.4 38.05 15.4 38.05 15.17 37.89 15.08 37.98 15.06 38.35 15.06 38.16 15.18 38.16 15.38 38.48 15.39 38.66 15.39 38.8 15.35"/>
  <polygon class="cls-12" points="38.66 15.91 38.87 15.88 38.88 15.42 38.84 15.39 38.65 15.54 38.52 15.77 38.42 15.79 38.22 15.52 38.02 15.53 37.92 15.79 37.89 15.84 37.77 15.83 37.55 15.59 37.47 15.45 37.38 15.46 37.38 15.73 37.46 15.78 37.48 15.9 37.64 15.96 37.65 16.09 37.8 16.18 37.86 16.38 37.92 16.4 38.07 16.3 38.07 16.16 37.93 16.13 37.82 16.02 38.01 16.05 38.2 16.05 38.37 15.98 38.34 16.07 38.18 16.17 38.19 16.3 38.5 16.34 38.64 16.19 38.66 15.91"/>
  <polygon class="cls-12" points="39.06 16.7 39.2 16.7 39.23 16.4 39.18 16.21 39.23 16.19 39.29 16.39 39.43 16.39 39.4 16.08 39.3 15.94 39.34 15.9 39.44 16.04 39.56 16.05 39.53 15.94 39.41 15.73 39.13 15.76 38.94 16.02 38.92 16.06 38.92 16.41 38.93 16.47 39.06 16.7"/>
  <polygon class="cls-12" points="37.1 16.17 37.05 15.92 36.83 15.93 36.92 16.09 36.8 16.37 36.83 16.46 36.87 16.47 36.84 16.45 37.1 16.17"/>
  <polygon class="cls-12" points="37.06 16.73 37.22 16.75 37.2 16.26 37.14 16.21 37.02 16.52 37.06 16.73"/>
  <polygon class="cls-12" points="38.11 16.73 38.32 16.72 38.41 16.6 38.47 16.46 38.14 16.38 37.97 16.49 37.98 16.61 38.11 16.73"/>
  <polygon class="cls-12" points="38.55 16.67 38.6 16.88 38.63 16.93 38.74 17.03 38.82 16.92 38.83 16.71 38.91 16.71 38.8 16.53 38.55 16.67"/>
  <polygon class="cls-12" points="37.39 16.61 37.36 16.8 37.58 16.95 37.59 16.99 37.62 16.95 37.58 16.59 37.39 16.61"/>
  <polygon class="cls-12" points="38.25 16.94 38.2 17.11 38.48 17.07 38.37 16.89 38.25 16.94"/>
  <polygon class="cls-12" points="37.98 16.99 37.92 17.08 38.06 17.12 38.18 17.11 38.11 16.98 37.98 16.99"/>
  <polygon class="cls-12" points="37.77 15.66 37.88 15.58 37.77 15.51 37.67 15.58 37.77 15.66"/>
  <polygon class="cls-12" points="38.34 15.58 38.45 15.66 38.55 15.58 38.45 15.51 38.34 15.58"/>
  <path class="cls-10" d="M40.16,16.19l.09,.13,.05,.18,.18,.03,.05,.24,.25,.04,.12,.07,.15,.11,.02,.11h.27s.26,.07,.26,.07l.68-.08,.1-.16v-.18s.38-.01,.38-.01l.03-.31h.2l-.02-.34h.17s-.05-.18-.05-.18l-.1-.15-.02-.21-.29-.28-.06-.38-.19-.08v-.23s.2-.29,.2-.29l-.03-.15h-.22s-.11,.08-.11,.08l-.24,.07v.05s.03,.2,.03,.2h-.16v-.25s-.35-.17-.35-.17l-.32,.22v.22s-.12,.03-.12,.03l-.11-.16-.05-.05-.2-.07-.21-.03v.21l.26,.34-.02,.17-.21,.05v.38s-.24,.05-.24,.05l-.19,.36,.11,.11-.08,.24Zm2.28-.14l.02-.04,.19-.26,.28-.03,.11,.21,.03,.11h-.12s-.09-.15-.09-.15l-.04,.03,.1,.14,.02,.31h-.14l-.05-.2-.05,.02,.05,.2-.03,.3h-.14l-.12-.23v-.06s0-.35,0-.35Zm-1.34,.93v-.04s-.22-.15-.22-.15l.03-.19h.19s.04,.35,.04,.35l-.04,.04Zm.48,.13l-.15-.04,.06-.09h.13s.07,.12,.07,.12h-.11Zm-.09-.62l.17-.11,.33,.08-.06,.14-.1,.13h-.21s-.13-.12-.13-.12v-.12Zm.22,.62l.05-.17,.11-.04,.11,.18-.28,.04Zm-.01-.81v-.13s.15-.1,.15-.1l.04-.09-.17,.07h-.2l-.19-.03,.11,.11,.14,.03v.14s-.15,.1-.15,.1l-.06-.02-.05-.2-.15-.08v-.13s-.17-.06-.17-.06l-.02-.12-.08-.06v-.27s.08,0,.08,0l.09,.14,.22,.23h.12s.02-.04,.02-.04l.1-.26h.2s.2,.26,.2,.26l.09-.02,.14-.23,.19-.15,.04,.03v.46s-.22,.04-.22,.04l-.02,.27-.14,.15-.32-.04Zm.3-.91h-.32v-.2l.18-.12h-.36l-.09,.02,.16,.09v.23s-.55,0-.55,0l-.08-.13v-.12s.16-.14,.16-.14l.81-.11,.22,.03,.15,.22,.03,.2-.14,.04h-.17Zm.06,.2l-.1,.08-.1-.08,.1-.08,.1,.08Zm-.67,0l-.1,.08-.1-.08,.1-.08,.1,.08Zm1.03,1.13h-.08v.21s-.08,.11-.08,.11l-.11-.1-.04-.05-.04-.21,.24-.14,.11,.18Zm-1.15-2.32l.22-.03,.02-.15,.04-.03,.04,.02,.02,.16h.23s0,.14,0,.14l-.19-.03-.05-.09h-.1s-.03,.09-.03,.09l-.21,.02v-.09Zm-.68,.07v-.13s.28,.3,.28,.3h.2l.02,.02,.22-.05,.5-.02h.3s0-.05,0-.05l.44-.33v.08s-.17,.25-.17,.25l-.03,.06v.23s-.04,.06-.04,.06h-.23s-.99,.09-.99,.09l-.16,.04h-.12s.02-.19,.02-.19l-.27-.34Zm.13,1.8l.02,.49-.17-.02-.04-.21,.13-.31,.06,.05Zm-.29-.18l-.08-.16h.21s.05,.24,.05,.24l-.27,.28,.03,.02h-.04s-.03-.1-.03-.1l.11-.28Z"/>
  <polygon class="cls-12" points="41.5 14.38 41.6 14.37 41.65 14.47 41.84 14.5 41.84 14.35 41.61 14.36 41.59 14.2 41.55 14.18 41.51 14.21 41.49 14.36 41.27 14.39 41.27 14.48 41.47 14.47 41.5 14.38"/>
  <polygon class="cls-12" points="40.83 14.98 40.95 15 41.11 14.96 42.1 14.88 42.32 14.87 42.37 14.81 42.36 14.59 42.39 14.53 42.57 14.28 42.56 14.2 42.11 14.53 42.11 14.59 41.81 14.58 41.31 14.6 41.09 14.65 41.07 14.63 40.87 14.63 40.59 14.33 40.58 14.46 40.85 14.8 40.83 14.98"/>
  <polygon class="cls-12" points="42.31 15.35 42.28 15.15 42.13 14.93 41.92 14.9 41.1 15.02 40.93 15.16 40.94 15.27 41.02 15.4 41.57 15.4 41.56 15.17 41.41 15.08 41.5 15.06 41.86 15.06 41.68 15.18 41.68 15.38 42 15.39 42.17 15.39 42.31 15.35"/>
  <polygon class="cls-12" points="42.17 15.91 42.38 15.88 42.39 15.42 42.35 15.39 42.16 15.54 42.03 15.77 41.93 15.79 41.73 15.52 41.53 15.53 41.43 15.79 41.41 15.84 41.28 15.83 41.06 15.59 40.98 15.45 40.89 15.46 40.9 15.73 40.98 15.78 41 15.9 41.15 15.96 41.16 16.09 41.32 16.18 41.37 16.38 41.43 16.4 41.59 16.3 41.58 16.16 41.44 16.13 41.33 16.02 41.52 16.05 41.72 16.05 41.89 15.98 41.85 16.07 41.69 16.17 41.7 16.3 42.01 16.34 42.15 16.19 42.17 15.91"/>
  <polygon class="cls-12" points="42.57 16.7 42.71 16.7 42.74 16.4 42.69 16.21 42.74 16.19 42.79 16.39 42.94 16.39 42.91 16.08 42.81 15.94 42.85 15.9 42.95 16.04 43.07 16.05 43.04 15.94 42.93 15.73 42.65 15.76 42.46 16.02 42.44 16.06 42.44 16.41 42.45 16.47 42.57 16.7"/>
  <polygon class="cls-12" points="40.38 16.47 40.35 16.45 40.61 16.17 40.56 15.92 40.35 15.93 40.43 16.09 40.32 16.37 40.34 16.46 40.38 16.47"/>
  <polygon class="cls-12" points="40.57 16.73 40.73 16.75 40.72 16.26 40.66 16.21 40.53 16.52 40.57 16.73"/>
  <polygon class="cls-12" points="41.62 16.73 41.83 16.72 41.92 16.6 41.98 16.46 41.65 16.38 41.48 16.49 41.49 16.61 41.62 16.73"/>
  <polygon class="cls-12" points="42.07 16.67 42.11 16.88 42.15 16.93 42.26 17.03 42.33 16.92 42.34 16.71 42.42 16.71 42.31 16.53 42.07 16.67"/>
  <polygon class="cls-12" points="40.9 16.61 40.88 16.8 41.09 16.95 41.1 16.99 41.14 16.95 41.1 16.59 40.9 16.61"/>
  <polygon class="cls-12" points="41.76 16.94 41.71 17.11 41.99 17.07 41.88 16.89 41.76 16.94"/>
  <polygon class="cls-12" points="41.49 16.99 41.43 17.08 41.58 17.12 41.69 17.11 41.62 16.98 41.49 16.99"/>
  <polygon class="cls-12" points="41.28 15.66 41.39 15.58 41.28 15.51 41.18 15.58 41.28 15.66"/>
  <polygon class="cls-12" points="41.85 15.58 41.96 15.66 42.06 15.58 41.96 15.51 41.85 15.58"/>
  <path class="cls-10" d="M39.46,17.62l-.11,.03-.11-.16-.05-.05-.19-.07-.21-.03v.21l.26,.34-.02,.17-.21,.05v.38s-.24,.05-.24,.05l-.2,.36,.12,.11-.08,.23,.09,.14,.06,.17,.17,.03,.04,.24,.26,.04,.12,.07,.15,.11v.11s.28,0,.28,0l.26,.07,.69-.08,.1-.16v-.17s.38-.01,.38-.01l.04-.31h.2l-.02-.35,.17,.02-.06-.2-.1-.15-.02-.21-.29-.29-.06-.37-.19-.09v-.22s.2-.29,.2-.29l-.02-.14h-.22s-.11,.08-.11,.08l-.24,.06v.05s.03,.19,.03,.19h-.16v-.25s-.35-.17-.35-.17l-.31,.22-.02,.22Zm-.87,1.88l.03,.02h-.03s-.03-.1-.03-.1l.11-.28-.08-.15h.22s.05,.24,.05,.24l-.27,.27Zm.21,.28l-.03-.21,.13-.31,.06,.05,.02,.49-.17-.03Zm1.88-.66v-.05s.2-.25,.2-.25l.28-.04,.11,.21,.03,.11h-.12s-.09-.15-.09-.15l-.04,.03,.1,.14,.02,.31h-.14l-.05-.2h-.05s.05,.21,.05,.21l-.03,.3h-.14s-.13-.22-.13-.22v-.06s0-.35,0-.35Zm-1.34,.93v-.04s-.22-.15-.22-.15l.03-.19h.18s.04,.34,.04,.34l-.04,.04Zm.48,.13l-.14-.04,.05-.09h.13s.08,.12,.08,.12h-.12Zm-.1-.62l.17-.1,.33,.07-.06,.14-.09,.12h-.21s-.12-.11-.12-.11l-.02-.12Zm.24,.62l.05-.17,.12-.05,.12,.18-.29,.04Zm-.01-.81v-.13s.15-.1,.15-.1l.04-.09-.17,.07h-.2s-.19-.03-.19-.03l.11,.12,.14,.03v.14s-.15,.09-.15,.09l-.06-.02-.05-.2-.16-.09v-.12s-.16-.07-.16-.07l-.03-.11-.08-.06v-.27s.08-.01,.08-.01l.09,.15,.23,.24h.11s.03-.04,.03-.04l.1-.26h.2s.2,.26,.2,.26h.1s.14-.24,.14-.24l.18-.15,.05,.03v.46s-.22,.04-.22,.04l-.02,.28-.14,.15-.31-.04Zm.3-.92h-.32v-.2l.18-.12h-.36s-.09,.02-.09,.02l.16,.09v.23s-.54,0-.54,0l-.09-.12v-.11s.16-.14,.16-.14l.81-.11,.22,.03,.15,.22,.03,.2-.14,.03h-.17Zm.06,.2l-.1,.07-.1-.07,.1-.08,.1,.08Zm-.67,0l-.1,.07-.1-.07,.1-.08,.1,.08Zm1.03,1.13h-.08v.21s-.08,.11-.08,.11l-.12-.11-.04-.05-.04-.21,.24-.13,.11,.18Zm-.31-2.13v-.05l.44-.33v.07s-.17,.24-.17,.24l-.03,.07v.22s-.04,.05-.04,.05h-.23s-.98,.09-.98,.09l-.16,.04h-.12s.02-.19,.02-.19l-.27-.34v-.13s.28,.29,.28,.29h.2l.02,.03,.22-.05,.5-.02h.3Zm-.84-.19l.21-.04,.02-.14,.04-.03,.04,.02,.02,.15h.23s0,.14,0,.14l-.19-.04-.05-.08h-.1l-.03,.09-.2,.02v-.1Z"/>
  <polygon class="cls-12" points="39.75 17.44 39.85 17.44 39.9 17.52 40.09 17.56 40.09 17.41 39.86 17.41 39.84 17.26 39.8 17.24 39.76 17.27 39.74 17.41 39.53 17.45 39.52 17.55 39.72 17.53 39.75 17.44"/>
  <polygon class="cls-12" points="39.56 17.66 39.34 17.71 39.32 17.69 39.11 17.69 38.84 17.39 38.83 17.52 39.1 17.87 39.08 18.05 39.2 18.06 39.36 18.02 40.34 17.94 40.57 17.93 40.62 17.87 40.61 17.65 40.64 17.58 40.82 17.34 40.8 17.26 40.36 17.6 40.36 17.65 40.06 17.65 39.56 17.66"/>
  <polygon class="cls-12" points="40.56 18.41 40.53 18.21 40.38 17.99 40.16 17.96 39.35 18.08 39.17 18.22 39.18 18.33 39.27 18.45 39.82 18.46 39.81 18.23 39.65 18.14 39.74 18.12 40.1 18.12 39.92 18.24 39.92 18.44 40.24 18.44 40.42 18.44 40.56 18.41"/>
  <polygon class="cls-12" points="40.42 18.97 40.63 18.94 40.64 18.48 40.6 18.45 40.41 18.61 40.28 18.84 40.18 18.85 39.98 18.58 39.78 18.59 39.68 18.85 39.65 18.9 39.53 18.89 39.31 18.65 39.22 18.51 39.14 18.52 39.14 18.79 39.22 18.85 39.24 18.96 39.4 19.02 39.41 19.15 39.57 19.24 39.62 19.44 39.68 19.45 39.84 19.36 39.83 19.23 39.69 19.19 39.58 19.08 39.77 19.11 39.97 19.11 40.14 19.04 40.1 19.13 39.94 19.23 39.95 19.36 40.26 19.4 40.4 19.25 40.42 18.97"/>
  <polygon class="cls-12" points="40.82 19.76 40.96 19.76 40.99 19.46 40.94 19.26 40.99 19.25 41.04 19.45 41.18 19.45 41.16 19.14 41.06 19 41.1 18.97 41.2 19.1 41.32 19.11 41.28 19 41.17 18.79 40.89 18.82 40.7 19.07 40.69 19.12 40.69 19.47 40.69 19.54 40.82 19.76"/>
  <polygon class="cls-12" points="38.81 18.98 38.59 18.99 38.68 19.14 38.56 19.43 38.59 19.52 38.63 19.53 38.6 19.5 38.86 19.23 38.81 18.98"/>
  <polygon class="cls-12" points="38.9 19.27 38.78 19.58 38.81 19.79 38.98 19.81 38.96 19.32 38.9 19.27"/>
  <polygon class="cls-12" points="39.86 19.79 40.08 19.78 40.17 19.66 40.23 19.52 39.9 19.44 39.72 19.55 39.74 19.67 39.86 19.79"/>
  <polygon class="cls-12" points="40.32 19.72 40.36 19.94 40.39 19.99 40.51 20.09 40.57 19.98 40.59 19.77 40.67 19.77 40.56 19.59 40.32 19.72"/>
  <polygon class="cls-12" points="39.15 19.67 39.12 19.86 39.34 20.01 39.34 20.05 39.38 20.01 39.34 19.66 39.15 19.67"/>
  <polygon class="cls-12" points="40.01 20 39.96 20.17 40.24 20.13 40.13 19.95 40.01 20"/>
  <polygon class="cls-12" points="39.73 20.05 39.68 20.14 39.82 20.18 39.94 20.17 39.86 20.04 39.73 20.05"/>
  <polygon class="cls-12" points="39.53 18.72 39.64 18.64 39.53 18.57 39.43 18.64 39.53 18.72"/>
  <polygon class="cls-12" points="40.1 18.64 40.2 18.72 40.31 18.64 40.2 18.57 40.1 18.64"/>
  <path class="cls-9" d="M50.1,19.7l-.03,.1v.02s-.17,.59-.17,.59l-.03,.09s1.85,.32,3.35,.82c1.5,.5,2.78,1.15,2.78,1.15l.39-.8,.64-1.3-6.53-2.1-.4,1.43Zm1.16-.13l-.46-.05-.15-.09v-.14s.25-.15,.25-.15l.11-.13h.61v.22s.32,.19,.32,.19l.52,.21,.07,.02,1.25,.11,.56,.18,.3,.29,.07,.06,1.45,.23,.26,.04,.03,.12-.11,.09h0s0,0,0,0l-.12,.09-.34,.02h-.05s-.03,0-.03,0h-.17s-.46-.1-.46-.1l-.31-.05,.07,.14,.28,.26,.1,.05v.57s-.13,.11-.13,.11l-.14-.08,.06-.14-.02-.23-.09-.16-.13-.07-.5-.18-.13-.09h-.08s-.24,.23-.24,.23h-.17s-.24-.05-.24-.05l-.43-.1,.02-.12h.15s.2,.01,.2,.01h.23s0-.18,0-.18l-.56-.09-.5-.2-.16-.05h-.82s-.24,.05-.24,.05l-.36,.08-.18-.02-.07-.05,.02-.09,.71-.14-.07-.13h-.38s-.29-.02-.29-.02l-.23-.09-.04-.04v-.12s.14,.03,.14,.03l.36,.04,.34-.04v-.15s-.06-.14-.06-.14Z"/>
  <path class="cls-4" d="M54.68,18.48c.93,.32,1.84,.7,2.75,1.09,.38-.77,.75-1.55,1.13-2.31l.09-.17h0s-.15-.25-.15-.25c-.78-1.3-1.55-2.61-2.33-3.91-1.57,.63-4.7,1.9-4.7,1.9l-.72,2.59c1.33,.28,2.65,.63,3.94,1.07Zm-.81-3.55l.96,.3,.71-.58,.16,.88,.95,.35-.73,.63,.09,.9-.81-.26-.7,.66-.2-.94-1.01-.3,.79-.7-.19-.93Z"/>
  <path class="cls-4" d="M55.62,23.22s-1.53-.54-2.3-.79l-1.44-.46c-.75-.23-2.23-.68-2.23-.68l-.38,1.27h0c.92,.21,1.84,.43,2.74,.69,.81,.23,1.6,.51,2.38,.81l.69,.27c.39-.79,.53-1.11,.53-1.11Z"/>
  <path class="cls-8" d="M54.29,16.86l.2,.94,.7-.66,.81,.26-.09-.9,.73-.63-.95-.35-.16-.88-.71,.58-.96-.3,.19,.93-.79,.7,1.01,.3Zm2.29-.97l-.69,.6,.08,.86-.99-1.17,1.61-.29Zm-2.67-.91l.82,.28,.24,.92,.57-1.5,.14,.85-.71,.64,.19,.94-.61,.61,.43-1.54-.73,.61-.83-.24,1.56-.37-1.05-1.2Z"/>
  <polygon class="cls-6" points="55.53 14.69 54.96 16.19 55.67 15.54 55.53 14.69"/>
  <polygon class="cls-6" points="53.91 14.98 54.96 16.19 54.73 15.26 53.91 14.98"/>
  <polygon class="cls-6" points="55.15 17.12 54.96 16.19 54.54 17.73 55.15 17.12"/>
  <polygon class="cls-6" points="54.24 16.8 54.96 16.19 53.41 16.56 54.24 16.8"/>
  <polygon class="cls-6" points="55.96 17.35 55.89 16.49 56.58 15.89 54.97 16.19 55.96 17.35"/>
  <polygon class="cls-11" points="56.2 20.88 56.32 20.79 55.86 20.9 56.2 20.88"/>
  <path class="cls-11" d="M50.97,19.9l-.36-.04-.14-.03v.12s.05,.04,.05,.04l.23,.09,.29,.02h.38s.07,.13,.07,.13l-.71,.14-.02,.09,.07,.05,.18,.02,.36-.08,.24-.05h.82s.16,.05,.16,.05l.5,.2,.56,.09v.19s-.22-.01-.22-.01l-.2-.03h-.15s-.02,.13-.02,.13l.43,.1,.24,.04h.17s.24-.21,.24-.21h.08s.13,.08,.13,.08l.5,.18,.13,.07,.09,.16,.02,.23-.06,.14,.14,.08,.12-.11v-.57s-.1-.05-.1-.05l-.28-.26-.07-.14,.31,.05,.46,.12h.17s-.64-.14-.64-.14l-.33-.05,.04,.13,.41,.36v.55s-.1,.09-.1,.09l-.09-.06,.05-.14v-.23s-.12-.19-.12-.19l-.19-.07-.54-.23h-.14s-.21,.2-.21,.2h-.28s-.54-.14-.54-.14v-.07s.21,0,.21,0l.39,.03v-.22s.39-.02,.39-.02l-.14-.36-.25-.15h-.25s-.98,.02-.98,.02v.15s-.44-.02-.44-.02l-.42,.03-.26,.05-.36,.09-.18-.06v-.05s.57-.08,.57-.08l.16-.06-.08-.17h-.1s-.44,0-.44,0l-.24-.05-.14-.05-.03-.1,.3,.06h.3s.25-.05,.25-.05v-.22s-.11-.12-.11-.12l-.42-.04-.14-.07-.02-.12,.24-.13,.13-.14h.57v.22s.37,.2,.37,.2l.43,.17,.12,.04,1.23,.11,.4,.1,.46,.35,.08,.09,1.59,.24,.13,.05v.04s-.09,.12-.09,.12l.11-.09-.03-.12-.26-.04-1.45-.23-.07-.06-.3-.29-.56-.18-1.25-.11-.07-.02-.52-.21-.31-.19v-.22h-.62l-.11,.13-.26,.15v.14s.16,.09,.16,.09l.46,.05,.06,.14v.15s-.35,.04-.35,.04Zm2.52,.31l.35,.09,.19,.38-.37,.02-.62-.12-.55-.21v-.14s1.01-.03,1.01-.03Z"/>
  <polygon class="cls-5" points="56.41 20.62 56.28 20.56 54.68 20.32 54.61 20.24 54.15 19.89 53.75 19.79 52.51 19.67 52.39 19.63 51.96 19.46 51.6 19.26 51.59 19.04 51.03 19.04 50.9 19.18 50.66 19.31 50.68 19.43 50.82 19.5 51.24 19.54 51.34 19.66 51.35 19.88 51.09 19.93 50.79 19.92 50.49 19.86 50.52 19.96 50.66 20.01 50.9 20.07 51.34 20.06 51.44 20.07 51.51 20.24 51.36 20.31 50.8 20.39 50.79 20.44 50.97 20.5 51.33 20.42 51.59 20.37 52.01 20.34 52.46 20.36 52.45 20.21 53.43 20.18 53.68 20.2 53.93 20.35 54.07 20.71 53.69 20.72 53.68 20.94 53.29 20.91 53.09 20.92 53.08 20.99 53.63 21.11 53.91 21.13 54.12 20.92 54.26 20.93 54.8 21.16 54.99 21.23 55.1 21.42 55.11 21.65 55.07 21.79 55.16 21.84 55.24 21.76 55.26 21.6 55.26 21.21 54.85 20.85 54.81 20.72 55.14 20.77 55.78 20.9 55.81 20.91 55.86 20.9 56.32 20.79 56.32 20.79 56.32 20.78 56.42 20.66 56.41 20.62"/>
  <polygon class="cls-2" points="53.04 20.58 53.66 20.7 54.04 20.68 53.84 20.3 53.5 20.21 52.48 20.24 52.49 20.37 53.04 20.58"/>
</svg>