<?xml version="1.0" encoding="UTF-8"?>
<svg id="Layer_1" data-name="Layer 1" xmlns="http://www.w3.org/2000/svg" viewBox="0 0 80 80">
  <defs>
    <style>
      .cls-1 {
        fill: #fff;
      }

      .cls-2 {
        fill: #ce202c;
      }

      .cls-3 {
        fill: #273985;
      }
    </style>
  </defs>
  <path class="cls-1" d="M17.27,66.24h61.73c.64-1.96,1.01-4.06,1.01-6.24v-11.25H40.12l-22.85,17.49Z"/>
  <path class="cls-3" d="M60,80c8.87,0,16.37-5.77,18.99-13.76H17.27l-10.92,8.35c3.58,3.35,8.37,5.41,13.65,5.41H60Z"/>
  <polygon class="cls-3" points="51.55 40 40.12 48.75 80 48.75 80 31.25 40.12 31.25 51.55 40"/>
  <path class="cls-3" d="M78.99,13.76c-2.62-7.99-10.13-13.76-18.99-13.76H20C14.72,0,9.92,2.06,6.35,5.41l10.91,8.35h61.73Z"/>
  <path class="cls-1" d="M40.12,31.25h39.88v-11.25c0-2.18-.36-4.27-1.01-6.24H17.26l22.85,17.49Z"/>
  <path class="cls-2" d="M40.12,48.75l11.43-8.74-11.43-8.75L17.26,13.76,6.35,5.41C2.45,9.06,0,14.24,0,20V60c0,5.76,2.45,10.94,6.35,14.59l10.92-8.35,22.85-17.49ZM3.79,37.85h7.31l2.26-6.96,2.26,6.96h7.31l-5.92,4.3,2.27,6.96-5.92-4.3-5.92,4.3,2.26-6.96-5.92-4.3Z"/>
  <polygon class="cls-1" points="7.45 49.11 13.37 44.81 19.29 49.11 17.02 42.15 22.94 37.85 15.63 37.85 13.37 30.89 11.11 37.85 3.79 37.85 9.71 42.15 7.45 49.11"/>
</svg>