<?xml version="1.0" encoding="UTF-8"?>
<svg id="Layer_1" data-name="Layer 1" xmlns="http://www.w3.org/2000/svg" viewBox="0 0 74.71 80">
  <defs>
    <style>
      .cls-1 {
        fill: #fff;
      }

      .cls-2 {
        fill: #006752;
      }

      .cls-3 {
        fill: #eb8023;
      }
    </style>
  </defs>
  <path class="cls-1" d="M56.04,80c10.32,0,18.68-8.95,18.68-20V20c0-11.05-8.36-20-18.68-20H18.68C8.36,0,0,8.95,0,20V60c0,11.05,8.36,20,18.68,20H56.04ZM20.48,61.53c.42-.43,.92-.84,1.53-.9,1.1-.14,2.18,.3,3.24,.58-.65,.86-1.75,1.03-2.72,1.03-.73,0-1.46-.22-2.05-.71Zm2.75-3.62c-.84-.58-1.31-1.57-1.51-2.58-.22-.99-.26-2.01,.03-2.98,1.01,.89,1.52,2.29,1.71,3.66,.1,.64,0,1.29-.23,1.9Zm.77-1.76l.4-1.51c1.2,1.33,2.05,3.45,1.1,5.17-.84-1.01-1.45-2.28-1.5-3.66Zm-.64,8.02c1.03-1.62,3.2-2.46,4.88-1.53-1.24,1.32-3.13,2.2-4.88,1.53Zm3.45-7.74c1.01,.92,1.78,2.22,1.9,3.65l-.36,1.64c-1.48-1.21-1.95-3.43-1.53-5.3Zm-.64,9.19c1.18-1.36,3.12-1.98,4.78-1.36-.33,.56-.73,1.1-1.31,1.4-1.08,.6-2.39,.43-3.48-.04Zm3.03-6.27l.07-1.51c.92,.9,1.76,1.98,2.11,3.28,.17,.65,.07,1.34-.21,1.96-1.12-.88-1.7-2.29-1.97-3.73Zm2.54,7.81c-.88,.47-1.9,.43-2.85,.35,1.01-1.56,2.79-2.55,4.56-2.42-.4,.82-.89,1.66-1.71,2.07Zm5.61-1.17c-1.1,.19-2.14,.58-3.22,.79,.68-.5,1.43-.88,2.21-1.12-1.25-.43-2.52-.89-3.76-1.42,1.59,.39,3.15,.93,4.77,1.13,1.62-.2,3.19-.74,4.77-1.12-1.24,.51-2.49,.97-3.76,1.4,.79,.24,1.55,.63,2.23,1.12-1.1-.21-2.14-.6-3.24-.79Zm-5.41-7.12c1.83,.91,2.63,3.26,2.29,5.31-1.41-1.29-2.56-3.26-2.29-5.31Zm10.85,0c.24,2.05-.9,4.03-2.32,5.31-.33-2.05,.47-4.4,2.32-5.31Zm-.07,8.15c-.7-.43-1.1-1.19-1.46-1.92,1.77-.13,3.57,.86,4.56,2.42-1.04,.08-2.18,.11-3.1-.5Zm.69-6.19c.4-1.18,1.17-2.16,2.02-2.99,.29,1.18-.06,2.39-.53,3.44-.31,.71-.8,1.34-1.38,1.8-.33-.69-.38-1.51-.12-2.25Zm1.64,4.83c-.56-.3-.96-.84-1.29-1.4,1.65-.62,3.59,0,4.77,1.36-1.1,.45-2.41,.63-3.48,.04Zm.94-5.58c.12-1.41,.87-2.74,1.9-3.63,.44,1.86-.05,4.08-1.52,5.28l-.38-1.64Zm.94,3.02l-.33-.52c1.65-.84,3.74,0,4.74,1.58-1.52,.62-3.19-.04-4.41-1.06Zm3.36-8.47c.3,.53,.47,1.1,.4,1.7-.1,1.3-.69,2.51-1.5,3.47-.96-1.72-.1-3.86,1.1-5.17Zm.45,7.41l-1.3-.84c1.06-.28,2.14-.71,3.25-.58,.6,.05,1.1,.47,1.52,.9-.98,.82-2.32,.82-3.47,.52Zm.68-6.97c.26-1.03,.73-2.05,1.51-2.73,.39,1.31,.22,2.74-.28,3.99-.22,.65-.68,1.18-1.2,1.57-.37-.91-.3-1.92-.04-2.83Zm2.63,5.05c-.87,.23-1.85,.06-2.56-.58,1.44-1.42,3.61-1.72,5.47-1.29-.68,1.03-1.8,1.59-2.91,1.86Zm-.8-2.76c.01-1.03,.61-1.9,1.32-2.54,.84-.77,1.84-1.38,2.98-1.53-.3,2.27-2.37,3.62-4.3,4.06ZM15.57,45.54c-.4-.63-1.08-.9-1.65-1.28-.1-.65-.37-1.25-.45-1.9l-.35-1.08-.98-.65-.59-1.23-.12-1.49c0-.61,.16-1.25-.04-1.84-.31-.56-.75-1.07-.89-1.7l.35-1.49c.37,.82,1.13,1.28,1.72,1.92,.63,.28,1.45,.26,2.02-.17,.56-.39,1.13-.79,1.63-1.24,.44-.59,.47-1.42,.89-2.03l.57-.69c.96-.17,1.76-.87,2.75-.8,1.47,.13,2.75,1.01,4.06,1.62l1.22-.24c.7-.47,1.36-1.16,1.53-2.07,.24-1.18,.24-2.39,.24-3.58,.02-.85-.24-1.68-.26-2.51,1.24,.56,2.51,1.03,3.83,1.34l1.39-.17,1.04,.24,.87-.26,1.06,.56c.7,.01,1.39-.18,2.06,.04,.8,.23,1.64,.11,2.46,.29,1.53-.15,3.13-.11,4.56-.8,.66-.22,1.39,.08,2.04-.26,.71-.37,1.25-1.04,1.93-1.47l1.41-.06c1.88-.09,3.62-1.03,5.26-1.94,.75-.41,1.43-.99,2.25-1.25,.99-.23,1.46-1.31,2.07-2.05,1.18,.22,2.14-.58,3.2-.99,.65-.29,.96-1.04,1.5-1.49l1.3-.28,.23-.52c1.49,.04,2.82-.84,4.08-1.58l-.54,1.64-1.39,.39c-.67,.47-1.37,.86-2,1.38-.54,.45-.49,1.46-1.22,1.68-1.01,.3-1.65,1.21-2.28,2.05-.89,.19-1.63,.75-2.47,1.12-.64,.28-1.11,.86-1.63,1.35-.52,.5-1.1,.98-1.32,1.74l-.57,1.12c-.54,.36-1.18,.11-1.76,.13-.68,.17-1.5,.6-1.48,1.46-.91,.76-.91,2.12-.78,3.22,.19,1.07,.96,1.83,1.62,2.56l.61,1.23c.4,.56,1.15,.76,1.41,1.46l.82,1.15,.19,1.27c-.85-.59-1.88-.82-2.87-.93l-1.57,.35c.16,.67-.45,1.25-1.06,1.02-.65-.37-1.17-1.06-1.93-1.12-1.19-.11-2.63-.22-3.45,.9-.59,.95-.35,2.16-.43,3.24l-.88,1.4-1.32-.07-1.2,1.17c-.87,.15-1.78,.43-2.4,1.14l-1.17,.59-.89,.45-1.32-.05c-.38,.69-1.24,.73-1.88,.5-1.03-.3-2.12-.11-3.01,.47-.99,.31-1.83,1.12-2.24,2.13-.3,.84,.28,1.58,.7,2.22-.79-.1-1.6-.11-2.39-.23,.28-1.23-.59-2.24-1.39-2.98-.75-.57-1.67,.09-2.49-.19-.56,.32-1.1,.75-1.77,.58l-.51,.28c-.73-.28-1.46-.6-2.2-.87l-1.15-.95-1.39-.37-1.15-.49Zm4.82,9.57c.59,.59,1.03,1.38,1.04,2.26-1.93-.45-4.01-1.79-4.29-4.06,1.24,.17,2.35,.9,3.24,1.81Zm-2.67,3.15c1.86-.43,4.02-.13,5.47,1.29-.71,.64-1.69,.81-2.58,.58-1.1-.28-2.21-.86-2.89-1.86Z"/>
  <path class="cls-3" d="M19.26,47.36c.73,.28,1.46,.59,2.2,.87l.51-.28c.68,.17,1.22-.26,1.77-.58,.82,.28,1.75-.37,2.49,.19,.8,.74,1.67,1.75,1.39,2.98,.79,.11,1.6,.13,2.39,.23-.42-.64-.99-1.38-.7-2.22,.42-1.01,1.25-1.81,2.24-2.13,.89-.58,1.99-.77,3.01-.47,.65,.23,1.5,.19,1.88-.5l1.32,.05,.89-.45,1.17-.59c.62-.71,1.53-.99,2.4-1.14l1.2-1.17,1.32,.07,.88-1.4c.09-1.08-.16-2.3,.43-3.24,.82-1.12,2.27-1.01,3.45-.9,.77,.06,1.28,.75,1.93,1.12,.61,.23,1.22-.35,1.06-1.02l1.57-.35c.99,.11,2.02,.34,2.87,.93l-.19-1.27-.82-1.15c-.26-.69-1.01-.9-1.41-1.46l-.61-1.23c-.66-.73-1.43-1.49-1.62-2.56-.12-1.1-.12-2.46,.78-3.22-.02-.86,.8-1.29,1.48-1.46,.57-.01,1.22,.23,1.76-.13l.57-1.12c.23-.75,.8-1.24,1.32-1.74,.52-.49,.99-1.06,1.63-1.35,.84-.37,1.59-.93,2.47-1.12,.63-.84,1.28-1.75,2.28-2.05,.73-.22,.68-1.23,1.22-1.68,.63-.52,1.34-.91,2-1.38l1.39-.39,.54-1.64c-1.26,.75-2.58,1.62-4.08,1.58l-.23,.52-1.3,.28c-.54,.45-.85,1.19-1.5,1.49-1.06,.41-2.02,1.22-3.2,.99-.61,.75-1.08,1.82-2.07,2.05-.82,.26-1.5,.84-2.25,1.25-1.64,.91-3.38,1.84-5.26,1.94l-1.41,.06c-.68,.43-1.22,1.1-1.93,1.47-.64,.34-1.38,.04-2.04,.26-1.43,.69-3.03,.66-4.56,.8-.82-.19-1.65-.06-2.46-.29-.66-.21-1.36-.02-2.06-.04l-1.06-.56-.87,.26-1.04-.24-1.39,.17c-1.33-.32-2.6-.78-3.83-1.34,.02,.84,.28,1.66,.26,2.51,0,1.2,0,2.41-.24,3.58-.17,.91-.84,1.6-1.53,2.07l-1.22,.24c-1.31-.61-2.59-1.49-4.06-1.62-.99-.07-1.79,.64-2.75,.8l-.57,.69c-.42,.61-.45,1.44-.89,2.03-.5,.45-1.08,.84-1.63,1.24-.57,.43-1.39,.44-2.02,.17-.59-.64-1.35-1.1-1.72-1.92l-.35,1.49c.14,.63,.58,1.14,.89,1.7,.19,.59,.04,1.23,.04,1.84l.12,1.49,.59,1.23,.98,.65,.35,1.08c.09,.65,.35,1.25,.45,1.9,.58,.39,1.25,.65,1.65,1.28l1.15,.49,1.39,.37,1.15,.95Z"/>
  <path class="cls-2" d="M21.75,52.35c-.29,.97-.24,2-.03,2.98,.2,1.01,.67,1.99,1.51,2.58,.23-.62,.33-1.27,.23-1.9-.19-1.37-.7-2.76-1.71-3.66Z"/>
  <path class="cls-2" d="M52.64,56.34c.49-1.25,.66-2.69,.28-3.99-.78,.68-1.25,1.7-1.51,2.73-.26,.91-.33,1.92,.04,2.83,.52-.39,.97-.91,1.2-1.57Z"/>
  <path class="cls-2" d="M21.44,57.37c-.02-.88-.46-1.66-1.04-2.26-.89-.91-2-1.64-3.24-1.81,.28,2.27,2.35,3.62,4.29,4.06Z"/>
  <path class="cls-2" d="M53.24,57.37c1.93-.45,4-1.79,4.3-4.06-1.13,.15-2.14,.76-2.98,1.53-.71,.64-1.31,1.51-1.32,2.54Z"/>
  <path class="cls-2" d="M24.4,54.64l-.4,1.51c.05,1.38,.66,2.65,1.5,3.66,.96-1.72,.1-3.84-1.1-5.17Z"/>
  <path class="cls-2" d="M50.27,54.64c-1.2,1.31-2.05,3.45-1.1,5.17,.8-.95,1.39-2.17,1.5-3.47,.07-.6-.1-1.18-.4-1.7Z"/>
  <path class="cls-2" d="M28.33,61.73l.36-1.64c-.12-1.44-.89-2.74-1.9-3.65-.41,1.86,.06,4.08,1.53,5.3Z"/>
  <path class="cls-2" d="M47.87,56.45c-1.03,.9-1.78,2.22-1.9,3.63l.38,1.64c1.46-1.2,1.95-3.42,1.52-5.28Z"/>
  <path class="cls-2" d="M23.2,59.55c-1.45-1.42-3.6-1.72-5.47-1.29,.68,1,1.79,1.59,2.89,1.86,.89,.23,1.86,.06,2.58-.58Z"/>
  <path class="cls-2" d="M31.16,63.09c.28-.61,.38-1.3,.21-1.96-.35-1.31-1.19-2.39-2.11-3.28l-.07,1.51c.26,1.43,.85,2.85,1.97,3.73Z"/>
  <path class="cls-2" d="M44.89,61.28c.47-1.05,.82-2.26,.53-3.44-.85,.82-1.62,1.81-2.02,2.99-.26,.75-.2,1.56,.12,2.25,.58-.47,1.06-1.1,1.38-1.8Z"/>
  <path class="cls-2" d="M51.48,59.55c.71,.64,1.69,.81,2.56,.58,1.11-.28,2.23-.84,2.91-1.86-1.86-.43-4.03-.13-5.47,1.29Z"/>
  <path class="cls-2" d="M34.22,64.19c.34-2.05-.47-4.4-2.29-5.31-.26,2.05,.89,4.03,2.29,5.31Z"/>
  <path class="cls-2" d="M42.77,58.88c-1.84,.91-2.65,3.26-2.32,5.31,1.41-1.29,2.56-3.26,2.32-5.31Z"/>
  <path class="cls-2" d="M25.26,61.21c-1.06-.28-2.14-.71-3.24-.58-.61,.05-1.11,.47-1.53,.9,.59,.48,1.32,.71,2.05,.71,.97,0,2.07-.17,2.72-1.03Z"/>
  <path class="cls-2" d="M49.42,61.21l1.3,.84c1.15,.3,2.49,.3,3.47-.52-.42-.43-.92-.84-1.52-.9-1.11-.14-2.19,.3-3.25,.58Z"/>
  <path class="cls-2" d="M23.36,64.17c1.74,.67,3.64-.21,4.88-1.53-1.67-.93-3.85-.09-4.88,1.53Z"/>
  <path class="cls-2" d="M46.59,62.59l.33,.52c1.22,1.02,2.89,1.68,4.41,1.06-.99-1.58-3.08-2.42-4.74-1.58Z"/>
  <path class="cls-2" d="M30.95,64.26c-1.67-.62-3.6,0-4.78,1.36,1.09,.46,2.4,.63,3.48,.04,.58-.3,.98-.84,1.31-1.4Z"/>
  <path class="cls-2" d="M43.75,64.26c.33,.56,.73,1.1,1.29,1.4,1.08,.6,2.38,.41,3.48-.04-1.18-1.36-3.12-1.98-4.77-1.36Z"/>
  <path class="cls-2" d="M42.11,64.26c-1.59,.38-3.15,.92-4.77,1.12-1.62-.2-3.18-.74-4.77-1.13,1.24,.52,2.51,.99,3.76,1.42-.79,.24-1.53,.62-2.21,1.12,1.08-.21,2.12-.6,3.22-.79,1.1,.19,2.14,.58,3.24,.79-.68-.49-1.45-.88-2.23-1.12,1.27-.43,2.52-.89,3.76-1.4Z"/>
  <path class="cls-2" d="M28.88,67.52c.96,.08,1.97,.11,2.85-.35,.82-.41,1.31-1.25,1.71-2.07-1.78-.13-3.55,.86-4.56,2.42Z"/>
  <path class="cls-2" d="M41.24,65.1c.36,.73,.77,1.49,1.46,1.92,.92,.61,2.06,.58,3.1,.5-.99-1.56-2.79-2.55-4.56-2.42Z"/>
</svg>