<?xml version="1.0" encoding="UTF-8"?>
<svg id="Layer_1" data-name="Layer 1" xmlns="http://www.w3.org/2000/svg" viewBox="0 0 80 80">
  <defs>
    <style>
      .cls-1 {
        fill: #d31f36;
      }

      .cls-2 {
        fill: #fff;
      }

      .cls-3 {
        fill: #1d3260;
      }

      .cls-4 {
        fill: #241b11;
      }

      .cls-5 {
        fill: #fcce06;
      }

      .cls-6 {
        fill: none;
        stroke: #fff;
        stroke-linecap: round;
        stroke-linejoin: round;
        stroke-width: 0px;
      }

      .cls-7 {
        fill: #1c3e1c;
      }

      .cls-8 {
        fill: #007b65;
      }

      .cls-9 {
        fill: #1e3160;
      }

      .cls-10 {
        fill: #0b0607;
      }

      .cls-11 {
        fill: #fbcc0a;
      }

      .cls-12 {
        fill: #d32035;
      }

      .cls-13 {
        fill: #9c978e;
      }
    </style>
  </defs>
  <path class="cls-9" d="M30.71,0h-10.71C8.95,0,0,8.95,0,20v10.71H30.71V0Z"/>
  <path class="cls-1" d="M80,30.71v-10.71c0-11.05-8.95-20-20-20h-10.71V30.71h30.71Z"/>
  <path class="cls-9" d="M49.29,80h10.71c11.05,0,20-8.95,20-20v-10.71h-30.71v30.71Z"/>
  <path class="cls-1" d="M20,80h10.71v-30.71H0v10.71c0,11.05,8.95,20,20,20Z"/>
  <polygon class="cls-2" points="31.62 33.64 31.52 33.9 31.59 34.01 31.74 33.64 31.62 33.64"/>
  <polygon class="cls-2" points="34.59 38.53 34.47 38.75 34.12 39.48 33.96 39.61 33.38 39.89 33.22 40.06 32.61 40.79 32.5 41.05 32.74 40.64 33.39 39.98 33.5 40.48 34.05 40.19 34.59 40.07 34.59 38.53"/>
  <path class="cls-2" d="M33.36,31.92h12.87l-.84,.82-.38,.38v5.5l.16-.46,.19-.15,.17,.15-.17-.96,.13-.04,.26,.48-.02-.37-.17-.85,.24,.31,.02-.6,.12-.03,.32,.64v-.22s.1,.07,.1,.07l-.35-.57-.22-.23-.46,.34-.1-.08,.33-.52,.19-.19,.18-.03-.11-.67,.11-.04,.63,.82-.38-1.16-.15-.72,.12-.05,.39,.55,.24,.42-.03-.89,.13-.02,.38,.79,.05-.06,.2-.57-.22-.94-.24-.61-.57-.55-.65-.12-.75-.24-.34-.19-.1-.17,.12-.34-.52-.13-.44-.07-1.33,.02h-.68s-.57-.15-.57-.15l-.21-.19-.02-.17,.14-.49-.9-.1c-.62-.03-1.24-.03-1.85,.08l.14,.52-.1,.24-.34,.16-.5,.08-1.64-.03-.43,.02-.77,.18,.12,.35-.12,.18-.46,.23-.95,.28-.28,.03-.08,.05-.45,.4-.21,.43-.33,1.3-.15-.02-.18,.42,.04,.06,.55-.8,.21,.39,.06,.54,.4,.05,.28,.18-.39,.18-.09,.11-.18,.38-.08,.1-.3,.18,.54,.29,.38-.53,.16-.65,.26,.74,.2-.23,.22-.12,.48-.27-.12,.36-.05,.25v1.08l-.08,.31-.96,.95-.04,.09-.03,.36,.63-.54,.15,.81,.41-.15,.26,.07v-5.22l-1.23-1.2Z"/>
  <polygon class="cls-2" points="48.47 33.86 48.55 34.21 48.59 34.13 48.47 33.86"/>
  <polygon class="cls-2" points="48.76 33.91 48.63 33.56 48.47 33.43 48.69 33.99 48.75 33.92 48.76 33.91"/>
  <polygon class="cls-2" points="48.76 33.42 48.71 33.43 48.87 33.86 48.93 33.83 48.76 33.42"/>
  <polygon class="cls-2" points="48.36 34.41 48.36 34.43 48.35 34.64 48.48 34.36 48.45 34.36 48.37 34.17 48.36 34.4 48.36 34.41"/>
  <polygon class="cls-2" points="48.44 33.78 48.39 33.67 48.38 33.7 48.44 33.78"/>
  <polygon class="cls-2" points="48.14 33.62 48.11 33.55 48.01 33.59 48.08 33.74 48.09 33.71 48.14 33.62"/>
  <polygon class="cls-2" points="47.97 34.11 48.01 33.97 47.86 33.64 47.82 33.66 47.86 33.84 47.97 34.11"/>
  <polygon class="cls-2" points="42.89 43.78 43.04 43.57 42.92 43.57 42.89 43.78"/>
  <polygon class="cls-2" points="44.03 43.48 44.04 43.42 44 43.44 44.03 43.48"/>
  <polygon class="cls-2" points="43.37 43.81 43.46 43.57 43.37 43.57 43.37 43.81"/>
  <path class="cls-2" d="M46.17,45.87l.35,.21-.04,.14-.57-.04s-.07,0-.1,0l.03,.24,1.05-.15h0s-.13-.33-.13-.33l-.59-.06Z"/>
  <path class="cls-2" d="M41.72,44.33v-.77s-.25,0-.25,0l-.7,.16-.15,.06-.81,.75-.07-.07-.69-.63-.18-.08-.48-.12,.06,.34v.37s-.2,.45-.2,.45v.02s1.08-.01,1.08-.01c.72,.01,1.44,.05,2.16,.1h0s.23-.55,.23-.55Z"/>
  <polygon class="cls-2" points="48.39 40.76 49.07 40.64 49.72 40.56 49.15 40.35 48.39 40.76"/>
  <polygon class="cls-2" points="45 40.71 45.04 40.72 45.04 39.83 45.18 39.81 45.41 40.59 45.28 39.86 45.13 39.15 45.26 39.08 45.59 39.57 45.27 38.73 45.04 38.96 45 39.02 45 40.71"/>
  <polygon class="cls-2" points="42.51 43.77 42.6 43.56 42.51 43.56 42.51 43.77"/>
  <path class="cls-2" d="M39.93,46.29c-.15,0-.3,0-.45,0l.22,.24,.23-.24Z"/>
  <polygon class="cls-2" points="35.98 43.48 35.67 43.94 35.32 44.15 35.79 44.28 36.22 44.42 36.25 44.39 36.17 44.09 36.03 43.57 36.47 43.68 36.84 43.69 36.79 43.55 36.19 43.55 35.98 43.48"/>
  <polygon class="cls-2" points="37.59 43.72 37.68 43.55 37.36 43.55 37.59 43.72"/>
  <polygon class="cls-2" points="34.59 40.34 34.47 40.45 34.4 40.58 34.25 41.19 34.1 41.39 33.43 41.81 33.7 42.13 33.77 42.31 33.81 43.04 34.12 42.38 34.31 41.71 34.6 42.09 34.59 42.03 34.59 40.34"/>
  <path class="cls-2" d="M30.71,80h18.58v-30.71h30.71V30.71h-30.71V0H30.71V30.71H0v18.58H30.71v30.71Zm-.01-31.21l.35-.44-.09,.05-.28,.35-.12-.06,.21-.29,.15-.17-.08,.04-.26,.34-.12-.06,.21-.3,.13-.14-.09,.05-.27,.34-.12-.07,.35-.42-.03-.03-.28,.38-.12-.08,.31-.41-.04-.02-.29,.36-.11-.07,.19-.28,.1-.14-.28,.33-.11-.07,.8-.72,1.06-.15-.06-.4,.55-.44,1.01,.13v-.28s.22-.31,.22-.31l.65-.38h.02s.09-.21,.09-.21l.42-.38-.85,.03-.53,.52-.19,.06-.77,.14-.23,.1-.47,.41-.08-.51,.1-.29h-.71v-.08s.24-.36,.24-.36l.35-.38,.63-.24-.38-.18,.54-.23,.4-.07v-.15s-.16-.25-.16-.25l-.28,.38-.21,.16-1,.14-.19,.07-.37,.33-.1-.52,.06-.2-.28,.03,.11-.5,.22-.46-.36-.39-.15-.45h.7l.57,.15-.1-.27-.09-.3,.09-.07,.45,.24-.16-.46-.31,.05-.14-.34-.87-.32-.24-.32-.31-.91-.12-.27-.18-.15v-.09h.51l-.09-.42,.09-.66,.31,.41,.14,.06,.24,.16,.04-.25,.4,.53,.08-.34,.31-.16-.2-.23-.6-.99h.2l-.17-.51,.03-.74,.2,.18,.17,.15,.04-.16-.26-.78-.02-.33,.19-.45,.33-.49,.13-.33-.11-.02-.33,.78h-.14s.24-.73,.24-.73l.1-.14-.06-.02-.36,.82h-.13s.19-.67,.19-.67l.13-.18-.15,.11-.26,.72h-.13s.3-.83,.3-.83h-.04s-.34,.78-.34,.78h-.14v-.03l.31-.8v-.1s.55-1.34,.55-1.34l.41-.89,.26-.36,.38-.19-.02-.31,.19-.34,.66-.43,1.31-.42c.81-.18,1.62-.24,2.45-.24l.04-.3,.32-.32,.74-.23c.58-.1,1.18-.12,1.78-.14h.83l.06,.03,1.38,.19,.61,.25,.2,.26v.3c.8,0,1.61,.07,2.41,.24l1.27,.4,.64,.38,.25,.34v.37l.37,.18,.26,.35,.41,.9,.5,1.24,.05,.22,.15,.37,.2-.1-.12,.29,.08,.2v.06h-.14s-.02-.06-.02-.06l-.1,.24-.4,.9,.32-.31,.28-.11,.26,.14,.31,.39,.03,.18-.17,.04-.48-.18-.84,.85,.55-.54,.11,.08-.12,.35,.67-.39,.08,.12-.77,.72,.51-.22,.09,.11-.43,.53,.43-.16,.6,.15v.13s-.64,.05-.64,.05l-.17,.06-.45,.66,.37-.36,.11,.06-.15,.39,.78-.46,.08,.1-.76,.8,.27-.16,.18-.04,.21,.15,.59,.61-.07,.11-.87-.39-.47,.54-.53,.7,.65-.31,.24-.05,.2,.19,.23,.5-.03,.22,.16-.02,.52-.21h.09s0,.12,0,.12l-.77,.53-.37,.2,.45,.05,.02,.13-.79,.25-1.03,.39,.67-.02,1.05,.13v.13l-1.37,.2,1,.11v.14l-.54,.09,.51,.18,.51,.31-.05,.13-.58-.12-.76-.1,.31,.17,.11,.19-.47-.03,.37,.22,.39,.32-.85-.09,.58,.43-.05,.12-.87-.16,.33,.31,.27,.47-.46-.13-.52-.18,.41,.44-.72-.14,.38,.56-.51-.17v.4l-.14,.42h-.12s.51,.4,.51,.4l-.05,.39,1.05,.15,.81,.72-.12,.06-.21-.28-.07-.04,.31,.41-.11,.06-.3-.36-.04,.03,.31,.4-.11,.08-.3-.39,.02,.07,.31,.4-.12,.06-.21-.28-.15-.11,.34,.44-.12,.07-.31-.39,.05,.1,.29,.37-.12,.06-.35-.41,.04,.09,.29,.37-.13,.06-.26-.34-.07-.03,.35,.45-.11,.07-.35-.41,.35,.46-.11,.06h0l-.25-.33-.09-.05-.4-.37-.41-.07-.97-.03-.61-.28v-.43s-.66,.19-.66,.19l-.63-.1-.54-.38-.04-.28,.44-.36-.89-.16c-.68-.08-1.35-.12-2.03-.15,0,0,0,0,0,0l-.39,.35,.31,.13,.84,.19-.19,.85-.49-.24-.14-.04-.03,.17,.78,.41-.43,.56-1.34-.92-.12-.04-.44,.03-.51,.47-.37,.2-.62,.23-.15-.07-.5-.27,.95-.59-.02-.14-.58,.27-.19-.85,.77-.18,.62-.15-.2-.21-.17-.17c-.06,0-.11,0-.17,0-.88,.04-1.78,.1-2.65,.25l-.48,.1,.36,.3v.27s-.38,.32-.38,.32l-.71,.21-.76-.2,.05,.32-.26,.26-.55,.13-1.06,.03-.2,.06-.4,.37h-.03s-.3,.38-.3,.38h0l-.11-.06,.35-.46-.35,.41-.12-.06,.21-.28,.16-.18-.07,.04-.27,.34-.11-.07Z"/>
  <path d="M31.52,33.9l.11-.26h.12s-.16,.37-.16,.37l.09,.14,.18-.42,.15,.02,.33-1.3,.21-.43,.45-.4,.08-.05,.28-.03,.95-.28,.46-.23,.12-.18-.12-.35,.77-.18,.43-.02,1.64,.03,.5-.08,.34-.16,.1-.24-.14-.52c.6-.1,1.22-.1,1.85-.08l.9,.1-.14,.49,.02,.17,.21,.19,.57,.15h.68s1.33-.03,1.33-.03l.44,.07,.52,.13-.12,.34,.1,.17,.34,.19,.75,.24,.65,.12,.57,.55,.24,.61,.22,.94,.08-.24-.34-1.23-.53-.63,1.49,.33,.32,.74,.23,.62-.49,.05-.47,.18v.02s.03,.12,.03,.12l.04-.03,.15,.33,.07-.23-.06-.15,.09-.04,.03,.07,.07-.13,.19-.04v.22s.04,.12,.04,.12l-.05-.08-.02,.46,.08,.19h.03s.07-.15,.07-.15l-.08-.35,.12,.27,.02-.04,.08-.1-.22-.56,.16,.13,.13,.36,.11-.05-.16-.43h.05s.17,.4,.17,.4l.14-.07-.15-.37-.05-.22-.5-1.24-.41-.9-.26-.35-.37-.18v-.37l-.25-.34-.64-.38-1.27-.4c-.8-.18-1.61-.24-2.43-.24v-.3s-.19-.26-.19-.26l-.61-.25-1.38-.19-.65-.03h-.24c-.6,.02-1.19,.04-1.78,.14l-.74,.23-.32,.32-.04,.3c-.82,0-1.64,.06-2.45,.24l-1.31,.42-.66,.43-.19,.34,.02,.31-.38,.19-.26,.36-.41,.89-.54,1.34v.1s-.32,.8-.32,.8v.02h.14s.34-.79,.34-.79h.04s-.3,.84-.3,.84h.13s.26-.72,.26-.72l.15-.11-.13,.18-.19,.66h.13s.36-.81,.36-.81l.06,.02-.1,.14-.24,.73h.14s.33-.78,.33-.78l.11,.02-.13,.33,.07-.1,.07,.11Zm2.91-2.86l-1.11,.34-.28,.04,1.08-.48,.51-.09,.06,.04-.26,.16Zm-1.7,.31l.29-.32,1.57-.46,.07,.12h-.22l-.45,.15-.9,.41-.36,.1Zm8.56-1.95l.86,.28,.2,.14-.07,.15-.55-.16-.58,.09,.15-.51Zm4.91,2.02l-1.12-.36-.24-.14v-.03l.49,.04,1.13,.51-.27-.02Zm.29-.11l-1.12-.49-.5-.08,.07-.13,1.58,.46,.29,.31-.32-.07Zm1.31-.22l.28,.61-1.08-.24,.08-.15,.22-.62,.5,.4Zm-2.3-1.86l1.3,.53,.37,.33,.05,.17-.17,.79-.11,.23-.36-.34c-.75-.22-1.48-.46-2.24-.64l-.53-.09-1.48,.02-.63-.02-.47-.17,.29-.15,.58,.19,.32-.05,.09-.26,.23-.89c.93,0,1.87,.08,2.77,.32Zm-8.37-.93l.51-.21,1.66-.19c.66-.01,1.3,0,1.94,.07l1.03,.24,.33,.22,.03,.19-.15,.76-.09,.3-.9-.38-1.42-.17c-.67-.02-1.35-.01-2,.15l-.91,.43-.19-.69-.03-.43,.19-.3Zm1.27,1.59l-.43-.13-.43,.16-.29,.03-.05-.07,.58-.35,.49-.14,.13,.5Zm-5.86-.01l.79-.44c.57-.23,1.19-.35,1.79-.45l1.69-.1,.24,.98,.16,.21,.58-.12,.38-.05,.14,.13-.48,.16-.59,.02-.81-.02h-.61s-.8,.12-.8,.12c-.69,.17-1.37,.38-2.06,.59l-.36,.34-.05-.07-.23-.97,.2-.34Zm-.91,1.43l.27-.47,.34-.18,.3,.76-1.07,.25,.16-.36Zm-.31,2.02l-.55-.06,.47-1.18,.09-.16,.15-.07,1.33-.26-.18,.16-.33,.45-.39,1.37-.59-.24Z"/>
  <polygon points="49.09 34.22 49.23 34.21 49.23 34.15 49.15 33.96 49.06 34.16 49.09 34.22"/>
  <polygon points="48.36 34.4 48.36 34.43 48.36 34.41 48.36 34.4"/>
  <polygon points="47.93 34.23 47.97 34.11 47.86 33.84 47.93 34.23"/>
  <polygon class="cls-13" points="40.56 27.77 40.5 27.74 39.91 27.74 40.56 27.77"/>
  <path class="cls-3" d="M37.15,29.71l.91-.43c.65-.17,1.33-.18,2-.15l1.42,.17,.9,.38,.09-.3,.15-.76-.03-.19-.33-.22-1.03-.24c-.65-.08-1.29-.09-1.94-.07l-1.66,.19-.51,.21-.19,.3,.03,.43,.19,.69Zm4.29-1.51l.11,.02,.1,.68,.02,.26-.1-.02-.04-.27-.07-.03-.23-.04-.12,.26-.11-.02,.43-.85Zm-.72,.43l.03-.53h.1s-.04,.91-.04,.91h-.1s0-.38,0-.38Zm-.8-.53h.35l.2,.09v.33s-.15,.08-.15,.08l.26,.41h-.13l-.15-.29-.1-.1h-.18s0,.39,0,.39h-.1v-.91Zm-.69,0h.59v.11h-.25v.8h-.09v-.8h-.25v-.11Zm-.49-.01h.12s.29,.69,.29,.69l.06,.19h-.11s-.1-.26-.1-.26l-.31,.03-.06,.28h-.1s.21-.92,.21-.92Zm-.57,.1l.18,.08,.05,.33-.17,.12-.22,.04,.06,.36-.09,.02-.17-.9,.37-.05Z"/>
  <path class="cls-11" d="M38.69,28.73l.31-.03,.1,.26h.11s-.06-.19-.06-.19l-.29-.69h-.12s-.21,.93-.21,.93h.1s.06-.28,.06-.28Zm.11-.53l.16,.4-.24,.02,.09-.42Z"/>
  <polygon class="cls-11" points="40.85 28.11 40.75 28.1 40.72 28.63 40.72 29.01 40.82 29.01 40.85 28.11"/>
  <polygon class="cls-11" points="39.48 29.01 39.57 29.01 39.57 28.21 39.82 28.21 39.82 28.1 39.23 28.1 39.23 28.21 39.47 28.21 39.48 29.01"/>
  <path class="cls-11" d="M40.02,29.01v-.4h.18s.1,.11,.1,.11l.15,.29h.13l-.26-.41,.14-.08v-.33s-.19-.09-.19-.09h-.35v.91h.1Zm0-.8h.3v.28l-.3,.02v-.29Z"/>
  <path class="cls-11" d="M38.06,29.12l-.06-.36,.22-.04,.17-.12-.05-.33-.18-.08-.37,.05,.17,.9,.09-.02Zm.1-.82l.12,.27-.31,.09-.07-.31,.25-.05Z"/>
  <polygon class="cls-3" points="38.8 28.2 38.72 28.62 38.96 28.6 38.8 28.2"/>
  <path class="cls-11" d="M41.24,28.8l.23,.04,.07,.03,.04,.27,.1,.02-.02-.26-.1-.68-.11-.02-.43,.85,.11,.02,.12-.26Zm.24-.48l.05,.43-.24-.04,.19-.39Z"/>
  <polygon class="cls-3" points="40.32 28.21 40.02 28.21 40.02 28.51 40.32 28.49 40.32 28.21"/>
  <polygon class="cls-3" points="38.29 28.57 38.17 28.3 37.92 28.35 37.98 28.66 38.29 28.57"/>
  <polygon class="cls-3" points="41.48 28.31 41.29 28.7 41.53 28.75 41.48 28.31"/>
  <path class="cls-3" d="M32.6,31.24l.36-.34c.68-.21,1.37-.42,2.06-.59l.8-.13h.61s.81,.03,.81,.03l.59-.02,.48-.16-.14-.13-.38,.05-.58,.12-.16-.21-.24-.98-1.69,.1c-.61,.1-1.22,.22-1.79,.45l-.79,.44-.2,.34,.23,.97,.05,.07Zm3.24-1.58l-.39-.16,.08-.35h.32s.12,.21,.12,.21l-.1,.02-.09-.14h-.17l-.08,.19,.15,.07,.28,.1-.07,.42-.38-.04-.09-.2,.09-.02,.13,.18,.24-.05-.04-.22Zm-1.08-.44l.38,.11,.09,.58-.39,.22-.22-.17-.08-.44,.21-.29Zm-.43,.14l.14,.89h-.1s-.13-.88-.13-.88h.09Zm-.59,.16l.32,.21,.07,.5-.19,.17-.28,.09-.28-.86,.36-.1Z"/>
  <path class="cls-3" d="M42.41,30.05l-.32,.05-.58-.19-.29,.15,.47,.17,.63,.02,1.48-.02,.53,.09c.76,.18,1.49,.42,2.24,.64l.36,.34,.11-.23,.17-.79-.05-.17-.37-.33-1.3-.53c-.9-.24-1.84-.33-2.77-.32l-.23,.89-.09,.26Zm4.27-.13l.27,.1,.14,.2-.12,.48-.28,.17-.31-.1,.3-.85Zm-.32-.16l-.05,.94-.1-.03v-.28s-.24-.09-.24-.09l-.16,.23-.1-.03,.55-.76,.09,.03Zm-.63-.12l-.2-.07,.04-.1,.49,.17-.03,.1-.21-.07-.27,.74-.09-.03,.28-.75Zm-.51-.27l.17,.11-.09,.33-.16,.05,.12,.46-.1-.02-.09-.39-.18-.1-.11,.38-.09-.02,.25-.87,.28,.07Zm-1-.2l.47,.08v.1s-.41-.05-.41-.05l-.04,.26,.36,.06v.11s-.38-.06-.38-.06l-.05,.3,.39,.06v.1s-.5-.07-.5-.07l.15-.89Zm-.66-.04l.31,.03,.14,.23-.1,.19,.08,.28-.16,.18-.36-.02,.08-.89Zm-.24-.03h.09s-.08,.91-.08,.91h-.09s.08-.91,.08-.91Zm-.54-.05h.09s-.08,.8-.08,.8l.32,.03v.11s-.42-.04-.42-.04l.09-.9Z"/>
  <polygon class="cls-11" points="43.12 29.88 42.81 29.86 42.88 29.07 42.79 29.06 42.7 29.95 43.11 29.99 43.12 29.88"/>
  <polygon class="cls-11" points="43.41 29.11 43.32 29.11 43.24 30 43.33 30.02 43.41 29.11"/>
  <polygon class="cls-11" points="35.5 29.75 35.41 29.77 35.5 29.97 35.87 30.01 35.94 29.6 35.67 29.49 35.52 29.42 35.6 29.24 35.77 29.24 35.85 29.38 35.96 29.36 35.84 29.16 35.52 29.15 35.45 29.5 35.84 29.66 35.88 29.88 35.64 29.92 35.5 29.75"/>
  <path class="cls-11" d="M43.99,29.86l-.08-.28,.1-.19-.14-.23-.31-.03-.08,.89,.36,.02,.16-.18Zm-.35-.62l.25,.05-.07,.23h-.2s.03-.28,.03-.28Zm-.04,.37l.25,.04-.02,.28h-.26s.03-.31,.03-.31Z"/>
  <polygon class="cls-11" points="44.58 30.03 44.18 29.97 44.23 29.67 44.59 29.73 44.61 29.62 44.25 29.56 44.28 29.3 44.68 29.35 44.7 29.25 44.22 29.17 44.07 30.06 44.56 30.14 44.58 30.03"/>
  <path class="cls-11" d="M34.84,30.12l.39-.22-.09-.58-.38-.11-.21,.29,.08,.44,.22,.17Zm-.17-.7l.11-.1,.31,.14v.44s-.28,.1-.28,.1l-.17-.32,.03-.26Z"/>
  <polygon class="cls-3" points="43.89 29.29 43.65 29.25 43.62 29.51 43.82 29.52 43.89 29.29"/>
  <path class="cls-11" d="M44.78,30.19l.11-.38,.18,.1,.09,.39,.1,.02-.12-.46,.16-.05,.09-.33-.17-.11-.28-.07-.25,.87,.09,.02Zm.22-.76l.23,.06-.07,.28-.24-.06,.09-.28Z"/>
  <polygon class="cls-3" points="35.12 29.91 35.1 29.46 34.79 29.33 34.68 29.43 34.65 29.68 34.82 30 35.12 29.91"/>
  <rect class="cls-11" x="34.3" y="29.36" width=".1" height=".9" transform="translate(-4.15 5.6) rotate(-8.79)"/>
  <polygon class="cls-3" points="37.19 29.86 37.24 29.93 37.53 29.9 37.96 29.74 38.39 29.88 38.26 29.38 37.77 29.51 37.19 29.86"/>
  <polygon class="cls-3" points="42.27 29.97 42.34 29.82 42.14 29.68 41.28 29.39 41.13 29.9 41.72 29.81 42.27 29.97"/>
  <polygon class="cls-3" points="45.23 29.48 45 29.43 44.92 29.7 45.16 29.76 45.23 29.48"/>
  <polygon class="cls-11" points="45.81 29.68 46.03 29.75 46.06 29.65 45.56 29.47 45.53 29.57 45.73 29.65 45.46 30.4 45.55 30.42 45.81 29.68"/>
  <path class="cls-11" d="M33.93,30.4l.19-.17-.07-.5-.32-.21-.36,.1,.28,.86,.28-.09Zm-.12-.76l.22,.34-.06,.28-.26,.09-.2-.64,.3-.06Z"/>
  <polygon class="cls-3" points="43.86 29.66 43.61 29.62 43.58 29.93 43.84 29.93 43.86 29.66"/>
  <polygon class="cls-3" points="33.98 30.26 34.04 29.98 33.81 29.64 33.51 29.7 33.72 30.35 33.98 30.26"/>
  <path class="cls-11" d="M45.82,30.53l.16-.23,.26,.09v.28s.08,.03,.08,.03l.05-.94-.09-.03-.55,.76,.1,.03Zm.46-.68l-.03,.44-.21-.07,.24-.37Z"/>
  <polygon class="cls-3" points="46.28 29.85 46.03 30.22 46.24 30.29 46.28 29.85"/>
  <path class="cls-11" d="M46.97,30.7l.12-.48-.14-.2-.27-.1-.3,.85,.31,.1,.28-.17Zm-.23-.64l.25,.15-.07,.37-.17,.18-.25-.06,.24-.64Z"/>
  <polygon class="cls-3" points="46.92 30.58 46.99 30.21 46.74 30.05 46.5 30.7 46.75 30.76 46.92 30.58"/>
  <polygon class="cls-3" points="33.98 30.84 34.43 30.69 34.65 30.69 34.59 30.57 33.02 31.03 32.73 31.34 33.09 31.25 33.98 30.84"/>
  <polygon class="cls-3" points="44.94 30.6 44.87 30.72 45.37 30.8 46.49 31.3 46.81 31.37 46.51 31.06 44.94 30.6"/>
  <polygon class="cls-3" points="32.24 30.65 31.89 30.83 31.62 31.3 31.46 31.66 32.54 31.41 32.24 30.65"/>
  <polygon class="cls-3" points="46.99 31.45 48.07 31.69 47.79 31.08 47.29 30.68 47.07 31.3 46.99 31.45"/>
  <polygon class="cls-3" points="34.13 30.93 33.05 31.41 33.32 31.37 34.43 31.04 34.69 30.88 34.63 30.83 34.13 30.93"/>
  <polygon class="cls-3" points="44.83 30.89 44.83 30.91 45.07 31.05 46.19 31.41 46.46 31.43 45.32 30.93 44.83 30.89"/>
  <polygon class="cls-3" points="32.29 32.19 32.62 31.74 32.8 31.58 31.46 31.84 31.32 31.91 31.23 32.07 30.76 33.26 31.31 33.32 31.9 33.56 32.29 32.19"/>
  <polygon class="cls-3" points="47.71 33.13 47.75 33.36 47.79 33.53 48.26 33.34 48.76 33.29 48.52 32.67 48.2 31.93 46.72 31.61 47.25 32.23 47.59 33.47 47.71 33.13 47.71 33.13"/>
  <polygon points="35.83 33.89 35.1 33.55 35.82 33.9 35.83 33.89"/>
  <polygon points="40.9 36.98 40.9 36.98 40.14 37.28 40.9 36.98"/>
  <polygon points="42.51 43.56 42.6 43.56 42.66 43.43 42.51 43.43 42.51 43.56"/>
  <path d="M44.86,40.67l.14,.04v-1.69l-.07,.1-.08,.02v1.52Z"/>
  <polygon points="42.18 43.49 42.21 43.42 42.13 43.42 42.18 43.49"/>
  <polygon points="43.36 43.44 43.37 43.57 43.46 43.57 43.52 43.42 43.44 43.44 43.36 43.44"/>
  <polygon points="42.92 43.57 43.04 43.57 43.13 43.44 42.94 43.43 42.92 43.57"/>
  <polygon points="44 43.44 44.04 43.42 44.09 43.23 43.91 43.29 44 43.44"/>
  <polygon points="36.03 43.36 36.01 43.43 35.98 43.48 36.19 43.55 36.79 43.55 36.74 43.41 36.17 43.41 36.03 43.36"/>
  <polygon points="37.36 43.55 37.68 43.55 37.74 43.41 37.18 43.41 37.36 43.55"/>
  <path d="M34.72,40.22l-.14,.13v1.75s.11,.13,.11,.13l.05-.04-.03-.19c0-.59,0-1.18,0-1.77Z"/>
  <path d="M39.05,43.82l.69,.63,.07,.07,.81-.75,.15-.06,.7-.16h.26s0-.13,0-.13l-.65,.03-.29,.08v-1.17h.16l-.1-.47-.05-.38,.13,.04,.1-.05,.91,.13,.91-.22,.96-1.1,.11-.63v-.6h.88s.05-.08,.05-.08h-.93v-1.77h.94v1.74l.05-.09,.09-.25v-5.5l.38-.38,.84-.82h-12.87l1.23,1.2v5.22l.09,.03-.09,.17v1.54l.14-.03c0-.32,0-.65,0-.97h1v.82l.26,.79,.82,.78,.93,.23,.9-.14,.16,.34v1.64l-.44-.1h-.04s.06,.11,.06,.11v.06s.49,.12,.49,.12l.18,.08Zm1.65-.25l-.91,.72-.88-.7-.03-.07v-1.48s.09,.11,.09,.11l.25,.38,.56,1.12,.38-.76,.2-.55h.32v1.22Zm-.29-1.36l-.05-.92-.08-1.37,.2,.8,.29,1.5h-.37Zm.29-.99l-.09-.59-.29-1.04,.02-.14,.17,.5,.13,.47,.21,.66,.05,.31-.19-.18Zm-1.82-4.59v-.06s.3-.15,.3-.15l.25-.07h.37s.08-.08,.08-.08l.42-.24,.28-.06,.05,.15,.07,.18,.03,.08,.03,.09h0l.02,.09,.06,.16,.04,.13,.03,.07,.04,.13,.03,.08,.04,.12,.03,.08,.05,.14,.07,.23-.38,.05-.4,.19-.08,.03-.36,.02-.47,.18-.04-.13-.04-.09-.06-.15-.03-.08-.04-.12-.04-.09-.04-.11-.06-.15-.04-.11-.05-.12-.04-.1-.04-.1-.04-.09v-.02s0,0,0,0l-.03-.08Zm.58,1.84l.47-.18h.38s.11-.06,.11-.06l.16,.24-.15,.37-.4-.41-.61,.09,.04-.05Zm-3.73,.51h-1v-1.76h1v1.76Zm2.87,1.29l-.09,.51,.03,.38,.06,.25-.49,.09-.65,.04-.94-.45-.65-1.26v-5.49l.1,.07-.24-.21c0,.97,0,1.94,0,2.91h-1c0-1.34,0-2.7,0-4.04l-.04-.06-.84-.81-.16-.16c1.7,0,3.41,0,5.1,0,0,.97,0,1.94,0,2.9l-.02-.02,.11,.15v-.03c0-1.01,0-2.01,0-3.01,.61,0,1.22,0,1.82,0v3.05l.09-.13v-2.92c1.7,0,3.41,0,5.11,0l-1.04,1.01c0,1.35,0,2.72,0,4.07h-.94v-2.98l-.3,.26,.17-.13v1.33c0,.76,0,1.52,0,2.27v.77s0,0,0,0v.4s0,.7,0,.7l-.31,.9-.77,.66-.73,.18-.94-.15-.05-.25-.28-.93-.21-.64h0s-.09-.33-.09-.33l.03-.18,.25-.42h.01l-.06-.34,.07-.19,.54-.09,.11-.15-.45-1.27-.1-.3-.07-.2-.11-.25h-.01s-.19,.05-.19,.05h-.05s-.35,.11-.35,.11l.03-.04v-.93s.37,0,.37,0v-.51h-.38v-.37s-.51,0-.51,0v.37h-.38v.51h.38v.91h-.02s.16,.19,.16,.19v-1.23h-.38v-.23h.38v-.37h.25v.37h.38v.23h-.38v1.19l-.18,.14h0s-.32,0-.32,0h-.09s-.27,.1-.27,.1l-.16,.07-.21,.18-.03,.2,.58,1.5,.06,.37-.05,.17-.36,.68-.31,.78Zm.03,.51l.24-.9,.58-1.15,.08-.12,.31-.09,.4,.3,.05,.14-.16,.89v.39s.12,1.45,.12,1.45l-.02,.61-.32,.79-.11,.21v.03s-.34-.65-.34-.65l-.26-.45-.4-.66-.18-.81Z"/>
  <path class="cls-3" d="M35.59,34.14l-.49-.58,.72,.34h0s0,0,0,0l-.03,.04,.53,.42,.02-.77-.16-.15v.02s-.42-.62-.42-.62l.67,.41-.05,.03c.8,.8,1.6,1.6,2.4,2.39v-.28c-.49-.66-1-1.33-1.5-1.99l-.4-.54-.05,.03-.3-.69,.62,.51-.05,.02c.55,.75,1.11,1.47,1.66,2.21l.02,.02c0-.97,0-1.93,0-2.9-1.7,0-3.4,0-5.1,0l.16,.16,.84,.81,.04,.06c0,1.34,0,2.7,0,4.05h1c0-.97,0-1.94,0-2.92l-.12-.11v.03Z"/>
  <path class="cls-2" d="M39.54,35.93v-.91h-.38v-.51h.38v-.37h.52v.37s.37,0,.37,0v.51h-.38v.93s.32-.42,.32-.42l.33-.43v-3.05c-.6,0-1.21,0-1.82,0,0,1.01,0,2.01,0,3.01v.03l.63,.83h.02Z"/>
  <path class="cls-12" d="M42.48,32.63l.62-.51-.31,.71-.04-.02-.12,.15c-.58,.76-1.16,1.53-1.74,2.3l-.09,.14v.27c.82-.81,1.63-1.63,2.45-2.45l-.05-.04,.68-.42-.41,.64-.03-.03-.14,.16v.09s.02,.68,.02,.68l.53-.42-.04-.04,.73-.34-.48,.58h-.02s-.12,.09-.12,.09v2.97h.94c0-1.34,0-2.71,0-4.06l1.04-1.01c-1.7,0-3.41,0-5.11,0v2.92c.58-.77,1.16-1.54,1.74-2.3l-.05-.04Z"/>
  <polygon class="cls-11" points="43.1 32.12 42.48 32.63 42.53 32.67 42.75 32.8 42.75 32.81 42.79 32.83 43.1 32.12"/>
  <polygon class="cls-11" points="37.17 32.7 36.55 32.2 36.85 32.89 36.89 32.86 37.11 32.73 37.17 32.7"/>
  <path class="cls-4" d="M40.06,35.95l-.03,.04,.35-.09h.05s.27-.38,.27-.38l.07-.09v.23s-.07,.09-.07,.09l-.07,.07,.11,.25,.29-.29,.92-.92,1.2-1.2,.11-.12,.02,.07v-.09s.15-.16,.15-.16l-.19-.15c-.82,.82-1.64,1.64-2.46,2.45v-.27s.1-.14,.1-.14c.58-.76,1.16-1.53,1.74-2.3l.12-.15h0s-.22-.14-.22-.14c-.58,.76-1.16,1.53-1.74,2.3l-.09,.13-.33,.43-.31,.42Z"/>
  <path class="cls-4" d="M36.89,32.86l.4,.54c.5,.66,1,1.33,1.5,1.99l.09,.13h0s0,.01,0,.01l.53,.69h.32s0,0,0,0l-.07-.09-.16-.2-.63-.83-.11-.15c-.56-.74-1.11-1.47-1.66-2.21l-.22,.14Z"/>
  <polygon class="cls-11" points="43.88 32.76 43.2 33.17 43.25 33.21 43.44 33.37 43.47 33.4 43.88 32.76"/>
  <polygon class="cls-11" points="36.44 33.24 35.77 32.83 36.17 33.45 36.19 33.44 36.39 33.27 36.44 33.24"/>
  <path class="cls-4" d="M38.79,35.67c-.8-.8-1.6-1.59-2.4-2.39l-.2,.16,.16,.15,.13,.13,1.21,1.21,.91,.91,.46,.46h0s.27-.09,.27-.09l-.44-.43-.1-.12Z"/>
  <polygon class="cls-11" points="44.05 34.07 44.54 33.49 43.81 33.83 43.85 33.87 44.04 34.06 44.05 34.07"/>
  <polygon class="cls-11" points="35.82 33.9 35.1 33.55 35.59 34.14 35.6 34.11 35.79 33.94 35.83 33.9 35.82 33.9"/>
  <polygon points="43.32 34.29 43.29 33.61 43.27 33.55 43.16 33.67 43.2 34.4 43.32 34.29"/>
  <polygon points="36.34 33.59 36.32 34.36 36.45 34.47 36.48 33.73 36.34 33.59"/>
  <polygon class="cls-3" points="43.2 34.4 43.16 33.67 41.96 34.87 41.99 35.37 43.2 34.4"/>
  <polygon class="cls-3" points="36.48 33.73 36.45 34.47 37.65 35.42 37.69 34.94 36.48 33.73"/>
  <polygon class="cls-4" points="43.85 33.87 43.32 34.29 43.2 34.4 41.99 35.37 41.02 36.12 40.82 36.28 40.92 36.58 40.91 36.54 41.61 35.98 42.66 35.15 43.61 34.41 43.92 34.15 44.04 34.06 43.85 33.87"/>
  <polygon class="cls-4" points="38.03 36.04 38.7 36.57 38.91 36.39 38.89 36.4 38.62 36.19 37.65 35.42 36.45 34.47 36.32 34.36 35.79 33.94 35.6 34.11 35.73 34.22 35.97 34.43 36.98 35.22 38.03 36.04"/>
  <polygon class="cls-11" points="39.92 36.08 39.92 34.89 40.29 34.89 40.3 34.66 39.92 34.66 39.92 34.28 39.67 34.28 39.67 34.66 39.29 34.66 39.29 34.89 39.67 34.89 39.67 36.12 39.74 36.21 39.92 36.08"/>
  <path class="cls-3" d="M42.67,35.99c0,.74,.03,1.49,.03,2.24l1.08-.34c0-.75,0-1.5,0-2.27v-1.33s-.17,.13-.17,.13l-.95,.74v.83Z"/>
  <path class="cls-3" d="M36.97,36.27v-1.04s-1-.79-1-.79l-.1-.07v3.59l1.07,.34c.01-.67,0-1.35,.02-2.03Z"/>
  <polygon class="cls-2" points="41.99 35.37 41.96 34.87 41.04 35.79 41.02 36.12 41.99 35.37"/>
  <polygon class="cls-2" points="37.69 34.94 37.65 35.42 38.62 36.19 38.6 35.85 37.69 34.94"/>
  <path class="cls-2" d="M42.67,35.99v-.83s-1.05,.83-1.05,.83v2.43l-.92,.21h-.01l-.25,.42-.03,.18,.09,.32,.39-.17,.32-.09,.45,.03,.02,.59-.12,.2-.36,.15-.51-.05,.28,.93,1.05-.22,.53-.76,.15-1.17,.64-.07,.43-.24h.01s0-.77,0-.77l-1.08,.34c0-.75-.03-1.5-.03-2.24Z"/>
  <path class="cls-2" d="M37.96,39.92l.02-.56,.37-.02,.56,.16,.36-.68-1.23-.34c0-.8,0-1.61,0-2.43l-1.05-.82v1.04c-.03,.68-.02,1.36-.04,2.03l-1.07-.34v.78l.4,.23,.67,.07,.16,1.23,.51,.7,.93,.21-.03-.38,.09-.51-.56-.16-.09-.2Z"/>
  <polygon points="38.89 35.76 38.89 35.51 38.79 35.39 38.79 35.67 38.89 35.78 38.89 35.76"/>
  <polygon points="40.77 35.66 40.76 35.43 40.7 35.52 40.7 35.76 40.77 35.66"/>
  <polygon class="cls-2" points="38.89 35.51 38.89 35.51 38.89 35.76 38.89 35.78 39.34 36.21 39.43 36.22 38.9 35.52 38.89 35.51"/>
  <polygon class="cls-2" points="40.7 35.52 40.43 35.88 40.62 35.85 40.63 35.83 40.7 35.76 40.7 35.52"/>
  <polygon class="cls-12" points="41.04 35.79 40.75 36.08 40.82 36.28 41.02 36.12 41.04 35.79"/>
  <polygon class="cls-12" points="38.6 35.85 38.62 36.19 38.89 36.4 38.91 36.39 39.07 36.32 39.06 36.31 38.6 35.85"/>
  <polygon class="cls-13" points="39.76 36.49 39.81 36.6 38.96 36.84 38.99 36.95 39 36.92 39.84 36.7 39.89 36.84 39.03 37.05 39.08 37.17 39.08 37.13 39.92 36.92 39.98 37.07 39.12 37.28 39.18 37.43 39.17 37.36 40.01 37.16 40.06 37.31 39.22 37.54 39.26 37.63 39.76 37.41 40.09 37.4 40.14 37.54 39.31 37.75 39.34 37.83 40.16 37.63 40.22 37.76 39.4 37.98 39.44 38.07 40.25 37.85 40.3 38 40.38 37.97 40.33 37.83 41.1 37.5 41.05 37.36 41.06 37.42 40.51 37.59 40.3 37.73 40.26 37.6 41.02 37.27 40.98 37.15 40.98 37.19 40.22 37.5 40.17 37.36 40.94 37.07 40.9 36.95 40.9 36.98 40.9 36.98 40.14 37.28 40.09 37.15 40.84 36.82 40.87 36.88 40.84 36.75 40.27 36.91 40.06 37.05 40.04 36.86 40.77 36.59 40.75 36.5 40.75 36.5 40.37 36.58 39.97 36.8 39.94 36.71 40.71 36.4 40.68 36.32 39.91 36.63 39.85 36.48 40.62 36.14 40.57 35.99 40.29 36.04 40.56 36.01 40.58 36.06 39.84 36.37 39.79 36.37 39.42 36.36 39.66 36.37 39.74 36.39 39.51 36.4 38.87 36.64 38.91 36.72 39.68 36.48 39.76 36.49"/>
  <path class="cls-12" d="M41.61,35.98l-.71,.56v.04s.46,1.27,.46,1.27l-.11,.15-.54,.09-.07,.19,.06,.34,.92-.21v-2.43Z"/>
  <polygon class="cls-2" points="40.58 36.06 40.56 36.01 40.29 36.04 39.87 36.28 39.79 36.37 39.84 36.37 40.58 36.06"/>
  <path class="cls-12" d="M38.03,38.47l1.23,.34,.05-.17-.06-.37-.58-1.5,.03-.2-.66-.53c0,.81,0,1.62,0,2.43Z"/>
  <polygon class="cls-2" points="39.85 36.48 39.91 36.63 40.68 36.32 40.62 36.14 39.85 36.48"/>
  <polygon class="cls-2" points="39.74 36.39 39.66 36.37 39.42 36.36 39.17 36.43 38.89 36.58 38.87 36.64 39.51 36.4 39.74 36.39"/>
  <polygon class="cls-2" points="39.94 36.71 39.97 36.8 40.37 36.58 40.75 36.5 40.71 36.4 39.94 36.71"/>
  <polygon class="cls-2" points="38.92 36.75 38.96 36.84 39.81 36.6 39.76 36.49 39.68 36.48 38.91 36.72 38.91 36.73 38.92 36.75"/>
  <polygon class="cls-2" points="40.06 37.05 40.27 36.91 40.84 36.75 40.77 36.59 40.04 36.86 40.06 37.05"/>
  <polygon class="cls-2" points="39.84 36.7 39 36.92 38.99 36.95 39.03 37.05 39.89 36.84 39.84 36.7"/>
  <polygon class="cls-2" points="40.09 37.15 40.14 37.28 40.9 36.98 40.9 36.95 40.87 36.88 40.84 36.82 40.09 37.15"/>
  <polygon class="cls-2" points="39.92 36.92 39.08 37.13 39.08 37.17 39.12 37.28 39.98 37.07 39.92 36.92"/>
  <polygon class="cls-2" points="40.22 37.5 40.98 37.19 40.98 37.15 40.94 37.07 40.17 37.36 40.22 37.5"/>
  <polygon class="cls-2" points="40.06 37.31 40.01 37.16 39.17 37.36 39.18 37.43 39.22 37.54 40.06 37.31"/>
  <path class="cls-2" d="M34.72,38.99h1v-1.76h-1v1.76Z"/>
  <path class="cls-2" d="M43.92,37.22v1.76h.93s.02-.02,.02-.02v-1.74h-.94Z"/>
  <polygon class="cls-2" points="40.3 37.73 40.51 37.59 41.06 37.42 41.05 37.36 41.02 37.27 40.26 37.6 40.3 37.73"/>
  <polygon class="cls-2" points="40.14 37.54 40.09 37.4 39.76 37.41 39.26 37.63 39.31 37.75 40.14 37.54"/>
  <polygon class="cls-2" points="40.38 37.97 40.79 37.78 41.17 37.73 41.1 37.5 40.33 37.83 40.38 37.97"/>
  <polygon class="cls-2" points="40.22 37.76 40.16 37.63 39.34 37.83 39.4 37.98 40.22 37.76"/>
  <polygon class="cls-2" points="39.44 38.07 39.48 38.2 39.94 38.02 40.3 38 40.25 37.85 39.44 38.07"/>
  <polygon class="cls-12" points="40.03 38.44 40.43 38.85 40.58 38.48 40.42 38.24 40.3 38.29 39.92 38.3 39.46 38.48 39.42 38.53 40.03 38.44"/>
  <path class="cls-3" d="M39.17,40.75c.01-.75,.26-1.5,.67-2.14v-.07s-.3,.09-.3,.09l-.08,.12-.58,1.15-.24,.9,.18,.81,.4,.66-.04-1.52Z"/>
  <path class="cls-12" d="M39.76,38.87l-.15,1.18,.14,1.24c.07,.68,.11,1.36,.05,2.03l.11-.21,.32-.79,.02-.61-.12-1.45v-.39s.16-.89,.16-.89l-.05-.14-.4-.3v.07s-.09,.26-.09,.26Z"/>
  <path class="cls-2" d="M39.75,41.29l-.14-1.24,.15-1.18,.08-.26c-.41,.64-.66,1.39-.67,2.14l.04,1.52,.26,.45,.33,.65v-.03c.07-.67,.02-1.36-.05-2.03Z"/>
  <polygon class="cls-12" points="42.7 38.97 42.55 40.14 42.03 40.89 40.98 41.11 41.03 41.36 41.97 41.5 42.7 41.32 43.47 40.66 43.78 39.76 43.78 39.06 43.77 38.66 43.34 38.9 42.7 38.97"/>
  <polygon class="cls-12" points="37.1 40.26 36.94 39.03 36.27 38.96 35.87 38.73 35.87 39.85 36.52 41.11 37.46 41.55 38.11 41.52 38.6 41.42 38.54 41.17 37.61 40.96 37.1 40.26"/>
  <path class="cls-12" d="M38.79,43.54v-1.64l-.16-.34-.9,.14-.93-.23-.82-.78-.26-.79v-.82h-1c0,.32,0,.65,0,.97l.1-.02,.04,.08-.13,.12c0,.59,0,1.18,0,1.77l.03,.19,.28-.24,.09,.17,.25,.66,.39-.47,.23,.47,.08,.43-.04,.16,.14,.05h.57l-.1-.28,.1-.05,.44,.34h.56l.27-.57,.3,.59h.04s.44,.11,.44,.11Z"/>
  <path class="cls-3" d="M43.92,39.68l-.11,.63-.96,1.1-.91,.22-.91-.13-.1,.05-.13-.04,.05,.38,.1,.47h-.16v1.17l.29-.08,.65-.03v-.29s.22,.04,.22,.04l.19,.25h.09s.15-.36,.15-.36l.14,.02v.35h.16s.21-.44,.21-.44l.14,.04-.06,.41h.19s.23-.31,.23-.31v.32s.09,0,.09,0l.08-.03,.12-.32,.15,.02,.11,.17,.19-.06,.13-.46,.15-.14,.15,.14c0-.6-.03-1.2,0-1.8l.03-.27,.1-.09,.2,.06v-1.52h-.04s-.02-.07-.02-.07h-.88v.6Z"/>
  <polygon class="cls-3" points="41.57 40.08 41.69 39.88 41.66 39.29 41.21 39.27 40.89 39.36 40.5 39.54 40.49 39.54 40.7 40.18 41.21 40.23 41.57 40.08"/>
  <polygon class="cls-3" points="38.91 39.49 38.35 39.34 37.98 39.36 37.96 39.92 38.04 40.12 38.6 40.28 38.91 39.49"/>
  <polygon class="cls-12" points="40.63 40.43 40.5 39.97 40.33 39.47 40.31 39.6 40.61 40.64 40.7 41.23 40.89 41.41 40.84 41.1 40.63 40.43"/>
  <polygon class="cls-12" points="40.28 39.92 40.36 41.29 40.41 42.21 40.77 42.22 40.48 40.72 40.28 39.92"/>
  <polygon class="cls-2" points="40.17 42.89 39.79 43.65 39.22 42.53 38.97 42.15 38.89 42.04 38.88 43.52 38.91 43.59 39.79 44.29 40.7 43.57 40.7 42.35 40.38 42.35 40.17 42.89"/>
  <path class="cls-7" d="M48.87,33.86l-.11,.05h-.01s-.06,.08-.06,.08l-.08,.1-.02,.04-.04,.08-.07,.15-.13,.28v-.21s0-.03,0-.03v-.23s.03-.46,.03-.46v-.04s.01-.22,.01-.22l-.19,.04-.07,.13-.05,.09v.02s-.08,.23-.08,.23l-.04,.14-.03,.11-.08-.39-.04-.18-.02-.12v-.02s-.05-.16-.05-.16l-.04-.23h0l-.12,.33-.08,.24-.2,.57-.05,.06-.38-.79-.13,.02,.03,.89-.24-.42-.39-.55-.12,.05,.15,.72,.38,1.16-.63-.82-.11,.04,.11,.67-.18,.03-.19,.19-.33,.52,.1,.08,.46-.34,.22,.23,.35,.57-.1-.07v.22s-.33-.64-.33-.64l-.12,.03-.02,.6-.24-.31,.17,.85,.02,.37-.26-.48-.13,.04,.17,.96-.17-.15-.19,.15-.16,.46-.09,.25-.05,.09-.02,.03-.05,.08h0s.02,.08,.02,.08h.04s.08-.03,.08-.03l.07-.1,.04-.06,.23-.23,.32,.84-.33-.48-.13,.06,.16,.71,.13,.73-.24-.77-.13,.02v.89h-.04s-.14-.05-.14-.05l-.2-.06-.1,.09-.03,.27c-.03,.6,0,1.19,0,1.8l-.15-.14-.15,.14-.13,.46-.05,.19v.05s-.04-.04-.04-.04l-.09-.15-.11-.17-.15-.02-.12,.32-.06,.16-.09,.23v-.23s0-.13,0-.13v-.32s-.23,.32-.23,.32l-.09,.13-.15,.21,.03-.21,.02-.13,.06-.41-.14-.04-.21,.45-.06,.13-.09,.2v-.69l-.14-.02-.15,.36-.03,.07-.06-.07-.19-.25-.21-.04v.29s0,.13,0,.13v.77s-.23,.54-.23,.54h0s.08,.01,.12,.01l.29-1.07-.02-.52,.29,.42-.02,.27-.17,.43,.11,.07,.17-.35,.05-.51,.07-.22v.5s0,.19,0,.19l-.14,.28-.38,.43-.08,.08c.05,0,.11,.01,.16,.02l.45-.5,.19-.48,.21-.42-.05,.48-.14,.34-.49,.6s.09,0,.14,.01l.63-.88,.35-.51v.45s-.08,.25-.08,.25l-.17,.33-.13,.17,.07,.1,.47-.8,.36-.79,.06,.15-.59,1.45-.17,.15s.05,0,.08,0c.03,0,.07,.01,.1,.02l.04-.03,.66-1.43,.15,.03,.09-.12,.15-.56v-.06s.02,0,.02,0l.03-.11,.06,.09-.09,.02-.02,.06-.02,.38c-.09,.65-.34,1.29-.77,1.8,.05,0,.1,.02,.14,.03,.51-.6,.75-1.38,.81-2.16l.03,.34-.24,1.28-.42,.58s.1,.02,.14,.03l.37-.47,.26-1.33,.04-.29v-.65l.13,.44,.18,1.25h.13s-.03-.57-.03-.57l-.3-1.26-.11,.03,.02-1.6,.34,.1,.25,.5,.1,1.39-.03,.54-.41-1.47-.11,.06c.29,.58,.42,1.24,.4,1.89h.13s.01-.07,.01-.07h.09s.07-1.61,.07-1.61l-.2-1.07-.13-.29v-.42s.28,.81,.28,.81l.1,.09,.15,1.36h.14s.02-.51,.02-.51l-.22-1.01-.05-.32-.11-.78-.13-.52,.27,.38,.11,.21c.23,.56,.42,1.17,.36,1.8l.12,.02,.02-.3-.29-1.34-.09-.27-.23-.8-.18-.44-.11-.13-.17,.08,.2-.51,.3,.58c.41,.69,.64,1.49,.73,2.29h.13s-.15-.91-.15-.91l-.46-1.22-.15-.32-.17-.96,.21,.39,.48,1.16,.21,1.06h.14s-.04-.28-.04-.28c-.1-.71-.32-1.42-.69-2.04v-.13s-.04-.57-.04-.57l-.07-.27,.24,.38,.5,1.23,.1,1.06,.13,.03-.03-.8c-.12-.68-.42-1.33-.77-1.92l-.04-.16v-.34s.21,.37,.21,.37l.39,.78c.31,.79,.47,1.68,.28,2.53l.14,.03,.09-.82c-.01-.8-.24-1.58-.6-2.29l-.02-.21,.14,.09,.09-.07-.47-.85-.25-.28h-.28s.19-.24,.19-.24l.21,.04,.96,1.23,.17,.88,.12,.04v-.53l-.39-.83-.76-.89-.06-.1-.07-.38,.5,.64,.18,.2h.1s.01-.14,.01-.14l-.42-1.18-.1-.56,.49,.78,.08,.25c.19,.71,.34,1.42,.48,2.15l.24,.05,.21-.88h.07s.46-1.15,.46-1.15l.4-.81,.1-.18,.2-.12-.16,.37-.43,.99-.21,.58c-.27,.65-.55,1.3-.83,1.95l-.06,.24,.12,.03,.06-.19,.52-1.23,.07-.09,.59-.48-.03,.21,.1,.06,.21-.1-.62,.73c-.42,.63-.76,1.31-1.12,1.98l.12,.05,.11-.2,.6-1.11,.57-.9,.45-.14-.41,.51-.15,.28c-.38,.63-.82,1.23-1.23,1.83l.1,.08c.41-.58,.82-1.16,1.19-1.75l.15-.25,.24-.15,.36-.17,.24,.02-.37,.05-.16,.14-.47,.68-.06,.22,.12,.03,.31-.23-.1,.23-.22,.17-.89,.9-.67,.8,.11,.08,1.37-1.54,.88-.6-.15,.17-.78,.8,.09,.09,.56-.4,.41-.23,.15,.1,.35,.35-.52-.23-.18,.02-.47,.53-.64,.87-.18,.14-1.33,.89,.07,.1,1.45-.95,.87-.43,.19-.04,.14,.16,.19,.47-.46-.19-.19,.03-1.01,.56-.75,.47-.66,.59,.09,.09,1.05-.86,.33-.15,.9-.17,.97-.11-.18,.14-.92,.33-.64,.18-1.6,.98,.08,.1,1.5-.93,.8-.2,.54,.05-.55,.18-.86,.33-.39,.2-.09,.05-1.28,.64,.07,.11,.68-.39,.82-.29,.57-.03,.78,.06-.82,.12-.27,.11-.35-.04-.71,.28-.98,.58,.06,.12,1.33-.74,.49-.12v.05s.82,.09,.82,.09l-.26,.06v.12s.09,.05,.09,.05l.57,.19,.25,.12-.8-.13-.45,.02h-.41s-.67,.22-.67,.22l-1.5,.88,.09,.11,1.45-.86,.78-.23,.28,.06,.36,.12-.6-.04,.2,.15,.56,.36-.45-.04-.37-.12-1.17-.02v.14s1.14,.02,1.14,.02l.22,.12,.45,.34-.56-.09h-.41s.31,.24,.31,.24l.41,.46-.67-.23-.18-.04-.15-.12-.37-.1h-.7s0,.12,0,.12l.88,.05,.19,.13,.28,.31-.36-.06-.41-.14-1.23-.41-.85-.19v.13s.38,.08,.38,.08c.65,.15,1.27,.38,1.87,.61l.11,.08,.2,.29-.48-.15-.05,.13,.24,.18,.03,.11-.13,.51-.21-.53-.23-.22-.35-.12c-.61-.14-1.23-.23-1.86-.28v.14s1.57,.21,1.57,.21l.14,.08,.37,.28-.63-.06-.04,.13,.46,.24-.43-.03,.02,.14s.07,0,.1,0l.57,.04,.04-.14-.35-.21,.59,.06,.13,.33,.07,.05h.12s.14-.42,.14-.42v-.4l.51,.17-.38-.56,.72,.14-.41-.44,.52,.18,.46,.13-.27-.47-.33-.31,.87,.16,.05-.12-.58-.43,.85,.09-.39-.32-.37-.22,.47,.03-.11-.19-.31-.17,.76,.1,.58,.12,.05-.13-.51-.31-.51-.18,.54-.09v-.14l-1-.11,1.37-.2v-.13l-1.05-.13-.67,.02,1.03-.39,.79-.25-.02-.13-.45-.05,.37-.2,.77-.53v-.11s-.1,0-.1,0l-.52,.21-.16,.02,.03-.22-.23-.5-.2-.19-.24,.05-.65,.31,.53-.7,.47-.54,.87,.39,.07-.11-.59-.61-.21-.15-.18,.04-.27,.16,.76-.8-.08-.1-.78,.46,.15-.39-.11-.06-.37,.36,.45-.66,.17-.06,.63-.05v-.13s-.59-.15-.59-.15l-.43,.16,.43-.53-.09-.11-.51,.22,.77-.72-.08-.12-.67,.39,.12-.35-.11-.08-.55,.54,.84-.85,.48,.18,.17-.04-.03-.18-.31-.39-.26-.14-.28,.11-.32,.31,.4-.9,.1-.24,.08-.2,.12-.29-.2,.1-.14,.07-.06,.03Zm-1.41,3.08l-.07-.27c-.12-.65-.27-1.29-.43-1.92l-.03-.84,.26,.56,.1,.23,.32,1.06,.02,.52-.16,.65Zm.68-1.89l-.12,.4-.25,.57-.42-1.47,.31-.89,.12,.52h-.05s.05,1.14,.05,1.14l.12-.07-.05-.74,.05,.22,.26-.79,.09-.28-.03,.76-.08,.62Zm-1.83,10.44l.42,.34-.42-.34Zm2.76-4.85l-.69,.12,.77-.41,.57,.21-.65,.09Zm-.04-5.6l.16-.03,.24,.21,.17,.26-.47-.17-.2,.09-.64,.64,.13-.34,.08-.17,.54-.48Z"/>
  <path class="cls-7" d="M40.59,46.65h.19s.39-.34,.39-.34c-.07,0-.14,0-.21,0l-.36,.35Z"/>
  <path class="cls-7" d="M34.45,45.25l.43-.38,.06-.12h-.29l-.76,.03-.46,.48-.21,.11-.75,.13-.26,.09-.4,.32-.04-.4,.16-.3h-.71s.11-.21,.11-.21l.23-.3,.35-.25,.6-.17-.13-.08h.71s.32,.07,.32,.07l-.38-.15h-.79l-.14-.04,.47-.16,.3-.05,.19,.1,.28-.27-.28-.3-.21,.13-.09-.14v-.5s-.07,0-.07,0v.35s-.47,.55-.47,.55l-.19,.08-.83,.1-.55,.31-.04-.4,.13-.24-.32,.02,.09-.4,.18-.35,.05,.04,.57-.25,.45-.03,.57-.35-.07-.05-.55,.33-.43,.02-.56,.23v-.08s-.28-.27-.28-.27l-.12-.24,1.14,.3,.04-.07-1.21-.32-.05-.13h.54s.83,.24,.83,.24l-.24-.51,.34,.12,.34,.41,.08-.03-.27-.39-.02-.17-.18-.49-.04-.33-.21-.17-.13-.19-.06-.1,.02-.37h-.09l-.03,.4-.16-.09-.19-.36-.09-.19v-.2l-.1-.39-.19-.16v-.26s-.26-.35-.26-.35l-.19-.16v.05s-.01,.04-.01,.04l.34,.4,.04,.23-.29-.06-.1-.5v-.07s0,0,0,0v-.03s.03-.32,.03-.32l.22,.25,.26,.12,.25,.22,.04-.2,.32,.43,.2,.23-.06,.66,.09,.03,.09-.61-.23-.35,.07-.34,.19-.14,.29,.87v.25l-.05,.93,.06,.33,.34,.69,.09-.02v-.65l-.19-.78,.04-.46,.2,.28,.31,.47,.29-.53-.49-.44-.17-.26-.13-.61-.46-.26-.22-.24-.38-.61,.84,.69,.06,.04,.07-.04-1.07-.9h.19s-.21-.53-.21-.53v-.44s.14,.23,.14,.23l.43,.41,.19,.22,.06,.26,.07,.02-.23-.54-.5-.48-.11-.26-.06-.05,.34,.25,.14,.17,.21,.02,.07,.26,.22,.11,.17,.3,.07,.49-.45-.18-.56-.25,.03,.08,.29,.16,.49,.2,.21,.12,.29,.19,.27-.18,.03-.32-.37-.47-.05-.26,.05-.99,.46,.24-.07,.73-.26-.85-.06,.06,.28,.93,.04,.33h.08s.06-1.11,.06-1.11l.05-.13,.31-.38,.16-.51,.22,.6,.03,.11-.18,1.08-.5,.61-.17,.25v.33l-.21-.02-.19,.24,.22,.32,.21-.06,.04,.19,.09,.15,.04,.58h.09s-.04-.59-.04-.59l.19-.05,.11-.25-.06-.21,.54-.48,.02,.04-.11,.2-.39,1.36h.08s.44-1.43,.44-1.43l.09,.6,.49-.17,.16-.02-.25,.36-.56,.64,.06,.06,.17-.16,.66-.85-.12,.26-.3,.59-.19,.28-.59,.29-.13,.09-.38,.45,.23-.37,.74-.91-.07-.05-1.04,1.41,.03,.06-.21,.28-.13,.5-.19,.24,.27,.34,.24-.39-.18-.19,.2-.44,.16-.19,.4-.4-.3,.68-.25,.43h.08s.2-.29,.2-.29l.36-.8,.08,.37,.66-.35,.56-.13-.3,.31-.07,.24-.12,.46-.13,.16-.67,.42-.06-.03v.07s-.31,.2-.31,.2l-.11,.35,.09,.28-.03,.13,.03,.42h.08s-.02-.32-.02-.32v-.21s.26-.37,.26-.37l.11-.33,.25,.32,.04,.7-.03,.9,.24,.33,.07,.24,.33,.08,.02-.23-.16,.17-.03-.38,.2,.15v-.19s-.23-.05-.23-.05l-.2-.61,.02-.4,.31-.59,.14-.42,.31,.47,.32-.33,.13,.28,.22,.6,.41-.51,.19,.51v.37s-.43,.62-.43,.62l-.44,.22,.77,.21,.16,.04-.62,.21v.08s.92,.06,.92,.06l.15,.14,.27-.08-.04-.17-.19,.17v-.38s.18,.15,.18,.15l-.06-.25-.27,.07-.02-.19-.16-.42,.21,.12,.83,.69,.05-.07-.21-.2-.83-.63-.07,.05-.02-.09,.4,.08h.33s.07-.1,.07-.1l-.19-.48,.77,.58,.15,.05,.35-.79,.29,.56,.06,.39-.04,.45-.19,.36h0s.02,0,.03,0h.08s0-.02,0-.02l.2-.45v-.37s-.06-.34-.06-.34v-.06s-.07-.11-.07-.11l-.3-.59-.27,.57-.07,.14-.08,.17-.23-.17-.18-.14-.44-.34-.1,.05,.1,.28,.05,.14,.05,.14h-.38s-.44-.12-.44-.12l.14,.52,.08,.3-.03,.04-.43-.15-.47-.13,.35-.21,.31-.46,.03-.05,.02-.07,.04-.16-.08-.43-.23-.47-.39,.47-.25-.66-.09-.17-.28,.24-.05,.04-.1-.13-.29-.39-.19,.67-.31,.66-.04-.73-.07-.18-.27-.32,.66-.42,.16-.2,.14-.62,.07-.13,.12-.11,.14-.13,.13-.12-.04-.08-.1,.02-.14,.03-.54,.12-.55,.29-.1-.51-.65,.67-.25,.41,.11-.27,.61-.73,.16-.17,.58-.28,.16-.13,.35-.73,.12-.22,.09-.17-.09-.03-.26-.07-.41,.15-.15-.81-.63,.54,.03-.36,.04-.09,.96-.95,.08-.31v-1.08l.05-.25,.12-.36-.48,.27-.22,.12-.2,.23-.26-.74-.16,.65-.38,.53-.54-.29,.3-.18,.08-.1,.18-.38,.09-.11,.39-.18-.28-.18-.4-.05-.06-.54-.21-.39-.55,.8-.04-.06-.09-.14-.07-.11-.07-.11-.07,.1-.33,.49-.19,.45,.02,.33,.26,.78-.04,.16-.17-.15-.2-.18-.03,.74,.17,.51h-.2l.6,.99,.2,.23-.31,.16-.08,.34-.4-.53-.04,.25-.24-.16-.14-.06-.31-.41-.09,.66,.09,.42h-.5v.09s.17,.15,.17,.15l.12,.27,.31,.91,.24,.32,.87,.32,.14,.34,.31-.05,.16,.46-.45-.24-.09,.07,.09,.3,.1,.27-.57-.15h-.7l.15,.45,.36,.39-.22,.46-.11,.5,.28-.03-.06,.2,.1,.52,.37-.33,.19-.07,1-.14,.21-.16,.28-.38,.15,.25v.15s-.39,.07-.39,.07l-.54,.23,.38,.18-.63,.24-.35,.38-.23,.36v.08s.7,0,.7,0l-.1,.29,.08,.51,.47-.41,.23-.1,.77-.14,.19-.06,.53-.52,.85-.03-.42,.38-.09,.21,.11-.03,.06-.14Zm-1.21-1.64l-.21,.24-.03-.38,.24,.14Zm-.75-5.22v-.38s.22,.18,.22,.18l-.22,.2Zm.73,3.82l-.21,.3v-.4l.08-.11,.23-.14-.1,.34Zm3.04,2.21v.23s-.13,0-.13,0l-.52-.03,.65-.2Zm-2.47-1.23l.24,.81-.07,.08-.2-.23-.03-.29,.05-.37Zm-1.18-1.65l-.2,.21-.03-.38,.23,.17Zm.4-2.9l-.21-.12,.12-.28,.19,.12-.1,.27Zm1.15-2.24l-.08,.3-.95,.93-.06,.11-.04,.43h-.18s.06-.4,.06-.4l.56-.65,.18-.24,.23-.74,.06-.45,.21-.36v1.08Zm-.26-1.29l.35-.17-.11,.26-.32,.75-.23,.88-.21,.26-.52,.59-.1,.27,.06-.47,.56-.66,.22-1.1-.07-.25,.37-.36Zm-2.59,1.18v-.39s.21,.2,.21,.2l-.21,.2Zm.26,.26l.09-.3,.2,.09-.08,.29-.21-.08Zm.94,.87v.18l-.19,.18-.23-.14-.09-.61-.15-.32,.11-.36-.27-.2,.13-.37,.31-.23-.04,1.15,.05,.23,.37,.49Zm0-2.28l-.11,.14-.6,.39,.12-.25,.44-.59,.36-.11-.2,.42Zm-.02-.7h.35s.19,.09,.19,.09l-.28,.1-.47,.14-.55,.86-.02,.07,.03,.03-.12,.35,.09-.38h-.02s.03-.07,.03-.07l.11-.47,.12-.25,.53-.48Zm-.18-.76l.14,.34v.35s-.53,.46-.53,.46v-.15s.32-1.09,.32-1.09l.08,.09Zm-.2,.09l-.24,.81-.09-.23h-.06s.39-.58,.39-.58Zm-1.14,1.38l-.02-.33,.19-.43,.3-.45,.22,.34,.07,.14,.12,.42-.1,.33-.19,.7-.16-.06-.18,.04-.25-.7Zm.93,3.32l.12,.58,.15,.22,.5,.47-.18,.31h-.02l-.26-.34-.3-.47-.07,.53,.04,.28,.15,.5v.64l-.31-.66,.04-.87,.02-.48-.24-.66-.07-.3,.43,.24Zm-.73,2.38l-.85-.3-.22-.31-.36-1.07,.24,.17,.23,.31,.08,.32,.13,.23,.34,.32,.06-.07-.38-.37-.16-.47-.26-.35-.35-.2-.09-.08h.38s.01,.07,.01,.07l.51,.22,.1,.5,.08,.24,.23,.43,.28,.13,.13,.16-.14,.12Zm.19,.36l-.03-.39,.24,.18-.21,.21Zm-.06,.33l.37,.2-.33-.09-.04-.11Z"/>
  <path class="cls-7" d="M38.79,46.41l-.11-.1s-.08,0-.13,0l.17,.17,.2,.21,.14,.02-.29-.3Z"/>
  <path class="cls-7" d="M39.88,46.73l-.06-.11,.3-.33c-.06,0-.12,0-.18,0l-.23,.24-.22-.24s-.07,0-.11,0l.38,.42h.11Z"/>
  <polygon class="cls-8" points="31.92 34.83 32.45 34.37 32.45 34.02 32.31 33.68 32.24 33.59 31.91 34.68 31.92 34.83"/>
  <polygon class="cls-8" points="48.24 33.67 48.16 33.95 47.9 34.74 47.85 34.52 47.9 35.26 47.78 35.33 47.73 34.2 47.78 34.19 47.66 33.67 47.35 34.55 47.77 36.02 48.01 35.45 48.14 35.05 48.21 34.43 48.24 33.67"/>
  <polygon class="cls-8" points="31.88 34.58 32.12 33.77 31.73 34.34 31.79 34.35 31.88 34.58"/>
  <path class="cls-8" d="M44.32,42.95l-.15,.56-.09,.12-.15-.03-.66,1.43-.04,.03c.1,.02,.2,.04,.3,.06,.43-.5,.68-1.15,.77-1.8l.02-.38Z"/>
  <path class="cls-8" d="M42.23,44.39l.14-.28v-.7s-.08,.22-.08,.22l-.05,.51-.17,.35-.11-.07,.17-.43,.02-.27-.29-.42,.02,.52-.29,1.07c.06,0,.11,.01,.17,.02l.08-.08,.38-.43Z"/>
  <path class="cls-8" d="M42.73,44.01l.05-.48-.21,.42-.19,.48-.45,.5c.06,0,.12,.01,.17,.02l.49-.6,.14-.34Z"/>
  <path class="cls-8" d="M45.76,45.82l.04-.13,.63,.06-.37-.28-.14-.08-1.58-.21v-.14c.64,.05,1.26,.14,1.87,.28l.35,.12,.23,.22,.21,.53,.13-.51-.03-.11-.24-.18,.05-.13,.48,.15-.2-.29-.11-.08c-.6-.22-1.22-.45-1.87-.61l-.38-.08v-.13s.85,.19,.85,.19l1.23,.41,.41,.14,.36,.06-.28-.31-.19-.13-.88-.05v-.14s.69,.01,.69,.01l.37,.1,.15,.12,.18,.04,.67,.23-.41-.46-.31-.25h.41s.56,.1,.56,.1l-.45-.34-.22-.12-1.14-.02v-.14s1.16,.02,1.16,.02l.37,.12,.45,.04-.56-.36-.2-.15,.6,.04-.36-.12-.28-.06-.78,.23-1.45,.86-.09-.11,1.5-.88,.67-.22h.41s.45-.03,.45-.03l.8,.13-.25-.12-.57-.19-.1-.05v-.12s.28-.06,.28-.06l-.83-.09v-.05s-.48,.12-.48,.12l-1.33,.74-.06-.12,.98-.58,.71-.28,.35,.04,.27-.11,.82-.12-.78-.06-.57,.03-.82,.29-.68,.39-.07-.11,1.28-.64,.09-.05,.39-.2,.86-.33,.55-.18-.54-.05-.8,.2-1.5,.93-.08-.1,1.6-.98,.64-.18,.92-.33,.18-.14-.97,.11-.9,.17-.33,.15-1.05,.86-.09-.09,.66-.59,.75-.47,1.01-.56,.19-.03,.46,.19-.19-.47-.14-.16-.19,.04-.87,.43-1.45,.95-.07-.1,1.33-.89,.18-.14,.64-.87,.47-.53,.18-.02,.52,.23-.35-.35-.15-.1-.41,.23-.56,.4-.09-.09,.78-.8,.15-.17-.88,.6-1.37,1.54-.11-.08,.67-.8,.89-.9,.22-.17,.1-.23-.31,.23-.12-.03,.06-.22,.47-.68,.16-.14,.37-.05-.24-.02-.36,.17-.24,.15-.15,.25c-.37,.59-.78,1.18-1.19,1.75l-.1-.08c.42-.6,.85-1.19,1.23-1.83l.15-.28,.41-.51-.45,.14-.57,.9-.6,1.11-.11,.2-.12-.05c.36-.68,.7-1.35,1.12-1.98l.62-.73-.21,.1-.1-.06,.03-.21-.59,.48-.07,.09-.52,1.23-.06,.19-.12-.03,.06-.24c.28-.65,.56-1.3,.83-1.95l.21-.58,.43-.99,.16-.37-.2,.12-.1,.18-.4,.81-.46,1.15h-.07s-.21,.89-.21,.89l-.24-.05c-.14-.72-.29-1.44-.48-2.15l-.08-.25-.49-.78,.1,.56,.42,1.18v.15s-.11,0-.11,0l-.18-.2-.5-.64,.07,.38,.06,.1,.76,.89,.39,.83v.53l-.12-.04-.17-.88-.96-1.23-.21-.04-.19,.23h.28s.25,.28,.25,.28l.47,.85-.09,.07-.14-.09,.02,.21c.36,.71,.58,1.49,.6,2.29l-.09,.82-.14-.03c.19-.85,.03-1.74-.28-2.53l-.39-.78-.2-.37v.34s.03,.16,.03,.16c.35,.59,.65,1.24,.77,1.92l.03,.8-.13-.03-.1-1.06-.5-1.23-.24-.38,.07,.27,.02,.57v.13c.38,.63,.6,1.33,.7,2.04l.04,.27h-.14s-.21-1.05-.21-1.05l-.48-1.16-.21-.39,.17,.96,.15,.32,.46,1.22,.15,.91h-.13c-.09-.8-.31-1.6-.73-2.29l-.3-.58-.2,.51,.17-.08,.11,.13,.18,.44,.23,.8,.09,.27,.29,1.34-.02,.3-.12-.02c.06-.62-.13-1.23-.36-1.8l-.11-.21-.27-.38,.13,.52,.11,.78,.05,.32,.22,1.01-.02,.52h-.14s-.15-1.37-.15-1.37l-.1-.09-.27-.81v.42s.12,.29,.12,.29l.2,1.07-.07,1.61h-.09s-.01,.08-.01,.08h-.13c.01-.66-.11-1.32-.4-1.9l.11-.06,.41,1.47,.03-.54-.1-1.39-.25-.5-.34-.1-.02,1.6,.11-.03,.3,1.26,.03,.58h-.13s-.18-1.26-.18-1.26l-.13-.44v.65l-.04,.29-.26,1.33-.37,.47c.38,.08,.76,.18,1.12,.34l.67,.48h0s.43,.05,.43,.05l-.46-.24Zm.78-8.88l.14-.05,.44,1.17,.15,.79h-.13c-.07-.66-.32-1.31-.59-1.91Zm1.04,2.9l.66-.66,.24-.19,.06,.12-.17,.14-.57,.56-.87,.95-.04,.04-.1-.08,.79-.88Zm-1.42,2.27l.13,.03-.12,.74-.05,.37-.2,.62-.12-.05,.24-1.02-.36,.83-.12-.06,.61-1.47Zm-.57,2.62l1.19,.47-.06,.12-1.08-.44-1.08-.07-.08-.12,1.1,.04Z"/>
  <path class="cls-8" d="M43.8,43.43l-.06-.15-.36,.79-.47,.8-.07-.1,.13-.17,.17-.33,.09-.25v-.45s-.36,.51-.36,.51l-.63,.88c.26,.03,.53,.04,.79,.08l.17-.15,.59-1.45Z"/>
  <path class="cls-8" d="M44.51,43.32l-.03-.34c-.05,.77-.3,1.56-.81,2.16,.06,.01,.12,.02,.18,.03l.42-.58,.24-1.28Z"/>
  <path class="cls-8" d="M39.81,46.62l.06,.11,.29,.03,.43-.11,.36-.35c-.28,0-.56-.01-.84-.02l-.3,.33Z"/>
  <polygon class="cls-8" points="44.36 42.78 44.33 42.88 44.43 42.87 44.36 42.78"/>
  <polygon class="cls-8" points="44.32 42.89 44.32 42.95 44.33 42.88 44.32 42.89"/>
  <path class="cls-8" d="M47.28,34.71l-.1-.23-.26-.56,.03,.84c.16,.63,.31,1.28,.43,1.92l.07,.27,.16-.65-.02-.52-.32-1.06Z"/>
  <path class="cls-8" d="M31.4,35.81l.16,.06,.19-.7,.1-.33-.12-.42-.07-.14-.22-.34-.3,.45-.19,.43,.02,.33,.25,.7,.18-.04Zm.05-1.42l.02,.34,.07,.27-.07,.04-.11-.65h.09Z"/>
  <polygon class="cls-7" points="31.47 35.04 31.54 35 31.47 34.72 31.45 34.39 31.36 34.39 31.47 35.04"/>
  <polygon class="cls-8" points="31.72 35.7 31.74 35.64 31.7 35.69 31.72 35.7"/>
  <polygon class="cls-8" points="31.85 35.17 31.74 35.64 32.29 34.78 32.76 34.64 33.03 34.54 32.84 34.46 32.5 34.45 31.97 34.92 31.85 35.17"/>
  <polygon class="cls-8" points="31.76 35.73 31.72 35.7 31.63 36.08 31.76 35.73"/>
  <polygon class="cls-8" points="31.93 35.42 31.81 35.67 32.41 35.28 32.52 35.14 32.73 34.72 32.37 34.83 31.93 35.42"/>
  <polygon class="cls-8" points="33.39 36.84 32.83 37.5 32.77 37.96 32.87 37.69 33.39 37.1 33.6 36.84 33.83 35.96 34.16 35.21 34.27 34.95 33.92 35.12 33.55 35.48 33.62 35.73 33.39 36.84"/>
  <polygon class="cls-8" points="30.03 38.96 30.32 39.02 30.28 38.79 29.94 38.39 29.93 38.46 30.03 38.96"/>
  <path class="cls-8" d="M39.08,46.71l.26,.09,.42-.08-.38-.42c-.23,0-.46,0-.69,.01l.11,.1,.29,.3Z"/>
  <path class="cls-8" d="M38.33,44.43l.04-.45-.06-.39-.29-.56-.35,.79-.15-.05-.77-.58,.19,.48-.07,.09h-.33s-.4-.08-.4-.08l.02,.09,.07-.05,.83,.63,.21,.2-.05,.07-.83-.69-.21-.12,.16,.42,.02,.19,.27-.07,.06,.25,.04,.04-.03,.03,.04,.17-.27,.08-.15-.14-.91-.06v-.08s.62-.21,.62-.21l-.16-.04-.77-.21,.44-.22,.44-.62v-.37s-.2-.51-.2-.51l-.41,.51-.22-.6-.13-.28-.32,.33-.31-.47-.14,.42-.31,.59-.02,.4,.2,.61,.24,.05v.19s.02,.03,.02,.03l-.04,.04-.02,.23-.33-.08-.07-.24-.24-.33,.03-.9-.04-.7-.25-.32-.11,.33-.24,.37v.21s0,.33,0,.33h-.08s-.03-.43-.03-.43l.03-.13-.09-.28,.11-.35,.3-.2v-.07s.07,.03,.07,.03l.67-.42,.13-.16,.12-.46,.07-.24,.3-.31-.56,.13-.66,.35-.08-.37-.36,.8-.2,.29h-.08s.25-.43,.25-.43l.3-.68-.4,.4-.16,.19-.2,.44,.18,.19-.24,.39-.27-.34,.19-.24,.13-.5,.21-.28-.03-.06,1.04-1.41,.07,.05-.74,.91-.23,.37,.38-.45,.13-.09,.59-.29,.19-.28,.3-.59,.12-.26-.66,.85-.17,.16-.06-.06,.56-.64,.25-.36-.16,.02-.49,.17-.09-.6-.44,1.44h-.08s.39-1.36,.39-1.36l.11-.2-.02-.04-.54,.48,.06,.21-.11,.25-.19,.05,.04,.58h-.09s-.04-.58-.04-.58l-.09-.15-.04-.19-.21,.06-.22-.32,.19-.24,.21,.02v-.33l.17-.25,.5-.61,.18-1.08-.03-.11-.22-.6-.16,.51-.31,.38-.05,.13-.06,1.11h-.08s-.04-.32-.04-.32l-.28-.93,.06-.06,.26,.85,.07-.73-.46-.24-.05,.99,.05,.26,.37,.47-.03,.32-.27,.18-.29-.19-.21-.12-.49-.2-.29-.16-.03-.08,.56,.25,.45,.18-.07-.49-.17-.3-.22-.11-.07-.26-.21-.02-.14-.17-.34-.25,.06,.05,.11,.26,.5,.48,.23,.54-.07-.02-.06-.26-.19-.22-.43-.41-.15-.23v.44s.22,.52,.22,.52h-.19s1.07,.9,1.07,.9l-.07,.04-.06-.04-.84-.69,.38,.61,.22,.24,.46,.26,.13,.61,.17,.26,.49,.44-.29,.53-.31-.47-.2-.28-.04,.46,.19,.78v.65l-.09,.02-.34-.69-.06-.33,.05-.93v-.25l-.29-.87-.19,.14-.07,.34,.23,.35-.09,.61-.09-.03,.06-.66-.2-.23-.32-.43-.04,.2-.25-.22-.26-.12-.22-.25-.02,.32v-.05s.2,.16,.2,.16l.24,.35v.26s.2,.16,.2,.16l.1,.39v.2l.09,.19,.19,.36,.16,.09,.03-.4h.09l-.02,.37,.06,.1,.13,.19,.21,.17,.04,.33,.18,.49,.02,.17,.27,.39-.08,.03-.34-.41-.34-.12,.24,.51-.83-.24h-.54s.05,.13,.05,.13l1.21,.32-.04,.07-1.14-.3,.12,.24,.29,.27v.08s.54-.23,.54-.23l.43-.02,.55-.33,.07,.05-.57,.35-.45,.03-.57,.25-.05-.04-.18,.35-.09,.4,.32-.02-.13,.24,.04,.4,.55-.31,.83-.1,.19-.08,.46-.55v-.35h.09v.5s.07,.14,.07,.14l.21-.13,.28,.3-.28,.27-.19-.1-.3,.05-.47,.16,.14,.04h.79l.38,.15-.32-.05h-.71s.13,.07,.13,.07l-.6,.17-.35,.25-.23,.3-.11,.22h.71s-.16,.29-.16,.29l.04,.4,.4-.32,.26-.09,.75-.13,.21-.11,.46-.48,.76-.03h.29l-.06,.12-.43,.38-.06,.14,1.33-.37c.66-.11,1.33-.17,1.99-.2l.08-.64-.19-.3,.07-.04,.21,.39-.09,.58c.12,0,.23-.02,.35-.02h0s.19-.36,.19-.36Zm-5.13-8.76h.08s-.16,.95-.16,.95l-.11,.29-.07-.03,.27-1.22Zm-.66,3.4l-.27-.42,.02-.08,.34,.54-.1-.04Zm-1.63-.35l.14,.97-.08,.04-.15-1.02,.09,.02Zm-.25,4.74l-.07-.06,.25-.16,.5-.11,.56-.29,.04,.07-.54,.29-.56,.14-.18,.13Zm1.21,.16l-.19,.12-.61,.1v-.08l.49-.07,.19-.09,.39-.29,.04,.06-.31,.25Zm-.06-.37l-.26,.24-.56,.17-.02-.08,.53-.17,.29-.29,.69-.73v.09s-.67,.76-.67,.76Zm.93-1.19l-.09-.03,.4-.75,.27-.21,.03,.09-.1,.14,.11-.06,.96-.97,.07,.05-.77,.83-.46,.28-.43,.63Zm2.3,1.85l-.07-.04,.16-.61h.09l-.17,.64Zm-.11-.81h.08s-.02,.24-.02,.24h-.08s.02-.24,.02-.24Zm.42,.62v-.09s.15-.28,.15-.28h.09s-.24,.37-.24,.37Zm-.81,.15l.09-1.02h.08s-.09,1.15-.09,1.15l.28-.04,.03,.24,.04,.03-.03,.02,.02,.19-.35-.03-.08-.32,.03-.23Zm-.24-.33h-.09s.07-.51,.07-.51l.08,.02-.07,.48Zm.05-.69l.03-.46h.08s-.03,.47-.03,.47h-.08Zm-.83-.44v.59h-.08s-.01-.59-.01-.59h.09Zm-1.84,2.62v-.09s1.28-.25,1.28-.25l.09,.02-.09,.08-1.27,.24Zm1.12,.24l-.57,.13v-.09l1.03-.41,.28-.24,.05,.07-.78,.54Zm.69-.62l-1.05-.26,.03-.07,1.2,.25,1.49-.09v.09s-1.67,.08-1.67,.08Zm4.15-.31l-.07,.04-.63-.62,.04-.07,.66,.65Zm.34-.09l.09-.79h.09s-.1,.8-.1,.8h-.08Z"/>
  <polygon class="cls-8" points="29.94 38.39 29.94 38.35 29.93 38.38 29.94 38.39"/>
  <polygon class="cls-8" points="48.42 35.7 48.3 36.04 48.93 35.4 49.14 35.31 49.61 35.48 49.44 35.22 49.2 35.01 49.04 35.05 48.5 35.52 48.42 35.7"/>
  <polygon class="cls-8" points="33.91 36.14 33.68 36.89 33.49 37.12 32.93 37.78 32.87 38.18 33.05 38.18 33.09 37.75 33.14 37.64 34.1 36.71 34.17 36.41 34.17 35.33 33.96 35.69 33.91 36.14"/>
  <polygon class="cls-2" points="32.1 36.7 32.14 35.55 31.83 35.78 31.7 36.15 31.97 36.35 31.86 36.71 32.01 37.03 32.1 37.64 32.33 37.78 32.52 37.6 32.52 37.42 32.15 36.93 32.1 36.7"/>
  <polygon class="cls-7" points="33.11 36.62 33.28 35.67 33.2 35.67 32.93 36.89 33 36.92 33.11 36.62"/>
  <polygon class="cls-12" points="31.32 36.3 31.54 36.1 31.31 35.9 31.32 36.3"/>
  <polygon class="cls-12" points="31.67 36.25 31.59 36.55 31.79 36.64 31.88 36.34 31.67 36.25"/>
  <path class="cls-7" d="M47.26,38.86l-.15-.79-.44-1.17-.14,.05c.27,.61,.52,1.25,.59,1.92h.13Z"/>
  <polygon class="cls-12" points="32.5 38.39 32.72 38.19 32.48 38.01 32.5 38.39"/>
  <polygon class="cls-2" points="31.78 39.19 31.76 39.67 31.72 40.54 32.03 41.2 32.03 40.56 31.88 40.05 31.84 39.78 31.91 39.24 32.22 39.71 32.48 40.05 32.5 40.05 32.67 39.75 32.17 39.27 32.02 39.05 31.9 38.47 31.47 38.23 31.54 38.53 31.78 39.19"/>
  <polygon class="cls-12" points="32.81 38.53 33.02 38.65 33.12 38.38 32.93 38.26 32.81 38.53"/>
  <polygon class="cls-7" points="32.27 38.65 32.54 39.07 32.64 39.11 32.29 38.57 32.27 38.65"/>
  <polygon class="cls-7" points="31.04 39.68 30.9 38.72 30.82 38.7 30.96 39.72 31.04 39.68"/>
  <polygon class="cls-8" points="30.91 40.44 30.68 40.02 30.6 39.77 30.5 39.27 29.99 39.05 29.97 38.98 29.6 38.99 29.69 39.07 30.04 39.27 30.29 39.62 30.45 40.09 30.83 40.46 30.77 40.53 30.43 40.21 30.3 39.98 30.22 39.66 29.99 39.35 29.74 39.18 30.1 40.25 30.33 40.56 31.17 40.86 31.32 40.74 31.19 40.57 30.91 40.44"/>
  <polygon class="cls-7" points="46.88 40.8 46.92 40.76 47.8 39.81 48.37 39.25 48.54 39.11 48.48 38.99 48.24 39.18 47.57 39.84 46.78 40.72 46.88 40.8"/>
  <polygon class="cls-7" points="33.62 41.16 34.39 40.32 34.32 40.27 33.36 41.24 33.25 41.3 33.35 41.16 33.32 41.07 33.05 41.28 32.64 42.03 32.73 42.06 33.16 41.43 33.62 41.16"/>
  <polygon class="cls-12" points="31.36 41.22 31.57 41.01 31.33 40.83 31.36 41.22"/>
  <polygon class="cls-12" points="32.41 41.75 32.62 41.55 32.38 41.37 32.41 41.75"/>
  <polygon class="cls-8" points="31.3 41.55 31.34 41.66 31.67 41.75 31.3 41.55"/>
  <polygon class="cls-2" points="33.02 42.12 33.02 42.52 33.23 42.22 33.33 41.87 33.1 42.01 33.02 42.12"/>
  <polygon class="cls-7" points="46.02 42.8 45.78 43.83 45.9 43.88 46.11 43.26 46.16 42.88 46.28 42.14 46.15 42.11 45.54 43.58 45.66 43.63 46.02 42.8"/>
  <polygon class="cls-7" points="34.46 42.37 34.38 42.37 34.34 42.83 34.43 42.84 34.46 42.37"/>
  <polygon class="cls-7" points="31.78 43.13 31.49 43.42 30.95 43.59 30.97 43.67 31.54 43.49 31.8 43.25 32.48 42.49 32.47 42.4 31.78 43.13"/>
  <polygon class="cls-7" points="33.51 42.99 33.51 42.4 33.42 42.4 33.43 43.01 33.51 42.99"/>
  <polygon class="cls-7" points="31.93 42.9 31.89 42.83 31.34 43.12 30.84 43.23 30.59 43.39 30.66 43.46 30.83 43.33 31.39 43.18 31.93 42.9"/>
  <polygon class="cls-7" points="34.93 44.44 34.91 44.25 34.71 44.4 34.71 44.03 34.9 44.2 34.88 43.96 34.6 43.99 34.7 42.83 34.62 42.84 34.53 43.86 34.5 44.1 34.58 44.41 34.93 44.44"/>
  <polygon class="cls-7" points="34.21 43.53 34.29 43.53 34.36 43.04 34.28 43.02 34.21 43.53"/>
  <polygon class="cls-7" points="35 43.1 34.92 43.09 34.9 43.33 34.97 43.34 35 43.1"/>
  <polygon class="cls-2" points="33.97 44.09 34.04 44.01 33.79 43.2 33.74 43.57 33.77 43.86 33.97 44.09"/>
  <polygon class="cls-7" points="34.96 43.87 35.03 43.91 35.2 43.26 35.12 43.26 34.96 43.87"/>
  <polygon class="cls-7" points="31.74 43.59 31.55 43.68 31.06 43.75 31.06 43.83 31.67 43.73 31.86 43.62 32.17 43.36 32.14 43.3 31.74 43.59"/>
  <polygon class="cls-7" points="35.33 43.62 35.34 43.71 35.58 43.34 35.48 43.34 35.33 43.62"/>
  <polygon class="cls-12" points="33.24 43.61 33 43.48 33.03 43.86 33.24 43.61"/>
  <polygon class="cls-7" points="38.15 43.46 38.06 43.46 37.97 44.25 38.05 44.26 38.15 43.46"/>
  <polygon class="cls-7" points="36.93 43.76 37.56 44.38 37.64 44.34 36.97 43.69 36.93 43.76"/>
  <path class="cls-7" d="M37.67,43.83l-.07,.04,.19,.3-.08,.64s.06,0,.08,0l.09-.58-.21-.39Z"/>
  <polygon class="cls-12" points="34.71 44.4 34.91 44.25 34.94 44.23 34.9 44.2 34.71 44.03 34.71 44.4"/>
  <polygon class="cls-12" points="34.33 44.2 34.14 44.05 34.16 44.44 34.33 44.27 34.37 44.23 34.33 44.2"/>
  <polygon class="cls-7" points="33.67 44.57 32.47 44.32 32.44 44.39 33.49 44.65 35.17 44.57 35.16 44.48 33.67 44.57"/>
  <polygon class="cls-12" points="36.67 44.58 36.48 44.43 36.5 44.81 36.69 44.64 36.71 44.62 36.67 44.58"/>
  <polygon class="cls-2" points="36.14 44.66 36.27 44.66 36.27 44.43 35.62 44.63 36.14 44.66"/>
  <polygon class="cls-7" points="33.24 44.89 32.22 45.3 32.22 45.39 32.79 45.26 33.57 44.72 33.52 44.65 33.24 44.89"/>
  <polygon class="cls-7" points="45.63 44.88 46.71 45.32 46.77 45.2 45.58 44.73 44.48 44.69 44.55 44.81 45.63 44.88"/>
  <polygon class="cls-7" points="33.04 44.71 32.95 44.69 31.67 44.94 31.68 45.03 32.95 44.78 33.04 44.71"/>
  <line class="cls-6" x1="46.31" y1="45.49" x2="46.73" y2="45.83"/>
  <path class="cls-10" d="M40.17,46.76l-.29-.03h-.11s-.42,.07-.42,.07l-.26-.09-.14-.02-.62,.15-.77,.18,.19,.85,.58-.27,.02,.14h.02s.17,.06,.17,.06l.29,.05,.51-.1,.03-.03,.18,.04,.44-.03,.12,.04,.19,.05,.69-.07,.1-.03,.03-.17,.14,.04,.49,.24,.19-.85-.84-.19-.31-.13h-.19s-.43,.09-.43,.09Zm-2.33,.9l-.12-.57,.57-.12v.47s-.46,.21-.46,.21Zm.99,.05l-.38-.12,.35-.14,.42,.14,.04,.05-.42,.06Zm.43-.24l-.53-.15-.27,.08-.03-.47,.34-.11,.49,.11v.54Zm.77,.1h-.63s0-.64,0-.64l.32-.06,.31,.04v.65Zm1.12-.62l.62,.13-.12,.57-.53-.23,.03-.47Zm-.26,.7l-.52,.05-.2-.07,.07-.06,.35-.12,.38,.11-.07,.08Zm.12-.74l-.05,.47-.26-.08-.53,.15v-.55l.49-.11,.35,.11Z"/>
  <polygon class="cls-12" points="38.42 46.92 38.46 47.39 38.72 47.31 39.25 47.46 39.25 46.92 38.77 46.81 38.42 46.92"/>
  <polygon class="cls-12" points="40.17 47.45 40.7 47.3 40.96 47.38 41.01 46.9 40.66 46.8 40.17 46.9 40.17 47.45"/>
  <polygon class="cls-12" points="39.71 46.86 39.4 46.92 39.4 47.57 40.03 47.56 40.03 46.9 39.71 46.86"/>
  <polygon class="cls-12" points="41.77 47.06 41.15 46.94 41.12 47.4 41.65 47.63 41.77 47.06"/>
  <polygon class="cls-12" points="37.72 47.09 37.83 47.66 38.3 47.45 38.29 46.98 37.72 47.09"/>
  <polygon class="cls-12" points="38.79 47.45 38.44 47.59 38.83 47.7 39.25 47.64 39.21 47.59 38.79 47.45"/>
  <polygon class="cls-12" points="40.24 47.57 40.17 47.63 40.37 47.69 40.89 47.64 40.96 47.56 40.58 47.45 40.24 47.57"/>
  <polygon class="cls-7" points="39.34 47.75 39.01 48.06 38.62 48.3 38.04 48.5 37.69 48.32 38.35 47.89 38.53 47.79 38.37 47.72 38.34 47.73 37.39 48.32 37.89 48.59 38.04 48.66 38.66 48.43 39.03 48.23 39.54 47.76 39.37 47.72 39.34 47.75"/>
  <polygon class="cls-7" points="41.73 48.16 41.41 48.58 40.29 47.82 40.1 47.77 41.44 48.7 41.87 48.13 41.08 47.72 40.98 47.75 41.73 48.16"/>
  <polygon class="cls-8" points="37.69 48.32 38.04 48.5 38.62 48.3 39.01 48.06 39.34 47.75 38.83 47.84 38.53 47.79 38.35 47.89 37.69 48.32"/>
  <polygon class="cls-8" points="41.73 48.16 40.98 47.75 40.29 47.82 41.41 48.58 41.73 48.16"/>
  <path class="cls-10" d="M31.07,48.52l.07-.04-.16,.18-.21,.28,.12,.06,.35-.41-.35,.46,.11,.06h0l.3-.38h.03s.4-.37,.4-.37l.2-.06,1.06-.03,.55-.13,.26-.26-.05-.32,.76,.2,.71-.21,.37-.32v-.27s-.34-.3-.34-.3l.48-.1c.88-.15,1.77-.21,2.65-.25,.06,0,.11,0,.17,0,.04,0,.08,0,.13,0,.23,0,.46-.01,.69-.01,.04,0,.07,0,.11,0,.15,0,.3,0,.45,0,.06,0,.12,0,.18,0,.28,0,.56,0,.84,.02,.07,0,.14,0,.21,0,0,0,0,0,0,0,.68,.03,1.35,.07,2.03,.15l.89,.16-.44,.36,.04,.28,.54,.38,.63,.1,.66-.19v.43s.6,.28,.6,.28l.97,.03,.41,.07,.4,.37,.09,.05,.25,.33h0l.11-.06-.35-.46,.35,.41,.11-.07-.35-.45,.07,.03,.26,.34,.13-.06-.29-.37-.04-.09,.35,.41,.12-.06-.29-.37-.05-.1,.31,.39,.12-.07-.34-.44,.15,.11,.21,.28,.12-.06-.31-.4-.02-.07,.3,.39,.11-.08-.31-.4,.04-.03,.3,.36,.11-.06-.31-.41,.07,.04,.21,.28,.12-.06-.81-.72-1.05-.15,.05-.39-.51-.39-.07-.05h0s-1.05,.15-1.05,.15l-.03-.24-.02-.14h0s-.67-.49-.67-.49c-.36-.15-.73-.25-1.12-.34-.05-.01-.1-.02-.14-.03-.06-.01-.12-.02-.18-.03-.05,0-.1-.02-.14-.03-.1-.02-.2-.04-.3-.06-.03,0-.07-.01-.1-.02-.03,0-.05,0-.08,0-.26-.04-.53-.05-.79-.08-.05,0-.09,0-.14-.01-.06,0-.11-.01-.17-.02-.05,0-.11-.01-.16-.02-.06,0-.11-.01-.17-.02-.04,0-.08,0-.12-.01-.72-.05-1.44-.09-2.16-.1h-1.07s-.08,.01-.08,.01c-.01,0-.02,0-.03,0-.11,0-.23,.01-.35,.02-.03,0-.06,0-.08,0-.66,.03-1.33,.09-1.99,.2l-1.33,.37-.11,.03h-.02s-.65,.39-.65,.39l-.21,.31v.28s-1.03-.13-1.03-.13l-.55,.44,.06,.4-1.06,.15-.8,.72,.11,.07,.28-.33-.1,.14-.19,.28,.11,.07,.29-.36,.04,.02-.31,.41,.12,.08,.28-.38,.03,.03-.35,.42,.12,.07,.27-.34,.09-.05-.13,.14-.21,.3,.12,.06,.26-.34,.08-.04-.15,.17-.21,.29,.12,.06,.28-.35,.09-.05-.35,.44,.11,.07,.27-.34Zm16.91-1.26l.81,.35-.86,.93-.43-.33-.45-.05-.85-.02-.5-.16-.1-.13,.21-.11,.81,.13,.39-.15,.32-.47,.64,.02Zm-2.33,.34l.04-.1,.77-.28,.28-.02,.2,.39-.23,.12-.69-.09-.36-.03Zm.81-1.22l.65,.1,.22,.26-.06,.33-.21,.34-.3-.35-.44,.07-1.42,.47-.44-.02-.5-.26-.17-.2,.06-.11,.61,.13,.46,.21,.54-.25,.34-.51,.67-.19Zm-12.77-.48l.72-.4,1.45-.37c.98-.16,1.98-.21,2.98-.22,1.03,0,2.08,.04,3.11,.13,.88,.08,1.75,.19,2.59,.44l.93,.41,.24,.37-.33,.71-.45,.24-.37-.17-.54-.19,.22-.23-.1-.13-.53-.11c-.8-.12-1.61-.17-2.42-.2-.87-.03-1.74-.04-2.62,0-.9,.03-1.81,.09-2.7,.23l-.63,.12-.13,.15,.09,.15-.37,.25-.48,.18-.38-.13-.47-.86,.18-.35Zm-1.68,.72l.63-.26,.77,.18,.56,.74,.38,.1,.52-.17,.45-.32,.17,.15-.04,.15-.38,.28-.67,.14-1.62-.54-.35,.03-.23,.32-.27-.5,.07-.29Zm1.61,.98l-.18-.02-.82,.13-.28-.13,.17-.37h.28s.8,.28,.8,.28l.04,.11Zm-3.14,.01l.84-.37h.6s.07,.08,.07,.08l.25,.35,.38,.17,.66-.09,.26-.04,.14,.1-.27,.23-.68,.09-.81,.03-.57,.36-.86-.92Z"/>
  <path class="cls-12" d="M34.36,47.26l.48-.18,.37-.25-.09-.15,.13-.15,.63-.12c.89-.13,1.8-.19,2.7-.23,.87-.03,1.75-.02,2.62,0,.81,.03,1.62,.08,2.42,.2l.53,.11,.1,.13-.22,.23,.54,.19,.37,.17,.45-.24,.33-.71-.24-.37-.93-.41c-.85-.24-1.71-.36-2.59-.44-1.03-.09-2.08-.13-3.11-.13-1,0-1.99,.06-2.98,.22l-1.45,.37-.72,.4-.18,.35,.47,.86,.38,.13Zm10.77-1.42h0s-.09,.83-.09,.83l-.09-.04,.03-.25-.22-.11-.16,.19-.08-.04,.52-.62,.07,.05Zm-.89-.28l.19,.66,.13-.59h.08s-.16,.78-.16,.78h-.08s-.19-.68-.19-.68l-.13,.6-.08-.02,.17-.77,.08,.03Zm-.42-.14l.1,.83-.1-.02-.02-.25-.26-.05-.12,.22-.09-.02,.4-.73,.08,.02Zm-.82-.06h.26s.1,.22,.1,.22l-.08,.02-.05-.13-.14-.05-.12,.09-.05,.1-.02,.18,.03,.15,.1,.1,.14-.02,.1-.16,.08,.04-.15,.21-.16,.02-.13-.07-.07-.16v-.33s.17-.21,.17-.21Zm-.29-.05v.7h-.09v-.7h.09Zm-.65-.03l.28,.57v-.57h.08v.73h-.08l-.28-.57v.57h-.07v-.73h.07Zm-.23-.02v.73h-.09v-.73h.09Zm-.71-.02l.18,.61,.19-.61h.11v.72h-.08v-.59l-.19,.59h-.08l-.19-.61v.61h-.09v-.72h.14Zm-.68,.01l.14-.07h.04l.14,.07,.1,.25-.04,.33-.12,.13h-.19s-.12-.14-.12-.14l-.04-.34,.09-.23Zm-.73-.04h.22l.15,.04,.12,.21v.24s-.09,.2-.09,.2l-.17,.06h-.23v-.76Zm-.8-.01h.08l.25,.78h-.09l-.07-.23h-.25l-.07,.23h-.08l.23-.78Zm-.69,.06l.17-.06,.12,.07,.08,.17-.07,.03-.07-.14-.15-.02-.09,.13v.3s.07,.15,.07,.15l.12,.02,.09-.07,.04-.12,.07,.02-.09,.2-.13,.06-.15-.05-.09-.17v-.33s.09-.2,.09-.2Zm-.28-.05v.76h-.1v-.76h.1Zm-.64,.03h.09v.65h.3v.08h-.38v-.73Zm-.41,.03l.14,.04,.04,.25-.05,.05,.1,.1v.19s-.06,.07-.06,.07l-.12,.04-.24,.02-.05-.75,.23-.02Zm-.83,.07l.04,.46,.02,.12,.08,.09h.14l.08-.08v-.17s-.03-.44-.03-.44h.09s.03,.34,.03,.34v.23s-.05,.14-.05,.14l-.19,.07-.19-.07-.08-.22-.04-.47h.09Zm-.46,.06h.17l.11,.12v.22s-.15,.08-.15,.08l-.18,.04,.07,.29h-.09s-.17-.71-.17-.71l.23-.05Zm-.46,.11l.03,.09-.34,.11,.07,.21,.32-.1,.03,.08-.31,.11,.08,.23,.35-.11,.03,.08-.43,.14-.25-.7,.42-.14Zm-.78,.27l.11-.03,.13,.07,.05,.21-.09,.11,.18,.11,.16,.13-.1,.04-.2-.17-.1-.05h-.05s-.09,.05-.09,.05l.12,.31-.07,.03-.29-.71,.26-.11Z"/>
  <polygon class="cls-12" points="40.06 45.81 40.11 45.6 40.09 45.42 40.02 45.33 39.91 45.3 39.77 45.3 39.77 45.89 39.94 45.89 40.06 45.81"/>
  <polygon class="cls-12" points="40.49 45.86 40.66 45.89 40.72 45.8 40.77 45.63 40.75 45.41 40.66 45.3 40.56 45.28 40.42 45.42 40.41 45.66 40.49 45.86"/>
  <polygon class="cls-12" points="43.78 45.89 43.76 45.49 43.58 45.84 43.78 45.89"/>
  <polygon class="cls-12" points="44.82 46.19 45 46.28 45.06 45.89 44.82 46.19"/>
  <polygon class="cls-12" points="34.31 46.18 34.46 46.11 34.53 46.07 34.56 45.97 34.48 45.86 34.39 45.87 34.22 45.95 34.31 46.18"/>
  <polygon class="cls-12" points="39.03 45.66 38.93 45.29 38.83 45.65 39.03 45.66"/>
  <polygon class="cls-12" points="35.7 45.75 35.79 45.7 35.81 45.61 35.74 45.49 35.65 45.49 35.48 45.52 35.54 45.78 35.7 45.75"/>
  <polygon class="cls-12" points="36.91 45.59 36.97 45.56 37.01 45.47 36.97 45.38 36.89 45.37 36.74 45.38 36.75 45.6 36.91 45.59"/>
  <polygon class="cls-12" points="36.9 45.68 36.75 45.69 36.77 45.94 36.94 45.93 37.02 45.9 37.05 45.81 37 45.7 36.9 45.68"/>
  <polygon class="cls-12" points="32.45 47.11 32.79 47.08 34.41 47.61 35.08 47.48 35.46 47.2 35.5 47.05 35.33 46.9 34.88 47.22 34.36 47.39 33.98 47.29 33.42 46.56 32.64 46.38 32.01 46.63 31.95 46.92 32.22 47.42 32.45 47.11"/>
  <polygon class="cls-12" points="45.46 47.09 44.91 47.35 44.45 47.14 43.84 47.01 43.78 47.12 43.95 47.32 44.45 47.59 44.89 47.61 46.31 47.14 46.75 47.07 47.06 47.42 47.27 47.08 47.33 46.75 47.11 46.5 46.47 46.39 45.8 46.58 45.46 47.09"/>
  <polygon class="cls-12" points="32.51 47.23 32.35 47.59 32.63 47.72 33.45 47.59 33.62 47.61 33.59 47.5 32.79 47.22 32.51 47.23"/>
  <polygon class="cls-12" points="46.71 47.72 46.94 47.6 46.74 47.21 46.47 47.23 45.69 47.51 45.66 47.61 46.02 47.63 46.71 47.72"/>
  <polygon class="cls-12" points="31.92 48.18 32.73 48.15 33.41 48.06 33.68 47.83 33.54 47.73 33.28 47.77 32.63 47.86 32.25 47.69 32 47.34 31.93 47.25 31.33 47.26 30.48 47.63 31.34 48.54 31.92 48.18"/>
  <polygon class="cls-12" points="46.63 47.86 45.82 47.73 45.61 47.85 45.71 47.98 46.21 48.14 47.06 48.16 47.5 48.21 47.93 48.54 48.79 47.62 47.99 47.26 47.35 47.24 47.02 47.71 46.63 47.86"/>
  <polygon class="cls-5" points="38.2 45.95 38.35 46 38.48 45.95 38.57 45.74 38.5 45.72 38.46 45.84 38.37 45.91 38.25 45.89 38.17 45.73 38.19 45.43 38.28 45.3 38.43 45.32 38.49 45.46 38.57 45.43 38.49 45.26 38.37 45.2 38.2 45.26 38.1 45.46 38.11 45.78 38.2 45.95"/>
  <rect class="cls-5" x="37.82" y="45.21" width=".1" height=".76"/>
  <polygon class="cls-5" points="37.29 45.97 37.67 45.97 37.67 45.89 37.37 45.89 37.37 45.24 37.29 45.24 37.29 45.48 37.29 45.97"/>
  <polygon class="cls-5" points="40.97 45.96 41.06 45.96 41.06 45.35 41.25 45.96 41.32 45.96 41.52 45.37 41.52 45.96 41.6 45.96 41.6 45.24 41.49 45.24 41.29 45.85 41.11 45.24 40.97 45.24 40.97 45.96"/>
  <rect class="cls-5" x="41.73" y="45.26" width=".09" height=".73"/>
  <path class="cls-5" d="M40.49,45.96h.19s.12-.13,.12-.13l.04-.33-.1-.25-.14-.07h-.04l-.14,.07-.09,.23,.04,.34,.12,.14Zm-.07-.54l.14-.15,.1,.02,.09,.11,.03,.22-.05,.17-.06,.09-.17-.02-.09-.2v-.24Z"/>
  <polygon class="cls-5" points="41.99 46 42.06 46 42.06 45.44 42.34 46 42.42 46 42.42 45.28 42.34 45.28 42.34 45.85 42.06 45.28 41.99 45.28 41.99 46"/>
  <path class="cls-5" d="M38.66,45.97h.08l.07-.23h.25l.07,.23h.09l-.25-.78h-.08l-.23,.78Zm.27-.68l.1,.37h-.2s.1-.37,.1-.37Z"/>
  <path class="cls-5" d="M40.09,45.91l.1-.2v-.24s-.13-.21-.13-.21l-.15-.04h-.22v.76h.23l.17-.06Zm-.32-.61h.14l.11,.02,.07,.1,.02,.17-.05,.22-.12,.07h-.17v-.58Z"/>
  <rect class="cls-5" x="42.62" y="45.31" width=".09" height=".7"/>
  <polygon class="cls-5" points="36.09 46.04 36.27 46.12 36.46 46.04 36.52 45.9 36.51 45.67 36.48 45.32 36.39 45.33 36.43 45.76 36.42 45.93 36.34 46.01 36.2 46.01 36.12 45.93 36.1 45.81 36.05 45.35 35.97 45.35 36.01 45.83 36.09 46.04"/>
  <polygon class="cls-5" points="42.84 45.9 42.91 46.06 43.04 46.13 43.2 46.11 43.34 45.9 43.27 45.86 43.17 46.02 43.03 46.03 42.93 45.94 42.91 45.78 42.92 45.6 42.98 45.5 43.1 45.42 43.23 45.46 43.29 45.6 43.37 45.58 43.27 45.37 43.01 45.36 42.85 45.56 42.84 45.9"/>
  <path class="cls-5" d="M35.54,46.18h.09s-.07-.31-.07-.31l.18-.04,.14-.08v-.22s-.1-.12-.1-.12h-.17l-.23,.05,.17,.73Zm.11-.7h.09l.07,.12-.02,.09-.09,.05-.17,.03-.06-.26,.17-.04Z"/>
  <path class="cls-5" d="M43.34,46.13l.09,.02,.12-.22,.26,.05,.02,.25,.1,.02-.1-.83-.08-.02-.4,.73Zm.42-.63l.02,.4-.2-.05,.18-.35Z"/>
  <polygon class="cls-5" points="34.97 46.36 35.4 46.22 35.37 46.13 35.02 46.25 34.94 46.02 35.26 45.91 35.23 45.83 34.91 45.93 34.84 45.72 35.18 45.61 35.14 45.52 34.72 45.66 34.97 46.36"/>
  <polygon class="cls-5" points="43.99 46.29 44.07 46.31 44.2 45.71 44.39 46.38 44.47 46.4 44.63 45.63 44.55 45.62 44.43 46.21 44.24 45.55 44.16 45.52 43.99 46.29"/>
  <path class="cls-5" d="M36.7,46.04l.24-.02,.12-.04,.05-.07v-.19s-.1-.1-.1-.1l.05-.05-.04-.25-.14-.04-.23,.02,.05,.75Zm.35-.24l-.03,.1-.08,.03h-.17s-.02-.24-.02-.24h.15s.1,0,.1,0l.05,.11Zm-.16-.44l.07,.02,.04,.09-.04,.09-.06,.03h-.16s-.01-.21-.01-.21h.16Z"/>
  <path class="cls-5" d="M34.4,46.61l.07-.03-.12-.31,.09-.05h.05s.1,.05,.1,.05l.2,.17,.1-.04-.16-.13-.18-.11,.09-.11-.05-.21-.13-.07-.11,.03-.26,.11,.29,.71Zm0-.74h.09s.08,.1,.08,.1l-.03,.1-.08,.04-.15,.07-.09-.23,.18-.07Z"/>
  <path class="cls-5" d="M44.53,46.41l.08,.04,.16-.19,.22,.11-.03,.25,.09,.04,.09-.82h0s-.07-.05-.07-.05l-.52,.62Zm.47-.13l-.19-.09,.24-.3-.05,.39Z"/>
</svg>