<?xml version="1.0" encoding="UTF-8"?>
<svg id="Layer_1" data-name="Layer 1" xmlns="http://www.w3.org/2000/svg" viewBox="0 0 80 80">
  <defs>
    <style>
      .cls-1 {
        fill: #fff;
      }

      .cls-2 {
        fill: #ffcc02;
      }

      .cls-3 {
        fill: #cd2028;
      }

      .cls-4 {
        fill: #fbd015;
      }
    </style>
  </defs>
  <path d="M20,80H60c11.05,0,20-8.95,20-20v-5.42H0v5.42c0,11.05,8.95,20,20,20Z"/>
  <polygon class="cls-1" points="33.95 51.09 33.99 50.96 33.84 51.03 33.95 51.09"/>
  <polygon class="cls-1" points="44.22 51.97 44.43 52.11 44.41 52.01 44.22 51.97"/>
  <polygon class="cls-1" points="36.26 51.51 36.32 51.57 36.39 51.55 36.32 51.46 36.26 51.51"/>
  <path class="cls-1" d="M80,25.42H0v29.15H80V25.42Zm-32.53,24.88l.34,.3,.65,.23,.03,.18-.54,.45-.32,.47h0v.33s-.61,.65-.61,.65c-1.59,.36-6.99,.51-7,.52h0s-5.42-.15-6.99-.52l-.62-.64v-.34h.02l-.32-.47-.54-.45,.02-.18,.65-.23,.35-.3h.06c0-.09,.02-.18,.06-.26l.05-.6h-2.49v-.09s.52-11.77,.68-15.79c.04-1.28,.65-1.78,1.42-1.77,.72,0,1.57,.4,2.32,.85,.59,.36,1.22,.47,1.88,.47,.28,0,.57-.02,.86-.05,.49-.71,1.15-1.86,1.14-2.85l-.02-.29c-.09-.76-.42-1.64-.58-1.77l-.83-.34-.23,.23v-.21c0-.68,.43-.89,.79-.89l.23,.03,.84,.3,.56-.41,.11-.08h0l.06-.04,.71-.14,.74,.11c.06,.02,.12,.05,.18,.07h.02s.02,.02,.02,.02c.31,.12,.57,.32,.75,.63h0s0,.01,0,.01c.17,.3,.28,.69,.28,1.2,0,.42-.06,.92-.2,1.51l-.06,.56c0,.88,.4,1.78,.72,2.37,.27,.03,.53,.04,.78,.04,.66,0,1.28-.11,1.87-.47,.75-.45,1.61-.85,2.32-.85,.77,0,1.37,.49,1.42,1.77,.17,4.02,.69,15.77,.69,15.79v.09h-2.45l.04,.54c.05,.09,.06,.21,.07,.33h.05Z"/>
  <path class="cls-1" d="M32.82,49.17l.72-.3,.05-.05,.05-.05s0,0-.01,0l1.49-4.18-.46,.5,.51-9.63,.82,.36h.28c1.45,0,2.73-.42,3.71-1.2l.06-.04,.06,.04c1,.79,2.26,1.21,3.71,1.21h.23s.82-.37,.82-.37l.51,9.63-.47-.5,1.46,4.11,.18,.17,.08,.03,.68,.28v.06s0,.01,0,.01h2.27s0-.1,0-.18l-.9-.98-.66-15.17,.87,.34c-.12-1-.59-1.31-1.21-1.32-.65,0-1.5,.38-2.23,.83-.63,.38-1.28,.49-1.96,.49-.23,0-.45-.02-.68-.04,.17,.3,.3,.49,.3,.49l.15,.19-.23-.05-1.18-.26,.53,.64-.23-.04c-.6-.11-1.3-.66-1.51-.84l-.58,.79-.07-.1-.5-.69c-.21,.18-.92,.73-1.51,.84l-.23,.04,.15-.19,.38-.46-1.45,.32,.16-.2s.16-.19,.37-.48c-.25,.02-.49,.04-.73,.04-.68,0-1.34-.11-1.97-.49-.73-.45-1.57-.83-2.23-.82-.63,0-1.1,.32-1.22,1.31l.87-.34-.66,15.17-.91,.98c0,.07,0,.13,0,.17h2.31v-.07s.06-.02,.06-.02Zm14.67-15.98l.66,14.63-1.02-1.09-.66-12.53,1.02-1Zm-1.4,1.27l.54,11.96-1.02-1.09-.43-10.14,.91-.73Zm-11.28,.73l-.43,10.14-1.01,1.09,.54-11.96,.9,.73Zm-2.29-2l1.01,1-.65,12.53-1.02,1.09,.66-14.63Z"/>
  <polygon class="cls-1" points="39.64 52.06 39.86 51.91 39.42 52.05 39.64 52.06"/>
  <path class="cls-1" d="M47.26,50.52v-.11l-.52-.47-.3-.2s-.05,.01-.07,.02c-.54,.18-1.46,.35-2.02,.44l-.29,1-.11-.16-.46-.71c-.44,.06-1,.1-1.52,.1l-.77-.04c-.11,.3-.32,.16-.51,.72l-.09,.25-.07-.25-.31-.95,.04-.04,.05-.04h-.52l.09,.09-.02,.05-.37,1.13-.09-.24c-.2-.56-.42-.42-.51-.72h0s-.77,.05-.77,.05c-.52,0-1.08-.04-1.53-.1l-.56,.87-.05-.18-.24-.82c-.58-.1-1.56-.28-2.09-.47h0s-.28,.19-.28,.19l-.53,.48v.11l-.11-.02-.1-.02-.2,.21-.65,.25,.54,.49,.26,.41,.07,.02v.4s.47,.47,.47,.47c1.53,.35,6.95,.51,6.96,.51h0s5.42-.16,6.96-.51l.48-.48v-.33s-.01-.06-.01-.06l.07-.02,.26-.41,.53-.49-.65-.26-.19-.21-.1,.02-.1,.02Zm-13.47-.23l.12,.09,.08-.11,.15,.11-.09,.14-.11-.09-.07,.12-.16-.13,.09-.13Zm.92,1.73l-.12-.09-.07,.13-.1-.08,.04-.19,.12,.09,.08-.13,.15,.13-.09,.15Zm.4,.13l-.19-.15,.1-.17,.2,.15-.1,.17Zm-.68-.52l-.4-.43-.31,.04v-.26l.26-.16,.07-.23,.12,.69,.57,.18-.09-.19,.06-.19,.11,.33,.16,.11,.24,.05-.09-.19,.07-.19,.08,.17,.03,.46-.86-.18Zm2.61-.04l.04,.5-.74-.21-.29,.07-.35,.31-.37-.3,.57-.03,.05-.22-.06-.19,.03-.15,.13,.34h.2l-.15-.23,.4-.05v.34s.48,.08,.48,.08l-.09-.52-.05-.21,.06-.14,.19,.17-.09,.18,.05,.27Zm.2,.57l-.02-.24-.03-.31,.05-.54,.1,.8-.09,.29Zm3.24,.06h-.15s-.36,.05-.36,.05h-.58s-.42-.15-.42-.15l-.28,.11-.31,.34-.23-.07-.16-.19,.55-.08,.06-.23-.06-.19,.03-.15,.11,.2,.07,.13,.22-.24,.11,.25,.29-.11,.63-.15,.04,.28,.28-.04,.38-.16,.07,.44-.28-.05Zm1-1.15l.09-.04h.19s-.21,.1-.21,.1l-.08,.14-.16-.08,.16-.13Zm.8,1.41l-.09,.04h-.19s.15-.15,.15-.15l.09-.05h.2l-.16,.16Zm-.14-.28h-.38s-.1-.32-.1-.32l-.31,.14-.04-.18,.26-.28,.1-.28,.13,.7,.57-.02-.09-.17,.07-.21,.09,.15,.02,.37-.31,.1Zm.76,.29l-.44-.14h.26s.28-.18,.28-.18l.13-.25-.09-.14,.04-.24,.12,.57-.31,.38Zm3.1-.56l-.2-.05,.1-.22,.21,.05-.11,.22Zm.43-.48l-.34,.08-.65,.14-.34-.02-.16,.15-.44,.09-.04,.41-.33-.35-.17,.08-.06,.13-.24,.23-.45-.15h.18s.17,0,.17,0l.31-.26-.15-.48,.27,.25,.24-.2,.16-.32,.18,.16-.17,.31,.69-.26,.23-.29,.18,.31,.55-.14-.44-.07,.35-.27,.36,.23,.1,.09v.15Z"/>
  <path class="cls-1" d="M35.97,42.18l.18-3.02c-.08-.33-.16-.68-.22-1.03l-.22,4.76,.26-.72Z"/>
  <polygon class="cls-1" points="41.58 51.82 41.62 51.67 41.44 51.8 41.58 51.82"/>
  <path class="cls-1" d="M43.86,39.32l.17,2.88,.25,.71-.21-4.52c-.06,.32-.14,.63-.22,.93Z"/>
  <polygon class="cls-1" points="39.42 48.61 39.66 44.82 38.98 48.64 38.26 49.18 37.92 48.4 37.64 49.27 39.94 49.27 39.42 48.61"/>
  <polygon class="cls-1" points="44.33 51.5 44.25 51.67 44.42 51.52 44.33 51.5"/>
  <polygon class="cls-1" points="42.08 48.4 41.75 49.18 41.01 48.64 40.35 44.93 40.58 48.59 40.05 49.27 42.36 49.27 42.08 48.4"/>
  <path class="cls-3" d="M80,20c0-11.05-8.95-20-20-20H20C8.95,0,0,8.95,0,20v5.42H80v-5.42Z"/>
  <path class="cls-4" d="M35.18,51.19l-.07,.19,.09,.19-.24-.05-.16-.11-.11-.33-.06,.19,.09,.19-.57-.18-.12-.69-.07,.23-.26,.16v.26l.31-.04,.4,.43,.86,.18-.03-.46-.08-.17Zm-1.24-.1l-.11-.06,.15-.07-.04,.13Z"/>
  <polygon class="cls-4" points="41.56 51.15 41.77 51.05 41.58 51.05 41.48 51.09 41.32 51.22 41.48 51.29 41.56 51.15"/>
  <path class="cls-4" d="M36.89,50.98l-.06,.14,.05,.21,.09,.52-.47-.08v-.34s-.41,.05-.41,.05l.15,.23h-.2l-.13-.34-.03,.15,.06,.19-.05,.22-.57,.03,.37,.3,.35-.31,.29-.07,.74,.21-.04-.5-.05-.27,.09-.18-.19-.17Zm-.57,.59l-.06-.06,.06-.05,.07,.09-.07,.02Z"/>
  <path class="cls-4" d="M40.32,52.01l-.28,.04-.04-.28-.63,.15-.29,.11-.11-.25-.22,.24-.07-.13-.11-.2-.03,.15,.06,.19-.06,.23-.55,.08,.16,.19,.23,.07,.31-.34,.28-.11,.42,.14h.58s.36-.05,.36-.05h.15s.28,.05,.28,.05l-.07-.44-.38,.16Zm-.68,.05h-.22s.45-.15,.45-.15l-.22,.15Z"/>
  <polygon class="cls-4" points="33.93 50.43 34.04 50.52 34.14 50.39 33.99 50.28 33.91 50.39 33.79 50.29 33.69 50.43 33.86 50.55 33.93 50.43"/>
  <polygon class="cls-4" points="34.57 51.88 34.45 51.79 34.41 51.98 34.52 52.06 34.59 51.94 34.71 52.03 34.8 51.88 34.65 51.75 34.57 51.88"/>
  <polygon class="cls-4" points="34.91 52.01 35.1 52.16 35.21 51.99 35.01 51.84 34.91 52.01"/>
  <polygon class="cls-4" points="45.79 51.89 45.99 51.95 46.1 51.73 45.89 51.67 45.79 51.89"/>
  <path class="cls-4" d="M45.95,50.98l-.35,.27,.44,.07-.55,.14-.18-.31-.23,.29-.69,.26,.17-.31-.18-.16-.16,.32-.24,.2-.27-.25,.15,.48-.31,.26h-.17s-.18,0-.18,0l.45,.15,.24-.23,.06-.13,.17-.08,.33,.35,.04-.41,.44-.09,.16-.15,.34,.02,.65-.14,.34-.08v-.15l-.1-.09-.36-.23Zm-1.62,.52l.09,.02-.17,.14,.08-.16Zm-.11,.47l.19,.04,.03,.1-.22-.14Z"/>
  <polygon class="cls-4" points="42.15 52.39 41.99 52.53 42.18 52.53 42.28 52.5 42.44 52.34 42.24 52.34 42.15 52.39"/>
  <polygon class="cls-4" points="43.03 51.8 43.12 51.94 42.99 52.19 42.72 52.38 42.45 52.37 42.89 52.51 43.2 52.13 43.08 51.56 43.03 51.8"/>
  <path class="cls-4" d="M42.34,51.59l-.07,.21,.09,.17-.57,.02-.13-.7-.1,.28-.26,.28,.04,.18,.31-.14,.1,.3h.38s.31-.09,.31-.09l-.02-.37-.09-.15Zm-.76,.23h-.13s.18-.15,.18-.15l-.04,.15Z"/>
  <polygon class="cls-4" points="37.18 51.62 37.22 51.94 37.24 52.18 37.34 51.88 37.24 51.08 37.18 51.62"/>
  <polygon class="cls-1" points="40.21 26.76 40.24 26.76 40.22 26.76 40.21 26.76"/>
  <path class="cls-1" d="M38.36,27.79c.62,.32,.94,.81,.94,.81l-.49-.15-.23,.71c.06,.24,.12,.49,.15,.74l.02,.32c0,1.37-1.13,2.92-1.53,3.44l1.18-.26c.21-.31,.62-1.02,.62-1.8l-.03-.37,.18-.03,.03,.4c0,.73-.33,1.38-.55,1.75h.03s-.16,.2-.16,.2c-.05,.08-.09,.13-.09,.13h0s-.26,.31-.26,.31c.46-.18,.97-.57,1.15-.72,.05-.1,.35-.85,.34-1.55l-.04-.41,.18-.03,.03,.44c0,.63-.19,1.23-.31,1.52l.48,.65,.46-.61c-.11-.26-.33-.9-.33-1.58l.03-.44,.18,.03-.04,.41c0,.63,.23,1.3,.32,1.51h0s.65,.57,1.23,.79l-.27-.33h0s-.01-.01-.03-.04l-.05-.06-.16-.2h.03c-.23-.35-.56-1-.56-1.74l.03-.4,.18,.03-.03,.37c0,.81,.44,1.52,.64,1.81l1.19,.26c-.29-.45-1.03-1.7-1.03-2.96l.07-.6,.19-1.47c0-.46-.08-.8-.21-1.06l-.81-.26-.68,.33-.72,.12h-.03s-.95-.35-.95-.35h0s-.74-.28-.74-.28l-.19-.02c-.26,0-.5,.1-.58,.49,.18-.03,.7-.1,1.24,.18Z"/>
  <polygon class="cls-1" points="39.76 27.42 39.89 27.28 39.76 27.15 39.63 27.28 39.76 27.42"/>
  <path class="cls-2" d="M38.15,28.22l.39,1.03,.03-.1,.23-.71,.49,.15s-.33-.49-.94-.81c-.54-.28-1.06-.22-1.24-.18-.04,0-.07,.02-.07,.02l1.1,.61Z"/>
  <polygon class="cls-1" points="38.35 33.6 38.35 33.6 38.35 33.6 38.35 33.6"/>
  <polygon class="cls-1" points="41.65 33.59 41.65 33.58 41.65 33.58 41.65 33.59"/>
  <polygon class="cls-4" points="33.53 34.2 32.52 33.2 31.86 47.82 32.88 46.73 33.53 34.2"/>
  <polygon class="cls-4" points="34.38 45.33 34.81 35.2 33.91 34.47 33.38 46.43 34.38 45.33"/>
  <polygon class="cls-4" points="48.14 47.82 47.48 33.2 46.47 34.2 47.12 46.73 48.14 47.82"/>
  <polygon class="cls-4" points="46.62 46.43 46.09 34.47 45.18 35.2 45.61 45.33 46.62 46.43"/>
  <path class="cls-1" d="M37.58,48.87l-.46,.43c.1,0,.21,.01,.32,.02l.14-.45Z"/>
  <path class="cls-1" d="M33.88,48.68s.09,.02,.13,.03l1.12-.92,.03,.14,.25,1.11s.04,0,.06,.01l.95-.71,.03,.15,.13,.77c.09,0,.19,.02,.31,.02l.81-.75,.08-.27h0s-.24-1.1-.24-1.1l-1.05,1.11-.04-.16-.29-1.29-1,.92-.04-.12-.46-1.19-.8,2.25h.03Z"/>
  <polygon class="cls-1" points="34.76 46.23 35.23 47.43 36.26 46.47 36.3 46.62 36.58 47.9 37.63 46.79 37.67 46.96 37.88 47.93 38.48 46.01 37.45 46.77 37.43 46.63 37.04 44.94 36.33 45.95 36.29 45.76 36 44.62 35.12 45.11 35.12 45.11 35.12 45.11 34.72 46.25 34.76 46.23"/>
  <path class="cls-1" d="M38.93,44.59l.22-.7c-.26-.21-.49-.42-.71-.65l-.16,.21,.03-.02,.62,1.14Z"/>
  <path class="cls-1" d="M36.24,43.5l.85-.84,.02,.02-.19-1.47s0,0,0,0h0c-.08-.16-.17-.32-.24-.48l-.71,1.99,.27,.78Z"/>
  <polygon class="cls-1" points="35.21 44.85 36.12 44.35 36.15 44.47 36.41 45.52 37.13 44.5 37.17 44.7 37.57 46.46 38.53 45.75 38.55 45.79 38.88 44.76 38.84 44.78 38.19 43.58 37.37 44.66 37.35 44.44 37.14 42.87 36.17 43.82 36.12 43.69 35.88 42.99 35.21 44.85"/>
  <path class="cls-1" d="M37.16,41.63l.33,2.58,.82-1.09c-.45-.46-.83-.96-1.15-1.49Z"/>
  <polygon class="cls-1" points="34.68 46.26 34.68 46.26 34.68 46.26 34.68 46.26"/>
  <path class="cls-1" d="M35.01,48.12l-.79,.65c.29,.07,.65,.15,.98,.23l-.2-.88Z"/>
  <path class="cls-1" d="M36.29,48.66l-.59,.44c.35,.08,.6,.13,.61,.13h0s.03,0,.07,0l-.09-.58Z"/>
  <polygon class="cls-1" points="37.77 48.58 37.77 48.58 37.77 48.58 37.77 48.58"/>
  <path class="cls-1" d="M41.73,43.48l-.15-.2c-.23,.22-.46,.44-.72,.65l.22,.69,.62-1.15,.04,.02Z"/>
  <path class="cls-1" d="M44.85,47.76l-.09-.09-.9-.83-.32,1.45-.12-.12-.93-.98-.24,1.1h-.02s.09,.28,.09,.28l.79,.72c.12,0,.24-.02,.33-.03l.16-.9,.11,.09,.82,.61s.05-.01,.07-.02l.28-1.24,.12,.09,1,.82s.06-.01,.08-.02c.02,0,.05-.01,.07-.02l-.79-2.22-.5,1.29Z"/>
  <path class="cls-1" d="M42.43,48.9l.13,.42c.11,0,.21-.01,.31-.02l-.44-.4Z"/>
  <polygon class="cls-1" points="44 44.65 43.67 45.97 43.57 45.81 42.96 44.96 42.54 46.79 42.44 46.7 41.52 46.02 42.13 47.97 42.38 46.82 42.49 46.94 43.43 47.92 43.75 46.5 43.86 46.6 44.78 47.45 45.25 46.25 45.28 46.26 44.88 45.14 44 44.65"/>
  <path class="cls-1" d="M43.34,40.8c-.08,.18-.18,.36-.28,.53l-.18,1.39,.03-.03,.85,.84,.26-.78h0l-.69-1.94Z"/>
  <polygon class="cls-1" points="44.12 43.01 43.84 43.85 43.74 43.75 42.86 42.89 42.63 44.68 42.49 44.5 41.81 43.6 41.16 44.8 41.12 44.78 41.45 45.82 41.48 45.78 42.44 46.48 42.87 44.53 42.99 44.69 43.6 45.55 43.89 44.38 43.99 44.44 44.79 44.89 44.12 43.01"/>
  <path class="cls-1" d="M41.71,43.15l.8,1.07,.32-2.47c-.31,.5-.69,.96-1.12,1.4Z"/>
  <polygon class="cls-1" points="42.16 48.27 42.16 48.27 42.16 48.27 42.16 48.27"/>
  <path class="cls-1" d="M43.72,48.68l-.09,.56s.06,0,.08,0c0,0,.02,0,.02,0h0s.24-.05,.56-.12l-.58-.43Z"/>
  <path class="cls-1" d="M44.79,49.01c.33-.07,.68-.15,.98-.22l-.78-.65-.2,.87Z"/>
  <polygon class="cls-1" points="42.23 48.61 42.23 48.61 42.23 48.61 42.23 48.61"/>
  <path class="cls-1" d="M40.81,49.58l.02,.03,.17-.17h-1.93l.17,.17,.02-.03,.09,.08,.26,.26s.09,0,.12,0h.32s.31,0,.31,0c.03,0,.09,0,.13,0l.34-.34Z"/>
  <path class="cls-1" d="M46.37,49.58l.04-.05,.06-.53-.18-.16h-.04s-.03,0-.03,0c-.01,0-.04,0-.05,.01-.67,.22-1.52,.42-2.38,.54,0,0-.02,0-.02,0h0s0,0,0,0c-.65,.09-1.34,.16-1.97,.16l-.7-.04-.21,.2,.25,.44,.07,.05,.53,.03c.53,0,1.18-.05,1.62-.09h0s.03-.06,.03-.06l.42-.67,.08,.09,.47,.49h0c.61-.11,1.44-.27,2.01-.43Zm-3.83,.21l.56-.03v.19s-.55,.02-.55,.02v-.18Zm-.94,.02h.6v.2h-.6v-.2Zm4.33-.37l-.54,.12-.04-.18,.55-.12,.04,.19Zm-1.44,.13l.54-.12,.04,.19-.54,.12-.04-.19Z"/>
  <polygon class="cls-1" points="43.98 50.8 44.19 50.1 43.84 49.72 43.57 50.15 43.98 50.8"/>
  <path class="cls-1" d="M41.03,50.33l-.26-.46-.36,.36,.2,.62c.21-.4,.41-.36,.42-.52Z"/>
  <polygon class="cls-1" points="46.64 49.11 46.58 49.63 47.17 50.01 47.11 49.32 46.64 49.11"/>
  <path class="cls-4" d="M47.3,49.44h2.45v-.09s-.52-11.77-.69-15.79c-.05-1.28-.65-1.78-1.42-1.77-.72,0-1.58,.4-2.32,.85-.59,.36-1.21,.47-1.87,.47-.26,0-.52-.02-.78-.04-.32-.59-.72-1.49-.72-2.37l.06-.56c.14-.59,.2-1.09,.2-1.51,0-.52-.11-.9-.28-1.2h0s0-.01,0-.01c-.18-.31-.44-.51-.75-.63l-.02-.02h-.02c-.06-.02-.11-.06-.18-.07l-.74-.11-.71,.14-.06,.04h0l-.11,.08-.56,.41-.84-.3-.23-.03c-.36,0-.79,.21-.79,.89v.21l.23-.23,.83,.34c.17,.14,.49,1.01,.58,1.77l.02,.29c0,.99-.66,2.14-1.14,2.85-.29,.03-.58,.05-.86,.05-.66,0-1.29-.11-1.88-.47-.75-.45-1.6-.85-2.32-.85-.78-.01-1.38,.49-1.42,1.77-.17,4.02-.68,15.77-.68,15.79v.09s2.48,0,2.48,0l-.05,.6c-.03,.08-.05,.17-.06,.27h-.06s-.35,.29-.35,.29l-.65,.23-.02,.18,.54,.45,.32,.47h0v.34s.61,.64,.61,.64c1.58,.36,6.98,.51,6.99,.51h0s5.41-.15,7-.51l.62-.65v-.33h-.01l.32-.47,.54-.45-.03-.18-.65-.23-.34-.3h-.05c-.01-.11-.03-.23-.07-.32l-.04-.54Zm-6.96,.48h-.31s-.32,0-.32,0c-.03,0-.08,0-.12,0l-.26-.26-.09-.08-.02,.03-.17-.17h1.93l-.17,.17-.02-.03-.34,.34s-.09,0-.13,0Zm-7.4-.61l.47-.2,.06,.52-.58,.38,.05-.7Zm14.18,0l.05,.7-.58-.38,.06-.52,.47,.2Zm-12.43-3.06h0s0,0,0,0h0Zm5.34-11.46c1.03,.78,2.31,1.21,3.77,1.21h.35c-.13,3.78-1.22,6.36-4.12,8.31-2.9-1.96-3.99-4.54-4.12-8.32h.35c1.46,0,2.75-.41,3.76-1.2Zm4.34,15.22h0s-.47-.5-.47-.5l-.08-.09-.42,.67-.03,.05h0c-.44,.05-1.09,.1-1.62,.1l-.53-.03-.07-.05-.25-.44,.21-.2,.7,.04c.63,0,1.32-.07,1.97-.16,0,0,0,0,0,0h0s.01,0,.02,0c.86-.12,1.71-.32,2.38-.54,.02,0,.04,0,.05-.01h.03s.04,0,.04,0l.18,.16-.06,.53-.04,.05c-.57,.16-1.4,.32-2.01,.44Zm-6.59-1.44h0s0,0,0,0h0Zm-3.54,.19l.79-.65,.2,.88c-.34-.08-.69-.16-.98-.23Zm2.08,.47h0s-.26-.05-.61-.13l.59-.44,.09,.58s-.07,0-.07,0Zm.81,.06l.46-.43-.14,.45c-.11,0-.22-.01-.32-.02Zm3.73-5.37c.26-.21,.5-.42,.72-.65l.15,.2-.04-.02-.62,1.15-.22-.69Zm.91-.42h0Zm-.06-.35c.43-.44,.8-.9,1.12-1.4l-.32,2.47-.8-1.07Zm2.06,.37l-.85-.84-.03,.03,.18-1.39c.1-.18,.2-.35,.28-.53l.69,1.94h0l-.26,.78Zm-5.46-.4l-.82,1.09-.33-2.58c.32,.53,.7,1.03,1.15,1.49Zm-1.39-1.91h0s0,0,0,0c0,0,0,0,0,0l.19,1.47-.02-.02-.85,.84-.27-.78,.71-1.99c.07,.17,.16,.33,.24,.48Zm1.52,2.04c.22,.22,.46,.44,.71,.65l-.22,.7-.62-1.14-.03,.02,.16-.21Zm3.72,5.03h0s0,0,0,0h0Zm2.63,.73l.2-.87,.78,.65c-.29,.07-.64,.15-.98,.22Zm-1.06,.23h0s-.02,0-.02,0c-.02,0-.04,0-.08,0l.09-.56,.58,.43c-.33,.07-.56,.12-.56,.12Zm-1.17,.09l-.13-.42,.44,.4c-.1,0-.2,.01-.31,.02Zm-.33-.72h0s0,0,0,0h0Zm3.84,.1s-.06,.01-.08,.02l-1-.82-.12-.09-.28,1.24s-.05,.01-.07,.02l-.82-.61-.11-.09-.16,.9c-.09,0-.21,.02-.33,.03l-.79-.72-.09-.28h.02s.24-1.1,.24-1.1l.93,.98,.12,.12,.32-1.45,.9,.83,.09,.09,.5-1.29,.79,2.22s-.04,.01-.07,.02Zm-.83-2.46l-.47,1.2-.91-.85-.11-.1-.32,1.42-.94-.98-.11-.12-.25,1.15-.61-1.94,.92,.68,.1,.08,.42-1.83,.6,.85,.11,.16,.33-1.32,.88,.5,.4,1.12h-.03Zm-1.26-1.82l-.1-.06-.29,1.17-.61-.86-.12-.16-.44,1.95-.96-.7-.03,.04-.33-1.04,.04,.02,.65-1.21,.68,.91,.13,.17,.23-1.79,.88,.86,.1,.1,.28-.84,.67,1.88-.8-.45Zm-7.87-.75l.05,.14,.97-.95,.2,1.57,.03,.22,.82-1.09,.65,1.2,.04-.02-.32,1.03-.02-.03-.96,.71-.39-1.76-.04-.2-.72,1.02-.26-1.06-.03-.11-.9,.5,.66-1.86,.24,.7Zm-1,1.42h0s.88-.49,.88-.49l.29,1.13,.05,.19,.7-1.01,.39,1.7,.03,.13,1.03-.76-.61,1.92-.21-.97-.04-.17-1.05,1.11-.29-1.28-.04-.15-1.03,.96-.47-1.2-.04,.02,.4-1.14h0Zm0,2.5l.04,.12,1-.92,.29,1.29,.04,.16,1.05-1.11,.24,1.11h0s-.08,.27-.08,.27l-.81,.75c-.12,0-.23-.02-.31-.02l-.13-.77-.03-.15-.95,.71s-.04,0-.06-.01l-.25-1.11-.03-.14-1.12,.92s-.1-.02-.13-.03h-.03s.8-2.25,.8-2.25l.46,1.19Zm-1.35,1.23h.07c.68,.23,1.54,.44,2.42,.56,0,0,.03,0,.03,0h0s0,0,0,0c.64,.09,1.33,.16,1.97,.16l.71-.04,.2,.2-.25,.45-.07,.05-.54,.02c-.53,0-1.19-.05-1.63-.1h0s-.38-.63-.38-.63l-.07-.1-.55,.58h0c-.61-.11-1.44-.27-2.02-.44l-.03-.03h0s-.06-.54-.06-.54h0s.18-.17,.18-.17Zm2.09,1.26l.36-.38,.26,.43-.41,.64-.21-.69Zm3.43-.23l.37,.36-.2,.62c-.21-.4-.41-.37-.43-.51l.26-.47Zm-1.64-.61l.27-.87,.34,.78,.72-.53,.68-3.82-.24,3.79,.52,.66h-2.3Zm2.93-.68l-.23-3.66,.66,3.71,.74,.53,.33-.78,.28,.87h-2.31l.53-.68Zm.19,1.28l.26,.46c0,.15-.21,.11-.42,.52l-.2-.62,.36-.36Zm2.8,.28l.27-.43,.36,.38-.21,.69-.42-.64Zm.46-7.96l-.17-2.88c.08-.3,.16-.61,.22-.93l.21,4.52-.25-.71Zm-8.09-4.07c.06,.35,.13,.7,.22,1.03l-.18,3.02-.26,.72,.22-4.76Zm2.42-4.53h0s0,0,0,0h0Zm3.29-.02h0s0,0,0,0h0Zm-1.76-6.3l-.13,.13-.13-.13,.13-.13,.13,.13Zm.31-.52h.01s.02,0,.02,0h-.03Zm-3.15,.85s.03,0,.07-.02c.08-.39,.32-.48,.58-.49l.19,.02,.74,.27h0s.95,.35,.95,.35h.03s.72-.11,.72-.11l.68-.33,.81,.26c.13,.26,.21,.61,.21,1.06l-.19,1.47-.07,.6c0,1.26,.74,2.51,1.03,2.96l-1.19-.26c-.2-.28-.64-1-.64-1.81l.03-.37-.18-.03-.03,.4c0,.74,.34,1.39,.56,1.75h-.03s.16,.19,.16,.19l.05,.06s.03,.04,.03,.04h0s.27,.32,.27,.32c-.58-.22-1.23-.78-1.23-.78h0c-.09-.22-.32-.89-.32-1.52l.04-.41-.18-.03-.03,.44c0,.68,.22,1.32,.33,1.58l-.46,.61-.48-.65c.12-.28,.31-.89,.31-1.52l-.03-.44-.18,.03,.04,.41c0,.71-.29,1.46-.34,1.55-.18,.15-.69,.54-1.15,.72l.26-.31h0s.04-.04,.09-.12l.16-.2h-.03c.23-.36,.55-1.01,.55-1.74l-.03-.4-.18,.03,.03,.37c0,.78-.41,1.49-.62,1.8l-1.18,.26c.4-.52,1.52-2.07,1.53-3.44l-.02-.32c-.04-.25-.09-.5-.15-.74l-.03,.1-.39-1.03-1.1-.61Zm-6.61,21.65s0-.1,0-.17l.91-.98,.66-15.17-.87,.34c.12-1,.59-1.3,1.22-1.31,.65,0,1.5,.38,2.23,.82,.63,.38,1.29,.49,1.97,.49,.24,0,.49-.02,.73-.04-.21,.29-.37,.48-.37,.48l-.16,.2,1.45-.32-.38,.46-.15,.19,.23-.04c.59-.11,1.3-.66,1.51-.84l.5,.69,.07,.1,.58-.79c.21,.17,.92,.73,1.51,.84l.23,.04-.53-.64,1.18,.26,.23,.05-.15-.19s-.13-.19-.3-.49c.23,.02,.46,.04,.68,.04,.68,0,1.33-.11,1.96-.49,.73-.45,1.58-.83,2.23-.83,.63,.01,1.09,.32,1.21,1.32l-.87-.34,.66,15.17,.9,.98c0,.08,0,.13,0,.18h-2.27s0-.07,0-.07l-.68-.28-.08-.03-.18-.17-1.46-4.11,.47,.5-.51-9.63-.82,.36h-.23c-1.45,0-2.71-.42-3.71-1.2l-.06-.04-.06,.04c-.98,.79-2.26,1.21-3.71,1.21h-.28s-.82-.37-.82-.37l-.51,9.63,.46-.5-1.49,4.18s0,0,.01,0l-.05,.05-.05,.05-.72,.3-.05,.02v.07h-2.32Zm17.21,1.43l.65,.26-.53,.49-.26,.41-.07,.02v.4s-.47,.48-.47,.48c-1.54,.35-6.96,.51-6.96,.51h0s-5.42-.15-6.96-.51l-.48-.47v-.34s.01-.06,.01-.06l-.07-.02-.26-.41-.54-.49,.65-.25,.2-.21,.1,.02,.11,.02v-.11l.53-.48,.28-.18h0c.53,.19,1.51,.37,2.09,.46l.24,.82,.05,.18,.56-.87c.45,.06,1.01,.1,1.53,.1l.77-.04h0c.1,.3,.32,.16,.51,.72l.09,.24,.37-1.13,.02-.05-.09-.09h.52l-.05,.04-.04,.04,.31,.95,.07,.25,.09-.25c.19-.56,.4-.42,.51-.72l.77,.04c.52,0,1.08-.04,1.52-.1l.46,.71,.11,.16,.29-1c.56-.09,1.48-.26,2.02-.44,.02,0,.05-.01,.07-.02l.3,.2,.52,.47v.11l.1-.02,.1-.02,.19,.21Z"/>
  <rect class="cls-4" x="41.61" y="49.81" width=".6" height=".2"/>
  <polygon class="cls-4" points="42.55 49.98 43.11 49.95 43.1 49.77 42.54 49.8 42.55 49.98"/>
  <polygon class="cls-4" points="45.08 49.63 45.04 49.45 44.5 49.57 44.54 49.76 45.08 49.63"/>
  <polygon class="cls-4" points="45.36 49.37 45.4 49.56 45.94 49.44 45.9 49.25 45.36 49.37"/>
  <path class="cls-1" d="M33.64,49.55h0s.03,.03,.03,.03c.58,.16,1.41,.33,2.02,.44h0s.55-.59,.55-.59l.07,.1,.38,.62h0c.44,.05,1.1,.1,1.63,.1l.54-.02,.07-.05,.25-.45-.2-.2-.71,.04c-.63,0-1.32-.07-1.97-.16,0,0,0,0,0,0h0s-.02,0-.03,0c-.87-.12-1.74-.33-2.42-.55h-.07s-.18,.15-.18,.15h0s.06,.54,.06,.54Zm4.8,.27v.2h-.6v-.2h.6Zm-.93-.02v.18s-.57-.02-.57-.02v-.19s.57,.03,.57,.03Zm-3.4-.36l.04-.19,.54,.12-.04,.18-.54-.12Zm1.4,.32l-.55-.12,.04-.19,.55,.12-.04,.19Z"/>
  <polygon class="cls-1" points="36.06 50.8 36.48 50.15 36.22 49.72 35.86 50.1 36.06 50.8"/>
  <path class="cls-1" d="M39.45,50.85l.2-.62-.37-.36-.26,.47c.02,.14,.22,.11,.43,.51Z"/>
  <polygon class="cls-1" points="33.41 49.11 32.93 49.32 32.88 50.01 33.47 49.63 33.41 49.11"/>
  <rect class="cls-4" x="37.84" y="49.81" width=".6" height=".2"/>
  <polygon class="cls-4" points="36.93 49.95 37.49 49.98 37.51 49.8 36.95 49.77 36.93 49.95"/>
  <polygon class="cls-4" points="35 49.45 34.96 49.63 35.51 49.76 35.55 49.57 35 49.45"/>
  <polygon class="cls-4" points="34.69 49.37 34.15 49.25 34.11 49.44 34.65 49.56 34.69 49.37"/>
  <path class="cls-1" d="M35.9,36c.13,3.79,1.22,6.36,4.12,8.32,2.9-1.96,3.99-4.54,4.12-8.32h-.35c-1.46,0-2.74-.42-3.77-1.2-1.01,.79-2.3,1.21-3.76,1.21h-.35Zm2.8-.26l1.38-.74,.05,.03,1.21,.69c.75,.27,1.62,.4,2.51,.4h.11v.11c-.09,2.89-1,5.19-2.59,6.81l-1.3,1.1-.07-.06-1.33-1.15c-1.52-1.61-2.41-3.87-2.58-6.69v-.12s.11,0,.11,0c.94,0,1.78-.12,2.5-.37Z"/>
  <path class="cls-4" d="M36.08,36.12v.12c.18,2.82,1.07,5.08,2.59,6.69l1.33,1.15,.07,.06,1.3-1.1c1.59-1.62,2.49-3.92,2.58-6.81v-.11s-.1,0-.1,0c-.89,0-1.76-.12-2.51-.4l-1.21-.69-.05-.03-1.38,.74c-.72,.26-1.56,.37-2.5,.37h-.12Zm3.99-.99l1.22,.7v7.14l-1.22,1.04-1.32-1.15v-7.01l1.32-.71Z"/>
  <polygon class="cls-1" points="38.75 42.85 40.08 44 41.3 42.96 41.3 35.83 40.08 35.13 38.75 35.84 38.75 42.85"/>
</svg>