<?xml version="1.0" encoding="UTF-8"?>
<svg id="Layer_1" data-name="Layer 1" xmlns="http://www.w3.org/2000/svg" viewBox="0 0 80 80">
  <defs>
    <style>
      .cls-1 {
        fill: #ec2227;
      }

      .cls-2 {
        fill: #fff;
      }

      .cls-3 {
        fill: #e61d2f;
      }
    </style>
  </defs>
  <path class="cls-2" d="M79.6,64.02c.26-1.3,.4-2.64,.4-4.02v-1.61c-.33,1.87-.53,3.77-.63,5.65,.08,0,.15-.01,.23-.02Z"/>
  <path class="cls-2" d="M48.75,80h11.25c5.64,0,10.73-2.34,14.36-6.1,.32-1.81,.52-3.64,.61-5.48-2.06,.11-4.12,.35-6.14,.74,.24-1.94,.24-3.9,0-5.85,2.02,.38,4.08,.62,6.14,.74-.1-2.06-.34-4.12-.73-6.14,1.92,.24,3.86,.24,5.75,0v-9.18h-31.25v31.26Z"/>
  <path class="cls-2" d="M.41,15.97c-.27,1.3-.41,2.65-.41,4.03v1.57c.34-1.86,.54-3.74,.64-5.62-.08,0-.15,.02-.23,.02Z"/>
  <path class="cls-2" d="M31.26,0h-11.26C14.36,0,9.27,2.34,5.64,6.1c-.31,1.81-.51,3.64-.61,5.46,2.05-.1,4.11-.34,6.14-.72-.25,1.94-.25,3.9,0,5.85-2.03-.39-4.09-.63-6.14-.72,.1,2.06,.36,4.09,.72,6.12-1.9-.24-3.85-.24-5.75,0v9.17H31.26V0Z"/>
  <path class="cls-2" d="M0,48.74v9.18c1.92,.23,3.85,.23,5.75,0-.38,2.02-.62,4.08-.72,6.13,2.05-.1,4.11-.34,6.14-.72-.25,1.94-.25,3.9,0,5.85-2.03-.38-4.09-.62-6.14-.72,.09,1.84,.32,3.66,.62,5.48,3.64,3.75,8.71,6.08,14.35,6.08h11.26v-31.26H0Z"/>
  <path class="cls-2" d="M0,58.43v1.57c0,1.38,.14,2.73,.41,4.03,.08,0,.15,.02,.23,.02-.1-1.88-.3-3.77-.64-5.62Z"/>
  <path class="cls-2" d="M80,21.55v-1.55c0-1.38-.14-2.72-.4-4.01-.08,0-.15-.02-.23-.02,.1,1.87,.32,3.73,.63,5.58Z"/>
  <path class="cls-2" d="M80,31.25v-9.17c-1.89-.23-3.85-.23-5.75,0,.39-2.03,.63-4.09,.73-6.14-2.06,.11-4.12,.35-6.14,.74,.24-1.95,.24-3.91,0-5.85,2.02,.38,4.08,.62,6.14,.74-.09-1.83-.29-3.66-.61-5.47-3.64-3.76-8.72-6.1-14.36-6.1h-11.25V31.25h31.25Z"/>
  <polygon class="cls-1" points="31.26 48.74 31.26 80 48.75 80 48.75 48.74 80 48.74 80 31.25 48.75 31.25 48.75 0 31.26 0 31.26 31.25 0 31.25 0 48.74 31.26 48.74"/>
  <path class="cls-3" d="M68.84,10.84c.24,1.94,.24,3.9,0,5.85,2.02-.39,4.08-.63,6.14-.74-.1,2.05-.34,4.11-.73,6.14,1.9-.24,3.86-.24,5.75,0v-.53c-.31-1.85-.53-3.71-.63-5.58,.08,0,.15,.01,.23,.02-.77-3.8-2.63-7.2-5.23-9.88,.32,1.81,.52,3.65,.61,5.47-2.06-.11-4.12-.35-6.14-.74Z"/>
  <path class="cls-3" d="M5.75,22.09c-.37-2.03-.62-4.07-.72-6.12,2.05,.09,4.11,.33,6.14,.72-.25-1.95-.25-3.91,0-5.85-2.03,.38-4.09,.62-6.14,.72,.09-1.82,.29-3.65,.61-5.46C3.04,8.78,1.18,12.17,.41,15.97c.08,0,.15-.02,.23-.02-.1,1.88-.3,3.76-.64,5.62v.51c1.9-.23,3.85-.23,5.75,0Z"/>
  <path class="cls-3" d="M11.17,69.16c-.25-1.94-.25-3.9,0-5.85-2.03,.38-4.09,.62-6.14,.72,.1-2.04,.34-4.1,.72-6.13-1.9,.24-3.83,.24-5.75,0v.51c.34,1.86,.54,3.74,.64,5.62-.08,0-.15-.02-.23-.02,.78,3.8,2.64,7.2,5.25,9.88-.3-1.82-.53-3.64-.62-5.48,2.05,.1,4.11,.34,6.14,.72Z"/>
  <path class="cls-3" d="M74.25,57.91c.39,2.02,.63,4.08,.73,6.14-2.06-.12-4.12-.36-6.14-.74,.24,1.94,.24,3.9,0,5.85,2.02-.38,4.08-.62,6.14-.74-.09,1.83-.29,3.66-.61,5.48,2.6-2.68,4.46-6.08,5.23-9.88-.08,0-.15,.02-.23,.02,.1-1.88,.3-3.78,.63-5.65v-.47c-1.89,.23-3.83,.23-5.75,0Z"/>
</svg>