<?xml version="1.0" encoding="UTF-8"?>
<svg id="Layer_1" data-name="Layer 1" xmlns="http://www.w3.org/2000/svg" viewBox="0 0 80 80">
  <defs>
    <style>
      .cls-1 {
        fill: #fff;
      }

      .cls-2 {
        fill: #f6d70f;
      }

      .cls-3 {
        fill: #d81f26;
      }
    </style>
  </defs>
  <polygon class="cls-1" points="40.33 54.58 40.44 54.54 39.74 54.58 40.33 54.58"/>
  <path class="cls-1" d="M40.8,54.49s-.07,.07-.1,.09h.1v-.09Z"/>
  <polygon class="cls-1" points="39.11 54.58 38.98 54.34 38.98 54.58 39.11 54.58"/>
  <polygon class="cls-1" points="39.04 54.2 39.07 54.25 39.05 54.2 39.04 54.2"/>
  <path class="cls-1" d="M38.15,54.18h-10.65v-.98H15.28v-2.15h0v-.03h.05l2.84-1.86V30.61h-1.21v-1.51h-1.7v-3.66h1.78v1.92h2.52v-1.92h1.93V13.87h-.72v-1.6h-1.25v-3.22h2.39v1.55h2v-1.55h3.49v1.55h2.01v-1.55h1.97v3.22h-.7v1.6h-.66v11.59h.35v1.91h2.85v-1.91s.94,0,.94,0V10.78h-1.05v-2.11h-1.28v-2.63h2.2v1.36h2.12v-1.36h2.78v1.36h2.12v-1.36h2.78v1.36h2.12v-1.36h2.21v2.63h-1.28v2.11h-1.05v14.67h.95v1.91h2.85v-1.91h.35V13.87h-.66v-1.6h-.7v-3.22h1.97v1.55h2.01v-1.55h3.5v1.55h2.01v-1.55h2.39v3.22h-1.25v1.6h-.72v11.58h1.93v1.92h2.51v-1.92h1.78v3.66h-1.7v1.51h-1.21v18.54l2.83,1.86h.05v2.18h-12.22v.98h-10.87v.4h38.38V20c0-11.05-8.95-20-20-20H20C8.95,0,0,8.95,0,20V54.58H38.15v-.4Z"/>
  <polygon class="cls-3" points="38.98 56.61 39.89 56.08 40.8 56.61 40.8 54.58 40.7 54.58 39.84 54.88 39.15 54.66 39.11 54.58 38.98 54.58 38.98 56.61"/>
  <path class="cls-3" d="M20,80h13.21v-2.6h1.85v1.34h2.11v-1.34h1.8v-1.11h-1.8v-1.34h-2.11v1.34h-1.85v-2.85h5.76v-10.71l-3.84-2.23h-1.33v-1.65h1.33l3.03-1.76v-2.51H0v5.42c0,11.05,8.95,20,20,20Z"/>
  <path class="cls-3" d="M38.23,58.68l-1.71,.99,3.37,1.95,3.37-1.95-1.72-1c-.21,.57-.86,.97-1.65,.97s-1.45-.4-1.66-.97Z"/>
  <polygon class="cls-3" points="40.68 58.18 39.89 57.72 39.23 58.1 39.89 58.76 40.68 58.18"/>
  <path class="cls-3" d="M41.62,57.09l3.03,1.76h1.33v1.65h-1.33l-3.84,2.23v17.27h19.19c11.05,0,20-8.95,20-20v-5.42H41.62v2.51Z"/>
  <polygon class="cls-3" points="39.37 54.6 39.84 54.75 40.33 54.58 39.74 54.58 39.37 54.6"/>
  <polygon class="cls-3" points="28.92 51.01 30.81 50.09 30.81 49.28 28.51 49.28 22.26 49.28 18.28 49.28 15.64 51.01 28.92 51.01"/>
  <polygon class="cls-3" points="27.51 51.7 28.57 51.18 15.45 51.18 15.45 53.02 27.51 53.02 27.51 51.7"/>
  <polygon class="cls-3" points="57.74 49.28 51.49 49.28 49.18 49.28 49.18 50.09 51.08 51.01 64.35 51.01 61.72 49.28 57.74 49.28"/>
  <polygon class="cls-3" points="64.55 53.02 64.55 51.18 51.42 51.18 52.49 51.7 52.49 53.02 64.55 53.02"/>
  <path class="cls-3" d="M41.37,50.25h-2.45c.46,.28,.9,.54,1.28,.81l1.16-.81Z"/>
  <path class="cls-3" d="M52.32,54.01v-2.17h-10.9l-.23,.17h0c.08,.16,.16,.37,.23,.68l.05,.43s-.01,.08-.02,.11c.11,.17,.17,.37,.18,.58v.2h10.7Z"/>
  <polygon class="cls-3" points="39.79 53.46 39.86 53.48 39.89 53.48 39.96 53.44 39.89 53.36 39.79 53.46"/>
  <path class="cls-3" d="M38.15,53.8c0-.17,.05-.34,.12-.49h0s.08-.18,.08-.18c.03-.23,.12-.59,.43-.94h0s.04-.06,.04-.06l.08-.17,.16-.11s-.03-.02-.05-.03h-11.33v2.17h10.47v-.2Z"/>
  <path class="cls-3" d="M27.97,51.66h10.78c-.17-.1-.34-.21-.52-.32-.62-.37-1.31-.75-1.99-1.09h-5.36l-2.91,1.41Z"/>
  <path class="cls-3" d="M52.03,51.66l-2.9-1.41h-5.34c-.47,.28-.96,.58-1.43,.89l-.7,.52h10.38Z"/>
  <path class="cls-3" d="M22.09,49.11v-4.84c0-1.89,1.45-3.57,3.3-3.57,1.82,0,3.29,1.6,3.3,3.57v4.84h2.13v-16.97h-1.98v-1.53h-10.49v18.5h3.76Z"/>
  <polygon class="cls-3" points="27.92 30.44 27.92 29.11 17.13 29.11 17.13 30.44 18.16 30.44 27.92 30.44"/>
  <path class="cls-2" d="M44.61,48.47c-.21,.11-.42,.21-.66,.35,0,0-.01,0-.02,.01l.38,.97s.09-.06,.14-.08c.08-.04,.15-.08,.23-.12v-.95l-.06-.18Z"/>
  <path class="cls-2" d="M42.76,50.74l-.08,.03-.41-.95c-.19,.12-.38,.24-.57,.36l-.08,.06,.51,.9-.11,.07-.51-.89-.61,.43,.57,.9,.81-.6c.16-.1,.32-.2,.47-.3Z"/>
  <path class="cls-2" d="M38.79,52.21h0c-.3,.34-.4,.7-.43,.93l.44-.93Z"/>
  <path class="cls-2" d="M43.45,50.3l-.41-.96c-.22,.13-.44,.27-.66,.41l.41,.97c.22-.14,.44-.28,.66-.42h0Z"/>
  <path class="cls-2" d="M39.36,52.54c.17-.04,.34-.07,.52-.07,0,0,0,0,.01,0-.2-.17-.44-.35-.72-.53l-.2,.14-.04,.09,.43,.36h0Z"/>
  <path class="cls-2" d="M39.22,52.57l-.34-.28-.31,.65c.18-.16,.4-.29,.65-.37Z"/>
  <path class="cls-2" d="M44.19,49.87l-.38-.97c-.21,.12-.43,.25-.65,.38l.41,.96c.22-.13,.42-.25,.63-.37Z"/>
  <path class="cls-2" d="M41.36,51.71l-.57-.9-.47,.33c.19,.14,.37,.28,.53,.42,.1,.09,.19,.19,.27,.33l.24-.18Z"/>
  <polygon class="cls-2" points="38.97 76.12 38.97 73.61 33.38 73.61 33.38 76.12 34.89 76.12 34.89 74.77 37.34 74.77 37.34 76.12 38.97 76.12"/>
  <polygon class="cls-2" points="37.34 77.57 37.34 78.91 34.89 78.91 34.89 77.57 33.38 77.57 33.38 80 38.97 80 38.97 77.57 37.34 77.57"/>
  <polygon class="cls-2" points="40.63 64.63 40.63 62.83 39.89 63.27 39.14 62.83 39.14 64.63 40.63 64.63"/>
  <path d="M40.81,62.73l3.84-2.23h1.33v-1.65h-1.33l-3.03-1.76v-2.91h10.87v-.98h12.22v-2.18h-.05l-2.83-1.86V30.61h1.21v-1.51h1.7v-3.66h-1.78v1.92h-2.51v-1.92h-1.93V13.87h.72v-1.6h1.25v-3.22h-2.39v1.55h-2.01v-1.55h-3.5v1.55h-2.01v-1.55h-1.97v3.22h.7v1.6h.66v11.59h-.35v1.91h-2.85v-1.91h-.95V10.78h1.05v-2.11h1.28v-2.63h-2.21v1.36h-2.12v-1.36h-2.78v1.36h-2.12v-1.36h-2.78v1.36h-2.12v-1.36h-2.2v2.63h1.28v2.11h1.05v14.67h-.94v1.91s-2.85,0-2.85,0v-1.91h-.35V13.87h.66v-1.6h.7v-3.22h-1.97v1.55h-2.01v-1.55h-3.49v1.55h-2v-1.55h-2.39v3.22h1.25v1.6h.72v11.58h-1.93v1.92h-2.52v-1.92h-1.78v3.66h1.7v1.51h1.21v18.54l-2.84,1.86h-.05v.03h0v2.15h12.23v.98h10.65v2.91l-3.03,1.76h-1.33v1.65h1.33l3.84,2.23v10.71h-5.76v2.85h1.85v-1.34h2.11v1.34h1.8v1.11h-1.8v1.34h-2.11v-1.34h-1.85v2.6h.17v-2.43h1.51v1.34h2.45v-1.34h1.63v2.43h.17v-15.2h1.49v15.2h.17v-17.27Zm-6.84-3.71h1.23s2.96-1.73,2.96-1.73v1.03c0,.06,.01,.12,.03,.19l-2.01,1.17,3.71,2.15,3.72-2.15-2-1.17h0s-.82-.49-.82-.49h0s-.89-.51-.89-.51l-.04,.03-.74,.43-.12-.12v-1.04l.91-.52,4.72,2.73h1.2v1.31h-1.2l-4.72,2.74-4.72-2.74h-1.2v-1.31Zm-6.29-7.19h11.33s.03,.02,.05,.03l-.16,.11-.08,.17-.04,.05h0s0,.01,0,.01l-.44,.93-.08,.17h0c-.08,.16-.12,.32-.12,.5v.2h-10.47v-2.17ZM15.43,25.63h1.43v1.91h2.86v-1.91h3.79v1.91h4.41v1.39H15.43v-3.31Zm4.25-16.4h2.05v1.55h2.34v-1.55h3.15v1.55h2.35v-1.55h1.63v2.88h-11.53v-2.88Zm1.25,3.05h9.58v1.42h-9.58v-1.42Zm.72,1.6h8.2v11.59h-1.76v-3.14c0-1.29-1.05-2.34-2.35-2.34h-.12c-1.23,.06-2.12,1.08-2.12,2.32v3.16h-1.86V13.87Zm8.55,13.66h3.19v-1.9s.77,0,.77,0h3.11v1.92h5.47v-1.92h3.88v1.9h3.19v-1.9s.17,0,.17,0h1.92v4.81H28.1v-4.81h2.1v1.9Zm1.8-21.32h1.86v1.35h2.46v-1.35h2.45v1.35h2.46v-1.35h2.45v1.35h2.46v-1.35h1.86v2.29h-16v-2.29Zm1.29,2.46h13.43v1.94h-13.43v-1.94Zm1.05,2.11h11.33v14.67h-2.93v-4.3l-.11-.3c-.04-.35-.16-.71-.38-1.04l-.11-.31c-.43-.49-1.12-.86-2.13-.86s-1.71,.37-2.14,.86l-.12,.32c-.21,.33-.32,.68-.37,1.02l-.11,.31v4.31h-2.93V10.78Zm14.46-1.56h1.63v1.55h2.35v-1.55h3.15v1.55h2.35v-1.55h2.04v2.88h-11.53v-2.88Zm.7,3.05h9.58v1.42h-9.58v-1.42Zm.66,1.6h8.21v11.58h-1.86v-3.16c0-1.24-.89-2.26-2.12-2.32h-.12c-1.29,0-2.35,1.05-2.35,2.34v3.14h-1.75V13.87Zm12.99,13.67v-1.91h1.43v3.31h-12.5v-1.39h4.41v-1.91h3.79v1.91h2.86Zm-.27,2.9h-10.8v-1.33h10.8v1.33Zm-21.34,28.24l1.72,1-3.37,1.95-3.37-1.95,1.71-.99c.21,.57,.88,.97,1.66,.97s1.44-.4,1.65-.97Zm-2.31-.58l.66-.38,.79,.46-.79,.58-.66-.66Zm.67-4.62h-.03l-.07-.02,.1-.1,.08,.07-.07,.05Zm-.51,.03l.08-.06,.39,.16h.04s.54-.39,.54-.39v-.05s.9-.02,.9-.02c-.02,.52-.28,.92-.58,1.2l-.55-.86-.11,.07,.56,.87,.05-.03s-.05,.05-.08,.07l-.17,.06-.11,.04-.49,.17-.47-.15-.14-.04-.02-.04,.48-.92-.11-.06-.45,.85-.07-.12-.03-.05h0s-.07-.2-.07-.2l.02-.07,.38-.43Zm.79-.91h.02s.62-.88,.62-.88c.19,.19,.33,.37,.48,.99l.04,.32-.91,.02v.03s-.25-.48-.25-.48Zm-1.54-1.16l.6-.85c.28,.17,.54,.33,.78,.49l-.69,.8c-.21-.14-.45-.29-.69-.43Zm-9.62-20.82h21.99v1.36H29v-1.36Zm11.11,21.88v-.02c-.19-.17-.43-.35-.69-.53l.69-.8c.23,.16,.44,.31,.61,.48l-.6,.86Zm8.9-3.38v.97h-4.17v-6.7c0-1.62-.55-2.82-1.43-3.61-.88-.79-2.09-1.17-3.4-1.17s-2.57,.38-3.44,1.17c-.87,.79-1.4,1.99-1.4,3.61v6.7h-4.17v-17.94h18.02v16.97Zm-7.54,2.52l-.57-.9,.61-.43,.51,.89,.11-.07-.51-.9,.08-.06c.19-.12,.38-.24,.57-.36l.41,.95,.08-.03c-.16,.1-.32,.2-.47,.3l-.81,.6Zm-4.67-1.24l.53-.89c.28,.15,.54,.3,.81,.45l-.57,.87c-.26-.15-.51-.29-.78-.43Zm6,.31l-.41-.97c.22-.14,.44-.28,.66-.41l.41,.96h0c-.22,.13-.44,.27-.66,.42Zm-7.46-1.04v-1.15c.28,.12,.57,.26,.86,.4l-.45,.94c-.14-.07-.27-.13-.4-.19Zm9.11,.05s-.09,.05-.14,.08l-.38-.97s.01,0,.02-.01c.24-.13,.45-.24,.66-.35l.06,.18v.95c-.08,.04-.15,.08-.23,.12Zm-.88,.51l-.41-.96c.22-.13,.44-.26,.65-.38l.38,.97c-.2,.12-.41,.24-.63,.37Zm-7.71-.32l.45-.94c.3,.15,.6,.31,.91,.47l-.53,.9c-.28-.15-.55-.29-.83-.43Zm4.15,.34h1.37l-1.16,.81c-.39-.27-.82-.53-1.28-.81h1.08Zm-1.71,.98c-.19-.12-.4-.23-.6-.35l.57-.87c.19,.11,.39,.22,.57,.33,.1,.06,.19,.11,.28,.17l-.6,.85c-.07-.04-.14-.09-.22-.13Zm2.55,.33c-.16-.14-.34-.28-.53-.42l.47-.33,.57,.9-.24,.18c-.08-.13-.17-.23-.27-.33Zm1.5-.42c.48-.32,.96-.62,1.43-.89h5.34l2.9,1.41h-10.38l.7-.52Zm-11.47-.89h5.36c.68,.35,1.37,.72,1.99,1.09,.18,.11,.36,.21,.52,.32h-10.78l2.91-1.41Zm8.23,4.33l.04,.08,.69,.22,.85-.3s.07-.06,.1-.09v2.12l-.91-.53-.91,.53v-2.27l.13,.24Zm-.13-2.5l.2-.14c.28,.18,.52,.36,.72,.53,0,0,0,0-.01,0-.18,0-.36,.03-.52,.07h0s-.43-.37-.43-.37l.04-.09Zm.24,.49c-.25,.08-.47,.21-.65,.37l.31-.65,.34,.28Zm1.74,4.13v-2.37c.19-.21,.36-.48,.44-.8,.03,.09,.05,.18,.05,.27v3.17l-.49-.28Zm.48-3.47s.02-.07,.02-.11l-.05-.43c-.07-.31-.15-.52-.23-.68h0s.23-.17,.23-.17h10.9v2.17h-10.7v-.2c0-.21-.07-.4-.18-.58Zm9.98-2.04h13.12v1.84h-12.05v-1.32l-1.07-.52Zm-.35-.17l-1.9-.92v-.81h12.54l2.63,1.73h-13.27Zm10.59-1.9h-3.76v-4.84c0-1.89-1.45-3.57-3.29-3.57-1.82,0-3.29,1.6-3.29,3.57v4.84h-2.14v-16.97h1.99v-1.53h10.5v18.5ZM17.13,29.11h10.8v1.33h-10.8v-1.33Zm1.21,1.51h10.49v1.53h1.98v16.97h-2.13v-4.84c0-1.97-1.48-3.57-3.3-3.57-1.85,0-3.3,1.68-3.3,3.57v4.84h-3.76V30.61Zm-.06,18.67h12.54v.81l-1.89,.92H15.64l2.63-1.73Zm-2.83,1.9h13.13l-1.07,.52v1.32H15.45v-1.84Zm22.88,2.62c0-.62,.68-1.16,1.56-1.16,.06,0,.11,0,.17,.01l.24,.47v.08s0,0,0,0l-.07,.05c-.11-.04-.22-.07-.34-.07-.48,0-.88,.32-1.01,.76l-.04,.12h0c-.01,.08-.04,.13-.04,.2v3.59c0,.6,.48,1.08,1.08,1.08l.99-.66,.53,.31c-.15,.5-.77,.9-1.52,.9-.88,0-1.56-.54-1.56-1.16v-4.52Zm1.56,9.46l.75-.43v1.8h-1.49v-1.8l.74,.43Zm-5,11.51v1.34h-1.51v-2.51h5.59v2.51h-1.63v-1.34h-2.45Z"/>
  <path class="cls-2" d="M39.89,63.06l4.72-2.74h1.2v-1.31h-1.2l-4.72-2.73-.91,.52v1.04l.12,.12,.74-.43,.04-.03,.89,.52h0s.82,.47,.82,.47h0s2,1.18,2,1.18l-3.72,2.15-3.71-2.15,2.01-1.17c-.01-.06-.03-.12-.03-.19v-1.03l-2.96,1.71h-.02s-1.2,.01-1.2,.01v1.31h1.2l4.72,2.74Z"/>
  <rect class="cls-2" x="39.14" y="64.8" width="1.49" height="15.2"/>
  <path class="cls-2" d="M41.45,53.8c0-.09-.02-.18-.05-.27-.08,.32-.25,.59-.44,.8v2.37l.49,.28v-3.17Z"/>
  <path class="cls-2" d="M38.33,58.32c0,.62,.68,1.16,1.56,1.16,.75,0,1.37-.4,1.52-.9l-.53-.31-.99,.66c-.59,0-1.08-.48-1.08-1.08v-3.59c0-.06,.03-.12,.04-.18h0s.04-.14,.04-.14c.14-.44,.53-.76,1.01-.76,.12,0,.24,.03,.34,.07l.07-.05h0v-.08s-.24-.47-.24-.47c-.06,0-.11-.01-.17-.01-.88,0-1.56,.54-1.56,1.16v4.52Z"/>
  <path class="cls-2" d="M35.33,48.52v1.15c.13,.06,.27,.12,.4,.19l.45-.94c-.29-.14-.58-.28-.86-.4Z"/>
  <path class="cls-2" d="M38.82,50.35c-.18-.11-.38-.22-.57-.33l-.57,.87c.2,.12,.41,.23,.6,.35,.07,.04,.14,.09,.22,.13l.6-.85c-.09-.06-.19-.11-.28-.17Z"/>
  <path class="cls-2" d="M36.68,50.34l.53-.9c-.3-.16-.6-.32-.91-.47l-.45,.94c.28,.14,.55,.28,.83,.43Z"/>
  <path class="cls-2" d="M38.14,49.95c-.27-.15-.54-.3-.81-.45l-.53,.89c.27,.14,.52,.28,.78,.43l.57-.87Z"/>
  <path class="cls-2" d="M39.31,51.87l.69-.8c-.24-.16-.5-.32-.78-.49l-.6,.85c.24,.15,.47,.29,.69,.43Z"/>
  <path class="cls-2" d="M40.71,51.62c-.18-.16-.39-.32-.61-.48l-.69,.8c.26,.18,.5,.36,.68,.53v.02s.61-.86,.61-.86Z"/>
  <path class="cls-2" d="M40.41,53.08v-.03s.91-.02,.91-.02l-.04-.32c-.14-.62-.29-.81-.48-.99l-.62,.9h-.02s.25,.47,.25,.47Z"/>
  <path class="cls-2" d="M38.98,54.01l.07,.19,.02,.06,.07,.12,.45-.85,.11,.06-.48,.92,.02,.04,.14,.04,.37-.02,.7-.04,.17-.06s.05-.05,.08-.07l-.05,.03-.56-.87,.11-.07,.55,.86c.3-.28,.57-.68,.58-1.2l-.89,.02v.05s-.54,.39-.54,.39h-.04s-.39-.16-.39-.16l-.08,.06-.38,.43-.02,.07Z"/>
  <polygon class="cls-3" points="52.08 29.11 52.08 30.44 61.83 30.44 62.87 30.44 62.87 29.11 52.08 29.11"/>
  <path class="cls-3" d="M23.51,25.45v-3.16c0-1.24,.89-2.27,2.12-2.32h.12c1.29,0,2.35,1.05,2.35,2.34v3.14h1.76V13.87h-8.2v11.58h1.86Z"/>
  <polygon class="cls-3" points="27.92 28.93 27.92 27.54 23.51 27.54 23.51 25.63 21.48 25.63 19.72 25.63 19.72 27.54 16.86 27.54 16.86 25.63 15.43 25.63 15.43 28.93 16.95 28.93 27.92 28.93"/>
  <path class="cls-3" d="M37.27,25.46v-4.31l.11-.31c.04-.34,.16-.69,.37-1.02l.12-.32c.43-.49,1.12-.86,2.14-.86s1.7,.37,2.13,.86l.11,.31c.21,.33,.33,.7,.38,1.04l.11,.3v4.3h2.93V10.78h-11.33v14.67h2.93Zm4.9-12.09v-.09h1.14v3.89h-1.14v-3.81Zm-2.73-1v-.09h1.13v5.25h-1.13v-5.17Zm-2.75,1v-.09h1.14v3.89h-1.14v-3.81Z"/>
  <polygon points="40.56 17.53 40.56 12.28 40 12.28 39.44 12.28 39.44 12.37 39.44 17.53 40 17.53 40.56 17.53"/>
  <polygon points="43.31 13.28 42.17 13.28 42.17 13.36 42.17 17.17 43.31 17.17 43.31 13.28"/>
  <polygon points="37.83 13.28 36.69 13.28 36.69 13.36 36.69 17.17 37.83 17.17 37.83 13.28"/>
  <polygon class="cls-3" points="40 10.62 45.84 10.62 46.72 10.62 46.72 8.67 40 8.67 33.29 8.67 33.29 10.62 34.16 10.62 40 10.62"/>
  <polygon class="cls-3" points="40 8.5 46.89 8.5 48 8.5 48 6.21 46.14 6.21 46.14 7.57 43.68 7.57 43.68 6.21 41.23 6.21 41.23 7.57 40 7.57 38.77 7.57 38.77 6.21 36.32 6.21 36.32 7.57 33.86 7.57 33.86 6.21 32 6.21 32 8.5 33.11 8.5 40 8.5"/>
  <polygon class="cls-3" points="30.02 13.69 30.51 13.69 30.51 12.28 20.93 12.28 20.93 13.69 21.48 13.69 30.02 13.69"/>
  <polygon class="cls-3" points="30.68 12.1 31.21 12.1 31.21 9.22 29.57 9.22 29.57 10.77 27.22 10.77 27.22 9.22 24.07 9.22 24.07 10.77 21.73 10.77 21.73 9.22 19.68 9.22 19.68 12.1 20.76 12.1 30.68 12.1"/>
  <path class="cls-3" d="M52.08,30.61h-.91v1.53h-1.99v16.97h2.14v-4.84c0-1.97,1.47-3.57,3.29-3.57,1.84,0,3.29,1.68,3.29,3.57v4.84h3.76V30.61h-9.59Z"/>
  <polygon class="cls-3" points="30.9 31.97 40 31.97 49.1 31.97 50.99 31.97 50.99 30.61 49.18 30.61 47.8 30.61 40 30.61 32.2 30.61 30.81 30.61 29 30.61 29 31.97 30.9 31.97"/>
  <polygon class="cls-3" points="58.52 25.63 56.49 25.63 56.49 27.54 52.08 27.54 52.08 28.93 63.05 28.93 64.57 28.93 64.57 25.63 63.14 25.63 63.14 27.54 60.28 27.54 60.28 25.63 58.52 25.63"/>
  <path class="cls-3" d="M51.9,25.46v-3.14c0-1.29,1.05-2.34,2.35-2.34h.12c1.23,.06,2.12,1.08,2.12,2.32v3.16h1.86V13.87h-8.21v11.59h1.75Z"/>
  <polygon class="cls-3" points="30.02 25.63 28.1 25.63 28.1 30.44 28.83 30.44 30.99 30.44 32.03 30.44 40 30.44 47.97 30.44 49.01 30.44 51.17 30.44 51.9 30.44 51.9 25.63 49.98 25.63 49.81 25.63 49.81 27.53 46.61 27.53 46.61 25.63 42.73 25.63 42.73 27.55 40 27.55 37.27 27.55 37.27 25.63 34.16 25.63 33.39 25.63 33.39 27.53 30.2 27.53 30.19 25.63 30.02 25.63"/>
  <polygon class="cls-3" points="58.44 13.69 58.52 13.69 59.07 13.69 59.07 12.28 49.49 12.28 49.49 13.69 49.98 13.69 58.44 13.69"/>
  <polygon class="cls-3" points="59.16 12.1 59.24 12.1 60.32 12.1 60.32 9.22 58.27 9.22 58.27 10.77 55.92 10.77 55.92 9.22 52.77 9.22 52.77 10.77 50.42 10.77 50.42 9.22 48.79 9.22 48.79 12.1 49.32 12.1 59.16 12.1"/>
  <path class="cls-3" d="M40,32.14h-9.01v17.94h4.17v-6.7c0-1.61,.52-2.82,1.4-3.61,.87-.8,2.08-1.17,3.44-1.17s2.52,.38,3.4,1.17c.89,.79,1.43,1.99,1.43,3.61v6.7h4.17v-17.94h-9.01Z"/>
</svg>