<?xml version="1.0" encoding="UTF-8"?>
<svg id="Layer_1" data-name="Layer 1" xmlns="http://www.w3.org/2000/svg" viewBox="0 0 80 80">
  <defs>
    <style>
      .cls-1 {
        fill: #fff;
      }

      .cls-2 {
        fill: #cf1f34;
      }
    </style>
  </defs>
  <path class="cls-1" d="M29.84,10.9c16.07,0,29.1,13.03,29.1,29.1h21.06V20c0-11.05-8.95-20-20-20H20C8.95,0,0,8.95,0,20v20H.73C.73,23.93,13.76,10.9,29.84,10.9Z"/>
  <path class="cls-2" d="M20,80H60c11.05,0,20-8.95,20-20v-20h-21.06c0,16.08-13.03,29.11-29.1,29.11S.73,56.08,.73,40H0v20c0,11.05,8.95,20,20,20Z"/>
  <path class="cls-1" d="M29.84,69.11c16.07,0,29.1-13.03,29.1-29.11H.73c0,16.08,13.03,29.11,29.11,29.11Z"/>
  <path class="cls-2" d="M29.84,10.9C13.76,10.9,.73,23.93,.73,40H58.94c0-16.07-13.03-29.1-29.1-29.1Z"/>
</svg>