<?xml version="1.0" encoding="UTF-8"?>
<svg id="Layer_1" data-name="Layer 1" xmlns="http://www.w3.org/2000/svg" viewBox="0 0 80 80">
  <defs>
    <style>
      .cls-1 {
        fill: #fff;
      }

      .cls-2 {
        fill: #0062aa;
      }
    </style>
  </defs>
  <path class="cls-2" d="M0,60c0,1.48,.17,2.91,.47,4.3H79.53c.3-1.39,.47-2.82,.47-4.3v-5.42H0v5.42Z"/>
  <path class="cls-2" d="M20,80H60c5.59,0,10.63-2.3,14.26-5.99H5.74c3.63,3.69,8.67,5.99,14.26,5.99Z"/>
  <path class="cls-1" d="M5.74,74.01H74.26c2.59-2.63,4.45-5.98,5.26-9.72H.47c.82,3.74,2.68,7.08,5.26,9.72Z"/>
  <rect class="cls-1" x="22.99" y="25.43" width="57.01" height="9.72"/>
  <path class="cls-2" d="M22.99,25.43h57.01v-5.43c0-1.47-.17-2.91-.47-4.29H22.99v9.72Z"/>
  <path class="cls-1" d="M22.99,5.99V15.7H3.56v-7.07C1.32,11.86,0,15.77,0,20V54.58H80v-9.72H3.56V25.43H22.99V15.71h56.53c-.82-3.74-2.68-7.08-5.26-9.72H22.99Z"/>
  <path class="cls-2" d="M22.99,15.7V5.99h51.27c-3.63-3.69-8.68-5.99-14.26-5.99H20C13.18,0,7.17,3.42,3.56,8.63v7.07H22.99Z"/>
  <polygon class="cls-2" points="22.99 25.43 3.56 25.43 3.56 44.86 80 44.86 80 35.14 22.99 35.14 22.99 25.43"/>
</svg>