<?xml version="1.0" encoding="UTF-8"?>
<svg id="Layer_1" data-name="Layer 1" xmlns="http://www.w3.org/2000/svg" viewBox="0 0 80 80">
  <defs>
    <style>
      .cls-1 {
        fill: #037b5f;
      }

      .cls-2 {
        fill: #cd2028;
      }

      .cls-3 {
        fill: #fbd015;
      }
    </style>
  </defs>
  <path class="cls-2" d="M9.81,77.19h2.79l1.17-3.6,1.16,3.6h3.78l-3.06,2.22,.04,.11c1.39,.31,2.83,.48,4.31,.48h17.92l.19-.59-3.06-2.22h3.78l1.17-3.6,1.16,3.6h3.78l-3.06,2.22,.19,.59h17.92c1.48,0,2.92-.17,4.31-.48l.04-.11-3.06-2.22h3.78l1.17-3.6,1.16,3.6h2.79c1.96-1.17,3.72-2.64,5.17-4.39H4.64c1.45,1.74,3.21,3.22,5.17,4.39Z"/>
  <path class="cls-2" d="M4.63,7.2H75.37c-1.74-2.09-3.92-3.81-6.37-5.05l-.86,.63,1.17,3.59-3.05-2.22-3.06,2.22,1.16-3.59-3.06-2.23h3.32c-1.48-.35-3.02-.56-4.61-.56h-19.01l.18,.56h3.78l-3.06,2.23,1.17,3.59-3.06-2.22-3.06,2.22,1.16-3.59-3.06-2.23h3.78l.18-.56H20c-1.59,0-3.13,.21-4.61,.56h3.33l-3.06,2.23,1.17,3.59-3.06-2.22-3.06,2.22,1.16-3.59-.86-.63c-2.46,1.24-4.63,2.96-6.37,5.05Z"/>
  <path class="cls-1" d="M29.07,40c0-2.06,.58-3.97,1.57-5.62L.37,16.22c-.23,1.23-.37,2.49-.37,3.78v19.57c.69,1.74,.61,3.82,0,5.57v14.86c0,1.29,.13,2.56,.37,3.78l30.27-18.16c-.99-1.64-1.57-3.56-1.57-5.62Z"/>
  <path class="cls-3" d="M.37,16.22l30.27,18.16c1.91-3.18,5.38-5.31,9.36-5.31s7.45,2.13,9.37,5.31l30.27-18.16c-.65-3.39-2.14-6.47-4.27-9.02H4.63C2.51,9.75,1.02,12.83,.37,16.22Z"/>
  <path class="cls-3" d="M40,50.93c-3.98,0-7.45-2.13-9.36-5.31L.37,63.78c.65,3.39,2.14,6.47,4.27,9.02H75.36c2.12-2.55,3.62-5.63,4.27-9.02l-30.27-18.16c-1.91,3.18-5.39,5.31-9.37,5.31Z"/>
  <path class="cls-1" d="M50.93,40c0,2.06-.58,3.98-1.57,5.62l30.27,18.16c.23-1.23,.37-2.49,.37-3.78V20c0-1.29-.13-2.55-.37-3.78l-30.27,18.16c.99,1.64,1.57,3.56,1.57,5.62Z"/>
  <path class="cls-2" d="M30.64,45.62c1.91,3.18,5.38,5.31,9.36,5.31s7.45-2.13,9.37-5.31c.99-1.64,1.57-3.56,1.57-5.62s-.58-3.98-1.57-5.62c-1.91-3.18-5.39-5.31-9.37-5.31s-7.45,2.13-9.36,5.31c-.99,1.64-1.57,3.56-1.57,5.62s.58,3.98,1.57,5.62Zm9.36-15l2.17,6.65h7l-5.66,4.11,2.16,6.66-5.67-4.12-5.66,4.12,2.16-6.66-5.67-4.11h7l2.16-6.65Z"/>
  <polygon class="cls-3" points="30.84 37.28 36.5 41.39 34.34 48.05 40 43.94 45.67 48.05 43.51 41.39 49.17 37.28 42.17 37.28 40 30.62 37.84 37.28 30.84 37.28"/>
  <path class="cls-3" d="M0,39.57v5.57c.61-1.75,.69-3.83,0-5.57Z"/>
  <path class="cls-3" d="M10.71,6.38l3.06-2.22,3.06,2.22-1.17-3.59,3.06-2.23h-3.33c-1.54,.36-3,.9-4.38,1.6l.86,.63-1.16,3.59Z"/>
  <polygon class="cls-3" points="35.05 .56 38.11 2.78 36.95 6.38 40 4.16 43.06 6.38 41.89 2.78 44.95 .56 41.17 .56 40.99 0 39.02 0 38.84 .56 35.05 .56"/>
  <path class="cls-3" d="M64.35,2.78l-1.16,3.59,3.06-2.22,3.05,2.22-1.17-3.59,.86-.63c-1.38-.7-2.84-1.23-4.38-1.6h-3.32l3.06,2.23Z"/>
  <path class="cls-3" d="M18.71,77.19h-3.78l-1.16-3.6-1.17,3.6h-2.79c1.8,1.07,3.78,1.87,5.88,2.34l-.04-.11,3.06-2.22Z"/>
  <polygon class="cls-3" points="44.95 77.19 41.17 77.19 40 73.59 38.84 77.19 35.05 77.19 38.11 79.41 37.92 80 42.08 80 41.89 79.41 44.95 77.19"/>
  <path class="cls-3" d="M66.24,73.59l-1.17,3.6h-3.78l3.06,2.22-.04,.11c2.11-.46,4.08-1.27,5.88-2.34h-2.79l-1.16-3.6Z"/>
</svg>