<?xml version="1.0" encoding="UTF-8"?>
<svg id="Layer_1" data-name="Layer 1" xmlns="http://www.w3.org/2000/svg" viewBox="0 0 80 80">
  <defs>
    <style>
      .cls-1 {
        fill: #fff;
      }

      .cls-2 {
        fill: #ec2224;
      }
    </style>
  </defs>
  <path class="cls-2" d="M60,0H20C8.95,0,0,8.95,0,20V60c0,11.05,8.95,20,20,20H60c11.05,0,20-8.95,20-20V20c0-11.05-8.95-20-20-20ZM31.47,22.4c1.55-3.7,7.27-8.8,14.31-7.04-2.72,1.36-4.54,3.24-2.77,5.91,1.94,2.93,1.03,7.35-2.74,9.12-2.72,1.29-5.13,5.79-2.32,9.29-1.35-1.05-2.86-2.44-3.34-6.19l-.09-1.45c0-1.82,.45-3.25,.88-4.23,.44-.97,.89-1.47,.88-1.47l-.02-.24-.23,.02s-1.84,2.17-1.84,5.92l.09,1.49c.5,4.06,2.3,5.52,3.7,6.6-6.31-3.04-9.23-11.23-6.5-17.75Zm-14.35,3.36c.43,3.01,1.62,5.33,4.72,4.51,3.4-.91,7.29,1.36,7.77,5.5,.35,3,3.87,6.7,8.08,5.15-1.42,.94-3.23,1.94-6.93,1.19l-1.4-.36c-1.73-.58-2.94-1.46-3.73-2.19-.78-.73-1.12-1.3-1.12-1.3l-.24-.06-.05,.23h0s1.47,2.43,5.03,3.62l1.44,.39c4,.82,5.96-.42,7.43-1.4-4.89,5-13.58,5.17-18.88,.51-3.02-2.64-6.03-9.69-2.12-15.8Zm16.62,33.54c-3.44,2.06-11.08,2.76-15.69-2.83,3,.52,5.57,.09,5.74-3.12,.18-3.5,3.54-6.52,7.62-5.71,2.97,.59,7.59-1.62,7.39-6.12,.46,1.65,.86,3.68-.99,6.98l-.78,1.22c-1.08,1.47-2.29,2.36-3.22,2.88-.94,.52-1.59,.67-1.59,.68l-.12,.2,.2,.12s2.76-.65,5-3.68l.8-1.25c2.01-3.55,1.44-5.8,.95-7.5,3.27,6.18,.76,14.51-5.3,18.13Zm13.82,5.71c1.42-2.69,1.8-5.28-1.2-6.42-3.29-1.24-5.12-5.37-3.1-9,1.47-2.64,.78-7.71-3.56-8.91,1.71,.06,3.76,.3,6.34,3.07l.92,1.12c1.06,1.49,1.53,2.91,1.75,3.96,.21,1.04,.16,1.71,.16,1.71l.14,.18,.19-.15s.23-2.83-1.97-5.89l-.94-1.15c-2.77-3.01-5.08-3.14-6.86-3.2,6.89-1.22,14.05,3.72,15.65,10.6,.89,3.92-.78,11.39-7.52,14.07Zm10.71-26.3c-2.19,2.74-6.68,3.23-9.52,.19-2.06-2.21-7.09-3.12-9.56,.64,.58-1.6,1.45-3.48,4.87-5.08l1.34-.53c1.74-.56,3.24-.58,4.3-.46,1.06,.12,1.67,.38,1.68,.38l.21-.09-.09-.22s-2.62-1.09-6.2,.06l-1.39,.55c-3.72,1.72-4.56,3.89-5.15,5.56,.95-6.94,7.85-12.25,14.9-11.65,3.99,.34,10.61,4.22,11.09,11.46-2.13-2.17-4.48-3.34-6.48-.83Z"/>
  <path class="cls-1" d="M37.97,40.14c-1.4-1.08-3.21-2.54-3.7-6.6l-.09-1.49c0-3.76,1.83-5.91,1.84-5.92l.23-.02,.02,.24s-.44,.5-.88,1.47c-.44,.97-.88,2.4-.88,4.23l.09,1.45c.48,3.74,1.99,5.14,3.34,6.19-2.81-3.51-.4-8.01,2.32-9.29,3.78-1.77,4.69-6.19,2.74-9.12-1.77-2.67,.06-4.55,2.77-5.91-7.03-1.76-12.76,3.34-14.31,7.04-2.73,6.51,.19,14.71,6.5,17.75Zm-1.45-18l1.17,1.04,1.35-.79-.63,1.43,1.16,1.04-1.55-.15-.63,1.43-.34-1.52-1.55-.16,1.35-.79-.33-1.52Z"/>
  <polygon class="cls-2" points="37.06 24.61 37.39 26.13 38.02 24.7 39.57 24.86 38.41 23.81 39.04 22.39 37.69 23.18 36.52 22.14 36.85 23.66 35.5 24.45 37.06 24.61"/>
  <path class="cls-1" d="M53.66,28.07c-7.04-.6-13.95,4.71-14.9,11.65,.59-1.67,1.43-3.84,5.15-5.56l1.39-.55c3.58-1.15,6.18-.08,6.2-.06l.09,.22-.21,.09s-.62-.26-1.68-.38c-1.06-.12-2.55-.1-4.3,.46l-1.34,.53c-3.42,1.6-4.29,3.48-4.87,5.08,2.47-3.76,7.51-2.85,9.56-.64,2.84,3.04,7.33,2.55,9.52-.19,2-2.51,4.35-1.35,6.48,.83-.48-7.24-7.09-11.12-11.09-11.46Zm.78,7.05l-.63,1.43-.33-1.52-1.56-.16,1.36-.79-.34-1.52,1.17,1.04,1.34-.79-.62,1.43,1.16,1.04-1.55-.15Z"/>
  <polygon class="cls-2" points="55.45 32.8 54.11 33.58 52.94 32.54 53.28 34.07 51.92 34.86 53.48 35.02 53.81 36.54 54.44 35.12 55.99 35.27 54.83 34.23 55.45 32.8"/>
  <path class="cls-1" d="M39.43,40.33c1.77,.05,4.09,.19,6.86,3.2l.94,1.15c2.2,3.06,1.97,5.87,1.97,5.89l-.19,.15-.14-.18s.05-.67-.16-1.71c-.21-1.05-.68-2.47-1.75-3.96l-.92-1.12c-2.58-2.77-4.63-3.01-6.34-3.07,4.34,1.19,5.03,6.26,3.56,8.91-2.03,3.64-.19,7.76,3.1,9,3,1.14,2.61,3.73,1.2,6.42,6.74-2.68,8.41-10.16,7.52-14.07-1.59-6.88-8.75-11.82-15.65-10.6Zm10.13,13.61l-.63,1.43-.33-1.53-1.56-.16,1.35-.78-.32-1.53,1.16,1.05,1.36-.79-.64,1.43,1.16,1.04-1.55-.16Z"/>
  <polygon class="cls-2" points="50.59 51.62 49.24 52.41 48.08 51.36 48.4 52.89 47.05 53.67 48.61 53.84 48.94 55.36 49.56 53.94 51.12 54.1 49.96 53.05 50.59 51.62"/>
  <path class="cls-1" d="M38.09,48.66l-.8,1.25c-2.23,3.03-4.98,3.68-5,3.68l-.2-.12,.12-.2s.65-.15,1.59-.68c.93-.52,2.14-1.41,3.22-2.88l.78-1.22c1.86-3.3,1.46-5.33,.99-6.98,.2,4.5-4.42,6.71-7.39,6.12-4.08-.81-7.44,2.21-7.62,5.71-.16,3.2-2.74,3.63-5.74,3.12,4.62,5.59,12.25,4.89,15.69,2.83,6.06-3.62,8.57-11.95,5.3-18.13,.49,1.7,1.07,3.95-.95,7.5Zm-7.94,6.41l-.63,1.43-.32-1.54-1.55-.16,1.35-.78-.33-1.53,1.16,1.04,1.36-.77-.65,1.42,1.16,1.05-1.56-.17Z"/>
  <polygon class="cls-2" points="31.19 52.77 29.83 53.54 28.67 52.5 29 54.03 27.64 54.81 29.2 54.97 29.52 56.5 30.15 55.07 31.71 55.24 30.55 54.2 31.19 52.77"/>
  <path class="cls-1" d="M19.24,41.55c5.31,4.66,14,4.49,18.88-.51-1.47,.99-3.43,2.23-7.43,1.4l-1.44-.39c-3.56-1.19-5.02-3.6-5.03-3.62h0s.05-.24,.05-.24l.24,.06s.34,.57,1.12,1.3c.79,.73,2,1.6,3.73,2.19l1.4,.36c3.7,.75,5.51-.25,6.93-1.19-4.22,1.55-7.73-2.16-8.08-5.15-.48-4.14-4.38-6.41-7.77-5.5-3.1,.83-4.29-1.5-4.72-4.51-3.9,6.11-.89,13.16,2.12,15.8Zm2.72-5.65l-.32-1.53,1.16,1.05,1.36-.78-.65,1.42,1.16,1.05-1.55-.17-.65,1.43-.31-1.53-1.55-.17,1.36-.78Z"/>
  <polygon class="cls-2" points="22.47 38.38 23.12 36.95 24.67 37.12 23.51 36.07 24.15 34.65 22.8 35.42 21.64 34.37 21.96 35.9 20.6 36.68 22.16 36.85 22.47 38.38"/>
</svg>