<?xml version="1.0" encoding="UTF-8"?>
<svg id="Layer_1" data-name="Layer 1" xmlns="http://www.w3.org/2000/svg" viewBox="0 0 80 80">
  <defs>
    <style>
      .cls-1 {
        fill: #fff;
      }

      .cls-2 {
        fill: #f79839;
      }

      .cls-3 {
        fill: #22205f;
      }

      .cls-4 {
        fill: #1f8843;
      }
    </style>
  </defs>
  <path class="cls-4" d="M0,60c0,11.05,8.95,20,20,20H60c11.05,0,20-8.95,20-20v-5.43H0v5.43Z"/>
  <path class="cls-1" d="M37.83,40.9c-.03-.07-.06-.15-.08-.23l-2.39,.84-6.69,1.47c.1,.37,.21,.74,.35,1.09l.02-.04,.68,.39-.32,.56c.12,.26,.25,.52,.39,.77l5.77-3.75,2.27-1.1Z"/>
  <path class="cls-1" d="M28.36,41.07l.56,.56-.45,.45c.05,.3,.12,.6,.19,.89l6.51-2.12,2.5-.48c-.01-.08-.01-.16-.02-.24l-2.55,.19-6.82-.31c0,.37,.02,.73,.05,1.09l.02-.02Z"/>
  <path class="cls-1" d="M37.76,39.28c.02-.08,.05-.15,.08-.22l-2.3-1.1-5.76-3.69c-.15,.28-.3,.56-.43,.85h.03s.2,.75,.2,.75l-.61,.17c-.11,.31-.22,.62-.3,.94,0,.02,0,.04-.01,.06l6.69,1.42,2.41,.84Z"/>
  <path class="cls-1" d="M38.11,41.39c-.05-.07-.1-.13-.14-.2l-2.06,1.41-6.11,3.17c.2,.35,.41,.69,.64,1.02v-.05s.78,.21,.78,.21l-.17,.62c.17,.21,.36,.4,.55,.6l4.64-5.14,1.87-1.63Z"/>
  <path class="cls-1" d="M37.65,39.81c0-.08,.02-.16,.04-.23l-2.52-.47-6.51-2.07c-.09,.33-.16,.67-.22,1l.04-.02,.4,.68-.55,.32c-.03,.32-.04,.65-.04,.97l6.82-.36,2.55,.18Z"/>
  <path class="cls-1" d="M38.5,41.81c-.07-.05-.13-.11-.18-.18l-1.6,1.86-5.12,4.66c.29,.3,.6,.59,.92,.85v-.04h.79v.64c.21,.15,.43,.29,.66,.43l3.17-6.22,1.36-2.01Z"/>
  <path class="cls-1" d="M0,54.57H80V25.42H0v29.15ZM43.42,27.22c7.06,1.89,11.25,9.14,9.36,16.2-1.9,7.06-9.15,11.25-16.2,9.36-7.06-1.89-11.25-9.15-9.36-16.21,1.89-7.06,9.15-11.24,16.21-9.35Z"/>
  <path class="cls-1" d="M39.33,37.75c.08-.02,.17-.04,.25-.06l-.18-2.37,.33-7.01,.36,7-.17,2.34c.09,0,.18,0,.27,0l.43-2.27,2.13-6.69-1.46,6.86-.75,2.16s.05,0,.08,.01c.06,.02,.12,.05,.18,.07l.98-2.03,3.78-5.9-3.19,6.25-1.24,1.84c.08,.05,.16,.1,.24,.15l1.43-1.66,5.18-4.72-4.69,5.21-1.64,1.42c.07,.07,.13,.14,.19,.21l1.76-1.21,6.23-3.22-5.88,3.82-1.9,.92c.05,.08,.08,.17,.12,.26l1.98-.7,6.85-1.5-6.67,2.17-2.04,.4c.02,.1,.04,.19,.05,.29l2.07-.16,7,.33-7,.36-2.05-.14c0,.1-.03,.2-.05,.29l2.03,.38,6.68,2.13-6.86-1.46-1.96-.68c-.03,.09-.07,.19-.11,.27l1.87,.9,5.9,3.78-6.25-3.19-1.73-1.17c-.06,.08-.13,.15-.19,.22l1.61,1.37,4.72,5.19-5.21-4.7-1.4-1.61c-.08,.06-.15,.12-.23,.17l1.22,1.77,3.22,6.23-3.82-5.88-.96-1.96c-.09,.03-.18,.06-.27,.08l.74,2.09,1.5,6.85-2.17-6.67-.43-2.2c-.09,0-.18,.01-.27,.01l.18,2.27-.32,7-.37-7,.16-2.31c-.07-.01-.13-.01-.2-.03-.02,0-.04-.02-.06-.02l-.43,2.29-2.12,6.69,1.46-6.86,.77-2.24c-.08-.04-.15-.08-.23-.13l-1.04,2.17-3.77,5.88c.37,.22,.75,.42,1.14,.6v-.04s.75-.21,.75-.21l.16,.62c.31,.11,.61,.22,.93,.3,.36,.1,.72,.17,1.08,.23l-.03-.04,.69-.39,.32,.56c.7,.06,1.39,.05,2.07-.01l-.03-.03,.56-.55,.45,.45c.69-.12,1.36-.31,2-.55l-.04-.02,.4-.68,.56,.32c.63-.3,1.23-.64,1.8-1.05h-.05s.2-.78,.2-.78l.63,.17c.53-.44,1.01-.94,1.45-1.47h-.04v-.78h.63c.39-.56,.74-1.17,1.03-1.81h-.04s-.2-.75-.2-.75l.62-.16c.11-.3,.21-.61,.3-.93,.1-.36,.17-.72,.23-1.08l-.04,.02-.4-.68,.55-.32c.06-.7,.05-1.39-.01-2.08l-.03,.03-.55-.56,.45-.45c-.12-.68-.3-1.35-.54-2l-.02,.03-.68-.39,.32-.56c-.3-.63-.64-1.23-1.04-1.8v.05s-.78-.2-.78-.2l.17-.62c-.45-.53-.94-1.01-1.48-1.46v.04h-.79v-.64c-.56-.39-1.16-.73-1.8-1.03v.03s-.75,.21-.75,.21l-.17-.62c-.3-.11-.61-.22-.93-.3-.36-.1-.72-.17-1.08-.23l.03,.05-.68,.39-.32-.55c-.7-.06-1.39-.05-2.07,.01l.03,.03-.56,.56-.45-.45c-.41,.07-.81,.17-1.21,.29l2.16,6.63,.45,2.36Z"/>
  <path class="cls-1" d="M37.99,38.78c.04-.07,.08-.14,.13-.21l-1.91-1.65-4.64-5.08c-.21,.22-.41,.45-.6,.68h.04s0,.79,0,.79h-.64c-.21,.3-.4,.61-.58,.93l6.09,3.1,2.11,1.43Z"/>
  <path class="cls-1" d="M38.79,37.98c.07-.04,.15-.08,.23-.11l-.81-2.31-1.49-6.81c-.26,.08-.53,.16-.78,.26l.03,.02-.39,.69-.56-.32c-.36,.17-.71,.36-1.06,.57l3.77,5.8,1.07,2.21Z"/>
  <path class="cls-1" d="M38.34,38.34c.06-.06,.12-.12,.18-.17l-1.4-2.05-3.18-6.14c-.25,.15-.5,.3-.73,.47h.05s-.2,.77-.2,.77l-.62-.17c-.29,.25-.58,.51-.85,.79l5.11,4.6,1.64,1.9Z"/>
  <path class="cls-2" d="M60,0H20C8.95,0,0,8.95,0,20v5.42H80v-5.42c0-11.05-8.95-20-20-20Z"/>
  <path class="cls-3" d="M36.58,52.78c7.06,1.89,14.31-2.3,16.2-9.36,1.89-7.06-2.3-14.31-9.36-16.2-7.06-1.89-14.31,2.3-16.21,9.35-1.89,7.06,2.3,14.31,9.36,16.21Zm-7.18-7.8l.32-.56-.68-.39-.02,.04c-.13-.36-.25-.72-.35-1.09l6.69-1.47,2.39-.84c.02,.08,.05,.15,.08,.23l-2.27,1.1-5.77,3.75c-.14-.25-.27-.51-.39-.77Zm1.65,2.58l.17-.62-.76-.21v.05c-.25-.33-.46-.67-.66-1.02l6.11-3.17,2.06-1.41c.04,.07,.1,.14,.14,.2l-1.87,1.63-4.64,5.14c-.19-.19-.37-.39-.55-.6Zm2.26,2.05v-.64h-.79v.04c-.32-.27-.63-.55-.92-.85l5.12-4.66,1.6-1.86c.06,.06,.12,.12,.18,.18l-1.36,2.01-3.17,6.22c-.23-.14-.44-.28-.66-.43Zm4.61-21.14l.45,.45,.56-.56-.03-.03c.68-.06,1.38-.07,2.07-.01l.32,.55,.68-.39-.03-.05c.36,.06,.72,.14,1.08,.23,.32,.09,.63,.19,.93,.3l.17,.62,.76-.21v-.03c.63,.29,1.23,.64,1.79,1.03v.64h.79v-.04c.54,.44,1.03,.93,1.48,1.46l-.17,.62,.76,.2v-.05c.42,.57,.76,1.17,1.06,1.8l-.32,.56,.68,.39,.02-.03c.24,.65,.42,1.31,.54,2l-.45,.45,.55,.56,.03-.03c.06,.68,.07,1.38,.01,2.08l-.55,.32,.4,.68,.04-.02c-.06,.36-.13,.72-.23,1.08-.09,.32-.19,.63-.3,.93l-.62,.16,.2,.76h.04c-.29,.63-.64,1.23-1.03,1.8h-.63v.78h.04c-.44,.54-.93,1.03-1.45,1.47l-.63-.17-.2,.76h.05c-.57,.42-1.17,.76-1.8,1.06l-.56-.32-.4,.68,.04,.02c-.65,.24-1.32,.42-2,.55l-.45-.45-.56,.55,.03,.03c-.68,.06-1.37,.07-2.07,.01l-.32-.56-.69,.39,.03,.04c-.36-.06-.72-.13-1.08-.23-.32-.09-.63-.19-.93-.3l-.16-.62-.76,.21v.04c-.38-.18-.77-.38-1.13-.6l3.77-5.88,1.04-2.17c.07,.05,.15,.09,.23,.13l-.77,2.24-1.46,6.86,2.12-6.69,.43-2.29s.04,.02,.06,.02c.07,.02,.13,.02,.2,.03l-.16,2.31,.37,7,.32-7-.18-2.27c.09,0,.18,0,.27-.01l.43,2.2,2.17,6.67-1.5-6.85-.74-2.09c.09-.02,.18-.05,.27-.08l.96,1.96,3.82,5.88-3.22-6.23-1.22-1.77c.08-.05,.16-.11,.23-.17l1.4,1.61,5.21,4.7-4.72-5.19-1.61-1.37c.07-.07,.14-.14,.19-.22l1.73,1.17,6.25,3.19-5.9-3.78-1.87-.9c.05-.09,.08-.18,.11-.27l1.96,.68,6.86,1.46-6.68-2.13-2.03-.38c.02-.1,.04-.2,.05-.29l2.05,.14,7-.36-7-.33-2.07,.16c-.01-.1-.03-.2-.05-.29l2.04-.4,6.67-2.17-6.85,1.5-1.98,.7c-.04-.09-.07-.18-.12-.26l1.9-.92,5.88-3.82-6.23,3.22-1.76,1.21c-.06-.08-.13-.14-.19-.21l1.64-1.42,4.69-5.21-5.18,4.72-1.43,1.66c-.08-.05-.15-.11-.24-.15l1.24-1.84,3.19-6.25-3.78,5.9-.98,2.03c-.06-.02-.12-.05-.18-.07-.03,0-.05,0-.08-.01l.75-2.16,1.46-6.86-2.13,6.69-.43,2.27c-.09,0-.18,0-.27,0l.17-2.34-.36-7-.33,7.01,.18,2.37c-.08,.02-.17,.04-.25,.06l-.45-2.36-2.16-6.63c.4-.12,.8-.21,1.21-.29Zm-2.92,.93l.56,.32,.39-.69-.03-.02c.26-.1,.52-.18,.78-.26l1.49,6.81,.81,2.31c-.08,.04-.15,.07-.23,.11l-1.07-2.21-3.77-5.8c.34-.21,.69-.4,1.06-.57Zm-2.57,1.65l.62,.17,.2-.76h-.05c.24-.18,.49-.33,.73-.49l3.18,6.14,1.4,2.05c-.06,.05-.12,.11-.18,.17l-1.64-1.9-5.11-4.6c.27-.28,.55-.54,.85-.79Zm-2.05,2.26h.64v-.79s-.04,0-.04,0c.19-.23,.39-.46,.6-.68l4.64,5.08,1.91,1.65c-.05,.06-.09,.14-.13,.21l-2.11-1.43-6.09-3.1c.18-.32,.38-.63,.58-.93Zm-1.71,3.65c.09-.32,.19-.63,.3-.94l.61-.17-.2-.76h-.03c.13-.28,.28-.56,.43-.84l5.76,3.69,2.3,1.1c-.03,.07-.06,.15-.08,.22l-2.41-.84-6.69-1.42s0-.04,.01-.06Zm-.35,2.05l.55-.32-.4-.68-.04,.02c.06-.33,.13-.67,.22-1l6.51,2.07,2.52,.47c-.01,.08-.03,.16-.04,.23l-2.55-.18-6.82,.36c0-.32,.01-.64,.04-.97Zm6.78,1.3l2.55-.19c0,.08,0,.16,.02,.24l-2.5,.48-6.51,2.12c-.08-.29-.14-.59-.19-.89l.45-.45-.56-.56-.02,.02c-.03-.36-.05-.72-.05-1.09l6.82,.31Z"/>
</svg>