<?xml version="1.0" encoding="UTF-8"?>
<svg id="Layer_1" data-name="Layer 1" xmlns="http://www.w3.org/2000/svg" viewBox="0 0 80 80">
  <defs>
    <style>
      .cls-1 {
        fill: #fff;
      }

      .cls-2 {
        fill: #cd2028;
      }

      .cls-3 {
        fill: #029d49;
      }
    </style>
  </defs>
  <path d="M20,80H60c11.05,0,20-8.95,20-20v-5.43H0v5.43c0,11.05,8.95,20,20,20Z"/>
  <path class="cls-1" d="M51.66,44.07c0,.19,1.9,.73,1.6-.55,.23-1.5-1.6-.52-1.6,.55Z"/>
  <path class="cls-1" d="M80,25.42H0v29.15H80V25.42Zm-25.07,4.8c.83-.12,.8,1.92,.66,1.83-.24-.17-1.37-1.73-.66-1.83Zm.44,3.22l.88-.77,.99,.31c.65,.13,.77-1.09,.93-1.06,.9,.16,.07,1.63-.65,1.64-1.08,.01-2.27,.76-3.31,.38l-.55-.41,1.7-.09ZM18.73,49.86c-.67,0-1.21-.55-1.21-1.21s.54-1.22,1.21-1.22,1.22,.54,1.22,1.22-.55,1.21-1.22,1.21Zm17.67-3.68H18.24c-.6,0-1.36-.27-1.53,.37-.45,1.66-1.56,3.15-3.52,2.43l-.93-.86c-.21-.07-.37-.21-.47-.44l.47,.44c.92,.33,2.63-.7,2.77-1.56,.17-1.05-1.57-2.39-.5-2.89,1.33-.58,1.15-2.15,1.92,.15,.3,.89,1.54,.54,2.37,.53-.28-.67-.98-1.23-.27-1.72l1.89-1.92c.71,0-.98,3.64,.99,3.64h10.94c2.61,0,2.39,.19,2.39-2.46,0-.76,.52-3.23-.8-3.24-1.34-.01-.8,3.35-.8,4.14l-11.95,.15c0-1.31,3.1-4.23,3.96-5.37,.71-.93,1.41-1.85,2.1-2.79,.54-.73,2.6-4.54,3.52-4.65-.11,0,1.32,2.58,.2,2.62l-.94,.95c-1.71,2.13-4.53,4.83-5.53,7.39,.38-.85,5.97,.88,6.81,.09,.53-.51-.45-2.14,.29-2.77,.5-.42,2.04-1.92,2.68-1.5,2.46,1.63,2.27,2.2,2.27,5.08,0,.69,.2,4.19-.18,4.19Zm6-.68c-.48,.71,.03,.63-1.19,.64-1.12,0-2.25,.03-3.37,.04v-5.92c0-.62-.52-5.58,.12-5.98,.21-.13,2.65,1.76,1.97,2.41-.71,.68-.28,3.18-.28,3.98,0,1.1,0,2.21,0,3.3s2.46,.04,3.07-.1l-.33,1.63Zm7.4,.59l.05-1.46c.08-2.15,.92-3.65,3.34-3.29l-.28-1.94,2.08-2.46c.13,0,.09,4.74,.09,5.49,0,.63-.35,1.83,.4,1.83,.56,0,1.2,.27,1.2-.39,0-2.1,.04-4.21-.02-6.31l-.44-1.19,2.2-2.33c.73,.4,.09,7.25,.09,8.54,0,1.18-.38,1.64,.8,1.68,1.28,.04,.8-.92,.8-2.05v-8.28l-.57-.7,2.15-2.13c.09-.02,.25,13.48,.25,14.99,0,.41-11.06,0-12.14,0Zm16.78-.05c-1.13,.02-2.26,.04-3.39,.05v-5.94c0-.62-.51-5.61,.13-6.02,.14-.09,2.72,1.78,2,2.41-.74,.64-.29,3.22-.29,4.01v3.6c0,.66,3.2-.39,3.17-.43l-.41,1.67c-.47,.73,.02,.63-1.2,.65Z"/>
  <path class="cls-2" d="M80,20c0-11.05-8.95-20-20-20H20C8.95,0,0,8.95,0,20v5.42H80v-5.42Z"/>
  <path class="cls-3" d="M59.54,33.23l.57,.7v8.28c0,1.13,.48,2.08-.8,2.05-1.18-.04-.8-.5-.8-1.68,0-1.29,.64-8.14-.09-8.54l-2.2,2.33,.44,1.19c.07,2.1,.02,4.21,.02,6.31,0,.66-.64,.39-1.2,.39-.75,0-.4-1.2-.4-1.83,0-.75,.04-5.49-.09-5.49l-2.08,2.46,.28,1.94c-2.43-.36-3.26,1.14-3.34,3.29l-.05,1.46c1.08,0,12.14,.41,12.14,0,0-1.51-.16-15.01-.25-14.99l-2.15,2.13Zm-7.88,10.84c0-1.07,1.83-2.05,1.6-.55,.3,1.28-1.6,.73-1.6,.55Z"/>
  <path class="cls-3" d="M65.03,44.16v-3.6c0-.79-.44-3.37,.29-4.01,.72-.63-1.85-2.5-2-2.41-.64,.41-.13,5.39-.13,6.02v5.94c1.13-.01,2.26-.03,3.39-.05,1.21-.01,.73,.08,1.2-.65l.41-1.67s-3.17,1.09-3.17,.43Z"/>
  <path class="cls-3" d="M57.52,33.56c.72,0,1.54-1.49,.65-1.64-.17-.03-.29,1.19-.93,1.06l-.99-.31-.88,.77-1.7,.09,.55,.41c1.04,.38,2.23-.36,3.31-.38Z"/>
  <path class="cls-3" d="M55.59,32.05c.13,.09,.17-1.95-.66-1.83-.7,.1,.42,1.67,.66,1.83Z"/>
  <path class="cls-3" d="M34.32,36.91c-.64-.42-2.18,1.08-2.68,1.5-.74,.63,.24,2.26-.29,2.77-.85,.8-6.43-.94-6.81-.09,1-2.56,3.82-5.26,5.53-7.39l.94-.95c1.12-.04-.31-2.61-.2-2.62-.92,.11-2.98,3.92-3.52,4.65-.69,.94-1.4,1.86-2.1,2.79-.86,1.14-3.96,4.06-3.96,5.37l11.95-.15c0-.79-.54-4.15,.8-4.14,1.31,0,.8,2.48,.8,3.24,0,2.65,.22,2.46-2.39,2.46h-10.94c-1.97,0-.28-3.64-.99-3.64l-1.89,1.92c-.71,.5,0,1.05,.27,1.72-.83,0-2.07,.36-2.37-.53-.77-2.3-.59-.74-1.92-.15-1.07,.49,.67,1.84,.5,2.89-.14,.85-1.85,1.88-2.77,1.56l.93,.86c1.96,.72,3.07-.77,3.52-2.43,.17-.64,.93-.37,1.53-.37h18.16c.39,0,.18-3.5,.18-4.19,0-2.88,.19-3.45-2.27-5.08Z"/>
  <path class="cls-3" d="M12.26,48.12l-.47-.44c.1,.23,.27,.36,.47,.44Z"/>
  <path class="cls-3" d="M39.66,43.97c0-1.09,0-2.2,0-3.3,0-.8-.44-3.3,.28-3.98,.67-.65-1.76-2.54-1.97-2.41-.64,.4-.12,5.37-.12,5.98v5.92c1.12-.01,2.25-.03,3.37-.04,1.22-.01,.71,.07,1.19-.64l.33-1.63c-.61,.14-3.07,1.19-3.07,.1Z"/>
  <path class="cls-3" d="M18.73,47.44c-.67,0-1.21,.54-1.21,1.22s.54,1.21,1.21,1.21,1.22-.55,1.22-1.21-.55-1.22-1.22-1.22Z"/>
</svg>