<?xml version="1.0" encoding="UTF-8"?>
<svg id="Layer_1" data-name="Layer 1" xmlns="http://www.w3.org/2000/svg" viewBox="0 0 80 80">
  <defs>
    <style>
      .cls-1 {
        fill: #fff;
      }

      .cls-2 {
        fill: #f9dd16;
      }

      .cls-3 {
        fill: #ffe606;
      }

      .cls-4 {
        fill: rgba(249, 221, 22, .99);
      }

      .cls-4, .cls-5 {
        fill-rule: evenodd;
      }

      .cls-6 {
        fill: none;
        stroke: #000;
        stroke-linecap: round;
        stroke-linejoin: round;
        stroke-width: 0px;
      }

      .cls-7 {
        fill: #cf142b;
      }

      .cls-5 {
        fill: rgba(249, 221, 22, .99);
      }
    </style>
  </defs>
  <path class="cls-7" d="M60,0H20C8.95,0,0,8.95,0,20V60c0,11.05,8.95,20,20,20H60c11.05,0,20-8.95,20-20V20c0-11.05-8.95-20-20-20Zm9.37,22.25l-6.09,1.58c-1,.38-1.74,.95-2.25,1.73-.17,.46-.33,1.62-.29,3.14-.04,.34-.08,.67-.12,1.01-.3,2.52-.67,5.66-1.9,8.4,.02,.17,.01,.32,0,.46-.02,.3-.03,.57,.21,1.17,.23,.48,.23,1.07,0,1.64-.08,.16-.15,.3-.23,.43-.45,.87-.91,1.77-1.95,2.35-.47,.36-1.07,.54-1.73,.54-.57,0-1.18-.13-1.8-.4-1.19-.39-2.87-.58-4.17-.45h-.02s-.02,0-.02,0c-.83-.12-7.42-1.47-8.61-2.23-.08-.03-.16-.06-.23-.09-.04-.02-.09-.04-.13-.06-.07,0-.14,0-.19,0-.28,0-.34-.01-.37-.03-.89,.57-1.74,1.15-2.55,1.7-1.77,1.2-3.44,2.33-5.41,3.4-.17,.14-.31,.36-.29,.47,0,.02,0,.06,.1,.09,.53,.21,.82,.35,1.66,.75l.06,.03c.62,.38,.92,.66,1.51,1.27,.93,.72,4.6,5.37,5.41,7.65,.18,.13,.57,.51,1.62,1.56l1.21,.45c.02-.25,.04-.63,.04-.72-.37-.34-1.39-1.65-1.39-1.66l.12-.12s.02,0,.31,.06c.32,.07,1.12,.24,1.37,.27,.05-.13,.15-.4,.41-1.02,.11-.27,.22-.55,.25-.62v-.08l.1-.02s.07-.01,.14,.12h0c.11,.21,.31,.71,.81,1.92l1.66,.73,.03,.21-1.15,.95c.26,1.86,.26,1.89,.26,1.9v.08l-.08,.03s-.03,.01-.04,.01c-.08,0-.24-.15-1.25-1.14l-.53,.06s.04,.06,.05,.1c.13,.48-.05,1.02-.51,1.6-.04,.09-.18,.2-.79,.44l-1.85,2.48c-1.06,3.72-1.91,4.3-2.53,4.73-.18,.12-.33,.23-.46,.39-.09,.22-.43,.38-.76,.38-.06,0-.12,0-.19-.02-.26-.05-.84-.29-.65-1.44l1.61-6.08c.16-1.05,.03-1.98-.41-2.81-.32-.37-1.25-1.08-2.6-1.79-.28-.2-.55-.4-.82-.6-2.05-1.5-4.6-3.36-6.39-5.78-.16-.07-.28-.14-.4-.22-.25-.16-.49-.31-1.12-.39-.53-.04-1.04-.32-1.44-.8-.1-.15-.18-.28-.27-.41-.54-.82-1.1-1.66-1.09-2.85-.15-1.08,.45-2.27,1.61-3.14,.92-.84,1.91-2.22,2.44-3.41l.02-.04c.51-.67,4.92-5.75,6.16-6.41,.07-.05,.13-.11,.2-.16,.03-.02,.06-.05,.09-.07,.05-.09,.09-.2,.1-.33-.01-.11-.02-.22-.03-.32l-.02-.02v-.03c-.07-.88-.17-1.74-.27-2.57-.25-2.12-.48-4.13-.53-6.36-.05-.22-.17-.44-.28-.48-.01,0-.05-.02-.13,.05-.87,.8-.92,.84-1.17,.98-.07,.04-.17,.1-.33,.21-.44,.36-.69,.4-.95,.44-.2,.03-.4,.06-.78,.27-1.02,.49-6.99,1.61-9.36,1.29-.2,.09-.71,.27-2.13,.72l-.96,.87c.2,.13,.5,.31,.61,.36,.12-.04,.38-.1,1-.25,1.06-.25,1.08-.24,1.13-.21l.11,.06-.06,.11s0,.02-.19,.24c-.21,.25-.73,.89-.87,1.1,.09,.1,.28,.32,.72,.83,.19,.22,.38,.45,.43,.5l.07,.04-.03,.1s-.02,.07-.17,.07h0s0,0,0,0c-.23,0-.77-.04-2.07-.16l-1.57,1.27-.35-1.65c-1.77-.63-1.8-.64-1.81-.64l-.07-.04v-.08q.01-.1,1.6-.63l.19-.5s-.07,0-.11,0c-.49-.11-.89-.51-1.18-1.19-.06-.07-.09-.25-.03-.9l-1.35-2.78c-2.82-2.66-2.94-3.68-3.03-4.43-.03-.21-.05-.4-.13-.59-.18-.22-.13-.7,.11-1.01,.16-.21,.65-.61,1.58,.08l4.65,4.23c.86,.62,1.75,.94,2.68,.94,.47-.11,1.54-.62,2.78-1.48,.31-.15,.61-.3,.91-.45,2.27-1.13,5.1-2.54,8.07-3.01,.13-.11,.26-.19,.38-.26,.26-.15,.5-.29,.87-.82,.27-.45,.76-.78,1.37-.91,.18-.02,.33-.03,.49-.05,.98-.1,1.98-.21,3.03,.35,1.03,.36,1.8,1.44,2.05,2.88,.32,1.21,1.09,2.72,1.91,3.74l.02,.04c.33,.7,2.44,6.02,2.8,7.98l.11,.04c.05,.45,.2,1.02,.44,1.13l.03,.21s-.04,.03-.05,.04h0c1.01,.54,2,1.03,2.96,1.51,1.91,.95,3.72,1.86,5.61,3.04,.21,.08,.46,.09,.55,.03,.01,0,.04-.03,.03-.14-.19-1.17-.19-1.23-.18-1.52,0-.09,0-.2,0-.39-.06-.57,.04-.79,.15-1.03,.08-.18,.17-.37,.2-.8,.15-1.12,2.48-6.73,4.04-8.54,.03-.22,.16-.75,.56-2.18l-.21-1.28c-.23,.1-.57,.27-.65,.32-.11,.48-.71,1.96-.72,1.98l-.04,.06h-.07s-.07,0-.07,0l-.04-.06s-.01-.02-.1-.3c-.1-.31-.34-1.09-.44-1.33-.13,.02-.42,.06-1.09,.14-.29,.04-.59,.07-.66,.09l-.07,.04-.07-.08s-.05-.06,.04-.19h0s0,0,0,0c.12-.19,.46-.62,1.27-1.65l-.18-1.81,.17-.13,1.39,.54c1.49-1.14,1.52-1.15,1.53-1.16l.07-.04,.07,.05q.08,.06-.35,1.68l.31,.43s.03-.06,.06-.09c.36-.35,.91-.46,1.64-.34,.1-.01,.26,.06,.77,.47l3.07,.39c3.76-.9,4.69-.44,5.36-.11,.19,.1,.36,.18,.57,.21,.28-.03,.66,.27,.78,.65,.08,.25,.16,.88-.93,1.27Z"/>
  <path class="cls-5" d="M41.87,56.61c.33,.4,.97,1.15,1.12,1.31h.01l.04,.05c.06,.08,.01,.63-.02,.93,.19,.09,.52,.28,.73,.62l.73-.08,.04,.04c.28,.28,.69,.67,.95,.91-.06-.4-.15-1.1-.23-1.62v-.07s1.09-.91,1.09-.91l-1.57-.69-.02-.05c-.23-.56-.55-1.33-.72-1.74-.04,.09-.09,.21-.15,.37-.16,.4-.41,1-.43,1.07v.06l-.04,.02c-.06,.05-.09,.07-1.54-.24Z"/>
  <path class="cls-1" d="M40.27,64.05c.16-.03,.26-.05,.26-.05,0,0-.02,.05-.04,.11l.12-.16c-.09,.03-.18,.04-.27,.08-.03,0-.05,0-.07,.02Z"/>
  <path class="cls-1" d="M37.36,65.46l-.16,.6s.02-.01,.02-.02h.03c.06-.03,.16-.07,.27-.11,.25-.1,.56-.21,.72-.24,.25-.07,.47-.13,.67-.21,.12-.03,.22-.05,.31-.08,.13-.03,.25-.07,.41-.1,.17-.07,.35-.12,.52-.17,0-.01,0-.02,.01-.03l-2.93,.88,.12-.52Z"/>
  <path class="cls-1" d="M36.93,54.79c-.17,.02-.44,.04-.64,.04,.07,.15,.11,.25,.12,.27,.06,.11,.14,.3,.2,.43,.06,.08,.11,.17,.17,.27,.03,.05,.05,.1,.09,.15,.07,.15,.13,.24,.2,.33,.03,.03,.05,.07,.08,.11,.05,.04,.11,.08,.17,.13,.1,.08,.21,.17,.31,.23,.12,.1,.22,.16,.32,.21,.07,.04,.14,.08,.2,.13,.31,.15,2.53,1.56,2.55,1.57,.2,.16,.57,.55,.59,.96,.01,.19-.05,.37-.18,.51-.08,.07-.15,.14-.21,.2-.06,.06-.11,.09-.16,.14-.07,.21-.03,.29,.03,.38,.02,.03,.04,.06,.06,.1,.11,.13,.37,.33,.78,.46,.16,.04,.29,.09,.5,.17,.1,.01,.17,.03,.23,.06l.05-.07,.05-.02c.25-.1,.55-.24,.64-.29v-.02c.42-.49,.58-.93,.48-1.3-.12-.47-.61-.68-.76-.74l-1.42-.53-.03-.03c-.66-.66-1.42-1.4-1.6-1.55h-.08l-.04-.13c-.25-.73-.84-1.76-1.55-2.82,0,0,0,0-.01,.01-.11,.23-.68,.61-1.12,.61Z"/>
  <path class="cls-1" d="M42.02,61.82c-.21-.08-.34-.12-.5-.17-.48-.15-.78-.38-.91-.55l-.02-.03s-.03-.05-.05-.08c-.04-.07-.09-.16-.1-.29-.12,.08-.25,.15-.37,.2l-.11,.05c-.62,.18-1.06,.22-1.35,.22-.13,0-.23,0-.3-.01-.05,0-.08,0-.11,0h0c.03,.41,.02,.82-.04,1.27l-.03,.1h.16c.12,0,.24,.01,.36,.02,.1,0,.19,.02,.28,.02,.11,0,.23,.02,.33,.03,.1,.01,.2,.03,.3,.03,.12,.02,.23,.02,.35,.03,.12,0,.25,.01,.36,.03,.1,0,.21,.02,.31,.03,.13,.01,.25,.03,.38,.03,.07,0,.13,0,.18,.01l.34,.03,.68-.92s-.07-.02-.12-.02h-.03Z"/>
  <path class="cls-1" d="M41.13,62.99h-.17c-.14-.01-.27-.03-.4-.04-.1-.01-.2-.02-.31-.03-.12-.02-.24-.02-.35-.03-.12,0-.24-.01-.35-.03-.09,0-.21-.01-.32-.03-.1-.01-.2-.03-.3-.03-.1,0-.19-.01-.3-.02-.11-.01-.23-.02-.34-.02h-.21v-.03l-.45,1.7c.33-.09,.89-.25,1.09-.28,.28-.07,.53-.13,.76-.21,.14-.03,.24-.05,.34-.08,.14-.03,.28-.06,.45-.1,.2-.08,.41-.13,.61-.18l.43-.58s-.09,0-.13-.01c-.02,0-.04,0-.06,0Z"/>
  <path class="cls-1" d="M33.54,50.68c.11,.06,.21,.13,.27,.22,.12,.1,.22,.22,.32,.34,.03,.04,.06,.08,.1,.12,.16,.19,.29,.35,.38,.51,.39,.34,1.17,1.87,1.57,2.7h0s.05,.02,.06,.02c.2,0,.49-.02,.69-.04,.39,0,.88-.37,.92-.47l.02-.03s.05-.06,.07-.08c-1.36-2.01-3.07-4.08-3.63-4.5l-.02-.02s-.06-.06-.1-.1c0,.05-.01,.11-.01,.16,0,.27-.28,.9-.63,1.2Z"/>
  <path class="cls-1" d="M29.44,48.92s.1-.07,.14-.11c-.08-.04-.16-.11-.25-.19-.09-.1-.16-.19-.22-.26-.21-.25-.31-.38-.52-.48-.31-.15-.92-.17-1.68-.06-.03,0-.05,0-.05,0-.01,0-.35,.14-.57,.22-.1,.04-.18,.09-.28,.15-.18,.11-.38,.24-.72,.3-.56,.04-.77-.02-1.06-.48-.08-.13-.13-.27-.16-.42-.09,.07-.15,.11-.18,.13l-.04-.03v.08h-.03c.2,.57,.51,1.07,.83,1.55,.09,.13,.17,.26,.26,.4,.31,.38,.73,.61,1.17,.64,.24,.03,.43,.08,.59,.12,.53-.26,2.34-1.19,2.54-1.4,.09-.07,.16-.13,.23-.18Z"/>
  <path class="cls-1" d="M23.95,47.39s.07-.07,.1-.1c0-.1,.03-.2,.07-.29,.11-.23,.3-.37,.54-.4h0c.38-.02,.94,.02,1.69,.14h.05s1.39-.01,1.39-.01c.66-.06,.8-.3,.91-.49,.16-.25,.29-.41,.41-.54,.01-.01,.02-.03,.03-.04h-.08c-.08,0-.14,0-.2,0-.05,0-.09,0-.14,0-.06,0-.13,0-.23,0-.26,0-.54-.11-.79-.21-.28-.12-.46-.19-.71-.36-.17-.1-.3-.22-.44-.35l-.08-.07c-.18-.18-.53-.27-.74-.33-.06-.02-.11-.03-.14-.04-.07-.03-.13-.04-.19-.06-.08-.02-.17-.04-.28-.09-.12-.06-.15-.06-.18-.07-.02,0-.06-.01-.1-.03-.89,.77-1.34,1.73-1.22,2.61,0,.31,.05,.6,.12,.87,0,0,.01-.01,.02-.02,.04-.02,.1-.06,.19-.13Z"/>
  <path class="cls-1" d="M30.74,49.09c.61,.22,1.75,.9,2.25,1.24,.01,0,.03-.01,.04-.02l.02,.06c.09,.06,.16,.11,.18,.13,.02,.02,.06,.04,.08,.05,.32-.22,.59-.87,.6-1.07,0-.11,.01-.23,.02-.34,0-.01,0-.03,0-.04-.4-.4-.67-.62-1.09-.88l-.04-.02c-.83-.4-1.11-.53-1.63-.74-.07-.03-.12-.06-.16-.1,0,0,0,.02,0,.03-.09,.54-.37,.97-.44,1.01-.25,.23-.44,.39-.6,.45,.02,0,.03,.01,.06,.02,.17,.05,.41,.13,.71,.22Z"/>
  <path class="cls-1" d="M25.47,44c.07,.02,.13,.03,.21,.06,.03,0,.07,.02,.12,.03,.24,.06,.63,.17,.85,.39l.08,.07c.14,.13,.25,.23,.41,.33,.22,.15,.37,.22,.67,.34,.23,.08,.49,.18,.71,.19,.16,0,.25,0,.35,0,.06,0,.12,0,.21,0h.27s.04-.04,.06-.07l.03-.03s.04-.02,.05-.03v-.03s.03-.03,.03-.03c.14-.15,.4-.49,.54-.67,.05-.08,.11-.17,.18-.25,.05-.07,.1-.14,.15-.2l.09-.13c.09-.14,.18-.27,.24-.37l.03-.03s.05-.06,.11-.14c2.2-2.9,4.71-4.59,6.42-5.5l.26-.14c.42-.22,.65-.34,.78-.39-.1-.73-.15-1.33-.16-1.53-.74-.33-1.47-.65-2.21-.98-.37-.16-.74-.33-1.12-.49l-.82-.26v-.11c-.08-.03-.14-.06-.21-.09-.02,.02-.05,.04-.07,.06l-.03,.02c-1.07,.55-5.38,5.45-6.04,6.3-.55,1.23-1.57,2.65-2.54,3.53,0,0-.02,.01-.03,.02,.04,.01,.08,.03,.16,.06,.09,.04,.16,.06,.23,.07Z"/>
  <path class="cls-1" d="M39.29,65.66c-.09,.02-.19,.05-.3,.08-.19,.07-.42,.14-.69,.21-.15,.03-.45,.14-.68,.23-.11,.04-.21,.08-.27,.1-.1,.06-.2,.15-.26,.21l-.26,1s.06-.05,.09-.06h.03c.05-.03,.14-.07,.25-.11,.23-.1,.51-.22,.66-.24,.23-.07,.43-.13,.61-.21,.12-.03,.2-.05,.28-.08,.11-.03,.23-.07,.37-.1,.18-.09,.37-.15,.55-.2,.12-.3,.25-.64,.38-1.03-.11,.03-.22,.06-.34,.11-.18,.04-.3,.07-.42,.1Z"/>
  <path class="cls-1" d="M37.37,38.13c-1.69,.9-4.16,2.57-6.33,5.43-.07,.09-.1,.13-.12,.15-.06,.11-.15,.24-.24,.38l-.09,.12c-.05,.07-.1,.14-.16,.22-.06,.08-.12,.16-.17,.24-.11,.15-.29,.38-.43,.56,.24,.07,.46,.29,.55,.38l.04,.04c.29,.27,.47,.59,.56,.93,.09-.15,.22-.28,.32-.35l.03-.02c1.96-1.06,3.62-2.19,5.39-3.39,.81-.55,1.66-1.12,2.53-1.69-.45-.75-.74-2.27-.91-3.49-.16,.08-.49,.25-.7,.36l-.26,.13Z"/>
  <path class="cls-1" d="M38.34,60.91c.26,.02,.73,.05,1.55-.19,.02-.01,.06-.03,.1-.04,.15-.06,.31-.13,.42-.24l.03-.02c.08-.05,.18-.14,.28-.24,.07-.07,.14-.14,.21-.2,.08-.09,.12-.19,.11-.32-.02-.33-.37-.67-.5-.78-.12-.08-2.33-1.47-2.51-1.55l-.03-.02c-.05-.04-.12-.08-.18-.12-.1-.06-.21-.12-.33-.23-.1-.05-.22-.15-.33-.24-.06-.05-.12-.1-.17-.13l-.03-.03s-.06-.08-.09-.12c-.08-.1-.15-.2-.22-.37-.03-.04-.06-.1-.08-.15-.05-.1-.1-.18-.15-.24l-.02-.03c-.05-.13-.14-.32-.21-.46-.07-.23-1.33-2.8-1.75-3.14l-.03-.03c-.09-.15-.22-.3-.36-.48-.04-.05-.07-.09-.11-.13-.09-.11-.19-.23-.31-.33-.07-.09-.2-.16-.31-.23-.08-.05-.17-.1-.23-.15-.02-.02-.06-.05-.12-.09-.95,.35-2.4,1.41-2.97,2.88,1.38,1.3,2.89,2.4,4.2,3.36,.28,.2,.54,.4,.8,.59,1.39,.73,2.36,1.47,2.7,1.88l.02,.03c.26,.49,.41,1.01,.48,1.57h.02s.08,0,.13,0Z"/>
  <path class="cls-1" d="M32.71,50.43c-.54-.34-1.51-.92-2.05-1.11-.29-.09-.54-.17-.71-.22-.13-.04-.21-.06-.25-.08-.04,.03-.07,.06-.11,.08-.07,.06-.15,.12-.23,.18-.17,.17-1.63,.96-2.37,1.33,.15,.07,.27,.14,.38,.21,.12,.08,.23,.15,.39,.21l.05,.02,.03,.05c.58,.79,1.25,1.52,1.96,2.2,.54-1.3,1.82-2.4,2.91-2.86Z"/>
  <path class="cls-1" d="M38.81,67.02c-.09,.02-.17,.05-.28,.08-.18,.07-.39,.14-.63,.21-.13,.03-.42,.14-.62,.23-.1,.04-.19,.08-.25,.1-.11,.08-.27,.23-.3,.26h-.02s-.17,.61-.17,.61c-.05,.3-.08,.84,.29,.97,.26,.09,.55-.05,.58-.12v-.04s.03-.02,.03-.02c.18-.23,.37-.36,.57-.5,.4-.27,.9-.62,1.51-2-.11,.04-.23,.07-.35,.12-.16,.04-.27,.07-.38,.1Z"/>
  <path class="cls-2" d="M40.27,64.05c-.15,.03-.28,.06-.39,.09-.1,.02-.21,.05-.34,.07-.22,.07-.48,.14-.77,.21-.21,.03-.88,.22-1.16,.3l-.09,.02-.17,.71-.12,.52,2.93-.88h.01s.24-.71,.32-.99c.02-.07,.04-.11,.04-.11,0,0-.1,.02-.26,.05Z"/>
  <path d="M39.22,65.4c-.09,.02-.18,.05-.31,.08-.2,.07-.42,.14-.67,.21-.16,.03-.47,.15-.72,.24-.12,.04-.22,.08-.27,.1h-.03s-.02,.02-.02,.03c-.14,.09-.35,.26-.39,.32l.22,.17s.04-.03,.06-.05c.06-.06,.17-.15,.26-.21,.06-.02,.16-.06,.27-.1,.23-.09,.53-.21,.68-.23,.27-.07,.5-.14,.69-.21,.11-.03,.21-.05,.3-.08,.12-.03,.24-.06,.42-.1,.12-.05,.22-.08,.34-.11,.1-.03,.2-.07,.29-.1l-.07-.26s-.08,.03-.12,.04c-.17,.05-.35,.1-.52,.17-.16,.03-.28,.06-.41,.1Z"/>
  <path d="M39.82,63.87c-.1,.02-.2,.05-.34,.08-.23,.07-.48,.14-.76,.21-.2,.03-.76,.19-1.09,.28-.03,0-.07,.02-.09,.03l-.12,.03,.07,.26h.03s.09-.03,.09-.03c.28-.08,.95-.27,1.16-.3,.3-.07,.56-.14,.77-.21,.13-.03,.23-.05,.34-.07,.12-.03,.24-.05,.39-.09,.03,0,.04,0,.07-.02,.09-.04,.18-.05,.27-.08,.15-.04,.3-.1,.44-.13l-.06-.27s-.07,.02-.11,.03c-.2,.05-.41,.1-.61,.18-.18,.03-.31,.06-.45,.1Z"/>
  <path d="M40.97,62.73c-.13,0-.25-.01-.38-.03-.11-.01-.21-.02-.31-.03-.12-.02-.24-.02-.36-.03-.11,0-.23,0-.35-.03-.1,0-.2-.01-.3-.03-.11-.02-.22-.03-.33-.03-.09,0-.18-.01-.28-.02-.12-.01-.24-.02-.36-.02h-.21v.25h.21c.11,0,.23,.01,.34,.02,.1,0,.2,.02,.3,.02,.1,0,.2,.01,.3,.03,.11,.02,.22,.03,.32,.03,.11,.02,.23,.02,.35,.03,.12,0,.23,.01,.35,.03,.11,0,.21,.02,.31,.03,.13,.01,.25,.03,.4,.03h.17s.04,.02,.06,.02c.04,0,.08,0,.13,.01,.06,0,.12,0,.2,0v-.25s-.02,0-.02,0l-.34-.03c-.05,0-.11-.01-.18-.01Z"/>
  <path d="M38.74,66.78c-.08,.02-.17,.05-.28,.08-.18,.07-.39,.14-.61,.21-.15,.03-.43,.15-.66,.24-.11,.04-.2,.08-.25,.1h-.03s-.06,.05-.09,.08c-.12,.1-.26,.23-.29,.27l.18,.13h.02s.18-.17,.3-.24c.06-.02,.15-.06,.25-.1,.21-.09,.49-.21,.62-.23,.24-.07,.46-.14,.63-.21,.1-.03,.19-.05,.28-.08,.11-.03,.22-.06,.38-.1,.12-.06,.23-.09,.35-.12,.08-.03,.16-.06,.23-.08l-.07-.24s-.02,0-.03,.01c-.18,.05-.38,.11-.55,.2-.14,.03-.26,.06-.37,.1Z"/>
  <path d="M23.85,47.78h0v-.08l.04,.03s.1-.06,.18-.13c-.02-.11-.03-.21-.02-.31-.04,.03-.07,.07-.1,.1-.09,.07-.15,.11-.19,.13,0,0-.01,.01-.02,.02-.04,.03-.09,.07-.07,.15,.02,.07,.08,.09,.14,.09h.01s.01,0,.01,0h0Z"/>
  <path d="M31.09,47.12h-.05s0,.06,0,.09c0,.06-.02,.11-.03,.17,0,0,0-.02,0-.03,.03-.09,.06-.17,.07-.24Z"/>
  <path d="M33.96,48.94s0,.09,0,.15c0,.01,0,.03,0,.04-.01,.11-.02,.24-.02,.34,0,.2-.28,.85-.6,1.07-.03-.02-.06-.04-.08-.05-.03-.02-.1-.07-.18-.13l-.02-.06s-.03,.01-.04,.02c-.51-.33-1.64-1.02-2.25-1.24-.3-.09-.54-.17-.71-.22-.03,0-.04-.01-.06-.02-.05,.02-.1,.03-.16,.03-.07,0-.15-.02-.23-.07-.05,.04-.1,.07-.14,.11-.07,.06-.14,.12-.23,.18-.2,.21-2.01,1.13-2.54,1.4-.08,.04-.13,.06-.14,.07l.04,.12v.12s.2-.08,.43-.19c.74-.37,2.2-1.15,2.37-1.33,.08-.06,.15-.12,.23-.18,.03-.03,.07-.06,.11-.08,.04,.01,.12,.04,.25,.08,.17,.05,.41,.13,.71,.22,.54,.2,1.51,.77,2.05,1.11-1.09,.46-2.36,1.57-2.91,2.86-.02,.04-.04,.09-.06,.13l.23,.09s.01-.02,.02-.04c.57-1.46,2.02-2.53,2.97-2.88,.06,.04,.1,.07,.12,.09,.07,.05,.15,.1,.23,.15,.11,.07,.24,.14,.31,.23,.12,.1,.22,.22,.31,.33,.03,.04,.07,.08,.11,.13,.15,.18,.27,.33,.36,.48l.03,.03c.42,.34,1.68,2.91,1.75,3.14,.07,.13,.15,.32,.21,.46l.02,.03c.05,.06,.1,.15,.15,.24,.03,.05,.06,.11,.08,.15,.07,.17,.15,.27,.22,.37,.03,.04,.06,.08,.09,.12l.03,.03c.05,.04,.11,.08,.17,.13,.11,.09,.23,.19,.33,.24,.12,.1,.23,.17,.33,.23,.07,.04,.13,.07,.18,.12l.03,.02c.18,.08,2.39,1.47,2.51,1.55,.13,.1,.47,.45,.5,.78,0,.12-.03,.23-.11,.32-.07,.06-.15,.13-.21,.2-.1,.1-.2,.2-.28,.24l-.03,.02c-.11,.11-.27,.18-.42,.24-.04,.02-.08,.03-.1,.04-.82,.24-1.3,.21-1.55,.19-.05,0-.1,0-.13,0h-.21v.25h.21s.07,0,.11,0c.08,0,.18,.01,.3,.01,.3,0,.74-.04,1.35-.22l.11-.05c.12-.05,.25-.12,.37-.2,0,.13,.06,.22,.1,.29,.02,.03,.03,.05,.05,.08l.02,.03c.13,.17,.44,.4,.91,.55,.16,.04,.29,.09,.5,.17h.03s.09,.02,.12,.03c.03,.01,.07,.02,.11,.04l.04,.02,.09-.23h-.04s-.03-.03-.05-.03c-.06-.03-.13-.05-.23-.06-.21-.08-.34-.12-.5-.17-.41-.13-.67-.32-.78-.46-.02-.03-.04-.07-.06-.1-.06-.09-.11-.17-.03-.38,.05-.05,.11-.09,.16-.14,.06-.06,.13-.13,.21-.2,.14-.15,.2-.32,.18-.51-.03-.4-.4-.8-.59-.96-.02-.01-2.24-1.42-2.55-1.57-.06-.05-.13-.09-.2-.13-.09-.06-.19-.11-.32-.21-.1-.06-.21-.15-.31-.23-.06-.05-.12-.09-.17-.13-.03-.04-.05-.07-.08-.11-.07-.1-.13-.18-.2-.33-.03-.05-.06-.11-.09-.15-.05-.1-.1-.19-.17-.27-.06-.14-.14-.33-.2-.43,0-.02-.05-.12-.12-.27,.2,0,.47-.02,.64-.04,.44,0,1.01-.38,1.12-.61,0,0,0,0,.01-.01,.06-.07,.1-.11,.13-.14,.03-.03,.09-.09,.06-.17-.03-.07-.08-.08-.14-.08h-.02s-.01,0-.02,0v.1l-.05-.03s-.06,.06-.11,.11c-.02,.02-.04,.05-.07,.08l-.02,.03c-.04,.11-.53,.47-.92,.47-.19,.02-.49,.04-.69,.04-.01,0-.04,0-.06-.02h0c-.4-.83-1.18-2.36-1.57-2.7-.1-.16-.23-.32-.38-.51-.03-.04-.07-.08-.1-.12-.1-.12-.21-.25-.32-.34-.06-.08-.16-.15-.27-.22,.35-.3,.62-.93,.63-1.2,0-.05,0-.1,.01-.16,0-.06,0-.11,.01-.16,.01-.13,.02-.2,.01-.26l-.24,.04Z"/>
  <path d="M25.13,44.15c.11,.05,.19,.07,.28,.09,.06,.01,.12,.03,.19,.06,.04,.01,.08,.02,.14,.04,.21,.06,.56,.15,.74,.33l.08,.07c.15,.13,.27,.25,.44,.35,.25,.17,.43,.25,.71,.36,.25,.09,.53,.2,.79,.21,.1,0,.17,0,.23,0,.05,0,.09,0,.14,0,.06,0,.12,0,.2,0h.08c.06-.08,.13-.16,.19-.25h-.27c-.09,0-.15,0-.21,0-.1,0-.18,0-.35,0-.23,0-.49-.11-.71-.19-.3-.12-.45-.19-.67-.34-.15-.09-.27-.2-.41-.33l-.08-.07c-.22-.22-.61-.32-.85-.39-.05-.01-.1-.03-.12-.03-.08-.03-.15-.05-.21-.06-.08-.02-.15-.04-.23-.07-.08-.03-.12-.05-.16-.06-.03,0-.05-.02-.08-.02-.03,0-.07-.01-.2-.06l-.09,.23c.06,.02,.1,.04,.14,.05,.05,.01,.08,.02,.1,.03,.03,0,.06,.01,.18,.07Z"/>
  <path class="cls-3" d="M29.59,45.5c-.09,.14-.18,.25-.28,.36-.12,.14-.24,.28-.39,.51-.13,.21-.32,.53-1.11,.61-.01,0-1.41,.02-1.41,.02,0,0-.03,0-.08-.01-.72-.12-1.27-.16-1.63-.14-.2,.03-.3,.15-.35,.26-.11,.22-.07,.53,.1,.79,.23,.37,.35,.4,.82,.37,.28-.05,.45-.16,.62-.27,.1-.07,.2-.13,.32-.17,.61-.24,.63-.24,.66-.24,.25-.04,.59-.08,.93-.08s.67,.04,.9,.15c.26,.13,.39,.29,.6,.55,.06,.07,.13,.15,.21,.25,.27,.26,.31,.3,.9-.24,.05-.05,.4-.57,.38-1.19-.01-.44-.19-.83-.55-1.17-.02-.01-.03-.03-.05-.05-.1-.11-.41-.42-.61-.3Z"/>
  <path class="cls-5" d="M57.89,20l-.43-.6v-.06c.12-.38,.26-.93,.35-1.27-.32,.24-.89,.67-1.3,.99l-.05,.04-1.33-.51,.17,1.71-.03,.04c-.37,.47-.89,1.13-1.16,1.48,.1-.01,.23-.03,.4-.05,.43-.05,1.07-.13,1.14-.15l.05-.03,.04,.03c.08,.03,.1,.04,.55,1.46,.19-.49,.52-1.41,.59-1.62h0s.03-.07,.03-.07c.04-.09,.54-.32,.82-.44-.02-.21-.01-.59,.18-.95Z"/>
  <path class="cls-1" d="M57.11,28.27c.1,.14,.25,.36,.35,.54,.09-.13,.16-.22,.18-.24,.07-.1,.19-.27,.28-.39,.04-.1,.09-.18,.15-.28,.03-.05,.06-.1,.09-.15,.1-.13,.14-.23,.19-.34,.02-.04,.04-.08,.06-.12,0-.06,.02-.13,.03-.21,.02-.13,.05-.27,.05-.39,.03-.16,.03-.27,.03-.38,0-.08,0-.16,.01-.24-.02-.34,.12-2.97,.12-2.99,.04-.25,.21-.76,.54-.99,.16-.11,.34-.14,.54-.09,.1,.04,.19,.06,.28,.09,.08,.02,.14,.05,.2,.07,.22-.04,.26-.12,.31-.22,.02-.03,.04-.07,.06-.1,.06-.16,.1-.49,.02-.9-.05-.18-.07-.32-.1-.52-.04-.09-.05-.16-.06-.23h-.08s-.04-.04-.04-.04c-.21-.17-.48-.37-.57-.41h-.02c-.63-.12-1.08-.04-1.36,.22-.35,.34-.3,.87-.28,1.02l.24,1.5v.04c-.26,.9-.54,1.92-.58,2.16l.04,.07-.09,.1c-.52,.58-1.12,1.6-1.7,2.73,0,0,0,0,.02,0,.25-.02,.87,.3,1.08,.68Z"/>
  <path class="cls-1" d="M66.75,22.49s-.13-.11-.22-.19c-.15-.12-.32-.27-.45-.39l.64,.62-.52,.15,.6-.15s-.02,0-.02-.01l-.03-.02Z"/>
  <path class="cls-1" d="M61.76,24.05c-.11-.23-.31-.66-.93-1.26-.02-.01-.05-.04-.09-.06-.13-.1-.26-.21-.42-.25h-.03c-.08-.06-.21-.1-.35-.14-.09-.03-.19-.05-.28-.09-.11-.03-.22,0-.33,.06-.28,.18-.41,.65-.43,.81-.01,.14-.14,2.75-.12,2.95v.02s0,.02,0,.02c-.01,.07-.01,.14-.01,.22,0,.12,0,.25-.03,.4,0,.11-.02,.27-.05,.41-.01,.08-.03,.15-.03,.21v.04s-.05,.09-.07,.13c-.05,.11-.1,.23-.21,.38-.02,.04-.06,.1-.09,.15-.06,.09-.11,.17-.14,.25l-.02,.04c-.09,.11-.21,.28-.3,.4-.17,.18-1.79,2.53-1.88,3.07v.04c-.1,.15-.17,.34-.26,.55-.02,.06-.04,.11-.06,.15-.05,.14-.11,.28-.14,.44-.04,.11-.05,.25-.05,.38,0,.09,0,.19-.02,.28,0,.02-.01,.08-.02,.15,.77,.66,2.41,1.4,3.97,1.18,.46-1.84,.68-3.7,.87-5.31,.04-.34,.08-.67,.12-.98-.05-1.57,.13-2.78,.32-3.28l.02-.04c.3-.46,.68-.85,1.13-1.18v-.02s-.04-.07-.07-.12Z"/>
  <path class="cls-1" d="M68.13,22.1l-.02-.02s-.12-.1-.21-.17c-.2-.15-.44-.34-.53-.45-.17-.17-.33-.31-.48-.43-.08-.09-.15-.15-.21-.21-.08-.08-.17-.16-.26-.27-.16-.11-.31-.25-.44-.39-.32,.04-.68,.1-1.09,.17,.09,.08,.16,.16,.26,.24,.12,.14,.21,.22,.29,.31,.07,.07,.14,.14,.21,.23,.16,.13,.33,.3,.52,.5,.09,.11,.35,.32,.53,.48,.09,.08,.17,.14,.22,.19,.09,.05,.22,.1,.31,.13l1-.26s-.07-.03-.1-.04Z"/>
  <path class="cls-1" d="M65.97,21.79c-.18-.18-.35-.35-.51-.48-.09-.1-.15-.16-.22-.23-.09-.09-.18-.18-.28-.3-.15-.11-.28-.24-.4-.37-.01,0-.02,0-.03,0l1.55,1.49s-.07-.07-.1-.1Z"/>
  <path class="cls-1" d="M53.27,43.33c-.01-.05-.03-.11-.04-.17-.04-.13-.07-.26-.06-.36-.05-.17-.03-.31-.02-.45,0-.03,0-.07,.01-.11,.06-.25,.08-.41,.08-.62,.01-.16,.01-.29,.01-.41,0-.1,0-.2,0-.31-.02-.07-.04-.14-.06-.21-.03-.12-.06-.24-.13-.37-.03-.07-.07-.14-.1-.21-.06-.13-.12-.26-.2-.4l-.13-.23s-.06-.01-.09-.01h-.04c-.14-.07-.21-.19-.24-.32,0,0-.01,.01-.02,.02h-.03s-.04,0-.04,0c-.19-.06-.62-.13-.85-.17-.09,0-.2-.03-.31-.04-.09-.02-.17-.03-.25-.04l-.15-.02c-.17-.02-.32-.04-.44-.04h-.04s-.08-.02-.18-.04c-3.58-.64-6.24-2.08-7.83-3.19l-.24-.17c-.4-.29-.61-.43-.71-.52h0s0,0,0,0c-.04-.04-.05-.06-.06-.08-.15,.12-.3,.25-.45,.37l-.61,.57c.02,.42,.02,.83,.02,1.27,0,1.36-.01,2.76,.65,4.22l-.04,.06c1.25,.68,7.31,1.97,8.35,2.12,.27-.02,.56-.04,.85-.04,1.17,0,2.47,.19,3.47,.52,0,0,.01,0,.02,0-.02-.14-.04-.28-.07-.41-.01-.08-.03-.15-.04-.21Z"/>
  <path class="cls-1" d="M64.4,22.12c-.2-.21-.38-.4-.55-.56-.09-.11-.16-.18-.24-.26-.1-.11-.19-.21-.31-.35-.17-.14-.31-.29-.46-.45l-.72-.09s.04,.08,.06,.12c0,.02,.02,.04,.02,.05l.07,.15c.07,.12,.12,.24,.17,.36,.04,.09,.08,.19,.13,.28,.05,.11,.1,.22,.15,.32,.05,.11,.11,.22,.15,.32,.05,.08,.09,.19,.13,.29,.04,.1,.07,.19,.12,.28,.05,.08,.09,.18,.13,.27,.05,.1,.09,.21,.15,.31l.09,.16h0l.02,.03-.03,.02,1.71-.44c-.25-.24-.66-.65-.78-.81Z"/>
  <path class="cls-1" d="M66.85,20.64c.06,.06,.13,.13,.2,.21,.15,.12,.31,.27,.49,.45,.09,.1,.33,.29,.51,.43,.09,.07,.17,.13,.21,.17,.12,.06,.33,.12,.37,.13v.02s.63-.16,.63-.16c.28-.1,.77-.34,.7-.73-.05-.26-.31-.45-.39-.45h-.04s-.03,0-.03,0c-.28-.04-.49-.14-.71-.25-.43-.21-.98-.48-2.49-.34,.09,.08,.17,.16,.28,.24,.11,.12,.19,.2,.27,.28Z"/>
  <path class="cls-1" d="M57.03,43.21s-.09-.03-.14-.04c-.09,.04-.19,.07-.29,.08-.02,0-.04,0-.06,0-.22,0-.42-.1-.55-.28h0c-.21-.32-.44-.84-.7-1.55l-.02-.05h0c-.05-.08-.19-.33-.7-1.2-.38-.54-.65-.55-.87-.56-.3-.02-.5-.06-.68-.09-.02,0-.03,0-.05,0l.04,.07c.08,.15,.15,.29,.21,.42,.03,.07,.06,.13,.09,.2,.08,.15,.11,.28,.15,.42,.02,.07,.04,.14,.06,.22v.02s0,.02,0,.02c0,.11,0,.22,0,.32,0,.13,0,.27-.01,.43,0,.22-.03,.4-.09,.65,0,.02,0,.06-.01,.1-.02,.14-.03,.24,.01,.37v.03s0,.03,0,.03c-.01,.06,.02,.18,.05,.29,.02,.06,.04,.13,.05,.19,.01,.07,.02,.14,.04,.21,.03,.14,.06,.3,.07,.42,.02,.05,.03,.09,.05,.13,1.11,.4,2.17,.34,2.88-.2,.28-.15,.5-.34,.7-.53,0,0-.02,0-.02,0-.04-.02-.1-.06-.21-.1Z"/>
  <path class="cls-1" d="M63.18,23.3c-.06-.11-.11-.22-.16-.33-.04-.09-.08-.17-.12-.25-.06-.1-.1-.2-.14-.31-.04-.1-.07-.19-.12-.28-.05-.11-.1-.21-.15-.31-.06-.11-.11-.22-.15-.33-.05-.09-.09-.19-.13-.29-.05-.11-.09-.22-.16-.34,0,0,0,0,0,0h0c-.03-.06-.06-.11-.08-.16l-.15-.31-1.12-.14s0,.07,.03,.11v.03c.04,.22,.07,.35,.11,.51,.1,.49,.05,.87-.03,1.07l-.02,.03s-.03,.05-.05,.08c-.04,.07-.1,.16-.2,.23,.13,.06,.25,.14,.35,.22l.09,.07c.66,.64,.88,1.11,.99,1.34,.02,.04,.04,.08,.05,.1h0c.34-.22,.71-.42,1.13-.58l.1-.03h0s-.07-.13-.07-.13Z"/>
  <path class="cls-1" d="M55.18,36.46c-.11-.64-.07-1.97-.03-2.57-.01-.01-.03-.02-.04-.03l.04-.05c0-.1,.02-.19,.02-.22,0-.03,0-.07,0-.1-.34-.17-1.05-.09-1.22,0-.09,.05-.2,.1-.3,.14-.05,.22-.11,.38-.17,.51-.1,.21-.17,.37-.12,.85,0,.22,0,.34,0,.43-.01,.24-.01,.27,.18,1.44,0,.07,0,.14,0,.2,0,0,.02,0,.03,0,.52-.18,1.02-.15,1.1-.11,.34,.11,.56,.2,.69,.32,0-.03-.01-.05-.02-.08-.04-.18-.09-.42-.15-.72Z"/>
  <path class="cls-1" d="M55.38,34.09c-.04,.63-.06,1.76,.03,2.33,.06,.3,.12,.54,.15,.72,.03,.14,.05,.22,.06,.26,.04,.02,.09,.04,.13,.05,.09,.03,.18,.07,.27,.11,.23,.06,1.64,.95,2.32,1.42-.01-.16-.01-.3,0-.43,0-.14,.01-.28,0-.44v-.06s.01-.05,.01-.05c.41-.89,.71-1.84,.96-2.79-.16,.02-.32,.04-.49,.04-1.26,0-2.61-.52-3.43-1.16Z"/>
  <path class="cls-1" d="M41.26,34.8l.07-.07s.48,.35,.72,.52l.24,.17c1.57,1.09,4.19,2.52,7.73,3.15,.11,.02,.16,.03,.19,.04,.13,0,.28,.02,.45,.04l.15,.02c.08,0,.18,.02,.27,.04,.1,.02,.2,.04,.29,.04,.19,.03,.51,.08,.74,.14h0s.12-.02,.12-.02v.05s.02,0,.02,0c0-.18,.05-.36,.08-.45h0s0,0,0,0v-.05c.11-.38,.29-.69,.55-.94-.18,0-.35-.06-.46-.1h-.03c-1.89-1.2-3.69-2.1-5.6-3.05-.96-.48-1.95-.97-2.96-1.51l-.15-.08c-.55,.45-1.1,.91-1.64,1.35-.24,.2-.49,.41-.74,.61h0s-.05,.1-.05,.1Z"/>
  <path class="cls-1" d="M55.19,33.24c0-.12,.01-.24,.06-.34,.03-.15,.09-.3,.14-.45,.02-.05,.04-.09,.05-.14,.09-.23,.16-.42,.26-.58,.11-.51,1.06-1.94,1.59-2.69,0,0,0,0,0,0,0-.02-.01-.05-.02-.06-.1-.17-.26-.42-.37-.58-.19-.34-.75-.58-.86-.57h-.02s-.02,0-.02,0c-.04,0-.08-.02-.11-.02-1.1,2.18-2.08,4.71-2.17,5.41,0,.05-.01,.08-.01,.12,.05-.02,.1-.04,.14-.07,.24-.12,.92-.19,1.35-.04Z"/>
  <path class="cls-1" d="M55.67,37.68c-.05-.02-.12-.05-.17-.07,0,.09,0,.19-.04,.31-.05,.13-.09,.23-.12,.32-.12,.3-.18,.45-.17,.69,.02,.34,.3,.89,.77,1.49,.02,.02,.03,.04,.03,.04,.01,0,.29,.24,.48,.39,.08,.07,.17,.11,.27,.17,.19,.1,.4,.21,.62,.48,.31,.47,.36,.69,.1,1.16-.07,.14-.17,.25-.28,.35,.1,.04,.17,.08,.2,.1v.05s.06-.04,.06-.04h0s0,0,0,0v.02c.41-.45,.7-.97,.96-1.48,.07-.14,.14-.28,.22-.42,.18-.46,.18-.94-.01-1.33-.09-.23-.14-.41-.18-.57-.49-.34-2.18-1.45-2.46-1.53-.11-.05-.19-.08-.28-.11Z"/>
  <path class="cls-1" d="M63.54,20.82c-.1-.12-.17-.2-.17-.2,0,0,.05-.01,.12-.02l-.2-.03c.07,.07,.12,.13,.2,.2,.02,.02,.03,.04,.05,.06Z"/>
  <path d="M69.52,20.33c-.21-.04-.38-.12-.57-.21-.67-.33-1.6-.79-5.36,.11l-3.07-.39c-.51-.41-.67-.48-.77-.47-.73-.12-1.28-.01-1.64,.34-.03,.03-.04,.06-.06,.09l-.31-.43q.43-1.61,.35-1.68l-.07-.05-.07,.04s-.03,.02-1.53,1.16l-1.39-.54-.17,.13,.18,1.81c-.81,1.03-1.15,1.45-1.27,1.65,0,0,0,0,0,0h0c-.08,.13-.06,.15-.04,.19l.07,.08,.07-.04c.07-.01,.37-.05,.66-.09,.67-.08,.96-.12,1.09-.14,.1,.24,.34,1.01,.44,1.33,.09,.28,.09,.29,.1,.3l.04,.06h.07s.07,0,.07,0l.04-.06s.6-1.5,.72-1.98c.08-.05,.42-.22,.65-.32l.21,1.28c-.4,1.43-.53,1.96-.56,2.18-1.57,1.81-3.89,7.42-4.04,8.54-.03,.43-.12,.62-.2,.8-.11,.24-.21,.46-.15,1.03,0,.19,0,.3,0,.39-.01,.29,0,.35,.18,1.52,.01,.1-.02,.13-.03,.14-.09,.07-.34,.06-.55-.03-1.9-1.19-3.7-2.09-5.61-3.04-.96-.48-1.94-.97-2.96-1.51h0s.04-.03,.05-.05l-.03-.21c-.24-.11-.39-.68-.44-1.13l-.11-.04c-.36-1.96-2.47-7.28-2.8-7.98l-.02-.04c-.82-1.02-1.58-2.53-1.91-3.74-.24-1.44-1.02-2.52-2.05-2.88-1.05-.56-2.06-.45-3.03-.35-.16,.02-.31,.03-.49,.05-.61,.13-1.1,.45-1.37,.91-.37,.53-.61,.67-.87,.82-.12,.07-.25,.14-.38,.26-2.97,.48-5.8,1.88-8.07,3.01-.31,.15-.6,.3-.91,.45-1.25,.86-2.31,1.37-2.78,1.48-.94,0-1.82-.31-2.68-.94l-4.65-4.23c-.93-.69-1.41-.29-1.58-.08-.25,.31-.29,.79-.11,1.01,.09,.19,.11,.38,.13,.59,.09,.75,.21,1.77,3.03,4.43l1.35,2.78c-.06,.65-.03,.83,.03,.9,.3,.68,.69,1.08,1.18,1.19,.04,0,.07,0,.11,0l-.19,.5q-1.59,.52-1.59,.63v.08s.07,.04,.07,.04c0,0,.03,.02,1.81,.64l.35,1.65,1.57-1.27c1.3,.12,1.84,.16,2.07,.16,0,0,0,0,0,0h0c.15,0,.16-.03,.17-.07l.03-.1-.07-.04c-.05-.05-.24-.28-.43-.5-.44-.51-.63-.73-.72-.83,.15-.21,.66-.84,.87-1.1,.19-.22,.19-.23,.19-.24l.06-.11-.11-.06s-.06-.03-1.13,.21c-.62,.14-.89,.21-1,.25-.1-.05-.41-.23-.61-.36l.96-.87c1.42-.45,1.93-.63,2.13-.72,2.37,.32,8.34-.81,9.36-1.29,.38-.21,.58-.24,.78-.27,.26-.04,.5-.08,.95-.44,.16-.11,.26-.16,.33-.21,.25-.15,.29-.18,1.17-.98,.08-.07,.12-.05,.13-.05,.11,.04,.23,.26,.28,.48,.04,2.24,.28,4.24,.53,6.36,.1,.83,.19,1.69,.28,2.57v.03s0,.02,0,.02c.01,.11,.02,.22,.03,.32-.02,.12-.05,.23-.1,.33-.03,.02-.06,.05-.09,.07-.06,.05-.13,.11-.2,.16-1.24,.67-5.65,5.75-6.16,6.41l-.02,.04c-.53,1.19-1.52,2.57-2.44,3.41-1.16,.88-1.76,2.07-1.61,3.14-.01,1.19,.55,2.03,1.09,2.85,.09,.13,.17,.26,.27,.41,.39,.48,.91,.76,1.44,.8,.64,.08,.87,.23,1.12,.39,.12,.08,.24,.15,.4,.22,1.79,2.42,4.34,4.28,6.39,5.78,.28,.2,.54,.4,.82,.6,1.34,.71,2.28,1.42,2.6,1.79,.43,.83,.56,1.76,.41,2.81l-1.61,6.08c-.19,1.14,.39,1.39,.65,1.44,.06,.01,.12,.02,.19,.02,.33,0,.67-.16,.76-.38,.13-.17,.29-.27,.46-.39,.62-.42,1.47-1.01,2.53-4.73l1.85-2.48c.61-.24,.75-.35,.79-.44,.47-.57,.64-1.11,.51-1.6,0-.04-.03-.06-.05-.1l.53-.06c1.01,.98,1.17,1.14,1.25,1.14,.02,0,.03,0,.04-.01l.08-.03v-.08s0-.04-.26-1.9l1.15-.95-.03-.21-1.66-.73c-.5-1.21-.7-1.71-.81-1.91h0s0,0,0,0c-.07-.14-.1-.13-.14-.12l-.1,.02v.08c-.03,.07-.14,.35-.25,.62-.25,.62-.36,.89-.41,1.02-.25-.03-1.05-.2-1.37-.27-.29-.06-.29-.06-.31-.06l-.12,.12s1.02,1.32,1.39,1.66c0,.09-.02,.47-.04,.72l-1.21-.45c-1.05-1.05-1.45-1.43-1.62-1.56-.82-2.28-4.48-6.92-5.41-7.65-.59-.61-.89-.9-1.51-1.27l-.06-.03c-.84-.4-1.12-.54-1.66-.75-.09-.04-.1-.08-.1-.09-.02-.11,.12-.33,.29-.47,1.97-1.07,3.64-2.2,5.41-3.4,.82-.55,1.67-1.13,2.55-1.7,.03,.02,.09,.03,.37,.03,.05,0,.12,0,.19,0,.04,.02,.09,.04,.13,.06,.08,.03,.15,.06,.23,.09,1.19,.76,7.78,2.11,8.61,2.23h.02s.02,0,.02,0c1.3-.12,2.98,.06,4.17,.45,.62,.27,1.23,.4,1.8,.4,.66,0,1.27-.18,1.73-.54,1.04-.57,1.5-1.48,1.95-2.35,.07-.14,.14-.28,.23-.43,.22-.58,.22-1.17,0-1.64-.24-.6-.22-.88-.21-1.17,0-.14,.01-.29,0-.46,1.23-2.75,1.6-5.88,1.9-8.4,.04-.34,.08-.67,.12-1.01-.04-1.52,.12-2.68,.29-3.14,.51-.78,1.26-1.35,2.25-1.73l6.09-1.58c1.09-.4,1.02-1.02,.93-1.27-.12-.37-.5-.68-.78-.65Zm-12.63,1.05l-.03,.06h0c-.07,.22-.4,1.15-.59,1.63-.44-1.42-.47-1.43-.55-1.46l-.04-.03-.05,.03c-.07,.02-.72,.1-1.14,.15-.17,.02-.3,.04-.4,.05,.27-.34,.79-1,1.16-1.48l.03-.04-.17-1.71,1.33,.51,.05-.04c.41-.32,.98-.75,1.3-.99-.09,.34-.23,.89-.33,1.27v.06s.42,.6,.42,.6c-.2,.36-.2,.74-.18,.95-.28,.12-.78,.35-.82,.44Zm-17.29,19.84c-.89-.98-1.23-5.41-1.23-5.45v-.07s-.07-.03-.07-.03c-.76-.34-1.52-.67-2.28-1.01-.71-.31-1.41-.62-2.12-.93,.15-.19,.25-.5,.23-.81,.29,.09,.91,.32,1.52,.55,1.69,.63,3.01,1.11,3.36,1.12h.02s.02,0,.02,0c.78-.29,3.59-2.62,4.32-3.23,.06,.35,.17,.78,.4,1-.65,.53-1.27,1.05-1.89,1.56-.66,.55-1.32,1.1-2.02,1.67l-.05,.04v.06c.03,.45,.03,.9,.02,1.38,0,1.33-.01,2.71,.59,4.16-.33,0-.71,0-.84,0Zm-21.97-12.44h0c.21-.07,1.17-.3,1.68-.41-.94,1.15-.94,1.18-.92,1.26v.05s.05,.03,.05,.03c.06,.05,.48,.54,.76,.87,.11,.13,.19,.23,.26,.3-.43-.03-1.27-.11-1.87-.16h-.05s-1.34,1.07-1.34,1.07l-.3-1.39-.07-.02c-.49-.17-1.16-.41-1.54-.55,.33-.12,.87-.3,1.25-.42l.06-.02,.26-.69c.41-.03,.73-.23,.89-.36,.25,.17,.71,.47,.82,.45h.06Zm15.07-5.61c-.05-.04-.11-.11-.18-.17-.05,.02-.11,.06-.17,.1-.87,.8-.9,.81-1.11,.94-.08,.05-.18,.11-.36,.23-.38,.31-.55,.33-.78,.37-.14,.02-.3,.05-.52,.13,0,0,0,0,0,0,.06,.04,.14,.09,.17,.1l-.08,.23c-.05-.02-.12-.06-.22-.13-.05-.03-.1-.06-.14-.09-.04,.02-.07,.03-.11,.05-.64,.3-3.29,.87-5.72,1.15,.02,.06,.04,.11,.04,.14l-.05,.03,.09,.05s0,.01,0,.02v.02s-.01,0-.01,0c-.03,.04-.06,.08-.12,.08,0,0-.01,0-.02,0-.09,0-.11-.09-.12-.13,0-.03-.03-.1-.06-.17-1.27,.14-2.45,.19-3.21,.07l-.13-.02-.04,.07c-.22,.1-1.22,.43-2.11,.71h-.04s-1.12,1.04-1.12,1.04c-.12,.1-.54,.43-1.01,.33-.37-.08-.69-.43-.93-1.01v-.02c-.02-.11,0-.43,.03-.7v-.05s-.03-.07-.03-.07c-.01,.01-.02,.02-.04,.03l-.03,.03-.16-.19,.03-.03s.06-.05,.08-.08l-.5-1.03-.02,.03-.21-.12c.04-.07,.07-.12,.1-.17l-.32-.65s-.01,.08-.02,.11l-.26-.07c.04-.14,.06-.3,.09-.45l-.09-.18c-.2-.2-.73-.73-.72-.74h0s-.02-.03-.02-.04c0,.04-.01,.09-.02,.13l-.27-.06c.02-.09,.03-.2,.05-.3-.29-.3-.53-.57-.74-.81,0,.01,0,.02,0,.03l-.24-.05c.02-.07,.02-.16,.03-.24-.95-1.18-1.02-1.78-1.08-2.26-.03-.24-.06-.48-.18-.74v-.03s-.04-.03-.04-.03c-.04-.06-.03-.38,.16-.57,.28-.27,.75,0,.99,.19l.48,.44,.2-.1s.08,.22,.1,.38l.76,.7s-.02-.06-.02-.08l.25-.12c.03,.06,.09,.32,.1,.49l.46,.42,.55,.48v-.03s.27,.06,.27,.06l-.02,.11s-.01,.07-.02,.1l1.28,1.16,.03-.06,.11,.05c.07,.03,.07,.09,.06,.14l-.1-.05,.04,.04,.06,.02s0,.02,0,.03h0s0,0,0,0c0,0,0,0,0,0h0s0,0,0,0c0,0,0,.01-.01,.02l.07,.07c.37,.27,.74,.46,1.11,.63l.1-.19,.22,.11-.09,.17c.52,.2,1.05,.3,1.61,.3h.04c.52-.12,1.63-.64,2.92-1.53,.29-.14,.58-.29,.89-.44,1.45-.72,3.13-1.55,4.91-2.18,0,0-.02-.02-.02-.03l.18-.16s.06,.08,.09,.11c.93-.31,1.88-.57,2.85-.73h.06s.04-.05,.04-.05c.12-.11,.24-.18,.36-.25,.11-.06,.23-.14,.36-.24,0-.26,.02-.44,.03-.47l.11,.06,.12,.02s0,.07,0,.16c.12-.12,.24-.26,.38-.46,.23-.37,.63-.64,1.11-.74,.16-.01,.31-.03,.47-.05,.58-.06,1.17-.12,1.77-.03,.03-.05,.07-.09,.14-.08,.08,.02,.09,.08,.1,.13,.27,.06,.55,.15,.83,.3,.84,.3,1.48,1.14,1.76,2.28,0,0,0,0,0,0,.02-.03,.09-.12,.19-.06,.08,.05,.06,.13,.04,.18h0s0,.02,0,.02c0,0,0,0,0,0h0s0,.01,0,.01c-.03,.05-.07,.09-.12,.16,0,0,0,0-.01,.01,0,0,0,.01,0,.02,.34,1.26,1.12,2.82,1.96,3.88,.42,.92,2.53,6.32,2.78,7.98-.82,.69-3.39,2.81-4.13,3.1-.3-.03-1.33-.39-2.34-.77-.08-.03-.16-.06-.24-.09-.23-.09-.46-.17-.68-.25-.84-.31-1.27-.47-1.52-.55-.09-.87-.18-1.72-.28-2.54-.25-2.12-.48-4.12-.53-6.34v-.03c-.03-.12-.08-.29-.17-.45,.13,.03,.25,.05,.39,.05,.23,0,.46-.04,.69-.12l.05-.02c.07-.02,.2-.06,.33-.12,.07-.04,.14-.08,.21-.14,.12-.11,.21-.25,.18-.44v-.04s-.04-.05-.05-.08c-.05-.1-.09-.19-.13-.28,0-.01-.01-.03-.02-.05-.07-.17-.15-.36-.29-.61-.11-.19-.26-.42-.01-1.03,0,0,.62-1.24,.62-1.24l.03-.04c.45-.61,.75-1.09,.9-1.43h0c.09-.24,.05-.47-.1-.67-.06-.08-.14-.14-.22-.2-.09-.06-.18-.1-.29-.13-.14-.04-.29-.06-.45-.05-.54,.04-.69,.2-.91,.72-.11,.33-.08,.57-.07,.78,.01,.11,.02,.21,0,.31-.03,.24-.06,.59-.06,.61,0,0,0,.02-.02,.05-.25,.72-.55,1.26-.82,1.46-.19,.14-.35,.17-.67,.24-.09,.02-.2,.04-.33,.07-.12,.04-.21,.09-.28,.13-.12,.08-.19,.18-.21,.32-.03,.18,.02,.41,.12,.75,0,.08,.26,.52,.7,.85,.05,.04,.08,.07,.14,.11,.03,.02,.07,.03,.1,.04l-.04,.04Zm.23-.21c-.56-.27-.86-.82-.88-.89-.21-.78-.15-.8,.2-.92,.12-.03,.22-.05,.31-.07,.33-.07,.53-.11,.76-.28,.43-.32,.76-1.13,.91-1.6,.01-.03,.02-.04,.09-.69,.02-.13,0-.24,0-.37-.02-.2-.04-.4,.05-.67,.19-.43,.27-.53,.7-.56,.03,0,.07,0,.1,0,.27,0,.51,.1,.64,.28,.07,.09,.14,.24,.07,.43-.14,.33-.44,.79-.87,1.38-.03,.04-.05,.06-.05,.07h0c-.04,.07-.16,.32-.63,1.26-.3,.73-.1,1.05,.03,1.27,.13,.23,.21,.41,.28,.58,.06,.14,.11,.27,.19,.41,.01,.16-.17,.29-.54,.4-.03,0-.05,.01-.07,.02-.46,.16-.89,.14-1.29-.05Zm10.52,33.86v-.06c.02-.07,.26-.67,.43-1.07,.06-.16,.11-.28,.15-.37,.17,.4,.49,1.18,.72,1.74l.02,.05,1.57,.69-1.1,.91v.07c.08,.52,.18,1.22,.24,1.62-.26-.24-.67-.64-.95-.91l-.04-.04-.73,.08c-.22-.35-.54-.54-.73-.62,.03-.3,.08-.85,.02-.93l-.04-.05h-.01c-.15-.16-.79-.91-1.12-1.31,1.45,.31,1.48,.29,1.54,.24l.04-.02Zm-9.26-7.93c0,.06,0,.13-.01,.26,0,.05,0,.11-.01,.16,.03,.04,.06,.06,.1,.1l.02,.02c.56,.42,2.27,2.5,3.63,4.5,.04-.05,.08-.09,.11-.11l.05,.03v-.1s.01,0,.02,0h.02c.05,0,.11,.02,.14,.08,.03,.08-.03,.14-.06,.17-.03,.02-.07,.07-.13,.14,.7,1.06,1.3,2.08,1.55,2.82l.04,.13h.08c.19,.15,.94,.89,1.6,1.55l.03,.03,1.42,.53c.15,.06,.63,.27,.76,.74,.1,.37-.06,.81-.47,1.3v.02c-.1,.06-.4,.19-.65,.29l-.05,.02-.05,.07s.03,.01,.05,.02h.04s-.09,.24-.09,.24l-.04-.02s-.07-.03-.11-.04l-.68,.92h.03s0,.25,0,.25c-.08,0-.14,0-.2,0l-.43,.58s.07-.02,.11-.03l.06,.27c-.14,.03-.29,.08-.44,.13l-.12,.16c-.09,.28-.31,.98-.32,.98h-.01s0,.03-.01,.04c.04-.01,.08-.03,.12-.04l.07,.26c-.09,.02-.19,.07-.29,.1-.13,.39-.26,.73-.38,1.03,.01,0,.02,0,.03-.01l.07,.24c-.07,.02-.15,.06-.23,.08-.61,1.39-1.11,1.73-1.51,2-.2,.14-.4,.27-.57,.5l-.02,.02v.04c-.04,.06-.33,.21-.59,.12-.37-.13-.34-.67-.29-.97l.17-.63-.18-.13s.16-.17,.29-.27l.26-1s-.05,.04-.06,.05l-.22-.17c.04-.05,.24-.23,.39-.32l.16-.6,.17-.71h-.03s-.07-.25-.07-.25l.12-.03s.06-.02,.09-.03l.45-1.7v-.22h.06l.03-.1c.07-.45,.07-.87,.04-1.27h-.21v-.25h.19c-.07-.56-.22-1.08-.48-1.57l-.02-.03c-.34-.41-1.31-1.15-2.7-1.88-.26-.19-.52-.38-.8-.59-1.31-.95-2.82-2.06-4.2-3.36,0,.01-.01,.02-.02,.04l-.23-.09s.04-.09,.06-.13c-.71-.68-1.38-1.41-1.96-2.2l-.03-.05-.05-.02c-.15-.06-.27-.13-.39-.21-.11-.07-.23-.14-.38-.21-.23,.11-.4,.19-.43,.19v-.12l-.04-.12s.07-.03,.14-.07c-.16-.05-.34-.09-.59-.12-.43-.03-.85-.26-1.17-.64-.08-.13-.17-.26-.26-.4-.32-.48-.63-.98-.83-1.55h-.01c-.06,0-.12-.02-.14-.09-.02-.08,.03-.12,.07-.15-.07-.27-.12-.56-.12-.87-.12-.89,.33-1.84,1.22-2.61-.03-.01-.07-.02-.14-.05l.09-.23c.13,.05,.17,.06,.2,.06,.02,0,.05,.01,.08,.02,0,0,.02-.01,.03-.02,.97-.88,1.98-2.3,2.54-3.53,.66-.85,4.96-5.75,6.04-6.3l.03-.02s.05-.04,.07-.06c.06,.03,.13,.06,.19,.09v.11s.83,.26,.83,.26c.37,.16,.74,.33,1.12,.49,.74,.32,1.47,.65,2.21,.98,.02,.21,.07,.8,.16,1.53,0,0,.01,0,.02,0h0s0,0,0,0c.13-.05,.15-.02,.18,.03l.06,.1-.1,.07-.06-.09,.03,.1s-.05,.02-.1,.05c.17,1.23,.46,2.74,.91,3.49-.88,.57-1.72,1.14-2.53,1.69-1.77,1.2-3.43,2.33-5.39,3.39l-.03,.02c-.1,.08-.22,.2-.32,.35-.09-.34-.27-.65-.56-.93l-.04-.04c-.09-.1-.31-.32-.55-.38,0,0-.02,.02-.03,.03h0s-.04,.11-.04,.11l-.04-.02s-.01,.01-.02,.02l.02,.03s-.08,.05-.11,.05c-.03,0-.05,0-.06-.02-.03-.02-.08-.06-.06-.17h0s-.04,.01-.05,.03l-.03,.03s-.04,.05-.06,.07c-.06,.09-.13,.17-.19,.25-.01,.01-.02,.03-.03,.04-.12,.14-.25,.3-.41,.54-.11,.19-.26,.42-.91,.49l-1.39,.02h-.05c-.74-.13-1.31-.17-1.69-.15h0c-.24,.03-.44,.17-.54,.4-.04,.09-.06,.19-.07,.29,0,.1,0,.21,.02,.31,.03,.14,.08,.28,.16,.42,.28,.46,.5,.52,1.06,.48,.34-.06,.55-.19,.72-.3,.1-.06,.18-.11,.28-.15,.22-.09,.56-.22,.57-.22,0,0,.02,0,.05,0,.76-.11,1.37-.09,1.68,.06,.21,.1,.31,.23,.52,.48,.06,.07,.13,.16,.22,.26,.09,.09,.17,.15,.25,.19,.08,.04,.15,.07,.23,.07,.05,0,.1-.01,.16-.03,.17-.06,.35-.22,.6-.45,.07-.05,.34-.47,.44-1.01,0-.06,.03-.11,.03-.17,0-.04,0-.07,0-.11h.05c-.02,.08-.04,.16-.07,.25,.04,.04,.1,.07,.16,.1,.52,.21,.8,.34,1.63,.74l.04,.02c.43,.26,.7,.48,1.09,.88,0-.06,.01-.13,0-.15l.24-.04Zm-3.95-3.06c.35,.34,.54,.73,.55,1.17,.02,.62-.33,1.14-.38,1.19-.59,.54-.64,.5-.9,.24-.08-.09-.15-.18-.21-.25-.21-.26-.34-.42-.6-.55-.24-.12-.57-.15-.9-.15s-.69,.04-.93,.08c-.03,0-.04,0-.66,.24-.12,.04-.22,.11-.32,.17-.17,.11-.34,.22-.62,.27-.47,.03-.59,0-.82-.37-.17-.26-.2-.56-.1-.79,.05-.1,.15-.23,.35-.26,.36-.02,.9,.02,1.63,.14,.05,0,.08,.01,.08,.01,0,0,1.4-.02,1.41-.02,.79-.08,.98-.39,1.11-.61,.15-.23,.27-.37,.39-.51,.09-.11,.18-.22,.28-.36,.2-.12,.51,.19,.61,.3,.02,.02,.04,.04,.05,.05Zm37.05-23.42l-.04,.27c-.07,0-.32-.1-.47-.18l-.6,.15-.7,.2,.03,.02-.19,.19-.08-.08s-.05-.05-.07-.07l-1.71,.44h0s-.03,.12-.03,.12l-.11-.04-.04,.02-.02-.04h.01s-.01-.01-.01-.01l-.1,.03c-.42,.16-.79,.36-1.13,.59l.1,.18-.21,.12-.1-.17c-.45,.33-.83,.72-1.13,1.18l-.02,.04c-.19,.49-.36,1.71-.32,3.28-.04,.32-.08,.64-.12,.98-.19,1.61-.41,3.47-.87,5.31,.01,0,.03,0,.04,0l.04,.24s-.1,0-.14,.01c-.25,.95-.55,1.89-.96,2.79l-.02,.05v.06c.03,.16,.03,.3,.02,.44,0,.13,0,.27,0,.43,.21,.15,.36,.25,.38,.28l-.11,.06-.08,.09s-.06-.04-.13-.09c.04,.16,.09,.35,.18,.57,.19,.39,.19,.87,.01,1.33-.07,.14-.15,.28-.22,.42-.26,.51-.55,1.03-.95,1.48h0s0,.01,0,.01c.03,.05,.04,.11-.01,.17-.03,.03-.06,.04-.08,.04-.03,0-.06-.01-.08-.03-.2,.2-.43,.38-.7,.53-.71,.54-1.77,.6-2.88,.2,0,0,0,.02,.01,.03,.03,.09,.02,.16-.05,.19-.02,0-.04,.01-.05,.01-.06,0-.09-.05-.11-.08h0s-.02-.04-.02-.04h0c-.02-.06-.04-.11-.06-.19,0,0,0-.01,0-.02,0,0-.01,0-.02,0-.99-.33-2.3-.52-3.47-.52-.3,0-.58,.01-.85,.04-1.04-.16-7.1-1.44-8.35-2.12l.04-.06c-.66-1.46-.65-2.86-.65-4.22,0-.44,0-.85-.02-1.27l.61-.57c.15-.13,.3-.25,.45-.37-.01-.03-.01-.06,0-.09l.06-.1,.1,.05c.24-.2,.49-.41,.74-.61,.54-.45,1.08-.9,1.64-1.35l.15,.08c1.01,.54,2,1.03,2.96,1.51,1.91,.95,3.71,1.85,5.6,3.04h.03c.11,.06,.29,.11,.46,.12-.25,.25-.44,.56-.53,.94v.05s-.01,0-.01,0h0c-.03,.09-.07,.27-.08,.45,0,0,0,0,0,0l.02-.03c.09,.04,.11,.1,.11,.14,0,.03-.03,.08-.1,.12,.03,.13,.09,.24,.24,.31h.04s.06,.02,.09,.02c.11,.01,.21,.03,.31,.05,.02,0,.03,0,.05,0,.18,.03,.38,.07,.68,.09,.22,0,.49,.02,.87,.56,.5,.87,.65,1.12,.7,1.2h0s.02,.05,.02,.05c.26,.71,.5,1.22,.7,1.54h0c.14,.19,.33,.29,.55,.29,.02,0,.04,0,.06,0,.1,0,.19-.04,.29-.08,.09-.04,.18-.1,.26-.17,.11-.1,.21-.21,.28-.35,.26-.47,.21-.69-.1-1.16-.22-.27-.43-.38-.62-.48-.1-.05-.19-.1-.27-.17-.19-.15-.46-.38-.48-.39,0,0-.01-.02-.03-.04-.47-.6-.75-1.15-.77-1.49-.01-.23,.05-.38,.17-.69,.03-.09,.07-.19,.12-.32,.03-.13,.04-.22,.04-.31,0-.14-.05-.25-.14-.34-.13-.12-.35-.21-.69-.32-.08-.04-.58-.07-1.1,.11-.05,.02-.11,.03-.16,.05-.03,.02-.06,.04-.09,.05l-.02-.05c.06-.02,.15-.04,.24-.05,0-.06,.01-.12,0-.2-.19-1.17-.19-1.2-.18-1.44,0-.09,0-.21,0-.43-.05-.48,.02-.64,.12-.85,.06-.13,.12-.28,.17-.51,0,0,0,0,0,0-.07,.03-.16,.07-.18,.08l-.15-.19s.11-.07,.23-.12c.05-.02,.1-.05,.15-.07,0-.04,.01-.08,.01-.12,.1-.7,1.08-3.23,2.17-5.41-.06-.01-.11-.03-.14-.04v-.06s-.08,.05-.08,.05c0,0,0,0,0,0h0s0,0,0,0c0-.01-.01-.02-.02-.04h0s0,0,0,0c-.02-.05-.04-.11,0-.16,.06-.07,.14-.04,.18-.03,.03,.01,.1,.03,.18,.05,.58-1.13,1.18-2.15,1.7-2.73l.09-.1-.04-.07c.04-.24,.31-1.26,.57-2.16v-.04s-.23-1.5-.23-1.5c-.02-.15-.07-.69,.28-1.02,.27-.27,.73-.34,1.36-.23h.02c.09,.05,.36,.25,.57,.42l.04,.03h.08s0-.02,0-.04v-.04s.24-.03,.24-.03v.04s.03,.08,.03,.11l1.12,.14v-.03s.21-.11,.21-.11c.04,.07,.06,.12,.08,.18l.72,.09s-.06-.05-.08-.08l.2-.18c.1,.11,.22,.21,.33,.32l.2,.03c.28-.06,1.01-.21,1.01-.2h.01s.02,0,.03,0c-.03-.03-.07-.06-.09-.09l.2-.19c.07,.07,.15,.14,.23,.21,.41-.08,.76-.13,1.09-.17,0,0-.02-.02-.03-.02l.17-.18c.05,.05,.13,.11,.18,.16,1.51-.15,2.05,.12,2.49,.34,.22,.11,.43,.21,.71,.25h.03s.04,0,.04,0h0c.07,0,.34,.18,.39,.45,.07,.39-.42,.63-.7,.73l-.63,.16-.02,.22s-.23-.06-.37-.12l-1,.26s.06,.02,.08,.02Zm-12.74,14.75c.76,.25,.75,.31,.66,.67-.04,.11-.08,.21-.12,.3-.12,.31-.2,.5-.18,.79,.03,.54,.53,1.25,.83,1.64,.01,.03,.02,.04,.53,.46,.1,.08,.2,.14,.31,.2,.17,.09,.36,.19,.54,.41,.26,.39,.29,.51,.08,.9-.14,.27-.39,.45-.64,.47-.11,0-.27-.02-.39-.18-.14-.21-.36-.63-.68-1.49-.02-.04-.03-.07-.03-.08-.01-.02-.7-1.21-.71-1.22-.45-.65-.82-.66-1.07-.67-.27-.02-.45-.05-.63-.09-.15-.03-.28-.05-.45-.07-.14-.08-.15-.3-.04-.68,0-.03,.01-.05,.02-.07,.12-.47,.37-.82,.75-1.05,.54-.32,1.16-.27,1.23-.25Z"/>
  <path class="cls-2" d="M66.08,21.91s-.01-.01-.02-.02l-1.55-1.49h-.01s-.73,.13-1.01,.19c-.07,.01-.12,.02-.12,.02,0,0,.07,.09,.17,.2,.1,.12,.19,.21,.27,.3,.07,.08,.15,.16,.23,.26,.17,.16,.36,.35,.56,.57,.13,.17,.63,.66,.84,.86l.06,.06,.7-.2,.52-.15-.64-.62Z"/>
  <path d="M66.7,22.09c-.19-.15-.44-.36-.53-.48-.19-.2-.37-.37-.52-.5-.08-.09-.15-.16-.21-.23-.09-.09-.17-.18-.29-.31-.1-.08-.18-.16-.26-.24-.07-.07-.16-.14-.23-.21l-.2,.19s.06,.06,.09,.09c.13,.13,.26,.26,.4,.37,.11,.12,.19,.21,.28,.3,.07,.07,.13,.14,.22,.23,.16,.14,.33,.3,.51,.48,.02,.03,.06,.06,.1,.1,0,0,.01,.01,.02,.02,.12,.12,.3,.26,.45,.39,.1,.08,.18,.15,.22,.19l.03,.02s.02,0,.02,.01c.15,.08,.4,.17,.47,.18l.04-.27s-.04-.01-.08-.02c-.08-.03-.21-.08-.31-.13-.05-.04-.13-.11-.22-.19Z"/>
  <path d="M65.44,22.81c-.21-.21-.7-.69-.84-.86-.21-.23-.4-.42-.56-.57-.08-.1-.16-.18-.23-.26-.08-.09-.16-.18-.27-.3-.02-.02-.03-.03-.05-.06-.08-.06-.13-.13-.2-.2-.11-.11-.23-.22-.33-.32l-.2,.18s.06,.05,.08,.08c.14,.15,.29,.31,.46,.45,.11,.14,.21,.24,.31,.35,.07,.08,.14,.16,.24,.26,.17,.16,.36,.35,.55,.56,.13,.16,.54,.57,.78,.81,.02,.02,.05,.05,.07,.07l.08,.08,.19-.19-.03-.02-.06-.06Z"/>
  <line class="cls-6" x1="55.67" y1="27.77" x2="55.67" y2="27.77"/>
  <path d="M63.49,23.34h0l-.09-.16c-.06-.1-.1-.21-.15-.31-.04-.09-.08-.18-.13-.27-.05-.08-.08-.18-.12-.28-.04-.1-.08-.21-.13-.29-.04-.1-.09-.21-.15-.32-.05-.1-.11-.21-.15-.32-.05-.1-.09-.19-.13-.28-.05-.12-.1-.24-.17-.36l-.07-.15s-.02-.04-.02-.05c-.01-.04-.04-.08-.06-.12-.03-.06-.04-.11-.08-.18l-.22,.11v.03s.16,.31,.16,.31c.02,.05,.05,.1,.08,.16h0s0,0,0,0c.07,.12,.11,.22,.16,.34,.04,.1,.08,.2,.13,.29,.04,.11,.1,.22,.15,.33,.05,.1,.1,.2,.15,.31,.05,.08,.08,.18,.12,.28,.04,.1,.08,.21,.14,.31,.04,.08,.08,.16,.12,.25,.05,.11,.1,.22,.16,.33l.07,.13h0s.01,0,.01,0h-.01s.02,.05,.02,.05l.04-.02,.11,.04,.03-.12h0s.03-.02,.03-.02l-.02-.03Z"/>
  <path d="M66.67,20.82c.06,.06,.13,.12,.21,.21,.15,.12,.31,.27,.48,.43,.1,.11,.34,.3,.53,.45,.09,.07,.17,.13,.21,.17l.02,.02s.06,.03,.1,.04c.15,.06,.32,.11,.37,.12l.02-.22v-.02s-.24-.07-.37-.13c-.05-.04-.12-.1-.21-.17-.18-.14-.42-.32-.51-.43-.18-.18-.35-.33-.49-.45-.07-.08-.14-.14-.2-.21-.08-.08-.16-.16-.27-.28-.11-.08-.19-.16-.28-.24-.06-.05-.13-.11-.18-.16l-.17,.18s.02,.02,.03,.02c.14,.13,.28,.27,.44,.39,.1,.11,.18,.19,.26,.27Z"/>
  <path d="M57.41,43.1h0s-.07,.04-.07,.04v-.05s-.09-.05-.19-.1c-.08,.07-.17,.13-.26,.17,.05,.01,.09,.03,.14,.04,.1,.04,.17,.08,.21,.1,0,0,.02,0,.02,0,.02,.01,.05,.03,.08,.03,.03,0,.06,0,.08-.04,.05-.05,.04-.12,.01-.17h0s0-.01,0-.01v-.02s-.01,0-.01,0Z"/>
  <path d="M53.29,37.12l.02,.05s.06-.04,.09-.05c.05-.02,.11-.03,.16-.05,0,0-.02,0-.03,0-.09,.02-.18,.03-.24,.05Z"/>
  <path d="M61.98,23.94c-.11-.23-.33-.7-.99-1.34l-.09-.07c-.1-.08-.22-.16-.35-.22,.11-.07,.16-.16,.2-.23,.01-.03,.03-.05,.05-.08l.02-.03c.08-.2,.14-.58,.03-1.07-.04-.16-.07-.29-.1-.51v-.03s-.03-.08-.04-.11c0-.03-.02-.07-.03-.11v-.04s-.25,.03-.25,.03v.04s.01,.03,.01,.05c0,.07,.02,.14,.06,.23,.03,.19,.05,.34,.1,.52,.09,.42,.05,.74-.02,.9-.02,.03-.04,.06-.06,.1-.05,.1-.1,.18-.31,.22-.07-.02-.13-.05-.2-.07-.09-.02-.18-.05-.28-.09-.19-.05-.37-.02-.54,.09-.34,.22-.5,.74-.54,.99,0,.02-.14,2.65-.12,2.99-.01,.08-.01,.15-.01,.24,0,.11,0,.22-.03,.38,0,.12-.02,.26-.05,.39-.01,.08-.03,.15-.03,.21-.02,.04-.04,.08-.06,.12-.05,.11-.09,.21-.19,.34-.03,.05-.06,.1-.09,.15-.06,.09-.12,.18-.15,.28-.09,.12-.21,.28-.28,.39-.02,.02-.09,.11-.18,.24-.1-.17-.25-.4-.35-.54-.22-.38-.83-.7-1.08-.68,0,0-.01,0-.02,0-.08-.02-.15-.03-.18-.05-.04-.01-.12-.04-.18,.03-.05,.06-.03,.11,0,.16h0s0,0,0,0c0,.01,.01,.02,.02,.04,0,0,0,0,0,0l.09-.05v.06s.07,.02,.14,.04c.03,0,.07,.02,.11,.02h.02s.02,0,.02,0c.11-.01,.67,.23,.86,.57,.11,.16,.28,.41,.37,.58,0,0,.01,.04,.02,.06,0,0,0,0,0,0-.53,.75-1.48,2.18-1.59,2.69-.09,.16-.17,.35-.26,.58-.02,.05-.03,.09-.05,.14-.06,.15-.12,.3-.14,.45-.04,.1-.05,.22-.06,.34-.44-.16-1.12-.09-1.35,.04-.04,.02-.09,.04-.14,.07-.05,.02-.1,.05-.15,.07-.12,.05-.19,.08-.23,.12l.15,.19s.11-.06,.18-.08c0,0,0,0,0,0,.1-.04,.21-.09,.3-.14,.17-.09,.88-.17,1.22,0,0,.03,0,.07,0,.1,0,.03-.02,.12-.02,.22l-.04,.05s.03,.02,.04,.03c-.04,.6-.08,1.93,.03,2.57,.07,.3,.12,.55,.15,.72,0,.04,.01,.06,.02,.08,.09,.09,.14,.2,.14,.34,.06,.02,.12,.05,.17,.07,.09,.03,.17,.07,.28,.11,.28,.08,1.97,1.19,2.46,1.53,.07,.05,.12,.08,.13,.09l.08-.09,.11-.06s-.16-.14-.38-.28c-.68-.47-2.08-1.35-2.32-1.42-.09-.04-.18-.08-.27-.11-.04-.02-.08-.04-.13-.05,0-.04-.03-.12-.06-.26-.04-.18-.09-.42-.15-.72-.1-.57-.07-1.69-.03-2.33,.83,.64,2.17,1.16,3.43,1.16,.16,0,.33-.02,.49-.04,.05,0,.1,0,.14-.01l-.04-.24s-.03,0-.04,0c-1.56,.22-3.19-.52-3.97-1.18,0-.07,.01-.12,.02-.15,.01-.08,.01-.18,.02-.28,0-.13,0-.28,.05-.38,.03-.15,.09-.3,.14-.44,.02-.05,.04-.1,.06-.15,.08-.22,.16-.4,.24-.55v-.04c.11-.53,1.73-2.89,1.9-3.07,.08-.12,.21-.29,.3-.4l.02-.04c.03-.08,.08-.16,.14-.25,.03-.05,.07-.1,.09-.15,.11-.14,.16-.26,.21-.38,.02-.04,.04-.09,.06-.13v-.04c.02-.06,.03-.13,.04-.21,.02-.14,.05-.29,.05-.41,.03-.15,.03-.28,.03-.4,0-.08,0-.15,.01-.22v-.02s0-.02,0-.02c-.02-.2,.11-2.81,.12-2.95,.03-.16,.16-.63,.43-.81,.1-.07,.22-.09,.33-.06,.09,.03,.19,.06,.28,.09,.14,.04,.27,.07,.35,.12h.03c.15,.06,.29,.16,.42,.26,.03,.03,.07,.05,.09,.06,.61,.6,.82,1.03,.93,1.26,.02,.05,.04,.09,.06,.12v.02s.1,.17,.1,.17l.21-.12-.1-.18h0s-.03-.06-.05-.1Z"/>
  <path d="M53.55,43.5c-.01-.07-.03-.14-.04-.21-.01-.06-.03-.13-.05-.19-.03-.11-.06-.23-.05-.29v-.03s0-.03,0-.03c-.04-.12-.03-.23-.01-.37,0-.04,0-.07,.01-.1,.06-.25,.08-.43,.09-.65,.02-.16,.01-.3,.01-.43,0-.1,0-.2,0-.32v-.02s0-.02,0-.02c-.03-.08-.04-.15-.06-.22-.03-.13-.07-.27-.15-.42-.03-.07-.06-.13-.09-.2-.06-.13-.12-.27-.21-.42l-.04-.07c-.1-.02-.2-.03-.31-.05l.13,.23c.08,.14,.14,.27,.2,.4,.03,.07,.06,.13,.1,.21,.07,.13,.1,.24,.13,.37,.02,.07,.04,.14,.06,.21,0,.11,0,.21,0,.31,0,.13,0,.25-.01,.41,0,.21-.03,.37-.08,.62,0,.04,0,.07-.01,.11-.02,.14-.04,.28,.02,.45,0,.11,.03,.23,.06,.36,.02,.06,.03,.12,.04,.17,.01,.06,.02,.14,.04,.21,.02,.13,.05,.27,.07,.41,0,0,0,.01,0,.02,.02,.08,.05,.13,.06,.19h0s.02,.04,.02,.04h0s.06,.08,.11,.08c.02,0,.03,0,.05-.01,.07-.03,.09-.1,.05-.19,0,0,0-.02-.01-.03-.01-.03-.03-.08-.05-.13-.01-.13-.04-.28-.07-.42Z"/>
  <path class="cls-2" d="M52.59,38.48s0,.04-.02,.07c-.11,.38-.1,.6,.04,.68,.17,.01,.31,.04,.45,.07,.18,.03,.36,.07,.63,.09,.25,0,.62,.02,1.07,.67,0,0,.7,1.2,.71,1.22,0,0,.01,.03,.03,.08,.32,.85,.54,1.28,.68,1.49,.12,.16,.28,.18,.39,.18,.25-.02,.49-.2,.64-.47,.21-.38,.18-.5-.08-.9-.18-.22-.36-.32-.54-.41-.11-.06-.21-.11-.31-.2-.51-.42-.52-.43-.53-.46-.3-.39-.8-1.1-.83-1.64-.01-.29,.06-.48,.18-.79,.03-.09,.07-.19,.12-.3,.09-.36,.11-.42-.66-.67-.07-.02-.69-.07-1.23,.25-.38,.22-.63,.58-.75,1.05Z"/>
  <path class="cls-5" d="M15.86,28.71l-.26,.69-.06,.02c-.38,.12-.92,.31-1.25,.42,.38,.14,1.05,.37,1.54,.55l.07,.02,.3,1.39,1.34-1.08h.05c.6,.06,1.44,.13,1.87,.16-.06-.07-.15-.17-.26-.3-.28-.33-.7-.82-.76-.87l-.05-.03v-.05c-.01-.08-.02-.11,.93-1.26-.51,.11-1.47,.33-1.68,.39h0s-.06,.02-.06,.02c-.1,.02-.57-.28-.82-.45-.16,.13-.48,.33-.89,.36Z"/>
  <path class="cls-1" d="M31.81,22.13c-.09-.34-.14-.57-.12-.75-.02,.02-.03,.03-.04,.04-.13,.13-.31,.31-.53,.53-.48,.44-1.61,1.14-2.14,1.43,0,.02,0,.03,0,.05h-.06c-.09,.04-.17,.08-.2,.09-.03,.01-.06,.03-.09,.05,.05,.38,.5,.93,.67,1.02,.09,.05,.19,.11,.29,.17,.21-.08,.38-.11,.52-.13,.23-.04,.4-.06,.78-.37,.18-.12,.28-.18,.36-.23,.21-.12,.24-.14,1.11-.94,.06-.05,.11-.08,.17-.1,0,0-.01-.01-.02-.02-.44-.33-.69-.77-.7-.85Z"/>
  <path class="cls-1" d="M36.45,33.33c0-.15,.02-.31,.04-.47,.02-.14,.03-.28,.03-.39,.04-.28,.09-.56,.09-.82v-.22c-.02-.22-.03-.43-.06-.65,0-.17-.01-.32-.02-.47,0-.13-.02-.25-.02-.38,0-.29-.03-.51-.08-.74,0-.22-.02-.48-.07-.71v-.02s0-.02,0-.02c.02-.15-.02-.29-.06-.43v-.04c-.05-.14-.07-.26-.1-.37-.03-.12-.05-.24-.09-.39-.02-.07-.04-.15-.06-.24-.03-.11-.06-.23-.1-.36-.02-.16-.08-.33-.12-.48-.03-.09-.06-.17-.07-.24-.07-.15-.14-.35-.16-.51l-.03-.07c-.07-.14-.14-.3-.17-.46-.06-.11-.12-.26-.18-.41l-.06-.14c-.03-.08-.06-.16-.09-.25-.03-.1-.07-.19-.1-.28-.03-.08-.06-.14-.08-.2-.05-.12-.1-.24-.14-.38-.02-.03-.03-.05-.05-.08-.13,.06-.26,.1-.33,.12l-.05,.02c-.23,.08-.47,.12-.69,.12-.13,0-.26-.03-.39-.05,.09,.15,.15,.32,.17,.45v.03c.05,2.23,.28,4.23,.53,6.34,.1,.82,.19,1.67,.28,2.54,.24,.08,.68,.24,1.52,.55,.21,.08,.44,.17,.68,.25,0,0,0,0,0,0,.01-.03,.03-.08,.05-.15Z"/>
  <path class="cls-1" d="M11.5,20.86c.02-.09,.04-.18,.06-.28,.02-.19,.05-.41,.1-.66,.04-.13,.06-.43,.08-.66,0-.11,.02-.21,.02-.27-.02-.14-.08-.35-.09-.38h.02s-.48-.45-.48-.45c-.24-.18-.71-.46-.99-.19-.2,.19-.2,.51-.16,.57l.03,.03v.03c.13,.26,.16,.49,.19,.74,.06,.48,.13,1.08,1.08,2.26,.02-.12,.04-.23,.05-.36,.04-.16,.06-.27,.09-.39Z"/>
  <path class="cls-1" d="M12.47,21.91c.02-.09,.04-.19,.07-.3,.03-.2,.07-.44,.13-.71,.04-.14,.08-.47,.11-.71,.01-.12,.03-.23,.04-.29,0-.1-.04-.24-.06-.33l-.76-.7s.01,.08,.02,.11v.02s0,.01,0,.01c0,.05-.02,.15-.03,.27-.02,.25-.05,.55-.09,.7-.05,.23-.08,.44-.1,.64-.03,.12-.04,.2-.06,.29-.02,.12-.05,.23-.09,.38,0,.2-.04,.4-.08,.58,.21,.25,.45,.52,.74,.81,.02-.12,.05-.22,.06-.35,.05-.18,.07-.3,.1-.42Z"/>
  <path class="cls-1" d="M37.91,19.79s-.08,.08-.12,.13c-.09,.1-.17,.2-.27,.25-.11,.13-.24,.2-.37,.26-.03,.02-.06,.03-.09,.05-.24,.09-.39,.16-.57,.27-.14,.08-.25,.15-.35,.22-.08,.05-.17,.11-.26,.16-.05,.06-.1,.11-.14,.16-.09,.09-.17,.18-.24,.31-.04,.07-.08,.13-.12,.19-.08,.13-.16,.25-.23,.39h0s-.12,.24-.12,.24c.01,.03,.02,.05,.04,.08v.04c.05,.19-.04,.33-.17,.44,.01,.02,.02,.04,.04,.06l.03,.03v.04c.04,.13,.09,.25,.14,.38,.03,.07,.06,.13,.08,.2,.04,.08,.08,.19,.11,.29,.03,.08,.06,.16,.09,.24l.06,.14c.06,.15,.12,.3,.18,.4v.04c.03,.13,.1,.28,.17,.42l.05,.12c.03,.17,.1,.36,.15,.48,.02,.09,.05,.17,.08,.25,.05,.16,.11,.35,.13,.51,.03,.11,.07,.24,.09,.35,.02,.09,.04,.17,.06,.24,.04,.16,.07,.28,.1,.41,.02,.11,.05,.22,.08,.36v.03c.05,.14,.09,.31,.07,.5,.05,.24,.06,.5,.06,.7,.05,.22,.08,.46,.08,.76,0,.12,.01,.24,.02,.37,.01,.16,.02,.31,.02,.47,.04,.22,.04,.43,.05,.67v.22c0,.28-.04,.57-.08,.84,0,.11-.02,.25-.03,.39-.02,.16-.04,.32-.04,.46v.03c-.02,.06-.04,.11-.05,.15h.01s-.02,.04-.02,.04c1.01,.37,2.05,.74,2.34,.77,.74-.3,3.31-2.41,4.13-3.1-.26-1.67-2.36-7.07-2.78-7.98-.84-1.06-1.63-2.61-1.96-3.88,0,0,0-.01,0-.02-.11,.09-.21,.19-.31,.28-.06,.05-.11,.11-.16,.15Z"/>
  <path class="cls-1" d="M13.09,19.92v.02c-.01,.06-.02,.16-.04,.29-.02,.19-.05,.42-.08,.58l.16-.87,.41,.35-.46-.42s0,.02,0,.03v.02Z"/>
  <path class="cls-1" d="M17.13,23.25c-.13,.22-.38,.63-.55,1.47,0,.02,0,.07,0,.11-.01,.16-.03,.33,.02,.49v.03c0,.1,.05,.22,.09,.36,.03,.09,.06,.19,.08,.28,.04,.11,.12,.19,.23,.24,.3,.13,.76-.02,.92-.08,.13-.07,2.38-1.39,2.54-1.51l.03-.02c.06-.03,.12-.07,.19-.11,.1-.06,.21-.13,.35-.19,.09-.07,.24-.13,.37-.18,.07-.03,.14-.06,.2-.09h.04c.05-.02,.1-.03,.15-.04,.12-.02,.25-.04,.43-.03,.05,0,.11,0,.17,0,.11,0,.2,0,.28-.02h.02s.02,0,.02,0c.14,.01,.35,.02,.5,.03,.24,.04,3.1,.11,3.6-.1h.04c.17-.02,.37-.06,.59-.11,.06-.01,.12-.03,.17-.04,.15-.03,.3-.06,.44-.12,.11-.02,.24-.1,.35-.17,.08-.05,.16-.1,.24-.14,.02,0,.07-.03,.13-.07,.12-1.01-.15-2.79-1.19-3.96-1.79,.63-3.47,1.46-4.91,2.18-.31,.15-.6,.3-.89,.44-1.29,.9-2.4,1.42-2.92,1.53h-.04c-.56,0-1.09-.1-1.61-.29h0s-.04,.08-.07,.13Z"/>
  <path class="cls-1" d="M29.02,23.09c.55-.32,1.51-.91,1.93-1.31,.22-.22,.4-.4,.53-.53,.09-.09,.15-.15,.18-.18,0-.04-.02-.09-.03-.14-.02-.09-.04-.19-.06-.29-.08-.23-.1-1.89-.08-2.72-.13,.1-.25,.18-.36,.24-.12,.07-.24,.14-.36,.25l-.04,.04h-.06c-.97,.16-1.93,.42-2.85,.73,.9,1.08,1.29,2.72,1.2,3.9Z"/>
  <path class="cls-1" d="M31.82,20.59c.02,.11,.04,.2,.06,.29,.01,.05,.02,.12,.03,.18,.07-.05,.16-.09,.28-.13,.13-.03,.24-.05,.33-.07,.32-.07,.48-.1,.67-.24,.27-.21,.58-.74,.82-1.46,0-.03,.02-.04,.02-.05,0-.02,.04-.37,.06-.61,.01-.1,0-.2,0-.31-.02-.21-.04-.45,.07-.78,.22-.51,.38-.68,.91-.72,.16-.01,.31,0,.45,.05-.02-.11-.03-.18-.03-.22l.05-.02-.07-.04h0s0,0,0-.01v-.03s.01,0,.01,0c0,0,0,0,0,0-.6-.09-1.19-.03-1.77,.03-.16,.02-.31,.03-.47,.05-.48,.1-.88,.37-1.11,.74-.14,.2-.26,.34-.38,.46-.01,.59-.02,2.62,.07,2.9Z"/>
  <path class="cls-1" d="M35.76,16.72s.03,.09,.04,.14c.09,.06,.16,.12,.22,.2,.15,.2,.19,.43,.1,.66h0c-.15,.35-.45,.83-.9,1.44l-.03,.04s-.62,1.24-.62,1.24c-.25,.61-.1,.84,.01,1.03,.15,.26,.23,.45,.29,.61,0,.02,.01,.03,.02,.05l.03-.07c.08-.15,.16-.28,.24-.41,.04-.06,.08-.12,.12-.18,.08-.15,.18-.25,.27-.35,.05-.05,.1-.11,.15-.17l.04-.03c.1-.06,.18-.11,.27-.17,.11-.07,.22-.15,.37-.22,.19-.12,.35-.19,.59-.28,.02-.01,.05-.03,.09-.04,.12-.06,.22-.11,.3-.21l.02-.03h.03c.06-.04,.14-.13,.21-.21,.04-.05,.09-.1,.13-.15,.05-.05,.1-.1,.15-.15,.1-.1,.22-.21,.32-.29,.04-.05,.07-.09,.09-.12-.28-1.15-.91-1.99-1.76-2.28-.28-.15-.55-.24-.83-.3,0,0,0,.02,0,.03,0,.04,0,.12,.03,.23Z"/>
  <path class="cls-1" d="M14.62,26.11c.17-.15,.26-.24,.38-.36,.35-.35,.7-.52,.91-.56h.02s.02,0,.02,0c.03,0,.06,0,.09,0,.08,0,.19,0,.31,.04-.02-.14-.02-.29,0-.42v-.12c.18-.9,.46-1.35,.59-1.57,.02-.04,.04-.07,.06-.1h0c-.37-.16-.74-.36-1.11-.63l-.07-.07s0,.02-.01,.03l-.06,.11c-.06,.11-.12,.21-.19,.31-.05,.08-.1,.16-.14,.24-.05,.1-.12,.19-.18,.28-.06,.09-.12,.17-.16,.25-.07,.1-.13,.2-.18,.3-.06,.11-.13,.22-.19,.31-.05,.09-.11,.18-.17,.27-.07,.1-.14,.2-.2,.32,0,0,0,0,0,0-.03,.06-.07,.11-.1,.15l-.18,.29,.5,1.03s.05-.05,.07-.1l.02-.03Z"/>
  <path class="cls-1" d="M12.94,20.97c-.06,.25-.1,.48-.13,.69-.03,.13-.05,.22-.07,.31-.03,.13-.06,.25-.1,.4-.01,.18-.05,.36-.09,.54,0,0,.02,.02,.02,.02l.4-2.11c-.01,.05-.02,.1-.03,.13Z"/>
  <path class="cls-1" d="M13.46,23.53c-.05,.16-.08,.25-.08,.25,0,0-.04-.04-.08-.08l.09,.18c.02-.09,.04-.18,.05-.28,0-.03,.01-.05,.02-.07Z"/>
  <path class="cls-1" d="M14,24.77l.09-.14c.07-.13,.14-.23,.21-.34,.06-.08,.11-.17,.17-.26,.07-.1,.13-.2,.19-.3,.06-.11,.12-.21,.19-.3,.04-.09,.11-.18,.17-.27,.06-.09,.12-.17,.16-.25,.05-.08,.1-.17,.16-.25,.06-.09,.12-.19,.18-.29l.1-.2-1.28-1.16c-.07,.34-.19,.91-.25,1.1-.07,.28-.13,.53-.17,.77-.04,.14-.06,.24-.09,.34-.04,.14-.07,.28-.12,.45-.02,.21-.07,.42-.12,.63l.32,.65s.05-.07,.07-.11c.01-.02,.02-.03,.03-.05Z"/>
  <path class="cls-1" d="M23.21,24.83c.06-.16,.17-.4,.26-.58-.16,0-.27-.01-.3-.02-.13,0-.33,0-.48-.02-.1,.02-.21,.02-.32,.02-.06,0-.12,0-.18,0-.17-.01-.27,0-.39,.02-.04,0-.09,.01-.13,.02-.06,.03-.12,.06-.19,.09-.12,.05-.25,.11-.35,.17-.15,.06-.24,.12-.33,.18-.07,.04-.14,.09-.21,.12-.27,.2-2.55,1.52-2.57,1.53-.16,.07-.45,.16-.73,.16-.14,0-.27-.02-.39-.07-.18-.08-.3-.21-.37-.4-.02-.1-.05-.19-.08-.28-.02-.08-.03-.14-.05-.21-.15-.16-.24-.15-.35-.14-.04,0-.07,0-.11,0-.17,.03-.46,.18-.76,.48-.11,.12-.21,.22-.38,.37-.06,.08-.11,.13-.16,.18l.04,.07v.05c-.03,.27-.05,.6-.04,.7v.02c.26,.59,.57,.93,.94,1.01,.47,.11,.89-.22,1.01-.33l1.12-1.02h.04c.89-.29,1.89-.62,2.11-.72l.04-.07,.13,.02c.77,.11,1.95,.06,3.21-.07,0,0,0,0,0-.02-.16-.21-.23-.89-.02-1.28Z"/>
  <path class="cls-1" d="M28.42,23.71c-.11,.06-.21,.12-.32,.14-.14,.06-.3,.09-.45,.13-.05,.01-.1,.02-.15,.03-.25,.05-.44,.09-.63,.11-.48,.19-2.2,.18-3.12,.14h0s-.04,.04-.04,.04c-.09,.17-.21,.45-.28,.63-.18,.35-.08,.95,0,1.03l.02,.03s.03,.07,.04,.11c2.43-.28,5.08-.84,5.72-1.15,.04-.02,.07-.04,.11-.05-.04-.03-.09-.06-.13-.08-.23-.13-.67-.66-.77-1.11Z"/>
  <path class="cls-2" d="M13.38,23.78s.03-.1,.08-.25c.04-.15,.07-.27,.1-.39,.03-.1,.05-.21,.09-.33,.04-.23,.09-.49,.17-.78,.07-.21,.21-.89,.27-1.18l.02-.08-.55-.48-.41-.35-.16,.87s0,.02,0,.03l-.4,2.11h0s.52,.55,.72,.75c.05,.05,.08,.08,.08,.08Z"/>
  <path d="M13.82,23.21c.03-.1,.05-.2,.09-.34,.04-.23,.09-.49,.17-.77,.07-.19,.18-.76,.25-1.1,0-.03,.01-.07,.02-.1l.02-.11-.27-.06v.03s-.02,.08-.02,.08c-.06,.29-.2,.97-.27,1.18-.08,.3-.13,.56-.17,.78-.04,.12-.06,.23-.09,.33-.03,.12-.06,.24-.1,.39,0,.03-.01,.04-.02,.07-.01,.1-.04,.18-.05,.28-.03,.15-.05,.31-.09,.45l.26,.07s.01-.08,.02-.11c.05-.2,.1-.41,.12-.63,.05-.17,.09-.31,.12-.45Z"/>
  <path d="M12.74,21.97c.02-.09,.04-.18,.07-.31,.03-.21,.07-.44,.13-.69,.01-.04,.02-.08,.03-.13,0,0,0-.02,0-.03,.03-.17,.06-.39,.08-.58,.01-.12,.03-.23,.04-.29v-.02s0-.02,0-.02c0,0,0-.02,0-.03-.01-.17-.07-.43-.1-.49l-.25,.12s.01,.04,.02,.08c.02,.09,.05,.22,.06,.33-.01,.06-.02,.17-.04,.29-.03,.24-.06,.57-.11,.71-.06,.27-.1,.51-.13,.71-.03,.11-.05,.21-.07,.3-.03,.12-.05,.24-.1,.42,0,.13-.04,.23-.06,.35-.02,.1-.03,.21-.05,.3l.27,.06s.01-.08,.02-.13c.04-.18,.08-.36,.09-.54,.04-.16,.07-.28,.1-.4Z"/>
  <path d="M14.3,24.75s0,0,0,0c.06-.12,.13-.22,.2-.32,.06-.09,.12-.18,.17-.27,.07-.1,.13-.2,.19-.31,.06-.1,.11-.2,.18-.3,.04-.09,.1-.17,.16-.25,.06-.09,.13-.18,.18-.28,.04-.08,.09-.15,.14-.24,.06-.1,.13-.2,.19-.31l.06-.11s0-.02,.01-.03c0,0,0-.01,.01-.02h0s0,0,0,0c0,0,0,0,0,0h0s0,0,0,0c0,0,0-.02,0-.03l-.06-.02-.04-.04,.1,.05s0-.1-.06-.14l-.11-.05-.03,.06-.1,.2c-.05,.1-.12,.2-.18,.29-.06,.09-.11,.17-.16,.25-.04,.09-.1,.17-.16,.25-.06,.09-.13,.18-.17,.27-.06,.09-.12,.19-.19,.3-.06,.1-.12,.2-.19,.3-.05,.09-.11,.18-.17,.26-.07,.1-.14,.21-.21,.34l-.09,.14s-.02,.03-.03,.05c-.02,.03-.05,.07-.07,.11-.03,.05-.06,.1-.1,.17l.21,.12,.02-.03,.18-.29s.06-.1,.1-.15Z"/>
  <path d="M11.74,20.91c.02-.08,.03-.17,.06-.29,.02-.2,.05-.41,.1-.64,.04-.14,.07-.45,.09-.7,0-.12,.02-.22,.03-.27h0s0-.03,0-.03c0-.03,0-.07-.02-.11-.03-.15-.08-.33-.1-.38l-.2,.1h-.02s.08,.26,.09,.39c0,.06-.02,.16-.02,.27-.02,.22-.04,.53-.08,.66-.05,.25-.09,.47-.1,.66-.02,.1-.04,.19-.06,.28-.02,.11-.04,.22-.09,.39,0,.13-.03,.24-.05,.36-.01,.08-.02,.17-.03,.24l.24,.05s0-.02,0-.03c.04-.19,.07-.39,.08-.58,.04-.14,.06-.26,.09-.38Z"/>
  <path d="M35.47,16.42v.03s-.02,0-.02,.01h0s.07,.04,.07,.04l-.05,.02s.01,.12,.03,.22c.1,.03,.2,.07,.29,.13-.01-.05-.03-.1-.04-.14-.02-.11-.03-.18-.03-.23,0,0,0-.02,0-.03,0-.05-.02-.11-.1-.13-.08-.02-.11,.03-.14,.08,0,0,0,0,0,0h0Z"/>
  <path d="M32.74,23.13s-.07-.02-.1-.04c-.05-.03-.09-.07-.14-.11,0,0,.01,.01,.02,.02,.06,.07,.12,.13,.18,.17l.04-.04Z"/>
  <path d="M28.64,23.58s.06-.04,.09-.05c.03-.01,.11-.05,.2-.1h.06s0-.02,0-.04c.53-.29,1.66-.99,2.14-1.43,.22-.23,.4-.41,.53-.53,.02-.02,.03-.03,.04-.04,.02-.13,.08-.23,.21-.32-.01-.06-.02-.13-.03-.18-.02-.09-.04-.18-.06-.29-.09-.28-.08-2.3-.07-2.9,0-.09,0-.14,0-.16l-.12-.02-.11-.06s-.02,.21-.03,.47c-.02,.83,0,2.49,.08,2.72,.01,.1,.03,.19,.06,.29,0,.04,.02,.09,.03,.14-.03,.03-.08,.09-.18,.18-.13,.13-.31,.31-.53,.53-.42,.39-1.38,.99-1.93,1.31,.09-1.18-.3-2.82-1.2-3.9-.03-.04-.06-.08-.09-.11l-.18,.16s.02,.02,.02,.03c1.04,1.18,1.31,2.96,1.19,3.96-.06,.03-.11,.06-.13,.07-.08,.04-.16,.09-.24,.14-.11,.07-.23,.15-.35,.17-.15,.06-.3,.09-.44,.12-.05,.01-.1,.02-.17,.04-.23,.05-.42,.09-.59,.1h-.04c-.5,.23-3.36,.16-3.6,.11-.15,0-.36-.01-.5-.03h-.02s-.02,0-.02,0c-.08,.02-.17,.02-.28,.02-.06,0-.12,0-.17,0-.18-.01-.31,0-.43,.03-.05,0-.09,.02-.15,.02h-.04c-.05,.04-.12,.07-.2,.1-.13,.05-.27,.12-.37,.18-.14,.06-.25,.13-.35,.19-.06,.04-.13,.08-.19,.11l-.03,.02c-.15,.13-2.41,1.45-2.54,1.51-.15,.07-.61,.21-.92,.08-.11-.05-.19-.13-.23-.24-.02-.09-.05-.19-.08-.28-.04-.14-.08-.26-.09-.36v-.03c-.05-.15-.04-.32-.03-.49,0-.04,0-.08,0-.11,.16-.84,.41-1.25,.55-1.47,.03-.05,.05-.08,.07-.11h0s.09-.19,.09-.19l-.22-.11-.1,.19h0s-.03,.06-.06,.1c-.13,.22-.4,.66-.58,1.57v.12c-.02,.13-.02,.27,0,.42-.12-.05-.22-.05-.31-.04-.03,0-.06,0-.09,0h-.02s-.02,0-.02,0c-.21,.04-.56,.2-.91,.56-.11,.12-.21,.21-.38,.36l-.02,.03s-.05,.07-.07,.1c-.03,.03-.05,.05-.08,.08l-.03,.03,.16,.19,.03-.03s.02-.02,.04-.03c.05-.05,.1-.09,.16-.18,.17-.15,.27-.25,.38-.37,.3-.3,.6-.45,.76-.48,.04,0,.07,0,.11,0,.11,0,.2-.02,.35,.14,.02,.07,.03,.14,.05,.21,.03,.09,.06,.18,.08,.28,.07,.19,.19,.32,.37,.4,.12,.05,.25,.07,.39,.07,.29,0,.58-.09,.73-.16,.02-.01,2.3-1.33,2.57-1.53,.07-.03,.13-.07,.21-.12,.09-.06,.19-.12,.33-.18,.1-.06,.23-.12,.35-.17,.07-.03,.14-.06,.19-.09,.05,0,.09-.01,.13-.02,.12-.02,.22-.04,.39-.02,.06,0,.12,0,.18,0,.11,0,.22,0,.32-.02,.15,.01,.35,.03,.48,.02,.02,0,.13,.01,.3,.02-.09,.18-.2,.42-.26,.58-.2,.39-.13,1.07,.02,1.28,0,0,0,.01,0,.02,.03,.08,.05,.14,.06,.17,.01,.04,.03,.12,.12,.13,0,0,.01,0,.02,0,.06,0,.1-.04,.12-.08h0s.01-.02,.01-.02c0,0,0-.01,0-.02l-.09-.05,.05-.03s-.02-.08-.04-.14c-.01-.03-.02-.06-.04-.11l-.02-.03c-.08-.08-.18-.69,0-1.03,.07-.18,.19-.46,.28-.63,0,0,.03-.03,.04-.04h0c.92,.03,2.63,.04,3.12-.14,.18-.01,.38-.05,.63-.11,.05-.01,.1-.02,.15-.03,.15-.03,.32-.07,.45-.13,.1-.02,.21-.07,.32-.14,.11,.45,.54,.98,.77,1.11,.04,.02,.09,.05,.13,.08,.05,.03,.1,.06,.14,.09,.11,.07,.17,.11,.22,.13l.08-.23s-.1-.06-.17-.1c0,0,0,0,0,0-.09-.06-.19-.13-.29-.17-.17-.1-.63-.64-.67-1.02Z"/>
  <path d="M37.9,19.46c-.05,.05-.11,.1-.15,.15-.05,.05-.09,.1-.13,.15-.07,.08-.16,.18-.21,.2h-.03s-.02,.04-.02,.04c-.08,.1-.18,.15-.3,.21-.03,.02-.07,.03-.09,.04-.24,.09-.4,.17-.59,.28-.14,.08-.26,.15-.37,.22-.08,.06-.17,.11-.27,.17l-.04,.03c-.05,.06-.1,.12-.15,.17-.09,.1-.19,.2-.27,.35-.04,.06-.08,.12-.12,.18-.08,.13-.16,.25-.24,.41l-.03,.07c.04,.09,.08,.19,.13,.28l.12-.24h0c.07-.14,.15-.26,.23-.39,.04-.06,.08-.12,.12-.19,.07-.12,.15-.21,.24-.31,.05-.05,.1-.1,.14-.16,.1-.06,.18-.11,.26-.16,.11-.07,.21-.14,.35-.22,.18-.11,.33-.18,.57-.27,.03-.02,.06-.03,.09-.05,.13-.06,.26-.13,.37-.26,.1-.05,.18-.15,.27-.25,.04-.05,.08-.09,.12-.13,.05-.04,.1-.09,.16-.15,.1-.09,.2-.19,.31-.28,0,0,0,0,.01-.01,.05-.06,.09-.11,.12-.16h0s0-.01,0-.01c0,0,0,0,0,0v-.02s0,0,0,0c.02-.04,.04-.12-.04-.18-.1-.06-.17,.03-.19,.06,0,0,0,0,0,0-.02,.03-.06,.08-.09,.12-.1,.08-.21,.19-.32,.29Z"/>
  <path d="M36.65,33.53s.03-.08,.04-.15v-.03c0-.14,.02-.3,.04-.46,.02-.15,.03-.29,.03-.39,.04-.27,.09-.56,.09-.84v-.22c-.02-.23-.03-.45-.06-.67,0-.15-.01-.31-.02-.47,0-.12-.02-.25-.02-.37,0-.3-.03-.54-.08-.76,0-.2-.02-.46-.06-.7,.02-.19-.03-.36-.06-.5v-.03c-.04-.14-.07-.25-.09-.36-.03-.12-.05-.24-.1-.41-.02-.07-.04-.15-.06-.24-.03-.11-.06-.24-.09-.35-.02-.16-.08-.35-.13-.51-.03-.08-.05-.16-.08-.25-.06-.12-.13-.31-.15-.48l-.05-.12c-.06-.13-.13-.28-.15-.42v-.04c-.07-.1-.13-.25-.19-.4l-.06-.14c-.03-.07-.06-.16-.09-.24-.04-.1-.07-.21-.11-.29-.03-.07-.05-.14-.08-.2-.05-.13-.1-.25-.13-.38v-.04s-.03-.03-.03-.03c-.02-.02-.03-.04-.04-.06-.06,.05-.13,.1-.21,.14,.02,.03,.02,.05,.05,.08,.04,.14,.09,.26,.14,.38,.03,.06,.05,.13,.08,.2,.04,.08,.07,.18,.1,.28,.03,.09,.06,.18,.09,.25l.06,.14c.06,.15,.12,.3,.18,.41,.03,.16,.1,.32,.17,.46l.03,.07c.03,.16,.09,.36,.16,.51,.02,.07,.05,.16,.07,.24,.05,.15,.11,.33,.12,.48,.04,.13,.07,.25,.1,.36,.02,.09,.04,.17,.06,.24,.04,.15,.07,.27,.09,.39,.03,.11,.05,.23,.09,.37v.04c.05,.14,.09,.28,.07,.43v.02s0,.02,0,.02c.05,.23,.06,.48,.07,.71,.05,.23,.08,.44,.08,.74,0,.12,.01,.25,.02,.38,.01,.15,.02,.31,.02,.47,.03,.22,.04,.43,.05,.65v.22c0,.26-.03,.53-.08,.82,0,.11-.02,.25-.03,.39-.02,.16-.04,.32-.04,.47-.02,.07-.04,.12-.05,.15,0,0,0,0,0,0,.08,.03,.16,.06,.24,.09l.02-.03h-.01Z"/>
  <path class="cls-2" d="M34.23,23.02s.04-.02,.07-.02c.38-.11,.56-.25,.54-.4-.08-.15-.13-.28-.19-.41-.07-.17-.14-.34-.28-.58-.13-.21-.32-.53-.03-1.27,.47-.94,.6-1.19,.63-1.26h0s.02-.03,.05-.07c.43-.59,.73-1.05,.87-1.38,.07-.19,0-.34-.07-.43-.13-.18-.38-.28-.64-.28-.03,0-.06,0-.1,0-.44,.03-.52,.13-.7,.56-.09,.27-.07,.48-.05,.67,.01,.12,.02,.24,0,.37-.07,.65-.08,.67-.09,.69-.16,.47-.48,1.27-.91,1.6-.23,.17-.43,.21-.76,.28-.09,.02-.2,.04-.31,.07-.35,.12-.41,.14-.2,.92,.02,.07,.32,.62,.88,.89,.39,.19,.83,.21,1.29,.05Z"/>
  <path class="cls-4" d="M40.44,41.22c-.61-1.45-.6-2.82-.59-4.16,0-.48,0-.93-.02-1.38v-.06s.05-.04,.05-.04c.69-.56,1.35-1.11,2.02-1.67,.62-.52,1.24-1.04,1.89-1.56-.22-.22-.34-.65-.4-1-.73,.61-3.54,2.95-4.32,3.23h-.02s-.02,0-.02,0c-.35-.01-1.67-.49-3.36-1.12-.61-.23-1.23-.46-1.52-.55,.02,.31-.08,.62-.23,.81,.71,.31,1.41,.62,2.12,.93,.76,.33,1.52,.67,2.28,1.01l.07,.03v.07s.35,4.48,1.24,5.45c.12,0,.5,0,.84,0Z"/>
  <line class="cls-6" x1="38.31" y1="37.39" x2="38.31" y2="37.38"/>
  <path d="M37.26,37.92c-1.71,.91-4.21,2.61-6.42,5.5-.06,.08-.1,.13-.11,.14l-.03,.03c-.05,.1-.14,.23-.24,.37l-.09,.13c-.04,.07-.1,.14-.15,.2-.07,.09-.13,.18-.18,.25-.14,.19-.4,.53-.54,.67l-.03,.03v.03s0,0,0,0c-.02,.1,.03,.15,.06,.17,.02,0,.04,.02,.06,.02,.03,0,.07-.01,.11-.05l-.02-.03s.01-.01,.02-.02l.04,.02,.04-.11h0s.02-.03,.03-.04c.15-.18,.33-.41,.43-.56,.05-.08,.11-.16,.17-.24,.06-.07,.11-.15,.16-.22l.09-.12c.09-.14,.18-.27,.24-.38,.02-.02,.05-.07,.12-.15,2.18-2.86,4.65-4.53,6.33-5.43l.26-.13c.2-.1,.53-.28,.7-.36,.05-.02,.09-.04,.1-.05l-.03-.1,.06,.09,.1-.07-.06-.1c-.03-.05-.05-.08-.18-.03,0,0-.01,0-.02,0-.13,.05-.35,.17-.78,.39l-.26,.14Z"/>
  <line class="cls-6" x1="41.2" y1="34.93" x2="41.2" y2="34.93"/>
  <path d="M41.91,35.45l.24,.17c1.59,1.1,4.25,2.55,7.83,3.19,.09,.02,.16,.03,.18,.03h.04c.11,0,.27,.03,.44,.05l.15,.02c.08,0,.17,.02,.25,.04,.11,.02,.22,.04,.31,.04,.23,.03,.65,.11,.85,.17h.04s.03,0,.03,0c.01,0,.01-.01,.02-.02,.07-.03,.1-.08,.1-.12,0-.04-.01-.1-.11-.14l-.02,.03s0,0,0,0c0,0-.01,0-.02,0v-.05s-.12,.01-.12,.01h0c-.23-.05-.55-.1-.74-.13-.09,0-.19-.02-.29-.04-.09-.02-.18-.03-.27-.04l-.15-.02c-.17-.02-.32-.04-.45-.04-.03,0-.08-.02-.19-.04-3.54-.63-6.16-2.06-7.73-3.15l-.24-.17c-.24-.17-.67-.48-.72-.52l-.07,.07,.05-.09h0s-.1-.05-.1-.05l-.06,.1s-.02,.06,0,.09c.01,.02,.02,.04,.06,.08,.1,.09,.31,.24,.71,.52Z"/>
</svg>