<?xml version="1.0" encoding="UTF-8"?>
<svg id="Layer_1" data-name="Layer 1" xmlns="http://www.w3.org/2000/svg" viewBox="0 0 80 80">
  <defs>
    <style>
      .cls-1 {
        fill: #fff;
      }

      .cls-2 {
        fill: #3155a5;
      }
    </style>
  </defs>
  <polygon class="cls-1" points="47.49 46.31 50.99 46.31 49.24 43.28 47.49 46.31"/>
  <path class="cls-1" d="M80,60V20c0-.68-.04-1.36-.1-2.02H.1c-.07,.67-.1,1.34-.1,2.02V60c0,.68,.04,1.36,.1,2.02H79.9c.07-.66,.1-1.34,.1-2.02Zm-40-.71l-5.6-9.7h-11.08l5.54-9.59-4.12-7.13-1.42-2.46h11.08l5.6-9.69,5.6,9.69h11.07l-5.53,9.58,5.54,9.6h-11.07l-5.6,9.7Z"/>
  <polygon class="cls-1" points="36.3 33.68 32.66 40 36.3 46.31 43.71 46.31 47.35 40 43.71 33.68 36.3 33.68"/>
  <polygon class="cls-1" points="40 52.72 41.81 49.58 38.19 49.58 40 52.72"/>
  <polygon class="cls-1" points="49.24 36.72 50.99 33.68 47.49 33.68 49.24 36.72"/>
  <path class="cls-1" d="M60,80c4.99,0,9.55-1.84,13.05-4.87H6.95c3.5,3.02,8.06,4.87,13.05,4.87H60Z"/>
  <polygon class="cls-1" points="30.76 36.71 32.51 33.68 29.01 33.68 30.76 36.71"/>
  <polygon class="cls-1" points="40 27.27 38.19 30.4 41.81 30.4 40 27.27"/>
  <polygon class="cls-1" points="29.01 46.31 32.51 46.31 30.76 43.28 29.01 46.31"/>
  <path class="cls-1" d="M60,0H20C15.01,0,10.46,1.84,6.96,4.86H73.04c-3.5-3.02-8.05-4.86-13.04-4.86Z"/>
  <path class="cls-2" d="M73.04,4.86H6.96C3.18,8.11,.63,12.74,.1,17.98H79.9c-.53-5.24-3.08-9.86-6.86-13.12Z"/>
  <path class="cls-2" d="M79.9,62.02H.1c.53,5.23,3.08,9.86,6.85,13.11H73.05c3.77-3.25,6.32-7.88,6.85-13.11Z"/>
  <path class="cls-2" d="M51.13,39.99l5.53-9.58h-11.07l-5.6-9.69-5.6,9.69h-11.08l1.42,2.46,4.12,7.13-5.54,9.59h11.08l5.6,9.7,5.6-9.7h11.07l-5.54-9.6Zm-11.13-12.72l1.81,3.14h-3.62l1.81-3.14Zm-10.99,19.04l1.75-3.03,1.75,3.03h-3.5Zm1.75-9.6l-1.75-3.03h3.5l-1.75,3.03Zm9.24,16.01l-1.81-3.14h3.62l-1.81,3.14Zm3.7-6.42h-7.41l-3.64-6.31,3.64-6.31h7.41l3.64,6.31-3.64,6.31Zm3.78,0l1.75-3.03,1.75,3.03h-3.51Zm1.75-9.59l-1.75-3.03h3.5l-1.75,3.03Z"/>
</svg>