<?xml version="1.0" encoding="UTF-8"?>
<svg id="Layer_1" data-name="Layer 1" xmlns="http://www.w3.org/2000/svg" viewBox="0 0 80 80">
  <defs>
    <style>
      .cls-1 {
        fill: #f8d903;
      }

      .cls-2 {
        fill: #328a42;
      }
    </style>
  </defs>
  <polygon points="80 58.75 80 21.94 52.31 40.34 80 58.75"/>
  <path class="cls-2" d="M76.1,8.17C72.46,3.22,66.61,0,60,0H20C13.39,0,7.54,3.22,3.9,8.17l36.1,23.99L76.1,8.17Z"/>
  <polygon points="0 21.94 0 58.74 27.68 40.34 0 21.94"/>
  <path class="cls-2" d="M20,80H60c6.41,0,12.09-3.02,15.75-7.71l-35.76-23.76L4.25,72.29c3.66,4.68,9.35,7.71,15.75,7.71Z"/>
  <path class="cls-1" d="M75.75,72.29c2.65-3.39,4.25-7.65,4.25-12.29v-1.25l-27.69-18.4,27.69-18.4v-1.94c0-4.43-1.46-8.52-3.9-11.83l-36.1,23.99L3.9,8.17C1.46,11.48,0,15.57,0,20v1.94l27.68,18.4L0,58.74v1.26c0,4.64,1.59,8.9,4.25,12.29l35.75-23.76,35.76,23.76Z"/>
</svg>