<?xml version="1.0" encoding="UTF-8"?>
<svg id="Layer_1" data-name="Layer 1" xmlns="http://www.w3.org/2000/svg" viewBox="0 0 80 80">
  <defs>
    <style>
      .cls-1 {
        fill: #fff;
      }

      .cls-2 {
        fill: #be2029;
      }
    </style>
  </defs>
  <path class="cls-1" d="M60,80c11.05,0,20-8.95,20-20V20c0-11.05-8.95-20-20-20H20C8.95,0,0,8.95,0,20V60c0,11.05,8.95,20,20,20H60ZM40,25c8.29,0,15,6.71,15,15s-6.72,15-15,15-15-6.72-15-15,6.72-15,15-15Z"/>
  <path class="cls-2" d="M40,55c8.29,0,15-6.72,15-15s-6.72-15-15-15-15,6.71-15,15,6.72,15,15,15Z"/>
</svg>