<?xml version="1.0" encoding="UTF-8"?>
<svg id="Layer_1" data-name="Layer 1" xmlns="http://www.w3.org/2000/svg" viewBox="0 0 80 80">
  <defs>
    <style>
      .cls-1 {
        fill: #fff;
      }

      .cls-2 {
        fill: #cd2028;
      }

      .cls-3 {
        fill: #017b3f;
      }
    </style>
  </defs>
  <path class="cls-3" d="M20,80H60c11.05,0,20-8.95,20-20v-5.43H28.14L3.36,71.09c3.59,5.37,9.7,8.91,16.64,8.91Z"/>
  <polygon class="cls-1" points="50 40 28.14 54.57 80 54.57 80 25.42 28.14 25.42 50 40"/>
  <path d="M28.14,25.42h51.86v-5.42c0-11.05-8.95-20-20-20H20C13.06,0,6.95,3.54,3.36,8.9L28.14,25.42Z"/>
  <path class="cls-2" d="M50,40l-21.86-14.58L3.36,8.9C1.24,12.08,0,15.89,0,20V60c0,4.1,1.24,7.92,3.36,11.09l24.78-16.52,21.86-14.57Zm-40.83-3.05l3.07,1.06,1.09-3.07,1.09,3.07,3.07-1.06-1.71,2.75,2.74,1.74-3.22,.38,.35,3.22-2.31-2.27-2.31,2.27,.34-3.22-3.22-.38,2.74-1.74-1.71-2.75Z"/>
  <polygon class="cls-1" points="11.37 41.83 11.02 45.05 13.33 42.78 15.64 45.05 15.29 41.83 18.52 41.45 15.78 39.7 17.49 36.95 14.42 38.01 13.33 34.94 12.24 38.01 9.18 36.95 10.89 39.7 8.15 41.45 11.37 41.83"/>
</svg>