<?xml version="1.0" encoding="UTF-8"?>
<svg id="Layer_1" data-name="Layer 1" xmlns="http://www.w3.org/2000/svg" viewBox="0 0 80 80">
  <defs>
    <style>
      .cls-1 {
        fill: #00b3cb;
      }

      .cls-2 {
        fill: #ffca19;
      }
    </style>
  </defs>
  <path class="cls-1" d="M1.43,54.75l.8-1.01-.28-1.53c-.65-1.38-1.3-2.76-1.96-4.14v1.44l.18,.33-.18-.03v2.45l.34-.07,.2-.35-.08-.54,.66,.52,.03,.52,.75,.41-.75,.44-.07,.43-.62,.56,.09-.5-.2-.45-.34-.07v1.41l.39,.29,1.05-.12Z"/>
  <path class="cls-1" d="M1.78,22.64l.47-.88-.29-1.44c-.56-1.18-1.12-2.36-1.67-3.54-.06,.36-.12,.71-.16,1.07l.06,.09H.11c-.07,.67-.11,1.36-.11,2.06v.36l.25-.03,.27-.3-.07-.62,.62,.43,.06,.59,.37,.1,.38,.32-.75,.44-.05,.41-.64,.59,.07-.67-.34-.35h-.19v1.45l.48,.3,1.29-.37Z"/>
  <path class="cls-1" d="M2.21,58.93v-.93s-.56-.73-.56-.73l-1.38-.21-.27,.25v1.4l.16,.02,.35-.33-.05-.7,.59,.51,.1,.49,.75,.44-.76,.43-.06,.58-.62,.44,.05-.66-.36-.29h-.15s0,.36,0,.36c0,.7,.04,1.39,.11,2.07h.07s-.05,.1-.05,.1c.04,.36,.1,.7,.16,1.05,.56-1.19,1.12-2.37,1.68-3.56l.25-.73Z"/>
  <polygon class="cls-1" points="50.18 57.98 50.19 58.35 50.55 58.37 51.07 58.07 51.08 57.68 50.71 57.68 50.18 57.98"/>
  <path class="cls-1" d="M0,23.98v.18l.28-.11c-.09-.01-.19-.05-.28-.07Z"/>
  <path class="cls-1" d="M0,55.88v.18l.27-.11c-.09-.01-.18-.05-.27-.07Z"/>
  <polygon class="cls-1" points="1.05 43.49 1.55 42.7 1.51 41.87 .34 40.92 0 41.03 0 41.79 .52 41.75 .47 41.34 .86 41.58 .87 42.01 1.36 42.28 .88 42.58 .83 43 .52 43.23 .45 42.68 0 42.65 0 43.31 .2 43.54 1.05 43.49"/>
  <path class="cls-1" d="M1.57,37.87l-.16-.99-.66-.47-.57,.07-.18,.22v.66l.47-.06,.05-.51,.31,.21,.05,.43,.47,.29-.48,.28-.02,.42-.38,.25,.05-.41-.52-.02v.84c.72,.1,1.46-.48,1.57-1.2Z"/>
  <path class="cls-1" d="M2.27,26.52l-.3-.86-1.09-.56-.87,.29v1.44H.21s.31-.33,.31-.33l-.07-.67,.58,.49,.1,.51,.75,.43-.4,.33-.36,.09-.06,.58-.62,.44,.08-.54-.27-.38-.27-.03v2.43H.18s-.18,.25-.18,.25v1.5c.66-1.39,1.32-2.79,1.98-4.18l.29-1.23Z"/>
  <path class="cls-1" d="M60,0H20C12.59,0,6.13,4.04,2.68,10.03l.03,.85c-.07,.66-.31,1.28-.43,1.93l-.13,1.19,.05,.85,.72,1.4-1.2-.63-.47-1.32,.14-.46-.27-.02-.17,.08c-.13,.4-.23,.8-.33,1.21,.71,1.48,1.43,2.97,2.15,4.45,.28,.55,.52,1.13,.56,1.75v.7l-.52,1.23c-.41,.48-1.02,.74-1.63,.82l1.36,.55,.79,1.52v.71l-.45,1.49c-.96,2-1.92,4-2.89,6v1.49l.95-.14-.41-.72,.46,.1-.26-.5-.06-.46,.42,.19h.29s-.14-.84-.14-.84l.58-1.07,1.08-.52c-.43,.51-.75,1.15-.77,1.84-.01,.71,.06,1.43,.25,2.11l.28,1.09,.05,1.01c-.06,.6-.41,1.14-.9,1.51l.79,.59-.79,.58,.83,1.18,.05,1-.36,1.58-.19,1.28,.04,1.11,.72,1.4-1.25-.67-.4-1.34,.13-.39-.28-.02-.44,.2,.13-.64,.19-.32-.46,.1,.41-.72-.95-.13v1.48c.78,1.62,1.56,3.24,2.34,4.86l.7,1.44,.3,1.21v.69l-.59,1.32-1.56,.74,1.38,.56,.77,1.51v.73l-.46,1.51c-.75,1.55-1.5,3.1-2.25,4.65,.1,.41,.2,.81,.33,1.21l.15,.07,.28-.02,.1-1.5,1.43-.91-.71,1.37-.03,1.23,.28,1.61,.27,1.36-.04,.65c3.46,5.99,9.91,10.03,17.32,10.03H60c11.05,0,20-8.95,20-20V20c0-11.05-8.95-20-20-20Zm-4.96,43.97c-5.47,0-9.9-4.43-9.9-9.9s4.43-9.91,9.9-9.91,9.92,4.44,9.92,9.91-4.44,9.9-9.92,9.9Zm5.91,4.41l-2.03-2.81,.41-1.1,1.08,.49,.54,3.42Zm-2.77-2.58l-.13,3.45-1.45-3.14,.62-1,.96,.69Zm-2.35,.38l-.81,3.37-.81-3.37,.81-.85,.81,.85Zm-2.38-.08l-1.45,3.13-.13-3.45,.95-.68,.63,1Zm-2.32-.55l-2.03,2.8,.55-3.41,1.07-.48,.41,1.1Zm-7.6-7.62l1.09,.42-.47,1.07-3.42,.54,2.81-2.03Zm-3.68-.87l3.14-1.45,1,.62-.69,.95-3.45-.12Zm4.66,3.03l1.15,.2-.26,1.14-3.24,1.2,2.35-2.54Zm1.38,1.94l1.18-.03-.04,1.17-2.94,1.81,1.8-2.95Zm1.73,1.63l1.15-.27,.19,1.16-2.54,2.36,1.2-3.25Zm13.67-.25l1.14,.26,1.19,3.25-2.54-2.35,.2-1.16Zm1.74-.22l-.03-1.17,1.17,.03,1.8,2.95-2.94-1.81Zm1.62-1.73l-.26-1.15,1.16-.19,2.36,2.54-3.25-1.2Zm1.26-2.02l-.47-1.08,1.09-.41,2.8,2.03-3.42-.54Zm.85-2.23l-.68-.96,1-.62,3.13,1.44-3.46,.14Zm.4-2.35l-.86-.81,.86-.81,3.35,.81-3.35,.81Zm-.08-2.38l-1-.63,.68-.95,3.46,.14-3.14,1.45Zm-.54-2.32l-1.09-.42,.48-1.07,3.41-.54-2.81,2.03Zm-.97-2.17l-1.16-.19,.26-1.14,3.24-1.21-2.35,2.54Zm-1.38-1.94l-1.17,.04,.03-1.18,2.95-1.81-1.81,2.95Zm-.53-4.87l-1.2,3.25-1.14,.26-.2-1.16,2.55-2.35Zm-2.68-1.43l-.55,3.42-1.07,.48-.42-1.1,2.03-2.8Zm-2.9-.88l.13,3.46-.95,.68-.63-1,1.45-3.14Zm-3.02-.3l.81,3.37-.81,.85-.8-.85,.8-3.37Zm-3.02,.29l1.46,3.14-.63,.99-.95-.68,.12-3.45Zm-.87,3.68l-.42,1.09-1.07-.48-.54-3.42,2.03,2.8Zm-2.17,.98l-.2,1.16-1.14-.26-1.2-3.25,2.54,2.35Zm-1.94,1.38l.04,1.17-1.18-.03-1.81-2.95,2.95,1.81Zm-1.63,1.74l.27,1.14-1.16,.2-2.36-2.54,3.24,1.2Zm-1.26,2.02l.49,1.07-1.1,.42-2.8-2.03,3.41,.55Zm-.84,2.22l.68,.96-1,.62-3.13-1.44,3.45-.14Zm-.39,2.35l.86,.8-.86,.81-3.36-.81,3.36-.8Zm4.2,22.81c-1.15,.06-2.31-.18-3.41-.48-1.49-.41-2.89-1.05-4.25-1.75l-.43-.32,.03-.23,.53-.17-1.78-.33-.32-.2,.18-.38,.78-.18-.75-.25-.84-.31-.21-.39,.33-.15,1-.08-.28-.16-1.64-.37-.48-.45v-.24s.3-.12,.3-.12l1.32,.07-.42-.33-1.18-.55-1.64-1.3-.53-.75,.07-.4h.49c.64,.19,1.2,.56,1.81,.83-1.04-.93-2.14-1.82-3.06-2.88l-.82-1.34v-.18l.12-.22,.33,.07,.62,.46c.67,.57,1.3,1.2,1.98,1.75l.75,.47-.47-.75c-.74-1.09-1.49-2.18-2.14-3.33-.45-.82-.88-1.65-1.06-2.56l.12-1.1,.43,.34c.89,1.35,1.61,2.83,2.54,4.17l.66,.7-.13-.48c-.53-1.48-1.14-2.93-1.6-4.43l-.29-1.33,.07-.41h.26s.45,.63,.45,.63c.66,1.28,1.16,2.65,1.77,3.97l-.12-1.64v-1.51s.59-.2,.59-.2l.06,.5c.22,1.95,.79,3.85,1.64,5.61,1.43,2.95,3.65,5.52,6.38,7.33,2.91,1.94,6.4,3,9.91,2.98l.18,.47-.57,.35-1.03,.79-.45-.53-1.6-.62c-.65-.12-1.31-.21-1.96-.25h-1.3s-.37-.18-.37-.18c-1.11-.98-2.19-2-3.51-2.71l-.78-.23-.55-.05-.55-.43c-.74-.73-1.2-1.68-1.77-2.55-.43-.68-.94-1.3-1.51-1.87l-1.58-1.32-.11,.22-.77-.06,.31,.97,.45,.43-.09,.41-.76,.06,.98,1.04,.71,.54v.28s-.71,.02-.71,.02l.29,.33,1.63,.72,.24,.16-.02,.19-.51,.16,.8,.54-.06,.25-.57,.23,1.46,.73,.06,.26-.46,.26,.61,.28,.86,.1,.06,.43-.6,.43,1.44,.74c.93,.42,1.89,.8,2.89,1.03,.83,.2,1.69,.22,2.54,.19l.51,.04-.22,.28-1.27,.25Zm20.56,2.49c-.6,.33-1.33,.34-2,.28l-.17,.76-.6,.3-1.33-.14-.68,.63-.79-.19-1.17,.63-.7-.08-.9,.48-.76-.28-.93,.5h-.3l-.48-.47-.69,.27-.87-.1-.31-.05-1.08,.18-.41-.28-.87,.31-.65-.2v-.58s.62-.52,.62-.52l1.03-.85,.24-.06c1.18,.1,2.38,.12,3.57-.11,.66-.14,1.33-.34,1.95-.65l.44-.16,.82,.04,.08-.28,.28-.17,.31-.35,.1-.54,.37-.12,.98,.13c1.34,.14,2.69,.17,4.05,.22l1.34,.1,.16,.09-.64,1.25Zm10.32-19.49c-.29,.96-.83,1.84-1.37,2.69-.61,.94-1.29,1.85-1.98,2.74l-.64,.91,.63-.39c.74-.6,1.4-1.28,2.16-1.85l.73-.35,.28,.41-.38,.86c-.45,.61-.97,1.13-1.5,1.66l-1.67,1.58-.29,.42,.9-.42,1.16-.63,.45-.06,.07,.44-.52,.73-1.09,.93-1.08,.7-.61,.33,.94-.02,.23,.19-.34,.55-1.43,.56-.26,.19,.81,.17,.02,.38-.92,.34-1.17,.25,.83,.26-.05,.46-1.29,.21-.75,.17,.7,.23,.18,.24-.43,.33-1.41,.45c-1.02,.32-2.08,.51-3.14,.68-.96,.14-1.93,.3-2.91,.26l-.3-.16,.24-.16,1.48-.28,1.37-.29,.83-.28,1.13-.56,.53-.14-.3-.46,.11-.33,.49-.06,.26-.28-.08-.49,.28-.18,1.06-.35-.23-.31,.14-.21,1.13-.64-.32-.26,.13-.25,1.55-.86,.31-.38-.62,.05,.04-.37,1.12-1.33-.77,.05-.07-.42c.16-.56,.55-1.05,.55-1.64l-.61,.3-.19-.35-.91,.54c-.82,.67-1.5,1.51-2.06,2.42-.38,.59-.71,1.23-1.14,1.79l-.85,.88c-.6,.24-1.23,.41-1.8,.66-1.31,.52-2.42,1.41-3.35,2.43l-.59,.19c-.61,.03-1.24,.09-1.87,.18-1.13,.18-2.25,.41-3.34,.75l-1.17,.51c-.92,.45-1.84,.89-2.73,1.42l-.53,.38,.74-.23h.86s-.93,1.07-.93,1.07l.2,.18c1.51,.04,3.02-.22,4.53-.15l.96-.03,.26,.19-.15,.18-1.33,.36c-2.06,.07-4.13,.17-6.18,.26l-.56,.04-.65,.21-.21-.16-.14,.03-.27,.54-.35-.3v-.83s1.44-1.44,1.44-1.44c.66-.44,1.43-.66,2.18-.93l1.59-.86c.57-.37,1.13-.79,1.74-1.1l1.43-.47c2.73-.38,5.3-1.51,7.57-3.02,2.04-1.36,3.86-3.07,5.3-5.07,1.7-2.32,2.83-5.09,3.07-7.97l.05-.37,.49,.04,.11,.42c.05,1.04-.06,2.06-.06,3.09,.46-.94,.85-1.89,1.29-2.83l.81-1.6,.41-.32,.2,.46-.34,1.37c-.56,1.66-1.27,3.26-1.94,4.88l-.4,1.07,.67-.68c1.16-1.57,2.08-3.3,3.18-4.91l.36-.44,.21-.03,.11,.38-.08,.9Z"/>
  <path class="cls-2" d="M48.11,55.49c-.85,.02-1.71,0-2.54-.19-1-.23-1.96-.61-2.89-1.03l-1.44-.74,.6-.43-.06-.43-.86-.1-.61-.28,.46-.26-.06-.26-1.46-.73,.57-.23,.06-.25-.8-.54,.51-.16,.02-.19-.24-.16-1.63-.72-.29-.33,.69-.02v-.28s-.7-.54-.7-.54l-.98-1.04,.76-.06,.09-.41-.45-.43-.31-.97,.77,.06,.11-.22,1.58,1.32c.57,.57,1.08,1.19,1.51,1.87,.57,.87,1.03,1.82,1.77,2.55l.55,.43,.55,.05,.78,.23c1.32,.71,2.4,1.73,3.51,2.71l.37,.17h1.3c.65,.06,1.3,.14,1.96,.27l1.6,.62,.45,.53,1.03-.79,.57-.35-.18-.47c-3.5,.02-7-1.04-9.91-2.98-2.73-1.81-4.95-4.38-6.38-7.33-.85-1.76-1.42-3.66-1.64-5.61l-.06-.5-.58,.2v1.51s.11,1.64,.11,1.64c-.61-1.32-1.11-2.69-1.77-3.97l-.45-.64h-.26s-.07,.42-.07,.42l.29,1.33c.46,1.5,1.06,2.95,1.6,4.43l.13,.48-.66-.7c-.94-1.34-1.65-2.82-2.54-4.17l-.43-.34-.12,1.1c.18,.91,.61,1.75,1.06,2.56,.65,1.14,1.4,2.24,2.14,3.33l.47,.75-.75-.47c-.68-.56-1.31-1.18-1.98-1.75l-.62-.46-.33-.07-.12,.22v.18l.82,1.34c.93,1.05,2.02,1.95,3.06,2.88-.62-.27-1.17-.64-1.81-.83h-.49l-.07,.4,.53,.75,1.64,1.3,1.18,.55,.42,.33-1.32-.07-.29,.12v.24s.47,.45,.47,.45l1.64,.37,.28,.16-1,.08-.33,.15,.21,.39,.84,.31,.75,.25-.78,.18-.18,.38,.32,.2,1.78,.33-.53,.17-.03,.23,.43,.32c1.36,.7,2.76,1.34,4.25,1.75,1.11,.3,2.26,.54,3.41,.48l1.27-.25,.22-.28-.51-.04Z"/>
  <path class="cls-2" d="M66.83,57.09c-1.36-.05-2.7-.08-4.05-.22l-.98-.13-.37,.12-.1,.54-.31,.35-.28,.17-.08,.28-.82-.04-.44,.16c-.62,.31-1.29,.51-1.95,.65-1.18,.23-2.39,.21-3.57,.11l-.24,.06-1.03,.85-.63,.52v.58s.65,.2,.65,.2l.87-.31,.41,.28,1.08-.18,.31,.05,.87,.1,.69-.27,.48,.47h.3l.93-.5,.76,.28,.9-.48,.7,.08,1.17-.63,.79,.19,.68-.63,1.33,.14,.6-.3,.17-.76c.67,.07,1.4,.05,2-.28l.64-1.25-.16-.09-1.34-.1Z"/>
  <path class="cls-2" d="M77.77,37.8l-.36,.44c-1.1,1.62-2.02,3.35-3.18,4.91l-.67,.68,.4-1.07c.67-1.62,1.39-3.22,1.94-4.88l.34-1.37-.2-.46-.41,.32-.81,1.6c-.44,.94-.83,1.89-1.29,2.83,0-1.04,.11-2.06,.06-3.09l-.11-.42-.49-.04-.05,.37c-.24,2.88-1.38,5.65-3.07,7.97-1.43,2-3.26,3.71-5.3,5.07-2.27,1.51-4.85,2.64-7.57,3.02l-1.43,.47c-.61,.31-1.17,.73-1.74,1.1l-1.59,.86c-.75,.27-1.52,.48-2.18,.93l-1.46,1.44v.83s.36,.3,.36,.3l.27-.54,.14-.03,.21,.16,.65-.21,.56-.04c2.05-.09,4.12-.19,6.18-.26l1.33-.36,.15-.18-.26-.19-.96,.03c-1.51-.07-3.02,.19-4.53,.15l-.2-.18,.93-1.08h-.86s-.74,.24-.74,.24l.53-.38c.88-.53,1.8-.97,2.73-1.42l1.17-.51c1.09-.34,2.21-.57,3.34-.75,.62-.09,1.25-.14,1.87-.18l.59-.19c.93-1.02,2.04-1.9,3.35-2.43,.57-.24,1.2-.41,1.8-.66l.85-.88c.43-.57,.75-1.2,1.14-1.79,.57-.91,1.24-1.75,2.06-2.42l.91-.54,.19,.35,.61-.3c0,.59-.39,1.09-.55,1.64l.07,.42,.77-.05-1.12,1.33-.04,.37,.62-.05-.31,.38-1.55,.86-.13,.25,.32,.26-1.13,.64-.14,.21,.23,.31-1.06,.35-.28,.18,.08,.49-.26,.28-.49,.06-.11,.33,.3,.46-.53,.14-1.13,.56-.83,.28-1.37,.29-1.48,.28-.24,.16,.3,.16c.97,.04,1.95-.12,2.91-.26,1.06-.17,2.12-.36,3.14-.68l1.41-.45,.43-.33-.18-.24-.7-.23,.75-.17,1.29-.21,.05-.46-.83-.26,1.17-.25,.92-.34-.02-.38-.81-.17,.26-.19,1.43-.56,.34-.55-.23-.19-.94,.02,.61-.33,1.08-.7,1.09-.93,.52-.73-.07-.44-.45,.06-1.16,.63-.9,.42,.29-.42,1.67-1.58c.53-.53,1.05-1.05,1.5-1.66l.38-.86-.28-.41-.73,.35c-.76,.57-1.42,1.25-2.16,1.85l-.63,.39,.64-.91c.69-.89,1.36-1.8,1.98-2.74,.54-.85,1.08-1.73,1.37-2.69l.08-.9-.11-.38-.21,.03Zm-26.7,20.28l-.52,.29h-.36s0-.39,0-.39l.53-.3h.38s-.01,.4-.01,.4Z"/>
  <polygon class="cls-2" points="55.86 21.94 55.06 18.58 54.25 21.94 55.06 22.8 55.86 21.94"/>
  <polygon class="cls-2" points="53.49 22.01 52.03 18.87 51.91 22.33 52.86 23.01 53.49 22.01"/>
  <polygon class="cls-2" points="50.75 23.64 51.16 22.55 49.14 19.75 49.68 23.17 50.75 23.64"/>
  <polygon class="cls-2" points="48.8 24.68 48.99 23.53 46.45 21.18 47.65 24.42 48.8 24.68"/>
  <polygon class="cls-2" points="47.1 26.08 47.06 24.91 44.11 23.1 45.92 26.05 47.1 26.08"/>
  <polygon class="cls-2" points="45.69 27.79 45.42 26.65 42.18 25.45 44.53 27.99 45.69 27.79"/>
  <polygon class="cls-2" points="44.65 29.74 44.16 28.67 40.75 28.12 43.55 30.15 44.65 29.74"/>
  <polygon class="cls-2" points="44 31.84 43.32 30.89 39.87 31.03 43 32.47 44 31.84"/>
  <polygon class="cls-2" points="43.78 34.04 42.92 33.24 39.56 34.04 42.92 34.85 43.78 34.04"/>
  <polygon class="cls-2" points="43 35.61 39.86 37.07 43.31 37.19 44 36.24 43 35.61"/>
  <polygon class="cls-2" points="44.63 38.35 43.54 37.94 40.73 39.96 44.15 39.43 44.63 38.35"/>
  <polygon class="cls-2" points="45.67 40.3 44.52 40.1 42.17 42.64 45.41 41.44 45.67 40.3"/>
  <polygon class="cls-2" points="47.07 42.01 45.89 42.04 44.09 44.99 47.03 43.18 47.07 42.01"/>
  <polygon class="cls-2" points="48.78 43.41 47.63 43.68 46.43 46.93 48.96 44.57 48.78 43.41"/>
  <polygon class="cls-2" points="49.11 48.35 51.13 45.55 50.72 44.46 49.65 44.94 49.11 48.35"/>
  <polygon class="cls-2" points="52.01 49.23 53.46 46.1 52.82 45.1 51.88 45.78 52.01 49.23"/>
  <polygon class="cls-2" points="54.22 46.18 55.03 49.54 55.84 46.18 55.03 45.32 54.22 46.18"/>
  <polygon class="cls-2" points="58.05 49.25 58.18 45.8 57.22 45.11 56.6 46.1 58.05 49.25"/>
  <polygon class="cls-2" points="58.92 45.57 60.95 48.37 60.41 44.95 59.34 44.47 58.92 45.57"/>
  <polygon class="cls-2" points="62.44 43.69 61.29 43.43 61.09 44.59 63.63 46.94 62.44 43.69"/>
  <polygon class="cls-2" points="64.17 42.07 63 42.03 63.03 43.21 65.98 45.02 64.17 42.07"/>
  <polygon class="cls-2" points="65.56 40.14 64.4 40.33 64.66 41.47 67.91 42.68 65.56 40.14"/>
  <polygon class="cls-2" points="66.54 37.97 65.45 38.38 65.92 39.46 69.34 40 66.54 37.97"/>
  <polygon class="cls-2" points="67.09 35.65 66.09 36.27 66.77 37.23 70.22 37.09 67.09 35.65"/>
  <polygon class="cls-2" points="67.17 33.26 66.31 34.08 67.17 34.88 70.52 34.08 67.17 33.26"/>
  <polygon class="cls-2" points="66.09 31.87 67.09 32.5 70.23 31.06 66.78 30.92 66.09 31.87"/>
  <polygon class="cls-2" points="65.46 29.77 66.55 30.18 69.35 28.15 65.94 28.69 65.46 29.77"/>
  <polygon class="cls-2" points="64.42 27.82 65.57 28.01 67.92 25.47 64.68 26.67 64.42 27.82"/>
  <polygon class="cls-2" points="63.02 26.11 64.19 26.07 66 23.12 63.05 24.93 63.02 26.11"/>
  <polygon class="cls-2" points="62.46 24.44 63.66 21.2 61.12 23.54 61.32 24.7 62.46 24.44"/>
  <polygon class="cls-2" points="60.44 23.18 60.98 19.76 58.95 22.56 59.37 23.66 60.44 23.18"/>
  <polygon class="cls-2" points="58.21 22.34 58.08 18.88 56.63 22.02 57.26 23.02 58.21 22.34"/>
  <path class="cls-2" d="M64.96,34.06c0-5.47-4.44-9.91-9.92-9.91s-9.9,4.44-9.9,9.91,4.43,9.9,9.9,9.9,9.92-4.43,9.92-9.9Z"/>
  <polygon class="cls-2" points=".47 38.66 .86 38.41 .87 37.99 1.36 37.72 .88 37.42 .83 36.99 .52 36.78 .47 37.29 0 37.35 0 38.23 .52 38.25 .47 38.66"/>
  <polygon class="cls-2" points="0 30.19 0 30.43 .18 30.17 0 30.19"/>
  <path class="cls-2" d="M3.33,26.83v-.71l-.79-1.52-1.36-.55c.61-.07,1.22-.34,1.63-.82l.52-1.23v-.7c-.04-.62-.28-1.19-.56-1.75-.72-1.48-1.43-2.97-2.15-4.45-.14,.55-.25,1.11-.35,1.67,.56,1.18,1.12,2.36,1.67,3.54l.29,1.44-.47,.88-1.29,.37-.48-.3v1.27c.09,.02,.19,.06,.28,.07l-.28,.11v1.22l.87-.29,1.09,.56,.3,.86-.29,1.23c-.65,1.4-1.32,2.79-1.98,4.18v2.38c.96-2,1.93-3.99,2.89-6l.45-1.49Z"/>
  <polygon class="cls-2" points=".52 43.23 .83 43 .88 42.58 1.36 42.28 .87 42.01 .86 41.58 .47 41.34 .52 41.75 0 41.79 0 42.65 .45 42.68 .52 43.23"/>
  <polygon class="cls-2" points=".54 28.16 .46 28.7 1.08 28.26 1.14 27.68 1.49 27.58 1.89 27.25 1.14 26.82 1.04 26.31 .46 25.82 .52 26.49 .21 26.83 0 26.82 0 27.75 .27 27.78 .54 28.16"/>
  <path class="cls-2" d="M.54,45.05l.46-.1-.19,.32-.13,.64,.44-.2,.28,.02-.13,.39,.4,1.34,1.25,.67-.72-1.4-.04-1.11,.19-1.28,.36-1.58-.05-1-.83-1.18,.79-.58-.79-.59c.48-.37,.84-.91,.9-1.51l-.05-1.01-.28-1.09c-.19-.68-.27-1.4-.25-2.11,.02-.69,.34-1.33,.77-1.84l-1.08,.52-.58,1.07,.14,.83h-.29s-.42-.18-.42-.18l.06,.46,.26,.5-.46-.1,.41,.72-.95,.14v.89l.18-.22,.57-.07,.66,.47,.16,.99c-.11,.71-.85,1.3-1.57,1.2v1.96l.34-.11,1.16,.95,.05,.83-.5,.79-.86,.05-.2-.23v.89l.95,.13-.41,.72Z"/>
  <polygon class="cls-2" points="0 49.51 0 49.8 .18 49.83 0 49.51"/>
  <path class="cls-2" d="M2.46,67.96l-.28-1.61,.03-1.23,.71-1.37-1.43,.91-.1,1.5-.28,.02-.15-.07c.44,1.36,1.02,2.65,1.72,3.86l.04-.65-.27-1.36Z"/>
  <path class="cls-2" d="M3.33,58.74v-.73l-.77-1.51-1.38-.56,1.56-.74,.59-1.32v-.69l-.3-1.21-.7-1.44c-.78-1.62-1.56-3.24-2.34-4.86v2.37c.65,1.38,1.31,2.76,1.96,4.14l.28,1.53-.8,1.01-1.05,.12-.39-.29v1.3c.09,.02,.18,.05,.27,.07l-.27,.11v1.26l.27-.25,1.38,.21,.55,.73v.93s-.24,.73-.24,.73c-.56,1.19-1.12,2.37-1.68,3.56,.09,.57,.21,1.13,.35,1.68,.75-1.55,1.5-3.1,2.25-4.65l.46-1.51Z"/>
  <polygon class="cls-2" points=".54 53.68 .46 54.18 1.07 53.62 1.14 53.18 1.89 52.74 1.14 52.33 1.11 51.81 .46 51.29 .54 51.83 .34 52.18 0 52.25 0 53.17 .34 53.24 .54 53.68"/>
  <path class="cls-2" d="M.11,62.07s.01,.07,.02,.1l.05-.11H.11Z"/>
  <path class="cls-2" d="M1.39,13.84l-.14,.46,.47,1.32,1.2,.63-.72-1.4-.05-.85,.13-1.19c.12-.65,.37-1.27,.43-1.93l-.03-.85c-.7,1.21-1.29,2.5-1.72,3.86l.17-.08,.27,.02Z"/>
  <path class="cls-2" d="M.12,17.85s0,.05-.01,.08h.07s-.06-.08-.06-.08Z"/>
  <polygon class="cls-2" points=".51 59.93 .46 60.6 1.08 60.15 1.14 59.57 1.89 59.15 1.14 58.71 1.04 58.22 .46 57.71 .51 58.41 .16 58.74 0 58.71 0 59.62 .15 59.64 .51 59.93"/>
  <polygon class="cls-2" points=".52 21.61 .46 22.28 1.09 21.69 1.14 21.28 1.89 20.85 1.51 20.53 1.14 20.43 1.08 19.84 .46 19.41 .52 20.03 .25 20.33 0 20.36 0 21.27 .19 21.27 .52 21.61"/>
</svg>