<?xml version="1.0" encoding="UTF-8"?>
<svg id="Layer_1" data-name="Layer 1" xmlns="http://www.w3.org/2000/svg" viewBox="0 0 80 80">
  <defs>
    <style>
      .cls-1 {
        fill: #fff;
      }

      .cls-2 {
        fill: #176734;
      }

      .cls-3 {
        fill: #b92025;
      }
    </style>
  </defs>
  <path class="cls-2" d="M20,80H60c11.05,0,20-8.95,20-20v-3.24h-29.7c-.11,.21-.23,.42-.34,.64l7.57,12.54-.06,.03-1.11,.61-7.16-11.86c-2.46,4.13-5.98,8.57-8.59,9.21,0,0,0,0,0,0h0c-.21,.05-.41,.09-.61,.09s-.41-.04-.62-.09h0s0,0,0,0c-2.61-.65-6.12-5.09-8.58-9.21l-7.16,11.86-.05-.02-1.11-.61,7.57-12.54c-.12-.21-.23-.42-.34-.63H0v3.24c0,11.05,8.95,20,20,20Z"/>
  <path class="cls-3" d="M27.81,27.61H0v24.77H27.81c-2.93-8.37-2.93-16.4,0-24.77Z"/>
  <path class="cls-3" d="M52.19,52.38h27.81V27.61h-27.81c2.93,8.37,2.93,16.4,0,24.77Z"/>
  <path class="cls-1" d="M28.41,25.99c.12-.32,.27-.66,.43-1.01l-1-1.66c-.08-.02-.15-.05-.23-.08H0v4.37H27.81c.19-.54,.38-1.07,.6-1.61Z"/>
  <path class="cls-1" d="M29.02,27.61c-.19-.54-.39-1.08-.61-1.61,.21,.54,.41,1.08,.6,1.61h.01Z"/>
  <path class="cls-1" d="M51,27.61c.19-.54,.38-1.07,.6-1.61-.21,.54-.41,1.08-.6,1.61h0Z"/>
  <path class="cls-1" d="M52.16,23.32l-1,1.66c.16,.36,.31,.7,.43,1.02,.21,.54,.41,1.08,.6,1.61h27.81v-4.37h-27.61c-.08,.03-.15,.06-.23,.08Z"/>
  <path class="cls-1" d="M29.33,23.24l.2,.33c.06-.11,.11-.22,.17-.33h-.37Z"/>
  <path class="cls-1" d="M50.67,23.24h-.37c.06,.11,.11,.22,.17,.33l.2-.33Z"/>
  <path class="cls-1" d="M28.41,54c-.21-.54-.41-1.08-.6-1.62H0v4.38H29.71c-.53-1.01-.98-1.95-1.3-2.76Z"/>
  <path class="cls-1" d="M51.6,54c-.31,.8-.76,1.75-1.3,2.76h29.7v-4.38h-27.81c-.19,.54-.39,1.08-.6,1.62Z"/>
  <path class="cls-1" d="M50.99,52.38c.19,.54,.4,1.08,.61,1.62-.21-.54-.41-1.08-.6-1.62h0Z"/>
  <path class="cls-1" d="M29.01,52.38c-.19,.54-.38,1.08-.6,1.62,.21-.54,.41-1.08,.61-1.62h-.01Z"/>
  <path class="cls-1" d="M57.36,69.88l-7.47-12.37c-.2,.35-.4,.71-.62,1.07l7.13,11.82,.95-.53Z"/>
  <path class="cls-1" d="M23.6,70.41l7.13-11.82c-.22-.36-.42-.72-.62-1.08l-7.46,12.37,.95,.53Z"/>
  <path class="cls-1" d="M52.07,23.24v-.02s.04,0,.04,0c1.63-.41,2.54-1.91,3.46-3.43,.54-.89,3.39-8.41,3.99-9.98-1.13,1.28-6.52,7.41-7.06,8.3-.75,1.24-1.49,2.47-1.49,3.74l.11,.84v.02s-.59,.99-.59,.99c.21,.4,.4,.79,.57,1.16l.97-1.61Z"/>
  <path class="cls-1" d="M28.88,22.69v-.02s.12-.84,.12-.84c0-1.27-.74-2.5-1.49-3.74-.53-.89-5.94-7.03-7.05-8.3,.6,1.57,3.45,9.1,3.99,9.99,.92,1.52,1.82,3.02,3.45,3.43h.02s.99,1.64,.99,1.64c.17-.37,.36-.76,.57-1.16l-.6-.99Z"/>
  <path d="M27.84,23.32l1,1.66s.04-.09,.06-.13l-.99-1.64h-.02c-1.63-.41-2.54-1.91-3.45-3.44-.54-.89-3.4-8.41-3.99-9.99,1.12,1.27,6.52,7.41,7.05,8.3,.75,1.24,1.49,2.47,1.49,3.74l-.11,.84v.02s.59,.99,.59,.99c.02-.04,.04-.08,.06-.12l-.2-.33h.37c2.4-4.54,6.65-10.41,9.68-11.16,0,0,0,0,0,0h0c.21-.05,.42-.09,.62-.09s.4,.04,.61,.09h0s0,0,0,0c3.02,.74,7.29,6.62,9.69,11.16h.37l-.2,.33s.04,.08,.06,.12l.6-.99v-.02s-.12-.84-.12-.84c0-1.27,.74-2.5,1.49-3.74,.54-.89,5.93-7.02,7.06-8.3-.59,1.58-3.45,9.1-3.99,9.98-.92,1.52-1.82,3.02-3.46,3.43h-.03s0,.03,0,.03l-.97,1.61s.04,.09,.06,.13l1-1.66c.08-.02,.15-.05,.23-.08h27.61v-3.24c0-11.05-8.95-20-20-20H20C8.95,0,0,8.95,0,20v3.24H27.61c.08,.03,.15,.06,.23,.08Z"/>
  <path d="M49.89,57.52l7.47,12.37-.95,.53-7.13-11.82s-.05,.08-.07,.12l7.16,11.86,1.11-.61,.06-.03-7.57-12.54s-.05,.08-.07,.12Z"/>
  <path d="M30.74,58.59l-7.13,11.82-.95-.53,7.46-12.37s-.05-.08-.07-.12l-7.57,12.54,1.11,.61,.05,.02,7.16-11.86s-.05-.08-.07-.11Z"/>
  <path class="cls-3" d="M51.6,54c-.21-.54-.41-1.08-.61-1.62h0c-2.93-8.38-2.93-16.4,0-24.77h0c.19-.54,.39-1.08,.6-1.61-.12-.32-.27-.66-.43-1.02-.02-.04-.04-.09-.06-.13-.17-.37-.36-.76-.57-1.16-.02-.04-.04-.08-.06-.12-.06-.11-.11-.22-.17-.33-2.4-4.54-6.67-10.42-9.69-11.16,3.47,7.2,3.47,17.31,0,24.51,2.67,.81,2.46,6.91-.61,6.91-3.29,0-3.29-7,0-7,.22,0,.42,.03,.61,.09V12.08c-.21-.05-.41-.09-.61-.09s-.41,.04-.62,.09v24.51c-3.47-7.2-3.48-17.31,0-24.51-3.03,.75-7.28,6.62-9.68,11.16-.06,.11-.11,.22-.17,.33-.02,.04-.04,.08-.06,.12-.21,.4-.4,.79-.57,1.16-.02,.04-.04,.09-.06,.13-.16,.35-.31,.69-.43,1.01,.21,.54,.41,1.08,.61,1.61h-.01c2.93,8.38,2.93,16.39,0,24.77h.01c-.19,.54-.4,1.08-.61,1.62,.32,.8,.76,1.75,1.3,2.76,.11,.21,.23,.42,.34,.63,.02,.04,.05,.08,.07,.12,.2,.36,.4,.71,.62,1.08,.02,.04,.05,.08,.07,.11,2.46,4.12,5.97,8.56,8.58,9.21-3.47-7.2-3.46-17.31,0-24.51v24.51c.21,.05,.42,.09,.62,.09s.4-.04,.61-.09v-24.51c3.48,7.2,3.48,17.31,0,24.51,2.6-.64,6.12-5.08,8.59-9.21,.02-.04,.05-.08,.07-.12,.21-.36,.42-.72,.62-1.07,.02-.04,.05-.08,.07-.12,.12-.21,.23-.43,.34-.64,.53-1.01,.98-1.95,1.3-2.76Z"/>
  <path d="M51,52.38c.19,.54,.39,1.08,.6,1.62,.21-.54,.41-1.08,.6-1.62,2.93-8.37,2.93-16.4,0-24.77-.19-.54-.38-1.07-.6-1.61-.21,.54-.41,1.08-.6,1.61-2.93,8.38-2.93,16.39,0,24.77Z"/>
  <path d="M29,27.61c-.19-.54-.38-1.07-.6-1.61-.21,.54-.41,1.08-.6,1.61-2.93,8.37-2.93,16.4,0,24.77,.19,.54,.39,1.08,.6,1.62,.21-.54,.41-1.08,.6-1.62,2.93-8.38,2.93-16.4,0-24.77Z"/>
  <path class="cls-1" d="M40.61,43.41v24.51h0s0,0,0,0c3.47-7.2,3.47-17.31,0-24.51Z"/>
  <path class="cls-1" d="M39.39,36.59V12.08h0s0,0,0,0c-3.47,7.2-3.46,17.31,0,24.51Z"/>
  <path class="cls-1" d="M39.39,43.41c-3.47,7.2-3.48,17.31,0,24.51,0,0,0,0,0,0h0v-24.52Z"/>
  <path class="cls-1" d="M40.61,36.58c-.19-.06-.39-.09-.61-.09-3.29,0-3.29,7,0,7,3.07,0,3.27-6.1,.61-6.91,3.47-7.2,3.47-17.31,0-24.51,0,0,0,0,0,0h0v24.51Z"/>
</svg>