<?xml version="1.0" encoding="UTF-8"?>
<svg id="Layer_1" data-name="Layer 1" xmlns="http://www.w3.org/2000/svg" viewBox="0 0 80 80">
  <defs>
    <style>
      .cls-1 {
        fill: #fff;
      }

      .cls-2 {
        fill: #ee432c;
      }

      .cls-3 {
        fill: #029d49;
      }
    </style>
  </defs>
  <path class="cls-2" d="M20,80H60c10.42,0,18.96-7.96,19.91-18.13H.09c.94,10.17,9.49,18.13,19.91,18.13Z"/>
  <polygon class="cls-1" points="36.12 30.42 36.69 29 36.22 28.93 35.06 29.64 34.16 30.68 34.1 31.21 34.81 31.16 36.12 30.42"/>
  <polygon class="cls-1" points="33.03 45.07 33.11 45.82 33.72 47.44 34.17 47.69 34.55 46.96 34.2 45.33 33.03 45.07"/>
  <polygon class="cls-1" points="34.76 27.55 35.34 26.8 34.57 26.57 34.1 26.87 34.13 27.96 34.76 27.55"/>
  <polygon class="cls-1" points="35.48 38.09 34.84 38.2 35.25 38.82 36.34 39.16 35.48 38.09"/>
  <polygon class="cls-1" points="32.87 32.91 32.7 33.26 33.22 34.6 33.56 34.55 34.44 33.68 34.82 32.96 34.01 32.72 32.87 32.91"/>
  <path class="cls-1" d="M38.17,32.49l1.22,.41,.83-.24,.28-.61-.63-.2c-.6,.11-1.14,.42-1.7,.65Z"/>
  <path class="cls-1" d="M31.71,40.49c-.62-.15-1.24-.1-1.86-.09-.72,.05-1.44,.1-2.14,.31l.33,.98,.44,.75,.65,.1c.63-.08,1.24-.29,1.82-.53l1.39-.93-.09-.34-.54-.26Z"/>
  <polygon class="cls-1" points="31.01 33.22 30.03 33.35 29.76 33.8 30.43 34.97 31.21 35.43 32.46 34.99 31.72 33.75 31.01 33.22"/>
  <polygon class="cls-1" points="42.49 28.1 42.07 27.35 41.09 27.59 40.99 28.11 42.02 28.31 42.49 28.1"/>
  <polygon class="cls-1" points="39.79 39.5 40.61 40.3 41.31 40.28 41.38 39.57 40.38 38.08 39.79 39.5"/>
  <polygon class="cls-1" points="46.36 32.84 44.99 32.53 43.77 33.62 44.12 34.01 45.55 34.41 46.31 34.31 46.62 33.55 46.36 32.84"/>
  <path class="cls-1" d="M48.64,37.61l.76-.85c.02-.6-.72-.96-1.24-.75l-.68,.75,.11,.38,1.04,.46Z"/>
  <path class="cls-1" d="M48.24,43.07c-.67,.14-1.25,.52-1.76,.94l-.07,.35c.5,.57,1.35,.76,2.06,.53l1.19-.91-.07-.71-1.34-.2Z"/>
  <polygon class="cls-1" points="44.87 27.85 44.88 27.56 43.73 27.65 43.37 28.39 43.53 28.83 44.68 28.59 44.87 27.85"/>
  <path class="cls-1" d="M79.91,18.14H.09c-.06,.61-.09,1.23-.09,1.86V60c0,.63,.04,1.25,.09,1.87H79.91c.06-.62,.09-1.24,.09-1.87V20c0-.63-.04-1.25-.09-1.86Zm-19.22,35.62l-1.46-.7c-.93-.65-1.89-1.24-2.88-1.79-.51-.29-1.09-.47-1.69-.49-1.53-.05-3.06,.05-4.6,0-.6,0-1.2-.11-1.75-.36-.75-.32-1.44-.82-2.26-.98l-.87,.29-.62,.92c-.2,.75-.13,1.53-.14,2.31,0,1.18,.05,2.43,.65,3.48,.51,.89,1.29,1.59,2.06,2.26,.92,.79,1.9,1.55,2.69,2.49v.2l-1.01,.13c-.85-.47-1.32-1.4-2.09-1.98l-1.73-.49c-.76-.09-1.53-.17-2.29-.1-.02,.71,.72,1.16,.66,1.87l-.76-.38c-.57-.53-1.16-1.06-1.83-1.47l-.78-.72-.28-.89-.47-.16-1.51,.3-1.29-.43c-.81-.06-1.55,.4-2.14,.91-.9,.85-2,1.51-3.21,1.8l-1.62,.18c-.7,.11-1.37,.38-1.92,.83l-.7,.76h-.54s.53-.95,.53-.95l1.09-.93,1.37-.48c1.13-.35,2.13-1.04,2.87-1.95,.81-.97,1.58-1.98,2.08-3.14,.26-.6,.42-1.27,.33-1.93l-.36-.81c-.41-.54-1.01-.91-1.64-1.16l-1.53,.26c-1.39,.59-2.74,1.26-4.16,1.79-1.08,.45-2.2,.83-3.37,.91-.74,.06-1.51,.08-2.22-.19l-.53-.64v-.18c1.51-.64,3.14-.99,4.68-1.56,1.03-.4,2.07-.83,2.96-1.49l.67-.87-.56-.7h-1.75c-.6,.24-1.07,.7-1.65,.98-1.31,.68-2.69,1.2-4.11,1.58l-1.63,.07-1.04-.9,1.53-.08c.93-.54,1.6-1.42,2.41-2.12,1.07-.96,2.25-1.8,3.55-2.43l1.29-.83,.21-.95-.83-1.21-.72,.17c-.83,.55-1.63,1.21-2.61,1.42l-1.56-.65-.03-.18,1-.64,1.18-1.12c.55-.54,1.11-1.12,1.79-1.5l1.4-.46c.68-.19,1.21-.7,1.64-1.23l.98-1.42-.43-1.32-.53-.46-.69,.19c-.66,.21-1.34,.38-2.03,.41l-.81-.16-.05-.37,.65-.63c.85-.65,1.76-1.2,2.7-1.68,.61-.31,1.28-.55,1.75-1.04l.53-.99,1.39-.98,1.24-.26-.28-1.04-.95-.05-.69-.03v-.16l1-.91,1.45-.85c.7-.3,1.34-.74,1.91-1.24l.46-.64-.78,.04-1.53,.43,1.02-1.17c.52-.5,1.09-.98,1.68-1.41l1.57-1.45c.49-.54,.81-1.21,1.2-1.82h.09c.29,.65,.55,1.33,.97,1.94l1.28,1.49,1.23,.73c.7,.17,1.41,.31,2.11,.46,1.22,.28,2.28,1,3.27,1.74,.78,.59,1.56,1.2,2.34,1.81l-1.56-.09-1.38,.06,.38,.47c.76,.63,1.58,1.2,2.42,1.74,.63,.39,1.3,.72,2.01,.91-1,.09-2.02,.11-3-.13l-1.48-.58-1.63,.29,.11,.47,1.24,.76c1.03,.6,1.92,1.41,2.79,2.23,.96,.83,2.02,1.55,3.1,2.21,.79,.48,1.63,.88,2.38,1.42l.47,.6h-1.65c-1.03-.14-2.04-.42-3.08-.34l-.37,.6,1.22,.59c1.47,.34,2.95,.72,4.39,1.22l.98,.53v.25s-1.6,.33-1.6,.33c-1.39,.14-2.82,.07-4.19,.35l-.79,.43,.19,.36,1.55,.2c.75,.09,1.46,.4,2.03,.88l.72,.78c1.33,1.25,2.8,2.37,4.19,3.55-.61,.09-1.23,.35-1.86,.2-1.1-.22-1.93-1.08-3.01-1.31l-1.16,.51-.59,.58,.46,.8c.74,.59,1.58,1.02,2.41,1.48,1.28,.68,2.56,1.4,3.73,2.27l1.36,1.29,.14,.78-.89,.4Z"/>
  <path class="cls-1" d="M52.71,43.89h-.37s-1.22,.76-1.22,.76l-.59,.73,.47,.5,1.44,.25c.5-.41,.99-.88,1.27-1.48l-1.01-.76Z"/>
  <path class="cls-1" d="M40.13,28.32l-.24-.82-.96,.2-1.13,.68-.24,.8,.16,.1c.61-.04,1.22-.18,1.81-.37l.6-.59Z"/>
  <polygon class="cls-1" points="37.95 37.64 38.13 38.75 38.46 38.74 38.69 37.45 37.95 37.64"/>
  <path class="cls-1" d="M38.87,46.74l.03,.05,.27,.88c.45-.59,.92-1.17,1.28-1.84-.55-.33-1.21-.43-1.83-.42l.26,1.32Z"/>
  <polygon class="cls-1" points="36.39 46.92 37.09 47.42 37.19 46.51 36.02 45.9 36.39 46.92"/>
  <polygon class="cls-1" points="42.11 31.82 41.38 32.74 41.27 33.21 42.34 33.12 42.78 32.63 42.67 31.83 42.11 31.82"/>
  <polygon class="cls-1" points="42.23 40.43 42.68 40.61 42.78 40.35 42.78 39.99 42.1 39.23 42.23 40.43"/>
  <path class="cls-2" d="M60,0H20C9.58,0,1.03,7.97,.09,18.14H79.91C78.97,7.97,70.42,0,60,0Z"/>
  <path class="cls-3" d="M60.07,51.29c-1.17-.87-2.45-1.6-3.73-2.27-.83-.46-1.67-.89-2.41-1.48l-.46-.8,.59-.58,1.16-.51c1.08,.23,1.91,1.09,3.01,1.31,.63,.14,1.25-.11,1.86-.2-1.39-1.18-2.86-2.3-4.19-3.55l-.72-.78c-.57-.48-1.28-.8-2.03-.88l-1.55-.2-.19-.36,.79-.43c1.38-.28,2.8-.21,4.19-.35l1.61-.33v-.25s-.99-.53-.99-.53c-1.43-.51-2.91-.88-4.39-1.22l-1.22-.59,.37-.6c1.04-.09,2.06,.19,3.08,.32h1.65s-.47-.59-.47-.59c-.75-.54-1.59-.95-2.38-1.42-1.08-.66-2.14-1.38-3.1-2.21-.86-.82-1.76-1.62-2.79-2.23l-1.24-.76-.11-.47,1.63-.29,1.48,.58c.98,.24,2,.21,3,.13-.71-.19-1.39-.52-2.01-.91-.84-.54-1.65-1.11-2.42-1.74l-.38-.47,1.38-.06,1.56,.09c-.77-.61-1.56-1.22-2.34-1.81-.99-.74-2.05-1.47-3.27-1.74-.71-.15-1.42-.29-2.11-.46l-1.23-.73-1.28-1.49c-.42-.61-.67-1.29-.97-1.94h-.09c-.39,.62-.71,1.29-1.2,1.83l-1.57,1.45c-.59,.43-1.16,.9-1.68,1.41l-1.02,1.17,1.53-.43,.78-.04-.46,.64c-.57,.51-1.21,.94-1.91,1.24l-1.45,.85-1,.91v.16l.69,.03,.95,.05,.28,1.04-1.24,.26-1.39,.98-.53,.99c-.48,.49-1.14,.73-1.75,1.04-.94,.48-1.85,1.04-2.7,1.68l-.65,.63,.05,.37,.81,.16c.69-.02,1.37-.2,2.03-.41l.69-.19,.53,.46,.43,1.32-.98,1.42c-.43,.53-.96,1.04-1.64,1.23l-1.4,.46c-.68,.38-1.23,.96-1.79,1.5l-1.18,1.12-1,.64,.03,.18,1.56,.65c.99-.2,1.79-.87,2.61-1.42l.72-.17,.83,1.21-.21,.95-1.29,.83c-1.3,.64-2.48,1.47-3.55,2.43-.8,.7-1.48,1.58-2.41,2.12l-1.53,.08,1.04,.9,1.63-.07c1.42-.38,2.8-.9,4.11-1.58,.58-.28,1.05-.74,1.65-.97h1.75s.56,.69,.56,.69l-.67,.87c-.9,.66-1.93,1.09-2.96,1.49-1.54,.57-3.16,.92-4.68,1.56v.18l.53,.64c.71,.27,1.48,.25,2.22,.19,1.17-.08,2.3-.47,3.37-.91,1.42-.54,2.78-1.2,4.16-1.79l1.53-.26c.63,.26,1.23,.62,1.64,1.16l.36,.81c.09,.66-.07,1.32-.33,1.93-.5,1.16-1.27,2.17-2.08,3.14-.74,.91-1.74,1.61-2.87,1.95l-1.37,.48-1.09,.93-.53,.95h.54s.7-.75,.7-.75c.54-.44,1.22-.71,1.92-.83l1.62-.18c1.2-.29,2.31-.95,3.21-1.8,.59-.51,1.32-.97,2.14-.91l1.29,.43,1.51-.3,.47,.16,.28,.89,.78,.72c.67,.41,1.26,.94,1.83,1.47l.76,.38c.05-.71-.68-1.16-.66-1.87,.76-.07,1.52,0,2.29,.1l1.73,.49c.78,.58,1.24,1.51,2.09,1.98l1.01-.13v-.2c-.8-.94-1.77-1.7-2.69-2.49-.76-.67-1.55-1.37-2.06-2.26-.6-1.05-.65-2.3-.65-3.48,.01-.77-.05-1.56,.14-2.31l.62-.92,.87-.29c.82,.16,1.51,.66,2.26,.98,.55,.25,1.15,.35,1.75,.36,1.54,.05,3.07-.05,4.6,0,.6,.02,1.18,.2,1.69,.49,.99,.55,1.95,1.14,2.88,1.79l1.46,.7,.89-.4-.14-.78-1.36-1.29Zm-29.12-9.27c-.58,.24-1.19,.45-1.82,.53l-.65-.1-.44-.75-.33-.98c.7-.2,1.42-.26,2.14-.31,.62-.01,1.25-.06,1.86,.09l.54,.26,.09,.34-1.39,.93Zm.26-6.59l-.77-.46-.67-1.17,.27-.45,.97-.13,.71,.53,.74,1.24-1.25,.44Zm9.89-7.84l.97-.24,.42,.75-.47,.2-1.03-.19,.11-.52Zm-.59,4.46l-.28,.61-.83,.24-1.22-.41c.56-.23,1.1-.54,1.7-.65l.63,.2Zm-5.94-5.48l.77,.23-.58,.75-.63,.41-.03-1.09,.48-.31Zm-.41,4.12l.89-1.04,1.17-.71,.47,.07-.57,1.42-1.31,.74-.71,.04,.07-.52Zm0,17l-.45-.25-.61-1.61-.08-.76,1.17,.27,.35,1.63-.38,.73Zm.27-14l-.88,.86-.34,.05-.52-1.34,.16-.35,1.14-.19,.81,.25-.38,.72Zm.4,4.52l.64-.11,.86,1.07-1.09-.34-.41-.62Zm2.25,9.22l-.7-.5-.38-1.02,1.17,.6-.09,.92Zm.63-18.14l-.16-.1,.24-.8,1.13-.68,.96-.2,.24,.82-.6,.59c-.59,.19-1.2,.33-1.81,.37Zm.41,9.47l-.19-1.11,.75-.18-.23,1.29h-.33Zm1.03,8.94l-.27-.88-.03-.05-.26-1.32c.62,0,1.28,.09,1.83,.42-.36,.66-.83,1.24-1.28,1.84Zm2.15-7.39h-.7s-.82-.79-.82-.79l.59-1.42,1,1.49-.08,.72Zm1.47,.07l-.1,.26-.45-.18-.14-1.2,.68,.76v.36Zm-.44-7.23l-1.06,.09,.1-.47,.73-.92h.57s.11,.81,.11,.81l-.45,.49Zm5.82,2.89c.52-.21,1.26,.15,1.24,.75l-.76,.85-1.04-.46-.11-.38,.68-.75Zm-4.78-7.63l.36-.74,1.15-.09v.28s-.2,.74-.2,.74l-1.15,.24-.16-.44Zm2.18,6.02l-1.43-.4-.35-.38,1.21-1.1,1.38,.32,.26,.7-.31,.76-.76,.1Zm2.91,10.48c-.71,.23-1.56,.05-2.06-.53l.07-.35c.52-.43,1.09-.81,1.76-.94l1.34,.2,.07,.71-1.19,.91Zm3.98,1.24l-1.44-.25-.47-.5,.59-.73,1.22-.77h.37s1.01,.77,1.01,.77c-.28,.6-.77,1.07-1.27,1.48Z"/>
</svg>