<?xml version="1.0" encoding="UTF-8"?>
<svg id="Layer_1" data-name="Layer 1" xmlns="http://www.w3.org/2000/svg" viewBox="0 0 80 80">
  <defs>
    <style>
      .cls-1 {
        fill: #fff;
      }

      .cls-2 {
        fill: #d71e40;
      }

      .cls-3 {
        fill: #0e2748;
      }
    </style>
  </defs>
  <rect class="cls-2" y="43.97" width="80" height="7.95"/>
  <rect class="cls-1" y="51.93" width="80" height="7.95"/>
  <polygon class="cls-1" points="80 36.03 34.16 36.03 0 36.03 0 43.97 80 43.97 80 36.03"/>
  <path class="cls-2" d="M80,60v-.12H0v.12c0,2.78,.57,5.42,1.59,7.83H78.41c1.02-2.4,1.59-5.05,1.59-7.83Z"/>
  <path class="cls-1" d="M78.41,67.83H1.59c1.34,3.15,3.48,5.88,6.15,7.95H72.26c2.67-2.08,4.81-4.8,6.15-7.95Z"/>
  <path class="cls-2" d="M60,80c4.62,0,8.87-1.58,12.26-4.22H7.74c3.39,2.64,7.63,4.22,12.26,4.22H60Z"/>
  <path class="cls-1" d="M34.16,12.17h44.25c-1.34-3.15-3.48-5.88-6.15-7.95H34.16v7.95Z"/>
  <path class="cls-2" d="M34.16,20.13h45.84v-.13c0-2.78-.57-5.42-1.59-7.83H34.16v7.95Z"/>
  <rect class="cls-2" x="34.16" y="28.07" width="45.84" height="7.95"/>
  <rect class="cls-1" x="34.16" y="20.13" width="45.84" height="7.94"/>
  <path class="cls-2" d="M72.26,4.22c-3.39-2.64-7.63-4.22-12.26-4.22h-25.84V4.22h38.1Z"/>
  <path class="cls-3" d="M34.16,28.07V0h-14.16C8.95,0,0,8.95,0,20v16.03H34.16v-7.95ZM5.19,14.11h6.94l2.14-6.61,2.15,6.61h6.94l-5.62,4.08,2.15,6.6-5.62-4.08-5.62,4.08,2.15-6.6-5.62-4.08Z"/>
  <polygon class="cls-1" points="8.66 24.79 14.28 20.71 19.9 24.79 17.75 18.19 23.37 14.11 16.43 14.11 14.28 7.51 12.14 14.11 5.19 14.11 10.81 18.19 8.66 24.79"/>
</svg>