<?xml version="1.0" encoding="UTF-8"?>
<svg id="Layer_1" data-name="Layer 1" xmlns="http://www.w3.org/2000/svg" viewBox="0 0 80 80">
  <defs>
    <style>
      .cls-1 {
        fill: #fff;
      }

      .cls-2 {
        fill: #239e46;
      }

      .cls-3 {
        fill: #e70013;
      }
    </style>
  </defs>
  <path class="cls-2" d="M20,80H60c10.37,0,18.9-7.89,19.9-18H.1c1,10.11,9.53,18,19.9,18Z"/>
  <path d="M0,20V60c0,.68,.04,1.34,.1,2H79.9c.07-.66,.1-1.32,.1-2V20c0-.68-.04-1.34-.1-2H.1c-.07,.66-.1,1.32-.1,2Zm51,12.22l3.49,4.81,5.65-1.84-3.49,4.81,3.49,4.81-5.65-1.84-3.49,4.81v-5.94l-5.65-1.84,5.65-1.84v-5.94Zm-11-3.22c3.04,0,5.79,1.23,7.79,3.23-1.57-1.12-3.49-1.79-5.56-1.79-5.28,0-9.56,4.28-9.56,9.56s4.28,9.56,9.56,9.56c2.08,0,3.99-.66,5.56-1.79-1.99,1.99-4.74,3.23-7.79,3.23-6.08,0-11-4.92-11-11s4.92-11,11-11Z"/>
  <path class="cls-3" d="M60,0H20C9.63,0,1.1,7.89,.1,18H79.9C78.9,7.89,70.37,0,60,0Z"/>
  <path class="cls-1" d="M40,51c3.04,0,5.79-1.23,7.79-3.23-1.57,1.12-3.49,1.79-5.56,1.79-5.28,0-9.56-4.28-9.56-9.56s4.28-9.56,9.56-9.56c2.08,0,3.99,.66,5.56,1.79-1.99-1.99-4.74-3.23-7.79-3.23-6.08,0-11,4.92-11,11s4.92,11,11,11Z"/>
  <polygon class="cls-1" points="51 41.84 51 47.78 54.49 42.97 60.14 44.81 56.65 40 60.14 35.19 54.49 37.03 51 32.22 51 38.16 45.35 40 51 41.84"/>
</svg>