<?xml version="1.0" encoding="UTF-8"?>
<svg id="Layer_1" data-name="Layer 1" xmlns="http://www.w3.org/2000/svg" viewBox="0 0 80 80">
  <defs>
    <style>
      .cls-1 {
        fill: #ffd73d;
      }

      .cls-2 {
        fill: #263779;
      }

      .cls-3 {
        fill: #cd2028;
      }
    </style>
  </defs>
  <path class="cls-2" d="M80,20c0-11.05-8.95-20-20-20H20C8.95,0,0,8.95,0,20v20H80V20Zm-50.74,1.88l-.91,1c-.48,.78-.83,1.64-1.18,2.48l-.76,1.73-.63,1.1-.57,.37-1.64,.34c-1.38,.17-2.78,.21-4.16,.23l-3.54,.09-3.45-.09c-1.06,0-2.12-.05-3.18-.13l-1.58-.18-1.21-.32-.42-.31-.66-1.17c-.44-.95-.81-1.94-1.24-2.9l-.74-1.4-.83-.85h0s.19-.16,.19-.16l1.04-.56-.42-.72,.28-.59-.45-.46,.03-.7,.39-.32-.42-.63,.15-.63,.6-.32-.32-.76,.22-.47,.65-.21-.02-.56,.36-.51,.84-.12,.17-.47,.52-.4,.77,.2,.7-.49,.75,.28,.28-.26,1.15,.31,.29-.23h.66s.48,.44,.48,.44l.67-.19,.79,.48,.39-.2,.91,.42,.47-.15-.1-1.51,.85-.74-.19-.41v-.22s.35-.63,.35-.63l-.28-.26-.68,.29-.27-.04-.81-.56-.07-.11,.91-.56,.35-.05,.72,.34,.25-.25-.4-.87-.06-.27,.15-.25,.51-.75,.6,.88v.33s-.41,.93-.41,.93l.24,.24,.72-.34,.34,.04,.92,.56-.06,.11-.81,.57-.27,.04-.67-.3-.28,.27,.36,.61v.24s-.19,.41-.19,.41l.77,.57,.14,1.21-.16,.47,.31,.05,.17,.09,.46-.33,.6-.04,.23,.16,.82-.48,.64,.19,.46-.44h.68l.3,.23,1.13-.32,.3,.28,.76-.28,.7,.49,.79-.2,.52,.43,.14,.43,.84,.12,.38,.57-.03,.51,.67,.24,.19,.46-.32,.74,.6,.3,.16,.66-.42,.62,.47,.47-.05,.57-.43,.43,.27,.6-.42,.72,.75,.37,.48,.33h0Z"/>
  <path class="cls-3" d="M20,80H60c11.05,0,20-8.95,20-20v-20H0v20c0,11.05,8.95,20,20,20Z"/>
  <path d="M28.04,21.16l.42-.72-.27-.6,.43-.43,.05-.57-.47-.47,.42-.62-.16-.66-.6-.3,.32-.74-.19-.46-.67-.24,.03-.51-.38-.57-.84-.12-.14-.43-.52-.43-.79,.2-.7-.49-.76,.28-.3-.28-1.13,.32-.3-.23h-.68l-.46,.44-.64-.19-.82,.48-.23-.16-.6,.04-.46,.33-.17-.09-.31-.05,.16-.47-.14-1.21-.77-.57,.2-.41v-.24s-.36-.61-.36-.61l.28-.27,.67,.3,.27-.04,.81-.57,.06-.11-.92-.56-.34-.04-.72,.34-.24-.24,.42-.93v-.33s-.62-.88-.62-.88l-.51,.75-.15,.25,.06,.27,.4,.87-.25,.25-.72-.34-.35,.05-.91,.56,.07,.11,.81,.56,.27,.04,.68-.29,.28,.26-.36,.63v.22s.2,.41,.2,.41l-.85,.74,.1,1.51-.47,.15-.91-.42-.39,.2-.79-.48-.67,.19-.48-.45h-.66s-.29,.24-.29,.24l-1.15-.31-.28,.26-.75-.28-.7,.49-.77-.2-.52,.4-.17,.47-.84,.12-.36,.51,.02,.56-.65,.21-.22,.47,.32,.76-.6,.32-.15,.63,.42,.63-.39,.32-.03,.7,.45,.46-.28,.59,.42,.72-1.04,.56-.19,.15h0s.83,.85,.83,.85l.74,1.4c.43,.96,.8,1.94,1.24,2.9l.66,1.17,.42,.31,1.21,.32,1.58,.18c1.06,.08,2.11,.12,3.18,.13l3.45,.09,3.54-.09c1.39-.01,2.78-.06,4.16-.23l1.64-.34,.57-.37,.63-1.1,.76-1.73c.35-.85,.69-1.7,1.18-2.48l.91-1h0s-.48-.35-.48-.35l-.75-.37Zm-10.93-11.85l.28,.02,.47,.26,.15,.17-.5,.35-.26,.06-.64-.26-.05-.38,.55-.23Zm-1.86,.6l-.63,.26-.32-.1-.42-.29v-.1l.44-.25,.43-.11,.55,.23-.04,.38Zm12.55,11.05l-.51-.11-.09-.7,.36-.22,.51,.2,.09,.46-.35,.37Zm.62-1.82l-.12,.34-.74,.06-.13-.66,.32-.25h.33s.34,.52,.34,.52Zm-.19-1.93l.03,.77-.73,.04-.11-.67,.37-.26,.45,.12Zm-.81-1.59l.48,.26-.17,.71-.66-.05v-.77s.35-.14,.35-.14Zm-1.17-1.1l.31-.12,.41,.14,.06,.71-.81,.05,.04-.77Zm-1.07-.97l.43,.04,.26,.55-.32,.44-.54-.05-.19-.66,.36-.32Zm-1.36-.29l.55,.14v.77l-.59,.12-.36-.45,.39-.59Zm-1.35-.09l.5,.13v.81l-.73,.04-.17-.64,.4-.34Zm-1.42,.19l.48,.1v.85s-.71,0-.71,0l-.09-.75,.33-.21Zm-1.66,.36l.23-.12,.53,.14v.79s-.76,.02-.76,.02v-.83Zm-1.18,.2l.58,.09v.84s-.85-.13-.85-.13l.27-.8Zm2.29,.85c1.05-.19,2.13-.33,3.2-.24l1.17,.22,1.1,.63c.46,.5,.83,1.09,1.01,1.74,.19,.68,.18,1.39,.08,2.08l-.39,1.66-1.18,.36c.27-.57,.52-1.14,.69-1.74,.19-.65,.31-1.32,.19-2l-.56-1.15c-.42-.47-.99-.82-1.6-.98-.89-.24-1.84-.21-2.77-.1-1.3,.16-2.57,.49-3.84,.85l-.1-.54c.99-.31,1.99-.58,3-.77Zm4.97,5.66l-.42,.43c0-1.59,0-3.18,0-4.77l.42,.37,.03,.16v3.62l-.03,.19Zm.23-3.05v-.67s.34,1.07,.34,1.07c.05,.71-.01,1.42-.25,2.09l-.07,.17c-.02-.89-.01-1.78-.01-2.67Zm-.85,3.6l-.53-.02v-5.24l.53,.24c0,1.68,0,3.35,0,5.02Zm-.72-5.33c0,1.74,0,3.48,0,5.21l-.49-.37c0-1.66,0-3.31,0-4.97l.49,.13Zm-.68,4.67l-.44-.26v-4.64l.43,.05c.01,.65,0,1.31,0,1.95v1.29s0,1.61,0,1.61Zm-.64-4.9v4.56l-.37-.07v-4.5h.37Zm-.57,0v4.51l-.39,.06v-4.54l.39-.02Zm-.57,.04v4.58l-.5,.26c0-1.39,0-2.78,0-4.16v-.57l.5-.1Zm-.69,.14v4.82s-.44,.37-.44,.37v-5.07l.44-.12Zm-.64,.2c0,1.7,0,3.4,0,5.09l-.03,.1-.41,.29c0-1.25,0-2.51,0-3.76v-1.29s0-.27,0-.27l.45-.16Zm-.64,.24c0,1.77,0,3.53,0,5.29l-.47-.06c0-1.4,0-2.81,0-4.22v-.78s.47-.23,.47-.23Zm-.65,.37v4.7l-.51-.42v-1.75c0-.73,0-1.47,0-2.2l.51-.33Zm-3.29-.92l.42,.06,.07,.56-.69-.03,.2-.58Zm-.19-.51l.19-.45,.48,.18-.21,.49-.46-.22Zm.24,1.5l.59,.44-.33,.49h-.27s-.37-.47-.37-.47l.39-.46Zm.01,1.21l.33,.06,.24,.44-.38,.44-.36-.05-.24-.44,.4-.44Zm-.05,1.2l.41,.05,.26,.45-.24,.43-.42,.06-.39-.42,.38-.58Zm.44-4.6l-.42,.02-.76-.38-.24-.5,.84-.09,1.4,.09-.19,.43-.62,.43Zm-1.9,4.4c.19-1.08,.29-2.17,.33-3.26l.68,.07c-.11,1.01-.18,2.02-.31,3.02l-.25,1.37-.86,.38,.41-1.58Zm-.45,.74l-.38,1c-.01-1.18,0-2.37,0-3.55l.51,1.15-.13,1.39Zm4.02-.32l.06-1.54,.4-.68v.89s.01,1.21,.01,1.21v.73s-.01,.73-.01,.73l-.46-1.33Zm.03,1.17l-.86-.38-.26-1.48c-.08-.64-.14-1.28-.2-1.92l-.08-1,.66-.06c.03,.81,.1,1.61,.2,2.42,.11,.82,.25,1.65,.54,2.43Zm-.41-6.01l.05,.72-.71,.15-.21-.76,.33-.24,.55,.14Zm-.67-2.07l.12,.27h-.6l-.04-.62,.52,.35Zm-1.28-3.92l-.06-.26,.11-.17,.3-.49,.27,.43,.16,.27-.04,.16-.38,.82-.37-.76Zm-.01,1.57l.23-.42,.52,.35-.33,.43-.41-.36Zm.01,.99l.22-.43h.27s.27,.51,.27,.51l.07,.29-.2,.36h-.52l-.2-.36,.1-.37Zm-.33,1.13l.28-.12-.04,.62h-.6l.36-.5Zm.44,.69l.05-.9h.39l.05,.9,.81,.07,.15,.06v.41s-.27-.01-.27-.01l-.87-.05-.98,.04-.27,.02v-.45s.94-.09,.94-.09Zm-1.08,1.46l.53,.14,.03,.76-.66,.13-.31-.37,.4-.65Zm-1.26-.25l.51,.16-.06,.81-.67,.02-.09-.82,.31-.16Zm-1.38-.29l.55,.14-.03,.8-.72,.03-.02-.85,.22-.12Zm-1.44-.23l.55,.12v.82s-.7,.04-.7,.04l-.18-.67,.34-.3Zm-1.32-.2l.47,.14-.05,.84h-.67l-.14-.72,.4-.26Zm-1.47,.09l.49,.09,.06,.83-.61,.12-.31-.66,.37-.38Zm-1.36,.29l.52,.11v.84s-.61,.08-.61,.08l-.26-.72,.35-.3Zm-.59,1.94l.77-.58,1.62-.39c1.02-.08,2.05,.04,3.07,.22,1.05,.2,2.08,.48,3.12,.79l-.1,.55c-1.04-.29-2.1-.57-3.18-.75l-1.45-.17c-.64-.04-1.29,0-1.92,.16l-1.19,.57-.94,1.25-.02,1.77c.16,.8,.47,1.55,.82,2.29l-1.18-.36c-.18-.56-.33-1.14-.4-1.73-.12-.81-.08-1.65,.22-2.42l.76-1.21Zm7.56,3.33c-.02,.61,0,1.22-.01,1.83l-.03,.08-.48,.4v-4.7l.5,.33v.76s.02,1.31,.02,1.31Zm-1.18-2.78l.48,.23v5l-.48,.06v-.76c0-.76,.01-1.52,.01-2.29-.02-.75-.01-1.5-.01-2.25Zm-.19-.09c0,1.77,0,3.54,0,5.32l-.4-.27-.04-.19v-5.02l.45,.16Zm-.65-.24c0,1.69,0,3.38,0,5.08l-.44-.37c0-1.61,0-3.22,0-4.82l.44,.12Zm-.62,1.5c0,1.02,0,2.05,0,3.07l-.5-.26v-1.29c0-.84,0-1.68,0-2.53v-.77s.51,.1,.51,.1v1.67Zm-.68-1.79v4.54l-.4-.06c0-1.5,0-3.01,0-4.5l.4,.02Zm-.6-.03c0,1.5,.01,3,0,4.5l-.37,.07c0-1.52,0-3.04,0-4.56h.38Zm-.57,4.12v.53s-.44,.25-.44,.25c0-.87,0-1.74,0-2.6-.01-.75-.01-1.49,0-2.24l.43-.04c.01,1.38,0,2.74,0,4.11Zm-.64-4.02v4.97l-.48,.37v-5.2l.48-.14Zm-.67,.2v5.24l-.53,.02c0-1.66,0-3.32,0-4.99l.05-.07,.47-.2Zm-.72,.38v1.98c0,.93,0,1.85,0,2.78l-.42-.44-.02-.18v-3.67l.05-.12,.4-.35Zm-.66,1.88v1.75l-.02,.32-.33-1.51,.09-1.23,.26-.6v1.28Zm-1.12-3.53l.54,.05,.07,.81-.85-.1,.24-.75Zm-1.08,1.45l.44-.27,.43,.18-.1,.78h-.59s-.18-.69-.18-.69Zm-.44,1.99l.28-.76,.54,.1v.8l-.82-.14Zm.12,1.67l-.15-.65,.33-.28,.5,.1v.81l-.68,.02Zm.16,.58l.34-.2,.51,.21-.09,.73-.65,.02-.11-.75Zm25.03,1.82l-.37,.38-.73,1.26c-.42,.96-.76,1.96-1.2,2.91l-.78,1.42-.17,.14-.3-.06-.04-.14,.04-.4-.07-.02-.21,.48-.29-.1v-.35s-.05-.07-.05-.07l-.17,.37-.31-.03,.02-.44-.22,.38-.28-.06-.04-.12v-.31s-.23,.38-.23,.38l-.29-.05-.11-.09v-.41s-.25,.42-.25,.42l-.46-.06v-.49s-.21,.45-.21,.45l-.38-.04-.08-.14-.03-.41-.06,.04-.1,.48-.33-.04-.12-.09-.05-.37-.14,.42-.37-.03-.06-.43-.09-.06-.1,.47-.37-.03h-.02s-.05-.41-.05-.41l-.07-.08-.1,.47-.45-.03-.05-.4-.12,.08-.05,.29-.38-.02-.06-.41-.08-.02-.06,.43h-.46s-.11-.49-.11-.49l-.1,.47h-.56l-.08-.44-.08-.04-.09,.45-.07,.05h-.39s-.06-.46-.06-.46h-.07l-.03,.46h-.63l-.02-.46h-.07s-.07,.46-.07,.46h-.39s-.07-.06-.07-.06l-.09-.45-.08,.04-.07,.36-.03,.09-.23,.02-.32-.02-.11-.47-.09,.48h-.48s-.05-.41-.05-.41h-.09s-.07,.42-.07,.42l-.38,.02-.11-.38h-.06s-.06,.41-.06,.41l-.43,.03-.11-.47-.07,.1-.04,.4-.39,.02-.1-.47-.11,.24-.04,.25-.37,.03-.07-.34-.07-.08-.04,.37-.12,.09-.33,.04-.1-.48-.06-.04-.03,.43-.06,.11-.4,.05-.21-.44v.48l-.44,.07-.08-.09-.19-.35v.41s-.1,.09-.1,.09l-.31,.05-.16-.32-.07-.05v.4s-.3,.08-.3,.08l-.22-.38v.44s-.28,.03-.28,.03l-.17-.37-.07,.14,.02,.29-.28,.08-.22-.48-.07,.02,.05,.53-.36,.07-.17-.15c-.54-.81-.94-1.7-1.29-2.61l-.64-1.59-1.01-1.61-.18-.27,1.11-.57c.86-.25,1.83-.07,2.52,.51l.84,1.2,.12,.31,.09,.03,.03-.34,.29-1.59,.73-.93,.98-.26,1.02,.44,1.24,1.15,.79,.89,.23,.24,.07-.38,.44-1.32,.94-.82,1.6-.29,1.59,.35,.87,.85,.38,1.25,.07,.36,.24-.24,.84-.95,1.14-1.07,1.03-.46,1.01,.25,.68,.85c.27,.56,.39,1.19,.31,1.81l.06,.2,.13-.16,.51-.99c.4-.5,.97-.85,1.59-.97l1.77,.21,.63,.38v.14Z"/>
  <polygon class="cls-1" points="16.31 8.22 16.35 8.06 16.18 7.8 15.91 7.37 15.61 7.86 15.5 8.03 15.56 8.29 15.93 9.04 16.31 8.22"/>
  <polygon class="cls-1" points="14.31 9.42 13.88 9.68 13.88 9.78 14.29 10.07 14.62 10.17 15.24 9.92 15.29 9.54 14.74 9.32 14.31 9.42"/>
  <polygon class="cls-1" points="17.24 10.17 17.49 10.11 17.99 9.77 17.85 9.6 17.38 9.34 17.1 9.32 16.55 9.54 16.6 9.92 17.24 10.17"/>
  <polygon class="cls-1" points="16.29 9.79 15.78 9.44 15.55 9.86 15.96 10.22 16.29 9.79"/>
  <polygon class="cls-1" points="16.18 11.58 16.39 11.22 16.32 10.93 16.05 10.41 15.78 10.42 15.56 10.85 15.46 11.22 15.67 11.58 16.18 11.58"/>
  <polygon class="cls-1" points="15 13.19 15.98 13.15 16.86 13.19 17.11 13.21 17.12 12.8 16.98 12.74 16.17 12.67 16.12 11.77 15.72 11.77 15.67 12.67 14.73 12.76 14.74 13.21 15 13.19"/>
  <polygon class="cls-1" points="15.51 11.86 15.23 11.98 14.88 12.48 15.48 12.48 15.51 11.86"/>
  <polygon class="cls-1" points="16.36 12.48 16.96 12.48 16.84 12.21 16.33 11.86 16.36 12.48"/>
  <polygon class="cls-1" points="9.59 14.14 9.64 13.3 9.18 13.16 8.78 13.42 8.92 14.14 9.59 14.14"/>
  <polygon class="cls-1" points="22.97 14.11 22.97 13.29 22.47 13.17 22.07 13.5 22.24 14.14 22.97 14.11"/>
  <polygon class="cls-1" points="8.27 14.17 8.21 13.34 7.71 13.26 7.34 13.64 7.66 14.3 8.27 14.17"/>
  <polygon class="cls-1" points="24.37 14.17 24.37 13.4 23.82 13.26 23.43 13.84 23.78 14.3 24.37 14.17"/>
  <polygon class="cls-1" points="11.04 14.3 11.05 13.48 10.5 13.36 10.17 13.66 10.35 14.33 11.04 14.3"/>
  <polygon class="cls-1" points="17.04 13.43 15.65 13.34 14.81 13.43 15.04 13.93 15.81 14.32 16.23 14.3 16.85 13.86 17.04 13.43"/>
  <polygon class="cls-1" points="21.54 14.3 21.53 13.45 21.05 13.35 20.72 13.56 20.81 14.31 21.54 14.3"/>
  <polygon class="cls-1" points="6.89 14.49 6.87 13.65 6.35 13.55 6.01 13.85 6.26 14.57 6.89 14.49"/>
  <polygon class="cls-1" points="25.55 14.58 25.87 14.14 25.61 13.59 25.18 13.55 24.82 13.87 25.01 14.53 25.55 14.58"/>
  <polygon class="cls-1" points="12.47 14.53 12.49 13.74 11.94 13.59 11.72 13.71 11.74 14.57 12.47 14.53"/>
  <polygon class="cls-1" points="20.15 13.73 19.62 13.59 19.39 13.71 19.38 14.54 20.15 14.52 20.15 13.73"/>
  <polygon class="cls-1" points="13.78 14.85 13.84 14.04 13.33 13.89 13.01 14.05 13.11 14.87 13.78 14.85"/>
  <polygon class="cls-1" points="18.79 14.01 18.21 13.91 17.94 14.71 18.78 14.84 18.79 14.01"/>
  <polygon class="cls-1" points="15.15 15.03 15.12 14.27 14.59 14.13 14.19 14.79 14.5 15.16 15.15 15.03"/>
  <polygon class="cls-1" points="16.63 14.38 16.85 15.14 17.56 14.99 17.51 14.27 16.96 14.13 16.63 14.38"/>
  <polygon class="cls-1" points="26.97 14.54 26.56 14.4 26.25 14.52 26.21 15.3 27.03 15.25 26.97 14.54"/>
  <polygon class="cls-1" points="5.56 14.49 5.02 14.44 4.78 15.19 5.63 15.3 5.56 14.49"/>
  <path class="cls-1" d="M4.77,19.11c.08,.59,.22,1.17,.4,1.73l1.18,.36c-.35-.74-.66-1.49-.82-2.29l.02-1.77,.94-1.25,1.19-.57c.63-.17,1.29-.2,1.92-.16l1.45,.17c1.07,.18,2.14,.45,3.18,.75l.1-.55c-1.03-.31-2.07-.59-3.12-.79-1.02-.18-2.05-.29-3.07-.22l-1.62,.39-.77,.58-.76,1.21c-.3,.76-.35,1.61-.22,2.42Z"/>
  <path class="cls-1" d="M17.6,16.07c1.27-.35,2.54-.69,3.84-.85,.93-.1,1.88-.14,2.77,.1,.61,.16,1.17,.51,1.6,.98l.56,1.15c.12,.67,0,1.35-.19,2-.17,.6-.42,1.17-.69,1.74l1.18-.36,.39-1.66c.11-.69,.12-1.4-.08-2.08-.18-.65-.55-1.24-1.01-1.74l-1.1-.63-1.17-.22c-1.07-.09-2.15,.05-3.2,.24-1.01,.19-2.01,.46-3,.77l.1,.54Z"/>
  <polygon class="cls-1" points="16.26 14.72 15.77 14.54 15.58 14.99 16.04 15.21 16.26 14.72"/>
  <path class="cls-1" d="M9.4,19.9c.01-1.5,0-3,0-4.5h-.38c0,1.53,0,3.05,0,4.57l.37-.07Z"/>
  <path class="cls-1" d="M9.6,19.91l.4,.06v-4.54l-.4-.02c0,1.5,0,3.01,0,4.5Z"/>
  <path class="cls-1" d="M22.24,19.92v-4.51l-.39,.02v4.54l.39-.06Z"/>
  <path class="cls-1" d="M23.44,15.46l-.43-.05v4.64l.44,.26v-1.61s0-1.29,0-1.29c0-.64,0-1.3,0-1.95Z"/>
  <path class="cls-1" d="M8.4,17.71c-.01,.86,0,1.73,0,2.6l.43-.25v-.53c0-1.37,.01-2.73,0-4.11l-.43,.04c-.01,.75-.01,1.5,0,2.24Z"/>
  <path class="cls-1" d="M15.03,18.53c.13-1,.19-2.01,.31-3.02l-.68-.07c-.04,1.1-.14,2.18-.33,3.26l-.41,1.58,.86-.38,.25-1.37Z"/>
  <path class="cls-1" d="M22.81,19.98v-4.56h-.37v4.49l.37,.07Z"/>
  <path class="cls-1" d="M17.19,15.44l-.66,.06,.08,1c.07,.64,.12,1.28,.2,1.92l.26,1.48,.86,.38c-.29-.78-.43-1.6-.54-2.43-.1-.8-.17-1.61-.2-2.42Z"/>
  <path class="cls-1" d="M10.17,16.22v3.81s.51,.26,.51,.26c0-1.03,0-2.05,0-3.07v-1.67s-.5-.1-.5-.1v.77Z"/>
  <path class="cls-1" d="M21.17,16.13c0,1.39,0,2.77,0,4.16l.5-.26v-4.58l-.5,.1v.57Z"/>
  <path class="cls-1" d="M8.2,20.47v-4.97l-.48,.14v5.2l.48-.37Z"/>
  <polygon class="cls-1" points="16.26 16.11 16.19 15.56 15.77 15.5 15.57 16.08 16.26 16.11"/>
  <path class="cls-1" d="M24.13,20.85c0-1.74,0-3.48,0-5.21l-.49-.13c0,1.66,0,3.31,0,4.97l.49,.37Z"/>
  <path class="cls-1" d="M10.87,20.42l.44,.37c0-1.7,0-3.39,0-5.08l-.44-.12c0,1.61,0,3.22,0,4.82Z"/>
  <path class="cls-1" d="M20.97,20.42v-.56c0-1.42,0-2.84,0-4.27l-.44,.12v5.07l.43-.37Z"/>
  <polygon class="cls-1" points="4.71 16.58 4.82 15.8 4.38 15.62 3.94 15.89 4.12 16.59 4.71 16.58"/>
  <polygon class="cls-1" points="27.73 16.59 27.9 15.88 27.42 15.62 27.06 15.76 27.07 16.54 27.73 16.59"/>
  <path class="cls-1" d="M6.99,20.97l.53-.02v-5.24l-.47,.2-.05,.07c-.01,1.67,0,3.33,0,4.99Z"/>
  <path class="cls-1" d="M24.32,20.94l.53,.02c0-1.67,0-3.35,0-5.02l-.53-.24v5.24Z"/>
  <path class="cls-1" d="M11.55,21l.4,.27c0-1.78,0-3.55,0-5.32l-.45-.16v5.02l.04,.19Z"/>
  <path class="cls-1" d="M19.89,17.51c0,1.25,0,2.51,0,3.76l.41-.29,.03-.1c0-1.7,0-3.39,0-5.09l-.45,.16v1.56Z"/>
  <path class="cls-1" d="M12.14,21.33l.48-.06v-5l-.48-.23c0,.75,0,1.5,.01,2.25,0,.76,0,1.52,0,2.29v.76Z"/>
  <path class="cls-1" d="M19.23,21.27l.47,.06c0-1.76,0-3.53,0-5.29l-.46,.23v.78c0,1.41-.02,2.82,0,4.22Z"/>
  <path class="cls-1" d="M6.35,16.56v3.67l.02,.18,.42,.44c0-.93,0-1.85,0-2.78v-1.98l-.4,.35-.05,.12Z"/>
  <path class="cls-1" d="M25.47,16.46l-.42-.37c0,1.59,0,3.18,0,4.77l.42-.43,.03-.19v-3.62l-.03-.16Z"/>
  <path class="cls-1" d="M12.79,16.42v4.7l.48-.4,.03-.08c0-.61,0-1.22,.01-1.83v-1.31s-.02-.76-.02-.76l-.5-.33Z"/>
  <path class="cls-1" d="M18.54,20.69l.51,.42v-4.7l-.51,.33c0,.73,0,1.47,0,2.2v1.75Z"/>
  <polygon class="cls-1" points="15.81 17.43 16.08 17.42 16.41 16.93 15.82 16.49 15.43 16.95 15.81 17.43"/>
  <polygon class="cls-1" points="5.8 18.53 6.13 20.04 6.15 19.72 6.15 17.97 6.14 16.69 5.88 17.3 5.8 18.53"/>
  <path class="cls-1" d="M26.04,17.77l-.33-1.07v.67c0,.89-.02,1.78,0,2.67l.07-.17c.24-.67,.3-1.39,.25-2.09Z"/>
  <path class="cls-1" d="M13.5,20.44l.38-1,.13-1.39-.51-1.15c0,1.18-.01,2.36,0,3.55Z"/>
  <polygon class="cls-1" points="18.36 19.72 18.37 18.99 18.37 17.78 18.35 16.89 17.95 17.57 17.89 19.11 18.35 20.45 18.36 19.72"/>
  <polygon class="cls-1" points="4.32 17.22 3.78 17.12 3.5 17.88 4.32 18.01 4.32 17.22"/>
  <polygon class="cls-1" points="27.42 17.35 27.53 18.02 28.26 17.99 28.23 17.21 27.78 17.09 27.42 17.35"/>
  <polygon class="cls-1" points="15.67 18.58 16.03 18.63 16.41 18.19 16.17 17.76 15.84 17.7 15.43 18.14 15.67 18.58"/>
  <polygon class="cls-1" points="4.3 18.72 3.8 18.62 3.48 18.9 3.62 19.55 4.3 19.53 4.3 18.72"/>
  <polygon class="cls-1" points="27.75 18.62 27.42 18.87 27.55 19.54 28.29 19.48 28.42 19.14 28.07 18.63 27.75 18.62"/>
  <polygon class="cls-1" points="15.79 19.89 16.21 19.83 16.45 19.4 16.19 18.95 15.78 18.9 15.4 19.48 15.79 19.89"/>
  <polygon class="cls-1" points="4.55 20.87 4.64 20.14 4.13 19.93 3.79 20.13 3.9 20.89 4.55 20.87"/>
  <polygon class="cls-1" points="27.55 19.93 27.2 20.16 27.28 20.85 27.79 20.96 28.15 20.59 28.06 20.13 27.55 19.93"/>
  <path class="cls-1" d="M26.44,21.21c-.62,.12-1.19,.47-1.59,.97l-.51,.99-.13,.16-.06-.2c.09-.62-.04-1.25-.31-1.81l-.68-.85-1.01-.25-1.03,.46-1.14,1.07-.84,.95-.24,.24-.07-.36-.38-1.25-.87-.85-1.59-.35-1.6,.29-.94,.82-.44,1.32-.07,.38-.23-.24-.79-.89-1.24-1.15-1.02-.44-.98,.26-.73,.93-.29,1.59-.03,.34-.09-.03-.12-.31-.84-1.2c-.69-.57-1.66-.76-2.52-.51l-1.11,.57,.18,.27,1.01,1.61,.64,1.59c.36,.91,.76,1.8,1.29,2.61l.17,.15,.36-.07-.05-.53,.07-.02,.22,.48,.28-.08-.02-.29,.07-.14,.17,.37,.3-.03v-.44s.21,.38,.21,.38l.3-.08v-.4s.08,.05,.08,.05l.16,.32,.31-.05,.09-.09v-.41s.19,.35,.19,.35l.08,.09,.44-.07v-.48l.21,.44,.4-.05,.06-.11,.03-.43,.06,.04,.1,.48,.33-.04,.12-.09,.04-.37,.07,.08,.07,.34,.37-.03,.04-.25,.11-.24,.1,.47,.39-.02,.04-.4,.07-.1,.11,.47,.43-.03,.06-.4h.06s.11,.38,.11,.38l.38-.02,.07-.41h.09s.05,.41,.05,.41h.48s.09-.49,.09-.49l.11,.47,.32,.02,.23-.02,.03-.09,.07-.36,.08-.04,.09,.45,.07,.05h.39s.07-.46,.07-.46h.07s.02,.46,.02,.46h.63l.03-.46h.07l.06,.46h.39s.07-.05,.07-.05l.09-.45,.08,.04,.08,.44h.56l.1-.47,.11,.48h.46s.06-.42,.06-.42l.08,.02,.06,.41,.38,.02,.05-.29,.12-.08,.05,.4,.45,.03,.1-.47,.07,.08,.05,.4h.02s.37,.05,.37,.05l.1-.47,.09,.06,.06,.43,.37,.03,.14-.42,.05,.37,.12,.09,.33,.04,.1-.48,.06-.04,.03,.41,.08,.14,.38,.04,.2-.45v.49s.47,.06,.47,.06l.24-.42v.41s.12,.09,.12,.09l.29,.05,.22-.38v.31s.04,.12,.04,.12l.28,.06,.22-.38-.02,.44,.31,.03,.17-.37,.06,.07v.35s.28,.1,.28,.1l.21-.48,.07,.02-.04,.4,.04,.14,.3,.06,.17-.14,.78-1.42c.45-.95,.78-1.94,1.2-2.91l.73-1.26,.37-.38v-.14s-.61-.38-.61-.38l-1.77-.21Zm-20.09,1.46l.17,.1,.05,.49-.09,.05-.15-.47,.02-.16Zm-.38-.25l.09,.24v.4s-.09,0-.09,0l-.2-.46v-.2s.2,.02,.2,.02Zm-.61-.11l.11,.31,.09,.35-.19-.09-.25-.49-.03-.17,.27,.08Zm-.91,.47l-.3-.18-.26-.19-.03-.15,.38,.13,.26,.29-.04,.09Zm.38-.09l-.34-.36-.02-.25,.16,.06,.25,.35,.04,.21h-.09Zm2.05,3.5l-.81-.89-1.02-.8-.08-.17,.78,.21,.09-.11-.09-.29-.35-.59-.04-.16,.23,.1,.67,.71,.2,.17,.17-.03,.19-.49,.08-.03,.05,.21-.16,.85,.23,1.29,.11,.36-.28-.32Zm3.71-4.7l.17,.16,.16,.66-.07,.04-.18-.29-.15-.36,.07-.21Zm-.52-.1l.11,.25,.1,.46-.14-.04-.22-.47v-.23s.14,.02,.14,.02Zm-.65-.04l.15,.1,.15,.34,.04,.31-.12-.06-.25-.47,.04-.22Zm-1.03,2.4l-.39-.42v-.17h.19l.29,.45,.05,.17-.14-.03Zm.2-.59l-.34-.39-.05-.28h.12s.35,.52,.35,.52l.04,.19-.12-.04Zm.25-.5l-.3-.46-.03-.23h.18s.21,.5,.21,.5l.04,.19h-.09Zm.19-.67l-.13-.27,.14-.16,.09,.13,.11,.47-.05,.05-.16-.23Zm1.83,1.73l-.08,1.26,.12,1.06-.02,.16-.12-.14-.48-1.14-1.01-1.11-.1-.14,.12-.03,.48,.24,.15-.23-.21-1.06v-.21l.13,.06,.48,.97,.19,.2,.14-.04,.25-.36h.09s-.13,.52-.13,.52Zm.52-1.13l-.06-.14-.13-.44,.03-.13,.19,.13,.09,.46-.12,.12Zm2.36,.48l-.1-.11-.11-.41,.03-.21,.15,.07,.1,.55-.06,.11Zm.32-.66l-.06-.03-.18-.54,.07-.19,.16,.09,.09,.51-.08,.16Zm3.23-1.39l.15,.14-.02,.19-.05,.45-.12-.07-.03-.48,.07-.23Zm-.65-.09l.09-.11,.16,.14-.04,.38-.04,.2h-.09l-.07-.18v-.44Zm-.37-.25l.03,.33-.11,.52-.11-.17v-.56s.2-.12,.2-.12Zm-.7,0l.19,.1v.56s-.12,.19-.12,.19l-.07-.11-.08-.59,.07-.15Zm-.54,.14h.11s.03,.2,.03,.2v.42s-.11,.11-.11,.11l-.08-.14-.05-.46,.09-.14Zm-.63,.25l.17-.02,.03,.2-.03,.52-.12,.03-.06-.52v-.21Zm3.02,1.72l-.98,1.34-.33,1.56-.18,.29-.2-.34-.28-1.43-.88-1.23-.24-.46h.18s.58,.37,.58,.37l.29-.07,.24-.5,.11-.38,.21-.2,.2,.2,.27,.82,.16,.13h.22s.54-.35,.54-.35l.19-.04-.09,.28Zm.44-.49l-.09,.11-.07-.16,.08-.52,.09-.11,.15,.18-.16,.48Zm.4,.39l-.09,.3-.13,.05v-.14s.07-.45,.07-.45l.07-.11,.14,.06-.06,.29Zm2.31-.42l-.12,.31-.11-.1,.08-.44,.17-.18,.07,.09-.09,.31Zm1.61-.63l.18-.29,.1,.2-.27,.5-.11,.06,.09-.46Zm-.53,.01l.12-.27,.14-.02-.08,.38-.17,.35h-.1s.09-.43,.09-.43Zm-.55-.07l.17-.1,.04,.26-.21,.47-.11,.12-.04-.09,.16-.66Zm1.48,2.21l-1.21,1.43-.3,.82-.12,.15,.02-.36,.1-1.38-.09-.75-.13-.54h.09s.25,.38,.25,.38l.13,.04,.18-.17,.51-1,.13-.06-.08,.51-.14,.79,.16,.2,.47-.24,.13,.02-.1,.15Zm.12-1.62h-.1s.12-.48,.12-.48l.12-.13,.08,.25-.21,.37Zm.31,.48h-.1l.04-.19,.19-.47,.13-.08,.09,.11-.07,.2-.28,.42Zm.12,.54l.14-.33,.26-.38,.11-.02v.19s-.14,.23-.14,.23l-.27,.3-.1,.02Zm.32,.56l-.13,.03,.14-.31,.19-.3h.17s.02,.17,.02,.17l-.39,.42Zm2.96-1.24l.17-.3h.17s0,.15,0,.15l-.27,.51-.18,.08,.11-.44Zm-.61,.14l.07-.23,.2-.02,.03,.15-.22,.5h-.09s0-.39,0-.39Zm-.47,.11l.14-.11,.06,.02v.15l-.14,.46h-.08s.02-.52,.02-.52Zm1.46,1.74l-1.06,.84-.78,.91-.26,.26,.12-.37,.23-1.19-.15-.96,.05-.19,.08,.03,.18,.49,.17,.04,.24-.2,.64-.69,.24-.1-.04,.15-.4,.75v.22s.14,.05,.14,.05l.61-.22,.12,.04-.1,.16Zm.14-1.79l.14-.38,.19-.25,.13-.02v.23s-.35,.36-.35,.36l-.11,.06Zm.98-.28l-.37,.26-.12,.06-.06-.08,.57-.45,.06,.02,.03,.06-.11,.12Z"/>
  <polygon points="15.65 21.56 15.77 21.37 15.77 20.81 15.58 20.71 15.51 20.86 15.59 21.45 15.65 21.56"/>
  <polygon points="16.19 21.57 16.31 21.04 16.28 20.71 16.07 20.83 16.08 21.39 16.19 21.57"/>
  <polygon points="15.08 21.59 15.19 21.47 15.19 21.05 15.16 20.86 15.04 20.85 14.95 20.99 15 21.45 15.08 21.59"/>
  <polygon points="16.81 21.58 16.85 21.37 16.89 20.99 16.73 20.84 16.65 20.96 16.65 21.39 16.72 21.58 16.81 21.58"/>
  <polygon points="14.59 21.79 14.62 21.27 14.58 21.07 14.42 21.1 14.41 21.3 14.47 21.82 14.59 21.79"/>
  <polygon points="17.38 21.82 17.43 21.37 17.45 21.18 17.3 21.04 17.22 21.27 17.25 21.76 17.38 21.82"/>
  <polygon points="9.76 22.12 9.72 21.81 9.57 21.47 9.42 21.36 9.38 21.59 9.64 22.06 9.76 22.12"/>
  <polygon points="10.15 22.07 10.29 22.11 10.19 21.66 10.07 21.4 9.92 21.38 9.93 21.61 10.15 22.07"/>
  <polygon points="21.83 21.76 21.92 21.38 21.77 21.4 21.65 21.68 21.56 22.11 21.66 22.11 21.83 21.76"/>
  <polygon points="22.47 21.57 22.37 21.37 22.18 21.66 22.09 22.12 22.2 22.06 22.47 21.57"/>
  <polygon points="10.85 22.36 10.92 22.32 10.76 21.66 10.59 21.5 10.52 21.71 10.68 22.07 10.85 22.36"/>
  <polygon points="21.09 22.24 21.31 21.77 21.26 21.51 21.1 21.61 20.94 22.27 20.98 22.36 21.09 22.24"/>
  <polygon points="9.25 22.18 9.14 21.71 9.04 21.58 8.9 21.73 9.04 22 9.2 22.23 9.25 22.18"/>
  <polygon points="22.83 21.58 22.71 21.71 22.59 22.18 22.7 22.19 22.91 21.82 22.83 21.58"/>
  <polygon points="13.9 21.67 13.82 21.86 14 22.4 14.07 22.43 14.14 22.27 14.06 21.76 13.9 21.67"/>
  <polygon points="17.78 21.76 17.7 22.28 17.77 22.44 17.87 22.32 18.03 21.84 17.87 21.65 17.78 21.76"/>
  <polygon points="16.79 22.91 16.57 22.92 16.41 22.79 16.14 21.97 15.94 21.78 15.73 21.97 15.61 22.35 15.38 22.85 15.08 22.92 14.5 22.56 14.32 22.55 14.56 23.01 15.45 24.24 15.73 25.67 15.93 26.01 16.11 25.72 16.45 24.15 17.43 22.81 17.52 22.53 17.33 22.58 16.79 22.91"/>
  <polygon points="11.23 21.9 11.19 22.03 11.32 22.46 11.38 22.61 11.5 22.49 11.41 22.03 11.23 21.9"/>
  <polygon points="20.42 22.07 20.34 22.51 20.46 22.61 20.58 22.29 20.66 21.98 20.6 21.89 20.42 22.07"/>
  <polygon points="8.69 21.99 8.51 21.98 8.54 22.21 8.84 22.67 8.94 22.67 8.9 22.48 8.69 21.99"/>
  <polygon points="23.35 22.05 23.27 21.94 23.14 22.02 22.95 22.49 22.9 22.67 23.01 22.67 23.28 22.25 23.35 22.05"/>
  <polygon points="4.63 22.14 4.47 22.08 4.49 22.33 4.83 22.69 4.92 22.7 4.88 22.49 4.63 22.14"/>
  <polygon points="27.38 22.08 27.25 22.1 27.06 22.35 26.92 22.72 27.03 22.67 27.37 22.31 27.38 22.08"/>
  <polygon points="5.37 22.89 5.56 22.97 5.47 22.62 5.36 22.31 5.09 22.23 5.12 22.4 5.37 22.89"/>
  <polygon points="26.74 22.37 26.74 22.21 26.57 22.23 26.4 22.53 26.29 22.96 26.47 22.89 26.74 22.37"/>
  <polygon points="27.92 22.24 27.35 22.69 27.41 22.77 27.54 22.71 27.9 22.44 28.02 22.32 27.98 22.26 27.92 22.24"/>
  <polygon points="3.85 22.25 3.89 22.4 4.15 22.59 4.45 22.77 4.49 22.68 4.23 22.39 3.85 22.25"/>
  <polygon points="13.56 22.35 13.53 22.56 13.64 22.97 13.75 23.09 13.81 22.97 13.71 22.42 13.56 22.35"/>
  <polygon points="18.12 22.47 18.04 22.92 18.05 23.06 18.18 23.01 18.27 22.72 18.33 22.42 18.18 22.36 18.12 22.47"/>
  <polygon points="5.97 23.06 6.07 23.06 6.06 22.66 5.97 22.42 5.77 22.4 5.77 22.6 5.97 23.06"/>
  <polygon points="10.66 23.57 10.52 23.61 10.33 23.4 9.84 22.44 9.71 22.37 9.71 22.59 9.92 23.65 9.77 23.88 9.29 23.64 9.18 23.67 9.28 23.82 10.29 24.93 10.78 26.07 10.89 26.21 10.91 26.06 10.79 24.99 10.87 23.73 10.99 23.19 10.9 23.21 10.66 23.57"/>
  <polygon points="22.08 23.88 21.92 23.68 22.06 22.89 22.13 22.37 22.01 22.44 21.5 23.44 21.32 23.61 21.19 23.57 20.94 23.21 20.85 23.19 20.98 23.73 21.07 24.48 20.97 25.86 20.95 26.21 21.07 26.07 21.37 25.25 22.58 23.82 22.68 23.67 22.55 23.65 22.08 23.88"/>
  <polygon points="26.09 22.56 26.06 22.41 25.86 22.44 25.79 22.67 25.78 23.06 25.87 23.06 26.09 22.56"/>
  <polygon points="8.33 22.52 8.21 22.5 8.26 22.78 8.6 23.17 8.71 23.21 8.68 23.02 8.33 22.52"/>
  <polygon points="23.65 22.66 23.64 22.47 23.52 22.5 23.27 22.88 23.13 23.21 23.23 23.19 23.5 22.89 23.65 22.66"/>
  <polygon points="6.57 23.26 6.52 22.77 6.35 22.67 6.33 22.83 6.48 23.3 6.57 23.26"/>
  <polygon points="25.51 22.84 25.51 22.7 25.45 22.67 25.32 22.78 25.29 23.3 25.37 23.3 25.51 22.84"/>
  <polygon points="8.19 23.18 8.02 23.18 8.01 23.34 8.4 23.76 8.54 23.79 8.49 23.63 8.19 23.18"/>
  <polygon points="23.65 23.18 23.45 23.48 23.32 23.8 23.44 23.77 23.84 23.35 23.82 23.17 23.65 23.18"/>
  <polygon points="6.81 24.87 6.98 24.02 6.92 23.81 6.85 23.84 6.66 24.33 6.49 24.37 6.28 24.2 5.61 23.48 5.38 23.38 5.42 23.55 5.77 24.14 5.86 24.43 5.76 24.55 4.98 24.33 5.06 24.51 6.07 25.31 6.88 26.2 7.16 26.52 7.05 26.16 6.81 24.87"/>
  <polygon points="26.16 24.55 26.01 24.5 26.02 24.28 26.42 23.53 26.46 23.38 26.23 23.48 25.59 24.17 25.35 24.37 25.18 24.33 25 23.84 24.92 23.81 24.87 24 25.03 24.96 24.8 26.15 24.68 26.52 24.94 26.26 25.71 25.36 26.78 24.52 26.88 24.36 26.76 24.33 26.16 24.55"/>
</svg>