<?xml version="1.0" encoding="UTF-8"?>
<svg id="Layer_1" data-name="Layer 1" xmlns="http://www.w3.org/2000/svg" viewBox="0 0 80 80">
  <defs>
    <style>
      .cls-1 {
        fill: #fff;
      }

      .cls-2 {
        fill: #f9d017;
      }

      .cls-3 {
        fill: #00795e;
      }
    </style>
  </defs>
  <path class="cls-3" d="M60,80c11.05,0,20-8.95,20-20V20c0-11.05-8.95-20-20-20H20C8.95,0,0,8.95,0,20V60c0,11.05,8.95,20,20,20H60Zm-19.68-15.17h-.64c-3.76-.04-7.32-.92-10.49-2.45h21.63c-3.18,1.52-6.73,2.4-10.49,2.45Zm11.69-3.06H28c-1-.55-1.96-1.16-2.86-1.83h29.73c-.9,.67-1.86,1.29-2.86,1.83Zm4.39-3.06H23.61l-1.31-1.22H57.7l-1.31,1.22Zm2.95-3.05H20.65l-.47-.61H59.82l-.48,.61Zm-.48-28.52l.24-2.29,1.18,2,2.28-.48-1.56,1.71,1.16,2-2.13-.94-1.56,1.71,.24-2.29-2.14-.94,2.28-.48Zm-7.98-10.64l2.01,1.15,1.74-1.54-.48,2.26,2.02,1.15-2.32,.24-.49,2.25-.95-2.1-2.33,.24,1.74-1.54-.95-2.1Zm-12.04-2.36l1.15-3.52,1.16,3.52h3.75l-3.03,2.18,1.16,3.52-3.04-2.18-3.03,2.18,1.16-3.52-3.03-2.18h3.76Zm-13.47,1.98l1.72,1.54,2.03-1.15-.95,2.1,1.72,1.54-2.31-.24-.95,2.1-.49-2.25-2.32-.24,2.02-1.15-.48-2.26Zm-5.65,10.74l1.17-2,.24,2.29,2.29,.48-2.14,.94,.24,2.29-1.56-1.71-2.13,.94,1.16-2-1.55-1.71,2.28,.48Zm-2.38,13.69c4.24-2.94,11.26-2.88,17.02,1.17-1.79-2.22-7.81-4.69-12.3-3.99-.65-.67-1.21-1.5-1.86-2.16,5.17-1.14,12.36,2.13,15,4.82-2.79-4.4-4.81-9.39-1.52-15.46,.65,.61,1.38,1.22,2.02,1.82-2.47,4.46-1.58,9.68,.42,13.31-3.46-7.04-.68-13.99,3.87-17.38,4.55,3.38,7.33,10.34,3.88,17.38,1.99-3.63,2.89-8.84,.42-13.31,.65-.61,1.38-1.22,2.02-1.82,3.28,6.07,1.26,11.05-1.52,15.46,2.64-2.68,9.83-5.95,14.99-4.82-.64,.67-1.21,1.49-1.85,2.16-4.49-.69-10.5,1.78-12.3,3.99,5.76-4.05,12.78-4.11,17.02-1.17-1.61,3.94-6.91,8.21-14.75,8.89,6.35,.28,9.74-1.6,12.81-3.74l1.94,1.16c-2.27,1.7-5.1,3.93-12.73,3.93-5.39,0-7.72-3.31-9.94-4.82-2.21,1.52-4.54,4.82-9.94,4.82-7.62,0-10.46-2.23-12.72-3.93l1.94-1.16c3.05,2.13,6.45,4.02,12.8,3.74-7.84-.69-13.14-4.96-14.74-8.89Zm.69,11.16l12.68,.02c4.21,0,6.12-1.66,9.29-4.29,3.18,2.63,5.1,4.29,9.3,4.29h12.68c-.32,.59-.67,1.18-1.04,1.76h-12c-5.77,.01-8.94-3.64-8.94-3.64,0,0-3.15,3.65-8.93,3.65l-12-.02c-.37-.57-.72-1.16-1.04-1.77Z"/>
  <polygon class="cls-2" points="36.96 19.84 40 17.66 43.03 19.84 41.88 16.31 44.91 14.13 41.16 14.13 40 10.62 38.84 14.13 35.08 14.13 38.12 16.31 36.96 19.84"/>
  <polygon class="cls-2" points="17.83 30.07 19.97 29.14 21.53 30.84 21.29 28.56 23.42 27.62 21.13 27.14 20.89 24.85 19.72 26.85 17.44 26.36 19 28.07 17.83 30.07"/>
  <polygon class="cls-2" points="26.15 19.76 26.64 22.01 27.59 19.9 29.9 20.15 28.18 18.6 29.12 16.5 27.09 17.65 25.37 16.11 25.85 18.37 23.83 19.51 26.15 19.76"/>
  <polygon class="cls-2" points="58.48 30.84 60.03 29.14 62.16 30.07 61 28.07 62.56 26.36 60.28 26.85 59.1 24.85 58.86 27.14 56.58 27.62 58.72 28.56 58.48 30.84"/>
  <polygon class="cls-2" points="52.42 19.9 53.37 22.01 53.86 19.76 56.17 19.51 54.15 18.37 54.63 16.11 52.9 17.65 50.88 16.5 51.83 18.6 50.09 20.15 52.42 19.9"/>
  <path class="cls-1" d="M19.28,45.7l-1.94,1.16c2.26,1.7,5.1,3.93,12.72,3.93,5.39,0,7.73-3.31,9.94-4.82,2.22,1.52,4.55,4.82,9.94,4.82,7.63,0,10.46-2.23,12.73-3.93l-1.94-1.16c-3.07,2.13-6.46,4.02-12.81,3.74,7.83-.69,13.14-4.96,14.75-8.89-4.24-2.94-11.26-2.88-17.02,1.17,1.8-2.22,7.81-4.69,12.3-3.99,.65-.67,1.21-1.5,1.85-2.16-5.16-1.14-12.35,2.13-14.99,4.82,2.78-4.4,4.8-9.39,1.52-15.46-.65,.61-1.38,1.22-2.02,1.82,2.47,4.46,1.57,9.68-.42,13.31,3.45-7.04,.67-13.99-3.88-17.38-4.54,3.38-7.32,10.34-3.87,17.38-2-3.63-2.89-8.84-.42-13.31-.65-.61-1.38-1.22-2.02-1.82-3.29,6.07-1.27,11.05,1.52,15.46-2.64-2.68-9.83-5.95-15-4.82,.65,.67,1.21,1.49,1.86,2.16,4.49-.69,10.5,1.78,12.3,3.99-5.76-4.05-12.78-4.11-17.02-1.17,1.6,3.94,6.91,8.21,14.74,8.89-6.35,.28-9.75-1.6-12.8-3.74Z"/>
  <path class="cls-1" d="M40,49.84s3.17,3.65,8.94,3.65h12c.37-.59,.71-1.18,1.04-1.79h-12.68c-4.2,.01-6.12-1.65-9.3-4.28-3.17,2.63-5.08,4.29-9.29,4.29l-12.68-.02c.32,.6,.67,1.2,1.04,1.77l12,.02c5.77,0,8.93-3.65,8.93-3.65Z"/>
  <polygon class="cls-1" points="20.65 55.67 59.34 55.67 59.82 55.05 20.18 55.05 20.65 55.67"/>
  <polygon class="cls-1" points="23.61 58.72 56.39 58.72 57.7 57.49 22.3 57.49 23.61 58.72"/>
  <path class="cls-1" d="M28,61.78h24c1-.55,1.96-1.16,2.86-1.83H25.14c.91,.67,1.87,1.29,2.86,1.83Z"/>
  <path class="cls-1" d="M39.68,64.83h.64c3.76-.04,7.32-.92,10.49-2.45H29.19c3.18,1.52,6.74,2.4,10.49,2.45Z"/>
</svg>