<?xml version="1.0" encoding="UTF-8"?>
<svg id="Layer_1" data-name="Layer 1" xmlns="http://www.w3.org/2000/svg" viewBox="0 0 80 80">
  <defs>
    <style>
      .cls-1 {
        fill: #f8d512;
      }

      .cls-2 {
        fill: #cd2029;
      }

      .cls-3 {
        fill: #d02228;
      }
    </style>
  </defs>
  <path class="cls-2" d="M52.99,38.27l27.01-3.6v-14.67c0-2.11-.33-4.13-.93-6.04l-28.15,18.77c1.09,1.63,1.81,3.51,2.08,5.54Z"/>
  <path class="cls-2" d="M50.92,47.27l28.15,18.77c.6-1.91,.93-3.93,.93-6.04v-14.67l-27.01-3.6c-.27,2.03-.99,3.92-2.08,5.54Z"/>
  <path class="cls-2" d="M41.95,52.96l4.06,27.04h14c5.95,0,11.27-2.61,14.94-6.73l-25.44-24.23c-1.97,2.06-4.59,3.48-7.55,3.92Z"/>
  <path class="cls-2" d="M38.06,27.04L34,0h-14C14.05,0,8.73,2.61,5.06,6.73L30.51,30.96c1.97-2.06,4.59-3.48,7.55-3.92Z"/>
  <path class="cls-2" d="M29.09,32.72L.94,13.95c-.6,1.91-.94,3.94-.94,6.05v14.67l27.01,3.6c.27-2.03,.99-3.92,2.08-5.54Z"/>
  <path class="cls-2" d="M27.01,41.73L0,45.33v14.67c0,2.11,.33,4.14,.94,6.05l28.15-18.77c-1.09-1.63-1.81-3.51-2.08-5.54Z"/>
  <path class="cls-2" d="M49.49,30.96L74.94,6.73c-3.66-4.12-8.99-6.73-14.94-6.73h-14l-4.06,27.04c2.95,.44,5.58,1.85,7.55,3.92Z"/>
  <path class="cls-2" d="M30.51,49.04L5.06,73.27c3.66,4.12,8.99,6.73,14.94,6.73h14l4.06-27.04c-2.95-.44-5.58-1.86-7.55-3.92Z"/>
  <path class="cls-1" d="M30.51,30.96L5.06,6.73c-1.84,2.07-3.27,4.52-4.13,7.22l28.16,18.77c.42-.63,.9-1.21,1.42-1.76Z"/>
  <path class="cls-1" d="M49.49,49.04l25.44,24.23c1.84-2.07,3.27-4.52,4.13-7.23l-28.15-18.77c-.42,.63-.9,1.22-1.42,1.77Z"/>
  <path class="cls-1" d="M40,53.12c-.66,0-1.31-.07-1.95-.16l-4.06,27.04h12l-4.06-27.04c-.64,.09-1.28,.16-1.94,.16Z"/>
  <path class="cls-1" d="M40,26.88c.66,0,1.31,.06,1.94,.16L46,0h-12l4.06,27.04c.64-.09,1.28-.16,1.95-.16Z"/>
  <path class="cls-1" d="M49.49,30.96c.52,.55,1,1.13,1.42,1.77l28.15-18.77c-.86-2.71-2.29-5.16-4.13-7.23l-25.44,24.23Z"/>
  <path class="cls-1" d="M29.09,47.28L.94,66.05c.86,2.71,2.29,5.15,4.13,7.22l25.44-24.23c-.52-.55-1-1.13-1.42-1.76Z"/>
  <path class="cls-1" d="M26.88,40c0-.59,.05-1.16,.13-1.73L0,34.67v10.67l27.01-3.6c-.08-.57-.13-1.14-.13-1.73Z"/>
  <path class="cls-1" d="M53.12,40c0,.59-.05,1.16-.13,1.73l27.01,3.6v-10.67l-27.01,3.6c.08,.57,.13,1.14,.13,1.73Z"/>
  <path class="cls-3" d="M41.95,27.04c-.64-.09-1.28-.16-1.94-.16s-1.31,.07-1.95,.16c-2.95,.44-5.58,1.86-7.55,3.92-.52,.55-1,1.13-1.42,1.76-1.09,1.63-1.81,3.51-2.08,5.54-.08,.57-.13,1.14-.13,1.73s.05,1.16,.13,1.73c.27,2.03,.99,3.92,2.08,5.54,.42,.63,.9,1.21,1.42,1.76,1.97,2.06,4.59,3.48,7.55,3.92,.64,.09,1.28,.16,1.95,.16s1.31-.06,1.94-.16c2.95-.44,5.58-1.86,7.55-3.92,.52-.55,1-1.13,1.42-1.77,1.09-1.63,1.81-3.51,2.08-5.54,.08-.57,.13-1.14,.13-1.73s-.05-1.16-.13-1.73c-.27-2.03-.99-3.92-2.08-5.54-.42-.63-.9-1.22-1.42-1.77-1.97-2.06-4.59-3.48-7.55-3.92Zm8.99,12.96c0,6.04-4.9,10.93-10.93,10.93s-10.94-4.9-10.94-10.93,4.89-10.93,10.94-10.93,10.93,4.89,10.93,10.93Z"/>
  <path class="cls-1" d="M40,29.07c-6.05,0-10.94,4.89-10.94,10.93s4.89,10.93,10.94,10.93,10.93-4.9,10.93-10.93-4.9-10.93-10.93-10.93Z"/>
</svg>