<?xml version="1.0" encoding="UTF-8"?>
<svg id="Layer_1" data-name="Layer 1" xmlns="http://www.w3.org/2000/svg" viewBox="0 0 80 80">
  <defs>
    <style>
      .cls-1 {
        fill: #fff;
      }

      .cls-2 {
        fill: #23439b;
      }

      .cls-3 {
        fill: #db2627;
      }

      .cls-4 {
        fill: #ffd109;
      }
    </style>
  </defs>
  <path class="cls-1" d="M80,60v-3.19H0v3.19c0,1.21,.13,2.39,.33,3.54H79.67c.21-1.15,.33-2.33,.33-3.54Z"/>
  <polygon class="cls-3" points="80 50.09 40 50.09 40 50.12 0 50.12 0 56.81 80 56.81 80 50.09"/>
  <path class="cls-3" d="M60,80c3.86,0,7.45-1.11,10.5-3H9.5c3.06,1.89,6.65,3,10.5,3H60Z"/>
  <rect class="cls-1" x="40" y="43.36" width="40" height="6.73"/>
  <path class="cls-3" d="M79.67,63.54H.33c.43,2.42,1.31,4.69,2.53,6.73H77.14c1.22-2.04,2.1-4.3,2.53-6.73Z"/>
  <path class="cls-1" d="M77.14,70.27H2.86c1.64,2.74,3.92,5.04,6.63,6.72h61.01c2.71-1.68,4.99-3.99,6.63-6.72Z"/>
  <path class="cls-1" d="M40,23.18h40v-3.18c0-1.21-.13-2.4-.33-3.55H40v6.73Z"/>
  <rect class="cls-3" x="40" y="36.63" width="40" height="6.72"/>
  <path class="cls-1" d="M40,9.72h37.13c-1.65-2.74-3.93-5.05-6.65-6.73h-30.48v6.73Z"/>
  <path class="cls-3" d="M40,16.45h39.66c-.44-2.42-1.31-4.69-2.53-6.72H40v6.72Z"/>
  <path class="cls-3" d="M70.48,2.99c-3.05-1.88-6.63-2.99-10.48-2.99h-20V2.99h30.48Z"/>
  <rect class="cls-1" x="40" y="29.9" width="40" height="6.73"/>
  <rect class="cls-3" x="40" y="23.18" width="40" height="6.72"/>
  <path class="cls-2" d="M40,50.09V0H20C13.98,0,8.59,2.67,4.92,6.88c2.1,.61,4.04,1.61,5.73,2.92-2.03-1.02-4.33-1.62-6.76-1.62,0,0,0,0,0,0C1.46,11.5,0,15.57,0,20v17.69c1.24,.33,2.54,.53,3.89,.53,2.43,0,4.72-.59,6.75-1.62-2.88,2.25-6.5,3.59-10.43,3.59-.07,0-.14,0-.21-.01v9.94H40v-.03ZM16.09,28.51l-4.98,7.54,2.79-8.59-7.75,4.62,6.24-6.52-8.99,.81,8.45-3.17-8.45-3.17,8.99,.81-6.24-6.52,7.75,4.63-2.79-8.58,4.98,7.54,1.21-8.94,1.21,8.94,4.98-7.54-2.79,8.58,7.75-4.63-6.24,6.52,8.99-.81-8.45,3.17,8.45,3.17-8.99-.81,6.24,6.52-7.75-4.62,2.79,8.59-4.98-7.54-1.21,8.94-1.21-8.94Z"/>
  <path class="cls-4" d="M10.65,36.59c-2.03,1.03-4.32,1.62-6.75,1.62-1.35,0-2.65-.19-3.89-.53v2.49c.07,0,.14,.01,.21,.01,3.93,0,7.55-1.34,10.43-3.59Z"/>
  <path class="cls-4" d="M10.65,9.8c-1.69-1.31-3.63-2.31-5.73-2.92-.36,.42-.71,.85-1.04,1.3,0,0,0,0,0,0,2.43,0,4.73,.6,6.76,1.62Z"/>
  <polygon class="cls-4" points="17.3 37.45 18.51 28.51 23.49 36.04 20.7 27.46 28.45 32.08 22.21 25.56 31.19 26.37 22.75 23.2 31.19 20.03 22.21 20.83 28.45 14.31 20.7 18.94 23.49 10.35 18.51 17.89 17.3 8.95 16.09 17.89 11.11 10.35 13.91 18.94 6.15 14.31 12.4 20.83 3.41 20.03 11.85 23.2 3.41 26.37 12.4 25.56 6.15 32.08 13.91 27.46 11.11 36.04 16.09 28.51 17.3 37.45"/>
</svg>