<?xml version="1.0" encoding="UTF-8"?>
<svg id="Layer_1" data-name="Layer 1" xmlns="http://www.w3.org/2000/svg" viewBox="0 0 80 80">
  <defs>
    <style>
      .cls-1 {
        fill: #d31f36;
      }

      .cls-2 {
        fill: #fff;
      }

      .cls-3 {
        fill: #017f40;
      }
    </style>
  </defs>
  <path class="cls-1" d="M60,0H20C9.58,0,1.03,7.97,.09,18.14H79.91C78.97,7.97,70.42,0,60,0Z"/>
  <path class="cls-1" d="M20,80H60c10.41,0,18.96-7.96,19.91-18.13H.09c.94,10.17,9.49,18.13,19.91,18.13Z"/>
  <path class="cls-3" d="M0,20V60c0,.63,.04,1.25,.09,1.87H79.91c.06-.62,.09-1.24,.09-1.87V20c0-.63-.04-1.25-.09-1.86H.09c-.06,.61-.09,1.23-.09,1.86Zm46.2,5.37c.78,0,1.54,.07,2.29,.18-6.53,1.6-11.37,7.45-11.37,14.45s4.84,12.86,11.37,14.46c-.75,.11-1.51,.17-2.29,.17-8.12,0-14.7-6.55-14.7-14.63s6.58-14.63,14.7-14.63Z"/>
  <path class="cls-2" d="M46.2,54.63c.78,0,1.54-.06,2.29-.17-6.53-1.6-11.37-7.47-11.37-14.46s4.84-12.85,11.37-14.45c-.75-.11-1.51-.18-2.29-.18-8.12,0-14.7,6.55-14.7,14.63s6.58,14.63,14.7,14.63Z"/>
</svg>