<?xml version="1.0" encoding="UTF-8"?>
<svg id="Layer_1" data-name="Layer 1" xmlns="http://www.w3.org/2000/svg" viewBox="0 0 80 80">
  <defs>
    <style>
      .cls-1 {
        fill: #d0d0cf;
      }

      .cls-2 {
        fill: #fff;
      }

      .cls-3 {
        fill: #020202;
      }

      .cls-4 {
        fill: #ce202c;
      }

      .cls-5 {
        fill: #95867d;
      }

      .cls-6 {
        fill: #e51e30;
      }

      .cls-7 {
        fill: #cbcbca;
      }

      .cls-8 {
        fill: #94867e;
      }
    </style>
  </defs>
  <path class="cls-2" d="M20,80h30V0H20C13.85,0,8.36,2.78,4.69,7.14c.37,.39,.61,.9,.62,1.41,0,.01,0,.03,0,.04h6.64v6.6H5.32c0,1.1-1.1,2.2-2.21,2.2v6.6H0V60c0,11.05,8.95,20,20,20Z"/>
  <path class="cls-4" d="M60,80c11.05,0,20-8.95,20-20V20c0-11.05-8.95-20-20-20h-10V80h10Z"/>
  <path class="cls-6" d="M4.69,7.14s-.09,.09-.13,.14c.4,.42,.66,.87,.75,1.26-.01-.51-.25-1.01-.62-1.41Z"/>
  <path class="cls-6" d="M3.11,17.39c1.11,0,2.21-1.1,2.21-2.2h6.64v-6.6H5.32c.02,.07,.02,.14,.03,.21h6.39v6.17H5.32c-.02,.46-.32,1.07-.86,1.6-.53,.52-1.12,.82-1.58,.85v6.36H0v.22H3.11v-6.6Z"/>
  <path class="cls-4" d="M2.89,17.41c-.08,0-.15,0-.22-.01v6.16H0v.21H2.89v-6.36Z"/>
  <path class="cls-4" d="M5.33,9.02h6.19v5.73H5.3c.01,.07,.02,.14,.02,.21h6.41v-6.17H5.35c0,.08,0,.15-.02,.22Z"/>
  <path class="cls-5" d="M2.66,17.4c-.08-.02-.16-.05-.22-.09v6.03H0v.22H2.66v-6.16Z"/>
  <path class="cls-5" d="M11.51,14.75v-5.73H5.33c-.02,.08-.05,.16-.1,.22h6.06v5.29H5.2c.05,.06,.08,.14,.1,.22h6.21Z"/>
  <path class="cls-7" d="M2.44,17.31s-.06-.03-.08-.06c-.39-.37-.07-1.31,.7-2.09,.78-.76,1.71-1.07,2.1-.69,.02,.02,.03,.04,.04,.06h6.09v-5.29H5.23s-.02,.04-.04,.06c-.33,.34-1.09,.14-1.8-.43,0,.01-.02,.03-.02,.04,.43,.51,.75,1.11,.93,1.75,.2,.73,.21,1.51,.03,2.27l-.7,1.58-1.19,1.18c-.52,.35-1.12,.61-1.74,.72-.12,.02-.24,.03-.35,.05-.21,1.15-.33,2.33-.33,3.55v3.34H2.44v-6.03Z"/>
  <path class="cls-8" d="M2.43,15.69l1.19-1.18,.7-1.58c.17-.76,.16-1.53-.03-2.27-.18-.64-.5-1.24-.93-1.75-.01,.02-.03,.05-.04,.07,.4,.48,.71,1.03,.88,1.64,.22,.77,.24,1.6,.03,2.37-.16,.61-.44,1.18-.83,1.68l-1.22,1.09c-.52,.31-1.1,.53-1.7,.61h-.14s0,.06-.01,.08c.12-.01,.24-.02,.35-.05,.62-.11,1.22-.37,1.74-.72Z"/>
  <path class="cls-7" d="M2.17,15.76l1.22-1.09c.39-.49,.67-1.06,.83-1.68,.21-.77,.19-1.6-.03-2.37-.17-.61-.48-1.17-.88-1.64-.04,.06-.07,.12-.11,.18l-.16,.65,.41-.31-.02-.12h.03l.14,.2v.03l-.07-.06-.08,.02-.53,.39h-.03s.11-.47,.11-.47c-.09,.14-.18,.28-.26,.43,.02,.03,.04,.05,.05,.07l.48,1.15v1.43c-.14,.67-.48,1.29-.97,1.78-.47,.48-1.08,.81-1.73,.95h0c-.04,.19-.1,.37-.14,.56h0s0,.11,0,.11h-.03c-.03,.14-.04,.27-.06,.4h.14c.6-.09,1.18-.31,1.7-.62Zm1.94-2.82h-.01v-.1h-.07s-.33,.1-.33,.1l.19,.2,.08,.06,.08-.06h.02s-.06,.28-.06,.28h-.02l-.06-.18-.28-.29-.25-.05-.07,.09h-.02s.09-.33,.09-.33h0v.09l.08,.04,.17,.05h.07s.39-.15,.39-.15l.1-.08-.09,.33Zm.08-1.65h.02l.02,.4-.07,.18-.24,.02-.09-.15-.21,.17-.1,.09-.03,.12h-.03s0-.22,0-.22l.35-.28v-.08s-.17,0-.17,0h-.14s-.03,.11-.03,.11h-.02s-.02-.34-.02-.34h.03s.04,.11,.04,.11h.16l.35-.02,.16-.02,.03-.1Zm-1-.78l.04,.05,.06,.03,.15-.04,.48-.18-.11-.19h-.1s.17-.07,.17-.07l.21,.57v.04l-.17,.06,.04-.05,.05-.11-.05-.14-.58,.2-.07,.05v.09s0,0,0,0l-.11-.32Zm-1.68,4.84l.17,.03,.1,.19-.14,.2-.22-.03-.07-.24,.16-.15Z"/>
  <path class="cls-8" d="M2.31,14.36c.48-.48,.82-1.1,.97-1.78v-1.43l-.48-1.15s-.04-.05-.05-.07c-.02,.03-.04,.06-.06,.1l.42,.78c.25,.77,.22,1.63-.09,2.38-.25,.62-.69,1.16-1.24,1.54l-1.05,.49s-.09,.01-.13,.02c0,.03-.01,.05-.02,.08h0c.65-.14,1.26-.47,1.73-.95Z"/>
  <path class="cls-7" d="M1.78,14.72c.55-.37,.99-.92,1.24-1.54,.31-.75,.34-1.61,.09-2.38l-.42-.78c-.14,.25-.29,.5-.42,.76l.23,.09,.03,.02,.38,.3v.02s-.23,.07-.23,.07l-.13-.1-.25-.12-.16-.03c-.09,.18-.18,.37-.27,.56h.06s.46,.37,.46,.37l.05,.07,.25,.42-.25-.07-.1-.17-.04,.02h0s0,0,0,0h-.03s-.07-.09-.07-.09l-.3-.3h-.14c-.05,.1-.11,.2-.15,.31l.16-.03-.29,.45-.04,.15h0l.21-.07,.29,.19,.13,.02v-.1s-.11-.14-.11-.14l-.18-.02-.03-.1h.03s0,0,0,0l-.13-.14v-.02s.31,.11,.31,.11l-.17-.19,.1-.19,.14-.11,.1,.26h.11s.02,.04,.02,.04l.14,.25h.14s0,.09,0,.09h.18l-.09,.07,.1,.08h-.16s.01,.11,.01,.11l-.19-.09-.11,.13v.04s-.04,.01-.04,.01l-.08,.1h-.09s0,0,0,0h-.01s-.1-.01-.1-.01l-.23-.13-.05,.05,.06,.15,.2,.37,.3-.21,.07-.28,.09-.09,.06,.05,.11,.08,.05,.03,.02,.09-.15,.03-.15,.26-.29,.34,.18,.08,.09-.21,.06,.05h.04s.03,.06,.03,.06l.06,.05-.3,.23-.4-.14-.11,.04-.07,.03-.05,.04,.51,.27-.27,.21-.06,.03H.79c-.07,.24-.13,.49-.19,.74,.04-.01,.09-.01,.13-.02l1.05-.49Z"/>
  <path class="cls-3" d="M1.8,14.46l.27-.21-.51-.27,.05-.04,.07-.03,.11-.04,.4,.14,.3-.23-.06-.05-.03-.04h-.04s-.06-.07-.06-.07l-.09,.21-.18-.08,.29-.34,.15-.26,.15-.03-.02-.09-.05-.03-.11-.08-.06-.05-.09,.09-.07,.28-.3,.21-.2-.37-.06-.15,.05-.05,.23,.13h.1s-.27-.13-.27-.13l-.1-.02-.04,.09,.05,.12,.19,.3,.03,.12,.31-.21,.04-.04,.05-.26,.06-.07,.03,.05h.1s.03,.07,.03,.07h.05s.03,.07,.03,.07l-.15,.03-.1,.19-.34,.4-.12-.12h-.02s.2,.2,.2,.2l.16,.05,.09-.19,.06,.05,.07,.08-.29,.17-.41-.17-.02,.02,.04,.03-.15,.03-.16,.07-.16,.04-.12,.03-.1-.04-.16,.04s0,.02-.01,.03h.04s.13-.04,.13-.04l.1,.02,.13-.02,.18-.04h.09s.46,.25,.46,.25l-.27,.22H.79s0,.02,0,.03h.96l.06-.03Z"/>
  <path class="cls-3" d="M2.2,12.14l.07,.1h.03s-.06-.09-.06-.09l-.34-.34h-.13s-.01,.01-.02,.02h.14s.3,.31,.3,.31Z"/>
  <path class="cls-3" d="M1.28,13.55h.13s-.14-.05-.14-.05l-.14-.09h0s0,.02-.01,.03l.09,.04,.06,.07Z"/>
  <path class="cls-3" d="M1.52,13.31l-.03-.07,.11-.08-.18-.28,.22-.19,.29,.2h.15s.02-.12,.02-.12l-.12-.14-.16-.02-.04-.05,.28-.08-.23-.16v-.12s.17-.18,.17-.18l.1,.24h.12l.15,.27,.02,.09-.11,.3,.11-.13,.19,.09v-.11s.15,0,.15,0l-.1-.08,.09-.07h-.18v-.08s-.13-.01-.13-.01l-.14-.25-.02-.04h-.11s-.1-.26-.1-.26l-.14,.11-.1,.19,.17,.19-.3-.11v.02s.12,.14,.12,.14h-.02s.03,.11,.03,.11l.18,.02,.12,.14v.1s-.14-.02-.14-.02l-.29-.19-.21,.07h0l.04-.15,.29-.45-.16,.03s0,.02-.01,.02l.11-.04-.27,.48-.08,.45-.07-.06s-.02,.04-.02,.06l.15,.1,.12,.13Zm.88-.76h.1l-.04,.06,.16,.03-.08,.04,.12,.05-.16-.02,.05,.12-.16-.08,.02-.2Zm-.71-.15l.28,.08-.18,.02-.1-.1Zm-.3,.5l.15,.25-.08,.06-.1-.11,.03-.19Z"/>
  <polygon class="cls-3" points="2.16 13.06 2.23 12.96 2.06 13.05 2.16 13.06"/>
  <polygon class="cls-3" points="1.98 11.67 2.38 11.98 2.43 12.04 2.65 12.42 2.47 12.35 2.35 12.13 2.31 12.23 2.34 12.21 2.45 12.38 2.7 12.45 2.45 12.03 2.4 11.95 1.94 11.59 1.88 11.58 1.87 11.59 1.88 11.59 1.98 11.67"/>
  <path class="cls-3" d="M2.55,11.18l.13,.1,.24-.07v-.02s-.39-.3-.39-.3l-.03-.02-.23-.09s0,.02-.01,.02l.22,.09,.07,.06,.29,.23,.03,.04-.21,.03-.1-.09-.27-.13-.14-.02s0,.02-.01,.02l.16,.03,.25,.12Z"/>
  <path class="cls-3" d="M2.92,9.96l.53-.39,.08-.02,.07,.06v-.03l-.14-.2h-.03l.02,.12-.41,.31,.16-.65c-.07,.11-.13,.22-.2,.33l-.11,.46h.03Z"/>
  <polygon class="cls-3" points="3.32 10.84 3.31 10.75 3.38 10.7 3.96 10.5 4.01 10.64 3.96 10.75 3.91 10.8 4.08 10.74 4.08 10.7 3.88 10.13 3.7 10.18 3.81 10.19 3.92 10.38 3.44 10.56 3.29 10.6 3.23 10.57 3.19 10.52 3.3 10.84 3.32 10.84"/>
  <path class="cls-8" d="M2.24,12.15l.06,.08h0s0,0,0,0l.05-.1,.12,.22,.18,.07-.22-.38-.04-.06-.4-.31-.1-.08h0c-.03,.07-.07,.14-.1,.21h.13s.34,.35,.34,.35Z"/>
  <path class="cls-8" d="M2.56,11.15l.1,.09,.21-.03-.03-.04-.29-.23-.07-.06-.22-.09c-.03,.07-.06,.14-.1,.2l.14,.02,.27,.13Z"/>
  <path class="cls-3" d="M3.65,11.45h-.16l-.04-.1h-.03s.02,.33,.02,.33h.02s.03-.1,.03-.1h.14s.17-.02,.17-.02v.08s-.34,.28-.34,.28v.21s.03,0,.03,0l.03-.12,.1-.09,.21-.17,.09,.15,.24-.02,.07-.18-.02-.4h-.02l-.03,.1-.16,.02-.35,.02Zm.52,.09v.18s-.26,.04-.26,.04l-.07-.2,.33-.02Z"/>
  <polygon class="cls-7" points="3.91 11.76 4.17 11.71 4.17 11.53 3.84 11.55 3.91 11.76"/>
  <path class="cls-8" d="M1.17,14.03l.12-.03,.16-.04,.16-.07,.15-.03-.04-.03,.02-.02,.41,.17,.29-.17-.07-.08-.06-.05-.09,.19-.16-.05-.2-.19h.02s.12,.11,.12,.11l.34-.4,.1-.19,.15-.03-.03-.06h-.05s-.03-.07-.03-.07h-.1s-.03-.06-.03-.06l-.06,.07-.05,.26-.04,.04-.31,.21-.03-.12-.19-.3-.05-.12,.04-.09,.1,.02,.27,.14h.01s0,0,0,0l.17-.09h.03s.01-.05,.01-.05l.11-.3-.02-.09-.15-.27h-.12l-.1-.24-.18,.18v.12s.24,.16,.24,.16l-.28,.08,.04,.05,.16,.02,.12,.14-.02,.13h-.15s-.29-.2-.29-.2l-.22,.19,.18,.28-.11,.08,.03,.07-.12-.13-.15-.1c-.04,.11-.08,.23-.12,.34h0s.14,.09,.14,.09l.14,.04h.04s-.18,0-.18,0l-.06-.07-.09-.04c-.07,.2-.15,.39-.22,.59l.16-.04,.1,.04Z"/>
  <path class="cls-8" d="M1.43,12.62l.27-.48-.11,.04c-.12,.27-.2,.55-.31,.83l.07,.06,.08-.45Z"/>
  <polygon class="cls-8" points="1.98 12.48 1.7 12.4 1.8 12.5 1.98 12.48"/>
  <polygon class="cls-8" points="2.54 12.83 2.49 12.7 2.65 12.73 2.54 12.68 2.61 12.64 2.46 12.61 2.5 12.55 2.4 12.55 2.38 12.75 2.54 12.83"/>
  <polygon class="cls-3" points="3.71 12.83 3.64 12.85 3.47 12.79 3.39 12.76 3.39 12.66 3.38 12.66 3.29 12.98 3.31 12.99 3.39 12.9 3.64 12.96 3.91 13.25 3.98 13.43 4 13.43 4.06 13.16 4.04 13.15 3.97 13.21 3.89 13.15 3.7 12.96 4.03 12.85 4.1 12.85 4.1 12.95 4.11 12.95 4.2 12.62 4.1 12.7 3.71 12.83"/>
  <polygon class="cls-7" points="1.55 13.15 1.4 12.9 1.37 13.1 1.47 13.21 1.55 13.15"/>
  <path class="cls-8" d="M2.02,14.25l-.46-.24h-.09s-.18,.03-.18,.03l-.13,.02-.1-.02-.13,.04h-.04c-.04,.13-.06,.26-.1,.39h.96l.27-.22Z"/>
  <polygon class="cls-3" points="1.64 15.79 1.78 15.59 1.68 15.4 1.51 15.36 1.35 15.52 1.42 15.76 1.64 15.79"/>
  <path class="cls-3" d="M.44,15.87h0s-.02,.08-.03,.12h.03s0-.12,0-.12Z"/>
  <path class="cls-1" d="M3.76,16.66l-.31-.61,.63,.31,.15-.15-1.23-.6,.54,1.09-.72,.1,.23-1.63c-.77,.78-1.09,1.72-.7,2.09,.02,.02,.06,.04,.08,.06,.06,.04,.14,.07,.22,.09,.07,.01,.14,.02,.22,.01,.45-.03,1.05-.33,1.58-.85l-.7,.1Z"/>
  <path class="cls-1" d="M5.3,14.75c-.02-.08-.05-.16-.1-.22-.01-.02-.02-.04-.04-.06-.39-.38-1.32-.07-2.1,.69l.51-.07,.9,.89,.09-.09-.09,.67c.54-.53,.84-1.14,.86-1.6,0-.08,0-.15-.02-.21Zm-1.46,.3l.85-.12-.12,.84-.73-.72Z"/>
  <polygon class="cls-8" points="4.56 15.89 4.47 15.98 3.57 15.09 3.06 15.16 2.83 16.79 3.55 16.69 3.01 15.61 4.24 16.21 4.08 16.36 3.45 16.05 3.76 16.66 4.46 16.56 4.56 15.89"/>
  <polygon class="cls-8" points="4.69 14.94 3.84 15.05 4.57 15.78 4.69 14.94"/>
  <path class="cls-1" d="M5.18,9.3s.03-.04,.04-.06c.05-.06,.08-.14,.1-.22,.02-.07,.02-.14,.02-.22,0-.07,0-.14-.03-.21,0-.01,0-.03,0-.04-.09-.39-.35-.85-.75-1.26-.02,.02-.03,.05-.05,.07l.08,.56-.61,.3,.21-.43c-.22,.29-.45,.57-.65,.87l1.08-.54,.1,.71-1.19-.17c-.05,.07-.1,.14-.15,.21,.71,.57,1.47,.77,1.8,.43Z"/>
  <polygon class="cls-8" points="4.72 8.83 4.62 8.12 3.54 8.65 3.53 8.66 4.72 8.83"/>
  <path class="cls-8" d="M3.98,8.21l.61-.3-.08-.56c-.11,.14-.21,.29-.32,.43l-.21,.43Z"/>
</svg>