<?xml version="1.0" encoding="UTF-8"?>
<svg id="Layer_1" data-name="Layer 1" xmlns="http://www.w3.org/2000/svg" viewBox="0 0 80 80">
  <defs>
    <style>
      .cls-1 {
        fill: #da1f26;
      }

      .cls-2 {
        fill: #273880;
      }

      .cls-3 {
        fill: #fae907;
      }

      .cls-4 {
        fill: #169153;
      }
    </style>
  </defs>
  <path class="cls-1" d="M60,0H20C9.58,0,1.04,7.96,.09,18.13H79.91C78.96,7.96,70.42,0,60,0Z"/>
  <path class="cls-4" d="M20,80H60c10.42,0,18.96-7.97,19.91-18.14H.09c.94,10.17,9.49,18.14,19.91,18.14Z"/>
  <path class="cls-3" d="M80,60v-20H0v20c0,.63,.04,1.25,.09,1.86H79.91c.06-.61,.09-1.23,.09-1.86Z"/>
  <path class="cls-2" d="M80,20c0-.63-.04-1.25-.09-1.87H.09c-.06,.62-.09,1.24-.09,1.87v20H80V20Z"/>
</svg>