<?xml version="1.0" encoding="UTF-8"?>
<svg id="Layer_1" data-name="Layer 1" xmlns="http://www.w3.org/2000/svg" viewBox="0 0 80 80">
  <defs>
    <style>
      .cls-1 {
        fill: #005d33;
      }

      .cls-2 {
        fill: #fff;
      }

      .cls-3 {
        fill: #2b3b96;
      }

      .cls-4 {
        fill: #f6eb23;
      }

      .cls-5 {
        fill: #f6d906;
      }

      .cls-6 {
        fill: #85632a;
      }

      .cls-7 {
        fill: #e22626;
      }

      .cls-8 {
        fill: #d32a27;
      }

      .cls-9 {
        fill: #005ca4;
      }
    </style>
  </defs>
  <path class="cls-3" d="M18.03,.1C7.91,1.09,0,9.62,0,20V60c0,10.38,7.91,18.91,18.03,19.9V.1Z"/>
  <path class="cls-5" d="M20,80H60c.66,0,1.32-.04,1.97-.1V.1c-.65-.06-1.3-.1-1.97-.1H20c-.66,0-1.32,.04-1.97,.1V79.9c.65,.06,1.3,.1,1.97,.1Zm6.85-41.91l-.14-1.17,.91,.72,.22-.69,.3,.49c.01-1.01,0-2.03,0-3.04,0-1.49,0-2.97,0-4.45l.06-.59,.7-1.22c.54-.69,1.2-1.32,1.96-1.79,.72,.43,1.33,1.05,1.94,1.62l.62,.45-.13,1.05v.78l.89,.19,1.03,.6,1.5,.64,.53-.45,.59-1.09c.24-.75,.29-1.52,.27-2.3l-.51-1.49-.93-.54v.92l.29,.37-.51,.53-.49-.53,.27-.42c0-.81,0-1.62,0-2.43h-.56l-.38,.3-.13-.36,.13-.69,.38,.3h.56v-.54s-.32-.38-.32-.38l.4-.14h.27l.4,.12-.31,.37v.58h.54s.39-.3,.39-.3l.14,.53-.14,.52-.36-.3h-.57s0,.67,0,.67l.48-.17,.59-.11,.2-.3,.49-.21c.72-.09,1.48,.05,2.14,.37,.6,.28,1.21,.53,1.85,.69l-.55,.24,.58,.54-.44,.11,.15,.22,.09,.66-.39-.28,.04,.72-.42,1.08c0,.82,.16,1.68,.59,2.4l.77,.8,1.52-.65,1.46-.73,.47-.07v-.71l-.14-1.12,.59-.43c.62-.56,1.19-1.15,1.89-1.6l.13-.03,1.26,1.03,1.14,1.48,.27,.88v1.47c-.01,3.18-.02,6.35-.02,9.52v.58l.22-.43,.03-.4,.17-.12-.07-.31,.2-.22,.16-.55-.02-.83,.16-.09,.72,.02-.03-.29,.21-.19-.08-.18,.1-.08,.68-.5v2.17l-.61,.41-.44,.48-.07,.35-.29,.09v.18s-.3,.27-.3,.27l-.67,1.33-.04,.31c0,2.63,0,5.23,.01,7.85l.03,.82,.16,.54-.7-.58-1.1-1.55v.23l-.99-.78-.5-.7-.09-.09,.1,.43-.41,.24,.38,.37,.16,.65-.23,.47-.07-.14-.61,.74-.23,.19-.43-.06-.18,.24,.22,.25-.53,.41-.46,.29-.03-.78,.03-.43,.32,.04,.03-.23,.25-.09-.42-.46-.25-.56c-.56-.78-1.15-1.53-1.72-2.31l-.04,.23-.67-.78-.67-.59h-.05s-1.31,.6-1.31,.6l.24,.51c.46,.95,.95,1.89,1.51,2.78l1.23,1.69,1.46,1.18c-.86,.38-1.73,.79-2.56,1.25-.48-.57-.9-1.19-1.32-1.8l-.46-.7,.2,.74c.3,.71,.7,1.38,1.09,2.04-.66,.37-1.3,.77-1.9,1.23l-1.13,1.18h0s-1.09-1.16-1.09-1.16c-.61-.48-1.27-.87-1.93-1.26l.26-.43c.34-.58,.67-1.17,.92-1.8l.12-.54c-.56,.85-1.13,1.7-1.78,2.5-.83-.45-1.69-.87-2.56-1.25l1.23-.93c.63-.67,1.15-1.43,1.62-2.21,.59-.98,1.12-1.99,1.6-3.03l-1.35-.6-.88,.79-.46,.59-.05-.21c-.57,.71-1.11,1.46-1.66,2.2l-.32,.66,.14,.31,.78,.43-.27,1.24-1.01-.55-.1-.07,.18-.85-.03-.13-.52,.42-.46-.04-.71-.88-.08,.14-.22-.43,.15-.67,.33-.36-.27-.42,.37-.29-.44,.08c-.38,.61-.85,1.2-1.51,1.51v-.22s-1.13,1.58-1.13,1.58l-.67,.56,.2-.85c0-1.55,0-3.1,0-4.66v-1.69c0-.9,0-1.79,0-2.7l-.48-.13-.85-.82,.5-.1-.41-.49,1.24,.16v-.45s-.27-.58-.27-.58l-.1,.25-.34,.38-.33-.27,.27-.38,.26-.12-.6-.16-.58-.61-.23-.57,.81,.2-.18-.28Z"/>
  <polygon class="cls-5" points="31.94 48.56 31.96 48.93 32.1 48.85 31.94 48.56"/>
  <path class="cls-5" d="M44.8,45.59l.73,1.23h-.31c.4,.6,.82,1.19,1.19,1.79l.3,.21,.47-.04,.3,.1v-.38l.4-.19-.2-.41-.46-1.05c-.31-.83-.56-1.69-.78-2.55l-.02-.11-.63,.77-.98,.62Z"/>
  <polygon class="cls-5" points="38.02 25.85 37.82 25.6 36.63 25.37 36.63 25.61 37.76 25.86 38.02 25.85"/>
  <path class="cls-5" d="M33.09,44.23l-.47,1.62,.02,.16,.04,.46,.54-.25-.11,1.03-.84,.88,.04,.1,.34-.12,.38-.05,.13,.44-.51,.11-.22-.14,.14,.32h.33s.19-.17,.19-.17c.38-.61,.79-1.2,1.2-1.79h-.32s.73-1.24,.73-1.24l-1.24-.84-.37-.52Z"/>
  <path class="cls-7" d="M80,60V20C80,9.62,72.09,1.09,61.97,.1V79.9c10.12-.99,18.03-9.52,18.03-19.9Z"/>
  <path d="M26.45,38.73l.58,.61,.6,.16-.26,.12-.27,.38,.33,.27,.34-.38,.1-.25,.26,.58v.45s-1.23-.16-1.23-.16l.41,.49-.5,.1,.85,.82,.48,.13v4.39c0,1.56,0,3.11-.02,4.66l-.2,.85,.67-.56,1.12-1.58v.22c.66-.32,1.13-.9,1.51-1.51l.44-.08-.37,.29,.27,.42-.33,.36-.15,.67,.22,.43,.08-.14,.71,.88,.46,.04,.52-.42,.03,.13-.18,.85,.1,.07,1.01,.55,.27-1.24-.78-.43-.14-.31,.32-.66c.55-.75,1.09-1.49,1.66-2.2l.05,.21,.46-.59,.88-.79-.36-.16-.82,.84-.15-.56-.44,.22-.1-.48-.48,.1,.52-.8-.25-.13-.73,1.23h.32c-.41,.6-.83,1.19-1.2,1.8l-.19,.18h-.33s-.14-.33-.14-.33l.22,.14,.51-.11-.13-.44-.38,.05-.34,.12-.04-.1,.84-.88,.11-1.03-.54,.25-.04-.46-.02-.16,.47-1.62-.05-.72c-.18,.66-.35,1.33-.59,1.98l-.13-.22-.6,.72v-.41s.06-.31,.06-.31l-.07-.28c0-3.9,0-7.8,0-11.7l.6,.53,.72-.67-.14-.52-.48,.42v-.92h0s0-.96,0-.96l.24-.43,.22,.34,.82,.98,.49-.55,.13-.07,.49,.61,.72-.57,1.12,.21-.62,.37,1.45-.27,.77-.5-.41,.76c.6-.04,1.17-.32,1.56-.79l.34,.64,.37-.64c.36,.48,.95,.75,1.55,.79l-.43-.76,.68,.45,.55,.2,1,.12-.6-.37,1.12-.21,.71,.57,.44-.56,.07-.05,.59,.6,1.04-1.32,.22,.36,.04,.19c0,.58,0,1.18,0,1.78l-.48-.45-.14,.53,.73,.67,.59-.54c0,1.67,0,3.35,0,5.03,0,2.85,0,5.7,0,8.56l-.34-.48-.53-1.33-.44-1.56-.05,.7,.02,.11c.22,.86,.48,1.72,.78,2.55l.46,1.05,.2,.41-.4,.19v.38l-.3-.1-.47,.04-.3-.21c-.37-.6-.79-1.19-1.19-1.78h.31s-.73-1.24-.73-1.24l-.24,.12,.51,.8-.48-.09-.09,.47-.43-.23-.17,.58-.81-.84-.4,.18h.05s.67,.58,.67,.58l.67,.78,.04-.23c.57,.77,1.16,1.52,1.72,2.31l.25,.56,.42,.46-.25,.09-.03,.23-.32-.04-.03,.43,.03,.78,.46-.29,.53-.41-.22-.25,.18-.24,.43,.06,.23-.19,.61-.74,.07,.14,.23-.47-.16-.65-.38-.37,.41-.24-.1-.43,.09,.09,.5,.7,.99,.78v-.23l1.1,1.55,.7,.58-.16-.54-.03-.82c-.01-2.62-.01-5.23-.01-7.85l.04-.31,.67-1.33,.31-.27v-.18s.28-.09,.28-.09l.07-.35,.44-.48,.61-.41v-.1l-.48-.64,.24-.11,.07-.31,.18-.02v-.98l-.68,.5-.1,.08,.08,.18-.21,.19,.03,.29-.72-.02-.16,.09,.02,.83-.16,.55-.2,.22,.07,.31-.17,.12-.03,.4-.22,.43v-.58c0-3.17,0-6.34,0-9.52v-1.47s-.26-.88-.26-.88l-1.14-1.48-1.26-1.03-.13,.03c-.7,.45-1.27,1.04-1.89,1.6l-.59,.43,.14,1.12v.71l-.47,.07-1.46,.73-1.52,.65-.77-.8c-.43-.72-.6-1.58-.59-2.4l.42-1.08-.04-.72,.39,.28-.09-.66-.15-.22,.44-.11-.58-.54,.55-.24c-.64-.16-1.25-.41-1.85-.69-.66-.32-1.42-.46-2.14-.37l-.49,.21-.2,.3-.59,.11-.48,.17v-.68h.57s.36,.3,.36,.3l.14-.52-.14-.53-.39,.3h-.54s0-.57,0-.57l.31-.37-.4-.12h-.27l-.4,.14,.31,.38v.54s-.55,0-.55,0l-.38-.3-.13,.69,.13,.36,.38-.3h.56c0,.81,0,1.62,0,2.43l-.27,.42,.49,.53,.51-.53-.29-.37v-.92l.93,.54,.51,1.49c.02,.78-.03,1.56-.27,2.3l-.59,1.09-.53,.45-1.5-.64-1.03-.6-.89-.19v-.78l.13-1.05-.62-.45c-.61-.57-1.22-1.19-1.94-1.62-.75,.47-1.42,1.1-1.96,1.79l-.7,1.22-.06,.59c0,1.49,0,2.97,0,4.45,0,1.01,0,2.03,0,3.04l-.3-.49-.22,.69-.91-.72,.14,1.17,.18,.28-.81-.2,.23,.57Zm.98,1.38l-.18-.18,.18-.18,.19,.18-.19,.18Zm5.42,8.05l.19,.18-.19,.19-.18-.19,.18-.18Zm14.43-15.11v-1.59l.55,.54v.55s-.55,.5-.55,.5Zm-.07-2.25l-.21-.29,.83-.92v1.75s-.62-.55-.62-.55Zm-.53,20.99l-.06,.09-.6,.42v-.84s.65,.33,.65,.33Zm-.11-.33l-.27-.27,.44,.19-.18,.08Zm.64-.28l-.14-.06-.45-.38,.04-.26,.19,.03,.46,.4-.1,.27Zm.23-.33l-.51-.43,.04-.26,.21,.05,.47,.41-.21,.23Zm.33-.3l-.16-.09-.43-.39,.19-.24,.24,.2,.34,.3-.18,.21Zm-.31-.83l.09-.09,.24,.22-.05,.12-.28-.25Zm.51-.19l-.11,.17-.16-.07-.64-.24-.45-.06-.23-.11,.4,.7-.4-.16v.38s-.16,.22-.16,.22l-.27-.66c-.5-.66-1-1.34-1.5-2.02l-.29-.39,.07-.32,.41,.27,.08-.07,.06-.44,.13,.04c.44,.67,.87,1.33,1.31,2l.2,.22h.72s.58,.29,.58,.29l.23,.23Zm.06-.56l-.5-.24,.15-.26,.45,.22-.1,.28Zm-.13-.82l-.06-.43,.38-.48,.36-.33c.37-.74,.76-1.49,1.14-2.24h.31s-.1,.31-.1,.31c-.36,.72-.74,1.43-1.09,2.16l-.03,.63-.43,.54-.48-.17Zm1.46-16.2v.58l-.55,.52v-1.61l.55,.51Zm-.55-1.17v-.66l.55-.83c0,.66,0,1.32,0,1.98l-.55-.5Zm.49,2.49v11.95l-.02,.11-.74,1.45-.45,.38,.02-1.2c0-4.24,0-8.46,0-12.7l.58,.54,.61-.53Zm-.71-2.49l-.55,.5v-1.61l.56,.52v.59Zm0,.67v1.59l-.39-.35-.16-.17v-.56l.55-.5Zm2.25,1.81c0,3,0,6,0,9.01l-.22,.46-.26,.4-.13,.16v.22l-.26,.14-.05,.37-.21,.21,.02,.23-.06,.11c-.02-1.28,0-2.55,0-3.83,0-2.49,0-4.99,0-7.48l.1,.08,.5,.46,.59-.55Zm-.49-.2v-1.62l.49,.46v.72l-.49,.45Zm-.31,10.89l.07-.27,.51,.25-.08,.2-.49-.19Zm.27,.4l-.03,.19-.43-.17,.03-.17,.42,.16Zm0-.88l.04-.19,.46,.27-.03,.06-.47-.14Zm-.17-12.02v1.6l-.55-.5v-.59l.55-.51Zm-.55-.16c0-.61,0-1.23,0-1.83l.34,.33,.22,.24v.76s-.55,.5-.55,.5Zm-.28,17.95l-.82-.81,.44-.59,.03-.69,.34-.67c0,.92,0,1.83,0,2.75Zm1.54,1.2l-.4-.36-.59-.8-.2-.61v-2.64l.04-.3,.54-1.05,.2-.11,.03-.26,.26-.24-.03-.31,.15-.09v6.77Zm2.77-11.21l-.83,.62-.2,.36-.03,.29-.21-.03,.11-.27,.21-.39,.61-.63,.04-.1-.14-.4,.43,.56Zm.02-1.79v.56l-.49-.24,.49-.31Zm-.54,.55l.39,.29-.41,.11,.02-.4Zm-.06,.61l.16,.41-.11,.2-.57,.66-.29,.59-.23-.12,.35-.67,.17-.8,.06-.14,.46-.12Zm-.88,1l.02-1.09h.72s-.47,.16-.47,.16l-.2,1.04-.3,.56-.17-.17,.39-.5Zm-.88,2.06l.41-.86,.14-.29,.36,.22-.05,.13-.6,1.03-.62,1.22-.11,.12-.21-.1v-.17s.68-1.3,.68-1.3Zm-.44-11.94v1.5l-.49-.43v-1.05s.32-.58,.32-.58l.17,.56Zm-4.08-1.22l.74-.48,1.14-.97,.96,.79,.81,.91-.35,.76-.7-.71-.03-.37-.18-.28-.21,.08,.21,.47-.03,.24-.58,.86-.48-.52-.13-.21-.17-.42-.2,.07,.16,.35-.03,.23-.66,.76-.29,.16,.02-1.7Zm-1.8,2.49l.8-.22,.53,.02-.15,.38-.3,.48-.88-.62v-.04Zm-.87,.44l.83-.41-.12,.62-.14,.1-.67-.24,.1-.07Zm-8.45-7.3l-.39,.2v-.61l.24,.15,.43,.03h.35v-.62l-.19-.4h.62l-.19,.34v.67h.64s.38-.17,.38-.17v.61s-.41-.2-.41-.2h-.61v.57l-.06,.39-.19,.51v-1.47h-.63Zm1.06,2.94l-.31,.35-.29-.35,.17-.37v-.95l.22-.31v.71s.01,.61,.01,.61l.19,.31Zm-.23-1.79l.56-.29h.78s.42,.86,.42,.86c-.37-.54-1.14-.76-1.76-.56Zm1.53-.19l.12-.17,.38,.07,.31,.13-.29,.13-.14,.22-.38-.37Zm-1.38,.28l1.19,.22,.2,.25h-.26s-1.13-.24-1.13-.24v-.24Zm.64,.5l.83,.11-.27,.34-.56-.45Zm.51,4.96c.41-.73,.51-1.59,.53-2.41v-.76l-.26-1.06-.02-.29,.36-.1,.63,.36-.25-.46-.12-.23,.24-.02-.34-.33,.36-.36,.35,.36-.32,.32,.29-.02,.19-.32-.18-.29,.62-.06,.3,.09,.7,.41,.24,.09-.98-.72h-.9s-.8-.25-.8-.25l-.47-.02v-.2l.44-.19h.93c.84,.09,1.55,.63,2.34,.88l-.19,.25,.48,.35-.37,.21,.37,.45-.45-.12,.1,1.04-.12,.35-.27,.64,.02,.61c.03,.61,.16,1.22,.47,1.75l.44,.75-.76-.51-.46-.6-.04-.46v-1.57h-.21v1.79l.05,.4,.53,1.29-.3-.17-.65-.59-.1-.26v-2.46h-.21v2.73l-.23,.28-.26-.34,.04-.59c0-.69,0-2.08,0-2.08h-.2v2.4l-.16,.39-.89,.7,.52-1.24,.07-.5v-1.75h-.2v1.79l-.32,.67-.99,.71,.44-.7Zm-2.28,.66l-.72,.27-.13-.21-.1-.53,.94,.48Zm-1.83-.72l.87,.24-.91,.63-.45-.83,.49-.04Zm-6.49,9.85l.99,.27,.36,.35-1-.28-.34-.33Zm.74,1.18l-.62-.5,.74,.11,.54,.44-.67-.05Zm1.9,6.2v.74l-.15,.48-.69,.92-.34,.3c0-1.84,0-3.68,0-5.51l.7,.28h.48v1.49l-.39-.03,.39,.66v.25s-.36,.13-.36,.13l.36,.29Zm-.67-5.55l-.28,.19-.23,.09v-.72l.3-.06,.21,.49Zm-.36-2.02l.13-.74,.08,1.24-.21-.5Zm.28,2.52l-.19,.18-.18-.18,.18-.18,.19,.18Zm-.16,.33l.31-.39,.07-.18,.49,1.07,.04,.17-.39-.2-.78-.03v-.5s.26,.08,.26,.08Zm.43-11.83l.47,.42,.09,.12v.56s-.24,.22-.24,.22l-.32,.28v-1.6Zm0-1.42l.56-.58c0,.62,0,1.23,0,1.84l-.55-.5v-.76Zm-.08,14.56l.97,.29,.03,.08-.85,.12-.69-.32,.02-.04,.51-.13Zm-.03-.17l-.48-.61,.93,.23,.59,.64-.43-.21-.61-.04Zm1.17,.7l.12,.29-.34,.22v-.44l.22-.07Zm-.19,.66l.18,.18-.18,.18-.18-.18,.18-.18Zm-.04,.51l.37-.23,.05-.33h.09l.65,1.41-.63-.26-.52-.13v-.46Zm.4-2.19l-.31-.47,.21-.79,.22-.27,.14,.68-.19,.38-.09,.46Zm.71-1.03l.05,1-.46,.69-.11-.49,.52-1.2Zm.09,1.47v.42l-.46,.19-.08-.16,.53-.46Zm-.1,.74l.18-.18,.19,.18-.19,.19-.18-.19Zm.1,.34v.54s-.21-.42-.21-.42l-.13-.34,.34,.22Zm.06-14.33l-.57-.51v-.54l.08-.1,.49-.46v1.61Zm-.56,.15l.49,.46,.07,.1v.51l-.05,.09-.52,.46v-1.62Zm.51,1.82c0,3.13,0,6.27,0,9.41l-.31,.26-.25-.8-.39,.33-.25-.37c0-2.94,0-5.89,0-8.83l.57,.52h.07s.56-.52,.56-.52Zm-.71-2.47l-.55,.51c0-.66,0-1.32,0-1.99l.45,.67,.1,.22v.58Zm0,.65v1.61l-.56-.5v-.59l.56-.52Zm-.4,10.97l-.18,.18-.19-.18,.19-.19,.18,.19Zm.04,1.76l.07,.24-.15-.03-.3-.6-.47-.97-.04-.22,.11,.04,.24,.43,.54,1.12Zm-.59-1.62l.1,.07v.18l-.1-.25Zm.1-.35l-.24,.07-.11-.27,.36-.43v.63Zm-.25-.72l-.19,.21-.14-.94,.31-.67,.24,.74-.22,.66Zm-.52,2.95l-.4,.15v-.58l.4,.43Zm1.13,4.81v-1.02s.74,.28,.74,.28l-.74,.73Zm.37-1.02l-.58-.46,1.11,.09,.53,.33-1.06,.04Zm-.13-.67l-.57-.59,1.49,.42,.36,.36-1.28-.19Zm1.03,1.26l.19-.18,.19,.18-.19,.19-.19-.19Zm.09,1.56l.31-.29,.28-.25,.17,.26-.51,.45-.24-.17Zm.17-.52l.22-.19,.07,.1-.22,.19-.07-.11Zm.31,1.02l-.21-.17,.21-.23,.36-.29,.22,.21-.3,.26-.28,.22Zm.69,0l-.33,.29-.25-.15,.13-.17,.44-.38,.23,.14-.22,.26Zm1.36,.57l-.17,.77-.7-.38,.18-.77,.69,.38Zm-1.53-2.44l.61-.06c.48-.71,.94-1.44,1.41-2.15l.12-.04,.13,.53,.44-.3,.06,.35c-.56,.75-1.12,1.52-1.69,2.27l-.35,.77-.19-.24,.02-.37-.41,.17,.41-.69-.39,.14-.62,.1-.47,.23-.1-.19,.38-.32,.63-.18Zm-.59-.46l.16,.29-.14,.08v-.37Zm1.07-2.09l-.15,.78-.6,.48,.16-.74,.59-.52Zm-1.01-.57l.23-.27,.06,.09,.18,.95-.31,.38-.09,.29-.31-.84,.24-.62Zm.2,2.44l.08,.31-.21-.27-.68-1.36-.56-1.26-.19-.63,.17,.17,.66,1.44,.73,1.6Zm-.02-15.28l-.49-.45-.07-.1v-.5l.47-.46,.09-.09v1.6Zm.06-2.26l-.62,.55v-1.76l.83,.93-.21,.29Zm-3.12-2.16l1.55-1.51,.15-.1,1.17,1,.65,.43,.07,.08v1.66s-.57-.48-.57-.48l-.39-.48,.15-.55-.22-.06-.15,.41-.13,.23-.49,.51-.56-.85-.04-.29,.2-.42-.19-.09-.21,.41-.02,.27-.66,.67-.06-.04-.3-.64,.06-.15Zm-.5,1.07l.16-.56,.2,.34,.13,.33v.9l-.09,.13-.4,.37v-1.51Zm.49,1.72v1.11s0,.5,0,.5l-.48-.42v-.74s.48-.45,.48-.45Zm-.49,1.84l.58,.53,.6-.53v6.71l-.14-.39-.43,.41-.24-.66-.17-.24-.2-.05v-5.78Zm-.01,5.92l.18,.18-.18,.18-.19-.18,.19-.18Zm-.36,.64l.39,.72,.23,.55-.07,.05-.29-.39-.35-.75-.03-.23,.12,.05Zm-.36-2.39l.27,.8-.18,.63-.2-.99,.11-.43Zm-.9,.58l-.11-.7,.56,.46,.11,.71-.57-.47Zm.22,.63l.36,.6-.67-.28-.35-.52,.66,.2Z"/>
  <polygon class="cls-4" points="36.29 25.6 36.48 25.09 36.54 24.7 36.54 24.13 37.14 24.13 37.55 24.33 37.55 23.73 37.17 23.91 36.53 23.9 36.53 23.22 36.71 22.89 36.1 22.89 36.29 23.29 36.29 23.9 35.94 23.91 35.5 23.88 35.26 23.73 35.26 24.33 35.65 24.13 36.28 24.13 36.29 25.6"/>
  <path class="cls-6" d="M38.64,30.15v-1.79h.2v1.75l-.07,.5-.52,1.24,.89-.7,.16-.39v-2.4h.2s0,1.4,0,2.08l-.04,.59,.26,.34,.23-.28v-2.73h.21v2.46l.1,.26,.65,.59,.3,.17-.53-1.29-.05-.4v-1.79h.21v1.57s.05,.46,.05,.46l.46,.6,.76,.51-.44-.75c-.31-.53-.44-1.14-.47-1.75l-.02-.61,.27-.64,.12-.35-.1-1.04,.45,.12-.37-.45,.37-.21-.48-.35,.19-.25c-.8-.25-1.5-.78-2.34-.88h-.93l-.44,.19v.2l.47,.02,.8,.23h.9s.98,.74,.98,.74l-.24-.09-.7-.41-.3-.09-.62,.06,.18,.29-.19,.32-.29,.02-.03,.03-.02-.02-.24,.02,.12,.23,.25,.46-.63-.36-.36,.1,.02,.29,.26,1.06v.76c-.02,.83-.12,1.68-.53,2.41l-.44,.7,.99-.71,.32-.67Z"/>
  <polygon class="cls-6" points="38.54 25.25 38.82 25.13 38.52 24.99 38.13 24.93 38.01 25.1 38.39 25.47 38.54 25.25"/>
  <path class="cls-8" d="M38.24,25.85l-.42-.87h-.78s-.56,.31-.56,.31c.63-.19,1.39,.02,1.76,.56Zm-.72-.69l.23,.22-.24-.11v-.11Z"/>
  <polygon points="37.53 25.16 37.52 25.27 37.76 25.38 37.53 25.16"/>
  <polygon class="cls-4" points="36.53 26.15 36.51 25.44 36.29 25.75 36.29 26.7 36.12 27.07 36.41 27.42 36.71 27.07 36.53 26.76 36.53 26.15"/>
  <polygon class="cls-8" points="37.27 25.88 37.83 26.32 38.1 25.99 37.27 25.88"/>
  <polygon class="cls-6" points="29.44 29.49 30.1 28.81 30.12 28.55 30.33 28.14 30.51 28.23 30.32 28.64 30.36 28.93 30.92 29.78 31.41 29.28 31.54 29.05 31.7 28.64 31.92 28.7 31.77 29.25 32.15 29.73 32.73 30.21 32.73 28.55 32.65 28.47 32.01 28.04 30.84 27.04 30.69 27.14 29.14 28.66 29.09 28.81 29.38 29.45 29.44 29.49"/>
  <polygon class="cls-6" points="47.71 29.28 47.74 29.05 47.58 28.7 47.78 28.63 47.95 29.05 48.09 29.26 48.57 29.78 49.14 28.92 49.18 28.68 48.97 28.21 49.17 28.14 49.35 28.42 49.38 28.8 50.08 29.51 50.43 28.75 49.62 27.84 48.66 27.05 47.51 28.02 46.77 28.5 46.75 30.2 47.05 30.04 47.71 29.28"/>
  <polygon class="cls-6" points="29.14 30.74 29.14 29.84 29.01 29.51 28.8 29.17 28.65 29.73 28.65 31.24 29.05 30.87 29.14 30.74"/>
  <polygon class="cls-6" points="50.37 30.79 50.85 31.22 50.85 29.73 50.68 29.16 50.37 29.74 50.37 30.79"/>
  <path class="cls-6" d="M49.38,29.32l-.55,.83v.66l.55,.5c0-.66,0-1.32,0-1.98Z"/>
  <path class="cls-6" d="M30.11,29.32c0,.66,0,1.32,0,1.99l.55-.51v-.58l-.1-.22-.45-.67Z"/>
  <path class="cls-6" d="M29.9,31.3c0-.61,0-1.23,0-1.84l-.56,.58v.76s.56,.5,.56,.5Z"/>
  <path class="cls-6" d="M50.15,30.04l-.22-.24-.34-.33c0,.61,0,1.22,0,1.83l.56-.5v-.76Z"/>
  <polygon class="cls-6" points="31.65 31.36 32.27 30.81 32.48 30.52 31.65 29.6 31.65 31.36"/>
  <polygon class="cls-6" points="47.01 30.52 47.22 30.81 47.85 31.36 47.84 29.61 47.01 30.52"/>
  <polygon class="cls-6" points="30.87 30.25 30.87 30.79 31.44 31.3 31.44 29.69 30.95 30.15 30.87 30.25"/>
  <polygon class="cls-6" points="48.05 31.3 48.61 30.8 48.61 30.21 48.05 29.69 48.05 31.3"/>
  <path class="cls-6" d="M46.6,32.62l.48,.45c0-.6,0-1.19,0-1.78l-.04-.19-.22-.36-1.04,1.32-.59-.6-.07,.05-.44,.56-.71-.57-1.12,.21,.6,.37-1-.12-.55-.2-.68-.45,.43,.76c-.6-.04-1.19-.31-1.55-.79l-.37,.64-.34-.64c-.39,.47-.96,.75-1.56,.79l.41-.76-.77,.5-1.45,.27,.62-.37-1.12-.21-.72,.57-.49-.61-.13,.07-.49,.55-.82-.98-.22-.34-.24,.43v.96c4.87,0,9.75,0,14.62,0l-.44,.48Z"/>
  <polygon class="cls-6" points="34.55 31.01 33.67 30.78 33.19 30.81 33.64 31.65 34.55 31.01"/>
  <polygon class="cls-6" points="46.15 31.18 46.3 30.8 45.77 30.78 44.98 31 44.98 31.03 45.85 31.66 46.15 31.18"/>
  <polygon class="cls-6" points="34.79 31.76 35.5 31.5 34.56 31.02 34.65 31.55 34.79 31.76"/>
  <polygon class="cls-6" points="44.81 31.64 44.94 31.02 44.11 31.43 44.01 31.5 44.67 31.74 44.81 31.64"/>
  <polygon class="cls-6" points="29.13 33.06 29.14 32.56 29.13 31.45 28.65 31.89 28.65 32.63 29.13 33.06"/>
  <polygon class="cls-6" points="30.11 32.56 30.66 33.06 30.66 31.45 30.11 31.97 30.11 32.56"/>
  <polygon class="cls-6" points="31.39 32.61 31.44 32.52 31.44 32.01 31.37 31.9 30.88 31.45 30.87 33.07 31.39 32.61"/>
  <polygon class="cls-6" points="49.6 32.56 50.15 33.06 50.15 31.46 49.6 31.97 49.6 32.56"/>
  <polygon class="cls-6" points="50.85 31.9 50.37 31.45 50.37 33.07 50.85 32.62 50.85 31.9"/>
  <polygon class="cls-6" points="29.9 32.56 29.9 32 29.81 31.88 29.34 31.46 29.34 33.06 29.66 32.78 29.9 32.56"/>
  <polygon class="cls-6" points="31.65 32.02 31.65 32.52 31.72 32.62 32.21 33.07 32.21 31.47 32.12 31.56 31.65 32.02"/>
  <polygon class="cls-6" points="47.29 31.47 47.29 33.06 47.85 32.56 47.84 32.01 47.29 31.47"/>
  <polygon class="cls-6" points="48.05 32.53 48.21 32.7 48.61 33.06 48.61 31.47 48.05 31.97 48.05 32.53"/>
  <polygon class="cls-6" points="48.83 33.07 49.38 32.55 49.38 31.97 48.83 31.46 48.83 33.07"/>
  <path class="cls-4" d="M44.56,45.71l.24-.12,.98-.62,.63-.77,.05-.7v-10.35l.14-.53,.44-.48c-4.87,0-9.75,0-14.62,0h0s.48,.5,.48,.5l.14,.52c0,3.45,0,6.9,0,10.36l.05,.72,.37,.52,1.24,.84,.25,.13,1.46,.68,.36,.16,1.35,.6,.33,.15,.88,.56,.41,.42,.58-.56,.7-.41,.35-.16,1.31-.59,.4-.18,1.47-.69Zm-3.68,1.27l-1.14,.75-.69-.52-1.6-.75c-.7-.31-1.4-.6-2.08-.93l-1.36-.79-.54-.59-.09-.32c0-1.55,0-3.11,0-4.66h0c0-2.03,0-4.06,0-6.09l-.17-.59h13.05l-.13,.32-.03,.55v5.82s0,0,0,0c.01,1.55,0,3.09,0,4.63l-.35,.71-1.62,1.01c-1.06,.52-2.17,.96-3.24,1.47Z"/>
  <polygon class="cls-6" points="32.42 33.06 32.9 32.63 32.42 32.14 32.42 33.06"/>
  <path class="cls-8" d="M35.95,38.54l1.37,.54,.09-.15c-.69-.22-1.33-.64-1.75-1.24-.36-.52-.53-1.15-.52-1.77,0-.6,.26-1.18,.64-1.63l1.36-1.23,.35-.38-.21,1.13-.43,1.14v1.64l.73,.82,.48,.12,.38,.19,.64-.32,.52,.31,.48-.12,.36-.19,.59,.32,.23-.13,.41-.1,.73-.46,.35-1.33c-.02-.64-.28-1.23-.52-1.81l-.24-1.23,.59,.57c.62,.5,1.24,1.04,1.57,1.77l.13,1.62-.74,1.41-1.45,.89,.08,.15,.53-.15,1.4-.86c.58,.5,1.27,.87,2.01,1.1v-.42c0-1.8,0-3.59,0-5.39l.03-.55,.13-.32h-13.05l.17,.59c0,2.03,0,4.06,0,6.09,.73-.23,1.43-.6,2-1.1l.57,.47Zm2.34-5.11l1.06,.5,.4-1.11,.4,1.1,1.08-.51-.36,.77-.14,.3,1.08,.39h0s-1.07,.39-1.07,.39l.12,.29,.37,.79-1.07-.5-.4,1.1-.4-1.11-1.06,.5,.49-1.07-1.11-.4,1.11-.38-.49-1.07Z"/>
  <path d="M36.06,39.77l1.24-.66-.53,.98,1.12,.28,.51,.39,.34,1.12v1.3s-.08,.76-.08,.76l-.27,.53-.57,.42v.77s.7,.4,.7,.4l.75,.54,.93,.02,.67-.47,.8-.47,.02-.79-.73-.67-.2-1.26,.03-1.16,.33-1.04,.72-.48,.89-.17-.54-.99,.87,.43,1.05,.79c.62-.46,1.3-.84,1.99-1.17h.01c-.73-.23-1.43-.6-2.01-1.1l-1.4,.86-.53,.15-.08-.15,1.45-.89,.74-1.41-.13-1.62c-.32-.73-.95-1.27-1.57-1.77l-.59-.57,.24,1.23c.24,.58,.5,1.17,.52,1.81l-.35,1.33-.73,.46-.41,.1-.23,.13-.59-.32-.36,.19-.48,.12-.52-.31-.64,.32-.38-.19-.48-.12-.73-.82v-1.64l.43-1.14,.21-1.13-.35,.38-1.36,1.23c-.38,.46-.64,1.03-.64,1.63,0,.62,.16,1.25,.52,1.77,.41,.6,1.05,1.02,1.75,1.24l-.09,.15-1.37-.54-.57-.47c-.58,.5-1.27,.87-2,1.1h0c.7,.33,1.39,.71,2,1.17l.68-.56Zm6.9-.64l1.16-.72,1.31,.77-1.09,.66-.22,.19-1.15-.88v-.02Zm-5.17-.38l-1.23-.63-.94-1.34-.11-.95,.7-1.56,.87-.86,.1-.05-.19,.53c-.27,.59-.56,1.22-.59,1.88l.3,1.26,.86,.7,.46,.06,.46,.21,.53-.27,.3,.12,.47,.18,.43-.19,.29-.11,.49,.28,.58-.22,.49-.09,.8-.72,.24-1.39-.54-1.62-.22-.59,.08,.04,1.13,1.2,.46,1.16-.31,1.5-1.23,1.19-.75,.3,.51,1.16-1.04,.38-.35,.38-.31,1.31-.03,1.12,.16,1.24,.63,.56,.3,.37-.19,.31-.59,.28-.67,.45h-.73l-.65-.43-.65-.33-.14-.32,.34-.35,.57-.51,.15-1.03c0-.71,.02-1.43-.13-2.13l-.31-.71-.44-.33-.84-.27,.52-1.16Zm-2.56,1.15l-.89-.56-.27-.16,1.3-.77,1.18,.72-.83,.55-.35,.35-.14-.13Z"/>
  <path d="M38.78,35.29l-.49,1.07,1.06-.5,.4,1.11,.4-1.1,1.07,.5-.37-.79-.12-.29,1.07-.38h0s-1.08-.4-1.08-.4l.14-.3,.36-.77-1.08,.51-.4-1.1-.4,1.11-1.06-.5,.49,1.07-1.11,.38,1.11,.4Zm.04-1.32l.67,.32,.26-.69,.24,.69,.68-.32-.32,.67,.7,.25-.7,.25,.32,.67-.68-.33-.24,.7-.26-.7-.67,.33,.32-.67-.71-.25,.71-.25-.32-.67Z"/>
  <path class="cls-6" d="M32.32,33.82l-.6-.53c0,3.9,0,7.8,0,11.7l.07,.28-.07,.31v.41s.6-.72,.6-.72l.13,.22c.24-.65,.41-1.32,.59-1.98,0-3.46,0-6.91,0-10.36l-.72,.67Z"/>
  <path class="cls-6" d="M46.9,45.06l.53,1.33,.34,.48c0-2.86,0-5.71,0-8.56,0-1.68,0-3.36,0-5.03l-.59,.54-.73-.67v10.35l.44,1.56Z"/>
  <path class="cls-6" d="M30.74,33.79l-.57-.52c0,2.94,0,5.88,0,8.83l.25,.37,.39-.33,.25,.8,.31-.26c0-3.14,0-6.28,0-9.41l-.56,.52h-.07Z"/>
  <path class="cls-6" d="M49.77,33.36l-.1-.08c0,2.49,0,4.99,0,7.48,0,1.28-.01,2.55,0,3.83l.06-.11-.02-.23,.21-.21,.05-.37,.26-.14v-.22l.13-.16,.26-.4,.22-.46c0-3.01,0-6.01,0-9.01l-.59,.55-.5-.46Z"/>
  <path class="cls-6" d="M29.01,39.36l.24,.66,.43-.41,.14,.39v-6.71l-.6,.53-.58-.53v5.78l.2,.05,.17,.24Z"/>
  <path class="cls-6" d="M48.13,33.28c0,4.24,0,8.46,0,12.7l-.02,1.2,.45-.38,.74-1.45,.02-.11v-11.95l-.61,.53-.58-.54Z"/>
  <path class="cls-4" d="M38.12,40.17l.44,.33,.31,.71c.16,.7,.13,1.41,.13,2.13l-.15,1.03-.57,.51-.34,.35,.14,.32,.65,.33,.65,.43h.73l.67-.45,.59-.28,.19-.31-.3-.37-.63-.56-.16-1.24,.03-1.12,.31-1.31,.35-.38,1.04-.38-.51-1.16,.75-.3,1.23-1.19,.31-1.5-.46-1.16-1.13-1.2-.08-.04,.22,.59,.54,1.62-.24,1.39-.8,.72-.49,.09-.58,.22-.49-.28-.29,.11-.43,.19-.47-.18-.3-.12-.53,.27-.46-.21-.46-.06-.86-.7-.3-1.26c.03-.66,.32-1.29,.59-1.88l.19-.53-.1,.05-.87,.86-.7,1.56,.11,.95,.94,1.34,1.23,.63-.52,1.16,.84,.27Zm2.4,4.96l.14-.02,.55,.09,.14,.13-.08,.14-.58,.11-.28-.09,.1-.37Zm-1.72,.45l-.62-.12-.02-.2,.37-.11h.41s.13,.35,.13,.35l-.28,.09Z"/>
  <polygon class="cls-1" points="27.47 37.79 26.91 37.33 27.01 38.03 27.58 38.5 27.47 37.79"/>
  <polygon class="cls-1" points="28.18 38.25 27.91 37.45 27.8 37.88 28 38.87 28.18 38.25"/>
  <polygon class="cls-4" points="53.65 37.44 53.16 37.76 53.65 38 53.65 37.44"/>
  <polygon class="cls-4" points="53.11 37.99 53.08 38.4 53.5 38.28 53.11 37.99"/>
  <polygon class="cls-2" points="53.54 38.46 53.3 38.58 53.78 39.22 53.78 38.13 53.6 38.16 53.54 38.46"/>
  <polygon class="cls-4" points="36.56 39.13 35.38 38.41 34.08 39.18 34.34 39.34 35.23 39.9 35.38 40.03 35.73 39.68 36.56 39.13"/>
  <polygon class="cls-4" points="44.34 39.84 45.43 39.18 44.12 38.41 42.96 39.13 42.96 39.15 44.12 40.03 44.34 39.84"/>
  <polygon class="cls-1" points="27.59 39.25 27.24 38.65 26.57 38.45 26.92 38.97 27.59 39.25"/>
  <polygon class="cls-4" points="52.24 39.71 52.45 38.67 52.91 38.53 52.19 38.51 52.17 39.6 51.78 40.1 51.94 40.27 52.24 39.71"/>
  <polygon class="cls-4" points="52.53 38.87 52.36 39.67 52.01 40.34 52.24 40.46 52.53 39.87 53.1 39.21 53.21 39.02 53.05 38.6 52.59 38.73 52.53 38.87"/>
  <polygon class="cls-4" points="53.34 39.08 53.29 39.18 52.68 39.81 52.47 40.2 52.36 40.47 52.56 40.51 52.6 40.22 52.8 39.86 53.62 39.24 53.19 38.67 53.34 39.08"/>
  <path class="cls-9" d="M45.75,44.5l.35-.71c0-1.54,0-3.08,0-4.63-.69,.33-1.37,.71-1.99,1.17l-1.05-.79-.87-.43,.54,.99-.89,.17-.72,.48-.33,1.04-.03,1.16,.2,1.26,.73,.67-.02,.79-.8,.47-.67,.47-.93-.02-.75-.54-.72-.4v-.77s.58-.42,.58-.42l.27-.53,.09-.76v-1.3s-.35-1.12-.35-1.12l-.51-.39-1.12-.28,.53-.98-1.24,.66-.68,.56c-.61-.46-1.3-.84-2-1.17,0,1.55,0,3.11,0,4.66l.09,.32,.54,.59,1.36,.79c.68,.33,1.38,.62,2.08,.93l1.6,.75,.69,.52,1.14-.75c1.07-.51,2.18-.95,3.24-1.47l1.62-1.01Zm-8.51-.29l-.77,.58-.41-.24-.38,.48-.73-.12-.08-.83-.51-.16-.17-.76,.78-.36-.06-.38,.66-.56,.63,.61,.42-.16,.65,.38-.11,.69-.26,.19,.34,.62Zm.65-3.64l.56,.55-.54,.53-.55-.53,.53-.55Zm-.21,2.22l-.29-1.13,.96,.19,.19,.18,.14,.81-.06,1.02-.92,.96c.07-.67,.09-1.34-.02-2.01Zm4.07,1.54l.05,.47-.87-.82-.11-.64,.02-.94,.18-.51,.17-.06,.9-.18c-.3,.85-.42,1.77-.34,2.68Zm-.16-2.68l-.55-.55,.55-.56,.55,.55-.55,.55Zm1.94,3.48l-1-.66-.25-1.09,.64-.87,1.11-.11,1.02,.76-.97,.08-.74,.88,.19,1.02Z"/>
  <polygon class="cls-1" points="28.79 40.44 29 40.94 28.92 39.7 28.79 40.44"/>
  <polygon class="cls-4" points="28.19 40.03 28.54 40.77 28.82 41.16 28.9 41.11 28.67 40.56 28.28 39.84 28.16 39.79 28.19 40.03"/>
  <polygon class="cls-1" points="29.24 40.77 29.39 41.7 29.57 41.49 29.8 40.83 29.56 40.09 29.24 40.77"/>
  <polygon class="cls-4" points="50.61 43.13 50.82 43.23 50.93 43.11 51.55 41.89 52.15 40.87 52.2 40.74 51.84 40.52 51.7 40.8 51.29 41.66 50.63 42.96 50.61 43.13"/>
  <path d="M38.45,41.13l-.56-.55-.53,.55,.55,.53,.54-.53Zm-.83-.01l.28-.28,.28,.28-.28,.28-.28-.29Z"/>
  <path d="M41.04,41.12l.55,.55,.55-.55-.55-.55-.55,.56Zm.84,0l-.28,.27-.29-.28,.29-.28,.28,.29Z"/>
  <polygon class="cls-1" points="28.53 41.25 28.17 40.9 27.18 40.63 27.53 40.96 28.53 41.25"/>
  <polygon class="cls-4" points="37.9 40.84 37.62 41.12 37.9 41.41 38.17 41.13 37.9 40.84"/>
  <polygon class="cls-4" points="41.61 41.39 41.88 41.13 41.61 40.83 41.32 41.11 41.61 41.39"/>
  <polygon class="cls-1" points="27.3 41.31 27.92 41.81 28.59 41.86 28.05 41.42 27.3 41.31"/>
  <polygon class="cls-6" points="29.58 42.28 29.83 42.21 29.83 41.58 29.47 42.01 29.58 42.28"/>
  <path d="M38.62,43.85l.06-1.02-.14-.81-.19-.18-.96-.19,.29,1.13c.11,.66,.09,1.33,.02,2.01l.92-.96Zm-.87-1.88l.55,.11,.16,.93-.06,.76-.41,.48c0-.77-.04-1.54-.24-2.29Z"/>
  <path d="M41.2,41.84l-.17,.06-.18,.51-.02,.94,.11,.64,.87,.82-.05-.47c-.08-.91,.05-1.82,.34-2.68l-.9,.18Zm.35,1.39l-.04,1.03-.39-.45-.07-.79,.17-.93,.53-.12-.19,1.26Z"/>
  <path d="M37.27,42.71l-.65-.38-.42,.16-.63-.61-.66,.56,.06,.38-.78,.36,.17,.76,.51,.16,.08,.83,.73,.12,.38-.48,.41,.24,.77-.58-.34-.62,.26-.19,.11-.69Zm-2.06-.38l.52-.16,.31,.65-.76,.17-.12-.07,.04-.59Zm1.08,1.18l-.48,.48-.48-.48,.48-.48,.48,.48Zm-1.52,.42l-.33-.66,.78-.21-.06,.82-.39,.05Zm1.13,.67l-.62,.19-.27-.64,.19-.22,.76,.3-.06,.38Zm1.03-.76l-.28,.7-.64-.34,.53-.63,.39,.27Zm-.39-.31l-.44-.7,.49-.29,.47,.6-.51,.39Z"/>
  <polygon class="cls-6" points="28.65 42.74 28.88 42.64 29.16 42.46 28.94 41.96 28.65 42.02 28.65 42.74"/>
  <polygon class="cls-4" points="41.21 42.09 41.04 43.02 41.12 43.82 41.51 44.26 41.55 43.24 41.74 41.97 41.21 42.09"/>
  <path class="cls-4" d="M38.39,43.78l.06-.76-.16-.93-.55-.11c.2,.75,.25,1.52,.24,2.29l.41-.48Z"/>
  <polygon class="cls-4" points="36.04 42.82 35.73 42.18 35.21 42.33 35.16 42.92 35.28 42.99 36.04 42.82"/>
  <path d="M45.06,43.16l-1.02-.76-1.11,.11-.64,.87,.25,1.09,1,.66-.19-1.02,.74-.88,.97-.08Zm-1.88,.57l-.15,.81-.46-.75,.31-.89,1.26-.14,.18,.1-1.14,.86Z"/>
  <polygon class="cls-6" points="29.83 42.63 29.72 42.56 29.83 42.8 29.83 42.63"/>
  <polygon class="cls-4" points="36.09 42.84 36.54 43.54 37.05 43.15 36.58 42.55 36.09 42.84"/>
  <polygon class="cls-4" points="29.53 42.63 29.42 42.59 29.46 42.81 29.94 43.79 30.23 44.39 30.38 44.41 30.31 44.18 29.77 43.06 29.53 42.63"/>
  <polygon class="cls-1" points="30.85 43.26 30.71 42.58 30.48 42.85 30.27 43.64 30.57 44.11 30.66 43.65 30.85 43.26"/>
  <polygon class="cls-4" points="44.14 42.77 42.88 42.91 42.57 43.8 43.03 44.55 43.18 43.73 44.32 42.87 44.14 42.77"/>
  <polygon class="cls-6" points="28.65 43.72 29.43 43.75 29.83 43.95 29.78 43.79 29.29 42.72 29.22 42.89 28.91 43.29 28.65 43.21 28.65 43.72"/>
  <polygon class="cls-4" points="35.22 43.07 34.44 43.28 34.77 43.93 35.16 43.89 35.22 43.07"/>
  <polygon class="cls-1" points="31.34 44.08 31.29 43.08 30.77 44.28 30.88 44.77 31.34 44.08"/>
  <polygon class="cls-4" points="50.82 43.55 50.37 43.28 50.32 43.47 50.79 43.61 50.82 43.55"/>
  <polygon class="cls-4" points="36 44.22 36.65 44.56 36.93 43.85 36.54 43.59 36 44.22"/>
  <polygon class="cls-4" points="50.63 43.94 50.12 43.69 50.06 43.96 50.55 44.14 50.63 43.94"/>
  <path class="cls-6" d="M50.73,44.08l-.26,.24-.03,.26-.2,.11-.54,1.05-.04,.3v2.64l.2,.61,.59,.8,.4,.36v-6.77l-.15,.09,.03,.31Z"/>
  <polygon class="cls-1" points="30.28 44.69 29.69 44.05 28.76 43.82 29.23 44.43 29.84 44.48 30.28 44.69"/>
  <polygon class="cls-4" points="35 44.16 35.27 44.79 35.89 44.61 35.95 44.23 35.19 43.93 35 44.16"/>
  <polygon class="cls-6" points="28.65 44.59 29.05 44.44 28.65 44.01 28.65 44.59"/>
  <polygon class="cls-4" points="49.86 44.37 50.29 44.54 50.32 44.36 49.9 44.2 49.86 44.37"/>
  <polygon class="cls-6" points="31.37 44.97 31.37 44.55 30.84 45.01 30.91 45.16 31.37 44.97"/>
  <polygon class="cls-1" points="28.73 44.77 29.42 45.09 30.26 44.97 30.23 44.89 29.26 44.6 28.75 44.73 28.73 44.77"/>
  <path class="cls-4" d="M48.86,47.16c.35-.73,.73-1.43,1.09-2.16l.1-.3h-.31c-.38,.73-.77,1.48-1.14,2.22l-.36,.33-.38,.48,.06,.43,.48,.17,.43-.54,.03-.63Z"/>
  <path class="cls-6" d="M29.83,47.33l-.39-.66,.39,.03v-1.49h-.48l-.7-.28c0,1.83,0,3.67,0,5.51l.34-.3,.69-.92,.15-.48v-.74l-.36-.29,.37-.13v-.25Z"/>
  <polygon points="38.54 45.14 38.17 45.25 38.19 45.45 38.81 45.58 39.09 45.49 38.96 45.13 38.54 45.14"/>
  <polygon points="41.28 45.47 41.36 45.33 41.22 45.2 40.67 45.11 40.52 45.13 40.42 45.5 40.7 45.59 41.28 45.47"/>
  <polygon class="cls-6" points="30.18 45.64 30.52 45.42 30.4 45.13 30.18 45.2 30.18 45.64"/>
  <polygon class="cls-4" points="30.83 45.3 30.66 45.13 30.85 45.76 31.41 47.03 32.09 48.39 32.31 48.66 32.22 48.35 31.49 46.74 30.83 45.3"/>
  <polygon class="cls-6" points="31.17 45.74 31.37 46.16 31.38 45.62 31.04 45.41 31.17 45.74"/>
  <polygon class="cls-1" points="32.18 47.07 32.5 46.69 32.32 45.73 32.26 45.64 32.02 45.9 31.79 46.53 32.09 47.36 32.18 47.07"/>
  <polygon class="cls-6" points="31.32 47.15 30.67 45.74 30.59 45.74 30.54 46.08 30.17 46.3 30.17 46.76 30.69 46.89 31.32 47.15"/>
  <polygon class="cls-6" points="43.9 47.24 44.07 46.66 44.5 46.89 44.59 46.41 45.07 46.51 44.56 45.71 43.09 46.4 43.9 47.24"/>
  <polygon class="cls-6" points="34.43 46.52 34.91 46.41 35 46.9 35.44 46.68 35.59 47.24 36.41 46.4 34.95 45.71 34.43 46.52"/>
  <polygon class="cls-1" points="32.28 47.73 32.88 47.25 33.03 46.47 32.44 46.99 32.28 47.73"/>
  <path class="cls-6" d="M48.94,47.85l-.44,.59,.82,.81c0-.92,0-1.83,0-2.75l-.34,.67-.03,.69Z"/>
  <path class="cls-8" d="M31.53,49.52l.1,.19,.47-.23,.62-.1,.39-.14-.41,.69,.41-.17-.02,.37,.19,.24,.35-.77c.57-.76,1.13-1.52,1.69-2.27l-.06-.35-.44,.3-.13-.53-.12,.04c-.47,.71-.93,1.44-1.41,2.15l-.61,.06-.63,.18-.38,.32Z"/>
  <path class="cls-8" d="M47.17,49.01h-.72s-.2-.2-.2-.2c-.44-.66-.87-1.33-1.31-2l-.13-.04-.06,.44-.08,.07-.41-.27-.07,.32,.29,.39c.5,.68,1,1.36,1.5,2.02l.27,.66,.18-.22v-.38s.38,.16,.38,.16l-.4-.7,.23,.11,.45,.06,.64,.24,.16,.07,.11-.17-.23-.23-.58-.3Z"/>
  <polygon class="cls-1" points="31.34 47.39 29.84 46.97 30.42 47.56 31.7 47.75 31.34 47.39"/>
  <path d="M41.8,49.01c.44,.91,.92,1.8,1.49,2.64,.41,.6,.85,1.19,1.42,1.64l-1.42,.52c-.62-.73-1.15-1.53-1.65-2.35-.55-.86-.86-1.84-1.17-2.81l-.05,.86c.08,.9,.28,1.78,.53,2.64,.24,.8,.53,1.58,.93,2.32-.76,.39-1.53,.82-2.15,1.42l-.5-.43-1.64-.98c.59-1.11,.97-2.3,1.24-3.51l.22-1.63-.06-.66c-.31,.96-.62,1.95-1.17,2.81-.51,.81-1.03,1.61-1.65,2.33l-1.41-.52,.77-.77c.56-.67,1.02-1.42,1.45-2.19,.53-.97,1.02-1.98,1.45-3.02l-.33-.15c-.48,1.04-1.01,2.05-1.6,3.03-.47,.78-.99,1.54-1.62,2.21l-1.23,.93c.87,.38,1.73,.8,2.56,1.25,.65-.79,1.22-1.64,1.78-2.5l-.12,.54c-.24,.63-.57,1.22-.92,1.8l-.26,.43c.66,.38,1.33,.78,1.93,1.26l1.09,1.15h-.03s.04,0,.04,0l1.13-1.18c.6-.47,1.24-.86,1.9-1.23-.39-.66-.79-1.32-1.09-2.04l-.2-.74,.46,.7c.42,.61,.83,1.23,1.32,1.8,.83-.46,1.7-.86,2.56-1.25l-1.46-1.18-1.23-1.69c-.56-.9-1.05-1.83-1.51-2.78l-.24-.51-.35,.16,.78,1.68Z"/>
  <path class="cls-6" d="M35.55,52.52l-.77,.77,1.41,.52c.62-.72,1.14-1.52,1.65-2.33,.55-.86,.86-1.84,1.17-2.81l.06,.66-.22,1.63c-.27,1.21-.66,2.41-1.24,3.51l1.64,.98,.5,.43c.62-.6,1.39-1.02,2.15-1.42-.4-.74-.7-1.52-.93-2.32-.26-.86-.45-1.75-.53-2.64l.05-.86c.31,.97,.63,1.95,1.17,2.81,.5,.81,1.03,1.62,1.65,2.35l1.42-.52c-.57-.45-1.02-1.04-1.42-1.64-.57-.84-1.05-1.73-1.49-2.64l-.78-1.68-.7,.41-.58,.56-.41-.42-.88-.56c-.43,1.04-.92,2.05-1.45,3.02-.43,.77-.9,1.52-1.45,2.19Z"/>
  <polygon class="cls-1" points="29.97 47.78 30.55 48.23 31.61 48.19 31.08 47.86 29.97 47.78"/>
  <polygon class="cls-6" points="30.18 49.25 30.92 48.52 30.17 48.23 30.18 49.25"/>
  <polygon class="cls-4" points="47.55 48.74 48.05 48.99 48.15 48.71 47.7 48.49 47.55 48.74"/>
  <polygon class="cls-8" points="31.92 49.68 31.7 49.86 31.76 49.97 31.99 49.77 31.92 49.68"/>
  <polygon class="cls-8" points="47.8 49.86 47.56 49.65 47.47 49.73 47.75 49.98 47.8 49.86"/>
  <polygon class="cls-8" points="32.12 49.84 31.83 50.08 31.53 50.38 31.77 50.54 32.28 50.09 32.12 49.84"/>
  <polygon class="cls-8" points="47.38 49.84 47.19 50.07 47.62 50.47 47.78 50.56 47.96 50.34 47.62 50.04 47.38 49.84"/>
  <polygon class="cls-8" points="32.58 50.4 32.37 50.19 32.01 50.48 31.8 50.71 32.01 50.88 32.29 50.66 32.58 50.4"/>
  <polygon class="cls-8" points="46.98 50.17 46.95 50.43 47.45 50.86 47.66 50.63 47.19 50.23 46.98 50.17"/>
  <polygon class="cls-8" points="32.25 50.86 32.12 51.02 32.37 51.17 32.7 50.88 32.92 50.62 32.69 50.48 32.25 50.86"/>
  <polygon class="cls-8" points="46.68 50.49 46.63 50.75 47.08 51.13 47.22 51.19 47.33 50.92 46.86 50.52 46.68 50.49"/>
  <polygon class="cls-4" points="33.2 51.84 33.9 52.22 34.07 51.45 33.38 51.07 33.2 51.84"/>
  <polygon class="cls-4" points="46.58 51.47 46.75 51.39 46.31 51.2 46.58 51.47"/>
  <polygon class="cls-4" points="46.03 52.31 46.63 51.89 46.69 51.8 46.03 51.47 46.03 52.31"/>
  <path class="cls-4" d="M38.94,25.85l.32-.32-.35-.36-.36,.36,.34,.33,.02,.02,.03-.03Zm-.03-.49l.16,.17-.16,.17-.17-.17,.17-.17Z"/>
  <polygon points="39.07 25.53 38.91 25.35 38.74 25.53 38.91 25.69 39.07 25.53"/>
  <polygon class="cls-4" points="35.8 44 36.28 43.52 35.8 43.04 35.32 43.52 35.8 44"/>
  <polygon class="cls-4" points="29.9 42.42 30.09 42.6 30.27 42.42 30.09 42.23 29.9 42.42"/>
  <polygon class="cls-4" points="31.64 45.28 31.45 45.11 31.27 45.28 31.45 45.47 31.64 45.28"/>
  <polygon class="cls-4" points="28.7 42.96 28.88 43.14 29.07 42.96 28.88 42.78 28.7 42.96"/>
  <polygon class="cls-4" points="30.4 45.97 30.22 45.79 30.04 45.97 30.22 46.15 30.4 45.97"/>
  <polygon class="cls-4" points="33.04 48.35 32.85 48.16 32.67 48.35 32.85 48.54 33.04 48.35"/>
  <polygon class="cls-4" points="31.81 48.82 31.63 48.64 31.44 48.82 31.63 49.01 31.81 48.82"/>
  <polygon class="cls-4" points="27.25 39.94 27.43 40.12 27.62 39.94 27.43 39.75 27.25 39.94"/>
  <polygon class="cls-4" points="28.81 39.39 28.63 39.21 28.45 39.39 28.63 39.57 28.81 39.39"/>
  <polygon class="cls-4" points="39.14 35.15 38.82 35.82 39.49 35.49 39.75 36.19 39.99 35.49 40.67 35.82 40.35 35.15 41.04 34.89 40.35 34.64 40.67 33.97 39.99 34.29 39.75 33.6 39.49 34.29 38.82 33.97 39.14 34.64 38.44 34.89 39.14 35.15"/>
</svg>