<?xml version="1.0" encoding="UTF-8"?>
<svg id="Layer_1" data-name="Layer 1" xmlns="http://www.w3.org/2000/svg" viewBox="0 0 80 80">
  <defs>
    <style>
      .cls-1 {
        fill: #d4af3c;
      }

      .cls-2 {
        fill: #b66a29;
      }

      .cls-3 {
        fill: #1d5e90;
      }

      .cls-4 {
        stroke: #d4af3c;
      }

      .cls-4, .cls-5 {
        fill: none;
        stroke-linecap: round;
        stroke-linejoin: round;
        stroke-width: 0px;
      }

      .cls-6 {
        fill: #6e8b3d;
      }

      .cls-7 {
        fill: #c32126;
      }

      .cls-5 {
        stroke: #b66a29;
      }
    </style>
  </defs>
  <path class="cls-7" d="M44.1,19.98l.6,.26,.73-.26-.02-1.7c-.13-.67-.74-1.06-1.24-1.43,.37,.72,.8,1.51,.59,2.36l-.66,.77Z"/>
  <path class="cls-7" d="M32.13,27.12h0c-.86-.63-1.99-.75-3.01-.55l-1.64,.11-.89-1.1-.08,.08,.02,.95,1.09,.74c.95,.1,1.78-.51,2.72-.46l1.16,.51h.2s.43-.27,.43-.27Z"/>
  <path class="cls-7" d="M41.79,20.03l.97-.41c-.16-.6,.27-1.19,.04-1.77-.23-.79-.94-1.33-1.65-1.68,0,.78,.23,1.53,.25,2.31l-.53,1.21,.92,.34Z"/>
  <path class="cls-7" d="M41.1,31.97l-.45-.35-.2-.92c.8-.32,1.42-.93,1.98-1.55l-.66-.91c.8-.24,1.45-.74,2.06-1.29l-.58-.45,.3-.27,1.41-.93-.85-.62-.38-.96c-.95,.2-1.91,.4-2.88,.44-1.43,.13-2.85-.09-4.23-.47l-.28,.88-.94,.74,.97,.74,.81,.38-.62,.54,1.18,.9,.85,.39-.63,.9c.56,.63,1.18,1.25,1.99,1.57l-.21,.89-.47,.37,.95,1.34,.88-1.36Z"/>
  <path class="cls-7" d="M37.69,17.73c-.27,.62,.15,1.26,.02,1.89l.81,.41,1.08-.35-.54-1.38c.08-.71,.22-1.41,.25-2.13-.66,.34-1.34,.85-1.62,1.57Z"/>
  <path class="cls-7" d="M35.04,18.2l-.06,1.78,.81,.26,.54-.26-.63-.76c-.21-.84,.22-1.62,.57-2.35-.51,.33-1.1,.69-1.24,1.33Z"/>
  <path class="cls-7" d="M48.72,27.44l1.26-.55c.94-.05,1.77,.56,2.72,.46l1.09-.74,.02-.95-.07-.08-.9,1.1-1.63-.11c-1.02-.2-2.15-.08-3.01,.55l.53,.32Z"/>
  <path class="cls-7" d="M21.47,51.84l.03,.86,.66,.88c.42,.66,.58,1.42,.68,2.17,.59,.03,1.18,.12,1.77,.1,.84-.03,1.72,.11,2.49-.27l.88-.56-1.04-.35-.04-.16,1.19-.76-.76-.58,.1-.18c.61-.2,1.27-.26,1.85-.53l-.39-.73c.81-.18,1.69-.3,2.35-.86l1.18-1.52-1.26,.8-1.14-.15,.82-1.34-.8,.78-.73,.36-1.59,.02-1.05-.5,.73-.62-1.56,.2-1.43-.3-1.01-.88c.62-.13,1.27-.23,1.81-.57l-1.63,.21c-.61,.03-1.22-.17-1.74-.49l-.5-.94,1.76-.55c-1.05,.24-2.19,.06-3.11-.53-.43-.4-.77-.99-.69-1.61,.95,.2,1.93,.37,2.9,.2-.81-.08-1.63-.1-2.41-.34l-1.6-.98,.04,1.75,.51,1.68c.42,.83,.93,1.59,1.35,2.39,.52,.96,.67,2.07,.7,3.16l.66,.75Z"/>
  <polygon class="cls-7" points="17.23 41.42 17.53 41.99 18.01 41.75 17.83 41.31 17.23 41.42"/>
  <path class="cls-7" d="M60,80c11.05,0,20-8.95,20-20V20c0-11.05-8.95-20-20-20H20C8.95,0,0,8.95,0,20V60c0,11.05,8.95,20,20,20H60ZM18.41,49.76c-.51-1.21-.5-2.53-.68-3.79-.2-.73-.23-1.53-.71-2.14l-1.04-.66,.28-.33h0s.02,0,.02,0l.28-.32-.14-.61-.65,.36-.5-1.2,.81-.23-.43-.88,1.12-.46,.14,.9,.7-.37,.21,.59c1.02,.37,2.09,.56,3.17,.61l.55-.04c-.63-.1-1.27-.13-1.89-.33l-1.59-.57c-.97-.62-1.72-1.7-1.66-2.89,.82,.46,1.63,.96,2.53,1.27,.76,.36,1.59,.52,2.41,.63-.83-.35-1.73-.54-2.54-.97l-1.33-.84c-.65-.52-1.22-1.16-1.54-1.95l-.16-1.07c.71,.47,1.38,1.03,2.13,1.46,.71,.41,1.47,.68,2.26,.86l-1.1-.42c-.65-.32-1.19-.8-1.73-1.29-.57-.62-1.01-1.36-1.25-2.17l-.05-1.42c.84,.73,1.5,1.65,2.39,2.33,.62,.45,1.24,.91,1.94,1.21l-1.06-.79c-.67-.58-1.31-1.22-1.76-1.98-.62-.93-1.08-2.02-1.13-3.16l.13-1.36,.84,1.49c.67,1.14,1.42,2.3,2.5,3.11l-1.06-1.47c-.32-.55-.67-1.08-.84-1.7l-.43-1.57c-.05-.68-.19-1.36-.07-2.05l.6-1.6c.59,1.57,.85,3.28,1.69,4.76l.96,1.5c-.5-1.03-.89-2.09-1.16-3.19l-.23-1.67c-.14-.99-.1-2.01,0-3,.15-.81,.34-1.66,.93-2.24l.14,1.77,.32,1.7c.12,.82,.42,1.59,.7,2.35l.46,1.01c-.17-.75-.46-1.48-.56-2.24-.07-.85-.13-1.7-.07-2.55-.03-.69,.19-1.34,.34-2,.21-.76,.49-1.54,1.1-2.07,.13,1.6,.19,3.22,.44,4.82,.1,.6,.28,1.17,.42,1.76l.31-.17,.45,1.7c.33,.85,.66,1.69,1.09,2.48l1.09,1.52,.45-.94,.48,.96c.6,1.05,1.36,2.01,2.15,2.93l.8,1.14-.1,1.76-1.23,1.03-.36,1,.85,.65,1.53,.09,.66,.72,.74,.48-.09-1.27c-.04-.85-.88-2.35-.88-2.35l2.65-3.11,.45,.13,.52-1.54-.78,.07,.23-1.08-.04-1.15-.82,.4c-.09-.62-.23-1.21-.61-1.71l-1.24,.27-1.14-.41-.76-.83c-.9,.26-1.86,.55-2.79,.25-.71-.17-1.15-1-.94-1.7l.57-.92,.33,1.14,1.43,.32c.75-.27,1.58-.27,2.36-.1-.47-.3-.91-.79-1.51-.75l-1.03,.69v-.44s-.01,0-.01,0c-.04-.2-.03-.42,0-.64v-.59s.95-.68,.95-.68l1.17,.1,.61-.78c.68-.33,1.46-.18,2.15,.02l.86,.39c.75,.13,1.51-.12,2.13-.55l-.16-.6-.56-.22,.35-.67c-.17-.64-.85-.91-1.45-.97l-.67-.66,.11-.56-.26-.64-.13-.6,.38-.38,.39-.65,.17-.63,1.22-.51,.45-.5h.53c.6-.02,.65-.15,1.22-.31l1.44-.49-.16-1.27,.84-.74h-.63s-.03-.84-.03-.84l.5,.08-.05-.52h1.06l-.04,.52,.49-.08-.05,.85h-.61s.81,.8,.81,.8l-.18,1.21c.68,.08,1.13,.35,1.91,.58,.68,.21,.89-.02,1.27,.2l.36,.47,.78,.43,.56,.21,.08,.53,.67,.87-.03,.77-.24,.66,.03,.76-1.05,.54-.95,.89,.3,.58-.5,.28-.21,.66c.61,.4,1.35,.58,2.08,.5,.61-.4,1.35-.56,2.08-.61l1.18,.42,.31,.56,1.41-.08c.91,.34,1.13,1.56,.68,2.34l-1.04-.73c-.59,0-1.03,.46-1.47,.76,.6-.13,1.24-.16,1.85-.05l1.32,.18,.79-.7,.14-.79c.83,.55,.86,1.98-.03,2.48-.99,.49-2.12,.17-3.12-.12l-.88,.91c-.67,.38-1.55,.48-2.21,.04-.36,.5-.52,1.1-.6,1.71l-.83-.4-.05,1.08,.25,1.2-.8-.1,.53,1.5,.36-.15,2.93,3.2s-.59,.57-.96,2.21l-.08,1.4,.46-.21,.94-.99,1.46-.07,.93-.74-.44-.95-1.17-.99c-.34-.57-.27-1.29-.05-1.89,.39-.73,1.03-1.3,1.51-1.98,.49-.56,.89-1.17,1.28-1.8l.58-1.14,.45,.94,1.09-1.53c.43-.8,.77-1.64,1.09-2.49l.45-1.69,.3,.18c.15-.58,.32-1.16,.42-1.76,.26-1.6,.32-3.21,.45-4.82,.58,.51,.89,1.26,1.08,2.01l.35,1.58c.04,1.01,.05,2.02-.06,3.02-.1,.75-.39,1.48-.56,2.24,.37-.62,.56-1.32,.81-1.97,.31-.85,.37-1.74,.59-2.61,.16-.74,.17-1.5,.19-2.24,.63,.56,.8,1.44,.95,2.25,.12,1.08,.14,2.19-.03,3.27-.1,1.6-.67,3.12-1.35,4.57l.51-.74c.42-.69,.82-1.42,1.09-2.18,.37-1.11,.64-2.24,1.04-3.34l.6,1.59c.12,.64,0,1.26-.06,1.89-.04,.71-.34,1.37-.55,2.04-.42,1.05-1.11,1.98-1.8,2.87,1.1-.84,1.86-2.01,2.54-3.19l.8-1.41c.25,.68,.13,1.43,.05,2.13-.44,1.84-1.61,3.48-3.11,4.62l-.75,.54c1.29-.59,2.4-1.51,3.35-2.53l.97-1-.05,1.45c-.31,1.02-.93,1.98-1.79,2.62-.64,.59-1.44,.98-2.26,1.22,.67-.15,1.34-.38,1.97-.68,.86-.44,1.6-1.09,2.42-1.62,.05,.76-.29,1.5-.77,2.07-.58,.82-1.47,1.32-2.33,1.81-.79,.41-1.67,.59-2.49,.94l1.56-.31,1.54-.59c.64-.27,1.21-.67,1.84-.96,.06,1.55-1.22,2.94-2.69,3.26-.78,.29-1.62,.39-2.45,.5,1.29,.14,2.59-.2,3.82-.59,.02,.77-.39,1.55-1,2-.58,.32-1.2,.59-1.86,.69l-1.64,.18c.97,.17,1.95,0,2.89-.2,.08,.64-.27,1.25-.74,1.65-.9,.56-2.01,.73-3.05,.5l1.76,.54-.32,.76-.96,.56c-.85,.29-1.75,.06-2.59-.08,.54,.36,1.18,.45,1.8,.57l-1,.87-1.42,.31-1.57-.2,.73,.62-1.12,.52-1.51-.04-.74-.36-.8-.78,.83,1.34-1.25,.23-1.2-.93c.27,.88,.99,1.54,1.79,1.95,.56,.24,1.15,.35,1.75,.49l-.38,.7,1.74,.52,.24,.19-.78,.59,.75,.57,.46,.28-.73,.29c.67,.5,1.32,1.04,2,1.55l.51,.19-.44-1.02-.49-.71,.35-1.32,.3-.66,.67-.8c.28-.6,.82-1.01,1.35-1.38,.59-.35,1.3-.32,1.96-.35l.4-.63-.68-.07,.3-1.26,.6,.33,.09-.76,1.27,.37-.35,.64,.64,.06-.33,1.17-.59-.31-.05,.77c.57,.53,1.38,.92,1.6,1.72l.23,1.47,.33,1.06,.25,.85-.35,.75-1.03,.57c-1.2,.57-2.48,.94-3.74,1.35l-1.61,.44-1.24-.28-.85-.65c-.89-.61-1.94-.88-2.94-1.25l-.34,.55-.64-.37c-.66-.56-1.4-1.04-2.19-1.4l-.7,.74c-.79-.77-1.35-1.77-2.09-2.61l-1.02-1.14-.91-.71c0,.7,.34,1.41,.8,1.87,1.03,1.02,1.41,2.05,.98,2.83l-.21,.15,.68,.8,.39,1.49c.44,.84,1.72,1.79,3.07,2.45-.31,.49-1.5,1.22-2.25,1.04l.57,1.62-1.87-.17-.05,1.45-.66-.2-1.24-.48c.41,1.21-.33,2.2-.82,2.22l-.86-1.06-.63,1.74-.85,.93-1-1.19-.5-1.49-.86,1.07c-.33,0-1.37-.96-.82-2.28l-.09,.15-1.21,.41-.6,.17-.04-1.42-1.87,.15c-.04-.6,.22-1.15,.57-1.6-.66,.15-1.29-.13-1.82-.49l-.38-.49c.88-.53,2.35-1.53,2.73-2.06l.35-.58,.3-1.21,.72-.96-.22-.17v-1.23c.15-.65,.53-1.18,.99-1.69,.41-.43,.77-1,.83-1.62l-.68,.38-1.43,1.56c-.55,.73-1.09,1.48-1.67,2.18l-.27,.21-.65-.75c-.85,.37-1.63,.91-2.33,1.51l-.68,.19-.16-.68c-.62,.38-1.36,.61-1.84,1.19l-1,1.07-1.01,1.37v.22l-.27,.4,1.63,1.11-1.16,.52-.1,1.11-.96-.49-.78,.25,.02-.91-.2-1.09-1.19-.04-.44-.79-1.13-.83,.09-.62-.57-.66,.05-.89,1-.89-.62-.64c-.48-.84-.66-1.84-.5-2.78l-.69-.61,.09-.99c-.69-.38-1.09-1.11-1.42-1.8Z"/>
  <path class="cls-2" d="M54.81,32.87c.63-.09,1.09-.63,1.7-.7l-.54-.12-.33-1.41-.48,.05,.59,.61c-.1,.62-.62,1.04-.93,1.56Z"/>
  <path class="cls-2" d="M57.17,33l-1.18,1.04,1.17-.04,.43,.73c-.39,.55-1.12,.65-1.72,.83l.12,.14,.91,.12,.02,.98-1.57,.59,.84,.39,.02,1.02-1.69,.22,.69,.95-.76,.43-1.38-.28,.78,.73-.38,.86-1.71-.2,.25,1.25,.25-.5,1.41-.35,.58-.94,.83-.57,.37-.8,1.12-.89-.23-1.09,1.01-1.03-.32-.95,.82-1.11-.72-.78,.18-1.39-.55-.12,.41,.77Z"/>
  <path class="cls-2" d="M20.43,53.16c-.16,.94,.02,1.95,.5,2.78l.62,.64-1,.89-.05,.89,.57,.66-.09,.62,1.13,.83,.44,.79,1.19,.04,.2,1.09-.02,.91,.78-.25,.96,.49,.1-1.11,1.16-.52-1.63-1.11,.27-.4v-.22l1.01-1.37,1-1.07c.49-.58,1.22-.81,1.84-1.19l.16,.68,.68-.19c.7-.59,1.48-1.13,2.33-1.51l.65,.75,.27-.21c.58-.7,1.12-1.46,1.67-2.18l1.43-1.56,.68-.38c-.06,.62-.42,1.19-.83,1.62-.46,.5-.84,1.04-1,1.69v1.23s.23,.17,.23,.17l-.72,.96-.3,1.21-.35,.58c-.38,.53-1.85,1.53-2.73,2.06l.38,.49c.53,.36,1.16,.64,1.82,.49-.36,.46-.61,1.01-.57,1.6l1.87-.15,.04,1.42,.6-.17,1.21-.41,.09-.15c-.55,1.32,.5,2.28,.82,2.28l.86-1.07,.5,1.49,1,1.19,.85-.93,.63-1.74,.86,1.06c.5-.01,1.23-1.01,.82-2.22l1.24,.48,.66,.2,.05-1.45,1.87,.17-.57-1.62c.75,.18,1.94-.56,2.25-1.04-1.36-.66-2.64-1.61-3.07-2.45l-.39-1.49-.68-.8,.21-.15c.43-.78,.05-1.81-.98-2.83-.47-.46-.81-1.17-.8-1.87l.91,.71,1.02,1.14c.74,.84,1.3,1.83,2.09,2.61l.7-.74c.8,.36,1.53,.83,2.19,1.4l.64,.37,.34-.55c.99,.37,2.04,.64,2.94,1.25l.85,.65,1.24,.28,1.61-.44c1.26-.41,2.54-.78,3.74-1.35l1.03-.57,.35-.75-.25-.85-.33-1.06-.23-1.47c-.22-.81-1.03-1.19-1.6-1.72l.05-.77,.59,.31,.33-1.17-.64-.06,.35-.64-1.27-.37-.09,.76-.6-.33-.3,1.26,.68,.07-.4,.63c-.66,.03-1.37,0-1.96,.35-.52,.38-1.07,.78-1.35,1.38l-.67,.8-.3,.66-.35,1.32,.49,.71,.44,1.02-.51-.19c-.68-.5-1.32-1.04-2-1.55l.73-.29-.46-.28-.75-.57,.78-.59-.24-.19-1.74-.52,.38-.7c-.59-.14-1.19-.25-1.75-.49-.8-.41-1.52-1.07-1.79-1.95l1.2,.93,1.25-.23-.83-1.34,.8,.78,.74,.36,1.51,.04,1.12-.52-.73-.62,1.57,.2,1.42-.31,1-.87c-.61-.13-1.26-.21-1.8-.57,.85,.14,1.74,.36,2.59,.08l.96-.56,.32-.76-1.76-.54c1.04,.23,2.15,.06,3.05-.5,.47-.39,.82-1.01,.74-1.65-.94,.2-1.92,.37-2.89,.2l1.64-.18c.66-.1,1.27-.37,1.86-.69,.62-.45,1.03-1.22,1-2-1.23,.38-2.52,.73-3.82,.59,.82-.1,1.66-.21,2.45-.5,1.47-.32,2.75-1.71,2.69-3.26-.63,.29-1.2,.7-1.84,.96l-1.54,.59-1.56,.31c.82-.35,1.7-.53,2.49-.94,.86-.49,1.74-.99,2.33-1.81,.48-.57,.82-1.31,.77-2.07-.82,.53-1.56,1.18-2.42,1.62-.63,.31-1.3,.54-1.97,.68,.82-.24,1.62-.63,2.26-1.22,.85-.64,1.47-1.6,1.79-2.62l.05-1.45-.97,1c-.95,1.03-2.07,1.94-3.35,2.53l.75-.54c1.5-1.13,2.66-2.77,3.11-4.62,.08-.7,.2-1.44-.05-2.13l-.8,1.41c-.69,1.18-1.44,2.35-2.54,3.19,.69-.89,1.38-1.82,1.8-2.87,.2-.66,.51-1.32,.55-2.04,.06-.63,.18-1.25,.06-1.89l-.6-1.59c-.41,1.1-.67,2.23-1.04,3.34-.27,.76-.67,1.49-1.09,2.18l-.51,.74c.67-1.45,1.24-2.97,1.35-4.57,.16-1.08,.14-2.19,.03-3.27-.15-.81-.32-1.69-.95-2.25-.02,.74-.03,1.51-.19,2.24-.22,.87-.28,1.77-.59,2.61-.25,.66-.44,1.36-.81,1.97,.16-.75,.45-1.48,.56-2.24,.1-1.01,.09-2.02,.06-3.02l-.35-1.58c-.19-.75-.49-1.5-1.08-2.01-.13,1.61-.19,3.22-.45,4.82-.1,.6-.27,1.18-.42,1.76l-.3-.18-.45,1.69c-.32,.84-.66,1.69-1.09,2.49l-1.09,1.53-.45-.94-.58,1.14c-.39,.63-.8,1.24-1.28,1.8-.48,.68-1.12,1.24-1.51,1.98-.21,.6-.29,1.32,.05,1.89l1.17,.99,.44,.95-.93,.74-1.46,.07-.94,.99-.46,.21,.08-1.4c.36-1.63,.96-2.21,.96-2.21l-2.93-3.2-.36,.15-.53-1.5,.8,.1-.25-1.2,.05-1.08,.83,.4c.08-.61,.23-1.22,.6-1.71,.66,.44,1.54,.34,2.21-.04l.88-.91c1,.29,2.13,.61,3.12,.12,.89-.5,.85-1.93,.03-2.48l-.14,.79-.79,.7-1.32-.18c-.61-.1-1.25-.08-1.85,.05,.45-.3,.88-.77,1.47-.76l1.04,.73c.45-.78,.23-2-.68-2.34l-1.41,.08-.31-.56-1.18-.42c-.73,.05-1.47,.21-2.08,.61-.73,.09-1.47-.1-2.08-.5l.21-.66,.5-.28-.3-.58,.95-.89,1.05-.54-.03-.76,.24-.66,.03-.77-.67-.87-.08-.53-.56-.21-.78-.43-.36-.47c-.38-.22-.59,0-1.27-.2-.78-.24-1.23-.5-1.91-.58l.18-1.21-.81-.81h.61s.05-.84,.05-.84l-.49,.08,.04-.52h-1.06l.05,.52-.5-.08,.03,.85h.63s-.84,.73-.84,.73l.16,1.27-1.44,.49c-.57,.16-.62,.29-1.22,.3h-.53s-.45,.51-.45,.51l-1.22,.51-.17,.63-.39,.65-.38,.38,.13,.6,.26,.64-.11,.56,.67,.66c.6,.06,1.28,.33,1.45,.97l-.35,.67,.56,.22,.16,.6c-.62,.43-1.38,.68-2.13,.55l-.86-.39c-.69-.2-1.47-.35-2.15-.02l-.61,.78-1.17-.1-.96,.68v.59c.07-.45,.29-.88,.75-1.05,.71-.28,1.44,.1,2.05,.46l.53,.78,.68-.56c.88,.47,1.89,.53,2.86,.43l1.31,1.1-.38,.25c.55,.7,1.28,1.24,2.07,1.63l-.62,.5,1.01,1.29,1.2,.69-.7,.64c-.91,.23-1.79-.32-2.36-1,.08,1.17,.35,2.42-.18,3.53-.77-.72-1.05-1.79-1.15-2.79l-.75,.29c.12-.85,.28-1.86-.3-2.59l-.55,.87c-.17-.66-.36-1.42-.97-1.83l-1.58,.22-.95-.68,1.17-.08-1.16-.51c-.94-.05-1.77,.56-2.72,.46l-1.09-.74-.02-.95,.08-.08,.89,1.1,1.64-.11c1.02-.2,2.15-.08,3.01,.54l.02-.14-.89-.8c-.51-.46-1.11-.97-1.86-.9l-1.04,.65v.44s1.04-.69,1.04-.69c.6-.04,1.04,.45,1.51,.75-.78-.17-1.61-.17-2.36,.1l-1.43-.32-.33-1.14-.57,.92c-.21,.7,.23,1.53,.94,1.7,.93,.3,1.89,0,2.79-.25l.76,.83,1.14,.41,1.24-.27c.37,.5,.52,1.1,.61,1.71l.82-.4,.04,1.15-.23,1.08,.78-.07-.52,1.54-.45-.13-2.65,3.11s.84,1.5,.88,2.35l.09,1.27-.74-.48-.66-.72-1.53-.09-.85-.65,.36-1,1.23-1.03,.1-1.76-.8-1.14c-.79-.92-1.55-1.88-2.15-2.93l-.48-.96-.45,.94-1.09-1.52c-.42-.79-.76-1.63-1.09-2.48l-.45-1.7-.31,.17c-.14-.59-.32-1.16-.42-1.76-.25-1.6-.31-3.22-.44-4.82-.62,.53-.89,1.31-1.1,2.07-.16,.66-.37,1.31-.34,2-.06,.85,0,1.7,.07,2.55,.09,.75,.39,1.48,.56,2.24l-.46-1.01c-.28-.77-.58-1.54-.7-2.35l-.32-1.7-.14-1.77c-.59,.58-.79,1.43-.93,2.24-.1,.99-.15,2,0,3l.23,1.67c.27,1.1,.66,2.16,1.16,3.19l-.96-1.5c-.83-1.49-1.09-3.19-1.69-4.76l-.6,1.6c-.11,.69,.02,1.36,.07,2.05l.43,1.57c.17,.62,.52,1.15,.84,1.7l1.06,1.47c-1.08-.82-1.83-1.97-2.5-3.11l-.84-1.49-.13,1.36c.05,1.13,.51,2.23,1.13,3.16,.45,.76,1.09,1.4,1.76,1.98l1.06,.79c-.7-.29-1.32-.75-1.94-1.21-.89-.67-1.56-1.6-2.39-2.33l.05,1.42c.24,.81,.68,1.55,1.25,2.17,.53,.49,1.08,.97,1.73,1.29l1.1,.42c-.79-.18-1.56-.45-2.26-.86-.75-.42-1.42-.99-2.13-1.46l.16,1.07c.32,.79,.89,1.43,1.54,1.95l1.33,.84c.81,.43,1.71,.62,2.54,.97-.82-.11-1.65-.27-2.41-.63-.9-.31-1.7-.81-2.53-1.27-.06,1.19,.69,2.27,1.66,2.89l1.59,.57c.62,.2,1.26,.23,1.89,.33l-.55,.04c-1.08-.05-2.15-.25-3.17-.61l-.21-.59-.7,.37-.14-.9-1.12,.46,.43,.88-.81,.23,.5,1.2,.65-.36,.14,.61-.28,.32,1.15-.1,.71-.85-.2,1.23c.15,1.48,.73,2.91,1.58,4.14,.44,.66,.7,1.43,.92,2.2l.04,1.38-.85-.12c-.86-.95-1.16-2.26-1.39-3.49-.16-1.19-.33-2.43-.89-3.51l-1.09-.86-.28,.33,1.04,.66c.48,.61,.51,1.41,.71,2.14,.18,1.27,.17,2.59,.68,3.79,.33,.69,.73,1.41,1.42,1.8l-.09,.99,.69,.61Zm.48,1.39l.02-1.49,.49-.14,.76,1.12,.39,1.66-.74,.48c-.36-.51-.78-1.01-.91-1.63Zm.05,3.91l-.11-.99,.47-.42c0,.66,.42,1.18,.53,1.8l-.89-.39Zm.42,1.36l-.14-.62,1.44,.15,.36-.19,.85-.49,.5,.77-.97,.35-.7,.47-1.33-.43Zm.7-1.47l.41,.16,.12,.59-.35-.16-.18-.59Zm1.55,.03l-.87,.39,.45-1.12,.42,.73Zm-.42-.87l.11-.47,.3,.72-.41-.26Zm.7,.87l.44-.66,.06,.73-.5-.08Zm-.7,2.65l-.89-.38,.91-.32,1.33-.63,.7,.48-1.23,.39-.82,.45Zm1.83,1.64l.16-.49,.28,.85-.44-.36Zm1.34-.76l-1.18,.05-.65,.82c.04-.62,.06-1.28-.32-1.8l.88-.09,1.27,1.02Zm-1.32-2.52l.31-.65,.03,.86-.33-.21Zm4.34-3.68l-.88,.8c-.66,.32-1.19,.85-1.77,1.33l-.95,1.14-.48-.79-.5,1.16-.18-1.27-.52-.81-.29,.75-.19-1.05c.58,.15,1.13,.41,1.75,.47-.74-.51-1.66-.65-2.53-.56l.06,.71-.63,.42-.67-1.06,.82-.79,1.14-.12c.99,.05,2,.1,2.98-.06,.6-.08,1.1-.45,1.57-.79l1.66-.78-.4,1.31Zm-1.87-1.25l.83-.58,.87,.31-1.7,.28Zm2.13,2.25c-.03-1.03,.19-2.12,.82-2.97-.82-.01-1.61-.24-2.31-.66l1.44-.52,1.1,.52,1.12,.24-.87,1.5,1.27-1.36,.26,1.44c-1,.49-1.96,1.09-2.82,1.81Zm5.03-3.12l-1.35,1.62,.38-1.73c-.33,.64-.48,1.36-.71,2.06l-.46-1.45,.25-1.42c-.96,.18-2.02,.1-2.83-.52,.82,.02,1.68,.04,2.41-.38l-1.5,.23-1.32-.2,1.43-.52c.78-.45,1.42-1.17,1.7-2.04l.92,.84-.6,1.04,.91-.82,1.25,.74-.85,1.23,1.14-1.02,.98,.37c-.59,.65-1.23,1.26-1.75,1.98Zm-1.06,8.52c-.59-.05-1.24-.18-1.65-.66,.77-.37,1.45-.9,2.12-1.43l.79-1.09,.16,.3,1.06-.52-.04,1.53,.4,.15-1.25,1.04c-.47,.33-.99,.7-1.59,.67Zm1.12,1.5l-1.13,.08,.58-1.3,1.53-1.11c.59-.36,.87-1.03,1.48-1.36l.06,1.16,.46,.41-1.1,1.08c-.61,.37-1.16,.9-1.88,1.04Zm1.01,1l-.5,.08,.35-1.19,1.38-.97,1.16-1.25,.6-.91,.54,1.59-.96,1.45c-.72,.65-1.71,.81-2.57,1.21Zm2.57,.95l-.84,.65-.24-1.52,1.15-1.13,.99-1.47,.69,.7-.39,1.51-1.35,1.27Zm2.74,.98l-.83,1.02-.87-.97-.3-1.07,1.14-1.16,1.14,1.15-.28,1.04Zm1.85-.33l-.84-.65-1.31-1.23-.4-1.22,.65-1.02,1.04,1.51,1.14,1.19-.29,1.42Zm-.64-2.65c-.52-.38-.94-.94-1.1-1.58l.47-1.62,.89,1.18,1.11,1.13c.53,.32,1.15,.61,1.41,1.21l.03,.93c-.9-.5-1.97-.64-2.8-1.25Zm4.49,.12l-1.04-.06c-.77-.12-1.33-.69-1.97-1.07l-1.12-1.11,.52-.47,.02-1.05c.61,.32,.9,1,1.48,1.36l1.53,1.1,.57,1.31Zm-1.27-4.68l1,1.17c.62,.46,1.22,.93,1.92,1.26-.4,.5-1.07,.62-1.66,.67l-1.24-.47-1.52-1.17,.35-.44-.04-1.31,1.04,.52,.16-.23Zm-.49-1.64l.16,1.51-1.13-.76c.07,.62,.18,1.26,0,1.87l-1.16-.84c.03,.59,.2,1.23,0,1.82l-.47-.16-.96-1.47c-.14,.82-.14,1.72-.68,2.41l-.81,.29-.75-1.13-.2-1.41-.12-.1-.84,1.34-.57,.32c-.09-.62-.04-1.26,.04-1.89l-1.12,.84c-.26-.59-.11-1.25-.04-1.88l-1.17,.76,.05-1.17,.53-.86,.91-.47c0,.6-.49,.94-.84,1.32l.75-.48,.29,.55,.44,.16-.37,1.04,.92-1.4,.26,1.03-.11,1.27,.52-.87,.79-.66,.7,1.03,.15,1.4,.16-1.4,.69-1.06,.52,.56,.78,.93-.18-.93,.37-1.31,.81,1.32h.12s-.39-1-.39-1l.43-.02,.29-.63,.7,.44-.78-1.25,1.31,.96Zm-1.35-3.55l.98,1.29,.07,1.05-.76-.07-.65-1.1c.1,.67,.34,1.34,.25,2.03l-.69,.32-.94-1.4c.02,.74,.46,1.42,.29,2.17l-.5,.38-.38-.45-.46-1.46c-.1,.65-.02,1.33-.3,1.93l-.71,.07c-.3-.57-.27-1.22-.27-1.83l-.12-.09-.5,1.58-.46,.3-.35-.56c-.09-.78,.34-1.49,.41-2.26l-1,1.6-.7-.26c-.16-.78,.21-1.52,.4-2.26-.43,.45-.49,1.23-1.12,1.47l-.47-.19,.21-1.39,.78-1.01,1.05-1.56,1.12,.79,1.34,1.35,1.04-1.19,1.49-.99c.26,.59,.48,1.25,.95,1.72Zm18.71,1.14l-.37-.19,.15-.64,.21,.83Zm-.79-3.01l.45,1.4c-.62-.13-1.24-.28-1.85-.44l.45-1.72,.95,.76Zm-1.79-2.48l-.77-.03,.18-.71,.69,.31,.07-.76,.75,.19-.33,.72,.7,.06-.17,.65-.67-.28-.1,1.03-.76-.23,.42-.94Zm-2.34,1.36l1.4-.22c-.14,.63-.35,1.23-.46,1.86-.76-.08-1.47-.37-2.21-.5l1.27-1.13Zm-1.37,1.32c.8,.17,1.63,.31,2.43,.53,.27-.67,.37-1.4,.55-2.1l1.39,.34c-.17,.67-.43,1.34-.52,2.04,.71,.25,1.46,.35,2.17,.57l-.49,1.27-.86-.22-.27-.76-.47-.65-.28,.87-.86,.2c-1.06-.14-2.1-.41-3.15-.61l.36-1.48Zm5.5,3.19l-.46,.73-1.03,.31-.12-.5,.99-.74,.62,.19Zm-1.12-1.03l-.51-.17,.16-.72,.35,.88Zm-1.41,.36l-.51,.88-1.51,.12c-.71-.22-.9-1.03-1.19-1.62,1.09,.17,2.13,.52,3.22,.62Zm-3.44-2.11l-.13,.93-.4-.08,.53-.84Zm-1.35,3.82l.67,.49h.77s-.52-1.31-.52-1.31l-.56-.93,.45-.95,.44,.23c.3,.66,.35,1.44,.8,2.02,.64,.57,1.67,.5,2.36,.02l.88-1.46,.97,.69-.87,.82-.04,.67,.68,.18,1.29-.97,.46-.98,.6,.8-.71,.89c-1.02,.55-2.17,.79-3.27,1.14-.62,.2-1.27,.36-1.9,.53l-1.22,.04c-.63-.27-1.15-.74-1.77-1.04-.89-.45-1.76-.93-2.67-1.36l-.43-1.5c.7,.4,1.58,.4,2.21,.94l1.4,1.04Zm-1.37-1.94l-1.67-.29,.89-.22,.78,.51Zm-.62-1.38c-.69,.46-1.49,.65-2.31,.68,.65,.84,.83,1.93,.83,2.96-.88-.73-1.83-1.32-2.85-1.82l.28-1.44,1.25,1.34-.85-1.48,1.08-.2,1.12-.54,1.45,.5Zm-2.91-1.84l1.52,.58-1.2,.2-1.6-.24c.72,.44,1.6,.38,2.41,.38l-1.28,.54h-1.58c.47,.9,.32,1.99-.18,2.83-.24-.69-.4-1.39-.7-2.05l.36,1.73c-1.06-1.22-2-2.55-3.21-3.65l.92-.42,1.28,1.09-.91-1.22,1.32-.74,.94,.84-.63-1.04,.93-.84c.24,.85,.88,1.52,1.6,1.98Zm.67-1.55l-1.57-.27-.18-1.19,.59,.56-.35-.8,.26-.68,.72,1.44,.53,.93Zm3.08-.49c-.59,.19-1.23,.34-1.83,.15-.73-.18-1.21-.79-1.68-1.32l-.6-1.32,1.65,1.01,1.25,.86-1.37-1.22,1.07-.06c.43,.68,1.09,1.19,1.51,1.9Zm3.38-1.33c-.74,.54-1.7,.62-2.58,.6-.74-.07-1.51-.47-1.82-1.18l.11-.99c.49,.42,.96,.91,1.6,1.1l-1.36-1.21,.87,.16c1.01,.58,2.02,1.25,3.18,1.51Zm2.32-1.86l-.85,.82c-.86,.29-1.78,.07-2.64-.15l-1.63-.69,.54-.85,1.6,.76c-.59-.37-1.26-.64-1.75-1.14l1.04-.17c.63,.41,1.33,.66,2.02,.94l1.68,.48Zm.54-2.38l1.64-.18-.5,.93-.93,.49-1.72,.22c-.7-.04-1.36-.32-1.99-.6l-.49-.29-.19-.55c.82,.16,1.6,.67,2.46,.53-.75-.1-1.49-.33-2.13-.76l.74-.23c1.03,.23,2.05,.47,3.1,.44Zm.75-2.28c.85-.05,1.66-.3,2.48-.49l-.8,1.26c-.63,.46-1.38,.76-2.16,.84-.94,.09-1.93,.28-2.82-.13l.29-.76c.77,.09,1.57,.2,2.33-.02-.73,0-1.48,0-2.17-.27l.99-.46c.62,0,1.24,.09,1.85,.02Zm-.57-1.94l1.32-.29c1.06-.41,2.13-.85,3.1-1.45-.21,.88-.77,1.68-1.52,2.18-1.22,.67-2.62,.99-4,.98v-.63c.95-.11,1.93-.23,2.82-.63l-1.34,.28c-.66,.07-1.3,.24-1.96,.11l1.58-.56Zm.83-2.5c.68-.19,1.36-.39,2-.71,.79-.38,1.45-.98,2.21-1.41-.23,1-.96,1.82-1.77,2.42-.96,.79-2.13,1.27-3.33,1.55l-.04-.65-.5-.1c1.02-.35,2.17-.37,3.02-1.08l-1.29,.47-1.44,.31,1.14-.8Zm.13-1.94c.7-.32,1.32-.79,1.91-1.26,.73-.57,1.3-1.33,1.97-1.97l-.28,1.4c-.76,1.69-2.35,2.89-4.08,3.45l.09-.56c.82-.5,1.72-.93,2.42-1.6-.79,.45-1.57,.91-2.35,1.37l-.49-.33,.82-.49Zm1.43-3.73c.8-.97,1.39-2.08,1.96-3.2,.19,1.51-.38,2.99-1.25,4.19-.62,.9-1.46,1.62-2.36,2.21l.2-.81,.62-.6,.96-1.12c-.55,.49-1.05,1.05-1.64,1.51l-.2-.59c.65-.44,1.19-1.01,1.72-1.6Zm-1.28-2.02c.91-1.54,1.34-3.29,1.84-5,.29,.69,.48,1.45,.38,2.19-.11,.98-.3,1.95-.64,2.88-.48,1.13-1.15,2.18-2.06,3.02l.41-1.39c.48-.65,.9-1.35,1.07-2.16-.41,.82-.81,1.65-1.39,2.36l-.19-.57-.4,.17,.97-1.52Zm-.66-5.89c.18-.98,.38-1.96,.33-2.96,.44,.66,.63,1.42,.71,2.21,.07,.82,.09,1.65-.04,2.47-.1,.7-.18,1.42-.35,2.11-.21,.79-.55,1.53-.85,2.29l-.39-.71c.28-.74,.61-1.45,.72-2.23l.16-1.6c-.17,.85-.24,1.73-.54,2.54l-.76,1.6c.02-.7,.05-1.39-.11-2.07,.53-1.15,.97-2.37,1.12-3.65Zm-2.8,.94c.51-1.94,.6-3.97,.72-5.97l.69,1.29c.66,2.16,.56,4.5-.09,6.65l-.71,1.33-.04-1.21,.31-1.53c.16-.75,.19-1.53,.13-2.29-.02,1.16-.22,2.29-.51,3.41-.23-.53-.69-1.06-.49-1.68Zm-8.12,15.43l.88-.73,1.78-.28c.73-.35,.88-1.41,.37-2l-1.62-1.2-.08-1.41c.41-.73,1.01-1.3,1.52-1.95,.64-.76,1.13-1.61,1.62-2.46l.18,1.51,1.09-.47-.79,.09,.26-.74,1.09-1.65c.36-.57,.58-1.24,.85-1.87,.25-.62,.36-1.27,.54-1.91,.67,.84,.95,1.98,.76,3.03-.29,1.05-1.02,1.92-1.41,2.92,.61-.61,1.04-1.36,1.5-2.09l.86-1.64c.47,.7,.46,1.61,.15,2.37-.39,.9-1.19,1.53-1.61,2.42,.94-.8,1.72-1.76,2.32-2.83v1.89c-.41,.77-1.1,1.34-1.58,2.04,.6-.31,1.01-.85,1.49-1.3l.73-.7v1.41c-.44,.9-1.27,1.5-1.88,2.26,.77-.32,1.37-.91,2.1-1.29l-.3,1.31-1.09,1.26-1,.68c.75-.12,1.4-.56,2.14-.69l-.45,1.35c-.56,.58-1.38,.7-2.09,.96,.62,.1,1.28,.04,1.91,.24l-.62,1c-.61,.4-1.33,.45-2.01,.66l1.69,.42-.45,.84c-.6,.38-1.33,.3-2.01,.26l-.7,.15c.59,.23,1.27,.19,1.79,.59l-.71,.69c-.81,.29-1.66,.09-2.49,.06l1.13,.61,.05,.55c-.76,.45-1.69,.2-2.45-.08l.37,.44,.93,.41-.04,.67c-1.06,.4-2.14-.12-3.14-.47l1.11,.83-.04,.84c-.67,.39-1.49,.18-2.13-.17l-.55-.6-.1-1.31,.79-.28,.6-.73,1.34-.12,.35-.69-.53,.5-1.12-.35-.48-.17,.03,1-1.07,.34-.37-1.34,.6,.47-.71-1.07c-.2-.65-.24-1.36-.29-2.03l1.03-.46Zm-3.5-6.24l-.96,.38,.56-1.14,.39,.76Zm5.64-6.91l1.63,.11,.9-1.1,.07,.08-.02,.95-1.09,.74c-.95,.1-1.79-.51-2.72-.46l-1.26,.55-.53-.32c.86-.62,1.99-.75,3.01-.55Zm.08-2.3c.63,.26,.81,1.04,.69,1.65l-1.07-.65c-.74-.06-1.33,.45-1.85,.92l-.96,.92,.38,.37,1.54-.05-.82,.69-1.69-.25c-.55,.48-.8,1.18-.96,1.87l-.58-.88c-.51,.77-.39,1.74-.26,2.6l-.73-.28c-.16,1-.37,2.12-1.21,2.79-.42-1.15-.21-2.37-.14-3.55-.51,.57-1.2,1.12-2.01,1.07l-1.02-.66,.93-.53,1.3-1.51-.67-.48c.81-.38,1.54-.94,2.09-1.64l-.41-.26,1.33-1.09c.96,.12,1.94,0,2.83-.39l.65,.57,.56-.79c.62-.38,1.37-.74,2.09-.44Zm-8.08,7.42c-.05,.79,.05,1.57,.26,2.33-1.01,.11-2.05-.06-2.94-.54l.83-1.44,1.54-.32-.92,1.09,1.23-1.12Zm4.98-6.81l.66-.26-.06,.58-.6-.32Zm-2.23-.89l-.39,.47c.54-.3,.99-.75,1.6-.92,.63-.21,1.36-.33,1.98-.02l.55,.74-1.69,.05-1.6,.66c-.68,.13-1.47,.03-1.97-.5l-.41-1.08c.61,.3,1.23,.59,1.93,.6Zm-8.92-2.14l-1.05-.35c.73-.34,1.56-.34,2.36-.44,.99-.04,1.99,.01,3.01,0,.68-.03,1.36,.07,2.05,.14l1.1,.3-1.26,.54,.9,.76-.64-.03c-1.75-.33-3.57-.37-5.34-.18-.63,.05-1.24,.23-1.87,.22l.92-.73-.17-.24Zm-1.32-2.64l.63,.76-.54,.26-.81-.26,.06-1.78c.14-.64,.73-1,1.24-1.33-.36,.72-.79,1.51-.57,2.35Zm1.15,.73l.35,.45-.87-.22,.53-.23Zm.03-.21l-.07-.65,.67,.86-.59-.21Zm.47,.3l.12,.12-.12,.12-.13-.12,.13-.12Zm.88,.67l.51-.5,.63,.47,.82-.21-.44,.41h-1.57l-.73-.49,.79,.32Zm2.65-5.59c.08,.75,.12,1.49,.24,2.22v1.51s-.41,.67-.41,.67l-.49-.68-.47,.7-.44-.77,.05-1.51c.1-.69,.17-1.39,.22-2.08l1.31-.06Zm-1.58-.78h1.89l-.93,.71-.96-.71Zm1.85,1.83c.71,.35,1.42,.89,1.65,1.68,.22,.58-.2,1.17-.04,1.77l-.97,.41-.92-.34,.53-1.21c-.03-.77-.24-1.52-.25-2.31Zm3.02,.68c.51,.37,1.12,.76,1.24,1.43l.02,1.7-.73,.26-.6-.26,.66-.77c.21-.84-.23-1.63-.59-2.36Zm-.04,3.37l-.81,.06,.49-.36,.32,.3Zm-.49-.55l-.65,.28,.65-.86v.58Zm-.38,.48l-.12,.12-.13-.12,.13-.12,.12,.12Zm-.26,.23l-.68,.47h-1.56s-.5-.41-.5-.41l.84,.23,.61-.43,.55,.47,.74-.32Zm-2.94-.56l.14-.67,.4,.5-.55,.17Zm1.3,.36l-.86,.04,.09-.32,.77,.28Zm-1.12-.21l.16,.16-.16,.16-.16-.16,.16-.16Zm2.3,.38l-.44-.19,.82-.27-.38,.47Zm-2.64-.1h-.82s.54-.38,.54-.38l.27,.38Zm-.85-1.95l.54,1.38-1.08,.35-.81-.41c.13-.63-.29-1.26-.02-1.89,.28-.72,.96-1.23,1.62-1.57-.03,.72-.17,1.42-.25,2.13Zm-.7,1.88l-.54,.13-.32-.5,.86,.37Zm4.51,2.95c-1.28,.27-2.6,.29-3.91,.21l-1.27-.2c1.14-.21,2.29-.19,3.43-.18l1.75,.17Zm-4.61,.28c1.47,.18,2.96,.17,4.43-.1h1.34c-1.25,.41-2.57,.55-3.88,.57-1.21-.06-2.46-.14-3.6-.59l1.7,.12Zm6.5-1.26l-.56,.16-.58-.38,.7-.2,.44,.43Zm-1.35-1.17l-.4-.49,.46,.24,.88-.29,.51,.6-1.45-.05Zm1.91-.38l-.58-.17,.8-.27-.22,.44Zm.54-.01l-.12-.13,.12-.11,.13,.11-.13,.13Zm.4-.36l-.52-.14,.68-.57-.16,.71Zm.53-1.98l.02,.42-.37-.19-.03-.42,.37,.2Zm-.8-1.46l.06,.36-.34-.14-.06-.36,.34,.14Zm-1.68-1.06l.14,.27h-.31s-.14-.29-.14-.29l.31,.02Zm-.58,.01l.28,.41,1.1,.31,.4,.8,.54,.09,.2,.47-.05,.83,.39,.31-1.02,.95c-.07-.72,.25-1.52-.14-2.18l-1.24-1.21-1.14-.99,.68,.2Zm-1.29-.12l-.28,.28-.28-.28,.28-.28,.28,.28Zm-.41-.41l-.35,.43,.63,.47,.35-.49,.98,.74c.59,.74,.99,1.69,.92,2.64l-.68,.7-.1-.91-.83,.73c-.05-.61,.22-1.23,.02-1.83-.23-.92-1.03-1.53-1.82-1.97l-.07-.76,.96,.25Zm-1.39-1.95l.52,.52h-.52v-.52Zm-1.23-.68v-.46s.64,.05,.64,.05l-.13-.53h.66l-.08,.53,.62-.05v.47l-.68-.06,.08,.51h-.53l.07-.52-.64,.06Zm.42,.68v.52h-.52l.52-.52Zm-.6,.95v-.31h.79v-.69h.43v.69h.79v.31h-2.01Zm-.92,1.13l.28,.28-.28,.28-.28-.28,.28-.28Zm-.21,.74l.66-.51-.31-.38,.95-.23-.11,.73-1.02,.76c-.5,.43-.84,1.07-.85,1.74l.1,1.33-.84-.73-.1,.91-.67-.67c-.09-.98,.33-1.94,.93-2.7l.96-.7,.31,.45Zm-2.03-.36l.31-.02-.14,.28h-.31s.14-.26,.14-.26Zm-1.66,1.06l.34-.14-.06,.36-.34,.14,.06-.36Zm-.76,1.46l.37-.2-.03,.42-.37,.19,.03-.42Zm.15,.76l.42-.39-.04-.97,.72-.43,.26-.65,1.22-.41,.29-.42,.72-.22-1.27,1.08-1.25,1.34c-.24,.64,.05,1.32-.02,1.98l-1.05-.91Zm.71,1.6l-.12-.12,.12-.12,.13,.12-.13,.12Zm-.45-.44l-.09-.66,.73,.71-.64-.04Zm.76-.02l.82,.26-.51,.19-.31-.44Zm.77,.86l.5-.6,.71,.28,.63-.21-.38,.47-1.46,.06Zm.13,1.12l.44-.43,.71,.2-.59,.38-.56-.16Zm-4.17,3.07l-.05-.58,.66,.26-.6,.32Zm2.8-.18c-.89,.02-1.57-.71-2.44-.81l-1.27,.02,.52-.69c.62-.32,1.35-.21,1.98-.01,.62,.17,1.09,.63,1.64,.97l-.37-.48c.69-.02,1.31-.3,1.91-.61l-.25,.91c-.39,.52-1.07,.77-1.72,.71Zm5.37,6.59l.21-.89c-.81-.32-1.43-.94-1.99-1.57l.63-.9-.85-.39-1.18-.9,.62-.54-.81-.38-.97-.74,.94-.74,.28-.88c1.37,.37,2.8,.59,4.23,.47,.98-.04,1.93-.23,2.88-.44l.38,.96,.85,.62-1.41,.93-.3,.27,.58,.45c-.61,.55-1.27,1.04-2.06,1.29l.66,.91c-.56,.63-1.18,1.23-1.98,1.55l.2,.92,.45,.35-.88,1.36-.95-1.34,.47-.37Zm-2.56,.12l1.19,1.07-.88-1.06,1.51,.29,.8,1.45-1.56,.5-1.35,.04c.23-.75,.34-1.52,.29-2.3Zm-1.97,1l.52,1.12-.91-.36,.4-.76Zm-2.77,5.24l-.67-1.58s1.56-1.82,2.35-2.73c0,0,1.5,.59,2.32,.61,.94,0,1.91,.07,2.82-.24l.96-.31,.83,.29,1.68,.26c.61,0,1.23,.03,1.83-.09l1.6-.58,2.52,2.8-.65,1.5c-.37,1.57-.08,3.2,.16,4.76,.26,1.14,.54,2.31,.4,3.48-.19,1.39-.84,2.75-2,3.58-.89,.62-1.91,.99-2.88,1.43-.65,.28-1.31,.52-1.89,.91-.61,.4-1.14,.92-1.63,1.43-.58-.65-1.22-1.25-2-1.68-1.43-.74-2.98-1.19-4.31-2.08-.94-.62-1.49-1.67-1.8-2.72-.38-1.23-.23-2.58,.1-3.82,.26-1.04,.33-2.1,.43-3.16,.07-.69-.04-1.4-.18-2.07Zm-7.13,5.68l-.4,.71c-.7,.34-1.41,.64-2.17,.72-.64,.07-1.28-.07-1.88-.23l-.95-.56-.4-.84,1.74,.18c1.01,.02,2.01-.23,3-.44l.74,.23c-.64,.43-1.37,.65-2.12,.76,.86,.14,1.64-.38,2.46-.53Zm-.21,1.1h1.31c-.5,.52-1.15,.78-1.75,1.14l1.59-.75,.54,.84c-.92,.55-1.96,.84-3.01,.96l-1.57-.27-.55-.67,1.69-.48,1.74-.78Zm3.18,1.56l.08,1.04c-.33,.7-1.11,1.07-1.85,1.12-.87,.01-1.79-.07-2.51-.6,1.17-.26,2.16-.94,3.19-1.51l.85-.2-1.36,1.26c.64-.19,1.11-.68,1.61-1.1Zm.6,.99l1.07,.06-1.36,1.21,.89-.47,.97-.88,1.04-.51-.59,1.31c-.48,.53-.97,1.15-1.69,1.33-.6,.19-1.25,.05-1.83-.15,.41-.71,1.07-1.23,1.5-1.9Zm2.07,1.51l.77-1.49,.24,.68-.33,.78,.59-.55-.24,1.24-1.49,.15,.46-.82Zm-9.04-29.21l.67-1.29c.15,2,.21,4.02,.73,5.97,.2,.61-.28,1.15-.5,1.68-.29-1.11-.47-2.25-.51-3.41-.09,1.1,.07,2.19,.34,3.25l.02,1.66-.71-1.36c-.6-2.11-.67-4.39-.03-6.5Zm-2.2,6.83c-.13-.93-.35-1.86-.31-2.81,.03-1.1,.13-2.26,.75-3.21,.03,.66,.04,1.34,.19,2,.17,.8,.23,1.64,.47,2.43,.22,.75,.51,1.47,.83,2.16-.17,.67-.13,1.37-.11,2.07-.83-1.21-1.09-2.7-1.28-4.12,.02,.92,.11,1.86,.44,2.72l.42,1.08-.38,.73c-.41-.99-.86-1.98-1.01-3.04Zm-1.84,1.51c-.15-.75-.32-1.52-.25-2.29l.4-1.41c.26,.94,.51,1.89,.85,2.8,.38,1.33,1.14,2.5,1.9,3.63l-.35-.07-.21,.53c-.6-.75-1.03-1.6-1.42-2.46,.17,.81,.58,1.57,1.08,2.24l.44,1.44c-1.23-1.18-2.12-2.73-2.45-4.4Zm1.69,5.25l.49,.51,.18,.78c-1.56-1-2.85-2.48-3.42-4.27-.23-.68-.26-1.42-.22-2.13l1.02,1.83,1.01,1.41c.52,.55,1.04,1.11,1.68,1.55l-.21,.58c-.65-.5-1.18-1.12-1.78-1.66l1.25,1.4Zm-3.19-.1l-.25-1.33,1.52,1.58,1.53,1.19,1.66,.97-.68,.22c-.75-.41-1.46-.87-2.21-1.29,.66,.64,1.51,1.02,2.27,1.52l.3,.66c-1.76-.54-3.39-1.79-4.14-3.51Zm4.64,5.67c-1.33-.28-2.6-.89-3.63-1.79-.71-.56-1.22-1.34-1.5-2.21l1.6,1.08c.79,.51,1.68,.83,2.59,1.06l1.19,.81-1.43-.31-1.31-.47c.84,.71,1.97,.73,2.96,1.07l-.45,.1-.04,.65Zm.17-.45c.6-.28,1.3-.16,1.94-.3-.71-.25-1.53-.37-2.08-.94l-.46-1.37c.74,.14,1.39,.57,2.14,.7l-1.59-1.21-.55-.85-.26-1.2c.75,.36,1.35,.96,2.12,1.29l-1.12-1.2-.89-1.47,.13-1,1.43,1.41,.8,.6c-.53-.77-1.32-1.37-1.68-2.25l.09-1.69c.59,1.07,1.39,2.04,2.32,2.83-.42-.88-1.22-1.52-1.61-2.41-.31-.75-.33-1.68,.15-2.37,.66,1.32,1.37,2.63,2.36,3.73-.37-1.02-1.12-1.88-1.4-2.93-.18-1.05,.08-2.19,.75-3.03,.2,.64,.3,1.3,.56,1.91,.26,.63,.48,1.29,.84,1.88l1.09,1.65,.25,.72-.93-.35-1.05,.63,.02,.95-.53,.13c.6,.09,1.07,.58,1.67,.71-.3-.56-.87-.99-.92-1.65l.7-.62,1.34,.59,.21-1.5,.89,1.48c.55,.86,1.28,1.6,1.9,2.4l.51,1.12-.73,1.26-1.21,.85c-.43,.6-.24,1.58,.45,1.91l1.78,.29,1.14,.91,.75,.26c-.05,.68-.1,1.39-.27,2.04l-.71,1.06,.59-.45-.38,1.34-1.06-.32,.06-1.09-.91,.5-1.29-.38,.24-1.35-1.84,.13-.29-.85,.82-.67-1.57,.22-.59-.58,.66-.77-1.64-.2v-1.03s.82-.34,.82-.34l-.09-.18-1.55-.55,.16-.91,1.05-.19c-.61-.24-1.38-.28-1.79-.86l.37-.74,1.18,.05-1.18-1.15,.56-.67-.66,.17,.21,1.35-.73,.78,.83,1.11-.33,.87,1.01,1.12-.2,1.15,1.04,.83,.46,.86,.74,.48,.62,.97,1.42,.35,.28,.95,.82,.51,.88-.07,.55,.7,.84,.31-.11,1.31-.55,.6c-.63,.35-1.46,.56-2.12,.17l-.05-.84,1.1-.82c-.77,.23-1.52,.62-2.34,.59l-.96-.24,.25-.65,1.14-.76-1.28,.31-1.19-.28,.1-.53,1.13-.59c-.89,.03-1.85,.28-2.69-.15l-.27-.79,1.55-.42c-.72-.33-1.55,.08-2.29-.2l-.81-1,1.6-.47c-.67-.18-1.38-.25-1.98-.63l-.66-.97Zm-3.12,1.56c-.76-.5-1.32-1.31-1.53-2.19l1.65,.86c.82,.32,1.61,.74,2.5,.83,.67,.06,1.28,.35,1.88,.62-.7,.1-1.37-.06-2.05-.14l-1.28-.3c.87,.46,1.87,.54,2.83,.68v.62c-1.39,0-2.78-.31-4-.98Zm-1.16,2.65l-.35-1.19-.64,.39-.23-.6,.7-.26-.42-.91,.66-.28,.19,.98,.71-.33,.2,.63-.78,.22,.57,1.1-.62,.24Zm.64-.54l-.31-.56,.6-.12,.18,.44-.47,.24Zm.37-1.12c.85,.19,1.71,.47,2.59,.5l1.75-.02,.96,.45c-.68,.29-1.42,.26-2.15,.27,.76,.22,1.56,.11,2.33,.02l.28,.77c-.93,.38-1.94,.2-2.9,.1-.75-.09-1.47-.39-2.08-.83l-.79-1.26Zm2.2,7.06c-.42-.8-.94-1.56-1.35-2.39l-.51-1.68-.04-1.75,1.6,.98c.78,.25,1.61,.27,2.41,.34-.97,.17-1.95,0-2.9-.2-.09,.63,.25,1.22,.69,1.61,.91,.59,2.05,.77,3.11,.53l-1.76,.55,.5,.94c.52,.32,1.13,.53,1.74,.49l1.63-.21c-.54,.35-1.19,.45-1.81,.57l1.01,.88,1.43,.3,1.56-.2-.73,.62,1.05,.5,1.59-.02,.73-.36,.8-.78-.82,1.34,1.14,.15,1.26-.8-1.18,1.52c-.66,.56-1.54,.68-2.35,.86l.39,.73c-.59,.27-1.24,.33-1.85,.53l-.1,.18,.76,.58-1.19,.76,.04,.16,1.04,.35-.88,.56c-.77,.38-1.65,.24-2.49,.27-.59,.02-1.18-.07-1.77-.1-.09-.76-.26-1.51-.68-2.17l-.66-.88-.03-.86-.66-.75c-.04-1.08-.18-2.19-.7-3.16Zm.52,3.54l.61,.6-.61,.61-.61-.61,.61-.6Z"/>
  <polygon class="cls-2" points="32.1 27.35 32.13 27.12 31.7 27.38 32.1 27.35"/>
  <polygon class="cls-1" points="39.99 13.04 40.52 13.04 40.44 12.53 41.13 12.59 41.13 12.12 40.5 12.17 40.58 11.65 39.93 11.65 40.06 12.17 39.43 12.12 39.42 12.58 40.06 12.52 39.99 13.04"/>
  <polygon class="cls-1" points="41.25 13.9 40.46 13.9 40.46 13.21 40.03 13.21 40.03 13.23 40.03 13.9 39.24 13.9 39.24 14.21 41.25 14.21 41.25 13.9"/>
  <polygon class="cls-3" points="40.65 13.26 40.65 13.78 41.17 13.78 40.65 13.26"/>
  <polygon class="cls-3" points="39.84 13.26 39.33 13.78 39.84 13.78 39.84 13.26"/>
  <polygon class="cls-3" points="39.31 14.33 40.27 15.04 41.2 14.33 39.31 14.33"/>
  <path class="cls-1" d="M35.91,19.03l.67,.67,.1-.91,.84,.73-.1-1.33c.02-.66,.36-1.31,.85-1.74l1.02-.76,.11-.73-.95,.23,.31,.38-.66,.51-.31-.45-.96,.7c-.6,.76-1.02,1.71-.93,2.7Zm.99-.78l.15-.15-.32-.32-.32,.32,.1,.11-.32-.03,.65-.66,.34,.76-.27-.03Zm.8-1.37l-.31,.07,.17-.17-.29-.29-.26,.25,.12-.41,.57,.54Zm-.71-.08l.2,.2-.28,.07,.08-.27Z"/>
  <path class="cls-1" d="M41.15,15.72c.79,.43,1.6,1.05,1.82,1.97,.2,.61-.07,1.23-.02,1.83l.83-.73,.1,.91,.68-.7c.07-.95-.33-1.9-.92-2.64l-.98-.74-.35,.49-.63-.47,.35-.43-.96-.25,.07,.76Zm2.71,2.65l.23-.23,.18,.15-.4,.09Zm-.12-.52l-.26,.26,.29,.28-.36,.08,.13-.8,.21,.18Zm-.35-.92l.14,.18-.14-.18Zm-.26-.33l-.17-.22,.17,.22Z"/>
  <path class="cls-1" d="M39.31,18.77l.44,.77,.47-.7,.49,.68,.42-.67v-1.51c-.14-.73-.18-1.48-.26-2.22l-1.31,.06c-.05,.69-.12,1.39-.22,2.08l-.05,1.51Zm.83-1.11l.13,.2-.04-.04-.32,.32,.29,.29-.42-.02,.35-.76Zm.12,.78l.23-.23,.16,.25-.4-.02Zm.17-.97l-.19-.22,.28-.28-.29-.3-.26,.27-.18-.21,.24-.22,.75,.45-.35,.51Zm-.28-2.06l.57,.56-.33-.02,.12-.12-.28-.28-.28,.28,.1,.1-.3-.02,.4-.51Z"/>
  <polygon class="cls-2" points="39.95 15.85 40.23 15.57 40.51 15.85 40.39 15.96 40.72 15.98 40.15 15.42 39.75 15.93 40.05 15.95 39.95 15.85"/>
  <path class="cls-1" d="M34.9,17.95l1.25-1.34,1.27-1.08-.72,.22-.29,.42-1.22,.41-.26,.65-.72,.43,.04,.97-.42,.39,1.05,.91c.07-.66-.22-1.33,.02-1.98Z"/>
  <path class="cls-1" d="M45.44,17.74c.39,.66,.07,1.46,.14,2.18l1.02-.95-.39-.31,.05-.83-.2-.47-.54-.09-.4-.8-1.1-.31-.28-.41-.68-.2,1.14,.99,1.24,1.21Z"/>
  <polygon class="cls-2" points="37.26 16.5 37.55 16.79 37.38 16.96 37.7 16.88 37.12 16.35 37 16.75 37.26 16.5"/>
  <polygon class="cls-2" points="36.99 16.81 36.91 17.07 37.18 17.01 36.99 16.81"/>
  <line class="cls-5" x1="43.13" y1="16.6" x2="42.96" y2="16.37"/>
  <line class="cls-5" x1="43.39" y1="16.92" x2="43.53" y2="17.1"/>
  <polygon class="cls-2" points="39.79 16.74 39.97 16.95 40.23 16.68 40.52 16.98 40.24 17.26 40.44 17.48 40.78 16.97 40.03 16.52 39.79 16.74"/>
  <polygon class="cls-2" points="36.19 18.17 36.51 18.21 36.41 18.1 36.73 17.78 37.05 18.1 36.9 18.25 37.18 18.28 36.84 17.52 36.19 18.17"/>
  <polygon class="cls-2" points="40.26 18.45 40.66 18.46 40.5 18.21 40.26 18.45"/>
  <polygon class="cls-2" points="40.21 18.44 39.92 18.15 40.24 17.83 40.27 17.87 40.14 17.67 39.79 18.43 40.21 18.44"/>
  <polygon class="cls-2" points="43.4 18.46 43.76 18.39 43.48 18.1 43.74 17.84 43.53 17.67 43.4 18.46"/>
  <polygon class="cls-2" points="43.86 18.36 44.26 18.28 44.09 18.13 43.86 18.36"/>
  <path class="cls-1" d="M22.66,27.48l-.02-1.66c-.27-1.06-.43-2.15-.34-3.25,.04,1.16,.22,2.3,.51,3.41,.22-.53,.7-1.07,.5-1.68-.52-1.96-.58-3.97-.73-5.97l-.67,1.29c-.64,2.11-.56,4.39,.03,6.5l.71,1.36Z"/>
  <path class="cls-1" d="M58.18,22.57c.06,.76,.03,1.54-.13,2.29l-.31,1.53,.04,1.21,.71-1.33c.65-2.15,.74-4.49,.09-6.65l-.69-1.29c-.12,2-.21,4.03-.72,5.97-.19,.62,.27,1.15,.49,1.68,.29-1.12,.49-2.25,.51-3.41Z"/>
  <polygon class="cls-1" points="36.8 19.09 36.88 19.74 37.47 19.94 36.8 19.09"/>
  <polygon class="cls-1" points="40.07 19.82 40.61 19.65 40.21 19.15 40.07 19.82"/>
  <polygon class="cls-1" points="43.65 19.67 43.65 19.09 43 19.96 43.65 19.67"/>
  <polygon class="cls-1" points="34.08 20.18 34.72 20.22 33.99 19.52 34.08 20.18"/>
  <polygon class="cls-1" points="46.27 20.22 46.43 19.52 45.75 20.09 46.27 20.22"/>
  <polygon class="cls-1" points="36.85 19.94 36.32 20.17 37.2 20.4 36.85 19.94"/>
  <polygon class="cls-1" points="37.82 20.31 38.36 20.17 37.5 19.81 37.82 20.31"/>
  <polygon class="cls-1" points="39.09 20.25 39.91 20.24 39.64 19.86 39.09 20.25"/>
  <polygon class="cls-1" points="41.37 20.18 40.59 19.91 40.5 20.22 41.37 20.18"/>
  <polygon class="cls-1" points="42.54 20.34 42.93 19.88 42.11 20.15 42.54 20.34"/>
  <polygon class="cls-1" points="43.32 20.28 44.13 20.22 43.81 19.92 43.32 20.28"/>
  <polygon class="cls-1" points="34.84 20.16 35.15 20.6 35.66 20.42 34.84 20.16"/>
  <polygon class="cls-1" points="45.33 20.6 45.55 20.16 44.75 20.43 45.33 20.6"/>
  <polygon class="cls-1" points="39.74 20.87 40.18 20.46 39.36 20.67 38.74 20.21 38.23 20.7 37.44 20.38 38.17 20.87 39.74 20.87"/>
  <polygon class="cls-1" points="41.71 20.24 41.1 20.67 40.26 20.44 40.76 20.87 42.32 20.86 43.01 20.38 42.26 20.7 41.71 20.24"/>
  <polygon class="cls-1" points="37.45 20.5 36.82 20.7 36.11 20.43 35.61 21.03 37.08 20.97 37.45 20.5"/>
  <polygon class="cls-1" points="43.48 20.72 43.03 20.48 43.42 20.98 44.87 21.02 44.36 20.42 43.48 20.72"/>
  <path class="cls-1" d="M58.96,29.07l.76-1.6c.31-.8,.38-1.69,.54-2.54l-.16,1.6c-.11,.78-.45,1.49-.72,2.23l.39,.71c.3-.76,.64-1.5,.85-2.29,.17-.69,.25-1.41,.35-2.11,.13-.82,.11-1.65,.04-2.47-.07-.78-.27-1.55-.71-2.21,.05,1-.16,1.98-.33,2.96-.15,1.28-.59,2.5-1.12,3.65,.16,.67,.13,1.37,.11,2.07Z"/>
  <path class="cls-1" d="M21.1,28.75l-.42-1.08c-.33-.86-.42-1.8-.44-2.72,.19,1.42,.45,2.91,1.28,4.12-.02-.7-.05-1.39,.11-2.07-.32-.69-.61-1.41-.83-2.16-.24-.79-.3-1.62-.47-2.43-.15-.66-.16-1.33-.19-2-.62,.95-.72,2.11-.75,3.21-.04,.95,.18,1.88,.31,2.81,.15,1.07,.6,2.06,1.01,3.04l.38-.73Z"/>
  <path class="cls-1" d="M38.14,22.6c1.78-.19,3.59-.16,5.34,.18l.64,.03-.9-.76,1.26-.54-1.1-.3c-.69-.07-1.37-.17-2.05-.14-1.01,.02-2.01-.03-3.01,0-.8,.09-1.62,.09-2.36,.44l1.05,.35,.17,.24-.92,.73c.63,0,1.24-.18,1.87-.22Zm3.78-1.29l.66,.03,.25,.62-.51,.14,.28-.28-.36-.37-.36,.37,.31,.32-.4,.11,.14-.93Zm-1.7-.14l1.04,.66-1.06,.47-.94-.47,.96-.66Zm-2.33,.18l.9,.24-.15,.68-.32-.2,.25-.26-.36-.37-.34,.35-.21-.13,.24-.32Z"/>
  <path class="cls-2" d="M41.26,21.82l-1.04-.66-.96,.66,.94,.47,1.06-.47Zm-1.04-.52l.68,.35-.68,.41-.65-.41,.65-.35Z"/>
  <polygon class="cls-2" points="38.21 21.44 38.58 21.82 38.32 22.07 38.64 22.27 38.79 21.58 37.89 21.34 37.66 21.66 37.87 21.79 38.21 21.44"/>
  <polygon class="cls-1" points="40.9 21.65 40.22 21.31 39.57 21.65 40.22 22.06 40.9 21.65"/>
  <polygon class="cls-2" points="41.87 21.82 42.24 21.44 42.6 21.82 42.32 22.09 42.84 21.96 42.58 21.34 41.93 21.31 41.79 22.24 42.19 22.13 41.87 21.82"/>
  <polygon class="cls-1" points="43.63 21.92 44.21 22.3 44.77 22.14 44.33 21.72 43.63 21.92"/>
  <polygon class="cls-1" points="36.89 21.92 36.18 21.72 35.74 22.14 36.3 22.3 36.89 21.92"/>
  <path class="cls-1" d="M37.7,23.13l1.27,.2c1.31,.09,2.63,.06,3.91-.21l-1.75-.17c-1.14-.01-2.29-.03-3.43,.18Z"/>
  <path class="cls-1" d="M44.04,23.32h-1.34c-1.47,.26-2.97,.28-4.43,.09l-1.7-.12c1.14,.45,2.39,.53,3.6,.59,1.31-.02,2.63-.16,3.88-.56Z"/>
  <path class="cls-1" d="M36.33,23.41c-.6,.31-1.22,.59-1.91,.61l.37,.48c-.54-.34-1.02-.8-1.64-.97-.63-.19-1.36-.31-1.98,.01l-.52,.69,1.27-.02c.87,.1,1.55,.83,2.44,.81,.65,.07,1.33-.19,1.72-.71l.25-.91Z"/>
  <path class="cls-1" d="M44.42,24.47c.51,.53,1.29,.63,1.97,.5l1.6-.66,1.69-.05-.55-.74c-.62-.31-1.35-.19-1.98,.02-.6,.17-1.06,.62-1.6,.92l.39-.47c-.7-.01-1.32-.3-1.93-.6l.41,1.08Z"/>
  <path class="cls-1" d="M31.26,26.18l.89,.8-.02,.14h0s-.03,.24-.03,.24l-.4,.03h-.2s-1.17,.1-1.17,.1l.95,.68,1.58-.22c.61,.41,.8,1.17,.97,1.83l.55-.87c.57,.73,.41,1.73,.3,2.59l.75-.29c.09,1,.38,2.08,1.15,2.79,.52-1.11,.26-2.36,.18-3.53,.56,.67,1.44,1.22,2.36,1l.7-.64-1.2-.69-1.01-1.29,.62-.5c-.8-.39-1.53-.93-2.07-1.63l.38-.25-1.31-1.1c-.97,.1-1.98,.04-2.86-.43l-.68,.56-.53-.78c-.61-.36-1.34-.73-2.05-.46-.45,.16-.67,.59-.73,1.05-.03,.21-.04,.43,0,.64h0s1.04-.66,1.04-.66c.74-.07,1.35,.44,1.86,.9Zm7.22,4.66c-.62-.19-1.27-.53-1.53-1.18l1.53,1.18Zm-2.37-.34c.11,.79,.12,1.59,.17,2.38-.16-.66-.27-1.31-.35-1.97l.18-.41Zm-1.95-4.19c.92,.56,1.29,1.66,1.44,2.66-.72-.48-1.54-.91-2.03-1.66l1.52,.72c-.06-.68-.54-1.2-.94-1.72Z"/>
  <path class="cls-1" d="M48.64,25.5l-.65-.57c-.88,.39-1.87,.51-2.83,.39l-1.33,1.09,.41,.26c-.55,.7-1.28,1.26-2.09,1.64l.67,.48-1.3,1.51-.93,.53,1.02,.66c.81,.05,1.49-.5,2.01-1.07-.07,1.17-.28,2.4,.14,3.55,.84-.67,1.05-1.79,1.21-2.79l.73,.28c-.12-.86-.24-1.83,.26-2.6l.58,.88c.16-.69,.41-1.39,.96-1.87l1.69,.25,.82-.69-1.54,.05-.38-.37,.96-.92c.52-.47,1.11-.98,1.85-.92l1.07,.65c.12-.61-.06-1.4-.69-1.65-.72-.3-1.47,.06-2.09,.44l-.56,.79Zm-6.74,5.32l1.5-1.19c-.23,.65-.88,1-1.5,1.19Zm2.21,2.03c0-.76,.08-1.51,.11-2.28l.26,.1c-.13,.72-.2,1.47-.37,2.18Zm2.26-5.03l-1.61,1.13c.19-.99,.52-2.13,1.47-2.65l-.66,.83-.29,.88,1.47-.78-.39,.58Z"/>
  <path class="cls-1" d="M19.88,30.91c-.5-.67-.91-1.42-1.08-2.24,.39,.86,.82,1.71,1.42,2.46l.21-.53,.35,.07c-.76-1.13-1.52-2.3-1.9-3.63-.34-.91-.59-1.86-.85-2.8l-.4,1.41c-.06,.76,.1,1.53,.25,2.29,.33,1.67,1.22,3.22,2.45,4.4l-.44-1.44Z"/>
  <path class="cls-1" d="M60.06,30.59l.19,.57c.58-.7,.97-1.53,1.39-2.36-.17,.81-.59,1.51-1.07,2.16l-.41,1.39c.9-.84,1.57-1.89,2.06-3.02,.34-.93,.52-1.9,.64-2.88,.09-.74-.1-1.5-.38-2.19-.5,1.71-.93,3.45-1.84,5l-.97,1.52,.4-.17Z"/>
  <polygon class="cls-1" points="31.57 25.21 32.18 24.89 31.52 24.63 31.57 25.21"/>
  <polygon class="cls-1" points="48.84 24.63 48.18 24.89 48.78 25.21 48.84 24.63"/>
  <path class="cls-1" d="M23.82,39.92l-1.6,.47,.81,1c.74,.28,1.56-.12,2.29,.2l-1.55,.42,.27,.79c.84,.43,1.8,.19,2.69,.15l-1.13,.59-.1,.53,1.19,.28,1.28-.31-1.14,.76-.25,.65,.96,.24c.82,.03,1.57-.37,2.34-.59l-1.1,.82,.05,.84c.66,.39,1.49,.18,2.12-.17l.55-.6,.11-1.31-.84-.31-.55-.7-.88,.07-.82-.51-.28-.95-1.42-.35-.62-.97-.74-.48-.46-.86-1.04-.83,.2-1.15-1.01-1.12,.33-.87-.83-1.11,.73-.78-.21-1.35,.66-.17-.56,.67,1.18,1.15-1.18-.05-.37,.74c.41,.58,1.18,.62,1.79,.86l-1.05,.19-.16,.91,1.55,.55,.09,.18-.81,.34v1.03s1.63,.2,1.63,.2l-.66,.77,.59,.58,1.57-.22-.82,.67,.29,.85,1.84-.13-.24,1.35,1.29,.38,.91-.5-.06,1.09,1.06,.32,.38-1.34-.59,.45,.71-1.06c.18-.65,.22-1.36,.27-2.04l-.75-.26-1.14-.91-1.78-.29c-.69-.33-.88-1.31-.45-1.91l1.21-.85,.73-1.26-.51-1.12c-.62-.8-1.35-1.53-1.9-2.4l-.89-1.48-.21,1.5-1.34-.59-.7,.62c.06,.66,.63,1.09,.92,1.65-.6-.13-1.06-.62-1.67-.71l.53-.13-.02-.95,1.05-.63,.93,.35-.25-.72-1.09-1.65c-.37-.59-.58-1.25-.84-1.88-.25-.62-.36-1.27-.56-1.91-.66,.84-.92,1.98-.75,3.03,.28,1.05,1.03,1.91,1.4,2.93-.99-1.1-1.7-2.41-2.36-3.73-.48,.69-.46,1.62-.15,2.37,.4,.89,1.19,1.52,1.61,2.41-.93-.79-1.73-1.76-2.32-2.83l-.09,1.69c.36,.88,1.15,1.49,1.68,2.25l-.8-.6-1.43-1.41-.13,1,.89,1.47,1.12,1.2c-.77-.32-1.37-.93-2.12-1.29l.26,1.2,.55,.85,1.59,1.21c-.75-.13-1.4-.56-2.14-.7l.46,1.37c.55,.57,1.37,.68,2.08,.94-.64,.14-1.33,.01-1.94,.3l.66,.97c.6,.37,1.31,.45,1.98,.63Zm6.87,5.79l-1.01,.66,1.01-.66Zm-1.67-1.22l-1.13,.64,1.13-.64Zm-1.24-1.25l-1.05,.73,1.05-.73Zm-1.54-1.06l.08,.15-1.36,.15,1.29-.3Zm-1.06-1.26l-1.47,.12v-.08s1.47-.04,1.47-.04Zm-1.43-6.31l1.24,.11v.17s-1.24-.28-1.24-.28Zm6.86,6.68l-1.03,.87,1.03-.87Zm-1.67-1.16l-1.26,.85,1.26-.85Zm-1.31-1.15l-1.15,.71,1.15-.71Zm-2.03-7.53l.75,.69-.75-.69Zm.55,6.32l-1.03,.47,1.03-.47Zm-1.71-1.13l1.09-.16-1.09,.16Zm.61-3.22l-.88-.55,.88,.55Zm.33-3.18l-.97-1.29,.97,1.29Zm-1.99,.13l.87,1.11-.87-1.11Zm-.95,1.2l.61,.76-.61-.76Zm-.47,1.55l.75,.71-.75-.71Zm.26,3.86h.61s0,.24,0,.24l-.62-.24Zm-.45-2.16l1.14,.85-1.14-.85Zm1.78,4.13l-.06,.17-.92-.15,.99-.02Z"/>
  <path class="cls-2" d="M35.6,28.98c-.16-1-.52-2.1-1.44-2.66,.39,.52,.88,1.04,.94,1.72l-1.52-.72c.49,.75,1.31,1.18,2.03,1.66Z"/>
  <path class="cls-2" d="M45.58,27.14l.66-.83c-.96,.52-1.28,1.66-1.47,2.65l1.61-1.13,.39-.58-1.47,.78,.29-.88Z"/>
  <path class="cls-1" d="M20.3,32.87c-.64-.44-1.16-1-1.68-1.55l-1.01-1.41-1.02-1.83c-.04,.71,0,1.45,.22,2.13,.57,1.79,1.85,3.28,3.42,4.27l-.18-.78-.49-.51-1.25-1.4c.6,.54,1.13,1.16,1.78,1.66l.21-.58Z"/>
  <path class="cls-1" d="M60.4,33.45c.59-.46,1.09-1.02,1.64-1.51l-.96,1.12-.62,.6-.2,.81c.91-.59,1.75-1.31,2.36-2.21,.87-1.21,1.44-2.68,1.25-4.19-.57,1.11-1.16,2.23-1.96,3.2-.53,.58-1.08,1.16-1.72,1.6l.2,.59Z"/>
  <line class="cls-5" x1="25.37" y1="30.24" x2="24.41" y2="28.96"/>
  <line class="cls-5" x1="55.1" y1="30.23" x2="56.08" y2="28.96"/>
  <path class="cls-2" d="M38.48,30.84l-1.53-1.18c.26,.65,.91,.99,1.53,1.18Z"/>
  <path class="cls-2" d="M43.4,29.64l-1.5,1.19c.62-.19,1.27-.54,1.5-1.19Z"/>
  <path class="cls-1" d="M48.32,42.21l.71,1.07-.6-.47,.37,1.34,1.07-.34-.03-1,.48,.17,1.12,.35,.53-.5-.35,.69-1.34,.12-.6,.73-.79,.28,.1,1.31,.55,.6c.64,.35,1.46,.56,2.13,.17l.04-.84-1.11-.83c1,.34,2.08,.86,3.14,.47l.04-.67-.93-.41-.37-.44c.77,.29,1.69,.53,2.45,.08l-.05-.55-1.13-.61c.82,.03,1.68,.23,2.49-.06l.71-.69c-.52-.39-1.2-.36-1.79-.59l.7-.15c.67,.04,1.4,.12,2.01-.26l.45-.84-1.69-.42c.68-.21,1.4-.27,2.01-.66l.62-1c-.62-.2-1.28-.14-1.91-.24,.71-.27,1.54-.38,2.09-.96l.45-1.35c-.74,.12-1.39,.57-2.14,.69l1-.68,1.09-1.26,.3-1.31c-.73,.38-1.33,.96-2.1,1.29,.61-.76,1.44-1.36,1.88-2.26v-1.41l-.73,.7c-.48,.45-.9,.99-1.49,1.3,.48-.7,1.18-1.27,1.58-2.04v-1.89c-.59,1.07-1.37,2.03-2.31,2.83,.42-.88,1.22-1.52,1.61-2.42,.31-.76,.32-1.67-.15-2.37l-.86,1.64c-.46,.74-.9,1.48-1.5,2.09,.39-1,1.11-1.87,1.41-2.92,.19-1.05-.1-2.19-.76-3.03-.19,.64-.29,1.29-.54,1.91-.26,.62-.48,1.29-.85,1.87l-1.09,1.65-.26,.74,.79-.09-1.09,.47-.18-1.51c-.48,.86-.97,1.71-1.62,2.46-.5,.65-1.11,1.22-1.52,1.95l.08,1.41,1.62,1.2c.51,.59,.36,1.65-.37,2l-1.78,.28-.88,.73-1.03,.46c.05,.67,.09,1.38,.29,2.03Zm2.45,4.18l-.9-.52,.03-.16,.87,.68Zm7.57-13.15l-.28,.3,.28-.3Zm-5.74,11.89l-1.13-.64,1.13,.64Zm.11-1.89l1.06,.75-1.06-.75Zm2.83-.76l-1.44-.26,1.44,.26Zm1.22-1.48h-1.38l.1-.13,1.27,.13Zm1.16-2.03l-.94,.17v-.19s.94,.02,.94,.02Zm.42-2.05l-.63,.3-.16-.13,.79-.18Zm.25-1.96l-1.01,.73,1.01-.73Zm-.59-3.32l-.55,.71,.55-.71Zm-.69,.73l-.18,1.39,.72,.78-.82,1.11,.32,.95-1.01,1.03,.23,1.09-1.12,.89-.37,.8-.83,.57-.58,.94-1.41,.35-.25,.5-.25-1.25,1.71,.2,.38-.86-.78-.73,1.38,.28,.76-.43-.69-.95,1.69-.22-.02-1.02-.84-.39,1.57-.59-.02-.98-.91-.12-.12-.14c.6-.18,1.33-.28,1.72-.83l-.43-.73-1.17,.04,1.18-1.04-.41-.77,.55,.12Zm-1.25,4.3l-1.1-.17,1.1,.17Zm-.62-3.23l.9-.55-.9,.55Zm.06,1.31l1.11-.15v.1s-1.1,.23-1.1,.23l-.02-.17Zm-.17,3.49l-.99-.45,.99,.45Zm1.77-7.85l-.87,1.11,.87-1.11Zm-1.02-1.41l-.99,1.27,.99-1.27Zm-.45,1.69l.33,1.41,.54,.12c-.61,.07-1.07,.61-1.7,.7,.31-.52,.83-.94,.93-1.56l-.59-.61,.48-.05Zm-.74,.8l-.76,.69,.76-.69Zm-.88,8.24l-1.15-.71,1.15,.71Zm-1.27,1.27l-1.18-.84,1.18,.84Zm-1.83,1.2l-1.03-.87,1.03,.87Z"/>
  <line class="cls-5" x1="23.38" y1="30.37" x2="24.26" y2="31.48"/>
  <line class="cls-5" x1="56.23" y1="31.48" x2="57.1" y2="30.37"/>
  <path class="cls-2" d="M36.11,30.5l-.18,.41c.07,.66,.19,1.31,.35,1.97-.05-.79-.05-1.59-.17-2.38Z"/>
  <path class="cls-2" d="M44.11,32.86c.17-.72,.25-1.46,.37-2.18l-.26-.1c-.04,.77-.11,1.53-.11,2.28Z"/>
  <line class="cls-5" x1="25.6" y1="31.45" x2="26.35" y2="32.14"/>
  <line class="cls-5" x1="54.13" y1="32.14" x2="54.89" y2="31.45"/>
  <line class="cls-5" x1="22.43" y1="31.57" x2="23.03" y2="32.33"/>
  <path class="cls-1" d="M41.35,32.04l-.83,1.44c.89,.48,1.93,.66,2.94,.54-.22-.76-.32-1.54-.26-2.33l-1.23,1.12,.92-1.09-1.54,.32Z"/>
  <line class="cls-5" x1="58" y1="31.62" x2="57.45" y2="32.33"/>
  <path class="cls-1" d="M20.21,35.95c-.75-.5-1.61-.88-2.27-1.52,.75,.42,1.46,.88,2.21,1.29l.68-.22-1.66-.97-1.53-1.19-1.52-1.58,.25,1.33c.75,1.72,2.38,2.97,4.14,3.51l-.3-.66Z"/>
  <path class="cls-1" d="M39.8,33.5l-.8-1.45-1.51-.29,.88,1.06-1.19-1.07c.05,.78-.06,1.55-.29,2.3l1.35-.04,1.56-.5Z"/>
  <path class="cls-1" d="M60.16,35.81c.78-.46,1.56-.92,2.35-1.37-.71,.67-1.6,1.1-2.42,1.6l-.09,.56c1.73-.56,3.32-1.76,4.08-3.45l.28-1.4c-.68,.64-1.24,1.4-1.97,1.97-.59,.47-1.21,.94-1.91,1.26l-.82,.49,.49,.33Z"/>
  <polygon class="cls-1" points="35.21 32.74 34.81 33.5 35.72 33.86 35.21 32.74"/>
  <polygon class="cls-1" points="44.6 33.86 45.56 33.48 45.16 32.72 44.6 33.86"/>
  <line class="cls-5" x1="25.04" y1="33.42" x2="24.16" y2="32.87"/>
  <line class="cls-5" x1="55.44" y1="33.42" x2="56.34" y2="32.87"/>
  <line class="cls-5" x1="21.96" y1="33.12" x2="22.71" y2="33.83"/>
  <line class="cls-5" x1="58.33" y1="33.24" x2="58.06" y2="33.54"/>
  <path class="cls-1" d="M32.19,43.22c-.33,1.24-.49,2.58-.1,3.82,.31,1.05,.85,2.1,1.8,2.72,1.33,.89,2.88,1.34,4.31,2.08,.78,.42,1.42,1.03,2,1.68,.5-.51,1.02-1.03,1.63-1.43,.58-.39,1.24-.63,1.89-.91,.97-.45,1.99-.81,2.88-1.43,1.16-.82,1.81-2.18,2-3.58,.14-1.17-.14-2.34-.4-3.48-.24-1.56-.53-3.19-.16-4.76l.65-1.5-2.52-2.8-1.6,.58c-.6,.12-1.22,.08-1.83,.09l-1.68-.26-.83-.29-.96,.31c-.91,.31-1.89,.25-2.82,.24-.82-.02-2.32-.61-2.32-.61-.79,.91-2.35,2.73-2.35,2.73l.67,1.58c.14,.68,.24,1.38,.18,2.07-.09,1.06-.17,2.13-.43,3.16Zm1.03-5.12l-.58-1.26,1.99-2.39s1.54,.59,2.37,.57c1.1-.05,2.22-.15,3.2-.71,.53,.28,1.1,.49,1.7,.56,.73,.09,1.48,.22,2.22,.09l1.67-.52,2.06,2.45c-.42,.6-.64,1.19-.73,1.71-.21,1.25-.01,2.13,.18,3.36,.24,1.39,.71,2.8,.44,4.23-.2,1.07-.85,2-1.6,2.77-.8,.8-1.87,1.28-2.93,1.67-1.09,.47-2.16,1.07-3.03,1.9-.61-.64-1.38-1.08-2.15-1.5-.79-.44-1.68-.66-2.46-1.11-.77-.4-1.45-.97-1.96-1.69-.72-.9-1.12-2.04-1.04-3.18,.1-1.38,.49-2.68,.63-4.05,.1-.95,.29-1.89,.01-2.92Z"/>
  <path class="cls-2" d="M32.58,45.06c-.08,1.14,.33,2.28,1.04,3.18,.51,.71,1.19,1.28,1.96,1.69,.78,.45,1.67,.67,2.46,1.11,.77,.43,1.54,.86,2.15,1.5,.87-.84,1.94-1.43,3.03-1.9,1.06-.39,2.12-.87,2.93-1.67,.76-.77,1.4-1.7,1.6-2.77,.26-1.42-.2-2.84-.44-4.23-.2-1.23-.4-2.11-.18-3.36,.09-.52,.3-1.11,.73-1.71l-2.06-2.45-1.67,.52c-.74,.13-1.5,0-2.22-.09-.6-.07-1.17-.29-1.7-.56-.98,.56-2.11,.66-3.2,.71-.83,.01-2.37-.57-2.37-.57l-1.99,2.39,.58,1.26c.28,1.04,.09,1.97-.01,2.92-.14,1.37-.53,2.67-.63,4.05Zm13.67,3.68c-.56,.59-1.3,1-2.04,1.34-.89,.38-1.77,.76-2.61,1.23l-1.41,1c-.64-.49-1.25-1.02-1.99-1.35-.99-.54-2.08-.86-3.04-1.45-.97-.55-1.62-1.53-2.04-2.53v-.06h14.25l-1.11,1.81Zm1.17-2h-14.41l-.08-.48h14.58l-.09,.48Zm-12.57-.64l.2-.22,.28,.22h-.48Zm.05-7.18l-.3-1.17,.43,.36,.08-.63,.3,.58,.27-.48-.15,1.34,.55,1.46,.38,.13-.25,.89-.69-.42-.37-1.35-.97-.69,.72-.02Zm-.85,0l-.02-.47,.18,.26-.16,.21Zm.38-1.35l-.04-.3,.26,.23-.23,.07Zm.56-.2l.07-.37,.23,.37h-.29Zm.58,.03l.12-.28,.11,.33-.23-.05Zm5.26,3.63c1.13,0,2.36-.31,3.4,.28l.51,1.37,.96,.35c.15,.96,.25,2.05-.3,2.9l-.61,.17-.36-.31-.56,.21,.02-.33,1.04-.58,.08-1.02-.89-.32-.11,.36-1.02-.7-.1-1.24c-.59,0-1.2,0-1.76,.23h1.71s-1.5,.26-1.5,.26c-.68,.09-1.33,.32-1.95,.55l.12-.45-.51,.66-.53-.61-.6,.91-.42-1.13-1.01,.34,.07-.59,.86-.35,.59,.78,.4-.5,.66,.57,.42-.65,.46-.04,.24-.66,.81-.07-.14-.38Zm4.57-1.08c-.83-.29-1.74-.15-2.56-.45l-.82-.75,.46-.63,1.22-.48c.72-.26,1.49-.02,2.23,.05-.52,.43-1.24,.55-1.89,.42l-1.37,.1-.18,.76,1.65,.5c.59,.03,1.21,.05,1.74,.33l.1,1.23-1.42,.5-.31-.37,1.27-.37-.13-.85Zm-.84,6.17h0Zm-.8-.61l-.71,.61h-1.03l.52-.98-.16-.9,.26-.5,.79,.56,.83,.18,.09-.36,.46,.22-.21,.79-.86,.37Zm.07,.61h-.61l.34-.22,.28,.22Zm-3.57-.6l.68-.13,.09-.1-.56-.07-.44,.32-.53,.58h-2.15l.17-1.06,.8-1.48h1.03l1.53-.39,.03,1.17,.29-.08,.27,.42-.23,.38,.41-.44-.31-.67-.34,.1,.31-.91,1.31,.05-.52,.76,.09,1.29-.62,.79-.79,.05-.52-.57Zm.37,.6h-.5c.05-.74,.25-.37,.5,0Zm-.53-.47l-.1,.47h-.37l.47-.47Zm-2.61-1.75l-.27,.88-.33,1.27-.66,.03-.24-.31-.61,.18,.11-.43,.76-.47c.53-.57,.47-1.39,.63-2.1l.6,.94Zm-1.5,2.21h0Zm-2.93-9.2s1.12-1.4,1.71-1.96l1.06,.36c.91,.19,2.27,.11,3.46-.25l.92-.31,.7,.26c1.57,.44,3.27,.71,4.74-.06l1.77,2.01s-.62,1.06-.63,2.45c-.01,1.42,.45,3.43,.6,4.84,.13,1.21,.07,1.86,.07,1.86h-1.86l.44-1.25c.04-.61,.12-1.16-.05-1.74l-.88-.48-.55-.94c.59-.08,1.23-.2,1.68-.62l-.31-1.41c-.54-.31-1.15-.25-1.76-.26l-1.5-.44,.22-.73,1.31,.24,1.57-.41,.31-.64h-1.24s-1.56,.2-1.56,.2l-.99,.43-.48,.7,1.18,1.11c.67,.15,1.35,.14,2.02,.29l.27,.59-1.25,.2-1.74-.16-1.54,.04-.32-.71,1.03-.36-.84-.83,.74-.58-.54-.55,.45-.67-.87-.23v-.37s-.81-.07-.81-.07l-1.46,.35-.99,.39,.06,.8-.66-.68-.05,.3,.53,.42,.9,.22-.6-.34,.13-.26-.21-.35,1.06-.27,.62-.32,.45,.82,.37-.55,.41,.32-.54,.61-.59,.38-.02,.03h.61l-.33,.85,.44-.29,.75,.15,.63,.57-1.07,.15,.64,1.4-.72-.28-.09,.9-.56-.47-.35,1.13-.57-.89-.37,.91-.28-1.48-.91,.9-.24-.93,.87-.52,.12,.32,.67-.16,.02,.56,.48-.09,.37-.66-.71,.49,.09-.78-.75,.41,.11-.54-1.17,.56,.69-.75,1.46-.56-1.41-.47,.79-.33-.25-.14-1.15-.08-.3-.55-.06,.35,.85,.61,.09,.45,.85,.26-1.08,.34-.57,.65-.85-1.03c-.24-.78,.41-1.6-.07-2.33l-.18,.55-.5-.68-.06,.68-.59-.35,.29,1.65-.67-.5c-.21,.66,.23,1.5,.96,1.54l.32,1.53,1.22,.54-.14,1.36,.39-.14c-.1,.66-.12,1.41-.62,1.93l-.77,.37-.26,.35-.04,.04-.24,.15-.2,.14h-1.64s-.17-.58-.02-1.86c.17-1.38,.68-3.55,.73-4.94,.04-1.31-.57-2.39-.57-2.39Zm7.22,.88l.82,.54-1.34,.44-.11-.68,.63-.3Zm-.14-.12l.26-.57,.61,.09-.87,.48Zm.06-1l-.98,.13,.98-.13Z"/>
  <polygon class="cls-2" points="24.99 34.73 23.75 34.62 24.98 34.9 24.99 34.73"/>
  <polygon class="cls-2" points="56.61 34.57 55.5 34.73 55.51 34.9 56.62 34.67 56.61 34.57"/>
  <path class="cls-1" d="M18.53,36.94l1.31,.47,1.43,.31-1.19-.81c-.91-.23-1.8-.55-2.59-1.06l-1.6-1.08c.28,.86,.79,1.65,1.5,2.21,1.03,.9,2.3,1.5,3.63,1.79l.04-.65,.45-.1c-.99-.35-2.13-.37-2.96-1.07Z"/>
  <line class="cls-5" x1="22.91" y1="35.67" x2="21.77" y2="34.82"/>
  <path class="cls-3" d="M32.93,46.11h1.64l.2-.14,.24-.15,.04-.04,.26-.35,.77-.37c.49-.51,.52-1.26,.62-1.93l-.39,.14,.14-1.36-1.22-.54-.32-1.53c-.73-.05-1.17-.88-.96-1.54l.67,.5-.29-1.65,.59,.35,.06-.68,.5,.68,.18-.55c.47,.73-.18,1.55,.07,2.33l.85,1.03,.57-.65,1.08-.34-.85-.26-.09-.45-.85-.61,.06-.35-.02-.03,.02,.02,.05-.3,.66,.68-.06-.8,.99-.39,1.46-.35,.8,.07v.37s.89,.23,.89,.23l-.45,.67,.54,.55-.74,.58,.84,.83-1.03,.36,.32,.71,1.54-.04,1.74,.16,1.25-.2-.27-.59c-.67-.15-1.35-.15-2.02-.29l-1.18-1.11,.48-.7,.99-.43,1.56-.21h1.24s-.31,.65-.31,.65l-1.57,.41-1.31-.24-.22,.73,1.5,.44c.61,.01,1.22-.05,1.76,.26l.31,1.41c-.45,.42-1.08,.54-1.68,.62l.55,.94,.88,.48c.17,.58,.09,1.13,.05,1.74l-.44,1.25h1.86s.06-.65-.07-1.86c-.15-1.41-.62-3.42-.6-4.84,.01-1.39,.63-2.45,.63-2.45l-1.77-2.01c-1.47,.77-3.17,.5-4.74,.06l-.7-.26-.92,.31c-1.19,.36-2.56,.44-3.46,.25l-1.06-.36c-.59,.56-1.71,1.96-1.71,1.96,0,0,.61,1.09,.57,2.39-.05,1.4-.56,3.56-.73,4.94-.15,1.28,.02,1.86,.02,1.86Z"/>
  <path class="cls-1" d="M60.66,37.42l1.29-.47c-.85,.71-2.01,.73-3.02,1.08l.5,.1,.04,.65c1.2-.28,2.37-.76,3.33-1.55,.81-.6,1.53-1.42,1.77-2.42-.76,.43-1.42,1.03-2.21,1.41-.64,.32-1.32,.53-2,.71l-1.14,.8,1.44-.31Z"/>
  <line class="cls-5" x1="58.59" y1="34.95" x2="57.58" y2="35.67"/>
  <line class="cls-5" x1="25.53" y1="36.48" x2="24.44" y2="36.64"/>
  <line class="cls-5" x1="56.06" y1="36.65" x2="54.96" y2="36.48"/>
  <line class="cls-4" x1="39.23" y1="36.8" x2="40.21" y2="36.67"/>
  <polygon class="cls-2" points="57.71 37.21 58.34 36.91 57.55 37.08 57.71 37.21"/>
  <polygon class="cls-2" points="22.22 36.98 22.84 37.22 22.83 36.99 22.22 36.98"/>
  <polygon class="cls-1" points="40.42 37.1 40.15 37.67 41.03 37.19 40.42 37.1"/>
  <polygon class="cls-1" points="35.53 40.99 36.21 41.41 36.46 40.52 36.09 40.39 35.54 38.93 35.69 37.59 35.42 38.06 35.11 37.48 35.04 38.11 34.61 37.75 34.91 38.92 34.19 38.95 35.16 39.63 35.53 40.99"/>
  <path class="cls-1" d="M44.57,41.54l1.42-.5-.1-1.23c-.53-.28-1.15-.3-1.74-.33l-1.65-.5,.18-.76,1.37-.1c.65,.13,1.37,0,1.89-.42-.74-.07-1.51-.31-2.23-.05l-1.22,.48-.46,.63,.82,.75c.83,.29,1.73,.16,2.56,.45l.13,.85-1.27,.37,.31,.37Zm.7-3.7l-1.46-.05,1.46,.05Z"/>
  <path class="cls-1" d="M36.5,37.63l.3,.55,1.15,.08,.25,.14-.79,.33,1.41,.47-1.46,.56-.69,.75,1.17-.56-.11,.54,.75-.41-.09,.78,.71-.49-.37,.66-.48,.09-.02-.56-.67,.16-.12-.32-.87,.52,.24,.93,.91-.9,.28,1.48,.37-.91,.57,.89,.35-1.13,.56,.47,.09-.9,.72,.28-.64-1.4,1.07-.15-.63-.57-.75-.15-.44,.29,.33-.85h-.61l.02-.03,.59-.38,.54-.61-.41-.32-.37,.55-.45-.82-.62,.32-1.06,.27,.21,.35-.13,.26,.6,.34-.9-.22-.53-.42-.02-.02,.02,.03Zm2.31-.69l.34,.28-.34,.28-.35-.28,.35-.28Z"/>
  <path class="cls-1" d="M22.05,40.24c-.97-.14-1.96-.22-2.83-.68l1.28,.3c.68,.08,1.36,.24,2.05,.14-.59-.28-1.21-.56-1.88-.62-.88-.09-1.68-.51-2.5-.83l-1.65-.86c.21,.88,.77,1.69,1.53,2.19,1.22,.67,2.61,.99,4,.98v-.62Z"/>
  <line class="cls-5" x1="45.27" y1="37.84" x2="43.81" y2="37.79"/>
  <path class="cls-1" d="M59.92,39.87l1.34-.28c-.89,.4-1.87,.52-2.82,.63v.63c1.39,0,2.78-.31,4-.98,.75-.51,1.31-1.31,1.52-2.18-.97,.6-2.04,1.03-3.1,1.45l-1.32,.29-1.58,.56c.66,.13,1.3-.04,1.96-.11Z"/>
  <line class="cls-5" x1="26.15" y1="37.77" x2="25.12" y2="38.24"/>
  <polygon class="cls-1" points="39.78 38.78 41.12 38.33 40.3 37.79 39.66 38.1 39.78 38.78"/>
  <line class="cls-5" x1="55.33" y1="38.22" x2="54.34" y2="37.77"/>
  <polygon class="cls-2" points="23.55 38.94 22.57 38.96 23.49 39.11 23.55 38.94"/>
  <polygon class="cls-2" points="56.98 39.13 57.92 38.96 56.97 38.94 56.98 39.13"/>
  <line class="cls-5" x1="27.63" y1="38.98" x2="26.48" y2="39.69"/>
  <line class="cls-5" x1="52.86" y1="38.98" x2="54.01" y2="39.69"/>
  <polygon class="cls-1" points="17.72 40.96 17.51 40.34 16.81 40.67 16.62 39.69 15.95 39.97 16.37 40.87 15.67 41.14 15.9 41.73 16.54 41.34 16.89 42.53 17.51 42.28 16.94 41.18 17.72 40.96"/>
  <line class="cls-5" x1="28.94" y1="40.13" x2="27.68" y2="40.99"/>
  <line class="cls-5" x1="52.74" y1="40.96" x2="51.56" y2="40.12"/>
  <polygon class="cls-2" points="23.7 41.05 25.17 40.92 23.71 40.96 23.7 41.05"/>
  <polygon class="cls-2" points="55.39 40.99 56.76 40.99 55.49 40.86 55.39 40.99"/>
  <path class="cls-1" d="M20.78,42.97c.96,.09,1.97,.28,2.9-.1l-.28-.77c-.77,.09-1.57,.2-2.33-.02,.72,0,1.46,.02,2.15-.27l-.96-.45-1.75,.02c-.88-.03-1.74-.3-2.59-.5l.79,1.26c.6,.44,1.33,.74,2.08,.83Z"/>
  <path class="cls-1" d="M39.91,42.13l-.46,.04-.42,.65-.66-.57-.4,.5-.59-.78-.86,.35-.07,.59,1.01-.34,.42,1.13,.6-.91,.53,.61,.51-.66-.12,.45c.63-.23,1.27-.47,1.95-.55l1.5-.26h-1.71c.56-.23,1.16-.23,1.76-.22l.1,1.24,1.02,.7,.11-.36,.89,.32-.08,1.02-1.04,.58-.02,.33,.56-.21,.36,.31,.61-.17c.55-.85,.45-1.94,.3-2.9l-.96-.35-.51-1.37c-1.05-.59-2.27-.28-3.4-.28l.14,.38-.81,.07-.24,.66Z"/>
  <path class="cls-1" d="M57.26,41.8c.69,.28,1.44,.26,2.17,.27-.76,.22-1.56,.11-2.33,.02l-.29,.76c.89,.41,1.88,.21,2.82,.13,.78-.09,1.53-.38,2.16-.84l.8-1.26c-.82,.19-1.63,.44-2.48,.49-.61,.08-1.23-.02-1.85-.02l-.99,.46Z"/>
  <line class="cls-5" x1="30.61" y1="41.29" x2="29.59" y2="42.16"/>
  <line class="cls-5" x1="49.87" y1="41.29" x2="50.91" y2="42.16"/>
  <path class="cls-1" d="M18.23,47.19c.23,1.23,.53,2.55,1.39,3.49l.85,.12-.04-1.38c-.22-.77-.48-1.53-.92-2.2-.84-1.23-1.42-2.66-1.58-4.14l.2-1.23-.71,.85-1.15,.1h-.02s0,0,0,0l1.09,.86c.56,1.08,.73,2.32,.89,3.51Z"/>
  <polygon class="cls-2" points="26.31 42.33 26.24 42.18 24.95 42.48 26.31 42.33"/>
  <line class="cls-5" x1="55.54" y1="42.47" x2="54.1" y2="42.22"/>
  <polygon class="cls-1" points="41.58 46.03 42.2 45.23 42.11 43.94 42.62 43.18 41.31 43.13 41 44.04 41.34 43.94 41.65 44.62 41.24 45.05 41.11 45.28 41.04 45.27 40.95 45.37 40.27 45.5 40.79 46.08 41.58 46.03"/>
  <path class="cls-1" d="M35.52,45.52l-.11,.43,.61-.18,.24,.31,.66-.03,.33-1.27,.27-.88-.6-.94c-.16,.71-.1,1.52-.63,2.1l-.76,.47Z"/>
  <path class="cls-1" d="M24.25,43.21c-.99,.21-1.99,.46-3,.44l-1.74-.18,.4,.84,.95,.56c.61,.17,1.25,.3,1.88,.23,.76-.08,1.47-.38,2.17-.72l.4-.71c-.82,.15-1.59,.67-2.46,.53,.75-.11,1.48-.33,2.12-.76l-.74-.23Z"/>
  <line class="cls-5" x1="27.77" y1="43.24" x2="26.72" y2="43.97"/>
  <polygon class="cls-3" points="41.24 45.05 41.47 44.68 41.2 44.26 40.9 44.34 40.88 43.17 39.35 43.56 38.32 43.56 37.53 45.04 37.36 46.11 39.51 46.11 40.04 45.52 40.48 45.2 41.04 45.27 41.11 45.28 41.24 45.05"/>
  <line class="cls-5" x1="53.77" y1="43.98" x2="52.71" y2="43.24"/>
  <path class="cls-1" d="M55.51,43.44c.64,.43,1.38,.66,2.13,.76-.86,.14-1.64-.37-2.46-.53l.19,.55,.49,.29c.63,.28,1.29,.56,1.99,.6l1.72-.22,.93-.49,.5-.93-1.64,.18c-1.05,.03-2.07-.21-3.1-.44l-.74,.23Z"/>
  <polygon class="cls-3" points="44.84 44.34 44.38 44.12 44.28 44.48 43.45 44.3 42.66 43.73 42.4 44.23 42.56 45.13 42.03 46.11 43.06 46.11 43.77 45.49 44.63 45.13 44.84 44.34"/>
  <line class="cls-5" x1="29.01" y1="44.49" x2="27.89" y2="45.13"/>
  <line class="cls-5" x1="52.6" y1="45.13" x2="51.47" y2="44.49"/>
  <path class="cls-1" d="M22.22,46.7l1.57,.27c1.05-.13,2.09-.41,3.01-.96l-.54-.84-1.59,.75c.59-.36,1.25-.63,1.75-1.13h-1.31s-1.74,.77-1.74,.77l-1.69,.48,.55,.67Z"/>
  <path class="cls-1" d="M55.11,44.61l-1.04,.17c.5,.51,1.16,.78,1.75,1.14l-1.6-.76-.54,.85,1.63,.69c.85,.22,1.77,.44,2.64,.15l.85-.82-1.68-.48c-.68-.28-1.39-.53-2.02-.94Z"/>
  <line class="cls-5" x1="30.69" y1="45.71" x2="29.68" y2="46.37"/>
  <polygon class="cls-1" points="40.01 46.11 40.11 45.64 39.65 46.11 40.01 46.11"/>
  <polygon class="cls-2" points="49.87 45.87 50.76 46.39 49.89 45.71 49.87 45.87"/>
  <polygon class="cls-1" points="34.86 46.11 35.34 46.11 35.06 45.89 34.86 46.11"/>
  <path class="cls-1" d="M40.14,46.11h.5c-.25-.37-.45-.74-.5,0Z"/>
  <polygon class="cls-1" points="43.23 46.11 43.84 46.11 43.57 45.89 43.23 46.11"/>
  <path class="cls-1" d="M27.18,46.37c-1.03,.57-2.02,1.26-3.19,1.51,.72,.53,1.65,.62,2.51,.6,.74-.05,1.52-.42,1.85-1.12l-.08-1.04c-.49,.42-.97,.91-1.61,1.1l1.36-1.26-.85,.2Z"/>
  <path class="cls-1" d="M52.44,46.22l1.36,1.21c-.64-.19-1.11-.68-1.6-1.1l-.11,.99c.3,.7,1.08,1.11,1.82,1.18,.89,.01,1.84-.06,2.58-.6-1.16-.26-2.17-.93-3.18-1.51l-.87-.16Z"/>
  <polygon class="cls-1" points="33.01 46.74 47.42 46.74 47.51 46.26 32.93 46.26 33.01 46.74"/>
  <path class="cls-1" d="M29.21,49.36c.72-.18,1.21-.8,1.69-1.33l.59-1.31-1.04,.51-.97,.88-.89,.47,1.36-1.21-1.07-.06c-.43,.68-1.09,1.19-1.5,1.9,.58,.2,1.23,.34,1.83,.15Z"/>
  <path class="cls-1" d="M50.53,47.36l1.37,1.22-1.25-.86-1.65-1.01,.6,1.32c.47,.54,.95,1.14,1.68,1.32,.6,.19,1.24,.04,1.83-.15-.42-.71-1.07-1.23-1.51-1.9l-1.07,.06Z"/>
  <path class="cls-6" d="M33.12,46.99c.42,1,1.07,1.98,2.04,2.53,.96,.59,2.05,.92,3.04,1.45,.74,.33,1.35,.85,1.99,1.35l1.41-1c.84-.47,1.73-.85,2.61-1.23,.74-.35,1.48-.75,2.04-1.34l1.11-1.81h-14.25v.06Z"/>
  <polygon class="cls-1" points="31.98 49.49 32.22 48.25 31.63 48.79 31.96 48.01 31.72 47.33 30.95 48.82 30.49 49.64 31.98 49.49"/>
  <polygon class="cls-1" points="48.78 47.33 48.51 48.01 48.86 48.81 48.27 48.25 48.46 49.44 50.03 49.71 49.5 48.77 48.78 47.33"/>
  <polygon class="cls-1" points="60.25 49.63 60.91 49.92 61.08 49.27 60.39 49.22 60.72 48.5 59.97 48.31 59.9 49.06 59.21 48.76 59.03 49.46 59.8 49.49 59.38 50.43 60.14 50.66 60.25 49.63"/>
  <path class="cls-1" d="M46.82,50.11l.63,1.04-.94-.84-1.32,.74,.91,1.22-1.28-1.09-.92,.42c1.21,1.09,2.15,2.42,3.21,3.65l-.36-1.73c.29,.66,.45,1.36,.7,2.05,.5-.84,.65-1.94,.18-2.82h1.58s1.28-.56,1.28-.56c-.81,0-1.69,.06-2.41-.38l1.6,.24,1.2-.2-1.52-.58c-.72-.46-1.36-1.13-1.6-1.98l-.93,.84Z"/>
  <path class="cls-1" d="M34.33,52.29l.85-1.23-1.25-.74-.91,.82,.6-1.04-.92-.84c-.28,.87-.92,1.6-1.7,2.04l-1.43,.52,1.32,.2,1.5-.23c-.73,.42-1.59,.4-2.41,.38,.81,.62,1.87,.7,2.83,.52l-.25,1.42,.46,1.45c.23-.7,.38-1.42,.71-2.06l-.38,1.73,1.35-1.62c.52-.72,1.16-1.32,1.75-1.98l-.98-.37-1.14,1.02Z"/>
  <path class="cls-3" d="M58.86,50.63l-1.4,.22-1.27,1.13c.74,.14,1.46,.42,2.21,.5,.11-.63,.32-1.23,.46-1.86Z"/>
  <path class="cls-1" d="M59.74,54.06l.28-.87,.47,.65,.27,.76,.86,.22,.49-1.27c-.71-.22-1.46-.32-2.17-.57,.09-.69,.35-1.36,.52-2.04l-1.39-.34c-.17,.7-.28,1.43-.55,2.1-.8-.22-1.63-.36-2.43-.53l-.36,1.48c1.05,.2,2.09,.47,3.15,.61l.86-.2Zm2.03-.11l-.7,.45v-.35s.2,.21,.2,.21l.27-.26-.27-.27-.21,.22v-.33s.71,.35,.71,.35Zm-5.46-.63l-.29-.57,.66-.28,.41,.53-.78,.31Zm1.13,.43l-.17-.54,.7-.42,.29,.6-.82,.36Zm1.63-.03l.21-.21,.2,.15-.41,.06Zm.39-2.73l.55,.52h-.23l.09-.09-.27-.27-.26,.27,.09,.09h-.27l.3-.52Zm-.18,1.04l.44,.51-.56,.37-.33-.46,.45-.42Zm-.49,1.11l.18,.14-.21,.22,.23,.23-.43,.06,.23-.66Z"/>
  <polygon class="cls-2" points="59.35 51.41 59.61 51.14 59.87 51.41 59.79 51.5 60.02 51.5 59.47 50.98 59.17 51.5 59.43 51.5 59.35 51.41"/>
  <path class="cls-3" d="M62.05,53.37l-.45-1.4-.95-.76-.45,1.72c.61,.16,1.23,.31,1.85,.44Z"/>
  <path class="cls-2" d="M59.73,52.54l-.44-.51-.45,.42,.33,.46,.56-.37Zm-.4-.36l.27,.27-.27,.27-.26-.27,.26-.27Z"/>
  <path class="cls-1" d="M41.23,53.11l-1.04,1.19-1.34-1.35-1.12-.79-1.05,1.56-.78,1.01-.21,1.39,.47,.19c.63-.23,.69-1.02,1.12-1.47-.19,.74-.56,1.48-.4,2.26l.7,.26,1-1.6c-.06,.76-.5,1.47-.41,2.26l.35,.56,.46-.3,.5-1.58,.12,.09c0,.61-.03,1.26,.27,1.83l.71-.07c.28-.6,.2-1.28,.3-1.93l.46,1.46,.38,.45,.5-.38c.17-.75-.28-1.43-.29-2.17l.94,1.4,.69-.32c.09-.69-.15-1.36-.25-2.03l.65,1.1,.76,.07-.07-1.05-.98-1.29c-.47-.47-.7-1.13-.95-1.72l-1.49,.99Zm-5.07,2.75l.17-.74,.69-.84-.86,1.57Zm1.22,.78l.59-1.48-.59,1.48Zm1.41,.47l.37-1.2-.37,1.2Zm1.37,.48l.1-1.38-.1,1.38Zm1.08-1.66l.35,1.17-.35-1.17Zm3.02-.1l-.9-1.62c.46,.43,.85,.96,.9,1.62Zm-1.79-.74l.56,1.55-.56-1.55Z"/>
  <path class="cls-2" d="M56.02,52.74l.29,.57,.78-.31-.41-.53-.66,.28Zm.57,.41l-.27-.27,.27-.26,.27,.26-.27,.27Z"/>
  <path class="cls-1" d="M30.96,54.84l.87-1.5-1.12-.24-1.1-.52-1.44,.52c.7,.42,1.49,.65,2.31,.66-.64,.84-.86,1.94-.82,2.97,.86-.73,1.82-1.32,2.82-1.81l-.26-1.44-1.27,1.36Z"/>
  <path class="cls-1" d="M49.71,53.13l-1.08,.2,.85,1.48-1.25-1.34-.28,1.44c1.01,.5,1.97,1.1,2.85,1.82,0-1.03-.18-2.12-.83-2.96,.82-.03,1.62-.22,2.31-.68l-1.45-.5-1.12,.54Z"/>
  <polygon class="cls-1" points="55.61 52.59 55.08 53.43 55.48 53.51 55.61 52.59"/>
  <path class="cls-2" d="M57.27,53.2l.17,.54,.82-.36-.29-.6-.7,.42Zm.52,.32l-.27-.27,.27-.26,.27,.26-.27,.27Z"/>
  <path class="cls-1" d="M22.56,55.71l-.39-1.66-.76-1.12-.49,.14-.02,1.49c.13,.62,.56,1.13,.91,1.63l.74-.48Z"/>
  <polygon class="cls-2" points="59.07 53.71 59.49 53.65 59.29 53.5 59.07 53.71"/>
  <polygon class="cls-2" points="58.77 53.49 58.98 53.27 58.8 53.13 58.57 53.79 59 53.72 58.77 53.49"/>
  <polygon class="cls-1" points="60.46 54.34 60.11 53.46 59.95 54.17 60.46 54.34"/>
  <polygon class="cls-2" points="61.27 53.71 61.53 53.98 61.27 54.24 61.06 54.04 61.06 54.39 61.77 53.95 61.05 53.6 61.06 53.93 61.27 53.71"/>
  <path class="cls-1" d="M50.65,54.43l.43,1.5c.9,.43,1.78,.91,2.67,1.36,.62,.31,1.14,.78,1.77,1.04l1.22-.04c.63-.18,1.27-.33,1.9-.53,1.1-.35,2.25-.59,3.27-1.14l.71-.89-.6-.8-.46,.98-1.29,.97-.68-.18,.04-.67,.87-.82-.97-.69-.88,1.46c-.69,.47-1.72,.55-2.36-.02-.45-.58-.51-1.36-.8-2.02l-.44-.23-.45,.95,.56,.93,.52,1.29h-.77s-.67-.47-.67-.47l-1.4-1.04c-.63-.54-1.51-.54-2.21-.94Z"/>
  <polygon class="cls-1" points="27.53 54.48 29.23 54.21 28.36 53.9 27.53 54.48"/>
  <polygon class="cls-1" points="51.22 54.18 52.89 54.47 52.11 53.96 51.22 54.18"/>
  <path class="cls-3" d="M57.03,55.71l1.51-.12,.51-.88c-1.09-.1-2.13-.45-3.22-.62,.29,.59,.48,1.4,1.19,1.62Z"/>
  <path class="cls-2" d="M43.36,54.21l.9,1.62c-.05-.65-.44-1.19-.9-1.62Z"/>
  <polygon class="cls-2" points="36.16 55.86 37.03 54.29 36.33 55.12 36.16 55.86"/>
  <polygon class="cls-1" points="62.38 54.98 62.17 54.15 62.02 54.79 62.38 54.98"/>
  <path class="cls-1" d="M28.14,55.2c-.47,.34-.97,.71-1.57,.79-.98,.16-1.98,.1-2.98,.06l-1.14,.12-.82,.79,.67,1.06,.63-.42-.06-.71c.87-.09,1.79,.05,2.53,.56-.61-.05-1.17-.32-1.75-.47l.19,1.05,.29-.75,.52,.81,.18,1.27,.5-1.16,.48,.79,.95-1.14c.57-.48,1.1-1.01,1.77-1.33l.88-.8,.4-1.31-1.66,.78Z"/>
  <line class="cls-5" x1="43.03" y1="56.64" x2="42.47" y2="55.08"/>
  <polygon class="cls-3" points="60.09 56.4 61.11 56.1 61.58 55.36 60.96 55.17 59.97 55.91 60.09 56.4"/>
  <line class="cls-5" x1="37.38" y1="56.64" x2="37.97" y2="55.16"/>
  <line class="cls-5" x1="38.79" y1="57.1" x2="39.16" y2="55.91"/>
  <line class="cls-5" x1="41.6" y1="57.1" x2="41.24" y2="55.93"/>
  <line class="cls-5" x1="40.26" y1="56.21" x2="40.16" y2="57.59"/>
  <path class="cls-1" d="M44.49,57.68l-.7-.44-.29,.63-.43,.02,.39,1.01h-.12s-.81-1.34-.81-1.34l-.37,1.31,.18,.93-.78-.93-.52-.56-.69,1.06-.16,1.4-.15-1.4-.7-1.03-.79,.66-.52,.87,.11-1.27-.26-1.03-.92,1.4,.37-1.04-.44-.16-.29-.55-.75,.48c.35-.38,.84-.73,.84-1.32l-.91,.47-.53,.86-.05,1.17,1.17-.76c-.08,.63-.22,1.29,.04,1.88l1.12-.84c-.08,.62-.13,1.26-.04,1.89l.57-.32,.84-1.34,.12,.1,.2,1.41,.75,1.13,.81-.29c.54-.69,.54-1.59,.68-2.41l.96,1.47,.47,.16c.2-.59,.03-1.23,0-1.82l1.16,.84c.18-.6,.07-1.24,0-1.87l1.13,.76-.16-1.51-1.31-.96,.78,1.25Z"/>
  <path class="cls-1" d="M21.32,57.05l-.47,.42,.11,.99,.89,.39c-.1-.62-.53-1.14-.53-1.8Z"/>
  <polygon class="cls-1" points="23.21 57.52 23.62 57.77 23.32 57.05 23.21 57.52"/>
  <polygon class="cls-1" points="22.76 58.78 23.63 58.39 23.21 57.66 22.76 58.78"/>
  <polygon class="cls-1" points="24.35 57.73 23.91 58.39 24.41 58.47 24.35 57.73"/>
  <polygon class="cls-1" points="22.49 58.52 22.08 58.36 22.26 58.94 22.61 59.11 22.49 58.52"/>
  <polygon class="cls-1" points="23.41 59.79 24.38 59.44 23.88 58.66 23.03 59.16 22.67 59.35 21.23 59.2 21.38 59.82 22.71 60.25 23.41 59.79"/>
  <path class="cls-1" d="M36.47,60.42l-.4-.15,.04-1.53-1.06,.52-.16-.3-.79,1.09c-.67,.53-1.35,1.06-2.12,1.43,.4,.48,1.05,.6,1.65,.66,.61,.02,1.12-.35,1.59-.67l1.25-1.04Zm-2.71,1.02l1.48-1.27,.17,.1c-.45,.51-.98,.98-1.65,1.17Z"/>
  <path class="cls-1" d="M44.35,60.05l-.35,.44,1.52,1.17,1.24,.47c.59-.05,1.26-.17,1.66-.67-.7-.33-1.3-.8-1.92-1.26l-1-1.17-.16,.23-1.04-.52,.04,1.31Zm2.31,1.36c-.69-.17-1.35-.64-1.63-1.3,.59,.38,1,.97,1.63,1.3Z"/>
  <polygon class="cls-1" points="25.06 59.41 25.39 59.62 25.36 58.76 25.06 59.41"/>
  <polygon class="cls-1" points="24.56 59.72 23.23 60.35 22.32 60.67 23.21 61.04 24.03 60.59 25.26 60.2 24.56 59.72"/>
  <path class="cls-1" d="M37.74,61.51l-.46-.41-.06-1.16c-.61,.33-.89,1-1.48,1.36l-1.53,1.11-.58,1.3,1.13-.08c.72-.14,1.27-.67,1.88-1.04l1.1-1.08Zm-2.75,1.23l1.08-.82,.83-.52c-.43,.67-1.14,1.12-1.9,1.34Z"/>
  <path class="cls-1" d="M44.68,61.3c-.58-.36-.88-1.04-1.48-1.36l-.02,1.05-.52,.47,1.12,1.11c.63,.38,1.2,.95,1.97,1.07l1.04,.06-.57-1.31-1.53-1.1Zm-1.15,.11l1.32,.92,.57,.41c-.76-.22-1.46-.66-1.89-1.33Z"/>
  <path class="cls-2" d="M35.24,60.17l-1.48,1.27c.68-.19,1.2-.66,1.65-1.17l-.17-.1Z"/>
  <path class="cls-2" d="M46.66,61.4c-.63-.33-1.04-.92-1.63-1.3,.28,.66,.94,1.13,1.63,1.3Z"/>
  <path class="cls-1" d="M39.29,61.97l-.54-1.59-.6,.91-1.16,1.25-1.38,.97-.35,1.19,.5-.08c.85-.4,1.84-.56,2.57-1.21l.96-1.45Zm-2.84,1.79c.56-.42,1.13-.85,1.74-1.22-.34,.67-1.04,1.04-1.74,1.22Z"/>
  <path class="cls-1" d="M43.65,62.7l-1.11-1.13-.89-1.18-.47,1.62c.16,.64,.57,1.19,1.1,1.58,.84,.61,1.9,.75,2.8,1.25l-.03-.93c-.26-.59-.89-.89-1.41-1.21Zm-1.42-.15c.62,.35,1.15,.83,1.77,1.18-.73-.1-1.41-.54-1.77-1.18Z"/>
  <path class="cls-1" d="M24.23,60.99c.38,.52,.36,1.19,.32,1.8l.65-.82,1.18-.05-1.27-1.02-.88,.09Z"/>
  <path class="cls-2" d="M36.07,61.92l-1.08,.82c.76-.22,1.47-.66,1.9-1.34l-.83,.52Z"/>
  <path class="cls-2" d="M43.53,61.41c.44,.67,1.13,1.12,1.89,1.33l-.57-.41-1.32-.92Z"/>
  <path class="cls-1" d="M40.08,62.81l-.69-.7-.99,1.47-1.15,1.13,.24,1.52,.84-.65,1.35-1.27,.39-1.51Zm-1.19,1.46l-1.16,1.03c.24-.81,1.04-1.2,1.63-1.73l-.47,.69Z"/>
  <path class="cls-1" d="M41.03,62.11l-.65,1.02,.4,1.22,1.31,1.23,.84,.65,.29-1.42-1.14-1.19-1.04-1.51Zm1.66,3.22l-1.11-1.03-.5-.73c.58,.54,1.42,.92,1.61,1.76Z"/>
  <polygon class="cls-1" points="25.04 62.68 25.48 63.04 25.19 62.19 25.04 62.68"/>
  <path class="cls-2" d="M38.18,62.54c-.6,.37-1.17,.8-1.74,1.22,.69-.19,1.4-.55,1.74-1.22Z"/>
  <path class="cls-2" d="M44,63.74c-.62-.35-1.15-.84-1.77-1.18,.36,.65,1.04,1.08,1.77,1.18Z"/>
  <path class="cls-2" d="M37.72,65.3l1.16-1.03,.47-.69c-.59,.53-1.39,.92-1.63,1.73Z"/>
  <path class="cls-2" d="M41.57,64.31l1.11,1.03c-.2-.84-1.03-1.22-1.61-1.76l.5,.73Z"/>
  <path class="cls-1" d="M39.07,65.54l.3,1.07,.87,.97,.83-1.02,.28-1.04-1.14-1.15-1.14,1.16Zm1.16,.88l-.17-1.34,.32,.04-.14,1.31Z"/>
  <polygon class="cls-2" points="40.23 66.42 40.37 65.11 40.05 65.07 40.23 66.42"/>
  <polygon class="cls-1" points="45.75 20.46 45.87 20.59 46 20.46 45.87 20.34 45.75 20.46"/>
  <polygon class="cls-1" points="34.41 20.5 34.53 20.62 34.66 20.5 34.53 20.37 34.41 20.5"/>
  <polygon class="cls-1" points="37.48 20.15 37.35 20.03 37.23 20.15 37.35 20.28 37.48 20.15"/>
  <rect class="cls-1" x="43.05" y="20.07" width=".17" height=".17" transform="translate(-1.45 36.85) rotate(-45.57)"/>
  <polygon class="cls-1" points="40.4 20.13 40.25 19.97 40.09 20.13 40.25 20.29 40.4 20.13"/>
  <polygon class="cls-1" points="59.59 52.44 59.32 52.17 59.06 52.44 59.32 52.71 59.59 52.44"/>
  <polygon class="cls-1" points="56.33 52.88 56.59 53.15 56.86 52.88 56.59 52.62 56.33 52.88"/>
  <polygon class="cls-1" points="57.53 53.26 57.8 53.53 58.06 53.26 57.8 53 57.53 53.26"/>
  <polygon class="cls-1" points="21.25 52.07 20.63 51.47 20.02 52.07 20.63 52.68 21.25 52.07"/>
  <rect class="cls-1" x="38.13" y="15.43" width=".39" height=".39" transform="translate(.04 31.34) rotate(-44.5)"/>
  <polygon class="cls-1" points="42.17 15.9 42.45 15.62 42.17 15.34 41.89 15.62 42.17 15.9"/>
  <polygon class="cls-1" points="34.77 16.65 34.42 16.79 34.37 17.15 34.7 17.01 34.77 16.65"/>
  <polygon class="cls-1" points="36.4 15.7 36.09 15.73 35.94 16 36.25 15.98 36.4 15.7"/>
  <polygon class="cls-1" points="44.46 16 44.32 15.73 44.01 15.7 44.15 15.98 44.46 16"/>
  <polygon class="cls-1" points="46.05 17.15 46 16.79 45.66 16.65 45.71 17.01 46.05 17.15"/>
  <polygon class="cls-1" points="46.82 18.67 46.8 18.25 46.42 18.05 46.45 18.47 46.82 18.67"/>
  <polygon class="cls-1" points="34.04 18.05 33.67 18.25 33.64 18.67 34.01 18.47 34.04 18.05"/>
  <polygon class="cls-1" points="34.06 38.91 34.22 38.7 34.03 38.44 34.06 38.91"/>
  <polygon class="cls-1" points="34.43 37.56 34.66 37.49 34.4 37.26 34.43 37.56"/>
  <polygon class="cls-1" points="35.69 37.11 35.57 37.39 35.8 37.44 35.69 37.11"/>
  <polygon class="cls-1" points="35.06 36.99 34.99 37.36 35.29 37.36 35.06 36.99"/>
  <path class="cls-2" d="M39.15,37.22l-.34-.28-.35,.28,.35,.28,.34-.28Zm-.31-.12l.09,.09-.09,.07-.09-.07,.09-.09Z"/>
  <polygon class="cls-1" points="38.93 37.19 38.84 37.1 38.75 37.19 38.84 37.26 38.93 37.19"/>
</svg>