<?xml version="1.0" encoding="UTF-8"?>
<svg id="Layer_1" data-name="Layer 1" xmlns="http://www.w3.org/2000/svg" viewBox="0 0 80 80">
  <defs>
    <style>
      .cls-1 {
        fill: #088442;
      }

      .cls-2 {
        fill: #e51e26;
      }
    </style>
  </defs>
  <polygon class="cls-2" points="34.35 47.63 32.74 52.86 36.98 49.64 34.35 47.63"/>
  <polygon class="cls-2" points="37.22 38.36 35.5 43.91 40 47.34 44.5 43.91 42.78 38.36 37.22 38.36"/>
  <polygon class="cls-2" points="32.47 41.6 33.48 38.36 28.23 38.37 32.47 41.6"/>
  <polygon class="cls-2" points="46.53 38.36 47.54 41.6 51.77 38.36 46.53 38.36"/>
  <polygon class="cls-2" points="45.66 47.63 43.03 49.63 47.28 52.86 45.66 47.63"/>
  <polygon class="cls-2" points="38.38 34.63 41.63 34.63 40 29.42 38.38 34.63"/>
  <path class="cls-2" d="M60,80c11.05,0,20-8.95,20-20V20c0-11.05-8.95-20-20-20H20C8.95,0,0,8.95,0,20V60c0,11.05,8.95,20,20,20H60Zm-25.37-45.37l5.36-17.31,5.39,17.31h17.36s-14.04,10.71-14.04,10.71l5.37,17.29-14.08-10.68-14.04,10.7,5.36-17.32-14.05-10.69h17.37Z"/>
  <polygon class="cls-1" points="37.05 49.58 39.92 47.4 27.95 38.29 28.09 38.29 33.5 38.27 34.57 34.83 34.61 34.72 17.54 34.72 37.05 49.58"/>
  <polygon class="cls-1" points="32.56 41.67 35.42 43.84 37.12 38.36 37.12 38.36 37.13 38.31 37.42 37.38 38.27 34.63 38.28 34.63 40 29.09 40.04 29.25 41.72 34.63 45.29 34.63 40 17.65 32.56 41.67"/>
  <polygon class="cls-1" points="38.35 34.73 37.25 38.27 42.75 38.27 42.82 38.27 46.51 38.27 52.05 38.27 51.94 38.35 47.57 41.7 47.7 42.12 48.67 45.24 62.46 34.72 38.35 34.73"/>
  <polygon class="cls-1" points="46.43 38.36 42.88 38.36 44.58 43.84 44.59 43.84 44.6 43.91 47.46 53.11 47.34 53.02 42.96 49.7 40.08 51.89 53.88 62.37 46.43 38.36"/>
  <polygon class="cls-1" points="45.63 47.54 44.54 44 32.56 53.12 32.61 52.98 34.26 47.58 31.38 45.39 26.13 62.39 45.63 47.54"/>
  <path d="M25.95,62.64l14.04-10.7,14.08,10.68-5.37-17.29,14.04-10.71h-17.36s-5.39-17.3-5.39-17.3l-5.36,17.31H17.26l14.05,10.69-5.36,17.32Zm12.42-28.01l1.62-5.22,1.63,5.22h-3.25Zm8.16,3.72h5.23l-4.23,3.25-1.01-3.25Zm-.88,9.27l1.62,5.23-4.25-3.23,2.63-2Zm-5.66-.29l-4.5-3.43,1.72-5.55h5.56l1.72,5.55-4.5,3.43Zm-7.53-5.73l-4.24-3.23h5.24s-1.01,3.23-1.01,3.23Zm1.87,6.03l2.63,2-4.24,3.23,1.61-5.23Zm-2.96-2.25l2.88,2.2-1.66,5.39-.05,.14,11.98-9.12,1.09,3.53-19.49,14.85,5.25-17Zm8.69,6.5l2.88-2.19,4.39,3.32,.12,.09-2.86-9.2-.02-.06h0s-1.7-5.48-1.7-5.48h3.55l7.45,24.02-13.8-10.49Zm7.62-9.77l-.13-.42,4.37-3.34,.11-.08h-14.8l1.1-3.55h24.11s-13.79,10.52-13.79,10.52l-.97-3.12Zm-5.98-7.49l-1.68-5.39-.05-.15-1.72,5.54h0l-.85,2.74-.29,.94-.02,.04h0l-1.7,5.48-2.86-2.17,7.44-24.02,5.29,16.99h-3.56Zm-7.15,.2l-1.08,3.44h-5.4s-.14,.01-.14,.01l11.97,9.11-2.86,2.18-19.51-14.86h17.06l-.03,.11Z"/>
</svg>