<?xml version="1.0" encoding="UTF-8"?>
<svg id="Layer_1" data-name="Layer 1" xmlns="http://www.w3.org/2000/svg" viewBox="0 0 80 80">
  <defs>
    <style>
      .cls-1 {
        fill: #fff;
      }

      .cls-2 {
        fill: #fbe000;
      }

      .cls-3 {
        fill: #ce202c;
      }

      .cls-4 {
        fill: #007169;
      }
    </style>
  </defs>
  <path class="cls-2" d="M4.29,72.35c3.66,4.65,9.33,7.65,15.71,7.65H60c11.05,0,20-8.95,20-20v-3.9H25.51L4.29,72.35Z"/>
  <polygon points="46.54 40 29.51 53.04 80 53.04 80 26.95 29.5 26.95 46.54 40"/>
  <path class="cls-4" d="M60,0H20C13.62,0,7.95,3,4.29,7.65L25.5,23.89h54.5v-3.89c0-11.05-8.95-20-20-20Z"/>
  <polygon class="cls-1" points="29.5 26.95 80 26.95 80 23.89 25.5 23.89 29.5 26.95"/>
  <polygon class="cls-1" points="25.51 56.1 80 56.1 80 53.04 29.51 53.04 25.51 56.1"/>
  <path class="cls-3" d="M0,47.58v3.05l.99-3.05c-.33,0-.66,0-.99,0Z"/>
  <path class="cls-3" d="M29.51,53.04l17.03-13.04-17.05-13.05-4-3.06L4.29,7.65C1.61,11.06,0,15.34,0,20v9.43l.3,.02,1.04,.08,.3-.09,.13-.49,.66-.84,1.23-.1,.29,.14c.63,.69,1.27,1.38,1.9,2.07l.06,.15-.16,.57c.16,.18,.32,.36,.48,.54l2.41-7.43,2.7,8.32c.32-.31,.63-.62,.96-.92l1.28,.06,1.62-1.51,.04-.64,.04-.46,.09-.02,.06,.02,.37,.38,.69,.32,.37-.32,.38,.02,.18,.31-.1,.34,.12,.08,.16-.1c1.95-1.38,3.9-2.75,5.86-4.14l.6-.41h.11v.14c-2.01,1.94-4.04,3.87-6.06,5.81l-.43,.12-.28-.1-.61,.51c-.96,.82-1.92,1.63-2.89,2.45l-.17,.12-.15-.1-.72-.58-.84,.74,.57,1.74h12.81l-7.5,5.45c.46,1.5,.91,3,1.37,4.5l.11,.28c.83,.96,1.66,1.91,2.49,2.86l.03,.17-.21,.65-.6,.38-.19-.02c-.86-.97-1.72-1.96-2.58-2.93l-.42-.06c-.58-.14-1.18-.26-1.77-.35l2.86,8.8-10.37-7.52L0,54.69v5.31c0,4.66,1.61,8.95,4.29,12.35l21.22-16.25,4-3.06Z"/>
  <path class="cls-3" d="M5.69,33.1c-.32-.36-.65-.73-.98-1.09l-.56,.11-.51-.05-.19-.18-.79-.88-.14,1.6-.12,.22c-.81,1.01-1.61,2.03-2.42,3.05v.33H4.68l1.01-3.12Z"/>
  <polygon class="cls-2" points="10.4 34.59 10.29 34.37 10.24 34.47 9.46 35.18 9.58 35.3 10.4 34.59"/>
  <path class="cls-2" d="M8.9,34.35l.98-.93,.17-.09,.22,.3,.09-.29,.16-.19c.27-.26,.54-.52,.81-.78l-2.7-8.32-2.41,7.43c.85,.96,1.71,1.93,2.55,2.89l.12-.02Z"/>
  <path class="cls-2" d="M19.01,55.94l-2.86-8.8c-.83-.13-1.67-.21-2.52-.21-.86,.01-1.75,.09-2.56,.41l-.36,.17-1.45,.69-1.65-.14-.8-.49c-1.93,0-3.87,0-5.81,0l-.99,3.05v4.07l8.64-6.27,10.37,7.52Z"/>
  <path class="cls-2" d="M11.53,35.23l-.37,.44-.6,.67,.27,.31,.44-.02c1.17-.06,2.36,.02,3.49,.34l1.09,.4,.2,.13,.81,.87,.06,.1c.33,1.07,.65,2.14,.98,3.21l7.5-5.45H12.59l-.57-1.74-.41,.36-.09,.38Z"/>
  <path class="cls-2" d="M.66,38.4l.93-.94,.48-.25c.58-.18,1.18-.29,1.77-.39,.64-.11,1.29-.2,1.92-.29l1.19-.99,.14-.02,.05,.25,.69,.86,.55-.38-.09-.12-.47,.32-.15-.09-.42-.45,.02-.16,.44-.41-1.12-1.24c-.3-.34-.6-.67-.9-1l-1.01,3.12H0v4.96c.15-.65,.3-1.31,.46-1.96l.2-.82Z"/>
  <polygon class="cls-1" points="24.18 25.37 24.13 25.37 24.18 25.41 24.18 25.37"/>
  <path d="M6.8,47.58l.8,.49,1.65,.14,1.45-.69,.36-.17c.81-.32,1.7-.4,2.56-.41,.84,0,1.68,.08,2.52,.21,.6,.09,1.19,.21,1.77,.35l.42,.06c.86,.98,1.72,1.96,2.58,2.93l.19,.02,.6-.38,.21-.65-.03-.17c-.83-.95-1.66-1.9-2.49-2.86l-.11-.28c-.46-1.5-.92-3-1.37-4.5-.33-1.07-.65-2.14-.98-3.21l-.06-.1-.81-.87-.2-.13-1.09-.4c-1.13-.32-2.32-.4-3.49-.34l-.44,.02-.27-.31,.6-.67,.37-.44,.09-.38,.41-.36,.84-.74,.72,.58,.15,.1,.17-.12c.97-.82,1.93-1.63,2.89-2.45l.61-.51,.28,.1,.43-.12c2.02-1.94,4.04-3.87,6.06-5.81v-.1l-.05-.04h-.06l-.6,.41c-1.95,1.38-3.91,2.76-5.86,4.14l-.16,.1-.12-.08,.1-.34-.18-.31-.38-.02-.37,.32-.69-.32-.37-.38-.06-.02-.09,.02-.04,.46-.04,.64-1.62,1.51-1.28-.06c-.32,.31-.64,.62-.96,.92-.27,.26-.54,.52-.81,.78l-.16,.19-.09,.29-.22-.3-.17,.09-.98,.93-.12,.02c-.84-.96-1.7-1.93-2.55-2.89-.16-.18-.32-.36-.48-.54l.16-.57-.06-.15c-.63-.68-1.27-1.38-1.9-2.07l-.29-.14-1.23,.1-.66,.84-.13,.49-.3,.09-1.04-.08-.3-.02v6.46c.8-1.02,1.61-2.04,2.42-3.05l.12-.22,.14-1.6,.79,.88,.19,.18,.51,.05,.56-.11c.33,.36,.65,.73,.98,1.09,.3,.33,.6,.66,.9,1l1.12,1.24-.44,.41-.02,.16,.42,.45,.15,.09,.47-.32,.09,.12-.55,.38-.69-.86-.05-.25-.14,.02-1.19,.99c-.63,.08-1.28,.18-1.92,.29-.59,.1-1.19,.21-1.77,.39l-.48,.25-.93,.94-.2,.82c-.16,.65-.31,1.31-.46,1.96v1.57c.94-.78,1.88-1.56,2.81-2.34l.14-.14v-.19s.32,.14,.32,.14c.64-.51,1.28-1.02,1.92-1.53l.62-.49v.06c-.76,.66-1.5,1.34-2.24,2.03l-.11,.28-.31,.28-.23-.15-.11,.04c-.94,.84-1.87,1.67-2.81,2.5v2.54l.21-.3,.25,.04,1.31-.12,.58,1.59,.13,.32h.15l.97-.67,.03-.17-.32-1.1c1.04,0,2.07,.07,3.09,.23h0s.24,.04,.24,.04c.66,.12,1.31,.29,1.93,.53-.61,.32-1.19,.7-1.66,1.21h-1.69c-1.73,0-3.46,0-5.18,0h-.04s0,.19,0,.19c.33,0,.66,0,.99,0,1.94,0,3.88,0,5.81,0ZM.14,41.46c.22-.94,.45-1.89,.67-2.84l.06-.16,.81-.81c-.23,1.04-.48,2.08-.72,3.13l-.81,.67Zm5.07-4.44l-.06,.27c-.82,.71-1.66,1.38-2.48,2.08l-1.47,1.21c.24-1.03,.48-2.06,.71-3.08l1.75-.44c.6-.1,1.2-.19,1.82-.28l-.27,.24Zm9.1,9.74c-.96-.04-1.92,0-2.85,.25l-.85,.34-1.54-1.17c.98-.43,2.02-.67,3.07-.8l1.58-.09h.56c.74,0,1.48,.07,2.21,.17,.55,.64,1.11,1.27,1.66,1.89-1.26-.31-2.54-.54-3.84-.59Zm2.31-8.37l.12,.16c.75,2.5,1.52,5,2.28,7.51-.51-.59-1.02-1.17-1.54-1.77l-.05-.09c-.45-2.14-.9-4.25-1.37-6.39l.55,.58Zm-2.17-1.31l1.27,.43,.15,.12c.46,2.11,.91,4.24,1.36,6.35-.53-.6-1.05-1.21-1.58-1.8-1.55-1.8-3.11-3.57-4.66-5.36,1.15-.09,2.32-.02,3.45,.25Zm-4.21-2.61l.06-.1,.11,.22-.83,.7-.11-.12,.77-.71Zm-1.36,10.64v-1.32s1.59,.14,1.59,.14l.41-.12,.07-.24c.05-.66,.06-1.32,.09-1.98l-.12-.13c-.67-.07-1.34-.18-2.01-.28,0-1.1,0-2.2,.01-3.3l.04-.19,.4-.34c1.44,1.63,2.88,3.27,4.32,4.92,.87,.98,1.74,1.98,2.62,2.98-.8-.1-1.6-.14-2.4-.16-1.47,.02-2.96,.2-4.35,.7l-.68,.27v-.94Zm-2.8-5.65l.93-.43v-.14s-.47-.71-.47-.71l.03-.19,.75,.93,.16,.03,1.31-1.1v1c-.02,.75-.02,1.52-.02,2.28-.61-.1-1.22-.25-1.8-.44l-.79-.37-.22-.26,.14-.61Zm-3.65,3.92l-1.24,1.11v.16s.47,.45,.47,.45l.06,.13h-.11l-1.35,.12,.03-.26c.76-.66,1.5-1.35,2.27-2.01l.49,.04,.04-.18-.25-.12,.18-.24,.31-.22,.28,.38-.54,.66h-.64Zm5.34,2.32c-1.45-.39-2.98-.51-4.48-.53l-.25-.85,1.19-1.3,.18-.28-.48-.76,.25-.36c1.02,.63,2.08,1.18,3.18,1.64l1.38,.48c0,.75,0,1.51-.01,2.26l-.96-.31Zm.98,.64l.14-.04c.6,.28,1.15,.65,1.58,1.15l-1.51,.6c-.65,.08-1.35-.11-1.83-.58,.45-.48,1.03-.84,1.62-1.14Z"/>
  <path class="cls-1" d="M1.91,37.49c-.23,1.03-.47,2.06-.71,3.08l1.47-1.21c.82-.69,1.66-1.37,2.48-2.08l.06-.27,.27-.24c-.61,.08-1.21,.17-1.82,.28l-1.75,.44Z"/>
  <path class="cls-1" d="M17.23,43.98c-.45-2.12-.9-4.24-1.36-6.35l-.15-.12-1.27-.43c-1.13-.27-2.31-.34-3.45-.25,1.55,1.79,3.1,3.56,4.66,5.36,.53,.59,1.05,1.2,1.58,1.8Z"/>
  <path class="cls-1" d="M13.89,45.07c.8,.01,1.6,.05,2.4,.16-.88-1-1.75-1.99-2.62-2.98-1.44-1.65-2.88-3.29-4.32-4.92l-.4,.34-.04,.19c0,1.11-.01,2.2-.01,3.3,.67,.11,1.34,.22,2.01,.28l.12,.13c-.02,.66-.04,1.32-.09,1.98l-.07,.24-.41,.12-1.59-.14v1.32s-.01,.94-.01,.94l.68-.27c1.39-.5,2.88-.68,4.35-.7Z"/>
  <path class="cls-1" d="M.87,38.46l-.06,.16c-.22,.95-.45,1.9-.67,2.84l.81-.67c.25-1.05,.49-2.09,.72-3.13l-.81,.81Z"/>
  <path class="cls-1" d="M17.49,44.28c.52,.6,1.03,1.18,1.54,1.77-.76-2.51-1.53-5-2.28-7.51l-.12-.16-.55-.58c.46,2.13,.91,4.25,1.37,6.39l.05,.09Z"/>
  <path class="cls-1" d="M6.93,40.68c.59,.19,1.19,.33,1.8,.44,0-.76,0-1.52,.01-2.28v-1s-1.3,1.1-1.3,1.1l-.16-.03-.75-.93-.03,.19,.48,.71v.14s-.94,.43-.94,.43l-.14,.61,.22,.26,.79,.37Z"/>
  <path class="cls-1" d="M2.91,40.7l.23,.15,.31-.28,.11-.28c.74-.69,1.48-1.37,2.25-2.03v-.06s-.63,.49-.63,.49c-.65,.51-1.28,1.03-1.92,1.53l-.32-.14v.19s-.14,.14-.14,.14c-.93,.78-1.87,1.56-2.81,2.34v.48c.94-.83,1.87-1.66,2.81-2.5l.11-.04Z"/>
  <path class="cls-1" d="M8.71,43.75l-1.38-.48c-1.1-.46-2.16-1.01-3.18-1.64l-.25,.36,.48,.76-.18,.28-1.19,1.3,.25,.85c1.5,.01,3.02,.13,4.48,.53l.96,.31c0-.75,.01-1.51,.01-2.26Z"/>
  <path class="cls-1" d="M3.59,42.71l-.28-.38-.31,.22-.18,.24,.25,.12-.04,.18-.49-.04c-.76,.66-1.51,1.35-2.27,2.01l-.03,.26,1.35-.12h.11l-.06-.13-.49-.45v-.16s1.25-1.11,1.25-1.11h.64l.54-.66Z"/>
  <path class="cls-1" d="M14.28,45.28h-.56l-1.58,.09c-1.05,.13-2.1,.38-3.07,.8l1.54,1.17,.85-.34c.93-.25,1.89-.29,2.85-.25,1.3,.05,2.58,.28,3.84,.59-.55-.63-1.11-1.25-1.66-1.89-.73-.1-1.46-.16-2.21-.17Z"/>
  <path class="cls-1" d="M5.22,47.38h1.69c.47-.51,1.06-.89,1.66-1.21-.62-.24-1.27-.41-1.93-.53l-.24-.03h0c-1.02-.17-2.05-.24-3.09-.24l.32,1.1-.03,.17-.97,.67h-.15l-.13-.32-.58-1.59-1.31,.12-.25-.04-.21,.3v1.61H.04c1.73,0,3.45,0,5.18,0Z"/>
  <path class="cls-1" d="M8.92,48.05l1.51-.6c-.43-.51-.98-.87-1.58-1.15l-.14,.04c-.59,.3-1.17,.66-1.62,1.14,.48,.47,1.18,.66,1.83,.58Z"/>
</svg>