<?xml version="1.0" encoding="UTF-8"?>
<svg id="Layer_1" data-name="Layer 1" xmlns="http://www.w3.org/2000/svg" xmlns:xlink="http://www.w3.org/1999/xlink" viewBox="0 0 80 80">
  <defs>
    <style>
      .cls-1 {
        fill: #003893;
      }

      .cls-2 {
        fill: #fff;
      }

      .cls-3 {
        clip-path: url(#clippath);
      }

      .cls-4 {
        fill: #dc143c;
      }
    </style>
    <clipPath id="clippath">
      <rect class="cls-2" width="80" height="80" rx="20" ry="20"/>
    </clipPath>
  </defs>
  <rect class="cls-2" width="80" height="80" rx="20" ry="20"/>
  <g class="cls-3">
    <g>
      <polygon class="cls-1" points="60.34 39.67 -3 0 -3 80 58.84 80 18.51 39.67 60.34 39.67"/>
      <polygon class="cls-4" points="55.45 38.26 -1.59 2.54 -1.59 78.59 55.45 78.59 15.11 38.26 55.45 38.26"/>
      <path class="cls-2" d="M12.67,36.23c6.27,0,11.36-5.09,11.36-11.36-.99,2.53-2.8,4.64-5.1,6.01l-.97-.73,1.91-1.43-2.32-.59s0,0,0,0l1.22-2.06-2.37,.34s0,0,0,0l.34-2.37-2.06,1.22s0,0,0,0l-.59-2.32-1.43,1.91-1.43-1.91-.59,2.32s0,0,0,0l-2.06-1.22,.34,2.37h0s-2.37-.34-2.37-.34l1.22,2.06s0,0,0,0l-2.32,.59,1.91,1.43-.97,.73c-2.24-1.34-4.07-3.4-5.1-6.01,0,6.27,5.09,11.36,11.36,11.36Zm10.57,28.3l-3.09-4.1s0,0,0,0l4.73-2-4.73-2s0,0,0,0l3.09-4.1-5.1,.63,.63-5.1-4.1,3.09s0,0,0,0l-2-4.73-2,4.73s0,0,0,0l-4.1-3.09,.63,5.1h0s0,0,0,0h0s-5.1-.63-5.1-.63l3.09,4.1s0,0,0,0L.46,58.43l4.73,2h0s-3.09,4.1-3.09,4.1l5.1-.63h0s-.63,5.1-.63,5.1l4.1-3.09s0,0,0,0l2,4.73,2-4.73s0,0,0,0l4.1,3.09-.63-5.1h0s5.1,.63,5.1,.63Z"/>
    </g>
  </g>
</svg>