<?xml version="1.0" encoding="UTF-8"?>
<svg id="Layer_1" data-name="Layer 1" xmlns="http://www.w3.org/2000/svg" viewBox="0 0 80 80">
  <defs>
    <style>
      .cls-1 {
        fill: #fff;
      }

      .cls-2 {
        fill: #e21e38;
      }

      .cls-3 {
        fill: #134b8e;
      }
    </style>
  </defs>
  <path class="cls-3" d="M60,0h-20V1.33l-15.37,10.25h15.37v13.12h-15.41l15.41,10.27v5.03h-7.58L13.76,27.56v12.44H.64v-12.43l-.64,.43V60c0,11.05,8.95,20,20,20H60c5.98,0,11.32-2.63,14.99-6.79l-2.2-1.6-3.12,2.27,1.19-3.68-3.12-2.27h3.86l1.19-3.67,1.2,3.67h3.85l-3.12,2.27,.79,2.42c2.81-3.44,4.5-7.84,4.5-12.63V20c0-3.69-1.02-7.13-2.76-10.1l-2.69,1.96,1.08,3.34-2.85-2.07-2.83,2.07,1.08-3.34-2.84-2.07h3.52l1.08-3.34,1.09,3.34h3.3C73.69,3.94,67.31,0,60,0Zm-1.83,35.5l1.08,3.34-2.84-2.07-2.84,2.07,1.09-3.34-2.84-2.07h3.51l1.08-3.34,1.09,3.34h3.51l-2.84,2.07Z"/>
  <path class="cls-1" d="M72.79,6.46l-1.08,3.34h-3.52l2.84,2.07-1.08,3.34,2.83-2.07,2.85,2.07-1.08-3.34,2.69-1.96s-.04-.07-.06-.1h-3.3l-1.09-3.34Zm1.17,5.22l.71,2.21-1.88-1.37-1.88,1.37,.72-2.21-1.88-1.37h2.32l.72-2.21,.72,2.21h2.33l-1.88,1.37Z"/>
  <polygon class="cls-2" points="72.79 8.1 72.07 10.31 69.76 10.31 71.63 11.68 70.91 13.89 72.79 12.52 74.67 13.89 73.96 11.68 75.83 10.31 73.51 10.31 72.79 8.1"/>
  <path class="cls-1" d="M56.4,30.09l-1.08,3.34h-3.51l2.84,2.07-1.09,3.34,2.84-2.07,2.84,2.07-1.08-3.34,2.84-2.07h-3.51l-1.09-3.34Zm1.17,5.21l.71,2.21-1.88-1.36-1.88,1.36,.72-2.21-1.88-1.36h2.32l.71-2.21,.72,2.21h2.32l-1.88,1.36Z"/>
  <polygon class="cls-2" points="56.4 31.73 55.69 33.94 53.37 33.94 55.25 35.3 54.53 37.51 56.4 36.15 58.28 37.51 57.57 35.3 59.45 33.94 57.13 33.94 56.4 31.73"/>
  <path class="cls-1" d="M77.84,67.93h-3.85l-1.2-3.67-1.19,3.67h-3.86l3.12,2.27-1.19,3.68,3.12-2.27,2.2,1.6c.17-.19,.35-.38,.51-.58l-.79-2.42,3.12-2.27Zm-2.98,4.5l-2.07-1.5-2.06,1.5,.79-2.43-2.07-1.5h2.55l.78-2.43,.79,2.43h2.54l-2.06,1.5,.79,2.43Z"/>
  <polygon class="cls-2" points="76.13 68.5 73.58 68.5 72.79 66.07 72.01 68.5 69.46 68.5 71.52 70 70.73 72.43 72.79 70.93 74.86 72.43 74.07 70 76.13 68.5"/>
  <path class="cls-3" d="M26.88,0h-6.88c-2.18,0-4.28,.36-6.24,1.01v7.74L26.88,0Z"/>
  <polygon class="cls-1" points=".64 40 3.38 40 3.38 21.96 0 21.96 0 24.7 .64 24.7 .64 25.88 0 26.31 0 27.99 .64 27.57 .64 40"/>
  <path class="cls-1" d="M3.38,8.88c-1.11,1.65-1.97,3.48-2.55,5.43H3.38v-5.43Z"/>
  <polygon class="cls-1" points="11.03 21.96 11.03 40 13.76 40 13.76 27.56 32.41 40 40 40 40 39.87 17.18 24.7 22.37 24.7 40 36.42 40 34.97 24.59 24.7 40 24.7 40 21.96 11.03 21.96"/>
  <path class="cls-1" d="M11.03,14.31h28.96v-2.73h-15.37L40,1.33V0h-5.6L17,11.58h-3.24v-1.3L29.21,0h-2.33L13.76,8.74V1.01c-.94,.31-1.85,.69-2.73,1.13V14.31Z"/>
  <path class="cls-2" d="M3.38,40h7.65V21.96h28.96v-7.65H11.03V2.14c-3.09,1.56-5.74,3.88-7.65,6.74v5.43H.83c-.54,1.81-.83,3.71-.83,5.69v1.96H3.38v18.04Z"/>
  <polygon class="cls-2" points="17.18 24.7 40 39.87 40 36.42 22.37 24.7 17.18 24.7"/>
  <polygon class="cls-2" points="13.76 11.58 17 11.58 34.4 0 29.21 0 13.76 10.28 13.76 11.58"/>
  <polygon class="cls-2" points=".64 24.7 0 24.7 0 26.31 .64 25.88 .64 24.7"/>
</svg>