<?xml version="1.0" encoding="UTF-8"?>
<svg id="Layer_1" data-name="Layer 1" xmlns="http://www.w3.org/2000/svg" viewBox="0 0 80 80">
  <defs>
    <style>
      .cls-1 {
        fill: #fff;
      }

      .cls-2 {
        fill: #212f64;
      }

      .cls-3 {
        fill: #ed2e2f;
      }
    </style>
  </defs>
  <path class="cls-3" d="M60,0h-26.83V29.07h46.83v-9.07c0-11.05-8.95-20-20-20Z"/>
  <path class="cls-3" d="M33.17,80h26.83c11.05,0,20-8.95,20-20v-9.07H33.17v29.07Z"/>
  <path class="cls-3" d="M11.3,2.01C4.62,5.25,0,12.08,0,20v9.07H11.3V2.01Z"/>
  <path class="cls-3" d="M0,50.93v9.07c0,7.92,4.62,14.75,11.3,17.99v-27.06H0Z"/>
  <path class="cls-1" d="M16.77,.28c-1.93,.31-3.77,.9-5.47,1.73V29.07H0v5.46H16.77V.28Z"/>
  <polygon class="cls-1" points="27.7 80 33.17 80 33.17 50.93 80 50.93 80 45.46 27.7 45.46 27.7 80"/>
  <polygon class="cls-1" points="33.17 0 27.7 0 27.7 34.54 80 34.54 80 29.07 33.17 29.07 33.17 0"/>
  <path class="cls-1" d="M0,45.46v5.47H11.3v27.06c1.7,.83,3.54,1.41,5.47,1.73V45.46H0Z"/>
  <path class="cls-2" d="M27.7,0h-7.7c-1.1,0-2.17,.11-3.23,.28V34.54H0v10.93H16.77v34.26c1.05,.17,2.13,.28,3.23,.28h7.7V45.46h52.3v-10.93H27.7V0Z"/>
</svg>