<?xml version="1.0" encoding="UTF-8"?>
<svg id="Layer_1" data-name="Layer 1" xmlns="http://www.w3.org/2000/svg" viewBox="0 0 80 80">
  <defs>
    <style>
      .cls-1 {
        fill: #fff;
      }

      .cls-2 {
        fill: #176734;
      }
    </style>
  </defs>
  <path class="cls-1" d="M7.2,4.64C2.8,8.3,0,13.82,0,20V60c0,6.18,2.8,11.7,7.2,15.36V4.64Z"/>
  <path class="cls-2" d="M20,80H60c11.05,0,20-8.95,20-20v-7.37c-4.54,7.67-12.86,12.83-22.42,12.83-14.4,0-26.08-11.67-26.08-26.07,0-11.65,7.64-21.51,18.19-24.85l-1.33,1.06c-9.87,8.78-10.76,23.89-1.99,33.75,8.74,9.82,23.76,10.74,33.63,2.08V20c0-11.05-8.95-20-20-20H20C15.13,0,10.67,1.74,7.2,4.64V75.36c3.47,2.89,7.93,4.64,12.8,4.64ZM66.87,20.15l4.22,4.53,5.61-2.62-3,5.41,4.22,4.53-6.08-1.18-3,5.42-.76-6.15-6.08-1.17,5.61-2.62-.76-6.15Z"/>
  <path class="cls-1" d="M46.37,49.34c-8.77-9.86-7.88-24.97,1.99-33.75l1.33-1.06c-10.54,3.34-18.19,13.2-18.19,24.85,0,14.4,11.68,26.07,26.08,26.07,9.56,0,17.89-5.16,22.42-12.83v-1.21c-9.87,8.66-24.89,7.74-33.63-2.08Z"/>
  <polygon class="cls-1" points="68.09 30.09 68.85 36.24 71.85 30.82 77.93 32 73.71 27.47 76.7 22.06 71.09 24.68 66.87 20.15 67.63 26.3 62.02 28.92 68.09 30.09"/>
</svg>