<?xml version="1.0" encoding="UTF-8"?>
<svg id="Layer_1" data-name="Layer 1" xmlns="http://www.w3.org/2000/svg" viewBox="0 0 80 80">
  <defs>
    <style>
      .cls-1 {
        fill: #fff;
      }

      .cls-2 {
        fill: #343433;
      }

      .cls-3 {
        fill: #408040;
      }

      .cls-4 {
        fill: #cc3434;
      }
    </style>
  </defs>
  <path class="cls-3" d="M20,80H60c11.05,0,20-8.95,20-20v-5.41H16.27L3.62,71.45c3.62,5.16,9.6,8.55,16.38,8.55Z"/>
  <polygon class="cls-1" points="27.2 40 16.27 54.59 80 54.59 80 25.43 16.27 25.43 27.2 40"/>
  <path class="cls-2" d="M80,25.43v-5.43c0-11.05-8.95-20-20-20H20C13.22,0,7.23,3.39,3.61,8.55l12.65,16.87h63.73Z"/>
  <path class="cls-4" d="M27.2,40l-10.93-14.58L3.61,8.55C1.34,11.8,0,15.74,0,20V60c0,4.26,1.34,8.21,3.62,11.45l12.65-16.86,10.94-14.58Z"/>
</svg>