<?xml version="1.0" encoding="UTF-8"?>
<svg id="Layer_1" data-name="Layer 1" xmlns="http://www.w3.org/2000/svg" viewBox="0 0 80 80">
  <defs>
    <style>
      .cls-1 {
        fill: #d31f36;
      }

      .cls-2 {
        fill: #fff;
      }

      .cls-3 {
        fill: #2868b1;
      }
    </style>
  </defs>
  <path class="cls-2" d="M40,0H20C10.38,0,2.35,6.79,.44,15.84H4.79l2.41-7.41,2.41,7.41h7.8l-6.31,4.59,2.41,7.42-6.3-4.59L.89,27.85l2.41-7.42L.1,18.1c-.06,.63-.1,1.26-.1,1.9v20H40V0Z"/>
  <path class="cls-1" d="M80,40V20c0-11.05-8.95-20-20-20h-20V40h40Z"/>
  <path class="cls-2" d="M78.1,68.47c.96-2.05,1.6-4.29,1.81-6.65l-3.21,2.33,1.4,4.32Z"/>
  <path class="cls-2" d="M40,80h20c7.32,0,13.71-3.95,17.19-9.82l-4.39-3.19-6.31,4.58,2.41-7.42-6.31-4.58h7.8l2.41-7.41,2.41,7.41h4.79v-19.57H40v40Z"/>
  <path class="cls-3" d="M20,80h20V40H0v20c0,11.05,8.95,20,20,20Z"/>
  <path class="cls-3" d="M.89,27.85l6.31-4.59,6.3,4.59-2.41-7.42,6.31-4.59h-7.8l-2.41-7.41-2.41,7.41H.44c-.16,.74-.27,1.49-.34,2.26l3.21,2.33L.89,27.85Z"/>
  <path class="cls-1" d="M72.8,52.16l-2.41,7.41h-7.8l6.31,4.58-2.41,7.42,6.31-4.58,4.39,3.19c.33-.55,.63-1.12,.91-1.71l-1.4-4.32,3.21-2.33c.05-.6,.09-1.21,.09-1.82v-.43h-4.79l-2.41-7.41Z"/>
</svg>