<?xml version="1.0" encoding="UTF-8"?>
<svg id="Layer_1" data-name="Layer 1" xmlns="http://www.w3.org/2000/svg" viewBox="0 0 80 80">
  <defs>
    <style>
      .cls-1 {
        fill: #fff;
      }

      .cls-2 {
        fill: #1d439a;
      }

      .cls-3 {
        fill: #cd2028;
      }

      .cls-4 {
        fill: #fbd015;
      }
    </style>
  </defs>
  <path class="cls-2" d="M80,40V20c0-11.05-8.95-20-20-20H20C12.93,0,6.73,3.68,3.18,9.21l44.63,30.79h32.19Z"/>
  <path class="cls-3" d="M20,80H60c11.05,0,20-8.95,20-20v-20H47.81L3.17,70.79c3.56,5.54,9.76,9.21,16.83,9.21Z"/>
  <path class="cls-1" d="M3.18,9.21C1.17,12.33,0,16.02,0,20v12.85c.37,.13,.77-.37,1.41-.6,1.04-.37,.83-.2,.57-1.13-.19-.72-.39-1.45-.58-2.17-.28-1.06-.07-1.12,.64-2,.23,1.26,.45,2.52,.67,3.78,.24,1.34,.85,1.46,.67,.01-.17-1.44-.35-2.88-.52-4.32l1.49-1.95c.76,.72,1.56,1.06,1.44,2.12-.16,1.5-.32,3.02-.48,4.53-.02,.18,.4,1.51,.55,.71l.28-1.53c.2-1.14,.41-2.28,.62-3.42,.86,1.11,.88,1.11,.52,2.45-.2,.72-.39,1.43-.59,2.16-.27,.99,.66,.75,1.49,1.15,1,.5,.72,.47,1.23-.37,.37-.63,.76-1.28,1.15-1.92,.56-.94,.77-.82,1.89-.93-.75,1.04-1.5,2.07-2.26,3.11-.8,1.1-.46,1.63,.46,.49,.92-1.12,1.83-2.25,2.74-3.38l2.44-.27c.01,1.04,.31,1.86-.52,2.51-1.2,.93-2.41,1.86-3.61,2.8-.14,.11-.82,1.33-.11,.87l1.29-.86c.96-.65,1.92-1.29,2.88-1.93-.19,1.39-.18,1.4-1.4,2.07-.66,.36-1.32,.72-1.97,1.07-.84,.46-.16,.82,.13,1.67,.45,1.29,2.07,.24,3.28-.09,1.06-.28,1.12-.06,2.01,.65-1.26,.22-2.52,.45-3.77,.67-1.34,.23-1.46,.85-.01,.67,1.44-.18,2.88-.36,4.32-.53l1.95,1.5-1.44,1.52c-1.94-.2-3.89-.42-5.83-.63-.77-.09,.12,.64,.32,.68l1.58,.29c.98,.18,1.98,.36,2.96,.54-1.1,.87-1.1,.89-2.45,.52-.72-.2-1.44-.4-2.16-.59-.94-.26-.7,.51-1.07,1.32-.58,1.24,1.31,1.62,2.4,2.23,.96,.54,.85,.75,.99,1.86-1.06-.72-2.11-1.43-3.17-2.16-1.12-.76-1.65-.41-.48,.48,1.15,.88,2.31,1.76,3.46,2.64l.35,2.44c-1.04,.03-1.85,.37-2.52-.45-.97-1.17-1.94-2.34-2.9-3.51-.12-.14-1.37-.78-.88-.1l.9,1.27c.67,.94,1.34,1.89,2.01,2.83-1.4-.16-1.41-.14-2.11-1.35-.38-.64-.76-1.28-1.13-1.93-.51-.86-.93-.08-1.78,.22-1.03,.38-.82,.22-.56,1.14,.19,.72,.4,1.44,.59,2.17,.29,1.06,.07,1.12-.62,2.01-.24-1.25-.47-2.51-.7-3.77-.25-1.34-.86-1.45-.67,0,.18,1.43,.38,2.87,.56,4.31l-1.49,1.96c-.76-.72-1.57-1.05-1.46-2.1,.16-1.51,.3-3.02,.46-4.54,.02-.18-.41-1.51-.55-.7l-.26,1.53c-.21,1.14-.4,2.28-.6,3.43-.87-1.1-.89-1.11-.54-2.45,.19-.72,.38-1.44,.57-2.16,.26-.98-.62-.73-1.44-1.12-.32-.15-.5-.25-.63-.28v12.04c0,3.98,1.17,7.67,3.17,10.79l44.63-30.79L3.18,9.21ZM36.45,41.67l-3.21,1.07,1.99-2.74-2.01-2.71,3.21,1.05,1.97-2.76v3.38s3.22,1.01,3.22,1.01l-3.22,1.04,.03,3.39-1.99-2.74Z"/>
  <path class="cls-4" d="M2.07,49.36c-.19,.72-.38,1.44-.57,2.16-.36,1.34-.33,1.35,.54,2.45,.2-1.14,.39-2.28,.6-3.43l.26-1.53c.14-.81,.57,.52,.55,.7-.16,1.51-.3,3.02-.46,4.54-.1,1.05,.7,1.39,1.46,2.1l1.49-1.96c-.19-1.44-.38-2.88-.56-4.31-.19-1.45,.42-1.34,.67,0,.24,1.26,.47,2.52,.7,3.77,.69-.89,.92-.95,.62-2.01-.19-.73-.4-1.44-.59-2.17-.27-.93-.47-.76,.56-1.14,.85-.3,1.27-1.08,1.78-.22,.37,.65,.75,1.29,1.13,1.93,.7,1.21,.71,1.19,2.11,1.35-.67-.94-1.34-1.89-2.01-2.83l-.9-1.27c-.49-.67,.76-.04,.88,.1,.96,1.17,1.93,2.34,2.9,3.51,.67,.82,1.48,.48,2.52,.45l-.35-2.44c-1.15-.87-2.3-1.75-3.46-2.64-1.16-.89-.64-1.23,.48-.48,1.05,.73,2.11,1.43,3.17,2.16-.14-1.12-.02-1.32-.99-1.86-1.09-.6-2.98-.98-2.4-2.23,.38-.81,.13-1.58,1.07-1.32,.72,.19,1.44,.39,2.16,.59,1.34,.37,1.34,.36,2.45-.52-.98-.18-1.97-.36-2.96-.54l-1.58-.29c-.2-.04-1.09-.77-.32-.68,1.94,.2,3.88,.42,5.83,.63l1.44-1.52-1.95-1.5c-1.44,.17-2.88,.35-4.32,.53-1.45,.17-1.33-.44,.01-.67,1.26-.22,2.52-.45,3.77-.67-.89-.71-.94-.93-2.01-.65-1.21,.33-2.83,1.38-3.28,.09-.29-.85-.96-1.21-.13-1.67,.65-.36,1.32-.72,1.97-1.07,1.22-.67,1.21-.68,1.4-2.07-.96,.64-1.92,1.28-2.88,1.93l-1.29,.86c-.71,.46-.03-.76,.11-.87,1.21-.94,2.41-1.87,3.61-2.8,.83-.65,.53-1.47,.52-2.51l-2.44,.27c-.91,1.13-1.83,2.26-2.74,3.38-.92,1.13-1.26,.61-.46-.49,.76-1.04,1.51-2.07,2.26-3.11-1.13,.11-1.33,0-1.89,.93-.38,.64-.77,1.29-1.15,1.92-.51,.84-.23,.87-1.23,.37-.82-.39-1.76-.16-1.49-1.15,.19-.72,.39-1.44,.59-2.16,.36-1.34,.35-1.34-.52-2.45-.21,1.14-.42,2.27-.62,3.42l-.28,1.53c-.15,.81-.57-.52-.55-.71,.17-1.51,.33-3.03,.48-4.53,.12-1.05-.69-1.4-1.44-2.12l-1.49,1.95c.17,1.44,.35,2.88,.52,4.32,.18,1.45-.43,1.33-.67-.01-.22-1.26-.45-2.52-.67-3.78-.71,.88-.93,.95-.64,2,.19,.72,.39,1.45,.58,2.17,.26,.93,.47,.77-.57,1.13-.64,.23-1.04,.73-1.41,.6v15.11c.12,.04,.31,.13,.63,.28,.82,.39,1.7,.14,1.44,1.12Z"/>
  <polygon class="cls-4" points="41.63 39.98 38.4 38.97 38.41 35.59 36.44 38.35 33.23 37.29 35.24 40 33.25 42.74 36.45 41.67 38.44 44.41 38.41 41.02 41.63 39.98"/>
</svg>