<?xml version="1.0" encoding="UTF-8"?>
<svg id="Layer_1" data-name="Layer 1" xmlns="http://www.w3.org/2000/svg" viewBox="0 0 80 80">
  <defs>
    <style>
      .cls-1 {
        fill: #fff;
      }

      .cls-2 {
        fill: none;
        stroke: #fcd755;
        stroke-linecap: round;
        stroke-linejoin: round;
        stroke-width: 0px;
      }

      .cls-3 {
        fill: #2072b8;
      }

      .cls-4 {
        fill: #fcd755;
      }

      .cls-5 {
        fill: #cd2028;
      }

      .cls-6 {
        fill: #3e8e43;
      }
    </style>
  </defs>
  <path class="cls-5" d="M39.05,29.16v1.49c1.1-.2,2.03-.42,2.8-.64-.06-.09-.13-.18-.19-.27-.79-.2-1.67-.39-2.61-.58Z"/>
  <path class="cls-5" d="M39.05,36.27c.18,.03,.37,.06,.55,.09,1.53,.3,3.46,.69,5.09,1.11-.27-1.91-.84-3.71-1.65-5.38-1.07,.29-2.42,.61-3.99,.91v3.26Z"/>
  <path class="cls-5" d="M28.18,22.06v3.75h9.75c-2.73-2.13-6.08-3.48-9.75-3.75Z"/>
  <path class="cls-5" d="M39.05,38.85v2.17c1.94-.28,3.72-.65,5.16-1.02-1.21-.34-2.63-.68-4.22-.99-.3-.06-.62-.11-.94-.16Z"/>
  <path class="cls-5" d="M39.29,43.65c1.71,1.25,3.13,2.38,4.18,3.35,.6-1.43,1.01-2.96,1.23-4.55-1.36,.38-3.12,.79-5.18,1.16-.08,.01-.16,.02-.24,.04Z"/>
  <path class="cls-5" d="M39.05,26.88c.06,.01,.12,.02,.17,.04-.06-.05-.12-.11-.17-.16v.12Z"/>
  <path class="cls-5" d="M35.48,50.64c-.41,.41-.86,.78-1.33,1.13,1.17-.1,2.29-.23,3.33-.4-.59-.27-1.2-.57-1.86-.89-.05,.05-.09,.11-.14,.15Z"/>
  <path class="cls-5" d="M28.18,57.94c4.1-.3,7.81-1.97,10.7-4.55-.27,.06-.53,.12-.8,.17-2.8,.51-6.28,.74-9.89,.79v3.59Z"/>
  <path class="cls-5" d="M60,0H26.88V19.54c.26,0,.51,.03,.76,.04v-.14h.54v.17c6.41,.4,12.01,3.74,15.47,8.69,.29,.14,.55,.28,.73,.42l.13,.21h0s.02,.05,.02,.05l.32,.51-.05,.03,.02,.03s-.1,.06-.15,.09l.36,.63s.02,.01,.03,.02c.12,.07,.2,.13,.26,.18h0s0,0,0,0c0,0,.01,.01,.02,.02l.33,.58h0s0,.02,0,.02v.03s-.15,.11-.32,.19c1.01,2.15,1.67,4.51,1.87,7,.2,.09,.36,.18,.48,.28h.02v1.04l-.06-.06s-.1,.07-.17,.1v.78c.08,.05,.15,.1,.2,.14l.04-.04v.75h0v.1l-.05-.04c-.07,.06-.22,.14-.44,.24-.21,2.64-.91,5.13-2.02,7.39,.14,.24,.23,.47,.24,.64l-.05,.24-.3,.45-.04,.07-.25,.06s-.07-.01-.11-.01l-.5,.76-.24,.39s-.01,0-.02,.01l-.33,.5-.08,.14c.02,.07,.06,.14,.06,.2l-.05,.2-.27,.41h0s-.08,.14-.08,.14v-.07l-.12,.09v-.13s-.52,.13-.52,.13c-.03,0-.06-.01-.09-.02-3.49,4.12-8.58,6.83-14.31,7.19v.17h-.54v-.14c-.26,0-.51,.04-.76,.04v19.54H60c11.05,0,20-8.95,20-20V20c0-11.05-8.95-20-20-20Z"/>
  <path class="cls-6" d="M14.72,26.75c-.07,.07-.15,.13-.22,.2,.07-.02,.15-.03,.22-.04v-.15Z"/>
  <path class="cls-6" d="M26.12,60.42v.14h-.54v-.17c-6.31-.4-11.84-3.65-15.32-8.49,0,0,0,0-.01,0l-.06-.08c-.21-.29-.4-.59-.59-.89-.14,.06-.26,.11-.34,.16l-.04,.02-.03-.04-.28-.47,.06-.02c.07-.02,.16-.06,.25-.09l-.39-.68c-.17-.09-.33-.17-.48-.24h-.03s-.02-.02-.02-.02c0,0,0,0-.01,0l-.16-.35-.06-.12,.05-.02c.1-.04,.22-.09,.37-.15-1.08-2.23-1.77-4.68-1.97-7.27-.17-.07-.31-.13-.43-.18h-.03v-.92h.02c.06-.05,.14-.08,.21-.12v-1.27c-.1-.05-.16-.07-.18-.08l-.05,.04v-.87s0,0,0,0h.02c.13-.08,.28-.14,.46-.21,.18-1.9,.64-3.71,1.3-5.42-.12-.2-.2-.39-.2-.54l.05-.17h0s0-.02,0-.02l.02-.07,.2-.35,.03-.05h0s.03-.05,.03-.05h.04s.03,.01,.03,.01l.18-.04,.19-.37h0s.02-.02,.02-.02l.07-.13,.05-.1h0s.67-1.3,.67-1.3c-.03-.09-.07-.19-.07-.27l.03-.18h0s0,0,0,0h0s.03-.07,.03-.07l.26-.45h0l.02-.03,.31-.08s.05-.02,.08-.02l.31-.08c3.47-4.91,9.04-8.2,15.4-8.6v-.17h.54v.14c.25,0,.5-.04,.76-.04V0h-6.88C8.95,0,0,8.95,0,20V60c0,11.05,8.95,20,20,20h6.88v-19.54c-.26,0-.51-.03-.76-.04Z"/>
  <path class="cls-6" d="M14.72,29.13c-.23,.04-.44,.09-.66,.13,.22,.09,.43,.17,.66,.27v-.4Z"/>
  <path class="cls-6" d="M25.58,22.06c-3.66,.27-7.02,1.62-9.74,3.75h9.74v-3.75Z"/>
  <path class="cls-6" d="M9.71,34.59c-.28,.88-.47,1.8-.61,2.74,1.08-.23,2.27-.45,3.37-.66-1.07-.76-2.01-1.46-2.75-2.09Z"/>
  <path class="cls-6" d="M17.09,49.18c-.27,.03-.54,.07-.79,.11-1.8,.26-3.2,.56-4.29,.85,.12,.18,.26,.35,.39,.52,.74,.2,1.55,.39,2.41,.55,1.51,.27,3.14,.47,4.93,.6-.51-.37-.99-.77-1.44-1.22-.44-.44-.83-.92-1.2-1.42Z"/>
  <path class="cls-6" d="M14.72,38.79c-.45,.07-.9,.14-1.33,.22-1.3,.25-2.47,.53-3.48,.82,1.4,.49,3.07,.97,4.82,1.27v-2.3Z"/>
  <path class="cls-6" d="M14.96,53.46c2.87,2.54,6.55,4.18,10.62,4.48v-3.59c-3.92-.05-7.54-.32-10.4-.84-.07-.01-.14-.03-.21-.05Z"/>
  <path class="cls-6" d="M15.73,47s.05,0,.07,0c-.46-1-.77-2.08-.94-3.2-.08-.01-.16-.02-.24-.03-2.37-.38-4.18-.83-5.55-1.24,.28,1.98,.88,3.85,1.74,5.56,1.22-.36,2.82-.75,4.92-1.08Z"/>
  <path class="cls-4" d="M43.08,52.64v-.11s-.02-.03-.02-.04c-.04,.05-.07,.1-.11,.15,.03,0,.08,0,.11,0h.03Z"/>
  <path class="cls-4" d="M36.01,50.05c.89,.43,1.73,.81,2.49,1.14,1.02-.2,1.96-.41,2.81-.62-.19-.16-.39-.34-.6-.51-.93-.24-2.06-.48-3.38-.66-.23-.03-.48-.07-.72-.1-.19,.26-.39,.51-.6,.75Z"/>
  <path class="cls-4" d="M8.12,31.84h-.03s0,.03,.01,.03c0-.01,.01-.02,.02-.03Z"/>
  <path class="cls-4" d="M13.81,36.42c.29-.05,.6-.1,.91-.15v-2.18c-.09-.06-.19-.13-.29-.19-1.49-.68-2.78-1.2-3.83-1.56-.25,.54-.48,1.09-.68,1.65,.89,.78,2.04,1.64,3.31,2.54,.2-.04,.39-.07,.58-.11Z"/>
  <path class="cls-4" d="M44.79,50.36s.04,0,.05,0l.16-.03,.05-.32v-.02s0-.02,0-.04l-.26,.39Z"/>
  <path class="cls-4" d="M43.06,52.75c-.05,0-.12-.01-.18-.02-.1,.13-.2,.26-.31,.39,0,0,0,0,0,0l.52-.13v-.26s-.03,0-.03,0Z"/>
  <path class="cls-4" d="M9.45,28.88l-.14,.03-.08,.09h0s-.02,.11-.02,.11c0,.04,.03,.1,.04,.15l.2-.38Z"/>
  <path class="cls-4" d="M8.05,31.99s-.04-.08-.05-.11l-.25,.07-.03,.12c0,.12,.05,.27,.14,.43,.07-.17,.12-.34,.19-.51Z"/>
  <path class="cls-4" d="M35.69,50.4c.69,.34,1.35,.65,1.96,.94,.23-.04,.45-.07,.67-.11-.74-.32-1.53-.69-2.39-1.1-.08,.09-.16,.19-.25,.28Z"/>
  <path class="cls-4" d="M13.09,36.55c-1.22-.86-2.33-1.7-3.2-2.46-.05,.13-.1,.26-.14,.39,.77,.64,1.74,1.37,2.86,2.17,.16-.03,.32-.06,.48-.09Z"/>
  <path class="cls-4" d="M30.16,53.73c2.82-.11,5.45-.33,7.7-.72,.61-.11,1.23-.24,1.85-.38,.43-.44,.84-.9,1.23-1.39-.77,.19-1.6,.37-2.44,.53-1.59,.29-3.37,.5-5.27,.63-.94,.58-1.97,1.03-3.06,1.34Z"/>
  <path class="cls-4" d="M12.92,51.36c.38,.47,.79,.93,1.22,1.36,.35,.08,.73,.16,1.13,.24,2.38,.44,5.28,.7,8.46,.8-1.09-.3-2.12-.75-3.06-1.32-2.17-.12-4.13-.33-5.95-.67-.64-.12-1.23-.26-1.79-.41Z"/>
  <path class="cls-4" d="M8.46,49.52c.09,.04,.18,.09,.28,.14l-.12-.2c-.05,.02-.11,.04-.16,.06Z"/>
  <path class="cls-4" d="M33.42,52.27c1.82-.14,3.53-.33,5.06-.61,.88-.16,1.75-.36,2.55-.55,.11-.14,.22-.29,.33-.44-.89,.23-1.87,.45-2.94,.65-1.35,.25-2.84,.44-4.43,.57-.19,.14-.38,.27-.57,.39Z"/>
  <path class="cls-4" d="M15.25,53.05c-.34-.07-.66-.13-.96-.2,.17,.16,.35,.32,.52,.47,.13,.03,.25,.06,.39,.08,2.86,.52,6.46,.78,10.38,.84v-.13c-.49-.05-.96-.14-1.43-.26-3.34-.09-6.41-.35-8.89-.81Z"/>
  <path class="cls-4" d="M28.18,54.12v.13c3.61-.05,7.09-.28,9.87-.79,.33-.06,.65-.13,.97-.21,.18-.17,.38-.33,.56-.51-.57,.13-1.15,.25-1.71,.35-2.37,.41-5.18,.64-8.18,.74-.5,.12-1,.22-1.52,.27Z"/>
  <path class="cls-4" d="M14.79,51.32c-.81-.16-1.58-.34-2.29-.53,.11,.14,.21,.29,.32,.43,.59,.16,1.22,.32,1.9,.44,1.76,.33,3.66,.53,5.75,.66-.2-.12-.39-.25-.58-.39-1.86-.13-3.55-.34-5.1-.61Z"/>
  <path class="cls-4" d="M39.05,42.05c0,.33-.02,.65-.05,.98,.14-.02,.28-.04,.41-.06,2.2-.36,4.01-.77,5.39-1.15,.04-.43,.05-.87,.07-1.3-1.52,.38-3.54,.8-5.81,1.18v.36Z"/>
  <path class="cls-4" d="M8.97,41.85c1.86,.55,3.76,.97,5.75,1.28,.02,0,.04,0,.06,0-.03-.36-.06-.73-.06-1.1v-.31c-2.18-.34-4.27-.97-5.84-1.53,0,.56,.03,1.11,.09,1.66Z"/>
  <path class="cls-4" d="M47.52,39.49v.06s.07-.04,.1-.06c-.03-.03-.07-.06-.1-.09v.09Z"/>
  <path class="cls-4" d="M39.05,41.58c2.28-.38,4.3-.8,5.82-1.18,0-.07,0-.13,.01-.2-.15-.05-.31-.09-.47-.14-1.47,.38-3.32,.77-5.36,1.07v.46Z"/>
  <path class="cls-4" d="M6.28,38.95s-.06,.03-.09,.05c.02,.01,.05,.02,.09,.04v-.09Z"/>
  <path class="cls-4" d="M8.96,40.12c1.56,.56,3.61,1.17,5.76,1.51v-.42c-1.82-.3-3.56-.81-4.99-1.32-.27,.08-.52,.16-.76,.23Z"/>
  <path class="cls-4" d="M38.97,43.42c.06,.05,.14,.1,.2,.14,.11-.02,.23-.03,.34-.05,2.06-.36,3.84-.78,5.21-1.17,.02-.14,.05-.27,.06-.41-1.37,.38-3.17,.78-5.36,1.14-.14,.02-.29,.04-.43,.06,0,.1-.02,.19-.03,.29Z"/>
  <path class="cls-4" d="M6.45,41.09c-.13,.07-.23,.13-.31,.19v.09c.1,.04,.22,.09,.36,.15-.01-.14-.01-.28-.02-.42,0,0-.02,0-.03-.01Z"/>
  <path class="cls-4" d="M47.26,41.5c.17-.08,.29-.14,.35-.18-.1-.06-.21-.13-.33-.19,0,.12,0,.25-.02,.37Z"/>
  <path class="cls-4" d="M14.7,43.23c-1.99-.31-3.88-.72-5.72-1.27,.02,.15,.05,.3,.07,.45,1.37,.41,3.2,.87,5.58,1.25,.07,0,.14,.02,.21,.03-.02-.15-.05-.3-.07-.45-.02,0-.05,0-.08-.01Z"/>
  <path class="cls-4" d="M39.05,32.4c1.51-.27,2.76-.55,3.73-.83-.19-.35-.4-.69-.6-1.02-.85,.23-1.88,.47-3.12,.69v1.16Z"/>
  <path class="cls-4" d="M44.64,29.56s.07-.04,.1-.06c-.07-.07-.15-.13-.24-.2l.15,.26Z"/>
  <path class="cls-4" d="M45.34,31.23c.11-.05,.18-.09,.22-.12-.11-.07-.24-.14-.38-.21,.06,.11,.11,.22,.16,.33Z"/>
  <path class="cls-4" d="M39.05,31.13c1.22-.22,2.23-.46,3.07-.68-.07-.12-.14-.24-.21-.35-.78,.23-1.73,.46-2.86,.66v.37Z"/>
  <path class="cls-4" d="M39.05,32.9c1.54-.29,2.88-.61,3.94-.9-.06-.11-.11-.23-.16-.34-.98,.28-2.24,.57-3.78,.84v.4Z"/>
  <path class="cls-4" d="M46.79,40.89c-.4-.18-.87-.35-1.41-.53-.05,2.49-.58,4.86-1.52,7.02,.43,.42,.77,.8,1.03,1.13,1.1-2.33,1.76-4.9,1.89-7.62Z"/>
  <path class="cls-4" d="M39.05,25.81v.25c.4,.35,.79,.71,1.15,1.09,.92,.23,1.78,.49,2.51,.75-3.4-4.44-8.6-7.39-14.53-7.79v1.42c4.02,.28,7.69,1.83,10.59,4.26h.28Z"/>
  <path class="cls-4" d="M46.73,38.09c-.26-2.7-1.05-5.23-2.27-7.51-.56-.22-1.25-.44-2.05-.65,1.47,2.27,2.45,4.88,2.81,7.68,.57,.16,1.08,.32,1.5,.48Z"/>
  <path class="cls-4" d="M25.58,20.12c-5.93,.39-11.14,3.36-14.54,7.8,.7-.27,1.54-.52,2.5-.75,.38-.39,.77-.76,1.18-1.12v-.25h.27c2.91-2.44,6.57-3.98,10.59-4.26v-1.42Z"/>
  <path class="cls-4" d="M7.05,37.84c.43-.13,.95-.26,1.5-.39,.26-1.86,.79-3.63,1.56-5.27-.56-.17-1.03-.29-1.41-.34-.84,1.87-1.42,3.89-1.65,6.01Z"/>
  <path class="cls-4" d="M28.18,59.88c5.96-.39,11.19-3.38,14.59-7.86-.22-.28-.55-.63-.99-1.04-3.13,4.24-8.01,7.1-13.59,7.49v1.42Z"/>
  <path class="cls-4" d="M11.48,50.28c-.57,.16-1.03,.32-1.39,.45,3.32,5.19,8.97,8.72,15.49,9.15v-1.42c-5.88-.41-11.01-3.55-14.1-8.18Z"/>
  <path class="cls-4" d="M6.97,40.84c.12,2.81,.82,5.47,1.98,7.87,.36-.14,.81-.3,1.35-.47-1.19-2.4-1.89-5.08-1.94-7.93-.55,.19-1.03,.37-1.4,.53Z"/>
  <path class="cls-4" d="M42.84,52.11c-3.42,4.49-8.67,7.49-14.66,7.87v.31c6.04-.39,11.35-3.4,14.83-7.91-.04-.08-.1-.17-.17-.27Z"/>
  <path class="cls-4" d="M42.91,27.98c.19,.07,.37,.14,.53,.22-3.45-4.84-8.96-8.08-15.26-8.49v.3c6.02,.39,11.31,3.43,14.73,7.97Z"/>
  <path class="cls-4" d="M10.84,28c3.41-4.55,8.71-7.6,14.74-7.99v-.3c-6.3,.41-11.81,3.66-15.26,8.5,.01,0,.03,0,.04,0,.15-.07,.32-.14,.49-.21Z"/>
  <path class="cls-4" d="M9.99,50.77c-.11,.04-.19,.08-.28,.11,3.39,5.34,9.18,8.97,15.87,9.4v-.31c-6.56-.42-12.25-3.98-15.59-9.21Z"/>
  <path class="cls-4" d="M8.86,48.74c-1.16-2.39-1.86-5.05-1.99-7.86-.11,.05-.21,.1-.3,.14,.14,2.8,.84,5.44,2,7.82,.08-.03,.18-.07,.28-.11Z"/>
  <path class="cls-4" d="M8.58,31.82c-.11-.01-.22-.03-.31-.03h-.01c-.85,1.93-1.42,4-1.64,6.19,.1-.04,.2-.07,.31-.11,.23-2.14,.8-4.17,1.64-6.06Z"/>
  <path class="cls-4" d="M44.97,48.61c.07,.1,.14,.19,.19,.28,1.16-2.38,1.87-5.02,2.02-7.81-.09-.04-.2-.09-.3-.14-.13,2.74-.8,5.33-1.92,7.67Z"/>
  <path class="cls-4" d="M44.61,30.64c1.2,2.27,1.98,4.8,2.23,7.49,.11,.04,.21,.09,.31,.13-.23-2.66-.97-5.17-2.12-7.44-.13-.06-.26-.12-.42-.18Z"/>
  <path class="cls-4" d="M41.83,29.78c1.55,2.26,2.58,4.89,2.97,7.72,.11,.03,.21,.06,.32,.09-.37-2.82-1.37-5.43-2.86-7.7-.14-.04-.29-.07-.43-.11Z"/>
  <path class="cls-4" d="M38.61,25.81c-2.87-2.37-6.48-3.88-10.43-4.16v.3c3.74,.27,7.16,1.66,9.93,3.86h.5Z"/>
  <path class="cls-4" d="M10.7,48.12c-1.21-2.4-1.9-5.09-1.93-7.94-.1,.03-.2,.06-.29,.09,.05,2.85,.74,5.54,1.94,7.94,.09-.03,.19-.06,.29-.09Z"/>
  <path class="cls-4" d="M11.89,50.17c-.1,.03-.21,.05-.3,.08,3.08,4.58,8.16,7.69,13.99,8.11v-.31c-5.69-.41-10.66-3.42-13.69-7.88Z"/>
  <path class="cls-4" d="M10.5,32.3c-.1-.03-.19-.06-.28-.09-.76,1.62-1.29,3.37-1.55,5.21,.1-.02,.2-.05,.31-.07,.26-1.78,.78-3.48,1.52-5.05Z"/>
  <path class="cls-4" d="M28.18,58.36c5.55-.4,10.4-3.23,13.51-7.45-.07-.06-.15-.13-.22-.2-3.06,4.16-7.83,6.95-13.29,7.34v.31Z"/>
  <path class="cls-4" d="M40.02,27.11c-.31-.31-.64-.61-.97-.9v.41c.13,.12,.26,.23,.39,.36,.19,.04,.38,.09,.57,.14Z"/>
  <path class="cls-4" d="M14.72,26.2c-.34,.3-.67,.6-.99,.92,.18-.04,.37-.08,.55-.13,.14-.14,.29-.26,.44-.4v-.4Z"/>
  <path class="cls-4" d="M25.58,21.65c-3.95,.28-7.56,1.78-10.42,4.16h.5c2.77-2.2,6.19-3.59,9.93-3.86v-.3Z"/>
  <path class="cls-4" d="M43.56,47.08c.08,.07,.15,.14,.23,.22,.93-2.14,1.45-4.5,1.5-6.97-.1-.03-.2-.06-.3-.1-.03,2.43-.53,4.74-1.43,6.85Z"/>
  <path class="cls-4" d="M6.38,38.9v1.47c1.36-.65,3.71-1.38,6.9-1.96,.47-.09,.95-.17,1.44-.24v-1.26c-.27,.05-.55,.09-.82,.14-3.06,.59-6.32,1.29-7.52,1.87Z"/>
  <path class="cls-4" d="M47.41,40.39v-1.07c-1.26-.94-5.23-1.83-8.04-2.33-.1-.02-.22-.03-.32-.05v1.31c.35,.06,.69,.11,1.03,.17,3.06,.58,6.25,1.4,7.34,1.98Z"/>
  <path class="cls-4" d="M14.72,36.79v-.43c-.3,.05-.61,.1-.89,.15-2.54,.5-6.42,1.12-7.69,1.79v.62c1.03-.61,4.49-1.35,7.75-1.98,.27-.05,.55-.09,.83-.14Z"/>
  <path class="cls-4" d="M14.72,38.69v-.43c-.49,.07-.96,.15-1.43,.24-3.4,.63-5.87,1.43-7.15,2.1v.57c.77-.53,3.47-1.54,7.24-2.26,.44-.08,.89-.15,1.34-.22Z"/>
  <path class="cls-4" d="M39.05,36.37v.45c.11,.02,.23,.03,.34,.05,2.96,.54,7.16,1.47,8.26,2.5v-.72c-1.02-.77-5.25-1.64-8.05-2.19-.17-.03-.36-.06-.54-.09Z"/>
  <path class="cls-4" d="M39.05,38.34v.41c.32,.05,.64,.1,.95,.16,3.62,.7,6.43,1.54,7.65,2.3v-.56c-.48-.5-4.15-1.5-7.58-2.15-.33-.06-.67-.11-1.01-.17Z"/>
  <path class="cls-4" d="M39.05,27.47v1.12c2.48,.48,4.82,1.11,5.84,1.6l-.59-1.03c-1.05-.66-3.17-1.27-5.25-1.69Z"/>
  <path class="cls-4" d="M14.72,28.55v-1.07c-1.37,.28-2.5,.58-3.36,.88,.49,.12,1.08,.3,1.73,.53,.5-.12,1.04-.23,1.63-.34Z"/>
  <path class="cls-4" d="M39.05,27.37c2.29,.46,4.6,1.15,5.57,1.91l-.31-.49c-.82-.61-2.97-1.31-5.25-1.79v.38Z"/>
  <path class="cls-4" d="M39.05,29.05c3.02,.59,5.38,1.27,6.47,1.91l-.24-.41c-.05-.06-.14-.12-.26-.19-.85-.47-3.35-1.18-5.97-1.67v.36Z"/>
  <path class="cls-4" d="M11.15,28.32c.9-.32,2.09-.64,3.57-.95v-.36c-1.73,.36-3.16,.77-4.17,1.21,.18,.02,.38,.05,.59,.09Z"/>
  <path class="cls-4" d="M14.72,29.02v-.37c-.53,.1-1,.2-1.46,.3,.2,.07,.41,.15,.63,.24,.27-.06,.55-.12,.83-.17Z"/>
  <path class="cls-4" d="M16.24,48.73c.15-.02,.32-.04,.48-.06-.24-.36-.45-.74-.65-1.12-.08,.01-.16,.02-.24,.03-2.41,.37-4.5,.9-6.66,1.69-.15,.06-.3,.11-.44,.18l.59,1.01c1.01-.39,3.2-1.23,6.93-1.72Z"/>
  <path class="cls-4" d="M39.71,49.23c-.6-.47-1.27-.99-2.02-1.54-.01,0-.03,0-.04,0-.19,.37-.4,.72-.63,1.07,.14,.02,.28,.04,.41,.06,.83,.13,1.59,.28,2.28,.42Z"/>
  <path class="cls-4" d="M16.02,47.44c-.06-.11-.11-.23-.17-.35-.03,0-.07,0-.1,.01-4.39,.69-6.67,1.65-7.55,2l.16,.34c2.45-.97,4.75-1.56,7.45-1.98,.07,0,.14-.02,.21-.03Z"/>
  <path class="cls-4" d="M17.02,49.08c-.08-.11-.16-.21-.24-.32-.18,.02-.36,.05-.53,.07-4.12,.54-6.33,1.5-7.19,1.82l.19,.33c.68-.33,2.83-1.2,7.03-1.79,.23-.03,.48-.07,.73-.1Z"/>
  <path class="cls-4" d="M36.69,49.21c.22,.03,.45,.06,.66,.09,1.23,.17,2.29,.38,3.19,.6-.2-.17-.42-.34-.64-.52-.74-.16-1.56-.31-2.48-.46-.15-.02-.31-.04-.46-.06-.08,.12-.18,.23-.26,.35Z"/>
  <polygon class="cls-4" points="28.08 19.54 27.74 19.54 27.74 19.64 27.74 25.81 28.08 25.81 28.08 19.54"/>
  <path class="cls-4" d="M27.74,60.31v.15h.33v-6.33c-.11,.01-.22,0-.33,.02v6.16Z"/>
  <polygon class="cls-4" points="26.02 19.64 26.02 19.54 25.68 19.54 25.68 25.81 26.02 25.81 26.02 19.64"/>
  <path class="cls-4" d="M25.68,60.46h.33v-6.31c-.11,0-.22,0-.33-.02v6.33Z"/>
  <path d="M26.12,19.44h-.54v.17c-6.36,.4-11.93,3.7-15.4,8.6l-.31,.08s-.06,.01-.08,.02l-.31,.08-.02,.03h0l-.26,.45-.03,.06h0s0,0,0,0h0s-.03,.18-.03,.18c0,.08,.04,.18,.07,.27l-.67,1.3h0s-.05,.1-.05,.1l-.07,.13-.02,.03h0s-.19,.37-.19,.37l-.18,.04h-.03s-.04-.01-.04-.01l-.03,.05h0s-.03,.05-.03,.05l-.2,.35-.02,.07v.02s0,0,0,0l-.05,.17c0,.15,.08,.34,.2,.54-.66,1.71-1.12,3.52-1.3,5.42-.17,.07-.33,.13-.46,.2h-.02s-.02,0-.02,0v.77s0,.03,0,.03v.07l.05-.04s.09,.04,.18,.08v1.27c-.07,.03-.15,.07-.21,.1h-.02v.92h.03c.12,.06,.26,.12,.43,.19,.2,2.59,.89,5.04,1.97,7.27-.14,.06-.27,.11-.37,.15l-.05,.02,.06,.12,.16,.35s0,0,.01,0l.02,.04h.03c.14,.06,.3,.14,.48,.23l.39,.68c-.09,.03-.18,.07-.25,.09l-.06,.02,.28,.47,.03,.04,.04-.02c.08-.04,.2-.09,.34-.16,.19,.3,.39,.6,.59,.89l.06,.08s0,0,.01,0c3.48,4.84,9,8.09,15.32,8.49v.17h.54v-.14c.25,0,.5,.04,.76,.04s.51-.03,.76-.04v.14h.54v-.17c5.73-.36,10.82-3.07,14.31-7.19,.03,0,.06,.01,.09,.02l.52-.13v.02s0,.1,0,.1l.12-.09v.07l.08-.14h0s.27-.41,.27-.41l.05-.2c0-.06-.04-.13-.06-.2l.08-.14,.33-.5s.01,0,.02-.01l.24-.39,.5-.76s.08,.01,.11,.01l.25-.06,.04-.07,.3-.45,.05-.24c0-.18-.1-.4-.24-.64,1.11-2.26,1.82-4.75,2.02-7.39,.22-.1,.37-.18,.44-.24l.05,.04v-.09h0v-.76l-.04,.04s-.11-.09-.2-.14v-.78c.07-.04,.13-.07,.17-.1l.06,.06v-1.03h-.02c-.12-.11-.28-.2-.48-.29-.2-2.49-.86-4.84-1.87-7,.17-.08,.27-.14,.31-.19v-.03s0-.02,0-.02h0s-.33-.59-.33-.59c0,0-.01-.01-.02-.02h0s0,0,0,0c-.06-.06-.14-.12-.26-.18,0,0-.02-.01-.03-.02l-.36-.63c.05-.03,.12-.07,.15-.09l-.02-.03,.05-.03-.32-.51-.02-.05h0s-.13-.2-.13-.2c-.18-.14-.44-.28-.73-.42-3.46-4.96-9.06-8.29-15.47-8.69v-.17h-.54v.14c-.26,0-.51-.04-.76-.04s-.51,.03-.76,.04v-.14Zm-.44,.1h.33v6.26h-.33v-6.26Zm-.1,.17v.3c-6.03,.39-11.32,3.43-14.74,7.99-.17,.07-.34,.14-.49,.21-.01,0-.03,0-.04,0,3.45-4.84,8.96-8.09,15.26-8.5Zm-9.93,6.1h-.5c2.87-2.37,6.48-3.88,10.42-4.16v.3c-3.74,.27-7.16,1.66-9.93,3.86Zm9.93-3.75v3.75H15.83c2.73-2.13,6.08-3.48,9.74-3.75Zm-10.59,3.75h-.27v.25c-.41,.36-.8,.73-1.18,1.12-.96,.23-1.8,.48-2.5,.75,3.4-4.45,8.61-7.41,14.54-7.8v1.42c-4.02,.28-7.68,1.83-10.59,4.26Zm-6.51,14.46c.09-.03,.2-.06,.29-.09,.03,2.86,.73,5.55,1.93,7.94-.1,.03-.19,.06-.29,.09-1.2-2.4-1.89-5.08-1.94-7.94Zm1.83,7.97c-.54,.17-.99,.33-1.35,.47-1.17-2.39-1.86-5.05-1.98-7.87,.37-.16,.85-.34,1.4-.53,.05,2.85,.74,5.53,1.94,7.93Zm4.41-7.04v.42c-2.15-.34-4.2-.95-5.76-1.51,.24-.08,.49-.15,.76-.23,1.44,.51,3.17,1.01,4.99,1.32Zm-4.82-1.37c1.01-.29,2.18-.57,3.48-.82,.44-.08,.88-.15,1.33-.22v2.3c-1.75-.3-3.42-.78-4.82-1.27Zm4.82,1.9v.31c0,.37,.02,.74,.06,1.1-.02,0-.04,0-.06,0-1.99-.31-3.9-.72-5.75-1.28-.06-.55-.08-1.1-.09-1.66,1.57,.57,3.66,1.2,5.84,1.53Zm0-3.57c-.49,.07-.97,.15-1.44,.24-3.18,.58-5.53,1.32-6.9,1.96v-1.47c1.2-.57,4.46-1.28,7.52-1.87,.26-.05,.54-.09,.82-.14v1.26Zm-4.5-5.95c.09,.03,.19,.06,.28,.09-.74,1.57-1.26,3.27-1.52,5.05-.11,.02-.21,.05-.31,.07,.26-1.84,.79-3.59,1.55-5.21Zm-1.66,5.24c-.55,.13-1.07,.26-1.5,.39,.23-2.12,.8-4.14,1.65-6.01,.38,.05,.85,.17,1.41,.34-.77,1.64-1.3,3.41-1.56,5.27Zm1.15-2.86c.75,.62,1.68,1.33,2.75,2.09-1.1,.2-2.29,.42-3.37,.66,.14-.94,.34-1.86,.61-2.74Zm.04-.11c.04-.13,.1-.26,.14-.39,.87,.76,1.98,1.6,3.2,2.46-.16,.03-.32,.06-.48,.09-1.13-.8-2.09-1.52-2.86-2.17Zm.18-.49c.2-.56,.43-1.12,.68-1.65,1.05,.36,2.34,.88,3.83,1.56,.09,.06,.19,.13,.29,.19v2.18c-.31,.05-.61,.1-.91,.15-.19,.04-.38,.07-.58,.11-1.27-.89-2.42-1.76-3.31-2.54Zm4.36-6.99c-.19,.04-.37,.08-.55,.13,.32-.32,.65-.63,.99-.92v.4c-.15,.13-.29,.26-.44,.4Zm.44-.25v.15c-.07,.02-.15,.03-.22,.04,.07-.07,.15-.13,.22-.2Zm0,.26v.36c-1.48,.3-2.68,.63-3.57,.95-.22-.04-.41-.07-.59-.09,1.01-.43,2.44-.85,4.17-1.21Zm0,.47v1.07c-.59,.11-1.13,.22-1.63,.34-.65-.23-1.24-.42-1.73-.53,.87-.29,1.99-.59,3.36-.88Zm0,1.17v.37c-.29,.05-.56,.11-.83,.17-.22-.09-.42-.16-.63-.24,.45-.1,.93-.2,1.46-.3Zm0,.47v.4c-.23-.1-.44-.18-.66-.27,.22-.04,.43-.09,.66-.13Zm-5.65,13.39c1.37,.41,3.18,.86,5.55,1.24,.08,.01,.16,.02,.24,.03,.17,1.12,.48,2.2,.94,3.2-.02,0-.05,0-.07,0-2.1,.33-3.7,.72-4.92,1.08-.87-1.72-1.46-3.59-1.74-5.56Zm5.57,1.14c-2.39-.38-4.21-.84-5.58-1.25-.02-.15-.05-.3-.07-.45,1.84,.55,3.74,.96,5.72,1.27,.02,0,.05,0,.08,.01,.02,.15,.05,.3,.07,.45-.07,0-.14-.02-.21-.03Zm-5.09-15.21l.67-.15c.9,0,2.44,.47,4.5,1.34v.38c-2.12-.89-3.7-1.38-4.62-1.4l-.76,.18,.2-.36Zm-.31,.54h0s.08-.09,.08-.09l.14-.03-.2,.38s-.04-.1-.04-.15l.02-.12Zm.36-.15l.53-.12c.89,.01,2.46,.5,4.6,1.4v3.27c-2.95-1.34-5.22-2.14-6.27-2.14l-.12,.03,1.26-2.44Zm-1.59,2.61l.45-.1c1.02,0,3.31,.8,6.27,2.15v.4c-3.08-1.42-5.38-2.22-6.44-2.22l-.25,.08s-.03,0-.04,0c0,0,0,0,0,0l-.18,.06,.2-.38Zm.12,.38s-.01,.02-.02,.03c0,0,0-.02-.01-.03h.03Zm-.4,.22l.03-.12,.25-.07s.03,.07,.05,.11c-.07,.17-.12,.34-.19,.51-.08-.16-.14-.31-.14-.43Zm.54-.27h.01c.09,0,.2,.01,.31,.02-.84,1.89-1.42,3.92-1.64,6.06-.11,.04-.22,.07-.31,.11,.22-2.18,.79-4.26,1.64-6.18Zm-2.13,6.5c1.27-.67,5.15-1.28,7.69-1.79,.29-.05,.59-.1,.89-.15v.43c-.28,.05-.56,.09-.83,.14-3.27,.64-6.72,1.37-7.75,1.98v-.62Zm.05,.7s.05-.03,.09-.05v.09s-.06-.03-.09-.04Zm-.05,2.37v-.09c.08-.06,.18-.12,.31-.19,0,0,.02,0,.03,.01,0,.14,.01,.28,.02,.42-.14-.06-.26-.11-.36-.15Zm0-.2v-.57c1.28-.67,3.75-1.47,7.15-2.1,.47-.09,.94-.17,1.43-.24v.43c-.46,.07-.91,.14-1.34,.22-3.77,.72-6.47,1.73-7.24,2.26Zm.44-.14c.09-.04,.19-.09,.3-.14,.12,2.81,.82,5.46,1.99,7.86-.1,.04-.2,.08-.28,.11-1.16-2.39-1.86-5.03-2-7.82Zm1.62,8.08c.88-.35,3.16-1.31,7.55-2,.03,0,.07,0,.1-.01,.05,.12,.11,.23,.17,.35-.07,0-.14,.02-.21,.03-2.71,.42-5,1.01-7.45,1.98l-.16-.34Zm.26,.41c.05-.02,.11-.04,.16-.06l.12,.2c-.1-.05-.19-.1-.28-.14Zm.26-.08c.15-.06,.3-.11,.44-.18,2.16-.79,4.25-1.32,6.66-1.69,.08-.01,.16-.02,.24-.03,.2,.38,.42,.76,.65,1.12-.16,.02-.33,.04-.48,.06-3.73,.49-5.92,1.33-6.93,1.72l-.59-1.01Zm.54,1.53l-.19-.33c.85-.31,3.07-1.27,7.19-1.82,.17-.02,.35-.05,.53-.07,.08,.11,.16,.22,.24,.32-.25,.03-.5,.06-.73,.1-4.2,.6-6.35,1.46-7.03,1.79Zm5.47,.69c-.68-.12-1.31-.28-1.9-.44-.11-.14-.22-.29-.32-.43,.71,.19,1.47,.37,2.29,.53,1.56,.28,3.24,.48,5.1,.61,.19,.14,.39,.26,.58,.39-2.09-.13-3.99-.33-5.75-.66Zm5.94,.77c.95,.58,1.98,1.02,3.06,1.32-3.17-.1-6.08-.36-8.46-.8-.4-.08-.78-.16-1.13-.24-.43-.43-.84-.89-1.22-1.36,.56,.15,1.15,.29,1.79,.41,1.82,.34,3.78,.54,5.95,.67Zm-5.86-1.22c-.86-.16-1.67-.35-2.41-.55-.13-.18-.27-.34-.39-.52,1.09-.29,2.49-.6,4.29-.85,.25-.04,.52-.07,.79-.11,.37,.5,.76,.98,1.2,1.42,.45,.44,.93,.84,1.44,1.22-1.79-.13-3.42-.33-4.93-.6Zm10.77,9.08c-6.69-.43-12.48-4.07-15.87-9.4,.09-.04,.17-.07,.28-.11,3.34,5.23,9.04,8.79,15.59,9.21v.31Zm0-.41c-6.51-.43-12.16-3.96-15.49-9.15,.36-.14,.82-.29,1.39-.45,3.09,4.63,8.22,7.77,14.1,8.18v1.42Zm0-1.52c-5.84-.42-10.92-3.52-13.99-8.11,.09-.03,.2-.05,.3-.08,3.03,4.46,8,7.47,13.69,7.88v.31Zm0-.41c-4.07-.3-7.75-1.94-10.62-4.48,.07,.01,.14,.03,.21,.05,2.86,.52,6.48,.79,10.4,.84v3.59Zm0-3.69c-3.92-.05-7.53-.32-10.38-.84-.13-.03-.26-.05-.39-.08-.17-.16-.35-.31-.52-.47,.3,.07,.62,.13,.96,.2,2.49,.46,5.55,.72,8.89,.81,.47,.11,.95,.2,1.43,.26v.13Zm.44,6.11v.1h-.33v-6.33c.11,.01,.22,0,.33,.02v6.21Zm1.63-.1h-1.52v-6.1c.25,.02,.49,.04,.74,.04,.26,0,.52-.02,.78-.04v6.1Zm.43,.2h-.33v-6.31c.11,0,.22,0,.33-.02v6.33Zm.1-.17v-.31c5.98-.38,11.24-3.38,14.66-7.87,.07,.1,.13,.19,.17,.27-3.47,4.51-8.78,7.52-14.83,7.91Zm9.23-11.37c.92,.15,1.74,.3,2.48,.46,.22,.18,.44,.36,.64,.52-.9-.22-1.95-.44-3.19-.6-.21-.03-.44-.06-.66-.09,.09-.12,.18-.23,.26-.35,.15,.02,.31,.04,.46,.06Zm-.4-.16c.23-.34,.44-.7,.63-1.07,.01,0,.03,0,.04,0,.75,.55,1.42,1.06,2.02,1.54-.69-.14-1.45-.28-2.28-.42-.13-.02-.28-.04-.41-.06Zm.32,.64c1.32,.18,2.45,.42,3.38,.66,.21,.18,.41,.35,.6,.51-.85,.22-1.79,.43-2.81,.62-.76-.33-1.6-.71-2.49-1.14,.21-.24,.41-.49,.6-.75,.24,.03,.49,.06,.72,.1Zm.99,1.83c-.22,.04-.45,.08-.67,.11-.62-.28-1.27-.59-1.96-.94,.09-.09,.17-.18,.25-.28,.85,.41,1.65,.78,2.39,1.1Zm-.85,.14c-1.04,.17-2.16,.3-3.33,.4,.47-.35,.92-.72,1.33-1.13,.05-.05,.09-.1,.14-.15,.65,.32,1.27,.62,1.86,.89Zm.95-.05c1.07-.21,2.05-.43,2.94-.65-.11,.15-.22,.3-.33,.44-.8,.2-1.67,.39-2.55,.55-1.53,.28-3.24,.48-5.06,.61,.2-.12,.39-.26,.57-.39,1.59-.13,3.09-.31,4.43-.57Zm.07,.45c.84-.16,1.67-.34,2.44-.53-.39,.48-.79,.95-1.23,1.39-.61,.14-1.24,.28-1.85,.38-2.25,.39-4.88,.61-7.7,.72,1.09-.31,2.12-.76,3.06-1.34,1.9-.14,3.68-.34,5.27-.63Zm-.62,1.34c.56-.1,1.14-.22,1.71-.35-.18,.18-.37,.34-.56,.51-.32,.07-.65,.14-.97,.21-2.79,.51-6.27,.74-9.87,.79v-.13c.52-.06,1.02-.15,1.52-.27,3-.1,5.8-.33,8.18-.74Zm.2,.46c.27-.05,.54-.11,.8-.17-2.88,2.58-6.59,4.25-10.7,4.55v-3.59c3.61-.05,7.09-.28,9.89-.79Zm3.4-2.86c.07,.07,.16,.14,.22,.2-3.11,4.22-7.96,7.05-13.51,7.45v-.31c5.45-.39,10.23-3.19,13.29-7.34Zm.31,.27c.45,.42,.77,.76,.99,1.04-3.39,4.48-8.62,7.47-14.59,7.86v-1.42c5.58-.39,10.46-3.24,13.59-7.49Zm1.29,1.51s.02,.03,.02,.04v.11s-.02,0-.02,0c-.03,0-.07,0-.11,0,.04-.05,.07-.1,.11-.15Zm-.49,.63s0,0,0,0c.11-.13,.21-.26,.31-.39,.06,0,.13,.02,.18,.02h.03s0,.25,0,.25l-.52,.13Zm.9-.52l-.26,.4h-.02s-.01-.49-.01-.49c-.23-.72-2.15-2.49-5.48-4.94,.06-.11,.11-.22,.16-.33,3.4,2.47,5.67,4.46,5.66,5.2l-.04,.15Zm.04-.49c-.47-.96-2.61-2.78-5.61-4.96,.45-.96,.78-1.99,.96-3.06,3.22,2.34,5.89,4.59,6.16,5.72l-1.5,2.3Zm1.53-2.1l-.05,.32-.16,.03s-.03,0-.05,0l.26-.39s0,.03,0,.04v.02Zm.31-.37l-.04,.18-.19,.29,.02-.1v-.02c-.02-1.14-2.85-3.54-6.27-6.03,.02-.15,.05-.29,.07-.44,3.92,2.84,6.43,5.14,6.41,6.11Zm-.95-9.58c.16,.05,.32,.09,.47,.14,0,.07,0,.13-.01,.2-1.52,.38-3.54,.81-5.82,1.18v-.46c2.03-.29,3.89-.69,5.36-1.07Zm-5.36,.96v-2.17c.32,.05,.64,.1,.94,.16,1.59,.31,3.01,.65,4.22,.99-1.44,.36-3.22,.74-5.16,1.02Zm4.73,6.28c-.07-.07-.15-.14-.23-.22,.9-2.11,1.4-4.42,1.43-6.85,.1,.03,.2,.06,.3,.1-.05,2.47-.57,4.83-1.5,6.97Zm1.6-6.94c.54,.18,1.01,.36,1.41,.53-.12,2.72-.79,5.29-1.89,7.62-.26-.34-.61-.72-1.03-1.13,.94-2.16,1.47-4.53,1.52-7.02Zm-1.91,6.64c-1.05-.97-2.47-2.11-4.18-3.35,.08-.01,.16-.02,.24-.04,2.05-.37,3.81-.78,5.18-1.16-.22,1.59-.63,3.12-1.23,4.55Zm1.39-6.49c-.01,.44-.02,.87-.07,1.3-1.37,.39-3.19,.8-5.39,1.15-.13,.02-.28,.04-.41,.06,.03-.32,.05-.65,.05-.98v-.36c2.28-.38,4.29-.8,5.81-1.18Zm-5.44,2.56c2.18-.36,3.99-.76,5.36-1.14-.02,.14-.05,.28-.06,.41-1.37,.38-3.15,.81-5.21,1.17-.11,.02-.23,.03-.34,.05-.06-.05-.13-.1-.2-.14,.01-.1,.02-.19,.03-.29,.14-.02,.29-.04,.43-.06Zm5.74,5.82c-.06-.09-.12-.18-.19-.28,1.12-2.34,1.79-4.93,1.92-7.67,.1,.05,.21,.09,.3,.14-.15,2.79-.86,5.43-2.02,7.81Zm2.09-7.39c0-.12,.01-.25,.02-.37,.12,.06,.23,.13,.33,.19-.06,.04-.17,.11-.35,.18Zm.38-.84v.56c-1.21-.76-4.03-1.6-7.65-2.3-.31-.06-.63-.11-.95-.16v-.41c.34,.05,.68,.11,1.01,.17,3.44,.65,7.11,1.65,7.58,2.15Zm-8.59-2.42v-1.31c.11,.02,.22,.03,.32,.05,2.81,.5,6.78,1.39,8.04,2.33v1.07c-1.09-.57-4.28-1.4-7.34-1.98-.33-.06-.68-.12-1.03-.17Zm8.47,1.32v-.16s.07,.06,.1,.09c-.03,.02-.06,.04-.1,.06Zm.13-.9v.72c-1.1-1.03-5.3-1.96-8.26-2.5-.11-.02-.23-.04-.34-.05v-.45c.18,.03,.37,.06,.54,.09,2.8,.55,7.04,1.42,8.05,2.19Zm-2.53-1.07c-.1-.03-.21-.06-.32-.09-.39-2.83-1.43-5.46-2.97-7.72,.15,.04,.29,.07,.43,.11,1.49,2.26,2.49,4.88,2.86,7.7Zm-2.7-7.65c.79,.22,1.48,.43,2.05,.65,1.22,2.27,2.01,4.81,2.27,7.51-.43-.16-.94-.32-1.5-.48-.36-2.81-1.34-5.42-2.81-7.68Zm-.56,.07c-.77,.22-1.7,.45-2.8,.64v-1.49c.94,.18,1.82,.38,2.61,.58,.06,.09,.13,.18,.19,.27Zm.05,.09c.08,.11,.14,.24,.21,.35-.84,.23-1.85,.46-3.07,.68v-.37c1.13-.2,2.07-.43,2.86-.66Zm.27,.44c.21,.34,.42,.67,.6,1.02-.97,.28-2.22,.57-3.73,.83v-1.16c1.24-.23,2.28-.46,3.12-.69Zm.65,1.12c.06,.11,.11,.23,.16,.34-1.06,.29-2.4,.61-3.94,.9v-.4c1.54-.27,2.8-.56,3.78-.84Zm.21,.43c.82,1.66,1.38,3.47,1.65,5.38-1.63-.42-3.56-.81-5.09-1.11-.18-.03-.37-.06-.55-.09v-3.26c1.57-.3,2.92-.61,3.99-.91Zm4.12,6.17c-.1-.04-.2-.09-.31-.13-.25-2.69-1.03-5.22-2.23-7.49,.15,.06,.28,.12,.42,.18,1.15,2.27,1.89,4.78,2.12,7.44Zm-1.81-7.04c-.05-.11-.11-.22-.16-.33,.15,.07,.27,.14,.38,.21-.04,.03-.12,.07-.22,.12Zm-.05-.67l.24,.41c-1.09-.64-3.45-1.32-6.47-1.91v-.36c2.63,.5,5.13,1.21,5.97,1.67,.12,.07,.21,.13,.26,.19Zm-.4-.36c-1.02-.49-3.36-1.12-5.84-1.6v-1.12c2.08,.42,4.19,1.04,5.25,1.69l.59,1.03Zm-.25-.63l-.15-.26c.09,.07,.18,.13,.24,.2-.02,.02-.06,.04-.1,.06Zm-.34-.77l.31,.49c-.96-.76-3.28-1.45-5.57-1.91v-.38c2.29,.49,4.43,1.18,5.25,1.79Zm-5.08-1.86c-.06-.01-.12-.02-.17-.04v-.12c.06,.05,.12,.1,.17,.16Zm-.17-.31v-.41c.33,.29,.66,.59,.97,.9-.19-.05-.38-.09-.57-.14-.13-.12-.26-.24-.39-.36Zm-10.87-6.9c6.3,.41,11.81,3.65,15.26,8.49-.16-.07-.35-.14-.53-.22-3.41-4.54-8.7-7.58-14.73-7.97v-.3Zm0,.41c5.93,.39,11.13,3.35,14.53,7.79-.72-.27-1.59-.52-2.51-.75-.37-.38-.76-.74-1.15-1.09v-.25h-.28c-2.91-2.44-6.57-3.98-10.59-4.26v-1.42Zm0,1.53c3.95,.28,7.56,1.78,10.43,4.16h-.5c-2.77-2.2-6.19-3.59-9.93-3.86v-.3Zm0,.41c3.66,.27,7.02,1.62,9.75,3.75h-9.75v-3.75Zm-.44-2.41v-.1h.33v6.26h-.33v-6.16Zm11.2,6.26v16.14c0,3.32-1.35,6.32-3.55,8.51-2.18,2.18-5.2,3.54-8.54,3.54s-6.3-1.38-8.49-3.58c-2.2-2.19-3.55-5.18-3.55-8.48V25.91h24.13Zm-11.3-6.16v6.06h-1.52v-6.06h1.52Z"/>
  <path class="cls-4" d="M26.12,54.16v6.1h1.52v-6.1c-.26,.02-.52,.04-.78,.04-.25,0-.49-.02-.74-.04Z"/>
  <rect class="cls-4" x="26.12" y="19.74" width="1.52" height="6.06"/>
  <path class="cls-4" d="M14.72,33.4v-3.27c-2.14-.9-3.71-1.39-4.6-1.4l-.53,.12-1.26,2.44,.12-.03c1.05,0,3.32,.8,6.27,2.14Z"/>
  <path class="cls-4" d="M38.86,44.09c-.18,1.08-.51,2.1-.96,3.06,3.01,2.18,5.15,4,5.61,4.96l1.5-2.3c-.27-1.13-2.94-3.38-6.16-5.72Z"/>
  <path class="cls-4" d="M7.98,31.78s.03,0,.04,0l.25-.08c1.06,0,3.36,.8,6.44,2.22v-.4c-2.97-1.35-5.25-2.15-6.27-2.15l-.45,.1-.2,.38,.18-.06s0,0,0,0Z"/>
  <path class="cls-2" d="M9.86,28.29s-.06,.01-.08,.02"/>
  <path class="cls-4" d="M14.72,30.03v-.38c-2.06-.86-3.6-1.34-4.5-1.34l-.67,.15-.2,.36,.76-.18c.92,.02,2.49,.5,4.62,1.4Z"/>
  <path class="cls-4" d="M38.95,43.54c-.02,.15-.04,.29-.07,.44,3.42,2.48,6.25,4.89,6.27,6.03v.02l-.02,.1,.19-.29,.04-.18c.02-.97-2.5-3.27-6.41-6.11Z"/>
  <path class="cls-4" d="M37.85,47.26c-.05,.11-.1,.22-.16,.33,3.33,2.45,5.26,4.22,5.48,4.94v.5s.03,0,.03,0l.26-.4,.04-.15c.02-.74-2.26-2.73-5.66-5.2Z"/>
  <path class="cls-1" d="M14.82,42.04c0,3.3,1.35,6.29,3.55,8.48,2.19,2.19,5.18,3.58,8.49,3.58s6.36-1.35,8.54-3.54c2.19-2.18,3.55-5.19,3.55-8.51V25.91H14.82v16.14Zm.38,0v-15.72h23.36v15.73c0,3.2-1.32,6.11-3.42,8.21-2.12,2.11-5.03,3.41-8.25,3.41s-6.12-1.31-8.24-3.42c-2.12-2.11-3.44-5.01-3.44-8.2h0Z"/>
  <path class="cls-5" d="M26.88,53.57c3.19,0,6.08-1.29,8.18-3.38,2.09-2.08,3.39-4.96,3.39-8.13v-15.63H15.32v15.62s-.01,0-.01,0c0,3.16,1.31,6.04,3.41,8.13,2.1,2.09,5,3.39,8.17,3.39Zm7.34-23l.14-.15v-.02h.06l.13-1.2h-.03s-.14-.2-.14-.2l.03-.03,.06-.07h0s-.16-.18-.16-.18l.03-.03,.12-.14v-.02h.16l.02-.63h-.02s-.14-.12-.14-.12v-.48h.35v.18h.09v-.18h.35v.18h.08v-.18h.36v.48h-.02s-.14,.13-.14,.13l.02,.62h.12l.06-1.26h-.04s-.12-.13-.12-.13v-.48h.35v.18h.08v-.18h.35v.18h.08v-.18h.36v.48l-.02,.02-.14,.11h0l.05,1.26h.12l.02-.63h-.02s-.13-.12-.13-.12v-.48h.35v.18h.08v-.18h.35v.18h.08v-.18h.36v.48h-.02s-.13,.13-.13,.13l.02,.62h.11l.02,.02,.16,.17-.03,.03-.14,.15,.08,.1-.03,.03-.12,.17h-.03l.14,1.2h.04l.02,.02,.16,.18-.02,.03-.16,.18h-3.53v-.02s-.18-.19-.18-.19l.03-.03Zm0,9.73l.14-.16h0s.03-.01,.03-.01h.02l.13-1.21h-.02v-.02s-.15-.18-.15-.18l.03-.03,.05-.07h0s-.16-.19-.16-.19l.03-.03,.12-.14v-.02h.16l.02-.62h-.02s-.14-.12-.14-.12v-.48h.35v.18h.09v-.18h.35v.18h.08v-.18h.36v.48l-.02,.02-.14,.11,.02,.61h.12l.05-1.25h-.04s-.12-.14-.12-.14v-.47h.35v.18h.08v-.19h.35v.19h.08v-.19h.36v.5s-.14,.12-.14,.12h-.03l.05,1.25h.12l.02-.62h-.02s-.13-.12-.13-.12v-.48h.35v.18h.08v-.18h.35v.18h.08v-.18h.36v.48l-.02,.02-.13,.11,.02,.61h.11l.02,.02,.16,.17-.03,.03-.13,.16,.08,.1-.03,.03-.12,.16h-.03l.14,1.21h.05s.17,.2,.17,.2l-.03,.03-.16,.16h-3.53v-.02s-.18-.18-.18-.18l.03-.03Zm-.18,5.5l-.03,.04-.09,.09,.05,.05,.13-.13,.03,.03,.22,.21-.03,.03-.09,.1,.06,.05,.12-.14,.03,.03,.22,.21-.03,.03-.3,.32h-.21s-.4,.45-.4,.45l.09,.09,.9-.86-.02-.02v-.2s0-.02,0-.02l.28-.29,.04-.03,.04,.03,.2,.21-.03,.04-.09,.09,.07,.05,.12-.14,.04,.04,.21,.22-.03,.03-.09,.1,.06,.05,.12-.13,.04,.03,.21,.22-.03,.03-.3,.31h-.21s0-.02,0-.02l-.83,.93,.09,.09,.43-.43h0v-.2s0-.02,0-.02l.28-.3,.04-.03,.03,.03,.22,.2-.03,.04-.09,.1,.05,.05,.12-.13,.04,.03,.22,.2-.03,.04-.09,.1,.06,.06,.13-.13,.03,.03,.21,.21-.03,.03-.32,.31h-.17s-.01,0-.01,0h0s-.41,.46-.41,.46l.09,.08v.25s-.05,0-.05,0l-.21,.02v.13s-.05,0-.05,0l-.21,.02h-.02s-.73,.96-.73,.96l.03,.03h0v.26h-.04s-.23,.03-.23,.03h0s-2.55-2.44-2.55-2.44v-.27s.05,0,.05,0l.21-.02h.04s.01,.03,.01,.03l.92-.79h0v-.26s.05,0,.05,0h.09v-.02l.02-.23h.04s.19-.02,.19-.02h.04s.09,.1,.09,.1l.44-.43h0v-.2s0-.02,0-.02l.28-.29,.04-.03,.04,.03,.2,.19Zm-9.08-15.22l.13-.15v-.02h.06l.13-1.2h-.03s-.15-.2-.15-.2l.03-.03,.05-.06v-.02s-.17-.17-.17-.17l.03-.03,.12-.14v-.02h.17l.02-.63h-.02s-.14-.12-.14-.12v-.48h.35v.18h.08v-.18h.36v.18h.08v-.18h.35v.48h-.02s-.14,.13-.14,.13l.02,.62h.13l.05-1.26h-.03s-.13-.13-.13-.13v-.48s.05,0,.05,0h.29v.18h.08v-.18h.36v.18h.08v-.18h.35v.48l-.02,.02-.14,.11h-.01l.06,1.26h.12l.02-.63h-.02s-.13-.12-.13-.12v-.48h.35v.18h.08v-.18h.36v.18h.08v-.18h.35v.48h-.02s-.14,.13-.14,.13l.02,.62h.11l.02,.02,.17,.17-.03,.03-.14,.14,.09,.1-.03,.03-.13,.17h-.04l.14,1.2h.05v.02s.16,.18,.16,.18l-.02,.03-.14,.18h-3.54v-.02s-.18-.19-.18-.19l.03-.03Zm-5.01,10.76v-10.23h13.86v10.24c0,2.09-.78,3.97-2.03,5.35-1.25,1.38-2.98,2.22-4.9,2.22s-3.64-.85-4.89-2.24c-1.26-1.37-2.04-3.26-2.04-5.34h0Zm-4.25-10.76l.14-.15v-.02h.06l.13-1.2h-.03s-.15-.2-.15-.2l.03-.03,.06-.07h0s-.16-.18-.16-.18l.03-.03,.12-.14v-.02h.16l.02-.62h-.03s-.12-.13-.12-.13v-.48h.35v.18h.08v-.18h.36v.18h.07v-.18h.36v.48h-.02s-.12,.13-.12,.13h-.02l.03,.62h.12l.06-1.27h-.03s-.14-.12-.14-.12v-.48h.35v.18h.08v-.18h.35v.18h.07v-.18h.36v.48l-.02,.02-.12,.11h-.03s.05,1.26,.05,1.26h.12l.02-.63h-.02s-.13-.12-.13-.12v-.48h.35v.18h.08v-.18h.36v.18h.08v-.18h.35v.48h-.02s-.12,.13-.12,.13h-.02l.03,.62h.1l.02,.02,.16,.17-.03,.03-.13,.15,.08,.1-.02,.03-.13,.17h-.03l.14,1.2h.05v.02s.18,.18,.18,.18l-.03,.03-.15,.18h-3.54v-.02s-.19-.19-.19-.19l.03-.03Zm.14,9.93l-.17-.18,.03-.03,.14-.16h.01s.02-.01,.02-.01h.02l.13-1.21h-.02v-.02s-.17-.18-.17-.18l.03-.03,.06-.07h0s-.16-.2-.16-.2l.03-.03,.12-.14v-.02h.16l.02-.61h-.03s-.12-.13-.12-.13v-.48h.35v.18h.08v-.18h.36v.18h.07v-.18h.36v.48l-.02,.02-.12,.11h-.02l.03,.61h.12l.06-1.25h-.03s-.14-.14-.14-.14v-.47h.35v.18h.08v-.19h.35v.19h.07v-.19h.36v.5s-.14,.12-.14,.12h-.03l.05,1.25h.12l.02-.62h-.02s-.13-.12-.13-.12v-.48h.35v.18h.08v-.18h.36v.18h.08v-.18h.35v.48l-.02,.02-.12,.11h-.02l.03,.61h.1l.02,.02,.16,.17-.03,.03-.13,.16,.08,.1-.02,.03-.13,.16h-.03l.14,1.21h.06s.17,.2,.17,.2l-.03,.03-.15,.16h-3.54v-.02Zm2.65,8.26l.02-.02,.06-.06-.41-.46-.02,.02h-.19s-.01-.02-.01-.02l-.31-.33,.03-.04,.21-.2,.04,.03,.09,.1,.06-.06-.12-.13,.03-.04,.22-.2,.04,.04,.09,.09,.06-.05-.12-.13,.03-.04,.17-.17,.04-.03,.04,.03,.29,.32v.19s.42,.43,.42,.43l.09-.09-.83-.94-.02,.02h-.19l-.02-.02-.31-.33,.03-.04,.21-.21,.04,.04,.1,.09,.06-.05-.13-.13,.03-.04,.22-.21,.04,.04,.08,.09,.06-.05-.11-.13,.03-.04,.17-.17,.04-.04,.04,.04,.28,.31v.2s-.02,.02-.02,.02l.91,.87,.09-.09-.41-.46h-.01s-.02,0-.02,0h-.18v-.02s-.33-.33-.33-.33l.03-.04,.22-.2,.04,.04,.09,.1,.06-.06-.12-.14,.04-.03,.22-.2,.04,.04,.08,.09,.06-.05-.12-.14,.04-.03,.18-.17,.03-.03,.03,.03,.29,.31v.2s-.01,0-.01,0l.43,.43,.1-.09h0s.02-.01,.02-.01l.23,.02v.25s.13,.02,.13,.02v.04s.02,.21,.02,.21h-.01s.93,.8,.93,.8h.01s.02-.03,.02-.03h.02l.24,.02v.04s.02,.22,.02,.22l-.02,.02-2.55,2.42h-.02l-.24-.03v-.26s0-.02,0-.02l.02-.02-.73-.97-.02,.02h-.02l-.24-.03v-.13h-.02l-.23-.03v-.25Z"/>
  <path d="M26.88,53.67c3.22,0,6.14-1.3,8.25-3.41,2.1-2.1,3.42-5.01,3.42-8.21v-15.73H15.22v15.72s-.01,0-.01,0c0,3.19,1.33,6.09,3.44,8.2,2.12,2.11,5.05,3.42,8.24,3.42Zm-11.58-11.63v-15.62h23.15v15.63c0,3.18-1.3,6.06-3.39,8.13-2.09,2.09-4.99,3.38-8.18,3.38s-6.06-1.3-8.17-3.39c-2.1-2.09-3.41-4.97-3.41-8.13h0Z"/>
  <path class="cls-1" d="M26.88,48.8c1.89,0,3.59-.83,4.82-2.18,1.24-1.35,2-3.22,2-5.28v-10.14h-13.64v10.13s0,0,0,0c0,2.06,.76,3.92,2.01,5.28,1.23,1.36,2.94,2.19,4.81,2.19Zm2.74-10.75h3.03v2.24l-.45,1.17-1.07,.48-1.07-.48-.44-1.17v-2.24Zm-4.25-5.13h3.03v2.25l-.44,1.17-1.07,.48-1.07-.48-.44-1.17v-2.25Zm0,5.13h3.03v2.24l-.44,1.17-1.07,.48-1.07-.48-.44-1.17v-2.24Zm0,7.36v-2.24h3.03v2.25l-.44,1.16-1.07,.49-1.07-.49-.44-1.16h0Zm-4.25-5.13v-2.24h3.03v2.24l-.45,1.17-1.06,.48-1.08-.48-.44-1.17Z"/>
  <path d="M26.88,48.9c1.91,0,3.65-.85,4.9-2.22,1.25-1.37,2.03-3.26,2.03-5.35v-10.24h-13.85v10.23s0,0,0,0c0,2.08,.78,3.97,2.04,5.34,1.25,1.39,3,2.24,4.89,2.24Zm-6.82-7.58v-10.13h13.65v10.14c0,2.06-.77,3.93-2,5.28-1.23,1.36-2.93,2.18-4.82,2.18s-3.58-.84-4.81-2.19c-1.25-1.36-2.01-3.22-2.01-5.28h0Z"/>
  <path class="cls-3" d="M26.88,41.95l1.07-.48,.44-1.17v-2.24h-3.03v2.24l.44,1.17,1.07,.48Zm.83-3.41l.3,.3-.3,.3-.29-.3,.29-.3Zm0,1.67l.31,.3-.31,.3-.3-.3,.3-.3Zm-.85-.85l.31,.3-.31,.31-.3-.31,.3-.3Zm-.81-.82l.3,.3-.3,.3-.31-.3,.31-.3Zm0,1.67l.31,.31-.31,.3-.31-.3,.31-.31Z"/>
  <polygon class="cls-1" points="28.01 38.84 27.71 38.54 27.42 38.84 27.71 39.14 28.01 38.84"/>
  <polygon class="cls-1" points="27.17 39.65 26.86 39.35 26.56 39.65 26.86 39.96 27.17 39.65"/>
  <polygon class="cls-1" points="28.01 40.51 27.71 40.2 27.41 40.51 27.71 40.81 28.01 40.51"/>
  <rect class="cls-1" x="25.84" y="40.29" width=".43" height=".43" transform="translate(-21.02 30.32) rotate(-45.03)"/>
  <polygon class="cls-1" points="26.35 38.84 26.05 38.54 25.75 38.84 26.05 39.14 26.35 38.84"/>
  <path class="cls-3" d="M23.7,41.46l.45-1.17v-2.24h-3.03v2.24l.44,1.17,1.08,.48,1.06-.48Zm-.24-2.92l.3,.3-.3,.3-.3-.3,.3-.3Zm0,1.67l.3,.3-.3,.3-.31-.3,.31-.3Zm-1.66-1.67l.29,.3-.29,.3-.31-.3,.31-.3Zm0,2.28l-.31-.3,.31-.31,.3,.31-.3,.3Zm.5-1.16l.31-.3,.31,.3-.31,.31-.31-.31Z"/>
  <polygon class="cls-1" points="23.76 38.84 23.46 38.54 23.16 38.84 23.46 39.14 23.76 38.84"/>
  <polygon class="cls-1" points="22.61 39.35 22.3 39.65 22.61 39.96 22.92 39.65 22.61 39.35"/>
  <polygon class="cls-1" points="23.76 40.51 23.46 40.2 23.15 40.51 23.46 40.81 23.76 40.51"/>
  <polygon class="cls-1" points="21.49 40.51 21.8 40.82 22.11 40.51 21.8 40.2 21.49 40.51"/>
  <polygon class="cls-1" points="22.1 38.84 21.8 38.54 21.49 38.84 21.8 39.14 22.1 38.84"/>
  <path class="cls-3" d="M31.13,41.95l1.07-.48,.45-1.17v-2.24h-3.03v2.24l.44,1.17,1.07,.48Zm.83-3.41l.3,.3-.3,.3-.3-.3,.3-.3Zm0,1.67l.31,.3-.31,.3-.29-.3,.29-.3Zm-.85-.85l.3,.3-.3,.31-.3-.31,.3-.3Zm-.82-.82l.31,.3-.31,.3-.3-.3,.3-.3Zm0,1.67l.31,.31-.31,.3-.31-.3,.31-.31Z"/>
  <polygon class="cls-1" points="32.27 38.84 31.97 38.54 31.67 38.84 31.97 39.14 32.27 38.84"/>
  <rect class="cls-1" x="30.9" y="39.44" width=".43" height=".43" transform="translate(-18.97 33.98) rotate(-45.41)"/>
  <polygon class="cls-1" points="32.27 40.51 31.96 40.2 31.67 40.51 31.96 40.81 32.27 40.51"/>
  <rect class="cls-1" x="30.09" y="40.29" width=".43" height=".43" transform="translate(-19.77 33.33) rotate(-45.04)"/>
  <polygon class="cls-1" points="30.61 38.84 30.3 38.54 30 38.84 30.3 39.14 30.61 38.84"/>
  <path class="cls-3" d="M26.88,47.08l1.07-.49,.44-1.16v-2.24h-3.03s0,2.23,0,2.23h0s.44,1.17,.44,1.17l1.07,.49Zm.83-3.41l.3,.3-.3,.3-.29-.3,.29-.3Zm0,1.67l.31,.3-.31,.3-.3-.3,.3-.3Zm-.85-.85l.31,.3-.31,.3-.3-.3,.3-.3Zm-.81-.81l.3,.3-.3,.3-.31-.3,.31-.3Zm0,1.67l.31,.3-.31,.3-.31-.3,.31-.3Z"/>
  <polygon class="cls-1" points="28.01 43.97 27.71 43.67 27.42 43.97 27.71 44.27 28.01 43.97"/>
  <rect class="cls-1" x="26.65" y="44.57" width=".43" height=".43" transform="translate(-23.89 32.48) rotate(-45.41)"/>
  <polygon class="cls-1" points="28.01 45.63 27.71 45.33 27.41 45.63 27.71 45.94 28.01 45.63"/>
  <polygon class="cls-1" points="26.36 45.64 26.05 45.33 25.75 45.64 26.05 45.94 26.36 45.64"/>
  <polygon class="cls-1" points="26.35 43.97 26.05 43.67 25.75 43.97 26.05 44.27 26.35 43.97"/>
  <path class="cls-3" d="M26.88,36.82l1.07-.48,.44-1.17v-2.25h-3.03v2.25l.44,1.17,1.07,.48Zm.83-3.41l.3,.3-.3,.3-.29-.3,.29-.3Zm0,1.67l.31,.3-.31,.3-.3-.3,.3-.3Zm-.85-.85l.31,.3-.31,.31-.3-.31,.3-.3Zm-.81-.82l.3,.3-.3,.3-.31-.3,.31-.3Zm0,1.67l.31,.31-.31,.29-.31-.29,.31-.31Z"/>
  <polygon class="cls-1" points="28.01 33.72 27.71 33.41 27.42 33.72 27.71 34.02 28.01 33.72"/>
  <polygon class="cls-1" points="27.17 34.53 26.86 34.23 26.56 34.53 26.86 34.84 27.17 34.53"/>
  <polygon class="cls-1" points="28.01 35.38 27.71 35.08 27.41 35.38 27.71 35.68 28.01 35.38"/>
  <polygon class="cls-1" points="26.36 35.39 26.05 35.08 25.75 35.39 26.05 35.68 26.36 35.39"/>
  <polygon class="cls-1" points="26.35 33.72 26.05 33.41 25.75 33.72 26.05 34.02 26.35 33.72"/>
  <polygon class="cls-4" points="26.82 29.22 26.87 29.25 26.9 29.22 27.74 30.39 28.5 30.39 28.36 29.2 25.39 29.2 25.26 30.39 26.01 30.39 26.82 29.22"/>
  <path class="cls-4" d="M27.62,30.39l-.35-.49c.07,.13,.12,.29,.13,.49h.22Z"/>
  <path class="cls-4" d="M26.37,30.39c0-.24,.07-.41,.15-.55l-.38,.55h.23Z"/>
  <path class="cls-4" d="M26.87,29.47h.02s.09,.07,.19,.16l-.21-.29-.21,.31c.1-.1,.18-.16,.18-.16h.02Z"/>
  <path class="cls-4" d="M26.87,29.59c-.06,.04-.38,.25-.4,.8h.82c-.02-.54-.35-.76-.42-.8Z"/>
  <polygon class="cls-4" points="25.27 28.8 25.3 28.8 28.5 28.8 28.52 28.8 28.59 28.71 28.52 28.62 28.45 28.62 28.4 28.62 27.51 28.62 27.4 28.62 27.35 28.62 26.29 28.62 26.23 28.62 25.35 28.62 25.25 28.62 25.17 28.71 25.24 28.8 25.27 28.8"/>
  <polygon class="cls-4" points="28.6 30.7 28.69 30.59 28.6 30.49 28.56 30.49 27.82 30.49 27.71 30.49 27.41 30.49 27.35 30.49 26.36 30.49 25.95 30.49 25.2 30.49 25.16 30.49 25.07 30.59 25.17 30.7 28.6 30.7"/>
  <polygon class="cls-4" points="28.45 29.09 28.52 28.99 28.45 28.9 25.32 28.9 25.24 28.99 25.32 29.09 28.45 29.09"/>
  <path class="cls-4" d="M26.57,27.26l-.05,1.25h.77s-.06-1.25-.06-1.25h-.66Zm.42,.83h-.18v-.31h.18v.31Z"/>
  <polygon class="cls-4" points="26.52 27.16 27.28 27.16 27.33 27.16 27.41 27.09 27.41 26.75 27.26 26.75 27.26 26.94 27.21 26.94 26.97 26.94 26.97 26.88 26.97 26.75 26.82 26.75 26.82 26.94 26.78 26.94 26.54 26.94 26.54 26.88 26.54 26.75 26.4 26.75 26.4 27.09 26.47 27.16 26.47 27.16 26.52 27.16"/>
  <rect x="26.81" y="27.78" width=".18" height=".31"/>
  <polygon class="cls-4" points="27.59 27.8 28.37 27.8 28.4 27.8 28.48 27.73 28.48 27.39 28.33 27.39 28.33 27.57 28.28 27.57 28.05 27.57 28.05 27.52 28.05 27.39 27.9 27.39 27.9 27.57 27.85 27.57 27.62 27.57 27.62 27.52 27.62 27.39 27.47 27.39 27.47 27.73 27.54 27.8 27.59 27.8"/>
  <path class="cls-4" d="M27.61,28.52h.74l-.03-.62h-.68l-.03,.62Zm.28-.36h.18v.19h-.18v-.19Z"/>
  <path d="M25.11,30.8h3.54l.14-.18,.02-.03-.15-.18v-.02h-.06l-.14-1.2h.04l.13-.17,.03-.03-.09-.1,.14-.14,.03-.03-.17-.17-.02-.02h-.11l-.02-.62,.14-.12h.02v-.49h-.35v.18h-.08v-.18h-.36v.18h-.08v-.18h-.35v.48l.13,.12h.02s-.02,.63-.02,.63h-.12l-.06-1.26h.01l.14-.11,.02-.02v-.48h-.35v.18h-.08v-.18h-.36v.18h-.08v-.18h-.35v.46s0,.02,0,.02l.13,.12h.01s.02,.01,.02,.01l-.05,1.26h-.13l-.02-.62,.14-.12h.02v-.49h-.35v.18h-.08v-.18h-.36v.18h-.08v-.18h-.35v.48l.14,.12h.02s-.02,.63-.02,.63h-.15v.02s-.14,.14-.14,.14l-.03,.03,.16,.17v.02s-.04,.06-.04,.06l-.03,.03,.15,.19h0s.02,.01,.02,.01l-.13,1.2h-.04v.02s-.15,.15-.15,.15l-.03,.03,.17,.19v.02Zm2.37-3.07v-.34h.15v.18h.28v-.18h.15v.18h.28v-.18h.15v.34l-.08,.07h-.86l-.07-.07Zm.87,.79h-.74l.03-.62h.68l.03,.62Zm-1.88-1.36l-.06-.07v-.34s.14,0,.14,0v.18h.28v-.18h.15v.18h.28v-.18h.15v.34l-.08,.07h-.86Zm.83,1.36h-.77s.05-1.26,.05-1.26h.66l.06,1.26Zm-1.98-.79v-.34h.14v.18h.28v-.18h.16v.18h.29v-.18h.14v.34l-.07,.07h-.87l-.06-.07Zm.87,.79h-.73l.02-.62h.69l.02,.62Zm-1.02,.19l.08-.09h3.27l.08,.09-.08,.09h-3.28l-.08-.09Zm.08,.28l.08-.09h3.13l.08,.09-.08,.1h-3.12l-.08-.1Zm.15,.2h2.97l.14,1.2h-.76l-.84-1.18-.04,.03-.05-.03-.81,1.18h-.76l.13-1.2Zm1.49,.4c.07,.04,.4,.26,.42,.8h-.82c.02-.55,.34-.76,.4-.8Zm-.5,.8h-.23l.38-.55c-.08,.14-.15,.31-.15,.55Zm.29-.75l.21-.31,.21,.29c-.1-.09-.18-.15-.19-.15h-.02s-.02,0-.02,0c0,0-.09,.06-.18,.16Zm.61,.26l.35,.49h-.22c0-.2-.06-.36-.13-.49Zm-2.11,.59h3.45l.09,.1-.09,.1h-3.44l-.09-.1,.09-.1Z"/>
  <polygon class="cls-4" points="25.42 27.8 26.21 27.8 26.24 27.8 26.31 27.73 26.31 27.39 26.17 27.39 26.17 27.57 26.12 27.57 25.89 27.57 25.89 27.52 25.89 27.39 25.73 27.39 25.73 27.57 25.68 27.57 25.45 27.57 25.45 27.52 25.45 27.39 25.31 27.39 25.31 27.73 25.37 27.8 25.42 27.8"/>
  <path class="cls-4" d="M25.45,28.52h.73l-.02-.62h-.69l-.02,.62Zm.28-.36h.18v.19h-.18v-.19Z"/>
  <rect x="27.89" y="28.16" width=".18" height=".19"/>
  <rect x="25.73" y="28.16" width=".18" height=".19"/>
  <polygon class="cls-4" points="36.08 29.22 36.13 29.25 36.16 29.22 37 30.39 37.76 30.39 37.62 29.2 34.65 29.2 34.52 30.39 35.27 30.39 36.08 29.22"/>
  <path class="cls-4" d="M35.62,30.39c0-.22,.06-.38,.13-.51l-.36,.51h.22Z"/>
  <path class="cls-4" d="M36.88,30.39l-.32-.45c.06,.12,.1,.27,.11,.45h.22Z"/>
  <path class="cls-4" d="M36.12,29.47h.02s.09,.07,.19,.16l-.21-.29-.2,.29c.09-.09,.17-.14,.17-.14h.02Z"/>
  <path class="cls-4" d="M36.13,29.59c-.05,.04-.38,.25-.4,.8h.83c-.02-.55-.36-.77-.42-.8Z"/>
  <polygon class="cls-4" points="34.52 28.8 34.55 28.8 37.75 28.8 37.77 28.8 37.85 28.71 37.77 28.62 37.71 28.62 37.65 28.62 36.77 28.62 36.65 28.62 36.6 28.62 35.55 28.62 35.49 28.62 34.6 28.62 34.51 28.62 34.43 28.71 34.5 28.8 34.52 28.8"/>
  <polygon class="cls-4" points="37.85 30.7 37.94 30.59 37.85 30.49 37.82 30.49 37.07 30.49 36.97 30.49 36.67 30.49 36.61 30.49 35.61 30.49 35.21 30.49 34.46 30.49 34.41 30.49 34.33 30.59 34.42 30.7 37.85 30.7"/>
  <polygon class="cls-4" points="37.7 29.09 37.78 28.99 37.7 28.9 34.57 28.9 34.5 28.99 34.57 29.09 37.7 29.09"/>
  <path class="cls-4" d="M35.83,27.26l-.06,1.25h.78s-.05-1.25-.05-1.25h-.67Zm.42,.83h-.18v-.31h.18v.31Z"/>
  <polygon class="cls-4" points="35.78 27.16 36.54 27.16 36.59 27.16 36.67 27.09 36.67 26.75 36.51 26.75 36.51 26.94 36.46 26.94 36.22 26.94 36.22 26.88 36.22 26.75 36.09 26.75 36.09 26.94 36.04 26.94 35.81 26.94 35.81 26.88 35.81 26.75 35.66 26.75 35.66 27.09 35.72 27.16 35.73 27.16 35.78 27.16"/>
  <path d="M34.37,30.8h3.53l.16-.18,.02-.03-.16-.18-.02-.02h-.04l-.14-1.2h.03l.12-.17,.03-.03-.08-.1,.14-.15,.03-.03-.16-.17-.02-.02h-.11l-.02-.62,.13-.11h.02v-.49h-.36v.18h-.08v-.18h-.35v.18h-.08v-.18h-.35v.48l.13,.12h.02s-.02,.63-.02,.63h-.12l-.05-1.26h0l.14-.11,.02-.02v-.48h-.36v.18h-.08v-.18h-.35v.18h-.08v-.18h-.35v.48l.12,.12h.02s.02,.01,.02,.01l-.06,1.26h-.12l-.02-.62,.14-.12h.02v-.49h-.36v.18h-.08v-.18h-.35v.18h-.09v-.18h-.35v.48l.14,.12h.02s-.02,.63-.02,.63h-.14v.02s-.14,.14-.14,.14l-.03,.03,.16,.17h0s-.06,.08-.06,.08l-.03,.03,.14,.19h0s.02,.01,.02,.01l-.13,1.2h-.05v.02s-.15,.15-.15,.15l-.03,.03,.17,.19v.02Zm2.37-3.07v-.34h.15v.18h.28v-.18h.14v.18h.28v-.18h.16v.34l-.08,.07h-.87l-.06-.07Zm.87,.79h-.73l.02-.62h.69l.02,.62Zm-1.88-1.36l-.06-.07v-.34h.14v.18h.28v-.18h.14v.18h.29v-.18h.15v.34l-.08,.07h-.86Zm.83,1.36h-.78s.06-1.26,.06-1.26h.67l.05,1.26Zm-1.98-.79v-.34h.14v.18h.29v-.18h.14v.18h.28v-.18h.15v.34l-.07,.07h-.86l-.07-.07Zm.87,.79h-.74l.02-.62h.69l.03,.62Zm-1.02,.19l.08-.09h3.27l.08,.09-.08,.09h-3.27l-.08-.09Zm.07,.28l.07-.09h3.13l.08,.09-.08,.1h-3.13l-.08-.1Zm.15,.2h2.97l.14,1.2h-.76l-.84-1.18-.04,.03-.04-.03-.81,1.18h-.76l.13-1.2Zm1.48,.39c.06,.03,.4,.25,.42,.8h-.83c.02-.56,.35-.77,.4-.8Zm-.51,.8h-.22l.36-.51c-.07,.13-.13,.3-.13,.51Zm.31-.76l.2-.29,.21,.29c-.1-.09-.19-.15-.19-.15h-.02s-.02,0-.02,0c0,0-.08,.05-.17,.14Zm.63,.31l.32,.45h-.22c0-.18-.05-.33-.11-.45Zm-2.14,.55h3.44l.09,.1-.09,.1h-3.44l-.09-.1,.09-.1Z"/>
  <rect x="36.07" y="27.78" width=".18" height=".31"/>
  <polygon class="cls-4" points="36.84 27.8 37.64 27.8 37.66 27.8 37.74 27.73 37.74 27.39 37.58 27.39 37.58 27.57 37.53 27.57 37.3 27.57 37.3 27.52 37.3 27.39 37.17 27.39 37.17 27.57 37.11 27.57 36.88 27.57 36.88 27.52 36.88 27.39 36.73 27.39 36.73 27.73 36.79 27.8 36.84 27.8"/>
  <path class="cls-4" d="M36.87,28.52h.73l-.02-.62h-.69l-.02,.62Zm.28-.36h.18v.19h-.18v-.19Z"/>
  <polygon class="cls-4" points="34.68 27.8 35.47 27.8 35.5 27.8 35.57 27.73 35.57 27.39 35.42 27.39 35.42 27.57 35.37 27.57 35.14 27.57 35.14 27.52 35.14 27.39 34.99 27.39 34.99 27.57 34.95 27.57 34.71 27.57 34.71 27.52 34.71 27.39 34.57 27.39 34.57 27.73 34.63 27.8 34.68 27.8"/>
  <path class="cls-4" d="M34.7,28.52h.74l-.03-.62h-.69l-.02,.62Zm.29-.36h.17v.19h-.17v-.19Z"/>
  <rect x="37.15" y="28.16" width=".18" height=".19"/>
  <rect x="34.99" y="28.16" width=".17" height=".19"/>
  <polygon class="cls-4" points="36.08 38.95 36.13 38.98 36.16 38.95 36.99 40.12 37.76 40.12 37.62 38.92 34.65 38.92 34.52 40.12 35.27 40.12 36.08 38.95"/>
  <path class="cls-4" d="M35.62,40.12c0-.22,.06-.38,.13-.51l-.36,.51h.22Z"/>
  <path class="cls-4" d="M36.88,40.12l-.31-.44c.05,.12,.09,.26,.1,.44h.22Z"/>
  <path class="cls-4" d="M36.12,39.2h.02s.09,.06,.19,.15l-.2-.29-.2,.29c.09-.09,.17-.14,.17-.14h.02Z"/>
  <path class="cls-4" d="M36.13,39.32c-.05,.03-.38,.25-.4,.8h.83c-.02-.56-.37-.77-.43-.8Z"/>
  <polygon class="cls-4" points="34.52 38.53 34.55 38.53 37.75 38.53 37.77 38.53 37.85 38.43 37.77 38.34 37.71 38.34 37.71 38.35 37.65 38.35 36.77 38.35 36.77 38.34 36.65 38.34 36.65 38.35 36.6 38.35 36.11 38.34 35.55 38.34 35.55 38.35 35.49 38.35 34.6 38.35 34.6 38.34 34.5 38.34 34.43 38.43 34.51 38.53 34.52 38.53"/>
  <polygon class="cls-4" points="37.85 40.41 37.94 40.32 37.85 40.22 37.82 40.22 37.07 40.22 36.97 40.22 36.67 40.22 36.61 40.22 35.61 40.22 35.21 40.22 34.46 40.22 34.41 40.22 34.33 40.32 34.42 40.41 37.85 40.41"/>
  <polygon class="cls-4" points="37.7 38.81 37.78 38.72 37.7 38.63 34.57 38.63 34.5 38.72 34.57 38.81 37.7 38.81"/>
  <path class="cls-4" d="M35.77,38.23h.78s-.05-1.24-.05-1.24h-.67l-.06,1.24Zm.3-.73h.18v.32h-.18v-.32Z"/>
  <polygon class="cls-4" points="36.59 36.89 36.67 36.81 36.67 36.47 36.51 36.47 36.51 36.66 36.46 36.66 36.22 36.66 36.22 36.6 36.22 36.47 36.09 36.47 36.09 36.66 36.04 36.66 35.81 36.66 35.81 36.6 35.81 36.48 35.66 36.48 35.66 36.81 35.74 36.89 36.59 36.89"/>
  <path d="M34.37,40.52h3.53l.16-.16,.03-.03-.17-.19h-.02s-.04-.01-.04-.01l-.14-1.21h.03l.12-.16,.03-.03-.08-.1,.13-.16,.03-.03-.16-.17-.02-.02h-.11l-.02-.61,.13-.11,.02-.02v-.48h-.36v.18h-.08v-.18h-.35v.18h-.08v-.18h-.35v.48l.13,.12h.02s-.02,.62-.02,.62h-.12l-.05-1.25h.03l.13-.12v-.02s.01-.43,.01-.43v-.05h-.36v.19h-.08v-.19h-.35v.19h-.08v-.18h-.35v.47l.12,.13h0s.03,0,.03,0l-.05,1.25h-.12l-.02-.61,.14-.11,.02-.02v-.48h-.36v.18h-.08v-.18h-.35v.18h-.09v-.18h-.35v.48l.14,.12h.02s-.02,.62-.02,.62h-.14v.02s-.14,.14-.14,.14l-.03,.03,.16,.19h0s-.05,.08-.05,.08l-.03,.03,.14,.18v.02h.03l-.13,1.21h-.06s-.14,.17-.14,.17l-.03,.03,.17,.18v.02Zm2.37-3.06v-.34h.15v.18h.28v-.18h.14v.18h.28v-.18h.16v.34l-.08,.07h-.87l-.06-.07Zm.87,.78h-.73l.02-.61h.69l.02,.61Zm-1.94-1.43v-.33h.14v.18h.28v-.19h.14v.19h.29v-.19h.15v.34l-.08,.08h-.85l-.08-.08Zm.88,1.43h-.78s.06-1.25,.06-1.25h.67l.05,1.25Zm-1.98-.78v-.34h.14v.18h.29v-.18h.14v.18h.28v-.18h.15v.34l-.07,.07h-.86l-.07-.07Zm.87,.78h-.74l.02-.61h.69l.03,.61Zm-1.02,.19l.08-.09h.1s.89,0,.89,0h.05s.56,0,.56,0h.49s.05,0,.05,0h0s.11,0,.11,0h0s.89,0,.89,0h.05s.07,0,.07,0l.08,.09-.08,.1h-3.26l-.09-.1Zm.07,.29l.07-.09h3.13l.08,.09-.08,.09h-3.13l-.08-.09Zm.15,.2h2.97l.14,1.2h-.76l-.83-1.17-.04,.03-.04-.03-.81,1.17h-.75l.13-1.2Zm2.23,1.2h-.22c0-.18-.04-.32-.1-.44l.31,.44Zm-.75-.8c.06,.03,.4,.25,.43,.8h-.83c.02-.56,.35-.77,.4-.8Zm-.51,.8h-.22l.36-.51c-.07,.13-.13,.3-.13,.51Zm.31-.76l.2-.29,.2,.29c-.1-.09-.18-.14-.19-.14h-.02s-.02,0-.02,0c0,0-.08,.05-.17,.14Zm-1.51,.86h3.44l.09,.1-.09,.09h-3.44l-.09-.09,.08-.1Z"/>
  <rect x="36.07" y="37.5" width=".18" height=".32"/>
  <polygon class="cls-4" points="36.84 37.53 37.64 37.53 37.66 37.53 37.74 37.46 37.74 37.12 37.58 37.12 37.58 37.3 37.53 37.3 37.3 37.3 37.3 37.25 37.3 37.12 37.17 37.12 37.17 37.3 37.11 37.3 36.88 37.3 36.88 37.25 36.88 37.12 36.73 37.12 36.73 37.46 36.79 37.53 36.84 37.53"/>
  <path class="cls-4" d="M36.87,38.24h.73l-.02-.61h-.69l-.02,.61Zm.28-.36h.18v.19h-.18v-.19Z"/>
  <polygon class="cls-4" points="34.68 37.53 35.47 37.53 35.5 37.53 35.57 37.46 35.57 37.12 35.42 37.12 35.42 37.3 35.37 37.3 35.14 37.3 35.14 37.25 35.14 37.12 34.99 37.12 34.99 37.3 34.95 37.3 34.71 37.3 34.71 37.25 34.71 37.12 34.57 37.12 34.57 37.46 34.63 37.53 34.68 37.53"/>
  <path class="cls-4" d="M34.7,38.24h.74l-.03-.61h-.69l-.02,.61Zm.29-.36h.17v.19h-.17v-.19Z"/>
  <rect x="37.15" y="37.89" width=".18" height=".19"/>
  <rect x="34.99" y="37.89" width=".17" height=".19"/>
  <polygon class="cls-4" points="31.7 47.84 31.88 48.02 32.25 48.36 33.64 48.07 33.65 48.12 33.7 48.13 33.5 49.55 34.06 50.07 34.77 49.11 32.62 47.07 31.7 47.84"/>
  <polygon class="cls-4" points="33.59 48.19 32.34 48.45 32.5 48.61 33.44 48.28 33.54 48.25 33.51 48.34 33.24 49.3 33.41 49.46 33.59 48.19"/>
  <polygon class="cls-4" points="33.16 49.22 33.38 48.41 32.59 48.69 33.16 49.22"/>
  <polygon class="cls-4" points="33.67 47.26 33.63 47.23 32.98 46.61 32.98 46.61 32.92 46.55 32.79 46.56 32.78 46.68 34.26 48.08 35.14 48.91 35.14 48.91 35.16 48.93 35.28 48.92 35.28 48.8 35.2 48.72 35.19 48.71 35.12 48.64 34.45 48.01 34.42 47.98 33.86 47.44 33.67 47.26 33.67 47.26"/>
  <polygon class="cls-4" points="31.42 47.86 31.41 47.99 33.91 50.37 34.05 50.35 34.05 50.21 31.56 47.85 31.42 47.86"/>
  <polygon class="cls-4" points="32.64 46.82 32.64 46.94 34.91 49.09 35.02 49.07 35.03 48.95 32.76 46.81 32.64 46.82"/>
  <path class="cls-4" d="M35.28,46.93l-.48-.45-.9,.86,.55,.53,.83-.94Zm-.66,.08l.12,.12-.21,.23-.12-.13,.21-.22Z"/>
  <polygon class="cls-4" points="35.4 46.92 35.53 46.92 35.77 46.68 35.66 46.57 35.53 46.7 35.49 46.67 35.33 46.51 35.36 46.48 35.45 46.38 35.34 46.27 35.22 46.41 35.19 46.37 35.01 46.21 35.05 46.17 35.14 46.08 35.04 45.99 34.81 46.23 34.81 46.35 35.4 46.92"/>
  <polygon points="34.74 47.14 34.62 47.01 34.41 47.24 34.53 47.37 34.74 47.14"/>
  <polygon class="cls-4" points="35.71 48.08 35.74 48.11 35.74 48.11 35.76 48.13 35.85 48.14 36.11 47.88 36 47.78 35.87 47.92 35.83 47.88 35.67 47.71 35.7 47.68 35.79 47.58 35.67 47.47 35.55 47.61 35.52 47.58 35.36 47.42 35.39 47.39 35.48 47.29 35.37 47.19 35.14 47.44 35.15 47.55 35.71 48.08"/>
  <path d="M33.76,45.59l-.28,.29v.02s0,.18,0,.18h0s0,.02,0,.02l-.44,.43-.09-.08h-.01s-.02-.01-.02-.01l-.19,.02h-.04s-.02,.24-.02,.24h0s-.09,.02-.09,.02h-.04s0,.24,0,.24v.02h0s-.92,.8-.92,.8h-.01s-.01-.03-.01-.03h-.02l-.21,.02h-.04s0,.25,0,.25v.02l2.55,2.42h0s.23,0,.23,0h.04v-.26h0s-.03-.04-.03-.04l.73-.97h.02s.21,0,.21,0h.04s.01-.14,.01-.14l.21-.02h.04s0-.23,0-.23v-.02l-.09-.08,.41-.46h0s.01,.01,.01,.01h.17s.32-.32,.32-.32l.03-.03-.21-.21-.03-.03-.13,.13-.06-.06,.09-.1,.03-.04-.22-.2-.04-.03-.12,.13-.05-.05,.09-.1,.03-.04-.22-.2-.03-.03-.04,.03-.28,.3v.02s0,.18,0,.18v.02h0s-.43,.43-.43,.43l-.09-.09,.83-.93h0s.02,.02,.02,.02h.19l.3-.31,.03-.03-.21-.22-.04-.03-.12,.13-.06-.05,.09-.1,.03-.03-.21-.22-.04-.04-.12,.14-.07-.05,.09-.09,.03-.04-.2-.21-.04-.03-.04,.03-.28,.29v.02s0,.18,0,.18v.02l.02,.02-.9,.86-.09-.09,.4-.45h0s.18,0,.18,0h.02l.3-.32,.03-.03-.22-.21-.03-.03-.12,.14-.06-.05,.09-.1,.03-.03-.22-.21-.03-.03-.13,.13-.05-.05,.09-.09,.03-.04-.2-.19-.04-.03-.04,.03Zm.29,4.76h-.14s-2.5-2.36-2.5-2.36v-.13s.15,0,.15,0l2.49,2.36v.14Zm-.54-2.01l.02-.09-.09,.03-.94,.33-.16-.15,1.25-.26-.18,1.27-.17-.16,.27-.96Zm-.36,.88l-.57-.53,.79-.28-.23,.81Zm.9,.85l-.55-.52,.2-1.42h-.05s-.01-.06-.01-.06l-1.39,.29-.36-.34-.19-.18,.92-.78,2.16,2.04-.72,.96Zm.96-1l-.11,.02-2.27-2.16v-.12s.12-.01,.12-.01l2.27,2.14v.12Zm.34-1.88l.11,.1-.09,.1-.03,.03,.16,.16,.03,.03,.12-.14,.12,.1-.09,.1-.03,.03,.16,.17,.04,.03,.13-.14,.11,.1-.25,.26h-.1s-.02-.03-.02-.03h0s-.03-.03-.03-.03l-.56-.54v-.11s.22-.24,.22-.24Zm-.25,.48l.51,.49-.4,.45-.53-.51,.43-.43Zm-.09-1.68l.1,.09-.09,.09-.03,.04,.17,.16,.04,.03,.12-.13,.11,.11-.09,.09-.03,.03,.17,.16,.04,.03,.12-.13,.11,.11-.24,.24h-.13l-.59-.57v-.12s.23-.24,.23-.24Zm-.23,.49l.48,.45-.83,.94-.55-.53,.9-.86Zm-.94,.96l.56,.54,.04,.02,.66,.63,.08,.08h0s.09,.09,.09,.09v.12s-.13,.01-.13,.01l-.02-.02h0s-.88-.83-.88-.83l-1.48-1.4v-.12s.14-.01,.14-.01l.07,.06h0s.65,.62,.65,.62l.03,.03h0s.19,.18,.19,.18Zm-.2-.33l-.54-.5,.44-.43,.51,.48-.41,.45Zm.48-.45h0s0,0,0,0h0s0,0,0,0Zm-.24-.86l-.08,.1-.03,.04,.16,.14,.03,.03,.12-.12,.11,.1-.09,.1-.03,.03,.16,.16,.03,.03,.12-.14,.11,.1-.24,.25h-.11l-.02-.02h0s-.17-.16-.17-.16l-.42-.41v-.11s.22-.24,.22-.24l.1,.09Z"/>
  <path class="cls-4" d="M35.63,48.15l-.51-.49-.43,.43,.53,.51,.4-.45Zm-.62,.02l.13-.14,.13,.13-.13,.13-.13-.12Z"/>
  <polygon class="cls-4" points="33.58 46.05 34 46.46 34.17 46.61 34.17 46.62 34.18 46.63 34.29 46.63 34.53 46.39 34.42 46.28 34.29 46.42 34.26 46.39 34.1 46.23 34.13 46.2 34.22 46.09 34.11 45.99 33.98 46.12 33.95 46.08 33.79 45.94 33.82 45.9 33.9 45.8 33.8 45.71 33.57 45.95 33.58 46.05"/>
  <path class="cls-4" d="M33.12,46.61l.54,.5,.41-.45-.51-.48-.44,.43Zm.57,.06l-.12,.14-.13-.11,.13-.14,.12,.12Z"/>
  <rect class="cls-4" x="34.13" y="46.66" width="0" height="0" transform="translate(-23.28 39.87) rotate(-47.07)"/>
  <polygon points="35.14 48.03 35.01 48.18 35.14 48.3 35.27 48.16 35.14 48.03"/>
  <polygon points="33.57 46.8 33.69 46.67 33.57 46.55 33.44 46.69 33.57 46.8"/>
  <polygon class="cls-4" points="19.84 50.07 20.39 49.55 20.19 48.13 20.24 48.12 20.26 48.07 21.65 48.36 22.2 47.84 21.27 47.07 19.13 49.11 19.84 50.07"/>
  <polygon class="cls-4" points="21.54 48.45 20.31 48.19 20.49 49.46 20.66 49.3 20.38 48.34 20.36 48.25 20.45 48.28 21.38 48.61 21.54 48.45"/>
  <polygon class="cls-4" points="21.3 48.69 20.51 48.41 20.74 49.22 21.3 48.69"/>
  <polygon class="cls-4" points="18.62 48.92 18.73 48.93 18.76 48.9 18.77 48.89 20.65 47.11 21.11 46.68 21.1 46.56 20.98 46.55 20.9 46.62 20.87 46.65 20.77 46.75 20.1 47.38 20.1 47.38 20.09 47.39 18.61 48.8 18.62 48.92"/>
  <polygon class="cls-4" points="19.85 50.35 19.98 50.37 22.48 47.99 22.47 47.86 22.34 47.85 19.84 50.21 19.85 50.35"/>
  <path d="M18.75,49.04h.02v.09s0,.04,0,.04l.24,.03h.02l.02-.02,.73,.97-.02,.02-.02,.02v.22s0,.04,0,.04l.24,.03h.02l2.55-2.42,.02-.02v-.22s-.02-.04-.02-.04l-.24-.02h-.04s-.01,.03-.01,.03l-.93-.78h.01s0-.22,0-.22v-.04s-.13-.02-.13-.02v-.2s0-.05,0-.05l-.23-.02h-.03s-.1,.1-.1,.1l-.43-.43h0s0-.18,0-.18v-.02l-.29-.31-.03-.03-.03,.03-.18,.17-.04,.03,.12,.14-.06,.05-.08-.09-.04-.04-.22,.2-.04,.03,.12,.14-.06,.06-.09-.1-.04-.04-.22,.2-.03,.04,.31,.33v.02h.22s.41,.45,.41,.45l-.09,.09-.91-.87,.02-.02v-.18s0-.02,0-.02l-.28-.31-.04-.04-.04,.04-.17,.17-.03,.04,.11,.13-.06,.05-.08-.09-.04-.04-.22,.21-.03,.04,.13,.13-.06,.05-.1-.09-.04-.04-.21,.21-.03,.04,.31,.33,.02,.02h.19l.02-.02,.83,.94-.09,.09-.43-.43v-.18s.01-.02,.01-.02l-.29-.32-.04-.03-.04,.03-.17,.17-.03,.04,.12,.13-.06,.05-.09-.09-.04-.04-.22,.2-.03,.04,.12,.13-.06,.06-.09-.1-.04-.03-.21,.2-.03,.04,.31,.33v.02s.19,0,.19,0h.01l.02-.02,.41,.46-.06,.06-.02,.02v.2s0,.05,0,.05l.23,.03Zm3.59-1.19h.13s0,.14,0,.14l-2.5,2.37h-.13s0-.15,0-.15l2.5-2.36Zm-1.89,.43l-.09-.03,.02,.09,.28,.96-.17,.16-.18-1.27,1.23,.26-.16,.16-.93-.33Zm.85,.41l-.56,.53-.23-.81,.79,.28Zm.9-.85l-.55,.52-1.39-.29v.05s-.06,0-.06,0l.2,1.42-.56,.53-.71-.96,2.15-2.04,.93,.78Zm-.95-1.02v.12s-2.25,2.16-2.25,2.16l-.12-.02v-.12s2.26-2.14,2.26-2.14h.12Zm-1.52-.19h0s-.02,.02-.02,.02h-.11l-.23-.25,.11-.1,.09,.1,.03,.04,.16-.15,.04-.04-.13-.14,.11-.1,.08,.09,.03,.04,.18-.14,.04-.03-.12-.14,.1-.1,.23,.24v.11s-.45,.42-.45,.42l-.15,.14Zm.11,.05l.5-.48,.43,.43-.54,.51-.39-.45Zm-1.36,.26h-.11l-.23-.24,.1-.11,.09,.1,.04,.04,.16-.15,.04-.04-.12-.13,.11-.11,.09,.09,.04,.04,.17-.16,.03-.04-.12-.13,.11-.09,.22,.24v.11s-.61,.58-.61,.58Zm.14,.01l.36-.34,.12-.11,.9,.86-.56,.53-.82-.94Zm1.48,.46h0s0,0,0,0l.66-.63,.11-.1,.02-.02,.08-.08h.12s0,.14,0,.14l-.46,.43-1.88,1.78v.02s-.04,.03-.04,.03h-.11s0-.13,0-.13l1.48-1.41Zm-1.91,.76h0s0,0,0,0h0s0,0,0,0Zm-.03-.04h0s-.02,.02-.02,.02h-.1s-.24-.25-.24-.25l.1-.1,.09,.09,.04,.04,.17-.17,.03-.04-.12-.13,.11-.1,.09,.1,.04,.04,.16-.16,.04-.04-.12-.13,.09-.09,.23,.24v.11s-.56,.53-.56,.53l-.04,.04Zm.11,.04l.51-.49,.43,.43-.54,.51-.4-.45Z"/>
  <polygon class="cls-4" points="18.87 49.07 18.99 49.09 21.25 46.94 21.24 46.82 21.13 46.81 18.86 48.95 18.87 49.07"/>
  <path class="cls-4" d="M19.99,47.34l-.9-.86-.12,.11-.36,.34,.82,.94,.56-.53Zm-.84-.2l.12-.12,.22,.22-.13,.13-.21-.23Z"/>
  <polygon class="cls-4" points="19.08 46.23 18.86 45.99 18.76 46.08 18.87 46.21 18.84 46.25 18.67 46.41 18.64 46.37 18.55 46.27 18.44 46.38 18.56 46.51 18.53 46.55 18.37 46.7 18.33 46.66 18.24 46.57 18.13 46.68 18.36 46.92 18.48 46.92 19.08 46.34 19.08 46.23"/>
  <polygon points="19.27 47.01 19.15 47.14 19.36 47.37 19.49 47.24 19.27 47.01"/>
  <polygon class="cls-4" points="18.75 47.44 18.52 47.19 18.42 47.29 18.54 47.42 18.5 47.46 18.34 47.61 18.3 47.57 18.21 47.47 18.1 47.58 18.22 47.71 18.19 47.75 18.03 47.92 17.99 47.87 17.9 47.78 17.79 47.88 18.03 48.13 18.13 48.13 18.15 48.11 18.15 48.11 18.19 48.07 18.74 47.55 18.75 47.44"/>
  <path class="cls-4" d="M19.2,48.1l-.43-.43-.51,.49,.4,.45,.54-.51Zm-.45-.06l.13,.14-.13,.12-.13-.13,.13-.13Z"/>
  <rect class="cls-4" x="18.19" y="48.15" width="0" height="0" transform="translate(-27.6 24.65) rotate(-42.14)"/>
  <polygon class="cls-4" points="20.32 46.05 20.32 45.95 20.09 45.7 19.99 45.8 20.11 45.94 20.08 45.97 19.9 46.12 19.87 46.08 19.79 45.99 19.67 46.09 19.8 46.23 19.76 46.27 19.6 46.42 19.56 46.38 19.47 46.28 19.36 46.39 19.59 46.63 19.7 46.63 19.72 46.62 19.72 46.61 19.88 46.47 20.32 46.05"/>
  <path class="cls-4" d="M20.77,46.61l-.43-.43-.5,.48,.39,.45,.54-.51Zm-.45-.06l.13,.14-.13,.11-.13-.14,.12-.12Z"/>
  <polygon points="18.88 48.18 18.75 48.03 18.62 48.16 18.75 48.3 18.88 48.18"/>
  <polygon points="20.46 46.69 20.32 46.55 20.2 46.67 20.33 46.8 20.46 46.69"/>
  <polygon class="cls-4" points="17.57 29.22 17.61 29.25 17.65 29.22 18.49 30.39 19.25 30.39 19.1 29.2 16.13 29.2 16 30.39 16.76 30.39 17.57 29.22"/>
  <path class="cls-4" d="M17.62,29.47h.03s.07,.06,.16,.14l-.19-.27-.2,.3c.1-.1,.19-.15,.19-.15h.02Z"/>
  <path class="cls-4" d="M17.11,30.39c0-.21,.06-.37,.13-.5l-.35,.5h.22Z"/>
  <path class="cls-4" d="M18.36,30.39l-.31-.44c.05,.12,.09,.26,.09,.44h.22Z"/>
  <path class="cls-4" d="M17.62,29.59c-.06,.04-.39,.25-.41,.8h.83c-.02-.55-.35-.77-.42-.8Z"/>
  <polygon class="cls-4" points="16.02 28.8 16.04 28.8 19.24 28.8 19.26 28.8 19.34 28.71 19.26 28.62 19.2 28.62 19.15 28.62 18.25 28.62 18.14 28.62 18.09 28.62 17.04 28.62 16.98 28.62 16.09 28.62 16 28.62 15.92 28.71 15.99 28.8 16.02 28.8"/>
  <polygon class="cls-4" points="19.35 30.7 19.44 30.59 19.35 30.49 19.3 30.49 18.56 30.49 18.46 30.49 18.15 30.49 18.1 30.49 17.1 30.49 16.7 30.49 15.94 30.49 15.9 30.49 15.81 30.59 15.9 30.7 19.35 30.7"/>
  <path d="M15.86,30.8h3.54l.15-.18,.03-.03-.17-.18v-.02h-.06l-.14-1.2h.03l.13-.17,.02-.03-.08-.1,.13-.15,.03-.03-.16-.17-.02-.02h-.1l-.03-.62h.02l.12-.12h.02v-.49h-.35v.18h-.08v-.18h-.36v.18h-.08v-.18h-.35v.48l.13,.12h.02s-.02,.63-.02,.63h-.12l-.05-1.26h0s.02,0,.02,0l.12-.11,.02-.02v-.48h-.36v.18h-.07v-.18h-.35v.18h-.08v-.18h-.35v.48l.14,.12h.03s-.06,1.27-.06,1.27h-.12l-.03-.62h.02l.12-.12h.02v-.49h-.36v.18h-.07v-.18h-.36v.18h-.08v-.18h-.35v.48l.12,.12h.02s.01,.01,.01,.01l-.02,.62h-.14v.02s-.14,.14-.14,.14l-.03,.03,.16,.17h0s-.06,.08-.06,.08l-.03,.03,.15,.19h.01s.02,.01,.02,.01l-.13,1.2h-.04v.02s-.15,.15-.15,.15l-.03,.03,.17,.19v.02Zm2.37-3.07v-.34h.15v.18h.28v-.18h.15v.18h.28v-.18h.15v.34l-.08,.07h-.86l-.07-.07Zm.88,.79h-.74l.02-.62h.69l.03,.62Zm-1.95-1.43v-.34h.14v.18h.28v-.18h.14v.18h.28v-.18h.15v.34l-.08,.07h-.86l-.07-.07Zm.88,1.43h-.78s.07-1.26,.07-1.26h.66l.05,1.26Zm-1.97-.79v-.34h.14v.18h.28v-.18h.15v.18h.28v-.18h.15v.34l-.08,.07h-.85l-.08-.07Zm.87,.79h-.74l.02-.62h.69l.03,.62Zm-1.02,.19l.08-.09h3.26l.08,.09-.08,.09h-3.27l-.08-.09Zm.07,.28l.08-.09h3.12l.09,.09-.09,.1h-3.12l-.09-.1Zm.15,.2h2.97l.15,1.2h-.76l-.84-1.18-.04,.03-.04-.03-.8,1.18h-.76l.13-1.2Zm2.23,1.2h-.22c0-.17-.04-.32-.09-.44l.31,.44Zm-.74-.8c.06,.04,.4,.25,.42,.8h-.83c.02-.55,.35-.76,.41-.8Zm-.52,.8h-.22l.35-.5c-.07,.13-.12,.29-.13,.5Zm.3-.75l.2-.3,.19,.27c-.08-.07-.16-.12-.16-.12h-.03s-.02,0-.02,0c0,0-.09,.06-.19,.15Zm-1.5,.85h3.45l.09,.1-.09,.1h-3.45l-.09-.1,.09-.1Z"/>
  <polygon class="cls-4" points="19.19 29.09 19.27 28.99 19.19 28.9 16.06 28.9 15.98 28.99 16.07 29.09 19.19 29.09"/>
  <path class="cls-4" d="M17.25,28.52h.78s-.05-1.25-.05-1.25h-.66l-.07,1.25Zm.31-.74h.17v.31h-.17v-.31Z"/>
  <polygon class="cls-4" points="17.27 27.16 18.03 27.16 18.08 27.16 18.15 27.09 18.15 26.75 18 26.75 18 26.94 17.95 26.94 17.72 26.94 17.72 26.88 17.72 26.75 17.58 26.75 17.58 26.94 17.53 26.94 17.29 26.94 17.29 26.88 17.29 26.75 17.15 26.75 17.15 27.09 17.22 27.16 17.27 27.16"/>
  <rect x="17.56" y="27.78" width=".17" height=".31"/>
  <polygon class="cls-4" points="18.33 27.8 19.12 27.8 19.15 27.8 19.22 27.73 19.22 27.39 19.08 27.39 19.08 27.57 19.03 27.57 18.8 27.57 18.8 27.52 18.8 27.39 18.65 27.39 18.65 27.57 18.6 27.57 18.37 27.57 18.37 27.52 18.37 27.39 18.22 27.39 18.22 27.73 18.29 27.8 18.33 27.8"/>
  <path class="cls-4" d="M18.36,28.52h.74l-.03-.62h-.69l-.02,.62Zm.28-.36h.18v.19h-.18v-.19Z"/>
  <polygon class="cls-4" points="16.17 27.8 16.95 27.8 16.98 27.8 17.06 27.73 17.06 27.39 16.91 27.39 16.91 27.57 16.86 27.57 16.63 27.57 16.63 27.52 16.63 27.39 16.48 27.39 16.48 27.57 16.43 27.57 16.2 27.57 16.2 27.52 16.2 27.39 16.06 27.39 16.06 27.73 16.14 27.8 16.17 27.8"/>
  <path class="cls-4" d="M16.19,28.52h.74l-.03-.62h-.69l-.02,.62Zm.28-.36h.18v.19h-.18v-.19Z"/>
  <rect x="18.64" y="28.16" width=".18" height=".19"/>
  <rect x="16.48" y="28.16" width=".18" height=".19"/>
  <polygon class="cls-4" points="17.57 38.95 17.61 38.98 17.65 38.95 18.48 40.12 19.25 40.12 19.1 38.92 16.13 38.92 16 40.12 16.76 40.12 17.57 38.95"/>
  <path class="cls-4" d="M17.62,39.2h.02s.08,.06,.17,.14l-.2-.27-.2,.3c.1-.1,.19-.15,.19-.15h.02Z"/>
  <path class="cls-4" d="M17.11,40.12c0-.21,.06-.37,.13-.5l-.35,.5h.22Z"/>
  <path class="cls-4" d="M18.36,40.12l-.31-.43c.05,.12,.09,.26,.09,.43h.22Z"/>
  <path class="cls-4" d="M17.62,39.32c-.06,.04-.39,.25-.41,.8h.83c-.02-.55-.35-.77-.42-.8Z"/>
  <polygon class="cls-4" points="16.02 38.53 16.04 38.53 19.24 38.53 19.26 38.53 19.34 38.43 19.26 38.34 19.2 38.34 19.2 38.35 19.15 38.35 18.25 38.35 18.25 38.34 18.14 38.34 18.14 38.35 18.09 38.35 17.59 38.34 17.04 38.34 17.04 38.35 16.98 38.35 16.09 38.35 16.09 38.34 15.99 38.34 15.92 38.43 16 38.53 16.02 38.53"/>
  <polygon class="cls-4" points="19.35 40.22 19.3 40.22 18.55 40.22 18.46 40.22 18.15 40.22 18.1 40.22 17.1 40.22 16.7 40.22 15.94 40.22 15.91 40.22 15.82 40.32 15.9 40.41 19.35 40.41 19.44 40.32 19.35 40.22"/>
  <polygon class="cls-4" points="19.19 38.81 19.27 38.72 19.19 38.63 16.07 38.63 15.99 38.72 16.07 38.81 19.19 38.81"/>
  <path class="cls-4" d="M17.25,38.23h.78s-.05-1.24-.05-1.24h-.66l-.07,1.24Zm.31-.73h.17v.32h-.17v-.32Z"/>
  <polygon class="cls-4" points="18.08 36.89 18.15 36.81 18.15 36.47 18 36.47 18 36.66 17.95 36.66 17.72 36.66 17.72 36.6 17.72 36.47 17.58 36.47 17.58 36.66 17.53 36.66 17.29 36.66 17.29 36.6 17.29 36.48 17.15 36.48 17.15 36.8 17.24 36.89 18.08 36.89"/>
  <path d="M19.4,40.52l.15-.16,.03-.03-.17-.19h-.01s-.05-.01-.05-.01l-.14-1.21h.03l.13-.16,.02-.03-.08-.1,.13-.16,.03-.03-.16-.17-.02-.02h-.1l-.03-.61h.02l.12-.11,.02-.02v-.48h-.35v.18h-.08v-.18h-.36v.18h-.08v-.18h-.35v.48l.13,.12h.02s-.02,.62-.02,.62h-.12l-.05-1.25h.03l.12-.12v-.02s.01-.43,.01-.43v-.05h-.36v.19h-.07v-.19h-.35v.19h-.08v-.18h-.35v.47l.14,.13h.01s.01,0,.01,0l-.06,1.25h-.12l-.03-.61h.02l.12-.11,.02-.02v-.48h-.36v.18h-.07v-.18h-.36v.18h-.08v-.18h-.35v.48l.12,.12h.02s.01,.01,.01,.01l-.02,.61h-.14v.02s-.14,.14-.14,.14l-.03,.03,.16,.19h0s-.06,.08-.06,.08l-.03,.03,.15,.18v.02h.03l-.13,1.21h-.06s-.14,.17-.14,.17l-.03,.03,.17,.18v.02h3.55Zm-1.18-3.06v-.34h.15v.18h.28v-.18h.15v.18h.28v-.18h.15v.34l-.08,.07h-.86l-.07-.07Zm.88,.78h-.74l.02-.61h.69l.03,.61Zm-1.95-1.44v-.33h.14v.18h.28v-.19h.14v.19h.28v-.19h.15v.34l-.08,.08h-.84l-.09-.09Zm.88,1.44h-.78s.07-1.25,.07-1.25h.66l.05,1.25Zm-1.97-.78v-.34h.14v.18h.28v-.18h.15v.18h.28v-.18h.15v.34l-.08,.07h-.85l-.08-.07Zm.87,.78h-.74l.02-.61h.69l.03,.61Zm-1.02,.19l.08-.09h.09s.9,0,.9,0h.05s.56,0,.56,0h.49s.05,0,.05,0h0s.11,0,.11,0h0s.9,0,.9,0h.05s.06,0,.06,0l.08,.09-.08,.1h-3.26l-.08-.1Zm.08,.29l.07-.09h3.12l.08,.09-.08,.09h-3.12l-.08-.09Zm.14,.2h2.97l.15,1.2h-.77l-.83-1.17-.04,.03-.04-.03-.81,1.17h-.76l.13-1.2Zm2.23,1.2h-.22c0-.17-.04-.32-.09-.43l.31,.43Zm-.74-.8c.06,.03,.4,.25,.42,.8h-.83c.02-.55,.35-.76,.41-.8Zm-.52,.8h-.22l.35-.5c-.07,.13-.12,.29-.13,.5Zm.3-.75l.2-.3,.2,.27c-.09-.08-.17-.13-.17-.13h-.02s-.02,0-.02,0c0,0-.09,.06-.19,.15Zm-1.51,1.05l-.08-.09,.08-.1h3.44l.09,.1-.09,.09h-3.45Z"/>
  <rect x="17.56" y="37.5" width=".17" height=".32"/>
  <polygon class="cls-4" points="18.33 37.53 19.12 37.53 19.15 37.53 19.22 37.46 19.22 37.12 19.08 37.12 19.08 37.3 19.03 37.3 18.8 37.3 18.8 37.25 18.8 37.12 18.65 37.12 18.65 37.3 18.6 37.3 18.37 37.3 18.37 37.25 18.37 37.12 18.22 37.12 18.22 37.46 18.29 37.53 18.33 37.53"/>
  <path class="cls-4" d="M18.36,38.24h.74l-.03-.61h-.69l-.02,.61Zm.28-.36h.18v.19h-.18v-.19Z"/>
  <polygon class="cls-4" points="16.17 37.53 16.95 37.53 16.98 37.53 17.06 37.46 17.06 37.12 16.91 37.12 16.91 37.3 16.86 37.3 16.63 37.3 16.63 37.25 16.63 37.12 16.48 37.12 16.48 37.3 16.43 37.3 16.2 37.3 16.2 37.25 16.2 37.12 16.06 37.12 16.06 37.46 16.14 37.53 16.17 37.53"/>
  <path class="cls-4" d="M16.19,38.24h.74l-.03-.61h-.69l-.02,.61Zm.28-.36h.18v.19h-.18v-.19Z"/>
  <rect x="18.64" y="37.89" width=".18" height=".19"/>
  <rect x="16.48" y="37.89" width=".18" height=".19"/>
</svg>