<?xml version="1.0" encoding="UTF-8"?>
<svg id="Layer_1" data-name="Layer 1" xmlns="http://www.w3.org/2000/svg" viewBox="0 0 80 80">
  <defs>
    <style>
      .cls-1 {
        fill: #fff;
      }

      .cls-2 {
        fill: #ec1c24;
      }

      .cls-3 {
        fill: #3c5eaa;
      }
    </style>
  </defs>
  <path class="cls-1" d="M15.27,66.24h63.73c.64-1.96,1-4.06,1-6.24v-11.26H38.12l-22.85,17.49Z"/>
  <path class="cls-2" d="M5.48,73.73c3.65,3.85,8.79,6.27,14.52,6.27H60c8.87,0,16.37-5.77,19-13.76H15.27l-9.79,7.49Z"/>
  <polygon class="cls-2" points="49.54 40 38.12 48.74 80 48.74 80 31.25 38.12 31.25 49.54 40"/>
  <path class="cls-2" d="M78.99,13.76c-2.62-7.99-10.13-13.76-18.99-13.76H20C14.28,0,9.13,2.42,5.48,6.27l9.78,7.49h63.73Z"/>
  <path class="cls-1" d="M38.12,31.25h41.88v-11.25c0-2.18-.36-4.28-1.01-6.24H15.26l22.85,17.49Z"/>
  <path class="cls-3" d="M15.27,66.24l22.85-17.49,11.42-8.74-11.43-8.75L15.26,13.76,5.48,6.27C2.09,9.86,0,14.68,0,20V60c0,5.32,2.09,10.14,5.48,13.73l9.79-7.49ZM1.79,37.85h7.31l2.27-6.96,2.26,6.96h7.31l-5.92,4.3,2.26,6.96-5.91-4.3-5.92,4.3,2.26-6.96-5.91-4.3Z"/>
  <polygon class="cls-1" points="5.45 49.11 11.37 44.81 17.28 49.11 15.02 42.15 20.94 37.85 13.62 37.85 11.37 30.89 9.1 37.85 1.79 37.85 7.7 42.15 5.45 49.11"/>
</svg>