<?xml version="1.0" encoding="UTF-8"?>
<svg id="Layer_1" data-name="Layer 1" xmlns="http://www.w3.org/2000/svg" viewBox="0 0 80 80">
  <defs>
    <style>
      .cls-1 {
        fill: #fff;
      }

      .cls-2 {
        fill: #70193d;
      }
    </style>
  </defs>
  <path class="cls-1" d="M20.05,78.88l-7.59-4.86,7.59-4.86-7.59-4.86,7.59-4.85-7.59-4.86,7.59-4.86-7.59-4.85,7.59-4.86-7.59-4.86,7.59-4.86-7.59-4.86,7.59-4.86-7.59-4.86,7.59-4.86-7.59-4.86L20.05,1.14,18.4,.08C8.11,.9,0,9.49,0,20V60c0,10.51,8.12,19.11,18.42,19.92l1.63-1.04Z"/>
  <path class="cls-2" d="M12.46,5.99l7.59,4.86-7.59,4.86,7.59,4.86-7.59,4.86,7.59,4.86-7.59,4.86,7.59,4.86-7.59,4.86,7.59,4.85-7.59,4.86,7.59,4.86-7.59,4.85,7.59,4.86-7.59,4.86,7.59,4.86-1.63,1.04c.52,.04,1.05,.08,1.58,.08H60c11.05,0,20-8.95,20-20V20c0-11.05-8.95-20-20-20H20c-.54,0-1.07,.04-1.6,.08l1.65,1.06-7.59,4.85Z"/>
</svg>