<?xml version="1.0" encoding="UTF-8"?>
<svg id="Layer_1" data-name="Layer 1" xmlns="http://www.w3.org/2000/svg" viewBox="0 0 80 80">
  <defs>
    <style>
      .cls-1 {
        fill: #047c5a;
      }

      .cls-2 {
        fill: #e8af21;
      }

      .cls-3 {
        fill: #f8d512;
      }

      .cls-4 {
        fill: #1284c6;
      }
    </style>
  </defs>
  <path class="cls-4" d="M63.02,16.12c-3.56,0-6.45,2.89-6.45,6.45s2.89,6.46,6.45,6.46,6.46-2.88,6.46-6.46-2.89-6.45-6.46-6.45Zm0,12.22c-3.09,0-5.59-2.58-5.59-5.77s2.5-5.76,5.59-5.76,5.6,2.58,5.6,5.76-2.51,5.77-5.6,5.77Z"/>
  <path class="cls-4" d="M80,20c0-11.05-8.95-20-20-20H20C8.95,0,0,8.95,0,20v20H80V20Zm-3.27,10.36l-6.61-2.43,4.14,5.7-5.76-4.05,2.52,6.58-4.52-5.4,.73,7-2.97-6.39-1.11,6.96-1.21-6.94-2.87,6.43,.62-7.01-4.44,5.47,2.42-6.61-5.7,4.13,4.05-5.76-6.57,2.52,5.39-4.52-7,.73,6.39-2.97-6.96-1.1,6.94-1.22-6.43-2.86,7.01,.62-5.47-4.43,6.61,2.41-4.13-5.69,5.76,4.05-2.52-6.58,4.52,5.4-.74-7,2.97,6.38,1.1-6.95,1.22,6.94,2.87-6.43-.62,7.01,4.43-5.47-2.41,6.61,5.69-4.14-4.04,5.77,6.58-2.53-5.4,4.53,7.01-.74-6.38,2.97,6.95,1.11-6.94,1.22,6.43,2.86-7.01-.62,5.47,4.44Z"/>
  <path class="cls-3" d="M80,60v-20H0v20c0,.63,.04,1.25,.09,1.86H79.91c.06-.61,.09-1.23,.09-1.86Z"/>
  <path class="cls-1" d="M20,80H60c10.42,0,18.97-7.97,19.91-18.14H.09c.94,10.17,9.49,18.14,19.91,18.14Z"/>
  <path class="cls-2" d="M71.85,23.67l6.94-1.22-6.95-1.11,6.38-2.97-7.01,.74,5.4-4.53-6.58,2.53,4.04-5.77-5.69,4.14,2.41-6.61-4.43,5.47,.62-7.01-2.87,6.43-1.22-6.94-1.1,6.95-2.97-6.38,.74,7-4.52-5.4,2.52,6.58-5.76-4.05,4.13,5.69-6.61-2.41,5.47,4.43-7.01-.62,6.43,2.86-6.94,1.22,6.96,1.1-6.39,2.97,7-.73-5.39,4.52,6.57-2.52-4.05,5.76,5.7-4.13-2.42,6.61,4.44-5.47-.62,7.01,2.87-6.43,1.21,6.94,1.11-6.96,2.97,6.39-.73-7,4.52,5.4-2.52-6.58,5.76,4.05-4.14-5.7,6.61,2.43-5.47-4.44,7.01,.62-6.43-2.86Zm-8.83,5.36c-3.56,0-6.45-2.88-6.45-6.46s2.89-6.45,6.45-6.45,6.46,2.89,6.46,6.45-2.89,6.46-6.46,6.46Z"/>
  <path class="cls-2" d="M63.02,16.82c-3.09,0-5.59,2.58-5.59,5.76s2.5,5.77,5.59,5.77,5.6-2.58,5.6-5.77-2.51-5.76-5.6-5.76Z"/>
</svg>