<?xml version="1.0" encoding="UTF-8"?>
<svg id="Layer_1" data-name="Layer 1" xmlns="http://www.w3.org/2000/svg" viewBox="0 0 80 80">
  <defs>
    <style>
      .cls-1 {
        fill: #2072b8;
      }

      .cls-2 {
        fill: #049d60;
      }

      .cls-3 {
        fill: #fbd015;
      }
    </style>
  </defs>
  <path class="cls-1" d="M7.2,4.64C2.8,8.3,0,13.82,0,20V60c0,6.18,2.8,11.7,7.2,15.36V4.64Z"/>
  <path class="cls-2" d="M80,60V20c0-6.18-2.8-11.69-7.2-15.36V75.36c4.4-3.67,7.2-9.19,7.2-15.36Z"/>
  <path class="cls-3" d="M20,80H60c4.87,0,9.33-1.74,12.8-4.64V4.64c-3.47-2.89-7.93-4.64-12.8-4.64H20C15.13,0,10.67,1.74,7.2,4.64V75.36c3.47,2.89,7.93,4.64,12.8,4.64ZM49.06,25.65l7.16,14.19-7.16,14.25-7.22-14.25,7.22-14.19Zm-1.87,31.94l-7.16,14.25-7.21-14.25,7.21-14.19,7.16,14.19ZM31,25.65l7.16,14.19-7.16,14.25-7.21-14.25,7.21-14.19Z"/>
  <polygon class="cls-2" points="40.03 71.84 47.19 57.59 40.03 43.4 32.82 57.59 40.03 71.84"/>
  <polygon class="cls-2" points="38.16 39.83 31 25.65 23.79 39.83 31 54.08 38.16 39.83"/>
  <polygon class="cls-2" points="56.22 39.83 49.06 25.65 41.84 39.83 49.06 54.08 56.22 39.83"/>
</svg>