<?xml version="1.0" encoding="UTF-8"?>
<svg id="Layer_1" data-name="Layer 1" xmlns="http://www.w3.org/2000/svg" viewBox="0 0 80 80">
  <defs>
    <style>
      .cls-1 {
        fill: #fff;
      }

      .cls-2 {
        fill: #cd2028;
      }

      .cls-3 {
        fill: #029d49;
      }

      .cls-4 {
        fill: #fbd015;
      }
    </style>
  </defs>
  <path class="cls-3" d="M60,0H20C8.95,0,0,8.95,0,20v25.64L66.7,1.17c-2.1-.75-4.35-1.17-6.7-1.17Z"/>
  <path class="cls-2" d="M20,80H60c11.05,0,20-8.95,20-20v-25.64L13.29,78.82c2.1,.75,4.35,1.18,6.71,1.18Z"/>
  <path class="cls-4" d="M0,45.64v5.26L71.2,3.43c-1.38-.94-2.9-1.69-4.5-2.26L0,45.64Z"/>
  <path class="cls-4" d="M13.29,78.82L80,34.36v-5.26L8.79,76.56c1.38,.94,2.9,1.69,4.5,2.26Z"/>
  <path d="M0,60c0,6.89,3.49,12.97,8.79,16.56L80,29.1v-9.1c0-6.89-3.49-12.97-8.8-16.57L0,50.9v9.1ZM58.44,13.47l6.87,5.44,7.3-4.84-3.06,8.21,6.87,5.45-8.76-.37-3.06,8.21-2.35-8.44-8.76-.37,7.3-4.85-2.35-8.44ZM15.34,52.09l7.3-4.85-3.06,8.21,6.87,5.45-8.76-.37-3.06,8.21-2.35-8.44-8.75-.37,7.3-4.85-2.35-8.44,6.86,5.45Z"/>
  <polygon class="cls-1" points="3.53 59.93 12.28 60.3 14.64 68.74 17.69 60.53 26.45 60.9 19.58 55.45 22.64 47.24 15.34 52.09 8.48 46.64 10.83 55.09 3.53 59.93"/>
  <polygon class="cls-1" points="62.25 27.13 64.6 35.57 67.66 27.36 76.41 27.73 69.55 22.28 72.6 14.07 65.31 18.92 58.44 13.47 60.79 21.92 53.49 26.77 62.25 27.13"/>
</svg>