<?xml version="1.0" encoding="UTF-8"?>
<svg id="Layer_1" data-name="Layer 1" xmlns="http://www.w3.org/2000/svg" viewBox="0 0 80 80">
  <defs>
    <style>
      .cls-1 {
        fill: #fff;
      }

      .cls-2 {
        fill: #09539f;
      }

      .cls-3 {
        fill: #fbd015;
      }
    </style>
  </defs>
  <path class="cls-2" d="M60,80c11.05,0,20-8.95,20-20V20c0-11.05-8.95-20-20-20H20C8.95,0,0,8.95,0,20V60c0,11.05,8.95,20,20,20H60Zm-49.21-3.97L40,3.83l29.21,72.2h-.12l.12,.15H10.79l.12-.15h-.12Z"/>
  <polygon class="cls-1" points="40 13.56 61.44 66.58 69.09 76.03 69.21 76.03 40 3.83 10.79 76.03 10.91 76.03 18.56 66.58 40 13.56"/>
  <polygon points="18.56 66.58 40 40.08 61.44 66.58 40 13.56 18.56 66.58"/>
  <polygon class="cls-3" points="69.21 76.17 69.09 76.03 61.44 66.58 40 40.08 18.56 66.58 10.91 76.03 10.79 76.17 69.21 76.17"/>
</svg>