<?xml version="1.0" encoding="UTF-8"?>
<svg id="Layer_1" data-name="Layer 1" xmlns="http://www.w3.org/2000/svg" viewBox="0 0 80 80">
  <defs>
    <style>
      .cls-1 {
        fill: #d31f36;
      }

      .cls-2 {
        fill: #fff;
      }

      .cls-3 {
        fill: #233c7b;
      }
    </style>
  </defs>
  <path class="cls-1" d="M20,80H60c11.05,0,20-8.95,20-20V20c0-11.05-8.95-20-20-20h-20V40H0v20c0,11.05,8.95,20,20,20Z"/>
  <path class="cls-3" d="M40,0H20c-2.97,0-5.77,.66-8.31,1.82l-2.8,2.04,1.08,3.3-2.81-2.04-1.86,1.35C2.02,10.03,0,14.77,0,20v20H40V0ZM10.81,37.76l-3.65-2.65-3.65,2.65,1.39-4.29-3.65-2.66H5.76l1.4-4.31,1.4,4.31h4.51l-3.65,2.66,1.39,4.29Zm4.48-14.11l-1.63-1.19-1.63,1.19,.62-1.93-1.64-1.19h2.02l.63-1.92,.62,1.92h2.02l-1.64,1.19,.63,1.93Zm7.95-8.38l-2.5-1.81-2.5,1.81,.95-2.94-2.5-1.82h3.1l.96-2.94,.95,2.94h3.09l-2.5,1.82,.96,2.94Z"/>
  <path class="cls-2" d="M9.97,7.16l-1.08-3.3,2.8-2.04c-2.43,1.11-4.6,2.7-6.39,4.65l1.86-1.35,2.81,2.04Z"/>
  <polygon class="cls-2" points="21.7 10.52 20.74 7.58 19.79 10.52 16.69 10.52 19.19 12.34 18.24 15.28 20.74 13.47 23.24 15.28 22.29 12.34 24.79 10.52 21.7 10.52"/>
  <polygon class="cls-2" points="8.56 30.81 7.16 26.5 5.76 30.81 1.25 30.81 4.9 33.47 3.51 37.76 7.16 35.11 10.81 37.76 9.42 33.47 13.07 30.81 8.56 30.81"/>
  <polygon class="cls-2" points="14.28 20.54 13.66 18.62 13.04 20.54 11.02 20.54 12.65 21.73 12.03 23.66 13.66 22.46 15.29 23.66 14.67 21.73 16.3 20.54 14.28 20.54"/>
</svg>