<?xml version="1.0" encoding="UTF-8"?>
<svg id="Layer_1" data-name="Layer 1" xmlns="http://www.w3.org/2000/svg" viewBox="0 0 80 80">
  <defs>
    <style>
      .cls-1 {
        fill: #fff;
      }

      .cls-2 {
        fill: #069548;
      }
    </style>
  </defs>
  <polygon class="cls-2" points="42.43 29.77 42.06 29.49 40.9 28.96 40.78 29.12 40.93 30.17 42.43 29.77"/>
  <path class="cls-2" d="M57.02,60.43l.39,.51c.67,0,1.35,0,2.02-.06l.03-.19,.4-.23,.54,.4c.69-.03,1.37,.02,2.05-.05l.07-1.12c-1.83,.06-3.67,.11-5.5,.16v.59Z"/>
  <path class="cls-2" d="M60,0H20C8.95,0,0,8.95,0,20V60c0,11.05,8.95,20,20,20H60c11.05,0,20-8.95,20-20V20c0-11.05-8.95-20-20-20Zm8.9,19.75c.53,.77,.68,1.71,.72,2.63l-.26,1.45h-.13l-.11-1.03c-.1-.68-.29-1.35-.66-1.93l-.08-.57,.53-.55Zm-10.32,5.34l.12-.43,.38-.09,.7,1.17,.44,.85,.07-.65-.05-1.4,.73-.81,.21,.1,.3,.6v.42s-.65-.14-.65-.14l-.23,.43c-.01,.7,.03,1.4,0,2.09l-.27,.39-.3-.51-.84-1.38-.26,.24h-.28s-.07-.26-.07-.26v-.64Zm2.61,6.17l.38-.67,.47,.13c.46,.51,.75,1.23,.56,1.92l-.55,.61v-1.15s-.85-.84-.85-.84Zm.59-1.73c-.69,.4-1.38,.81-1.99,1.31l-.77,.39,.19-.55c.79-.73,1.74-1.28,2.52-2.02l.74-.5,.04,.91-.73,.46Zm-10.13-9.89l.78-.83,.31-.12,.33,.91,.02,.05,.11,.44,.43,1.52,.05,.54-.56-.15c-.08,1.81,.19,3.62,.37,5.42,.19,1.71,.32,3.43,.35,5.15,.07,1.06,.05,2.14-.06,3.2-.12,1.08-.43,2.18-1.17,3.01-.57,.66-1.1,1.38-1.87,1.83-.61,.36-1.34,.37-2.04,.43l-1.15-.07v-.15l1.63-.65c1.03-.53,1.87-1.34,2.64-2.18,.61-.65,1.04-1.47,1.1-2.35,.03-.63,.01-1.26-.05-1.88-.11-1.61-.14-3.21-.27-4.81-.12-1.6-.28-3.22-.47-4.82-.14-1.04-.27-2.09-.42-3.13l-.17-.47,.12-.87Zm-.95,3.78l.09-.22,.15-.03,.08,1.31-.08,.21-.45,.15-.55-.34-.78,.37-.16-1.23,.11,.03,.27,.64,.23-.1,.26-.82,.1,.1,.31,.77,.42-.83Zm-1.67-4.86l.62,.51c.41,.79,.62,1.76,.27,2.62l-.42,.5-.02-1.62-.52-.76-.3-.35,.37-.91Zm-6.97-.25l.57,.16c.73,.65,1.48,1.27,2.15,1.98l.4,.79-.82-.02c.48,.72,.96,1.45,1.48,2.15l.06,.15c-.06-.89-.28-1.77-.26-2.65l-.28-.78,.28-.89,.47-.39,.38,.41c.34,.82,.72,1.61,.99,2.45l.18,.95-.09,.18-.47-.18c.01,.72,.01,1.42,.07,2.15l.16,1c.75,1.14,1.47,2.3,2.17,3.48,.76,1.29,1.5,2.6,2.08,3.99,.33,.85,.64,1.73,.61,2.64l-.18,.03-.74-1.54c-1.1-2.32-2.52-4.49-3.89-6.67,.03,.7,.11,1.39,.15,2.08,.07,1.36,.37,2.69,.37,4.06l.03,.04c.03,1.45-.09,2.94-.66,4.28l-.43,.45,.08-.96c.28-.9,.19-1.86,.18-2.78-.14-2.16-.45-4.29-.72-6.42l-.13-.98-.02-.04c-.08-.62-.15-1.25-.25-1.86-.97-1.53-2.08-2.97-3.16-4.42l-.77-.66v-.81s-.08-1.2-.08-1.2l.1-.17Zm-7.24,.42l.41,.67c.23,.71,.21,1.47,.15,2.22l-.2,.73h-.13l-.02-1.43-.54-1.37-.1-.53,.42-.3Zm-6.62,3.59c.09-.75,.27-1.51,.61-2.2h.12s-.19,1.23-.19,1.23c-.05,.69-.04,1.39,.09,2.07l.12,.5,.84,1.13,.63-.5c.3-.94,.71-1.87,1.17-2.76,.33-.64,.68-1.28,1.13-1.85l.54-.23,.33,.45-.08,1.03c-.17,1.07-.15,2.15-.12,3.23l.56,1.15h1.17s1.23-.94,1.23-.94l.4-1.53c.02-1.04-.19-2.07-.39-3.08l-.12-.94,.52-1.04h.17c.33,.54,.48,1.16,.59,1.77,.15,.81,.19,1.62,.22,2.45,.13,.83,.35,1.69,.81,2.4l.82,.62,.7-.46,.05-1.68c-.11-.74-.33-1.45-.55-2.15l-.47-1.18,.46-.77,.33-.6,.69,.36,.95,1.57,.06,.6-.38-.03-.59-.36,.28,.88c.16,.61,.27,1.22,.34,1.84,.09,.87-.07,1.8-.54,2.55l-1.5,.72c-.82-.17-1.39-.82-1.88-1.43-.46,.84-1.2,1.52-2.08,1.88l-1.72-.07-.91-1.42c-.19-.81-.16-1.65-.07-2.46l-.02-.54-.13-.03-.45,.9c-.28,.82-.54,1.66-.88,2.46l-.85,.68-1.03-.75c-.77-.96-1.13-2.24-.99-3.47Zm10.11,6.7l-.63,.59-.49-.29h-.16l-.41,.59-.57-.25-.13-1.65,.09,.16,.39,1.04h.25s.13-.4,.13-.4l.11-.83,.32,.46,.37,.62h.19s.13-.45,.13-.45l.11-1.01,.3,1.43Zm-9.94-.26l.42-.77,.47,.02,.85,.98,.43,1.02-.43,.09,.4,1.14,.15,.55c.12,.66,.16,1.37,0,2.04-.24,.83-.78,1.55-1.41,2.16-.76,.79-1.62,1.51-2.61,2.02l.3,1.04,1.34,.23c.95-.17,1.75-.76,2.46-1.4,.94-.89,1.7-1.94,2.3-3.1l-.3-1.12-.02-.04-.4-1.35-.03-.04c-.34-1.11-.7-2.2-1.1-3.29l.15-1.18,.54-.9,.38,.76c.57,1.25,1.13,2.53,1.43,3.88v-.1c.14,.72,.31,1.43,.41,2.16,.19,1.1,.24,2.27,.81,3.28,.48,.85,1.41,1.32,2.33,1.57l.02-1.44c.33-.85,1.16-1.39,1.98-1.71l-.23-.21c-.52-.36-1.16-.46-1.78-.5-.66-.06-1.31-.04-1.97-.08l-.64-.19,.16-.93,.69-1.15,1.35-.61c.96-.36,1.93-.72,2.92-1.02l-.37-1.27,.77-1.55,1-.52c.71-.03,1.36,.37,1.95,.74l.89,1.33-.64,1.42c-.48,.49-1.14,.73-1.76,.97v.31s-.69-.09-.69-.09c-1.16,.43-2.32,.85-3.41,1.44,.68,.05,1.37,.03,2.06,.04,1.67,0,3.34-.03,5.01-.12l1.23-.03-.06,.62-.49,1-1.23,.32c-1.46,.28-2.9,.73-4.3,1.24l-1.31,.72v.89s1.23,.86,1.23,.86l1.03,.42-.26,1.18-.9,.27c-1.56-.17-3.16-.65-4.36-1.71-.75-.66-1.27-1.52-1.63-2.45-.65,.95-1.37,1.83-2.18,2.64-.85,.79-1.82,1.54-3,1.71-.71,.08-1.54,0-2.05-.56-.47-.46-.62-1.14-.7-1.77-1.69,.78-3.45,1.35-5.24,1.88l-.43-.02,.03-.2,1.69-.9c1.33-.71,2.64-1.48,3.87-2.34l.14-.16,.24-.85c.24-.7,.49-1.4,.88-2.04h.13v1.15s.01,.86,.01,.86c.75-.5,1.42-1.13,2.11-1.7l.79-1.24-.2-1.16c-.29-.62-.64-1.22-.91-1.85l-.52-.46,.2-.83Zm13.57,10.19l.54-.48,1.09-.45-.21,1.44,.13,.25c.66-.06,1.22-.48,1.83-.7l.39-.05-.51,.57c-.54,.4-1.11,.93-1.82,.91l-.69-.33,.13-1.34-.88,.19Zm-18.27-5.07l.05-.85,1,.21,.05,1.22-.47,1.1-.18,.06,.17-.71,.03-.94-.65-.1Zm-1.14-9.45l.87-.65c1.01-.72,1.99-1.54,2.72-2.56-.52-.43-.56-1.16-.37-1.77l.73-.84,.97,.14,.17,1.05-.37,1.12,.08,.56-.52,.2c-.76,1.16-1.93,1.97-3.16,2.57l-1.13,.34v-.17Zm3.14,1.42l.69-.17,.66-.51-.7,1.22-.82,.19-.58-.71,.32-1.24,.67-.81h.18s-.61,1.42-.61,1.42l.2,.61Zm-10.51-7.47l.1,.03,.09,.21,.1,.71,.34,.09,.5-.85h.11s.31,.92,.31,.92l.44-.63,.17,.6-.35,.52-.39-.02-.34-.36-.71,.36-.58-.71,.21-.88Zm-6,.08l.67-.2,.25,1.07c-.1,.61-.41,1.15-.72,1.67l.18-.57,.02-.05,.09-1.37-.83,.12,.34-.66Zm-1.96,4.57c0-.62,.1-1.22,.32-1.79h.17s.05,1.71,.05,1.71c.07,.82,.17,1.64,.46,2.4l.57,.69,.43-.37c.38-.93,.28-1.98,.55-2.94v-.04c.19-.63,.47-1.23,.84-1.77l.78-.62,.56,.41-.06,1-.36,1.45,.07,1.17,.12,.44,.69,1.06,.62,.18c-.07-.69-.13-1.39-.17-2.08-.08-.63-.09-1.29-.16-1.91-.07-.6-.36-1.16-.29-1.78l-.23-.83,.59-.89,.54,.64c.29,.57,.62,1.15,.62,1.79l-.42,.48c.07,1.1,.2,2.19,.31,3.28l.07,.62,.06,.52,.89-1.5c-.15-.79-.29-1.58-.47-2.36-.18-.62-.1-1.28,.11-1.88l.24-.14c.61,.5,.93,1.35,.77,2.14-.09,.84,.15,1.65,.35,2.46l.54,.91,1.19,.21,.32-.59c-.12-1.02-.42-2.03-.78-3l-.36-1.04,.3-.54,.55-.56,.72,.71,.41,.65v.53s-.42,.17-.42,.17c.21,.83,.46,1.66,.57,2.51,.05,.66,.09,1.4-.3,1.97l-1.27,.86-1.58-.47-.46-1.08h-.14s-.37,.62-.37,.62l-.7,.81c.04,.76,.12,1.51,.16,2.27,.03,1.11,.2,2.21,.15,3.32l-.44,1.22h-.12l-.12-1.53-.11-1.19-.03-.04c-.1-1.14-.28-2.29-.38-3.43-.65,.01-1.33-.21-1.74-.74-.58-.74-.69-1.76-.66-2.67l.16-1.32-.05-.76-.13,.03-.52,1.71-.03,.04-.11,.79c-.1,.7-.23,1.43-.6,2.04l-.66,.57-.81-.59c-.59-1.22-.82-2.58-.82-3.93l.04-.04Zm2.72,7.05c.66-.42,1.39-.73,2.12-.96h.31s0,.8,0,.8l-1.12,.39c-.93,.38-1.83,.82-2.69,1.33l-.95,.62c.57-.9,1.42-1.59,2.31-2.17Zm-.17,9.2l-.97,.86-.82-.66-.13-1.49c0-.68,.09-1.37,.36-2l.47-1.43h.14s-.09,1.59-.09,1.59c-.23,.72-.43,1.53-.2,2.28l.59,.43,.68-.73-.02,1.15Zm1.95,.68l-.7-.88c-.49-1.09-.63-2.29-.56-3.46,.1-.98,.23-2,.73-2.87l-.03,1.79v1.23c.09,.82,.25,1.69,.82,2.33,.47,.55,1.21,.78,1.91,.78,.67,.03,1.32-.1,1.95-.29,1.1-.33,2.17-.85,3.05-1.6,.55-.41,1.02-.98,1.2-1.66l.02-.05,.14-1.61c-.02-.76,.03-1.53,0-2.29l-.69,.39c.01,.68,.1,1.38-.08,2.05l-.03,.04c-.4,1.3-1.49,2.22-2.63,2.87-.86,.47-1.84,.94-2.86,.79-.83-.11-1.5-.74-1.87-1.47-.29-.6-.29-1.25-.28-1.89,0-.62,.11-1.24,.26-1.83l.39-.69-.05,.98c-.08,1,.09,2.1,.77,2.86l1.41,.44c.72-.12,1.4-.48,1.98-.89l1.59-1.41,.36-.49,.07-.99-1.47,.47-1.27-.21-.25-.38-.02-1.48,.55-1.36,.88-.71,1.02,.41,1.21,1.52,.89-.5c-.05-1.66-.28-3.31-.46-4.96l-.03-.04-.18-1.62-.03-.05-.05-.5-.13-1.67v-.48s-.18-.78-.18-.78l.5-.7,.58-.4,.41,1.04c.23,.65,.44,1.31,.72,1.95l.06,.84-.29,.25-.41-.22c.07,1.23,.2,2.45,.26,3.67,.08,1.01,.14,2.03,.2,3.05l.91-.76,.33,.28,.14,1.36,.64,.43,.93-.65,.68-1.53,.15,.02,.36,1.54,.69,.45,.47-.64-.07-.84-.06-.35,.66-.42,.2,1.03-.2,1.62-.66,.57-1.21-.2-.45-.49-.2,.04-.53,.51-1.36,.35-1.05-.76h-.15s-.06,.33-.06,.33l.06,1.53c.09,1.19,.09,2.43-.24,3.58-.24,.87-.72,1.68-1.41,2.27-.66,.61-1.51,.96-2.34,1.28-1.14,.42-2.36,.73-3.59,.72-.72-.01-1.46-.15-2.04-.59Zm52.51,21.61l-1.01,.27-.56-.46c-.73,0-1.48,0-2.22,.02l-.49,.47-.52-.41c-.69,0-1.38,.05-2.08,.05l-.44,.63h-.13l-.64-1.08,.41-.59v-.57c-1.33,0-2.67,.04-4,.08-4.25,.1-8.5,.19-12.75,.22-4.64,.07-9.29,.09-13.94,.05-1.46-.06-2.92,0-4.39-.09-1.36-.07-2.74-.19-4.03-.65-.77-.28-1.5-.76-1.95-1.47,1.78,0,3.57,.07,5.35,.06,3.55,.04,7.1,.09,10.65,.09,1.33,0,2.65,.04,3.98,.02,7,.03,14,.03,21-.05v-.49s-.41-.86-.41-.86l.5-.82h.29s.51,.81,.51,.81l-.35,.78v.6c1.89-.03,3.79-.1,5.69-.1l1.46,.4,.48,1.46-.44,1.63Zm-.54-21l-.52-.27,.75-1.04-.53-.48,.19-.56,1.13,.09,.08,.18-.35,1,.63,.02v.4s-1.39,.66-1.39,.66Zm.95-3.74c-.37,.53-.97,.94-1.62,.93-.76-.03-1.51-.32-2.03-.88l-.69-.87-.38,.22-.86,1.5c-.4,.89-.86,1.76-1.45,2.53l-.59,.38-.88-.44c-.48-.41-1.06-.79-1.24-1.43-.29-.95-.07-1.96,.11-2.92l.39-1.38,.12,.02,.07,1.63,.19,1.37,.21-.95c.19-1.52-.2-3.04-.36-4.55-.14-1.06-.28-2.14-.41-3.21-.23-1.66-.43-3.33-.66-5-.08-.66-.14-1.31-.31-1.95-.17-.69-.35-1.41-.21-2.13l.74-1.46,.72-.35,.64,.43,.45,1.24c.25,.71,.5,1.43,.92,2.07l.16,1.04-.91,.39c.04,.9,.18,1.78,.26,2.68,.14,1.2,.29,2.37,.42,3.57l.03,.03c.05,.79,.19,1.55,.25,2.32,.21,1.19,.5,2.39,.37,3.61-.09,.83-.34,1.65-.76,2.38l-.78,.59-.56-.23,.49,.82h.66s.55-.75,.55-.75c.45-.97,.95-1.91,1.5-2.82l.79-1.1h.69s1.21,1.43,1.21,1.43l.94,.4,.76-.45,.39-1.16c.11-2.1-.1-4.19-.22-6.29l-.03-.04c-.01-.59-.09-1.17-.11-1.76l-.11-1.18c-.92-1.13-1.79-2.32-2.72-3.45l-.62-1.3,.04-1.4,.04-.31,.67,.29c.48,.62,1.13,1.07,1.67,1.64l.17,.35-.12,.17h-.35l1.02,1.45c-.03-.59-.14-1.19-.17-1.78l-.21-1.1,.7-1.21,.33,.28c.34,.9,.67,1.79,.96,2.71l.05,.43-.43-.16c.03,.95,.14,1.89,.17,2.85,.64,.9,1.3,1.79,1.95,2.71-.12-.89-.28-1.77-.41-2.65-.18-1.44-.34-2.88-.38-4.33l-.07-.81,.59-1.02,.37-.17,.46,1.09c.2,.71,.37,1.43,.57,2.14l-.02,.6-.19,.07-.24-.14,.02,1.03s.19,2.33,.3,3.48c.07,.78,.12,1.59,.21,2.37,.42,.69,.9,1.33,1.34,2.01,.67,1,1.46,1.96,1.8,3.13l.09,1.64h-.12s-.69-1.13-.69-1.13c-.71-1.09-1.47-2.16-2.25-3.19,.07,.68,.05,1.38,.12,2.07l-.08,1.33-.36,1.1-.19-.42c.01-.85,.06-1.71-.01-2.57-.08-.73-.17-1.45-.28-2.17l-.18-.6c-.71-1.02-1.46-2.04-2.17-3.07,0,.6,.09,1.22,.1,1.82,.1,1.74,.21,3.49,.27,5.22l.03,.04c-.03,.93-.09,1.89-.62,2.69Zm8.01-1.25l-.03,.03c-.21,1.07-.6,2.11-1.3,2.95-.71,.88-1.77,1.43-2.87,1.7l-1.46,.19,.54-.58c.65-.49,1.36-.91,1.98-1.46,.79-.67,1.48-1.52,1.82-2.5,.43-1.14,.4-2.38,.34-3.58-.17-2.44-.44-4.88-.71-7.3l-.14-1.25-.11-1.03c-.05-.78-.22-1.58-.29-2.37l-.1-1,.51-.84,.36-.25,.34,.5c.31,.75,.65,1.5,1,2.23l.1,.7-.55-.24c-.08,1.82,.27,3.6,.44,5.41,.2,1.88,.34,3.78,.38,5.66,.03,1.01-.07,2.03-.23,3.02Z"/>
  <polygon class="cls-2" points="26.62 20.33 26.76 19.44 26.43 19.86 26.5 20.31 26.62 20.33"/>
  <polygon class="cls-2" points="16.91 29.94 16.75 30.03 16.85 31.04 18.02 30.83 17.47 30.19 16.91 29.94"/>
  <path class="cls-1" d="M26.81,21.67l.52-.2-.08-.56,.37-1.12-.17-1.05-.97-.14-.73,.84c-.2,.61-.15,1.34,.37,1.77-.73,1.02-1.7,1.84-2.72,2.56l-.87,.65v.17s1.12-.34,1.12-.34c1.23-.6,2.41-1.41,3.16-2.57Zm-.05-2.23l-.14,.89-.12-.02-.08-.45,.33-.42Z"/>
  <polygon class="cls-1" points="37.78 29.02 37.6 29.03 37.23 28.41 36.91 27.96 36.8 28.79 36.67 29.18 36.42 29.19 36.03 28.15 35.94 27.99 36.06 29.64 36.63 29.89 37.04 29.3 37.2 29.3 37.69 29.6 38.32 29.01 38.02 27.57 37.92 28.58 37.78 29.02"/>
  <polygon class="cls-1" points="25.89 23.81 25.22 24.62 24.9 25.86 25.48 26.57 26.31 26.38 27 25.16 26.35 25.67 25.66 25.84 25.46 25.23 26.07 23.82 25.89 23.81"/>
  <path class="cls-1" d="M43.39,40.42c.72,.01,1.28-.51,1.82-.91l.51-.57-.39,.05c-.62,.22-1.17,.64-1.83,.7l-.13-.25,.21-1.44-1.09,.45-.54,.48,.88-.19-.13,1.34,.69,.33Z"/>
  <path class="cls-1" d="M29.62,31.88l.2,1.16-.79,1.24c-.69,.58-1.36,1.2-2.11,1.7v-2.01h-.15c-.38,.64-.64,1.34-.88,2.04l-.24,.85-.14,.16c-1.24,.86-2.54,1.63-3.87,2.34l-1.69,.9-.03,.2,.43,.02c1.79-.52,3.55-1.09,5.24-1.88,.09,.63,.23,1.31,.7,1.77,.51,.56,1.34,.64,2.05,.56,1.17-.17,2.15-.92,3-1.71,.82-.81,1.53-1.69,2.18-2.64,.36,.93,.88,1.79,1.63,2.45,1.2,1.05,2.8,1.54,4.36,1.71l.9-.27,.26-1.18-1.03-.42-1.24-.86v-.89s1.32-.72,1.32-.72c1.4-.51,2.84-.95,4.3-1.24l1.23-.32,.49-1,.06-.62-1.23,.03c-1.67,.09-3.34,.12-5.01,.12-.68,0-1.37,.01-2.06-.04,1.09-.59,2.25-1.02,3.41-1.44l.7,.09v-.31c.61-.24,1.27-.48,1.75-.97l.64-1.42-.89-1.33c-.59-.37-1.24-.77-1.95-.74l-1,.52-.77,1.55,.37,1.27c-.99,.29-1.96,.66-2.92,1.02l-1.35,.61-.69,1.15-.16,.93,.64,.19c.66,.04,1.31,.02,1.97,.08,.62,.05,1.26,.15,1.78,.5l.23,.21c-.82,.32-1.65,.86-1.98,1.71l-.02,1.44c-.91-.25-1.85-.72-2.33-1.57-.57-1-.62-2.17-.81-3.28-.1-.73-.28-1.44-.41-2.16v.1c-.31-1.35-.87-2.63-1.43-3.88l-.38-.76-.54,.9-.15,1.18c.4,1.08,.76,2.17,1.1,3.29l.03,.04,.4,1.35,.02,.04,.3,1.12c-.6,1.15-1.37,2.21-2.3,3.1-.71,.64-1.51,1.23-2.46,1.4l-1.34-.23-.3-1.04c.99-.51,1.85-1.22,2.61-2.02,.62-.6,1.17-1.33,1.41-2.16,.16-.67,.12-1.37,0-2.04l-.15-.55-.4-1.14,.43-.09-.43-1.02-.85-.98-.47-.02-.42,.77-.2,.83,.52,.46c.27,.64,.62,1.23,.91,1.85Zm11.28-2.92l1.16,.53,.37,.28-1.5,.4-.15-1.05,.11-.16Z"/>
  <polygon class="cls-1" points="16.24 19.59 16.58 19.95 16.96 19.97 17.31 19.45 17.14 18.85 16.7 19.48 16.39 18.56 16.28 18.56 15.78 19.41 15.44 19.32 15.34 18.61 15.26 18.39 15.15 18.37 14.94 19.24 15.53 19.95 16.24 19.59"/>
  <polygon class="cls-1" points="24.12 35.62 24.3 35.56 24.78 34.45 24.73 33.23 23.73 33.02 23.67 33.87 24.33 33.97 24.29 34.91 24.12 35.62"/>
  <path class="cls-1" d="M8.48,38.41c-.22-.75-.02-1.56,.2-2.28l.09-1.6h-.14s-.47,1.45-.47,1.45c-.27,.64-.37,1.32-.36,2l.13,1.49,.82,.66,.97-.86,.02-1.15-.68,.73-.59-.43Z"/>
  <path class="cls-1" d="M62.7,58.06c-1.9,0-3.8,.07-5.7,.1v-.6s.36-.78,.36-.78l-.51-.8h-.29s-.5,.81-.5,.81l.4,.86v.49c-6.99,.09-13.99,.09-20.99,.05-1.33,.02-2.65-.03-3.98-.02-3.55,0-7.1-.06-10.65-.09-1.79,0-3.57-.07-5.35-.06,.45,.71,1.18,1.19,1.95,1.47,1.29,.46,2.67,.58,4.03,.65,1.46,.09,2.92,.02,4.39,.09,4.65,.04,9.3,.02,13.94-.05,4.24-.04,8.49-.12,12.75-.22,1.33-.03,2.67-.08,4-.08v.57l-.41,.59,.64,1.08h.13l.44-.63c.69,0,1.38-.06,2.08-.05l.52,.41,.49-.47c.74-.01,1.49-.02,2.22-.02l.56,.46,1.01-.27,.44-1.63-.48-1.46-1.46-.4Zm-.25,2.74c-.67,.08-1.36,.02-2.05,.05l-.54-.4-.4,.23-.03,.19c-.67,.07-1.35,.05-2.02,.06l-.39-.51v-.59c1.83-.05,3.67-.1,5.5-.16l-.07,1.12Z"/>
  <path class="cls-1" d="M11.23,30.29l1.12-.39v-.81s-.32,0-.32,0c-.73,.24-1.46,.54-2.12,.96-.89,.58-1.74,1.27-2.31,2.17l.95-.62c.86-.51,1.76-.95,2.69-1.33Z"/>
  <path class="cls-1" d="M8.77,27.57l.66-.57c.38-.61,.5-1.34,.6-2.04l.11-.79,.03-.04,.52-1.71,.13-.03,.05,.76-.16,1.32c-.03,.91,.08,1.93,.66,2.67,.41,.53,1.09,.75,1.74,.74,.09,1.14,.27,2.29,.38,3.43l.03,.04,.11,1.19,.12,1.53h.12l.44-1.22c.06-1.11-.11-2.21-.15-3.32-.04-.76-.12-1.52-.16-2.27l.7-.81,.37-.61h.14s.46,1.07,.46,1.07l1.58,.47,1.27-.86c.4-.57,.36-1.31,.3-1.97-.11-.85-.36-1.68-.57-2.51l.44-.17v-.53s-.42-.65-.42-.65l-.72-.71-.55,.56-.3,.54,.36,1.04c.36,.97,.66,1.98,.78,3l-.32,.59-1.19-.21-.54-.91c-.19-.8-.44-1.62-.35-2.46,.15-.79-.16-1.64-.77-2.14l-.24,.14c-.21,.6-.29,1.26-.11,1.88,.18,.78,.32,1.57,.47,2.36l-.89,1.5-.06-.52-.07-.62c-.11-1.09-.24-2.18-.31-3.28l.42-.48c0-.64-.33-1.23-.62-1.79l-.54-.64-.59,.89,.23,.83c-.06,.62,.23,1.18,.29,1.78,.07,.63,.08,1.28,.16,1.91,.03,.69,.1,1.39,.17,2.08l-.62-.18-.69-1.06-.12-.44-.07-1.17,.36-1.45,.06-1-.56-.41-.78,.62c-.37,.54-.65,1.14-.83,1.77v.04c-.29,.96-.19,2.01-.56,2.94l-.43,.37-.57-.69c-.29-.76-.39-1.59-.46-2.4l-.05-1.72h-.17c-.21,.58-.32,1.19-.32,1.8l-.04,.04c0,1.34,.22,2.71,.82,3.93l.81,.59Z"/>
  <path class="cls-1" d="M9.55,20.36l-.02,.05-.18,.57c.3-.52,.61-1.06,.72-1.67l-.25-1.07-.67,.2-.34,.66,.83-.12-.09,1.37Z"/>
  <path class="cls-1" d="M19.64,38.54c.69-.59,1.17-1.4,1.41-2.27,.32-1.15,.33-2.38,.24-3.58l-.06-1.53,.06-.33h.15s1.05,.76,1.05,.76l1.36-.35,.53-.51,.2-.04,.45,.49,1.21,.2,.66-.57,.2-1.62-.2-1.03-.66,.42,.06,.35,.07,.84-.47,.64-.69-.45-.36-1.54-.15-.02-.68,1.53-.93,.65-.64-.43-.14-1.36-.33-.28-.91,.76c-.07-1.02-.13-2.04-.2-3.05-.06-1.22-.19-2.44-.26-3.67l.41,.22,.29-.25-.06-.84c-.28-.64-.48-1.31-.72-1.95l-.41-1.04-.58,.4-.5,.7,.19,.78v.48s.11,1.67,.11,1.67l.05,.5,.03,.05,.18,1.62,.03,.04c.18,1.65,.4,3.3,.46,4.96l-.89,.5-1.21-1.52-1.02-.41-.88,.71-.55,1.36,.02,1.48,.25,.38,1.27,.21,1.47-.47-.07,.99-.36,.49-1.59,1.41c-.59,.41-1.26,.77-1.98,.89l-1.41-.44c-.69-.76-.85-1.87-.77-2.86l.05-.98-.39,.69c-.15,.59-.26,1.21-.26,1.83-.01,.64,0,1.3,.28,1.89,.37,.73,1.04,1.36,1.87,1.47,1.03,.14,2-.32,2.86-.79,1.14-.65,2.23-1.58,2.63-2.87l.03-.04c.18-.66,.09-1.37,.08-2.05l.69-.39c.03,.76-.02,1.53,0,2.29l-.14,1.61-.02,.05c-.18,.68-.65,1.24-1.2,1.66-.88,.75-1.95,1.27-3.05,1.6-.63,.19-1.28,.32-1.95,.29-.7,0-1.45-.23-1.91-.78-.57-.64-.73-1.51-.82-2.33v-1.23l.03-1.79c-.5,.87-.63,1.89-.73,2.87-.08,1.17,.07,2.37,.56,3.46l.7,.88c.57,.44,1.32,.57,2.04,.59,1.22,.01,2.44-.29,3.59-.72,.83-.32,1.68-.66,2.34-1.28Zm-2.8-7.5l-.09-1.02,.16-.09,.56,.24,.55,.64-1.18,.22Z"/>
  <path class="cls-1" d="M58.92,25.98l.26-.24,.84,1.38,.3,.51,.27-.39c.03-.69-.01-1.39,0-2.09l.23-.43,.66,.14v-.42s-.31-.6-.31-.6l-.21-.1-.73,.81,.05,1.4-.07,.65-.44-.85-.7-1.17-.38,.09-.12,.43v.64l.07,.24h.28Z"/>
  <path class="cls-1" d="M69.11,22.8l.11,1.03h.13l.26-1.45c-.04-.91-.19-1.86-.72-2.63l-.53,.55,.08,.57c.38,.58,.56,1.25,.66,1.93Z"/>
  <path class="cls-1" d="M61.73,28.65c-.77,.74-1.72,1.3-2.52,2.02l-.19,.55,.77-.39c.61-.5,1.3-.91,1.99-1.31l.73-.46-.04-.91-.74,.5Z"/>
  <path class="cls-1" d="M62.59,32.64c.19-.69-.09-1.41-.56-1.92l-.47-.13-.38,.67,.85,.84v1.15s.55-.61,.55-.61Z"/>
  <polygon class="cls-1" points="64.41 39.47 64.76 38.47 64.68 38.3 63.54 38.21 63.35 38.77 63.88 39.25 63.13 40.29 63.66 40.56 65.05 39.9 65.04 39.49 64.41 39.47"/>
  <path class="cls-1" d="M72.03,21.48l.55,.24-.1-.7c-.34-.73-.68-1.47-1-2.23l-.34-.5-.36,.25-.51,.84,.1,1c.07,.78,.24,1.59,.29,2.37l.11,1.03,.14,1.25c.28,2.43,.55,4.86,.71,7.3,.06,1.2,.09,2.44-.34,3.58-.35,.98-1.03,1.82-1.82,2.5-.62,.55-1.33,.96-1.98,1.46l-.54,.58,1.46-.19c1.1-.27,2.16-.82,2.87-1.7,.7-.85,1.09-1.88,1.3-2.95l.03-.03c.16-1,.26-2.01,.23-3.02-.04-1.88-.18-3.78-.38-5.66-.17-1.8-.52-3.59-.44-5.41Z"/>
  <path class="cls-1" d="M35.05,20.92l.02,1.43h.13l.2-.73c.06-.75,.08-1.51-.15-2.22l-.41-.67-.42,.3,.1,.53,.54,1.37Z"/>
  <path class="cls-1" d="M42.06,20.47l.77,.66c1.09,1.44,2.19,2.89,3.16,4.42,.1,.61,.18,1.24,.25,1.86l.02,.04,.13,.98c.27,2.13,.58,4.27,.72,6.42,.01,.92,.1,1.88-.18,2.78l-.08,.96,.43-.45c.57-1.34,.69-2.83,.66-4.28l-.03-.04c0-1.37-.3-2.7-.37-4.06-.03-.69-.12-1.38-.15-2.08,1.38,2.18,2.79,4.35,3.89,6.67l.74,1.54,.18-.03c.03-.91-.28-1.8-.61-2.64-.58-1.39-1.32-2.7-2.08-3.99-.7-1.18-1.42-2.34-2.17-3.48l-.16-1c-.06-.72-.06-1.43-.07-2.15l.47,.18,.09-.18-.18-.95c-.27-.83-.65-1.62-.99-2.45l-.38-.41-.47,.39-.28,.89,.28,.78c-.01,.88,.2,1.76,.26,2.65l-.06-.15c-.52-.7-1-1.43-1.48-2.15l.82,.02-.4-.79c-.67-.71-1.42-1.32-2.15-1.98l-.57-.16-.1,.17,.07,1.2v.81Z"/>
  <path class="cls-1" d="M30.23,26.52l.85-.68c.34-.8,.61-1.64,.88-2.46l.45-.9,.13,.03,.02,.54c-.09,.81-.12,1.66,.07,2.46l.91,1.42,1.72,.07c.88-.36,1.62-1.04,2.08-1.88,.49,.62,1.06,1.26,1.88,1.43l1.5-.72c.47-.75,.63-1.68,.54-2.55-.07-.62-.19-1.23-.34-1.84l-.28-.88,.59,.36,.38,.03-.06-.6-.95-1.57-.69-.36-.33,.6-.46,.77,.47,1.18c.22,.7,.44,1.41,.55,2.15l-.05,1.68-.7,.46-.82-.62c-.47-.71-.68-1.57-.81-2.4-.03-.83-.07-1.64-.22-2.45-.1-.61-.26-1.24-.59-1.77h-.17l-.52,1.04,.12,.94c.2,1.01,.42,2.04,.39,3.08l-.4,1.53-1.23,.93h-1.17s-.56-1.13-.56-1.13c-.02-1.08-.05-2.16,.12-3.23l.08-1.03-.33-.45-.54,.23c-.45,.56-.8,1.21-1.13,1.85-.46,.9-.86,1.82-1.17,2.76l-.63,.5-.84-1.13-.12-.5c-.13-.68-.14-1.38-.09-2.07l.19-1.24h-.12c-.34,.69-.52,1.45-.61,2.2-.15,1.23,.21,2.5,.99,3.47l1.03,.75Z"/>
  <path class="cls-1" d="M49.48,20.55l.02,1.62,.42-.5c.35-.85,.14-1.82-.27-2.62l-.62-.51-.37,.91,.3,.35,.52,.76Z"/>
  <path class="cls-1" d="M64.93,28.87c-.01-.6-.1-1.22-.1-1.82,.72,1.03,1.46,2.05,2.17,3.07l.18,.6c.11,.72,.2,1.44,.28,2.17,.07,.86,.03,1.72,.01,2.57l.19,.42,.36-1.1,.08-1.33c-.07-.69-.05-1.39-.12-2.07,.78,1.04,1.54,2.1,2.25,3.19l.69,1.13h.12s-.09-1.64-.09-1.64c-.34-1.18-1.13-2.13-1.8-3.13-.44-.67-.92-1.32-1.34-2.01-.09-.78-.15-1.59-.21-2.37-.1-1.14-.3-3.48-.3-3.48l-.02-1.03,.24,.14,.19-.07,.02-.6c-.2-.71-.37-1.43-.57-2.14l-.46-1.09-.37,.17-.59,1.02,.07,.81c.04,1.44,.2,2.88,.38,4.33,.13,.88,.29,1.76,.41,2.65-.65-.91-1.31-1.81-1.95-2.71-.03-.95-.14-1.89-.17-2.85l.43,.16-.05-.43c-.29-.92-.62-1.81-.96-2.71l-.33-.28-.7,1.21,.21,1.1c.02,.59,.14,1.19,.17,1.78l-1.02-1.45h.35l.12-.17-.17-.35c-.55-.56-1.19-1.02-1.67-1.64l-.67-.29-.04,.31-.04,1.4,.62,1.3c.93,1.13,1.8,2.32,2.72,3.45l.11,1.18c.03,.58,.1,1.16,.11,1.76l.03,.04c.12,2.1,.33,4.19,.22,6.29l-.39,1.16-.76,.45-.94-.4-1.21-1.42h-.69s-.79,1.09-.79,1.09c-.55,.91-1.05,1.85-1.5,2.82l-.55,.76h-.66s-.49-.83-.49-.83l.56,.23,.78-.59c.41-.73,.66-1.55,.76-2.38,.13-1.22-.15-2.42-.37-3.61-.06-.77-.19-1.53-.25-2.32l-.03-.03c-.13-1.19-.28-2.37-.42-3.57-.08-.9-.22-1.78-.26-2.68l.91-.39-.16-1.04c-.42-.63-.67-1.35-.92-2.07l-.45-1.24-.64-.43-.72,.35-.74,1.46c-.13,.72,.04,1.43,.21,2.13,.18,.64,.23,1.3,.31,1.95,.23,1.67,.43,3.34,.66,5,.13,1.07,.27,2.15,.41,3.21,.16,1.51,.54,3.03,.36,4.55l-.21,.95-.19-1.37-.07-1.63-.12-.02-.39,1.38c-.18,.95-.4,1.97-.11,2.92,.18,.64,.76,1.02,1.24,1.43l.88,.44,.59-.38c.59-.77,1.05-1.64,1.45-2.53l.86-1.5,.38-.22,.69,.87c.52,.56,1.27,.85,2.03,.88,.66,.02,1.25-.39,1.62-.93,.53-.79,.59-1.76,.62-2.69l-.03-.04c-.06-1.74-.16-3.48-.27-5.22Z"/>
  <polygon class="cls-1" points="49.88 23.37 49.62 24.19 49.39 24.29 49.12 23.66 49.01 23.63 49.17 24.86 49.95 24.49 50.49 24.82 50.94 24.68 51.02 24.47 50.94 23.16 50.79 23.19 50.7 23.41 50.29 24.24 49.98 23.47 49.88 23.37"/>
  <path class="cls-1" d="M52.12,24.11c.19,1.6,.36,3.22,.47,4.82,.12,1.6,.16,3.2,.27,4.81,.07,.62,.08,1.25,.05,1.88-.06,.88-.49,1.71-1.1,2.35-.77,.84-1.61,1.65-2.64,2.18l-1.63,.65v.15l1.15,.07c.69-.07,1.42-.08,2.04-.43,.77-.45,1.3-1.17,1.87-1.83,.74-.82,1.05-1.93,1.17-3.01,.11-1.06,.13-2.13,.06-3.2-.03-1.72-.16-3.44-.35-5.15-.18-1.79-.45-3.6-.37-5.42l.56,.15-.05-.54-.43-1.52-.11-.44-.02-.05-.33-.91-.31,.12-.78,.83-.12,.87,.17,.47c.15,1.04,.28,2.09,.42,3.13Z"/>
</svg>