<?xml version="1.0" encoding="UTF-8"?>
<svg id="Layer_1" data-name="Layer 1" xmlns="http://www.w3.org/2000/svg" viewBox="0 0 80 80">
  <defs>
    <style>
      .cls-1 {
        fill: #e21f26;
      }

      .cls-2 {
        fill: #038443;
      }

      .cls-3 {
        fill: #faed44;
      }
    </style>
  </defs>
  <path class="cls-2" d="M18.14,.09C7.97,1.03,0,9.58,0,20V60c0,10.42,7.97,18.97,18.14,19.91V.09Z"/>
  <path class="cls-3" d="M20,80H60c.63,0,1.25-.04,1.86-.09V.09c-.61-.06-1.23-.09-1.86-.09H20c-.63,0-1.25,.04-1.86,.09V79.91c.61,.06,1.23,.09,1.86,.09Zm16.62-43.21l3.38-10.41,3.39,10.41h10.94l-8.86,6.43,3.38,10.4-8.85-6.43-8.86,6.43,3.39-10.4-8.85-6.43h10.94Z"/>
  <path class="cls-1" d="M80,60V20C80,9.58,72.03,1.03,61.86,.09V79.91c10.17-.94,18.14-9.49,18.14-19.91Z"/>
  <polygon class="cls-2" points="31.14 53.62 40 47.19 48.85 53.62 45.47 43.22 54.33 36.79 43.39 36.79 40 26.38 36.62 36.79 25.68 36.79 34.53 43.22 31.14 53.62"/>
</svg>