<?xml version="1.0" encoding="UTF-8"?>
<svg id="Layer_1" data-name="Layer 1" xmlns="http://www.w3.org/2000/svg" viewBox="0 0 80 80">
  <defs>
    <style>
      .cls-1 {
        fill: #fff;
      }

      .cls-2 {
        fill: #ed2d43;
      }
    </style>
  </defs>
  <path class="cls-2" d="M60,0H20C8.95,0,0,8.95,0,20v19.99H80V20c0-11.05-8.95-20-20-20ZM23.95,19.35l-2.44-1.78-2.45,1.78,.94-2.87-2.45-1.78h3.02l.94-2.87,.93,2.87h3.02l-2.45,1.78,.93,2.87Zm-4.45,14.82c-8.86,0-16.05-7.18-16.05-16.04S10.65,2.09,19.51,2.09c1.23,0,2.43,.15,3.59,.41-5.89,2.75-9.97,8.7-9.97,15.63s4.09,12.88,9.97,15.63c-1.16,.26-2.36,.41-3.59,.41Zm7.94-4.2l-2.45-1.78-2.44,1.78,.93-2.87-2.45-1.78h3.02l.93-2.87,.93,2.87h3.03l-2.44,1.78,.93,2.87Zm.7-17.3l.93-2.87-2.45-1.77h3.02l.94-2.88,.92,2.88h3.03l-2.45,1.77,.93,2.87-2.43-1.78-2.45,1.78Zm10.39,17.3l-2.45-1.78-2.44,1.78,.94-2.87-2.45-1.78h3.02l.93-2.87,.94,2.87h3.03l-2.45,1.78,.93,2.87Zm3.42-10.63l-2.45-1.78-2.44,1.78,.93-2.87-2.44-1.78h3.02l.93-2.87,.93,2.87h3.02l-2.45,1.78,.94,2.87Z"/>
  <path class="cls-1" d="M0,60c0,11.05,8.95,20,20,20H60c11.05,0,20-8.95,20-20v-20.01H0v20.01Z"/>
  <path class="cls-1" d="M13.12,18.13c0-6.93,4.09-12.88,9.97-15.63-1.16-.26-2.36-.41-3.59-.41C10.65,2.09,3.46,9.27,3.46,18.13s7.19,16.04,16.05,16.04c1.23,0,2.43-.15,3.59-.41-5.89-2.75-9.97-8.71-9.97-15.63Z"/>
  <polygon class="cls-1" points="32.1 9.81 34.55 8.04 31.51 8.04 30.59 5.16 29.65 8.04 26.63 8.04 29.08 9.81 28.14 12.68 30.59 10.9 33.03 12.68 32.1 9.81"/>
  <polygon class="cls-1" points="40.44 14.7 39.51 11.84 38.58 14.7 35.56 14.7 38 16.48 37.06 19.35 39.51 17.58 41.95 19.35 41.01 16.48 43.46 14.7 40.44 14.7"/>
  <polygon class="cls-1" points="22.45 14.7 21.51 11.84 20.57 14.7 17.56 14.7 20 16.48 19.07 19.35 21.51 17.58 23.95 19.35 23.02 16.48 25.47 14.7 22.45 14.7"/>
  <polygon class="cls-1" points="37.02 25.33 36.09 22.46 35.16 25.33 32.14 25.33 34.59 27.11 33.65 29.98 36.09 28.2 38.53 29.98 37.61 27.11 40.05 25.33 37.02 25.33"/>
  <polygon class="cls-1" points="25.93 25.33 25 22.46 24.07 25.33 21.05 25.33 23.49 27.11 22.56 29.98 25 28.2 27.45 29.98 26.52 27.11 28.96 25.33 25.93 25.33"/>
</svg>