<?xml version="1.0" encoding="UTF-8"?>
<svg id="Layer_1" data-name="Layer 1" xmlns="http://www.w3.org/2000/svg" viewBox="0 0 80 80">
  <defs>
    <style>
      .cls-1 {
        fill: #fff;
      }

      .cls-2 {
        fill: #bc715f;
      }

      .cls-3 {
        fill: #f9b60f;
      }

      .cls-4 {
        fill: #dc171d;
      }

      .cls-5 {
        fill: #008830;
      }

      .cls-6 {
        fill: #62afe1;
      }

      .cls-7 {
        fill: #f9d90f;
      }

      .cls-8 {
        fill: #012a87;
      }
    </style>
  </defs>
  <path class="cls-8" d="M7.85,75.86c3.37,2.59,7.57,4.14,12.15,4.14H60c11.05,0,20-8.95,20-20v-20h-24.33L7.85,75.86Z"/>
  <path class="cls-4" d="M60,0H20C15.42,0,11.22,1.55,7.85,4.14L55.67,40h24.33V20c0-11.05-8.95-20-20-20Z"/>
  <path class="cls-1" d="M7.85,4.14C3.09,7.79,0,13.53,0,20V60c0,6.47,3.09,12.21,7.85,15.86L55.67,40,7.85,4.14Zm4.14,23.18l-.02-.02h.03s.81-.46,.68-1.13c-.06-.01-.12-.03-.16-.04,0,0-2.13,.48-2.02,.07,0,0,0,0,0,0h0s0,0,0,0c.12-.29,.88-.9,2.91-1.16,0-.01,0-.02,0-.04v-.03s.02,0,.02,0c0,0,.86-.07,.94-.78v-.03s.03,0,.03,0c0,0,.86,.13,1.24-.57v-.02s.03,0,.03,0c0,0,.84,.16,1.06-.42v-.02s.03,0,.03,0c0,0,.83,.28,1.3-.4v-.02s.03,0,.03,0c0,0,.86,.34,1.21-.3l.02-.04,.02,.04c.35,.64,1.21,.3,1.22,.3h.02s.01,0,.01,0c.48,.68,1.29,.41,1.3,.41h.02s0,.02,0,.02c.23,.57,1.06,.42,1.07,.42h.02s0,.01,0,.01c.37,.7,1.23,.57,1.24,.57h.03s0,.02,0,.02c.04,.3,.21,.52,.5,.66,.22,.11,.44,.12,.44,.12h.03s0,.03,0,.03c0,.1,.02,.18,.04,.27,1.3,.01,2.64,.27,4.02,1.25,.32,.23-.82,.27-1.7-.1,0,0-.77,.04-1.62,.04,.09,.52,.68,.84,.69,.85h.03s-.02,.04-.02,.04c-.33,.49-.17,.95-.09,1.11,.78,.04,1.63,.09,2.4-.02,.97-.24,1.95-.46,2.82-.94-.71,4.42-2.14,9.35-.48,13.74,.08,.51,.22,.99,.25,1.53,.39,1.54,.51,3.62-.39,4.98v.14c-1.66,2.46-5.02,2.29-7.74,2.61-1.51,.16-3.04,.46-4.08,1.55-.31-.31-.65-.61-1.13-.8-.23-.1-.62-.25-.95-.32-1.73-.38-3.66-.68-5.53-.79-1.93-.22-4.04-1.33-4.64-3.25-1.01-3.99,1.45-7.39,.9-11.43-.25-2.73-.76-5.4-1.22-8.01,1.45,.65,2.96,1.14,4.62,1.03l.14-.02c.16-.03,.33-.04,.49-.06,.08-.2,.18-.62-.13-1.06Zm22.67,24.65c-1.48,1.67-3.51,2.72-6.04,3.15v.87s0,0,0,0c-2.43,1.34-7.98,1.6-9.12,1.6h-.1c-1.15,0-6.75-.26-9.2-1.61h-.01v-.89c-2.52-.43-4.56-1.48-6.06-3.16-.5-.56-.9-1.18-1.25-1.82,0,0,0-.02-.01-.02-1.44-2.65-1.74-5.82-1.46-8.04h.03s0-.02,0-.02h.03s.8,.06,.8,.06c.08-.82,.26-1.82,.64-2.95h.03s0-.01,0-.01l2.52,.8v.02s-.76,4.06-.76,4.06l-.68,.11c.15,1.12,.47,2.51,1.19,3.83,1.53,2.81,4.3,4.32,8.23,4.5h.03s-.04,.43-.04,.43c1.34,.56,3.87,.98,6.03,.98h.05c2.14,0,4.56-.41,5.89-.97l-.05-.43h.03c3.93-.18,6.69-1.69,8.2-4.49,.71-1.32,1.01-2.71,1.15-3.83l-.68-.11v-.02s-.8-4.06-.8-4.06h.02s2.49-.79,2.49-.79v.02s0,0,0,0v0s.03,0,.03,0c.39,1.13,.58,2.13,.67,2.95l.83-.06v.02s.03,0,.03,0c.29,2.23,.02,5.4-1.4,8.04,0,0,0,0,0,.01-.35,.65-.74,1.27-1.24,1.83Z"/>
  <path class="cls-7" d="M24.26,24.21c-.15,.02-.9,.06-1.26-.59-.13,.02-.86,.11-1.1-.43-.14,.04-.87,.21-1.32-.42-.13,.05-.89,.28-1.24-.29-.35,.57-1.1,.34-1.24,.29-.45,.63-1.18,.45-1.32,.41-.23,.54-.96,.45-1.09,.43-.36,.65-1.1,.6-1.26,.59-.09,.66-.81,.78-.96,.8,0,0,0,0,0,.01,1.15-.14,2.69-.18,4.74,.01,0,0,.97,.59,1.55,.52,.33-.04-.19,.02-.62-.33-.43-.35-.53-1.08,.47-1.06,.99,.03,4.68,.23,4.75,.57,.06,.34-1.95,.48-2.7,.46-.75-.02-.67,.36,.08,.33,1.13-.04,2.31-.25,3.53-.25-.01-.08-.04-.15-.03-.25-.15-.02-.87-.14-.97-.8Z"/>
  <path class="cls-7" d="M19.33,28.73c2.03-1.15,4.67-.6,6.96-.37h0l.29,.08c-.08-.19-.21-.64,.1-1.11-.12-.07-.61-.39-.69-.88-.64,0-1.31-.02-1.74-.09,0,0-.79,.64-1.83,.58,.13,.33-.38,1.58-3.63,.64-.54,.16-2.49,.49-2.28-.09-.51,0-1.42,.17-1.55-.13-.13-.29,1.59-.72,1.89-1.03,0,0-3.08,.03-4.1-.16,.1,.63-.55,1.06-.69,1.14,.29,.43,.21,.84,.13,1.06,.77-.08,1.57-.11,2.28-.24,1.62-.16,3.52-.21,4.88,.6Z"/>
  <path d="M12.18,28.37c.08-.21,.16-.62-.13-1.06,.14-.08,.79-.51,.69-1.14-.02,0-.04,0-.06,0,.13,.67-.67,1.11-.68,1.12h-.03s.02,.04,.02,.04c.31,.44,.21,.86,.13,1.06,.02,0,.04,0,.06,0Z"/>
  <path d="M13.47,25.01s0,0,0-.01c.15-.02,.87-.14,.96-.8,.15,.02,.9,.06,1.26-.59,.13,.02,.86,.11,1.09-.43,.14,.04,.88,.21,1.32-.41,.13,.05,.88,.28,1.24-.29,.36,.57,1.11,.34,1.24,.29,.45,.63,1.18,.46,1.32,.42,.24,.54,.97,.45,1.1,.43,.36,.65,1.11,.6,1.26,.59,.1,.66,.82,.79,.97,.8,0,.1,.02,.17,.03,.25,.02,0,.04,0,.06,0-.01-.09-.04-.17-.04-.27v-.03s-.02,0-.02,0c0,0-.22-.02-.44-.12-.3-.14-.47-.36-.5-.66v-.03s-.03,0-.03,0c0,0-.87,.13-1.24-.57v-.02s-.03,0-.03,0c0,0-.84,.16-1.07-.42v-.02s-.03,0-.03,0c0,0-.82,.27-1.3-.41v-.02s-.03,0-.03,0c0,0-.86,.34-1.22-.3l-.02-.04-.02,.04c-.35,.64-1.2,.3-1.21,.3h-.02s-.01,0-.01,0c-.47,.68-1.29,.41-1.3,.4h-.02s0,.02,0,.02c-.22,.58-1.05,.42-1.06,.42h-.02s0,.01,0,.01c-.37,.7-1.23,.57-1.24,.57h-.03s0,.02,0,.02c-.08,.72-.93,.78-.94,.78h-.03s0,.03,0,.03c0,.01,0,.02,0,.04,.02,0,.04,0,.06,0Z"/>
  <path d="M25.97,26.45c.08,.49,.57,.81,.69,.88-.3,.47-.18,.91-.1,1.11h.04s.02,.01,.02,.01c-.08-.16-.24-.62,.09-1.11l.02-.02h-.03s-.6-.34-.69-.86c-.02,0-.04,0-.06,0Z"/>
  <path class="cls-4" d="M26.57,28.43l-.29-.08h0c-2.29-.23-4.92-.77-6.96,.37-1.36-.8-3.26-.75-4.88-.6-.71,.13-1.51,.15-2.28,.24-.02,0-.04,0-.06,0-.17,.02-.33,.04-.49,.06l-.14,.02c-1.66,.11-3.17-.38-4.62-1.03,.46,2.61,.97,5.28,1.22,8.01,.55,4.04-1.91,7.44-.9,11.43,.6,1.92,2.71,3.03,4.64,3.25,1.87,.11,3.8,.42,5.53,.79,.33,.07,.72,.22,.95,.32,.48,.2,.82,.49,1.13,.8,1.04-1.09,2.57-1.39,4.08-1.55,2.72-.32,6.07-.15,7.74-2.61v-.14c.9-1.36,.78-3.44,.39-4.98-.03-.54-.17-1.01-.25-1.53-1.66-4.39-.24-9.32,.48-13.74-.87,.48-1.85,.7-2.82,.94-.77,.1-1.62,.06-2.4,.02,0,0-.02,0-.02,0h-.04Zm3.46,1.15c-.57,3.72-1.67,7.61-.32,11.35h0c-.01,.29,.15,.52,.2,.78,.32,1.92,.62,4.46-1.35,5.65-2.18,1.39-5.05,.79-7.58,1.53-.5,.14-1.2,.6-1.56,.93-.23-.15-.46-.38-.75-.52-2.08-1.11-4.78-.74-7.13-1.33-1.18-.37-2.41-1.29-2.71-2.5-.77-3.17,1.07-5.86,.85-9-.14-2.4-.54-4.7-1.1-6.95,1.84,.85,3.96,1,6.02,.59,1.53-.21,3.31-.22,4.74,.43,.79-.34,1.71-.49,2.56-.59,1.62,.16,3.35,.45,5.02,.44,1.11-.06,2.12-.38,3.09-.81Z"/>
  <path class="cls-6" d="M19.36,30.56c-1.43-.65-3.21-.64-4.74-.43-2.06,.41-4.19,.27-6.02-.59,.55,2.25,.96,4.55,1.1,6.95,.22,3.14-1.62,5.84-.85,9,.3,1.21,1.53,2.13,2.71,2.5,2.35,.6,5.05,.23,7.13,1.33,.29,.14,.52,.37,.75,.52,.35-.33,1.05-.79,1.56-.93,2.53-.73,5.39-.14,7.58-1.53,1.97-1.19,1.67-3.73,1.35-5.65-.06-.27-.21-.49-.2-.78h0c-1.35-3.74-.25-7.63,.32-11.35-.97,.43-1.98,.75-3.09,.81-1.67,.01-3.4-.28-5.02-.44-.85,.09-1.77,.25-2.56,.59Zm-10.24,.14c.87-.33,1.91-.09,2.54,.57h0c.08-.11,.11-.29,.27-.29,.36,.1,.6,.75,1.05,.33,.16-.03,.22,.18,.35,.2,.08,.37,.38-.07,.6-.05,.47-.21,1.05-.26,1.6-.15,.02,.36-.26,.75-.62,.96,0,.36,.33,.59,.33,.96-.06,.14,0,.35-.21,.39-.26-.05-.52-.07-.73-.22-.03-.03-.05-.08-.1-.06-.03,.12,.16,.24,.24,.36-.13,.22-.35,.02-.53,.02-.05,.13,0,.29-.13,.37-.23,0-.28-.26-.42-.38-.15,.16,.1,.25,.14,.38-.09,.47-.08,.93-.55,1.24l-.32,.16c-.09-.24-.03-.6-.09-.85-.19,.3-.33,.57-.61,.83-.32-.11-.51-.48-.58-.8-.13-.37-.06-.8,.23-1.07-.1-.19-.44-.15-.48-.42-.5-.33-.78,.58-1.11,.11-.11-.44,.02-.98,.34-1.31-.07-.18-.31-.13-.44-.24-.32-.27-.78-.55-.75-1.04Zm14.84,4.32c.42-.54,1.31-1.11,1.77-1.28,0-.58,.05-2.6,.49-3.03,.09-.09,.17-.1,.24-.1h0s0,0,0,0c.08,0,.16,.03,.23,.1,.46,.45,.51,2.53,.51,3.03,.47,.17,1.36,.73,1.79,1.28l.14,.19h-5.32s.14-.19,.14-.19Zm-2.37-.34l5.62,3.63h-.7l.02,3.31h.64s0,1.02,0,1.02h-.26l.02,3.53h1.01s0-.04,0-.04l.15,.05-.02,.11h.09s0,1.21,0,1.21l-17.44-.02v-1.32s.11,0,.11,0h1.04s-.01-3.52-.01-3.52h-.3v-1.03h.64s-.02-3.3-.02-3.3h-.69s5.58-3.62,5.58-3.62v-1.61h-.76l3.01-2.17,3.03,2.17h-.76v1.62Z"/>
  <polygon class="cls-1" points="20.27 40.2 20.26 39.06 20.38 39.06 20.38 38.95 21.44 38.95 21.44 40.2 21.77 40.2 21.76 38.64 19.93 38.64 19.94 40.2 20.27 40.2"/>
  <polygon class="cls-1" points="17.39 40.2 17.38 39.06 17.5 39.06 17.5 38.95 18.56 38.95 18.56 40.2 18.89 40.2 18.89 38.64 17.05 38.64 17.06 40.2 17.39 40.2"/>
  <rect class="cls-1" x="23.97" y="39.18" width=".72" height="1.27"/>
  <polygon class="cls-1" points="18.33 40.2 18.33 39.18 17.61 39.18 17.62 40.2 18.33 40.2"/>
  <polygon class="cls-1" points="21.21 40.2 21.21 39.18 20.49 39.18 20.5 40.2 21.21 40.2"/>
  <polygon class="cls-1" points="17.92 32.71 20.72 32.71 19.31 31.72 17.92 32.71"/>
  <path class="cls-1" d="M20.8,34.67v-1.27s-2.96,0-2.96,0v1.27s2.96,0,2.96,0Zm-.63-1.13v.98s-1.68,0-1.68,0v-.98s1.68,0,1.68,0Z"/>
  <polygon class="cls-1" points="19.94 34.29 19.94 33.77 18.71 33.77 18.71 34.29 19.94 34.29"/>
  <polygon class="cls-1" points="13.87 39.17 13.88 40.44 14.6 40.44 14.59 39.17 13.87 39.17"/>
  <path class="cls-1" d="M13.31,38.63v2.35h1.85v-2.35s-1.85,0-1.85,0Zm1.51,2.04h-1.18s0-1.61,0-1.61h.12v-.12h1.06v1.73Z"/>
  <path class="cls-1" d="M21.35,32.95h-4.07s.01,1.86,.01,1.86l-5.04,3.27h.15s.02,3.49,.02,3.49h3.9s0-1.37,0-1.37h.52s0-1.79,0-1.79h2.29s0,1.79,0,1.79h.59s0-1.79,0-1.79h2.29s.01,1.79,.01,1.79h.51s0,.11,0,.11v1.26s3.77,0,3.77,0l-.02-3.5h.16l-5.07-3.27v-1.86Zm-3.75,.22h3.41s0,1.73,0,1.73h-3.41s0-1.73,0-1.73h0Zm-2.22,8l-.23,.12v-.07h-2.07v-2.81s2.28,0,2.28,0l.02,2.76Zm10.1-.06h-.11v.12h-2.18v-2.81s2.28,0,2.28,0v2.69Zm-.89-3.32v.11s-10.84,0-10.84,0l3.65-2.68h3.86s3.4,2.48,3.4,2.48l-.07,.09Z"/>
  <polygon class="cls-1" points="17.47 35.43 14.45 37.66 24.23 37.67 21.18 35.44 17.47 35.43"/>
  <polygon class="cls-1" points="17.28 32.83 17.28 32.88 19.25 31.49 19.31 31.58 19.38 31.49 21.35 32.88 21.35 32.84 21.63 32.84 19.31 31.18 17.01 32.83 17.28 32.83"/>
  <path class="cls-1" d="M23.42,40.99h1.84v-2.35h-1.84v2.35Zm.45-2.04h1.06v1.73s-1.17,0-1.17,0v-1.61s.11,0,.11,0v-.11Z"/>
  <path d="M19.31,30.9l-3.01,2.17h.76v1.61s-5.57,3.62-5.57,3.62h.69s.02,3.31,.02,3.31h-.64s0,1.02,0,1.02h.3s.01,3.53,.01,3.53h-1.04s-.12,0-.12,0v1.32s17.45,.02,17.45,.02v-1.21s-.1,0-.1,0l.02-.11-.15-.05v.04h-1.01s-.02-3.53-.02-3.53h.26v-1.02s-.65,0-.65,0l-.02-3.31h.7l-5.62-3.63v-1.62s.75,0,.75,0l-3.03-2.17Zm6.96,7.18l.02,3.5h-3.77s0-1.26,0-1.26v-.11s-.52,0-.52,0v-1.79s-2.3,0-2.3,0v1.79s-.58,0-.58,0v-1.79s-2.3,0-2.3,0v1.79s-.51,0-.51,0v1.37s-3.89,0-3.89,0l-.02-3.49h-.15s5.04-3.27,5.04-3.27v-1.86s4.06,0,4.06,0v1.86s5.08,3.27,5.08,3.27h-.16Zm.42,8.15h.11s0,0,0,0h-.57s-.02-3.59-.02-3.59h.46l.02,3.59Zm-14.61-3.59h.47s-.04,3.57-.04,3.57h-.52s.11,0,.11,0v-3.57Zm-.32-.81h4.54s.02,4.38,.02,4.38h-3.59s.04-3.79,.04-3.79h0s0-.03,0-.03h-.93s0,0,0,0h-.07v-.57Zm5.27-3.19h1.83s0,1.56,0,1.56h-.33s0-1.25,0-1.25h-1.06v.11h-.11s0,1.13,0,1.13h-.33s0-1.56,0-1.56Zm2.88,0h1.83s0,1.56,0,1.56h-.33s0-1.25,0-1.25h-1.06v.11h-.11s0,1.13,0,1.13h-.33s0-1.56,0-1.56Zm-3.39,1.79h.16v.06l-.1,.06,.09,.17c-.15,.22-.06,.48,0,.6l-.15,.27v-1.15Zm1.07-1.25h.71v1.02s-.71,0-.71,0v-1.02Zm1.14,2.22l.02-.03,.02,.03h-.03Zm.01-.17h0c-.03-.05-.14-.29,0-.44h0s.15,.21,0,.44Zm.03-.63l-.02,.04-.02-.04h.05Zm-.99,.63h0s-.14-.29,0-.44h0s.15,.2,0,.44Zm-.02,.16l.02-.03,.02,.03h-.03Zm.02-.75l-.02-.05h.05l-.02,.05Zm-.86-.05l-.02,.04-.02-.04h.05Zm-.04,.8l.02-.03,.02,.03h-.03Zm.01-.16h0s-.14-.29,0-.44h0s.14,.21,0,.44Zm-.38,.39h.78l-.17-.33c.12-.23,.07-.46,0-.59l.16-.29h.29v.06l-.1,.05,.09,.17c-.14,.22-.06,.48,0,.6l-.18,.32h.8l-.17-.33c.13-.24,.07-.46,0-.59l.15-.29h.21s.15,.28,.15,.28c-.15,.22-.06,.48,0,.6l-.17,.32h.8s-.17-.32-.17-.32c.12-.23,.07-.46,0-.59l.16-.29h.5v.06l-.1,.06,.09,.17c-.15,.22-.06,.48,0,.6l-.18,.32h.81l-.18-.33c.12-.23,.07-.45,0-.58l.16-.29h.37v.06l-.1,.06,.09,.17c-.15,.22-.06,.48,0,.6l-.17,.32h.8l-.17-.33c.12-.23,.07-.45,0-.58l.16-.29h.21s.15,.28,.15,.28c-.15,.22-.06,.48,0,.6l-.18,.32h.8l-.16-.33c.13-.23,.07-.46,0-.59l.16-.29h.1s0,1.47,0,1.47h-5.75s0-.28,0-.28Zm3.95-2.45h.72v1.02s-.71,0-.71,0v-1.02Zm1.31,1.62h0s.15,.21,0,.43h0s-.14-.28,0-.43Zm.03-.2l-.02,.04-.02-.04h.05Zm-.02,.76l.02,.04h-.04l.02-.04Zm-1.91-.76l-.02,.04-.02-.04h.05Zm-.04,.8l.02-.03,.02,.03h-.04Zm.02-.17h0c-.03-.05-.14-.29,0-.43h0s.14,.21,0,.43Zm.97,0h0s-.14-.28,0-.43h0s.14,.21,0,.43Zm-.02,.17l.02-.04,.02,.04h-.04Zm.02-.76l-.02-.04h.05l-.02,.04Zm-4.3,1.48h.46s.02,4.01,.02,4.01h-.46s-.01-4.01-.01-4.01Zm.69,0h4.33s.02,4.02,.02,4.02h-4.33s-.02-4.02-.02-4.02Zm4.58,4.02l-.02-4.02h.5s.02,4.02,.02,4.02h-.5Zm-9.18,.1h0s0,0,0,0Zm15.31,.14v.86s-16.98-.02-16.98-.02v-.86s16.98,.01,16.98,.01Zm-1.81-.12h0s0,0,0,0Zm-.15-3.86l.03,3.82h-3.47s-.02-4.38-.02-4.38h4.41s0,.56,0,.56h-.96Zm-4.35-9.57h-.27v.04s-1.97-1.4-1.97-1.4l-.07,.09-.07-.09-1.96,1.39v-.04h-.27l2.3-1.66,2.31,1.66Zm-.91-.12h-2.8s1.4-.99,1.4-.99l1.41,.99Z"/>
  <polygon class="cls-1" points="27.94 47.26 27.93 46.39 10.95 46.38 10.95 47.24 27.94 47.26"/>
  <polygon class="cls-1" points="24.71 44.65 24.7 43.38 23.99 43.38 24 44.65 24.71 44.65"/>
  <polygon class="cls-1" points="14.61 44.64 14.61 43.37 13.89 43.37 13.89 44.64 14.61 44.64"/>
  <path class="cls-1" d="M15.17,45.19v-2.35h-1.85v2.35s1.85,0,1.85,0Zm-.34-2.04v1.73s-1.17,0-1.17,0v-1.73s1.17,0,1.17,0Z"/>
  <path class="cls-1" d="M25.27,45.19v-2.35s-1.84,0-1.84,0v2.35h1.84Zm-1.4-1.93v-.11h1.06v1.72s-1.16,0-1.16,0v-1.61s.1,0,.1,0Z"/>
  <path class="cls-1" d="M11.85,42.4h.93s0,.03,0,.03h0s-.04,3.78-.04,3.78h3.59s-.02-4.38-.02-4.38h-4.54s0,.56,0,.56h.07s0,0,0,0Zm3.54,.21v2.69s-.1,0-.1,0v.11h-2.18s-.01-2.81-.01-2.81h2.3Z"/>
  <path class="cls-1" d="M22.52,41.84l.02,4.38h3.47s-.03-3.82-.03-3.82h.96s0-.56,0-.56h-4.41Zm2.96,.77v2.81s-2.28,0-2.28,0v-2.81s2.28,0,2.28,0Z"/>
  <polygon class="cls-1" points="26.22 42.64 26.24 46.23 26.81 46.23 26.81 46.23 26.7 46.23 26.68 42.64 26.22 42.64"/>
  <polygon class="cls-1" points="12.51 46.21 12.55 42.65 12.08 42.64 12.1 46.21 11.99 46.21 12.51 46.21"/>
  <path d="M23.75,40.68h1.17v-1.73h-1.06v.11h-.12s0,1.61,0,1.61Zm.94-1.5v1.27s-.71,0-.71,0v-1.27s.71,0,.71,0Z"/>
  <path d="M13.08,38.4v2.81h2.08v.07s.23-.12,.23-.12l-.02-2.76h-2.29Zm2.08,2.57h-1.84v-2.35s1.82,0,1.82,0v2.35Z"/>
  <path d="M13.76,38.94v.11h-.12s0,1.61,0,1.61h1.18s0-1.72,0-1.72h-1.06Zm.84,1.5h-.72s0-1.27,0-1.27h.72v1.27Z"/>
  <path d="M23.19,41.22h2.18v-.11h.11s-.01-2.7-.01-2.7h-2.29v2.81Zm2.07-.23h-1.84v-2.35s1.83,0,1.83,0v2.35Z"/>
  <path d="M14.84,44.87v-1.73h-1.18v1.73h1.18Zm-.23-1.5v1.27s-.71,0-.71,0v-1.27s.71,0,.71,0Z"/>
  <path d="M15.29,45.42v-.11h.11s-.01-2.7-.01-2.7h-2.3v2.81s2.19,0,2.19,0Zm-.13-2.58v2.35s-1.82,0-1.82,0v-2.35s1.82,0,1.82,0Z"/>
  <path d="M25.5,45.42v-2.81s-2.3,0-2.3,0v2.81h2.3Zm-.24-2.58v2.35s-1.82,0-1.82,0v-2.35s1.82,0,1.82,0Z"/>
  <path d="M24.94,44.88v-1.72h-1.07v.11h-.11s.01,1.61,.01,1.61h1.17Zm-.24-1.49v1.27s-.71,0-.71,0v-1.27s.71,0,.71,0Z"/>
  <polygon class="cls-1" points="17.79 41.4 17.83 41.4 17.81 41.36 17.79 41.4"/>
  <path class="cls-1" d="M17.81,40.8c-.14,.15-.03,.39,0,.44h0c.16-.24,.01-.44,0-.45h0Z"/>
  <polygon class="cls-1" points="16.91 41.4 16.94 41.4 16.93 41.36 16.91 41.4"/>
  <polygon class="cls-1" points="18.76 41.4 18.79 41.4 18.78 41.37 18.76 41.4"/>
  <polygon class="cls-1" points="20.82 41.4 20.86 41.4 20.84 41.37 20.82 41.4"/>
  <polygon class="cls-1" points="18.8 40.6 18.75 40.6 18.78 40.64 18.8 40.6"/>
  <polygon class="cls-1" points="19.86 41.4 19.89 41.4 19.87 41.37 19.86 41.4"/>
  <path class="cls-1" d="M21.8,41.25h0c.15-.24,.02-.43,0-.45h0c-.15,.16-.03,.4,0,.45Z"/>
  <path class="cls-1" d="M20.84,40.8c-.14,.15-.04,.38,0,.44h0c.15-.23,.03-.41,0-.45h0Z"/>
  <polygon class="cls-1" points="21.81 41.36 21.79 41.4 21.83 41.4 21.81 41.36"/>
  <path class="cls-1" d="M16.7,41.3c-.05-.12-.14-.38,0-.6l-.09-.17,.1-.06v-.06h-.16s0,1.15,0,1.15l.15-.27Z"/>
  <polygon class="cls-1" points="21.79 42.13 21.81 46.15 22.31 46.15 22.29 42.13 21.79 42.13"/>
  <polygon class="cls-1" points="17.01 42.13 16.55 42.13 16.56 46.14 17.03 46.14 17.01 42.13"/>
  <polygon class="cls-1" points="21.56 42.13 17.24 42.13 17.26 46.14 21.58 46.15 21.56 42.13"/>
  <polygon class="cls-1" points="20.84 40.64 20.87 40.6 20.82 40.6 20.84 40.64"/>
  <polygon class="cls-1" points="19.9 40.6 19.85 40.6 19.88 40.64 19.9 40.6"/>
  <path class="cls-1" d="M16.93,40.79h0c-.14,.16-.03,.4,0,.45h0c.15-.23,.02-.42,0-.45Z"/>
  <path class="cls-1" d="M19.88,40.8h0c-.14,.15-.03,.39,0,.45h0c.15-.23,.03-.42,0-.45Z"/>
  <polygon class="cls-1" points="16.95 40.6 16.9 40.6 16.93 40.64 16.95 40.6"/>
  <polygon class="cls-1" points="21.83 40.6 21.79 40.6 21.81 40.65 21.83 40.6"/>
  <path class="cls-1" d="M18.78,40.79h0c-.14,.15-.03,.39,0,.45h0c.15-.23,.02-.43,0-.45Z"/>
  <polygon class="cls-1" points="17.81 40.64 17.84 40.6 17.79 40.6 17.81 40.64"/>
  <path class="cls-1" d="M16.55,41.9h5.75s0-1.47,0-1.47h-.1s-.16,.29-.16,.29c.07,.13,.13,.35,0,.59l.16,.33h-.8l.18-.32c-.05-.12-.14-.38,0-.6l-.15-.28h-.21s-.16,.29-.16,.29c.07,.13,.13,.35,0,.58l.17,.33h-.8l.17-.32c-.05-.12-.14-.38,0-.6l-.09-.17,.1-.06v-.06h-.37s-.16,.29-.16,.29c.07,.13,.12,.35,0,.58l.18,.33h-.81l.18-.32c-.05-.12-.14-.38,0-.6l-.09-.17,.1-.06v-.06h-.5s-.16,.29-.16,.29c.07,.13,.13,.36,0,.59l.17,.33h-.8s.17-.33,.17-.33c-.05-.12-.14-.38,0-.6l-.15-.28h-.21s-.15,.29-.15,.29c.07,.13,.12,.35,0,.59l.17,.33h-.8l.18-.32c-.05-.12-.14-.38,0-.6l-.09-.17,.1-.05v-.06h-.29s-.16,.29-.16,.29c.07,.13,.13,.35,0,.59l.17,.33h-.78v.27Z"/>
  <path d="M17.4,35.2l-3.65,2.68h10.84s0-.1,0-.1l.07-.09-3.4-2.48h-3.86Zm-2.95,2.45l3.03-2.22h3.71s3.05,2.23,3.05,2.23H14.45Z"/>
  <path d="M17.62,34.9h3.41s0,0,0,0v-1.73s-3.42,0-3.42,0h0v1.73Zm3.18-1.5v1.27s-2.95,0-2.95,0v-1.27s2.95,0,2.95,0Z"/>
  <path d="M20.17,34.52v-.98h-1.7v.98h1.7Zm-.23-.75v.52s-1.23,0-1.23,0v-.52s1.23,0,1.23,0Z"/>
  <path class="cls-1" d="M26.98,33.92v-.09c0-1.25-.15-2.67-.45-2.95-.04-.04-.06-.04-.07-.04v-.11s0,.11,0,.11c-.01,0-.04,0-.07,.04-.29,.29-.42,1.73-.42,2.95v.09l-.08,.02c-.35,.1-1.12,.57-1.57,1.04h4.35c-.46-.47-1.23-.94-1.59-1.04l-.08-.02Z"/>
  <path d="M29,35.03c-.42-.55-1.32-1.11-1.79-1.28,0-.5-.05-2.58-.51-3.03-.07-.07-.15-.1-.23-.1h0c-.06,0-.15,.01-.24,.1-.45,.44-.49,2.45-.49,3.03-.47,.17-1.35,.73-1.77,1.28l-.14,.18h5.32s-.14-.18-.14-.18Zm-4.69-.05c.45-.47,1.22-.94,1.57-1.04l.08-.02v-.09c0-1.22,.13-2.66,.42-2.95,.03-.03,.06-.04,.07-.04v-.11s0,.11,0,.11c0,0,.03,0,.07,.04,.29,.28,.44,1.7,.45,2.95v.09l.08,.02c.36,.1,1.13,.56,1.59,1.04h-4.35Z"/>
  <path class="cls-7" d="M28.58,55.87v.05s-2.66-.58-2.66-.58c-.08,0-.15,0-.23,0h-.02s0-.02,0-.02l-.26-2.37c-1.34,.56-3.76,.97-5.9,.97h-.05c-2.16,0-4.69-.42-6.04-.98l-.24,2.39h-.02c-.07,0-.15,0-.22,0l-2.65,.58h0s0,0,0,0h0s0,0,0,0h0s0,0,0,0h0s0,0,0,0v-.05s2.4-.53,2.4-.53c-.85-.01-1.66-.09-2.42-.21v.84c2.44,1.34,8,1.6,9.15,1.6,.04,0,.07,0,.1,0,1.13,0,6.65-.26,9.08-1.59v-.83c-.77,.12-1.58,.2-2.43,.21l2.42,.53Zm-10.45-.16c-.09,.09-.21,.13-.38,.12l-.52-.04-.04,.68h0s-.22-.02-.22-.02l.1-1.61,.75,.05c.15,.01,.27,.06,.35,.14,.09,.09,.12,.21,.11,.35,0,.12-.05,.24-.14,.32Zm1.55,.86s-.01-.04-.02-.05c0-.03,0-.07,0-.13v-.27c-.02-.1-.05-.17-.13-.21-.05-.02-.11-.03-.2-.03h-.51s0,.68,0,.68h0s-.22,0-.22,0v-1.61s.78,0,.78,0c.12,0,.23,.02,.31,.06,.15,.07,.23,.19,.23,.38,0,.1-.02,.18-.06,.24-.04,.06-.1,.1-.18,.14,.06,.02,.11,.05,.15,.1,.04,.04,.05,.1,.06,.2v.21c0,.06,.01,.11,.02,.14,.01,.05,.04,.08,.07,.1v.03s-.27,0-.27,0Zm1.9-.3c-.14,.19-.34,.29-.62,.31-.25,.01-.46-.06-.62-.21-.14-.15-.21-.35-.23-.59-.01-.22,.03-.41,.13-.57h0c.13-.21,.34-.31,.62-.33,.3-.01,.52,.07,.67,.25,.12,.13,.18,.31,.2,.53,.01,.25-.04,.44-.15,.62Z"/>
  <path class="cls-7" d="M19.55,55.17s-.11-.03-.19-.04h-.55s0,0,0,0v.55s.52,0,.52,0c.1,0,.19-.02,.25-.06,.06-.04,.09-.12,.09-.22,0-.11-.04-.19-.12-.23Z"/>
  <path class="cls-7" d="M17.93,55.13s-.11-.04-.2-.05l-.44-.02-.04,.56,.45,.02c.1,0,.19,0,.25-.05h0c.07-.04,.1-.11,.11-.21,0-.12-.03-.21-.12-.25Z"/>
  <path class="cls-7" d="M20.89,55.07c-.17,0-.31,.07-.41,.19-.1,.11-.15,.29-.13,.51,.01,.18,.06,.33,.16,.45h0c.1,.12,.26,.17,.46,.16,.2,0,.34-.09,.42-.23,.08-.14,.11-.3,.11-.48-.01-.19-.07-.34-.18-.45-.11-.11-.25-.17-.43-.16Z"/>
  <path class="cls-7" d="M5.39,39.97l-2.45-.78c-.37,1.12-.54,2.1-.62,2.91l1.46,.11,.02-.03,.02,.03h.05s0,.03,0,.03c0,.02,0,.05,0,.07l.79,1.57,.73-3.91Z"/>
  <path class="cls-3" d="M3.87,42.43c.01,.39,.04,.94,.12,1.6l.63-.11-.75-1.49Z"/>
  <polygon points="3.78 42.21 3.82 42.21 3.8 42.18 3.78 42.21"/>
  <path d="M4.69,43.93l-.03-.06-.79-1.57s0,.08,0,.13l.75,1.49-.63,.11s0,.04,0,.05l.67-.12v-.03s.02-.01,.02-.01Z"/>
  <path class="cls-7" d="M1.46,42.09c-.34,2.76,.17,6.97,2.71,9.82,1.99,2.23,4.93,3.36,8.74,3.37l.18-.04h0s0,0,0,0h0s0,0,0,0h0s0,0,0,0h0s0,0,0,0v.04s.02,0,.02,0l.28-2.78c-3.94-.19-6.71-1.71-8.25-4.52-1.23-2.26-1.31-4.75-1.33-5.71l-2.35-.17Zm.62,3.91c-.04-.2,0-.36,.07-.49,.08-.13,.21-.21,.39-.23h0s.04,.2,.04,.2c-.09,.02-.16,.05-.21,.1-.09,.09-.13,.22-.09,.4,.01,.08,.04,.15,.08,.21,.07,.12,.17,.17,.28,.15,.09-.02,.15-.05,.17-.11,.03-.06,.05-.15,.05-.27v-.23c.02-.14,.03-.25,.06-.31,.05-.11,.14-.18,.28-.2,.14-.03,.28,0,.39,.09,.11,.08,.19,.21,.21,.39,.04,.16,.02,.31-.05,.45-.06,.13-.18,.21-.37,.24l-.04-.2c.09-.03,.15-.06,.19-.1,.07-.08,.09-.2,.07-.36-.02-.13-.07-.21-.13-.26-.07-.05-.13-.07-.2-.06-.08,.01-.13,.06-.16,.13-.02,.05-.03,.15-.04,.3v.23c-.02,.11-.03,.2-.07,.26-.06,.12-.16,.19-.3,.21-.18,.03-.32-.01-.43-.13-.1-.11-.17-.25-.2-.42Zm6.5,6.42l.73,.23c.12,.05,.21,.09,.28,.15,.13,.11,.16,.26,.1,.43-.03,.1-.08,.16-.13,.21-.06,.04-.13,.07-.21,.08,.05,.04,.08,.09,.11,.14,.02,.05,.01,.12-.01,.21l-.06,.21c-.02,.05-.03,.1-.03,.13,0,.05,.01,.09,.04,.11l-.02,.04-.26-.08s0-.04,0-.06c0-.02,.02-.06,.03-.12l.07-.26c.03-.1,.01-.18-.05-.23-.03-.03-.09-.06-.18-.09l-.49-.16-.22,.65h0s-.21-.07-.21-.07l.51-1.53Zm-1.56-.86l1.03,.63-.11,.16-.85-.51-.26,.41,.78,.47-.1,.16-.78-.47-.3,.46,.86,.52-.1,.16-1.05-.63h0s.87-1.37,.87-1.37Zm-.76-.66c.1,.1,.15,.21,.15,.33,0,.12-.05,.23-.16,.33-.09,.09-.21,.14-.33,.14-.12,0-.24-.05-.36-.17l-.36-.37-.51,.47h0s-.16-.16-.16-.16l1.21-1.11,.52,.53Zm-1.5-2.06l-1,1.06,1.46-.25,.15,.27-1.46,.77-.1-.18,.86-.45s.08-.04,.15-.08c.07-.03,.15-.07,.22-.11l-1.46,.25-.11-.19,1-1.06-.05,.02s-.09,.04-.16,.09c-.05,.03-.11,.06-.16,.09l-.86,.46-.1-.18h0s0,0,0,0h0s1.46-.77,1.46-.77l.16,.27Zm-.36-.79l-.19,.06-.3-.92-.48,.15,.28,.85-.18,.06-.28-.85-.54,.16,.31,.94-.19,.05-.38-1.14h0l1.59-.48,.37,1.12Z"/>
  <path class="cls-7" d="M2.89,50.13s0-.02-.01-.02c0,0,0,.02,.01,.02Z"/>
  <path class="cls-7" d="M9.31,53.36c.08-.03,.13-.09,.16-.18,.04-.11,.02-.2-.05-.26-.04-.03-.09-.06-.16-.08l-.53-.17h0s-.17,.52-.17,.52l.5,.16c.1,.03,.19,.03,.26,.02Z"/>
  <path class="cls-7" d="M5.86,51.48c.07,.02,.15-.01,.23-.09,.09-.08,.12-.17,.09-.26-.02-.05-.06-.11-.12-.17l-.31-.32-.41,.38,.31,.32c.07,.07,.14,.12,.22,.13Z"/>
  <path class="cls-7" d="M35.74,39.21l-2.44,.77,.76,3.9,.77-1.54s0-.06,0-.09v-.02s.02,0,.02,0h.03s.01-.03,.01-.03l.02,.02,1.47-.1c-.09-.81-.27-1.8-.65-2.91Z"/>
  <path d="M34.73,44.05l-.63-.11,.74-1.47s0-.09,0-.12l-.77,1.54-.76-3.9,2.44-.77c.38,1.12,.56,2.1,.65,2.91h.05c-.09-.82-.28-1.83-.67-2.96h-.02s0-.02,0-.02v.02h0s0-.02,0-.02l-2.49,.79h-.02s.79,4.06,.79,4.06v.02s.68,.11,.68,.11c0-.03,0-.06,.01-.08Zm-.67-.09h0s0,0,0,0Z"/>
  <path class="cls-3" d="M34.73,44.05c.08-.65,.1-1.2,.11-1.58l-.74,1.47,.63,.11Z"/>
  <polygon points="34.9 42.23 34.93 42.23 34.91 42.21 34.9 42.23"/>
  <path class="cls-7" d="M30.35,52.96c.04-.06,.04-.14,0-.24-.04-.11-.11-.17-.2-.18-.05,0-.11,0-.18,.03l-.52,.19,.2,.52,.48-.17c.1-.04,.17-.08,.21-.14Z"/>
  <path class="cls-7" d="M35.9,50.15s0,0,0-.01c0,0,0,0,0,.01Z"/>
  <path class="cls-7" d="M34.62,51.94c2.52-2.84,2.99-7.05,2.64-9.82l-2.36,.16c-.02,.96-.07,3.45-1.28,5.71-1.51,2.82-4.28,4.34-8.21,4.52l.31,2.77h.02v-.04s.19,.04,.19,.04c3.8,0,6.73-1.13,8.7-3.35Zm1.01-7.85l-.02,.2c-.09,0-.16,.02-.21,.05-.09,.05-.15,.16-.16,.32-.01,.13,0,.22,.06,.29,.05,.06,.11,.09,.19,.1,.08,0,.14-.02,.18-.08,.03-.04,.07-.13,.12-.28l.07-.22c.04-.1,.08-.18,.13-.24,.09-.09,.21-.13,.36-.12,.18,.02,.31,.09,.37,.23,.07,.14,.09,.29,.07,.46-.02,.2-.08,.35-.2,.45-.12,.11-.26,.14-.44,.13h0l.02-.2c.09,0,.17-.01,.23-.04,.12-.06,.19-.18,.2-.36,0-.08,0-.16-.02-.23-.03-.13-.11-.21-.23-.22-.09,0-.15,.01-.2,.06-.04,.06-.09,.14-.12,.25l-.07,.21c-.05,.14-.09,.24-.14,.29-.08,.1-.18,.14-.32,.13-.15-.02-.27-.07-.35-.19-.09-.1-.12-.25-.1-.43,.01-.17,.07-.31,.17-.42,.09-.1,.23-.15,.41-.13Zm-.92,2.74l1.5-.51-1.32-.29,.05-.2,1.62,.35-.05,.24-1.5,.52,1.32,.28-.05,.21h0s-1.62-.36-1.62-.36l.05-.25Zm-.23,.8l.19,.07-.37,.89,.46,.18,.35-.82,.18,.07-.34,.82,.52,.21,.38-.9,.19,.07-.46,1.1h0s-1.54-.62-1.54-.62l.45-1.08Zm-.78,1.65l1.43,.83-.12,.19h0s-1.43-.84-1.43-.84l.12-.18Zm-.89,1.2c.15-.17,.33-.24,.53-.23,.19,.01,.36,.09,.53,.24,.12,.11,.23,.24,.3,.38,.11,.25,.07,.47-.12,.68h0s-.45,.49-.45,.49l-1.24-1.08,.45-.48Zm-.87,.83l.11,.16-.83,.53,.28,.41,.76-.49,.1,.16-.76,.49,.31,.45,.84-.54,.11,.16-1.03,.66h0s0,0,0,0h0s-.92-1.34-.92-1.34l1.01-.64Zm-2.05,1.09c.12-.04,.22-.06,.31-.05,.17,.01,.29,.11,.36,.28,.03,.09,.04,.17,.03,.25-.01,.07-.05,.13-.11,.19,.06,0,.12,.02,.17,.05,.05,.03,.09,.09,.12,.17l.08,.2c.03,.05,.05,.09,.07,.12,.03,.04,.06,.06,.1,.06v.03s-.25,.1-.25,.1c-.01-.01-.03-.03-.03-.05-.02-.02-.04-.05-.06-.11l-.11-.25c-.04-.1-.11-.15-.19-.16-.05,0-.11,.01-.2,.04l-.48,.17,.25,.65h0s-.21,.08-.21,.08l-.59-1.52,.72-.26Zm-1.48,2.02c-.09,.07-.21,.11-.36,.14-.19,.03-.37,0-.53-.11-.18-.13-.29-.33-.33-.59-.05-.27,0-.49,.12-.67,.12-.17,.29-.27,.51-.31h0c.15-.02,.29-.02,.41,.03,.18,.06,.3,.19,.38,.39l-.22,.03c-.05-.11-.12-.19-.21-.23-.09-.04-.2-.05-.33-.03-.14,.02-.27,.1-.36,.22-.08,.13-.11,.3-.07,.52,.03,.18,.1,.34,.21,.44,.1,.11,.25,.14,.45,.12,.15-.02,.26-.08,.35-.18,.09-.1,.11-.24,.08-.43l-.52,.08-.03-.18,.72-.11,.14,.85-.14,.02-.09-.2c-.06,.09-.12,.16-.17,.2Z"/>
  <path class="cls-7" d="M33.61,51.75l.26-.29c.05-.06,.09-.11,.11-.15,.03-.08,.04-.17,.02-.27-.03-.08-.06-.15-.13-.24-.04-.05-.08-.09-.12-.12-.15-.13-.3-.21-.44-.22-.14-.02-.27,.04-.39,.17l-.26,.29,.95,.83Z"/>
  <path d="M37.31,42.09h-.03s0-.02,0-.02l-.83,.06h-.05s-1.47,.1-1.47,.1h-.03s-.03,0-.03,0h-.02s0,.03,0,.03c0,.02,0,.06,0,.09,0,.04,0,.08,0,.12,0,.39-.03,.93-.11,1.58,0,.03,0,.05-.01,.08-.14,1.12-.44,2.51-1.15,3.83-1.51,2.81-4.26,4.32-8.2,4.49h-.03s.05,.43,.05,.43c-1.33,.56-3.75,.97-5.89,.97-.02,0-.04,0-.05,0h0c-2.16,0-4.69-.42-6.03-.98l.04-.43h-.03c-3.93-.18-6.7-1.69-8.23-4.5-.72-1.32-1.04-2.71-1.19-3.83l.68-.11,.76-4.06v-.02s-2.51-.8-2.51-.8v.02s-.03,0-.03,0c-.37,1.13-.56,2.13-.64,2.95l-.8-.06h0s-.03,0-.03,0v.03s-.03,0-.03,0c-.28,2.22,.02,5.39,1.46,8.04,0,0,0,.02,.01,.02,.35,.64,.75,1.26,1.25,1.82,1.5,1.68,3.53,2.73,6.07,3.16v.86s0,.02,0,.02h.01c2.45,1.36,8.04,1.62,9.2,1.62h.1c1.14,0,6.69-.26,9.12-1.6h.01s-.01-.88-.01-.88c2.53-.42,4.55-1.47,6.04-3.15,.5-.56,.89-1.18,1.24-1.83,0,0,0,0,0-.01,1.42-2.65,1.69-5.82,1.4-8.04Zm-8.72,13.87c-2.43,1.33-7.94,1.59-9.08,1.59-.04,0-.07,0-.1,0-1.15,0-6.71-.26-9.16-1.6v-.84c.77,.13,1.57,.2,2.43,.21l-2.42,.53v.05s.01,0,.01,0h0s0,0,0,0h0s0,0,0,0h0s0,0,0,0h0s2.65-.58,2.65-.58c.07,0,.15,0,.22,0h.02s.24-2.39,.24-2.39c1.35,.56,3.88,.98,6.04,.98h0s.03,0,.05,0c2.14,0,4.56-.41,5.9-.97l.26,2.37v.02s.03,0,.03,0c.08,0,.15,0,.23,0l2.65,.58v-.05s-2.41-.53-2.41-.53c.85-.01,1.65-.09,2.41-.21v.83ZM3.82,42.26c.03,.96,.1,3.45,1.33,5.71,1.54,2.82,4.31,4.34,8.25,4.52l-.28,2.78s0,0-.01,0v-.04s0,0,0,0h0s0,0,0,0h0s0,0,0,0h0s0,0,0,0h0s-.18,.04-.18,.04c-3.81,0-6.75-1.14-8.74-3.37-2.54-2.84-3.05-7.06-2.71-9.82l2.35,.17Zm22.11,13.03l-.18-.04v.04h-.02l-.31-2.77c3.94-.18,6.7-1.7,8.21-4.52,1.21-2.26,1.27-4.75,1.28-5.71l2.36-.16c.36,2.76-.12,6.98-2.64,9.82-1.97,2.22-4.9,3.35-8.7,3.35ZM4.67,43.97l-.67,.12s0-.04,0-.05c-.08-.66-.11-1.21-.12-1.6,0-.04,0-.09,0-.13,0-.02,0-.05,0-.07v-.02s-.05,0-.05,0h-.04s-1.46-.11-1.46-.11c.08-.81,.26-1.8,.62-2.91l2.45,.78-.73,3.91,.03,.06h-.02s0,.04,0,.04Z"/>
  <path class="cls-8" d="M17.81,54.9l-.75-.05-.1,1.61h.22s0,.02,0,.02l.04-.68,.52,.04c.17,.01,.29-.03,.38-.12,.09-.08,.13-.19,.14-.32,.01-.15-.03-.26-.11-.35-.08-.08-.2-.13-.35-.14Zm.13,.7c-.06,.04-.15,.05-.25,.05l-.45-.02,.04-.56,.44,.02c.09,0,.16,.02,.2,.05,.09,.05,.13,.13,.12,.25,0,.1-.04,.17-.11,.21h0Z"/>
  <path class="cls-8" d="M19.89,56.43s-.01-.08-.02-.14v-.21c0-.1-.03-.16-.06-.2-.04-.05-.09-.09-.15-.1,.08-.04,.13-.09,.18-.14,.04-.06,.06-.14,.06-.24,0-.18-.08-.31-.23-.38-.08-.04-.19-.06-.31-.06h-.77s0,1.6,0,1.6h.22s0-.69,0-.69h.51c.09,0,.16,.01,.2,.04,.08,.03,.11,.11,.12,.21v.27c.02,.06,.02,.1,.02,.13,0,.02,.01,.04,.02,.05h.28v-.03s-.06-.05-.07-.1Zm-.31-.8c-.06,.04-.14,.06-.25,.06h-.53s0-.56,0-.56h.55c.08,.01,.14,.02,.19,.04,.08,.04,.12,.12,.12,.23,0,.11-.03,.18-.09,.22Z"/>
  <path class="cls-8" d="M20.87,54.87c-.28,.02-.49,.12-.62,.33h0c-.1,.16-.15,.34-.13,.57,.02,.24,.09,.44,.23,.59,.16,.15,.36,.23,.62,.21,.27-.01,.48-.12,.62-.31,.11-.17,.17-.37,.15-.62-.02-.22-.08-.4-.2-.53-.15-.18-.37-.26-.67-.25Zm.53,1.28c-.08,.14-.22,.22-.42,.23-.21,.01-.36-.04-.46-.16h0c-.1-.12-.15-.27-.16-.45-.01-.22,.03-.39,.13-.51,.1-.13,.24-.18,.41-.19,.18,0,.32,.05,.43,.16,.11,.11,.17,.26,.18,.45,0,.18-.03,.34-.11,.48Z"/>
  <polygon class="cls-8" points="3.14 49.34 3.14 49.34 3.14 49.33 3.14 49.34"/>
  <path class="cls-8" d="M8.28,54.01l.22-.65,.49,.16c.09,.02,.15,.05,.18,.09,.06,.05,.08,.13,.05,.23l-.07,.26c-.02,.06-.03,.11-.03,.12,0,.02,0,.04,0,.06l.26,.08,.02-.04s-.04-.06-.04-.11c0-.03,.01-.08,.03-.13l.06-.21c.02-.09,.03-.16,.01-.21-.02-.06-.06-.11-.11-.14,.08-.01,.15-.04,.21-.08,.06-.05,.1-.12,.13-.21,.06-.17,.03-.32-.1-.43-.06-.06-.16-.11-.28-.15l-.73-.23-.51,1.53,.21,.07h0Zm.45-1.35h0s.53,.17,.53,.17c.07,.02,.13,.05,.16,.08,.07,.06,.09,.15,.05,.26-.03,.1-.08,.16-.16,.18-.07,.01-.15,.01-.26-.02l-.5-.16,.17-.52Z"/>
  <polygon class="cls-8" points="6.14 52.93 7.19 53.56 7.29 53.4 6.43 52.88 6.73 52.41 7.51 52.89 7.61 52.73 6.83 52.25 7.09 51.84 7.94 52.35 8.05 52.19 7.01 51.56 6.14 52.93 6.14 52.93"/>
  <path class="cls-8" d="M4.68,51.63h0s.51-.47,.51-.47l.36,.37c.12,.12,.24,.17,.36,.17,.12,0,.24-.06,.33-.14,.11-.1,.16-.21,.16-.33,0-.12-.06-.23-.15-.33l-.52-.53-1.21,1.11,.16,.16Zm1.07-.98l.31,.32c.06,.06,.1,.12,.12,.17,.03,.09,0,.18-.09,.26-.08,.07-.16,.1-.23,.09-.07-.02-.15-.06-.22-.13l-.31-.32,.41-.38Z"/>
  <path class="cls-8" d="M3,46.34c.04-.06,.05-.15,.06-.26v-.23c.02-.15,.03-.25,.05-.3,.03-.07,.08-.12,.16-.13,.07-.01,.14,0,.2,.06,.07,.04,.11,.13,.13,.26,.03,.16,0,.28-.07,.36-.04,.04-.11,.07-.19,.1l.04,.2c.18-.03,.3-.11,.37-.24,.06-.13,.08-.28,.05-.45-.03-.18-.1-.31-.21-.39-.11-.09-.25-.12-.39-.09-.14,.02-.23,.09-.28,.2-.03,.06-.05,.17-.05,.31v.23c-.02,.12-.04,.21-.06,.27-.03,.06-.09,.1-.17,.11-.12,.02-.21-.03-.28-.15-.03-.06-.06-.14-.08-.21-.03-.18,0-.31,.09-.4,.05-.05,.12-.08,.21-.1l-.04-.2h0c-.18,.03-.31,.1-.39,.23-.08,.13-.11,.29-.07,.49,.03,.17,.1,.31,.2,.42,.1,.12,.24,.16,.43,.13,.15-.02,.24-.09,.3-.21Z"/>
  <path class="cls-8" d="M3.25,49.52l.86-.46c.06-.02,.11-.05,.16-.09,.07-.04,.13-.07,.16-.09l.05-.02-1,1.06,.11,.19,1.46-.25c-.08,.04-.15,.08-.22,.11-.07,.04-.12,.06-.15,.08l-.86,.45,.1,.18,1.46-.77-.15-.27-1.46,.25,1-1.06-.16-.27-1.46,.77,.1,.18Z"/>
  <polygon class="cls-8" points="2.44 47.4 2.81 48.54 3 48.48 2.69 47.55 3.23 47.39 3.51 48.24 3.69 48.18 3.41 47.33 3.9 47.18 4.2 48.1 4.39 48.04 4.02 46.92 2.44 47.4 2.44 47.4"/>
  <path class="cls-8" d="M35.05,44.64c-.02,.18,.01,.33,.1,.43,.09,.11,.21,.17,.35,.19,.14,0,.25-.03,.32-.13,.05-.05,.09-.15,.14-.29l.07-.21c.03-.12,.08-.2,.12-.25,.05-.05,.11-.07,.2-.06,.12,.01,.2,.09,.23,.22,.02,.07,.02,.14,.02,.23-.02,.18-.09,.3-.2,.36-.06,.03-.14,.05-.23,.04l-.02,.2h0c.18,.01,.32-.02,.44-.13,.12-.1,.18-.26,.2-.45,.02-.17,0-.33-.07-.46-.07-.14-.19-.21-.37-.23-.15-.01-.27,.03-.36,.12-.05,.06-.09,.14-.13,.24l-.07,.22c-.05,.15-.09,.24-.12,.28-.04,.06-.11,.09-.18,.08-.07,0-.14-.04-.19-.1-.05-.07-.07-.16-.06-.29,.02-.16,.07-.27,.16-.32,.05-.04,.12-.05,.21-.05l.02-.2c-.18-.02-.32,.03-.41,.13-.1,.11-.15,.25-.17,.42Z"/>
  <polygon class="cls-8" points="36.28 47.43 36.33 47.22 35.01 46.94 36.51 46.42 36.57 46.18 34.94 45.83 34.9 46.03 36.21 46.32 34.71 46.82 34.66 47.07 36.28 47.43 36.28 47.43"/>
  <path class="cls-8" d="M34.05,51.55h0c.19-.21,.23-.43,.12-.68-.07-.15-.17-.28-.3-.38-.17-.15-.35-.23-.53-.24-.21-.02-.38,.06-.53,.23l-.45,.48,1.24,1.08,.45-.48Zm-1.13-.92c.12-.13,.25-.19,.39-.17,.14,.01,.29,.09,.44,.22,.04,.03,.08,.07,.12,.12,.07,.09,.11,.16,.13,.24,.02,.1,.02,.18-.02,.27-.02,.04-.06,.09-.11,.15l-.26,.29-.95-.83,.26-.29Z"/>
  <polygon class="cls-8" points="31.85 53.29 31.85 53.29 31.85 53.29 31.85 53.29"/>
  <path class="cls-8" d="M29.97,54.1h0s-.25-.65-.25-.65l.48-.17c.09-.03,.15-.04,.2-.04,.08,.01,.15,.06,.19,.16l.11,.25c.02,.06,.04,.1,.06,.11,0,.02,.02,.03,.03,.05l.26-.1v-.03c-.05,0-.09-.02-.12-.06-.02-.03-.04-.07-.07-.12l-.08-.2c-.04-.09-.08-.14-.12-.17-.05-.03-.11-.04-.17-.05,.05-.06,.09-.12,.11-.19,.02-.07,0-.15-.03-.25-.07-.17-.19-.26-.36-.28-.09,0-.19,.01-.31,.05l-.72,.26,.59,1.52,.21-.08Zm-.52-1.34l.52-.19c.07-.03,.13-.04,.18-.03,.09,0,.16,.06,.2,.18,.04,.1,.04,.18,0,.24-.04,.06-.11,.11-.21,.14l-.48,.17-.2-.52Z"/>
  <polygon class="cls-8" points="32.88 52.64 32.77 52.48 31.93 53.02 31.62 52.56 32.38 52.07 32.28 51.92 31.51 52.41 31.23 52 32.06 51.47 31.94 51.31 30.93 51.95 31.85 53.29 32.88 52.64"/>
  <polygon class="cls-8" points="35.57 49.33 36.04 48.22 35.85 48.15 35.47 49.06 34.95 48.84 35.29 48.02 35.11 47.95 34.77 48.77 34.3 48.59 34.67 47.7 34.49 47.63 34.03 48.71 35.57 49.33 35.57 49.33"/>
  <polygon class="cls-8" points="35.01 50.3 35.13 50.11 33.7 49.28 33.59 49.46 35.01 50.3 35.01 50.3"/>
  <path class="cls-8" d="M28.68,54.42l.14-.02-.14-.85-.72,.11,.03,.18,.52-.08c.03,.19,0,.33-.08,.43-.08,.1-.2,.16-.35,.18-.2,.03-.35,0-.45-.12-.11-.1-.18-.26-.21-.44-.04-.22-.01-.39,.07-.52,.08-.12,.21-.2,.36-.22,.13-.02,.24,0,.33,.03,.09,.04,.16,.12,.21,.23l.22-.03c-.08-.2-.2-.34-.38-.39-.12-.04-.26-.05-.41-.02h0c-.23,.03-.4,.13-.51,.3-.12,.18-.16,.41-.12,.67,.04,.27,.16,.46,.33,.59,.16,.1,.34,.14,.53,.11,.15-.02,.27-.07,.36-.14,.05-.04,.11-.11,.17-.2l.09,.2Z"/>
  <polygon class="cls-2" points="10.5 26.18 10.5 26.18 10.5 26.18 10.5 26.18"/>
  <path class="cls-2" d="M12.74,26.17c1.02,.19,4.1,.16,4.1,.16-.3,.31-2.02,.75-1.89,1.03,.13,.29,1.04,.13,1.55,.13-.21,.58,1.74,.25,2.28,.09,3.25,.94,3.76-.31,3.63-.64,1.03,.06,1.83-.58,1.83-.58,.43,.07,1.11,.09,1.74,.09,.02,0,.04,0,.06,0,.85,0,1.62-.04,1.62-.04,.88,.37,2.02,.34,1.7,.1-1.38-.98-2.73-1.24-4.02-1.25-.02,0-.04,0-.06,0-1.22,0-2.4,.21-3.53,.25-.75,.03-.84-.35-.08-.33,.75,.02,2.77-.12,2.7-.46-.07-.33-3.76-.54-4.75-.57-.99-.02-.9,.71-.47,1.06,.43,.35,.94,.29,.62,.33-.57,.08-1.55-.52-1.55-.52-2.06-.19-3.6-.16-4.74-.01-.02,0-.04,0-.06,0-2.02,.26-2.78,.87-2.91,1.16-.12,.41,2.02-.07,2.02-.07,.04,.02,.1,.03,.16,.04,.02,0,.04,0,.06,0Z"/>
  <path class="cls-5" d="M10.32,31.98c-.32,.33-.44,.87-.34,1.31,.33,.47,.61-.43,1.11-.11,.05,.27,.39,.23,.48,.42-.29,.26-.37,.7-.23,1.07,.07,.31,.26,.69,.58,.8,.28-.26,.42-.52,.61-.83,.06,.25,0,.61,.09,.85l.32-.16c.47-.31,.46-.77,.55-1.24-.04-.13-.28-.22-.14-.38,.14,.12,.19,.38,.42,.38,.13-.08,.08-.24,.13-.37,.18,0,.4,.2,.53-.02-.07-.12-.26-.24-.24-.36,.06-.02,.08,.03,.1,.06,.22,.15,.47,.17,.73,.22,.21-.04,.16-.26,.21-.39,0-.36-.32-.59-.33-.96,.35-.2,.63-.6,.62-.96-.56-.1-1.14-.05-1.6,.15-.22-.02-.51,.42-.6,.05-.13-.03-.19-.24-.35-.2-.44,.43-.69-.23-1.05-.33-.17,0-.2,.18-.27,.29h0c-.63-.66-1.67-.9-2.54-.57-.02,.49,.44,.77,.75,1.04,.14,.1,.37,.06,.44,.24Zm3.14,1.44h-.17c.04-.09-.07-.12-.1-.18-.08-.02-.14,0-.18,.07,.04,.19,.26,.33,.03,.5-.2-.01-.5,.06-.49-.21-.07-.15,.2-.39-.09-.4-.1,.21-.2,.41-.46,.21l.03-.3c.24,0,.53,.05,.64-.22,.07-.2-.12-.38,.05-.53,.25-.06,.39,.11,.51,.27h0c.06,.14-.14,.25,.03,.35,.05-.04,.12-.11,.15-.13,.14,.04,.31,.07,.41,.21,.11,.29-.19,.29-.36,.37Zm-1.4-1.18c.19-.33,.3,.11,.53,.04-.09,.4-.39-.02-.53-.04Zm1.18,.17l.08-.07c.08,.09,.13,.26,.2,.38h0c-.21,.06-.18-.2-.28-.3Zm-.5-.56c.13-.14,.14-.7,.46-.29h0c.01,.08-.04,.18,.06,.24,.13-.07,.27-.02,.35,.11,0,.07,.02,.16-.07,.19l-.2-.04s-.05-.06-.08-.1c-.09-.03-.14,.05-.21,.09,.05,.08,.17,.12,.14,.22-.12,.12-.18-.1-.31-.05-.09-.03,.03-.22-.11-.28-.17,0-.06,.28-.27,.17-.08-.09-.15-.2-.07-.3,.09-.06,.24-.04,.32,.03Zm-1.36-.29c.14-.19,.35,.07,.46-.06,.02-.12-.08-.26,.05-.33,.09,.02,.21-.03,.24,.08h0c-.02,.4,.27,.11,.48,.35-.17-.07-.29,.29-.45,.09l-.1,.1c.06,.14,.18,.15,.06,.3-.18,.07-.22-.16-.3-.25-.01-.04,.03-.11-.04-.14-.1,.09-.21,.12-.35,.1-.04-.08-.11-.18-.04-.24Zm-.72,1.06c.17-.27,.48,0,.66-.12,.03-.23-.06-.44,.15-.57,.18-.03,.27,.11,.38,.22h0c.09,.13-.02,.3,.09,.44,.18-.33,.34,.07,.55,.04,.06,.08,.02,.19,.03,.27-.26,.07-.57,.15-.8-.06l-.06,.07c.14,.13,.26,.27,.16,.48-.19,.04-.49,.05-.59-.15-.05-.16,.12-.28-.06-.41-.13,.16-.12,.37-.39,.23-.17-.09-.22-.28-.13-.44Z"/>
  <path class="cls-7" d="M11.76,31.67c.07,.03,.02,.1,.04,.14,.08,.09,.12,.31,.3,.25,.12-.15,0-.17-.06-.3l.1-.1c.16,.2,.29-.15,.45-.09-.21-.24-.5,.05-.48-.35h0c-.04-.11-.15-.06-.24-.08-.13,.08-.03,.22-.05,.33-.1,.13-.32-.12-.46,.06-.08,.06,0,.16,.04,.24,.14,.01,.25-.02,.35-.1Z"/>
  <path class="cls-7" d="M12.42,31.8c-.08,.1,0,.21,.07,.3,.21,.11,.1-.17,.27-.17,.14,.06,.02,.24,.11,.28,.13-.06,.19,.17,.31,.05,.03-.1-.09-.14-.14-.22,.07-.04,.12-.12,.21-.09,.03,.04,.09,.06,.08,.1l.2,.04c.09-.03,.07-.12,.07-.19-.08-.13-.21-.18-.35-.11-.1-.05-.05-.16-.06-.24h0c-.31-.42-.33,.14-.46,.29-.08-.08-.23-.09-.32-.03Z"/>
  <path class="cls-7" d="M11.18,32.81c.18,.13,0,.25,.06,.41,.1,.2,.4,.19,.59,.15,.11-.21-.02-.35-.16-.48l.06-.07c.23,.21,.54,.12,.8,.06-.01-.09,.03-.2-.03-.27-.21,.03-.38-.37-.55-.04-.11-.14,0-.31-.09-.44h0c-.11-.12-.2-.25-.38-.22-.21,.13-.13,.33-.15,.57-.19,.13-.49-.15-.66,.12-.08,.16-.03,.35,.13,.44,.27,.15,.26-.07,.39-.23Z"/>
  <path class="cls-1" d="M12.06,32.23c.14,.02,.44,.44,.53,.04-.22,.07-.34-.37-.53-.04Z"/>
  <path class="cls-1" d="M13.52,32.7h0c-.07-.12-.12-.29-.2-.38l-.08,.07c.1,.1,.07,.36,.28,.3Z"/>
  <path class="cls-7" d="M13.27,32.97c-.17-.1,.03-.21-.03-.35h0c-.13-.16-.27-.33-.51-.27-.17,.16,.02,.34-.05,.53-.11,.27-.4,.23-.64,.22l-.03,.3c.25,.2,.36,0,.46-.21,.29,0,.02,.25,.09,.4-.02,.27,.29,.2,.49,.21,.23-.17,0-.31-.03-.5,.04-.06,.11-.09,.18-.07,.03,.06,.14,.09,.1,.17h.17c.17-.07,.46-.07,.36-.36-.1-.14-.27-.17-.41-.21-.03,.03-.09,.09-.15,.13Zm-.39,.33c-.11,0-.18-.03-.25-.11-.05-.18,.09-.2,.19-.27,.12-.05,.17,.09,.24,.14h0c.06,.15-.11,.16-.18,.23Z"/>
  <path d="M13.06,33.07c-.08-.05-.12-.19-.24-.14-.1,.07-.24,.09-.19,.27,.06,.07,.14,.11,.25,.11,.08-.07,.25-.08,.18-.23h0Zm-.25,.13l-.04-.18c.08,0,.18,.03,.14,.15h0s-.06,.02-.1,.03Z"/>
  <path class="cls-1" d="M12.77,33.02l.04,.18s.08,0,.1-.03h0c.04-.11-.06-.14-.14-.15Z"/>
</svg>