<?xml version="1.0" encoding="UTF-8"?>
<svg id="Layer_1" data-name="Layer 1" xmlns="http://www.w3.org/2000/svg" viewBox="0 0 80 80">
  <defs>
    <style>
      .cls-1 {
        fill: #fff;
      }

      .cls-2 {
        fill: #fbe200;
      }

      .cls-3 {
        fill: #ec2224;
      }

      .cls-4 {
        fill: #3b62ad;
      }
    </style>
  </defs>
  <path class="cls-3" d="M20,80H60c11.05,0,20-8.95,20-20v-5.42H0v5.42c0,11.05,8.95,20,20,20Z"/>
  <path class="cls-4" d="M80,25.42H31.56c-.1,3.2-1.02,6.4-2.96,8.99-1.88,2.57-4.65,4.48-7.7,5.42-3.89-1.16-7.24-3.99-9.03-7.64-1.07-2.09-1.51-4.42-1.62-6.77H0v29.15H80V25.42Z"/>
  <path class="cls-1" d="M10.24,25.24c-.24-3.99-.74-11.78-.74-11.78l.47-.2c6.84-2.98,14.99-2.96,21.83,.01l.52,.19c-.24,3.99-.5,7.79-.75,11.78,0,.06,0,.12,0,.19h48.44v-5.42c0-11.05-8.95-20-20-20H20C8.95,0,0,8.95,0,20v5.42H10.26c0-.06,0-.12-.01-.19Z"/>
  <path class="cls-3" d="M32.32,13.46l-.52-.19s-.47,8.21-.7,12.02c-.06,3.12-.95,6.26-2.85,8.77-1.81,2.47-4.44,4.29-7.37,5.19-3.72-1.11-6.93-3.81-8.64-7.31-1.04-2.05-1.46-4.34-1.55-6.65-.23-3.83-.71-12.04-.71-12.04l-.47,.2s.5,7.78,.74,11.78c0,.06,0,.12,.01,.19,.11,2.35,.55,4.68,1.62,6.77,1.79,3.65,5.13,6.47,9.03,7.64,3.06-.94,5.82-2.84,7.7-5.42,1.94-2.59,2.87-5.79,2.96-8.99,0-.06,0-.12,0-.19,.24-3.98,.5-7.79,.75-11.78Z"/>
  <path class="cls-4" d="M12.23,31.94c1.72,3.5,4.92,6.2,8.64,7.31,2.93-.9,5.57-2.72,7.37-5.19,1.89-2.51,2.79-5.65,2.85-8.77,.23-3.81,.7-12.02,.7-12.02-6.84-2.97-14.98-2.99-21.83-.01,0,0,.48,8.21,.71,12.04,.09,2.31,.51,4.61,1.55,6.65Zm8.67,6.68c-2.41-.84-4.55-2.39-6.15-4.36,1.03,.13,1.91-.48,2.87-.72,1.25-.31,2.23,.85,3.48,.69,.87-.02,1.55-.67,2.4-.72,1.27-.15,2.27,.94,3.57,.75-1.62,1.97-3.74,3.52-6.17,4.36Zm6.84-5.43c-.91,.43-1.94,.21-2.77-.25-.9-.46-1.95-.3-2.8,.18-.89,.48-1.99,.33-2.86-.15-.9-.48-1.97-.33-2.82,.15-.77,.42-1.66,.35-2.47,.09l-.66-1.16c.83,.42,1.8,.76,2.71,.42,.73-.27,1.42-.72,2.21-.62,.92,.06,1.66,.77,2.6,.74,1.03,.07,1.82-.76,2.85-.74,1.03-.07,1.84,.77,2.84,.74,.69,.05,1.3-.28,1.9-.54l-.72,1.13Zm1.75-4.24c-.04,1.44-1.22,2.75-2.69,2.82-1.12,.18-1.96-.81-3.08-.74-1.01-.02-1.82,.83-2.85,.76-1.03,.02-1.81-.81-2.84-.76-1.09-.02-1.97,.94-3.08,.74-1.44-.09-2.56-1.4-2.63-2.82,1.44-1.88,2.87-3.8,4.31-5.72,.57,.76,1.13,1.52,1.7,2.29,.85-1.73,1.7-3.43,2.56-5.13,.88,1.7,1.73,3.4,2.59,5.13,.57-.77,1.13-1.53,1.71-2.29,1.44,1.92,2.86,3.82,4.3,5.72Zm-9.69-12.08l.78,.09,.31-.73,.37,.7,.71-.05-.41,.61,.41,.66-.76-.09-.33,.72-.31-.72-.78,.09,.46-.66-.46-.64Zm3.78-3.91l.31-.72,.33,.72,.79-.09-.46,.66,.46,.64-.79-.09-.31,.73-.35-.7-.74,.04,.42-.63-.42-.64,.76,.09Zm-6.78-.09l.76,.09,.35-.72,.31,.72,.78-.09-.46,.66,.46,.64-.78-.09-.33,.74-.31-.74-.78,.09,.46-.64-.46-.66Z"/>
  <polygon class="cls-2" points="16.82 14.17 17.6 14.08 17.91 14.82 18.24 14.08 19.02 14.17 18.56 13.53 19.02 12.87 18.24 12.96 17.93 12.24 17.58 12.96 16.82 12.87 17.28 13.53 16.82 14.17"/>
  <polygon class="cls-2" points="23.25 13.51 22.83 14.14 23.57 14.1 23.92 14.8 24.23 14.08 25.01 14.17 24.56 13.53 25.01 12.87 24.23 12.96 23.9 12.24 23.59 12.96 22.83 12.87 23.25 13.51"/>
  <polygon class="cls-2" points="20.59 18.08 20.91 18.8 21.23 18.08 21.99 18.17 21.58 17.51 21.99 16.9 21.28 16.94 20.91 16.24 20.59 16.97 19.81 16.87 20.27 17.51 19.81 18.17 20.59 18.08"/>
  <path class="cls-1" d="M23.49,25.52c-.85-1.73-1.71-3.43-2.59-5.13-.85,1.7-1.7,3.4-2.56,5.13-.57-.77-1.13-1.53-1.7-2.29-1.45,1.92-2.87,3.84-4.31,5.72,.07,1.42,1.18,2.73,2.63,2.82,1.11,.2,1.99-.76,3.08-.74,1.03-.05,1.82,.79,2.84,.76,1.03,.07,1.84-.78,2.85-.76,1.12-.07,1.97,.92,3.08,.74,1.47-.07,2.65-1.38,2.69-2.82-1.45-1.9-2.86-3.8-4.3-5.72-.57,.76-1.14,1.52-1.71,2.29Z"/>
  <path class="cls-1" d="M23.73,31.86c-1.03-.02-1.82,.81-2.85,.74-.94,.03-1.68-.68-2.6-.74-.79-.1-1.48,.35-2.21,.62-.91,.35-1.88,0-2.71-.42l.66,1.16c.82,.26,1.7,.33,2.47-.09,.85-.48,1.93-.64,2.82-.15,.87,.48,1.97,.63,2.86,.15,.85-.48,1.91-.64,2.8-.18,.84,.46,1.86,.68,2.77,.25l.72-1.13c-.61,.26-1.22,.59-1.9,.54-.99,.03-1.81-.81-2.84-.74Z"/>
  <path class="cls-1" d="M23.51,33.52c-.85,.05-1.53,.7-2.4,.72-1.25,.16-2.23-1-3.48-.69-.96,.23-1.84,.85-2.87,.72,1.6,1.97,3.74,3.52,6.15,4.36,2.43-.84,4.55-2.39,6.17-4.36-1.3,.19-2.3-.9-3.57-.75Z"/>
</svg>