<?xml version="1.0" encoding="UTF-8"?>
<svg id="Layer_1" data-name="Layer 1" xmlns="http://www.w3.org/2000/svg" viewBox="0 0 80 80">
  <defs>
    <style>
      .cls-1 {
        fill: #fff;
      }

      .cls-2 {
        fill: #1d439a;
      }

      .cls-3 {
        fill: #cd2028;
      }
    </style>
  </defs>
  <path class="cls-3" d="M20,80H60c11.05,0,20-8.95,20-20v-5.42H34.88c-3.08,3.49-7.05,6.15-11.22,8.2-4.17-2.02-8.15-4.7-11.23-8.2H0v5.42c0,11.05,8.95,20,20,20Z"/>
  <path class="cls-2" d="M10.45,52.05c-2.7-3.95-4.14-8.65-4.66-13.36-.51-4.41-.39-8.84-.11-13.27H0v29.15H12.43c-.71-.8-1.38-1.63-1.98-2.53Z"/>
  <path class="cls-2" d="M41.52,38.69c-.53,4.71-1.97,9.41-4.66,13.36-.6,.89-1.28,1.72-1.99,2.53h45.12V25.42H41.63c.28,4.42,.4,8.85-.11,13.27Z"/>
  <path class="cls-1" d="M5.78,38.69c.52,4.71,1.96,9.41,4.66,13.36,.6,.89,1.28,1.72,1.98,2.53,3.08,3.5,7.05,6.17,11.23,8.2,4.16-2.04,8.14-4.71,11.22-8.2,.71-.8,1.38-1.63,1.99-2.53,2.7-3.95,4.14-8.65,4.66-13.36,.51-4.41,.39-8.84,.11-13.27h38.37v-5.42c0-11.05-8.95-20-20-20H20C8.95,0,0,8.95,0,20v5.42H5.67c-.28,4.42-.4,8.85,.11,13.27Zm34.89,.06c-.51,4.49-1.87,8.97-4.44,12.73-3.07,4.55-7.7,7.83-12.58,10.21-4.89-2.37-9.51-5.66-12.58-10.21-2.57-3.76-3.94-8.24-4.44-12.73-.78-6.8-.02-13.65,.47-20.44H40.2c.47,6.79,1.25,13.64,.47,20.44Z"/>
  <path class="cls-3" d="M7.1,18.3c-.49,6.79-1.25,13.64-.47,20.44,.51,4.49,1.87,8.97,4.44,12.73-.35-1.94,.92-3.97,2.77-4.61,1.54-.57,3.4-.18,4.54,1.03l.34-.74c.62-1.27,1.74-2.29,3.09-2.76,.02-2.1-.02-4.18,0-6.28-2.91-.17-5.82,.18-8.67,.77,.6-1.69,.6-3.55,.01-5.24,1.95,.37,3.94,.75,5.94,.78,.89,.02,1.79,0,2.68,.02,.08-1.41,0-2.82,.05-4.23-2.32-.09-4.59,.36-6.85,.78,.57-1.7,.58-3.55-.02-5.25,2.26,.44,4.54,.85,6.85,.78,.02-2.21-.38-4.39-.8-6.55,1.71,.58,3.56,.58,5.27,0-.42,2.17-.81,4.34-.79,6.55,2.31,.07,4.59-.34,6.85-.78-.61,1.69-.61,3.55-.02,5.25-2.24-.45-4.52-.82-6.81-.8-.04,1.42-.04,2.83,.01,4.25,.9-.02,1.79,0,2.68-.02,2-.04,3.99-.41,5.94-.78-.59,1.69-.59,3.55,.02,5.24-2.02-.38-4.06-.77-6.12-.79-.85,0-1.71-.01-2.55,0,0,2.1-.02,4.2,0,6.3,1.63,.55,2.83,1.93,3.43,3.49,1.11-1.17,2.89-1.58,4.39-1.08,1.93,.59,3.27,2.66,2.92,4.66,2.57-3.76,3.94-8.24,4.44-12.73,.78-6.8,0-13.65-.47-20.44H7.1Z"/>
  <path class="cls-1" d="M25.49,44.39c-.02-2.1,0-4.2,0-6.3,.85-.01,1.71,0,2.55,0,2.07,.02,4.1,.41,6.12,.79-.6-1.69-.6-3.55-.02-5.24-1.95,.37-3.94,.75-5.94,.78-.89,.02-1.79,0-2.68,.02-.05-1.42-.05-2.84-.01-4.25,2.29-.02,4.57,.36,6.81,.8-.59-1.7-.59-3.55,.02-5.25-2.26,.44-4.54,.85-6.85,.78-.02-2.21,.37-4.39,.79-6.55-1.71,.58-3.56,.58-5.27,0,.42,2.17,.82,4.34,.8,6.55-2.32,.07-4.59-.34-6.85-.78,.6,1.69,.59,3.55,.02,5.25,2.26-.43,4.53-.87,6.85-.78-.05,1.41,.03,2.83-.05,4.23-.89-.02-1.79,0-2.68-.02-2-.04-3.99-.41-5.94-.78,.58,1.69,.58,3.55-.01,5.24,2.86-.59,5.76-.94,8.67-.77-.02,2.1,.02,4.18,0,6.28,1.17-.43,2.5-.43,3.68,0Z"/>
  <path class="cls-2" d="M33.31,46.81c-1.51-.5-3.28-.09-4.39,1.08-.59-1.56-1.8-2.94-3.43-3.49-1.17-.43-2.51-.43-3.68,0-1.35,.47-2.48,1.49-3.09,2.76l-.34,.74c-1.13-1.2-2.99-1.6-4.54-1.03-1.84,.64-3.11,2.67-2.77,4.61,3.07,4.55,7.69,7.84,12.58,10.21,4.88-2.39,9.5-5.66,12.58-10.21,.36-2-.99-4.07-2.92-4.66Z"/>
</svg>