<?xml version="1.0" encoding="UTF-8"?>
<svg id="Layer_1" data-name="Layer 1" xmlns="http://www.w3.org/2000/svg" viewBox="0 0 80 80">
  <defs>
    <style>
      .cls-1 {
        fill: #fff;
      }

      .cls-2 {
        fill: #4c85c5;
      }
    </style>
  </defs>
  <path class="cls-2" d="M60,80c11.05,0,20-8.95,20-20V20c0-11.05-8.95-20-20-20H20C8.95,0,0,8.95,0,20V60c0,11.05,8.95,20,20,20H60Zm-23.49-43.32l3.49-10.73,3.49,10.73h11.28l-9.13,6.63,3.49,10.73-9.12-6.63-9.13,6.63,3.49-10.73-9.13-6.63h11.28Z"/>
  <polygon class="cls-1" points="30.87 54.04 40 47.41 49.12 54.04 45.64 43.31 54.76 36.68 43.49 36.68 40 25.95 36.51 36.68 25.23 36.68 34.36 43.31 30.87 54.04"/>
</svg>