<?xml version="1.0" encoding="UTF-8"?>
<svg id="Layer_1" data-name="Layer 1" xmlns="http://www.w3.org/2000/svg" viewBox="0 0 80 80">
  <defs>
    <style>
      .cls-1 {
        fill: #fff;
      }

      .cls-2 {
        fill: #0356a2;
      }

      .cls-3 {
        fill: #ed3725;
      }

      .cls-4 {
        fill: #008a60;
      }

      .cls-5 {
        fill: #fcba2e;
      }
    </style>
  </defs>
  <path class="cls-1" d="M9.9,77.24c2.06,1.21,4.35,2.05,6.8,2.46l37.7-25.13h25.6v-5.83h-27.35L9.9,77.24Z"/>
  <path class="cls-1" d="M80,31.24v-5.83h-25.6L16.71,.29c-2.45,.41-4.74,1.25-6.8,2.46L52.65,31.24h27.35Z"/>
  <path class="cls-3" d="M80,25.42v-5.42c0-11.05-8.95-20-20-20H20c-1.12,0-2.22,.12-3.29,.29L54.4,25.42h25.6Z"/>
  <path class="cls-2" d="M16.7,79.71c1.08,.18,2.17,.29,3.3,.29H60c11.05,0,20-8.95,20-20v-5.42h-25.6l-37.7,25.13Z"/>
  <path class="cls-4" d="M.2,62.68c.84,6.22,4.52,11.52,9.7,14.56l42.74-28.5h27.35V31.24h-27.35L9.91,2.75C4.72,5.79,1.04,11.1,.2,17.31l34.02,22.68L.2,62.68Z"/>
  <path class="cls-5" d="M.2,62.68l34.02-22.69L.2,17.31c-.12,.88-.2,1.77-.2,2.69v4.19l23.72,15.81L0,55.81v4.19c0,.91,.08,1.8,.2,2.68Z"/>
  <polygon points="23.72 39.99 0 24.19 0 55.81 23.72 39.99"/>
</svg>