<?xml version="1.0" encoding="UTF-8"?>
<svg id="Layer_1" data-name="Layer 1" xmlns="http://www.w3.org/2000/svg" viewBox="0 0 80 80">
  <defs>
    <style>
      .cls-1 {
        fill: #fff;
      }

      .cls-2 {
        fill: #1e4383;
      }

      .cls-3 {
        fill: #cd2028;
      }
    </style>
  </defs>
  <path class="cls-1" d="M3.89,8.19c-.31,.43-.61,.87-.89,1.32l.89-1.32Z"/>
  <path class="cls-1" d="M76.19,8.29l.75,1.11c-.24-.38-.49-.75-.75-1.11Z"/>
  <path class="cls-1" d="M0,19.98s0,.01,0,.02v3.25L10.57,7.59l2.8,1.89L1.25,27.43l-1.25-.85v26.85l1.26-.85,5.61,8.31-2.8,1.89L0,56.75v3.25s0,.01,0,.02l9.05,13.42-2.28,1.53c3.53,3.12,8.15,5.03,13.23,5.03H60c5.08,0,9.7-1.91,13.23-5.03l-2.28-1.53,5.61-8.33,2.28,1.54c.18-.52,.34-1.05,.48-1.58l-1.88-1.27,2.55-3.78s0-.01,0-.02v-3.25l-4.07,6.03-2.8-1.89,5.61-8.31,1.26,.85V26.57l-1.26,.85-12.1-17.94,2.8-1.89,10.56,15.66v-3.24s0-.01,0-.02l-2.55-3.78,1.88-1.27c-.14-.54-.3-1.07-.49-1.59l-2.28,1.54-5.61-8.31,2.28-1.54c-3.53-3.12-8.15-5.03-13.23-5.03H20C14.92,0,10.3,1.91,6.77,5.03l2.28,1.54L0,19.98Zm10.57,52.42l-5.61-8.31,2.8-1.88,5.61,8.31-2.8,1.89Zm4.31-2.9L2.77,51.56l2.8-1.89,12.1,17.95-2.8,1.89Zm60.17-5.4l-5.61,8.31-2.8-1.89,5.61-8.31,2.8,1.89Zm-3.43-4.23l-2.8-1.89,5.61-8.32,2.79,1.89-5.61,8.31Zm5.61-31.43l-2.79,1.88-5.61-8.31,2.79-1.89,5.61,8.32Zm-12.1-17.95l5.61,8.32-2.8,1.89-5.6-8.32,2.79-1.89Zm2.81,48.81l2.8,1.88-5.61,8.32-2.8-1.89,5.61-8.31ZM18.46,38.94c.03-.68,.1-1.35,.19-2.02,0,0,0-.01,0-.02,1.4-9.65,9.25-17.46,19.39-18.38,11.86-1.08,22.36,7.66,23.45,19.53,1.08,11.87-7.66,22.36-19.53,23.44-.3,.03-.6,.04-.91,.06-.02,0-.03,0-.05,0-.65,.03-1.3,.03-1.94,0-.07,0-.13,0-.2,0-.62-.03-1.24-.09-1.85-.18-.09-.01-.17-.02-.26-.04-.61-.09-1.2-.21-1.79-.35-.1-.02-.19-.05-.29-.07-.59-.15-1.17-.33-1.74-.52-.1-.04-.2-.07-.31-.11-.57-.21-1.13-.44-1.68-.7-.1-.05-.2-.09-.3-.14-.55-.27-1.09-.56-1.61-.87-.07-.04-.15-.07-.22-.12-.04-.03-.08-.06-.12-.08-.49-.3-.96-.63-1.43-.97-.2-.14-.39-.29-.58-.44-.35-.27-.69-.55-1.02-.85-.23-.21-.46-.42-.69-.64-.28-.27-.55-.55-.82-.84-.21-.23-.42-.46-.62-.7-.28-.34-.56-.68-.83-1.03-.14-.19-.27-.38-.41-.57-.29-.42-.57-.84-.83-1.28-.08-.13-.15-.26-.22-.39-.28-.49-.54-.99-.79-1.51-.04-.08-.07-.16-.11-.24-.25-.56-.49-1.14-.7-1.73-.01-.04-.02-.08-.04-.12-.21-.62-.4-1.25-.56-1.9,0,0,0-.02,0-.03-.16-.64-.28-1.28-.38-1.94,0-.03-.01-.06-.02-.09-.05-.38-.1-.76-.14-1.15-.02-.25-.04-.51-.05-.76,0-.07,0-.13-.01-.2-.03-.65-.03-1.29,0-1.93,0-.05,0-.09,0-.13Zm-.78-26.56L5.57,30.33l-2.8-1.88L14.88,10.5l2.8,1.88Z"/>
  <path class="cls-1" d="M76.98,70.52l-.84,1.25c.3-.4,.58-.82,.84-1.25Z"/>
  <path class="cls-1" d="M3.92,71.85l-.94-1.4c.3,.48,.61,.95,.94,1.4Z"/>
  <path class="cls-3" d="M18.52,41.96c.04,.39,.08,.77,.14,1.15-.09-.63-.15-1.27-.19-1.9,.01,.25,.03,.5,.05,.76Z"/>
  <path class="cls-3" d="M19.05,45.14c-.16-.64-.28-1.29-.38-1.94,.1,.66,.22,1.31,.38,1.94Z"/>
  <path class="cls-3" d="M21.55,28.85c-.19,.32-.35,.65-.52,.97-2.34,4.94-.63,10.95,4.15,13.83,5.09,3.08,11.72,1.46,14.8-3.63,3.08-5.1,9.7-6.71,14.8-3.63,5.09,3.08,6.71,9.71,3.63,14.79-3.85,6.36-10.45,10.01-17.35,10.35,.3-.01,.6-.03,.91-.06,11.86-1.08,20.61-11.58,19.53-23.44-1.08-11.87-11.58-20.6-23.45-19.53-10.14,.92-17.99,8.73-19.39,18.38,.35-2.42,1.15-4.81,2.37-7.07,.16-.33,.33-.65,.52-.97Z"/>
  <path class="cls-3" d="M18.45,41c-.03-.64-.03-1.29,0-1.93-.03,.64-.03,1.28,0,1.93Z"/>
  <path class="cls-3" d="M19.61,47.06c-.21-.62-.4-1.26-.56-1.9,.16,.65,.35,1.28,.56,1.9Z"/>
  <path class="cls-3" d="M30.64,59.43c-.55-.26-1.08-.56-1.61-.87,.53,.31,1.06,.6,1.61,.87Z"/>
  <path class="cls-3" d="M32.63,60.27c-.57-.21-1.13-.44-1.68-.7,.55,.26,1.11,.49,1.68,.7Z"/>
  <path class="cls-3" d="M26.67,56.95c-.35-.27-.69-.56-1.02-.85,.33,.29,.67,.58,1.02,.85Z"/>
  <path class="cls-3" d="M28.68,58.36c-.49-.3-.97-.63-1.43-.97,.46,.34,.94,.66,1.43,.97Z"/>
  <path class="cls-3" d="M34.67,60.9c-.58-.15-1.16-.33-1.74-.52,.57,.2,1.15,.37,1.74,.52Z"/>
  <path class="cls-3" d="M18.46,38.94c.03-.67,.1-1.35,.19-2.02-.1,.66-.16,1.34-.19,2.02Z"/>
  <path class="cls-3" d="M38.87,61.54c-.62-.03-1.24-.09-1.85-.18,.61,.09,1.23,.15,1.85,.18Z"/>
  <path class="cls-3" d="M36.76,61.33c-.6-.09-1.2-.21-1.79-.35,.59,.14,1.19,.26,1.79,.35Z"/>
  <path class="cls-3" d="M41,61.55c-.64,.03-1.29,.03-1.94,0,.64,.03,1.29,.03,1.94,0Z"/>
  <path class="cls-3" d="M20.35,48.9c-.26-.57-.49-1.14-.7-1.73,.21,.59,.44,1.16,.7,1.73Z"/>
  <path class="cls-3" d="M23.53,53.93c-.29-.34-.56-.68-.83-1.03,.26,.35,.54,.7,.83,1.03Z"/>
  <path class="cls-3" d="M24.97,55.47c-.28-.27-.56-.55-.82-.84,.27,.29,.54,.57,.82,.84Z"/>
  <path class="cls-3" d="M21.24,50.65c-.28-.5-.55-1-.79-1.51,.24,.52,.51,1.02,.79,1.51Z"/>
  <path class="cls-3" d="M22.3,52.32c-.29-.42-.57-.84-.83-1.28,.26,.44,.54,.86,.83,1.28Z"/>
  <path class="cls-2" d="M18.47,41.2c.04,.64,.09,1.27,.19,1.9,0,.03,.01,.06,.02,.09,.1,.65,.22,1.3,.38,1.94,0,0,0,.02,0,.03,.16,.64,.35,1.27,.56,1.9,.01,.04,.02,.08,.04,.12,.21,.59,.44,1.16,.7,1.73,.04,.08,.07,.16,.11,.24,.24,.51,.51,1.02,.79,1.51,.07,.13,.14,.26,.22,.39,.26,.44,.54,.86,.83,1.28,.13,.19,.27,.38,.41,.57,.26,.35,.54,.69,.83,1.03,.2,.24,.41,.47,.62,.7,.26,.29,.54,.57,.82,.84,.22,.22,.45,.43,.69,.64,.33,.29,.67,.57,1.02,.85,.19,.15,.39,.3,.58,.44,.46,.34,.93,.66,1.43,.97,.04,.03,.08,.06,.12,.08,.07,.04,.15,.08,.22,.12,.53,.31,1.07,.61,1.61,.87,.1,.05,.2,.09,.3,.14,.56,.26,1.12,.49,1.68,.7,.1,.04,.2,.07,.31,.11,.58,.2,1.15,.38,1.74,.52,.1,.02,.19,.05,.29,.07,.6,.14,1.19,.26,1.79,.35,.09,.01,.17,.02,.26,.04,.62,.09,1.24,.15,1.85,.18,.07,0,.13,0,.2,0,.65,.03,1.3,.03,1.94,0,.02,0,.03,0,.05,0,6.9-.35,13.5-4,17.35-10.35,3.09-5.09,1.46-11.71-3.63-14.79-5.09-3.08-11.72-1.47-14.8,3.63-3.08,5.09-9.71,6.71-14.8,3.63-4.77-2.89-6.49-8.9-4.15-13.83-1.22,2.26-2.02,4.65-2.37,7.07,0,0,0,.01,0,.02-.1,.67-.16,1.34-.19,2.02,0,.05,0,.09,0,.13-.03,.64-.03,1.29,0,1.93,0,.07,0,.13,.01,.2Z"/>
  <path class="cls-2" d="M21.03,29.82c.17-.32,.33-.65,.52-.97-.19,.32-.37,.64-.52,.97Z"/>
  <path d="M0,19.98L9.05,6.57l-2.28-1.54c-1.07,.95-2.04,2.01-2.89,3.16l-.89,1.32C1.11,12.55,0,16.13,0,19.98Z"/>
  <polygon points="13.37 9.48 10.57 7.59 0 23.25 0 26.58 1.25 27.43 13.37 9.48"/>
  <polygon points="5.57 30.33 17.68 12.38 14.88 10.5 2.77 28.45 5.57 30.33"/>
  <polygon points="68.82 57.98 71.62 59.87 77.23 51.56 74.43 49.66 68.82 57.98"/>
  <rect x="61.51" y="62.71" width="10.03" height="3.38" transform="translate(-24.05 83.58) rotate(-56.03)"/>
  <polygon points="73.14 60.89 75.93 62.78 80 56.75 80 53.42 78.74 52.58 73.14 60.89"/>
  <polygon points="66.64 70.52 69.44 72.41 75.05 64.1 72.24 62.21 66.64 70.52"/>
  <path d="M79.33,65.07c.42-1.62,.67-3.3,.67-5.05l-2.55,3.78,1.88,1.27Z"/>
  <path d="M70.95,73.44l2.28,1.53c1.08-.96,2.06-2.03,2.91-3.2l.84-1.25c.75-1.21,1.38-2.51,1.86-3.87l-2.28-1.54-5.61,8.33Z"/>
  <polygon points="66.64 9.47 78.74 27.42 80 26.57 80 23.24 69.44 7.59 66.64 9.47"/>
  <path d="M76.56,14.88l2.28-1.54c-.49-1.39-1.13-2.71-1.9-3.94l-.75-1.11c-.87-1.19-1.86-2.29-2.96-3.26l-2.28,1.54,5.61,8.31Z"/>
  <path d="M80,19.98c0-1.75-.25-3.43-.67-5.05l-1.88,1.27,2.55,3.78Z"/>
  <rect x="64.84" y="10.58" width="3.37" height="10.03" transform="translate(2.64 39.84) rotate(-33.97)"/>
  <rect x="71.34" y="20.22" width="3.37" height="10.03" transform="translate(-1.64 45.09) rotate(-33.95)"/>
  <rect x="8.54" y="48.76" width="3.38" height="21.65" transform="translate(-31.58 15.91) rotate(-34.01)"/>
  <path d="M0,60.02c0,3.83,1.1,7.39,2.97,10.43l.94,1.4c.84,1.14,1.8,2.18,2.85,3.12l2.28-1.53L0,60.02Z"/>
  <polygon points="6.87 60.89 1.26 52.58 0 53.43 0 56.75 4.07 62.78 6.87 60.89"/>
  <polygon points="4.96 64.09 10.57 72.4 13.37 70.52 7.76 62.21 4.96 64.09"/>
</svg>