<?xml version="1.0" encoding="UTF-8"?>
<svg id="Layer_1" data-name="Layer 1" xmlns="http://www.w3.org/2000/svg" viewBox="0 0 80 80">
  <defs>
    <style>
      .cls-1 {
        fill: #fcce06;
      }

      .cls-2 {
        fill: #9c1f3e;
      }

      .cls-3 {
        fill: #fdce07;
      }

      .cls-4 {
        fill: #f37421;
      }

      .cls-5 {
        fill: #02733b;
      }
    </style>
  </defs>
  <path class="cls-3" d="M20,0c-2.89,0-5.63,.63-8.12,1.73h14.25V78.26H11.86c2.49,1.11,5.24,1.74,8.14,1.74H60c2.9,0,5.65-.63,8.14-1.74H31.6V1.73h36.51c-2.48-1.1-5.22-1.73-8.12-1.73H20Z"/>
  <path class="cls-2" d="M61.71,27.86l-.5-.28h-.1s-.33,.31-.33,.31l-.1,.51,.05,.45,.32,.67,.5,.29h.1s.34-.31,.34-.31l.1-.52-.06-.45-.31-.67Zm.09,1.55l-.19,.18h-.05s-.34-.2-.34-.2l-.28-.58-.05-.41,.09-.43,.19-.18h.05s.33,.2,.33,.2l.29,.58,.05,.4-.09,.43Z"/>
  <path class="cls-2" d="M31.6,78.26h36.53c6.99-3.12,11.86-10.11,11.86-18.26v-.29h-1.65l.61-1.38-1.12,1.38h-1.5l1.33-1.64-.18-.03c-.6,.66-1.27,1.26-2.08,1.62l-.71,.17,.02-.49,.86-1.59c.53-.45,1.27-.5,1.93-.37l1.45,.44,.09-.26,.2-.76,.06-.21,.2-.84,.09-.47-.16-1.73-.83-1.09c-.58-.62-1.19-1.24-1.56-2.02l-.11-.26,.17-1.45c.66-.77,1.57-1.31,2.51-1.7,.13-.05,.26-.1,.4-.15v-.15c-.67,.24-1.3,.55-1.9,.93-.65,.49-1.4,.81-2.08,1.23-2.68,1.57-5.56,2.88-8.61,3.55l-1.16,.19,.11-.09v-.41c.73-.78,1.48-1.57,2.08-2.46,.41-.56,.76-1.16,1.08-1.77l.09-.22,.28-.63,.29-.78h.03l.08-.31,.02-.18h.08s-.02-.45-.02-.45l-.15,.6-.07-.02,.02,.22h-.09s.04,.14,.04,.14h-.1s-.02,.17-.02,.17c-.49,1.07-1.06,2.12-1.77,3.08-.62,.89-1.37,1.68-2.01,2.54l-.32,.93-.14,.48-.41,1.04-.24,.53c.83-.36,1.65-.71,2.53-.87l1.04-.15-.15,.65-.89,.97-1.64,1.01,.02,.49,.18,.49,.35,1.62-.76,.56c-1.76,0-3.51,.01-5.25,0l.81-1.31h.04v-.18c-.55,.46-.98,1.05-1.64,1.33l-1.15,.16,.12-.31,.1-.19,.48-.84-1.42,1.2-1.21,.11,.14-.05,.14-.57,.1-.43,.62-1.07,1.12-.31c.62-.12,1.27,.1,1.86-.13l.99-1.38c.15-.73,.09-1.48,0-2.21l-.29-1.38-.21-.81-.32-1.27-.18-.76-.02-1.03-.07-1.31-.31-1.7,.03,1c0,.64,.08,1.29,.09,1.95l.11,1.72,.03,1.23c-.86-.62-1.79-1.16-2.6-1.86l-1.38-1.6-.71-1.15-.1-.29-.11-.26-.03-.14c-.35-1.1-.3-2.3,.13-3.38,.43-1.08,1.22-1.98,2.16-2.67l1.73-1.23c.71-.47,1.49-.85,2.28-1.15v-1.53s-.61-.58-.61-.58l-.12,.1-.83,1.04-.56,.11,.09-.12,.11-.61,.17-.68,.03-.29-.69,.48-.28,.77v1s-.75-.7-.75-.7l-.13-.45v-.46s.07-.29,.07-.29l.07-.33h-.64l-.05,.66-.12,.57-.81,1.13h-.14c.24-.77,.34-1.57,.42-2.36-.49,.55-1.04,1.07-1.7,1.4l-1.2,.05,.83-.83,.12-1.47-.49-1.45c.66,.14,1.32,.35,1.99,.45l1.36-.02,1.16-.22v1.04c.57-.09,1.16-.25,1.75-.21,.7,.04,1.33,.32,1.99,.55l-.07-.39-.06-.28-.07-.28-.1-.29-.42-.7-1.02-1.05-1.31-1.31v1.26s-1.43-.59-1.43-.59l-.96-1.4-1.04,.6-1.04-.79-.82-1.12-.1-1.03,1.62-.42,.53,.33-.37,.88-.17,.07,.48-.07c.92-.29,1.84-.55,2.77-.79,.71-.18,1.42-.36,2.15-.41-.34-.74-1.17-1.04-1.9-1.15l1.26-.63,1.3,.28,.75,1.07,1.23-.94v-1.12l-.1-.25c.59-.03,1.2,.19,1.64,.6l.83,1.03,.8-.87v-1.16s.13,.01,.13,.01l1.45,1.29,.3,.8c1.13,.33,2.22-.26,3.23-.66l-.06,.25-.35,1.1-1.25,1v.07c.41,.52,.7,1.12,.83,1.76l-.15,1.41-.6-.36-1.35-1.28-.75-.77-.1-.1,.1,2.61-.95-.87,.03,.14,.06,.66-.03,.29-.09,.1h0l-.37-.18-.81-.6-.44-.35-.11-.09,.02,.13,.09,.91-.04,.38-.11,.15h-.02s-.4-.17-.4-.17l-.87-.63-.46-.37-.07,.07,.49,.84,.48,1.15v.07s-.05,0-.05,0h0l-.56-.28-1.19-.98-.63-.57-.08,.07,1.03,.93,.81,.64,.61,.3h.01l.12-.06,.04-.13-.5-1.21-.34-.58,.49,.39,.6,.41,.46,.19h.04s.18-.24,.18-.24l.05-.41-.06-.78,.6,.48,.56,.4,.42,.18h0l.19-.17,.04-.33-.04-.52,.92,.84-.1-2.58,1.1,1.12,.92,.84,.66,.42-.48,4.31h.05s-.35,.21-.35,.21l-.13-.02-.51-.61c-.3-.53-.61-1.28-.85-1.9-.24-.61-.41-1.1-.41-1.1h-.09s-.28,2.47-.28,2.47l-1.73-2.47-.09,.04,.2,.9,.21,1.32v.11s-.01,0-.01,0l-.35-.14-1.27-.79-.08-.05v.1l-.03,1.09-.05,.76-.04,.24v.03s-.27-.27-.27-.27l-1.13-1.43-.09,.07,.65,.83,.48,.59,.31,.32h.04s.07-.04,.07-.04l.08-.47,.07-1.64,.65,.41,.56,.32,.38,.15h.02l.08-.08v-.14s-.33-1.98-.33-1.98l1.72,2.48,.28-2.5c.11,.3,.33,.92,.59,1.54l.58,1.25,.58,.66,.16,.02,.41-.21,.38,1.04-.43,.65-.14,.06,1.59-.19c1.65-.35,3.38-.31,5.02-.72l1.59-.29c.3-.06,.61-.12,.91-.19v-3.39h-.25c-.89-.15-1.77-.29-2.63-.54l-1.19-.52-1.11-.77-.62,.11-1.09,1.35-.28,.78h-.09s-.2-.3-.2-.3l-.26-.76-.03-.99,.03-.07,.84-1.35-.16-.76c-.12-.76-.03-1.56,.25-2.29,.38-.81,1.05-1.45,1.8-1.91,.97-.57,2.05-.9,3.14-1.13,.62-.07,1.24-.03,1.86,.05v-2.79c0-8.15-4.89-15.15-11.88-18.27H31.6V78.26ZM58.18,31.82c.64,.02,1.29,.06,1.93,.02l1.05-.14,1.19,1.05,.34,.91,.02,.28-1.02-.35c-.8-.14-1.61-.03-2.38,.19v-.95l-.16-.11c-.98,.25-2.02,.43-3.02,.16-.76-.19-1.42-.81-1.64-1.58,1.2,.37,2.45,.43,3.69,.51Zm-7.05,21.33c-.67,.12-1.35,.08-2.03,.06v.54s1.1,.61,1.1,.61l.1,.25-1.2,.19,.02,.91-.4,.29-.48-.72-.03-.28-.22,.1-.95-.33,1.17-1.04,.09-.57c-.74,.09-1.51,.12-2.24-.05l-.83-.61v-.54l.03-.16,.4-.68,1.1-.07,.22,.91-.22,.57-.17,.08c.67,.16,1.36-.41,1.36-1.08l-.26-.55,.05-.85,.47-.65c-.76,.12-1.6,.22-2.31-.17l-.59-.66v-.48l.17-.29,.55-.22,.76,.16,.47,.58,.15,.19h.1s1.28-.73,1.28-.73l1,.64,.74-.62,.75-.18,.15,.09,.16,.29v.83s-.86,.52-.86,.52h-1.48l.5,1.27-.27,1.04,1.19,.82-.22-.75v-.48s.44-.39,.44-.39c.64,0,1.16,.53,1.41,1.08v.44s-1.15,.69-1.15,.69Zm-.57-7.53l-1.55,.6c-.76,.15-1.54,.1-2.29-.08l-.7-.42-.04-.03,.1-.27,1.47,.09c.84,.09,1.65-.15,2.48-.22l.63,.11-.12,.02,.02,.2Zm-.57-.82c-.88,.27-1.8,.24-2.7,.18l-1.58-.46v-.32s.52-.14,.52-.14c.6,.03,1.19,.22,1.79,.21,.67,0,1.33-.22,2.01-.19l.54,.36-.59,.37Zm-2.03,1.89c.67,.02,1.33-.12,1.99-.26l.74-.04v.25l-.65,.41c-.88,.31-1.84,.39-2.77,.34l-1.24-.28-.11-.35c.68-.16,1.36-.05,2.05-.08Zm1.39-3.05c-.83,.09-1.66,.09-2.48-.01l-1.3-.53v-.33s1.17-.08,1.17-.08c.58,.1,1.18,.21,1.78,.19l1.72-.21,.54,.18v.35s-1.42,.44-1.42,.44Zm5.39,1l.55,1.32,.28,.62,.93,1.41c.71,.72,1.38,1.49,1.85,2.38l.14,1.24-.09,.18-1.32,.72c-.9-.05-1.64-.64-2.26-1.24l-1.24-1.55-.29-.27-.07,.58-.12,.37-.75,.11-1.16-.6v-.1l.59-.73,.3-.49-.12-.54-.12-.43-.81-1.39,.43-.47-.41-.63,.36-.26-.02-.43-.29-.35,.38-.24-.18-.89,.15-.02,.26-.46,1.63,.25c.71,.41,1.09,1.19,1.42,1.91Zm-7.73-4l.1-1.32c.09-.64,.07-1.3,.17-1.94l.15-1.58,.09-1.25,.14-1.44c.16-1.18,.26-2.36,.44-3.52l.11-.9,.17-1.03,.14-.83,.12-.7,.16-.76,.26-1.17,.37-1.38,.24-.77,.12-.27,.1-.29,1.05-1.57-.09,.4c-.36,1.8-.44,3.63-.53,5.45l-.08,1.6c-.08,.79,.02,1.61-.09,2.4-.04,2.6-.04,5.2-.03,7.8l.06,1.72,.04,1.49c-1.03,.47-2.2,.39-3.28,.13l.07-.29Zm-1.12-1.37l.6,.25v.43s-.29,.35-.29,.35l.17,.34c.54,.54,1.32,.73,2.07,.76,.84,0,1.7-.15,2.41-.61l-.17-.9c.48-.58,1.43-.11,1.59,.53v.5c-.37,.73-1.18,1.02-1.92,1.17-1.36,.26-2.77,.2-4.09-.16-.62-.2-1.28-.48-1.68-1.02l-.17-1.02,1.49-.63ZM33.68,3.48l1.55,1.46c.47-.55,1.25-.62,1.93-.55l1.09,.6c.73,1.14,1.24,2.39,1.82,3.61l.51,1.07,.04,.22-1.73-.28c-1-.09-2-.16-2.95-.46-.7-.24-1.44-.66-1.71-1.39v-1.31s.14-.41,.14-.41l.1-.26,.22-.41c-.17-.73-.82-1.17-1.32-1.65l.33-.24Zm1,71.13l-.22-.41-.1-.25-.13-.42v-1.3c.26-.74,1.01-1.14,1.7-1.39,.95-.3,1.96-.38,2.95-.46l1.73-.29-.04,.24-.51,1.07c-.57,1.21-1.09,2.46-1.82,3.6l-1.09,.6c-.67,.08-1.46,0-1.93-.54l-1.55,1.45-.33-.24c.5-.48,1.16-.92,1.32-1.65Z"/>
  <path class="cls-2" d="M71.15,37.11v.17s-.19,.71-.19,.71l-.13,.14-.04,.03c-.37-.06-.93-.71-1.37-1.36-.41-.6-.74-1.18-.79-1.28h0s0-.02,0-.02l-.09,.05,.02,.04c.25,.46,.4,1.2,.49,1.83l.13,1.12-1.58-1.38-.53-.82-.2-.37-.09-.17v.19s-.01,.14-.01,.14c0,1.3,.86,2.22,1.13,2.47h-.06l-.79-.45-1.22-1.53-.57-.92-.09,.04s.41,.74,.95,1.48l.86,1.01,.86,.47,.17-.03,.09-.03-.07-.06-.18-.18c-.32-.33-.96-1.15-.98-2.21,.29,.55,1.27,2.19,2.35,2.46l.07,.02v-.07s-.08-1.41-.39-2.46l.46,.71c.47,.67,1.02,1.34,1.46,1.41h.03s.42-.26,.42-.99v-.19s-.11,.01-.11,.01Z"/>
  <path class="cls-2" d="M64.64,37.35l-.1-1.49,.03-.34-.09-.03-.03,.37c0,.67,.15,1.98,.19,2.32l-.88-1.1-.53-1.02-.1,.02-.07,1.36h.1s.06-1.15,.06-1.15l.45,.84,1.02,1.17,.07,.02v-.08s-.12-.91-.12-.91Z"/>
  <path class="cls-2" d="M79.26,26.39l-.12-.03-1.34-.93-1.32-.35-1.01,1.1-.45,1.05-.06,.46,1.2-1.05,1.79,.18-.17,.05-.44,.77v.62l.14,.38,.02,.02,.71,.81,.14-.85,.11-.79h.14c.44,.43,.9,.87,1.39,1.25v-3.96c-.23-.33-.47-.66-.73-.98-.02,.74-.01,1.49-.01,2.23Z"/>
  <path class="cls-2" d="M65.12,29.2h.11s-.08-.09-.08-.09l-.41-.52-.41-.95c.35,.21,1.83,1.09,2.87,1.09l.53-.1,.07-.03-.06-.06-.52-.45-.5-.7c.22,.02,1.01,.14,1.78,.14,.61,0,1.21-.07,1.5-.32l-.07-.08c-.24,.22-.83,.3-1.43,.3l-1.25-.08-.57-.07h-.05s0,.05,0,.05v.04s.53,.8,.53,.8l.46,.4-.41,.06-1.88-.56-1.01-.56-.07-.05v.09s-.02,.09-.02,.09l.78,1.46h0c-.8,0-1.66-.52-2.33-1.04l-.81-.72-.31-.32-.07,.08s1.83,2.09,3.52,2.1h.13Z"/>
  <path class="cls-5" d="M0,20V60c0,6.08,2.72,11.52,7.01,15.19V4.81C2.72,8.48,0,13.92,0,20Z"/>
  <path class="cls-4" d="M26.13,1.73H11.88c-1.78,.79-3.42,1.83-4.88,3.08V75.19c1.45,1.25,3.09,2.28,4.86,3.07h14.27V1.73Z"/>
  <path class="cls-1" d="M34.68,5.38l-.22,.41-.1,.26-.13,.41v1.31c.26,.73,1.01,1.14,1.7,1.39,.95,.3,1.96,.37,2.95,.46l1.73,.28-.04-.22-.51-1.07c-.57-1.22-1.09-2.47-1.82-3.61l-1.09-.6c-.67-.07-1.46,0-1.93,.55l-1.55-1.46-.33,.24c.5,.48,1.16,.92,1.32,1.65Z"/>
  <path class="cls-1" d="M35.23,75.05c.47,.54,1.25,.62,1.93,.54l1.09-.6c.73-1.14,1.24-2.4,1.82-3.6l.51-1.07,.04-.24-1.73,.29c-1,.08-2,.16-2.95,.46-.7,.25-1.44,.65-1.71,1.39v1.3s.14,.42,.14,.42l.1,.25,.22,.41c-.17,.73-.82,1.16-1.32,1.65l.33,.24,1.55-1.45Z"/>
  <path class="cls-1" d="M50.23,40.8l-.04-1.49-.06-1.72c-.01-2.6-.01-5.19,.03-7.8,.1-.79,0-1.61,.09-2.4l.08-1.6c.09-1.82,.17-3.65,.53-5.45l.09-.4-1.05,1.57-.1,.29-.12,.27-.24,.77-.37,1.38-.26,1.17-.16,.76-.12,.7-.14,.83-.17,1.03-.11,.9c-.19,1.16-.28,2.35-.44,3.52l-.14,1.44-.09,1.25-.15,1.58c-.1,.64-.09,1.3-.17,1.94l-.1,1.32-.07,.29c1.08,.27,2.26,.35,3.28-.13Z"/>
  <path class="cls-1" d="M56.13,32.88c1.01,.27,2.04,.09,3.02-.16l.16,.11v.95c.77-.21,1.58-.32,2.38-.19l1.02,.35-.02-.28-.34-.91-1.19-1.05-1.05,.14c-.64,.04-1.29,0-1.93-.02-1.24-.08-2.49-.14-3.69-.51,.22,.77,.88,1.38,1.64,1.58Z"/>
  <path class="cls-1" d="M46.26,41.93c1.32,.37,2.73,.42,4.09,.16,.74-.15,1.55-.45,1.93-1.17v-.5c-.16-.64-1.12-1.11-1.6-.53l.17,.9c-.71,.46-1.57,.62-2.41,.61-.75-.03-1.53-.22-2.07-.76l-.17-.34,.28-.35v-.43s-.58-.25-.58-.25l-1.49,.63,.17,1.02c.39,.54,1.05,.82,1.68,1.02Z"/>
  <path class="cls-1" d="M51.44,42.93l-.15,.02,.18,.89-.38,.24,.29,.35,.02,.43-.36,.26,.41,.63-.43,.47,.81,1.39,.12,.43,.12,.54-.3,.49-.59,.73v.1l1.16,.6,.75-.11,.12-.37,.07-.58,.29,.27,1.24,1.55c.62,.6,1.36,1.19,2.26,1.24l1.32-.72,.09-.18-.14-1.24c-.47-.89-1.14-1.66-1.85-2.38l-.93-1.41-.28-.62-.55-1.32c-.33-.72-.71-1.5-1.42-1.91l-1.63-.25-.26,.46Z"/>
  <path class="cls-1" d="M50.78,42.85l-.54-.18-1.72,.21c-.6,.02-1.2-.09-1.78-.19l-1.15,.08v.33s1.29,.53,1.29,.53c.83,.1,1.66,.1,2.48,.01l1.41-.44v-.35Z"/>
  <path class="cls-1" d="M48.03,44.26c-.6,.01-1.19-.18-1.79-.21l-.54,.14v.32s1.59,.46,1.59,.46c.9,.06,1.82,.09,2.7-.18l.59-.37-.54-.36c-.68-.03-1.34,.2-2.01,.19Z"/>
  <path class="cls-1" d="M50.03,45.29c-.83,.08-1.64,.32-2.48,.22l-1.47-.09-.1,.27,.04,.03,.7,.42c.75,.19,1.53,.23,2.29,.08l1.55-.6-.02-.2,.12-.02-.63-.11Z"/>
  <path class="cls-1" d="M47.28,47.4c.93,.05,1.89-.03,2.77-.34l.65-.41v-.25l-.74,.04c-.66,.14-1.32,.28-1.99,.26-.69,.03-1.37-.08-2.05,.08l.11,.35,1.24,.28Z"/>
  <path class="cls-1" d="M77.1,48.72l-.17,1.45,.11,.26c.38,.77,.98,1.4,1.56,2.02l.83,1.09,.16,1.73-.09,.47-.2,.84-.06,.21-.2,.76-.09,.26-1.45-.44c-.66-.13-1.4-.07-1.93,.37l-.86,1.59-.02,.49,.71-.17c.81-.36,1.48-.96,2.08-1.62l.18,.03-1.33,1.64h1.5l1.12-1.38-.61,1.38h1.65v-12.85c-.13,.05-.27,.09-.4,.15-.94,.4-1.84,.93-2.51,1.7Z"/>
  <path class="cls-1" d="M50.87,50.94l-.46,.39v.48s.23,.75,.23,.75l-1.19-.82,.27-1.04-.5-1.27h1.48l.87-.52v-.83s-.17-.29-.17-.29l-.15-.09-.75,.18-.74,.62-1-.64-1.28,.74h-.1s-.15-.2-.15-.2l-.47-.58-.76-.16-.55,.22-.17,.29v.48l.59,.66c.71,.39,1.55,.29,2.31,.17l-.47,.65-.05,.85,.26,.55c0,.67-.69,1.23-1.36,1.08l.17-.08,.22-.57-.22-.91-1.1,.07-.4,.68-.03,.16v.54l.83,.61c.73,.17,1.5,.14,2.24,.05l-.09,.57-1.17,1.04,.95,.33,.22-.1,.03,.28,.48,.72,.4-.29-.02-.91,1.2-.19-.1-.25-1.08-.61v-.54c.67,.02,1.35,.06,2.02-.06l1.16-.69v-.44c-.26-.55-.78-1.08-1.42-1.08Z"/>
  <path class="cls-1" d="M78.14,22.74c-1.09,.22-2.17,.56-3.14,1.13-.75,.46-1.42,1.1-1.8,1.91-.28,.73-.37,1.53-.25,2.29l.16,.76-.84,1.35-.03,.07,.03,.99,.26,.76,.2,.32h.09s.28-.8,.28-.8l1.09-1.35,.62-.11,1.11,.77,1.19,.52c.86,.25,1.74,.39,2.63,.54h.25s0-2.79,0-2.79c-.49-.38-.95-.82-1.39-1.25h-.14l-.11,.79-.14,.85-.71-.81-.02-.02-.14-.38v-.62l.44-.77,.17-.05-1.79-.18-1.2,1.05,.06-.46,.45-1.05,1.01-1.1,1.32,.35,1.34,.93,.12,.03c0-.75,0-1.49,.01-2.23,.26,.32,.49,.65,.73,.98v-2.35c-.61-.08-1.23-.12-1.86-.05Z"/>
  <path class="cls-1" d="M77.5,35.74c-1.65,.4-3.37,.37-5.02,.72l-1.59,.19,.14-.06,.43-.65-.38-1.04-.41,.21-.16-.02-.58-.66-.58-1.25c-.26-.62-.48-1.23-.59-1.54l-.28,2.5-1.72-2.48,.34,1.98v.14s-.1,.08-.1,.08h-.02l-.38-.15-.56-.32-.65-.41-.07,1.64-.08,.47-.07,.04h-.04s-.31-.33-.31-.33l-.48-.59-.65-.83,.09-.07,1.13,1.43,.26,.27v-.03s.05-.24,.05-.24l.05-.76,.03-1.09v-.1l.08,.05,1.27,.79,.35,.14h0s.01-.12,.01-.12l-.21-1.32-.2-.9,.09-.04,1.73,2.47,.28-2.46h.09s.17,.48,.41,1.09c.23,.62,.54,1.37,.85,1.9l.51,.61,.13,.02,.35-.22h-.05s.48-4.3,.48-4.3l-.66-.42-.92-.84-1.1-1.12,.1,2.58-.92-.84,.04,.52-.04,.33-.19,.17h0l-.42-.18-.56-.4-.6-.48,.06,.78-.05,.41-.18,.23h-.04s-.46-.19-.46-.19l-.6-.41-.49-.39,.34,.58,.5,1.21-.04,.13-.12,.06h-.01l-.61-.3-.81-.64-1.03-.93,.08-.07,.63,.57,1.19,.98,.56,.28h.04s.01-.08,.01-.08l-.48-1.15-.49-.84,.07-.07,.46,.37,.87,.63,.4,.17h.02s.11-.16,.11-.16l.04-.38-.09-.91-.02-.13,.11,.09,.44,.35,.81,.6,.37,.18h0l.09-.1,.03-.29-.06-.66-.03-.14,.95,.87-.1-2.61,.1,.1,.75,.77,1.35,1.28,.6,.36,.15-1.41c-.13-.64-.42-1.24-.83-1.76v-.07l1.25-1,.35-1.1,.06-.25c-1.01,.4-2.1,.99-3.23,.66l-.3-.8-1.45-1.29h-.12s-.01,1.15-.01,1.15l-.8,.87-.83-1.03c-.44-.41-1.04-.63-1.64-.6l.1,.25v1.12l-1.23,.94-.75-1.07-1.3-.28-1.26,.63c.73,.12,1.56,.42,1.9,1.15-.74,.06-1.44,.24-2.15,.41-.93,.24-1.86,.5-2.77,.79l-.48,.07,.17-.07,.37-.88-.53-.33-1.62,.42,.1,1.03,.82,1.12,1.04,.79,1.04-.6,.96,1.4,1.42,.59v-1.26s1.32,1.31,1.32,1.31l1.02,1.05,.42,.7,.1,.29,.07,.28,.06,.28,.07,.39c-.66-.23-1.29-.5-1.99-.55-.59-.03-1.18,.12-1.76,.21v-1.04s-1.15,.22-1.15,.22l-1.36,.02c-.67-.09-1.33-.3-1.99-.45l.49,1.45-.12,1.47-.83,.83,1.2-.05c.66-.33,1.21-.85,1.7-1.4-.08,.79-.18,1.59-.42,2.35h.14s.81-1.13,.81-1.13l.12-.57,.05-.66h.64l-.07,.33-.08,.29v.46s.14,.45,.14,.45l.75,.7v-1s.28-.77,.28-.77l.69-.48-.03,.29-.17,.68-.11,.61-.09,.12,.56-.11,.83-1.04,.12-.1,.6,.58v1.53c-.79,.3-1.57,.68-2.28,1.15l-1.73,1.23c-.94,.68-1.73,1.59-2.16,2.67-.43,1.07-.48,2.27-.13,3.38l.03,.14,.11,.26,.1,.29,.71,1.15,1.38,1.6c.81,.69,1.74,1.24,2.6,1.86l-.03-1.23-.11-1.72c0-.66-.09-1.31-.09-1.95l-.03-1,.31,1.7,.07,1.31,.02,1.03,.18,.76,.32,1.27,.21,.81,.29,1.38c.09,.73,.15,1.48,0,2.21l-.99,1.38c-.59,.24-1.24,.01-1.86,.13l-1.12,.31-.62,1.07-.1,.43-.14,.57-.14,.05,1.21-.11,1.42-1.2-.48,.84-.1,.19-.12,.31,1.15-.16c.67-.28,1.09-.87,1.64-1.33v.17h-.04s-.81,1.31-.81,1.31c1.74,.02,3.49,0,5.25,0l.76-.56-.35-1.62-.18-.49-.02-.49,1.64-1.01,.89-.97,.15-.65-1.04,.15c-.88,.16-1.7,.52-2.53,.87l.24-.53,.41-1.04,.14-.48,.32-.93c.65-.86,1.39-1.65,2.01-2.54,.7-.96,1.28-2.01,1.77-3.08l.02-.18h.1s-.04-.13-.04-.13h.09s-.02-.22-.02-.22l.07,.02,.15-.6,.02,.46h-.08s-.02,.17-.02,.17l-.08,.31h-.03l-.29,.78-.28,.63-.09,.22c-.32,.61-.67,1.21-1.08,1.77-.6,.89-1.35,1.67-2.08,2.46v.41l-.11,.09,1.16-.19c3.05-.67,5.93-1.98,8.61-3.55,.68-.43,1.43-.74,2.08-1.23,.59-.38,1.23-.69,1.9-.93v-11.44c-.3,.06-.61,.13-.91,.19l-1.59,.29Zm-15.52-6.24l-.34,.29h-.1s-.5-.28-.5-.28l-.32-.67-.05-.45,.1-.51,.33-.3h.1s.5,.28,.5,.28l.31,.67,.06,.45-.1,.52Zm-.52-2.4l.07-.08,.31,.32,.81,.72c.67,.52,1.53,1.04,2.33,1.04h0l-.78-1.46v-.09s.02-.09,.02-.09l.07,.05,1.01,.56,1.88,.56,.41-.06-.46-.4-.54-.8v-.04s.01-.05,.01-.05h.05s.57,.08,.57,.08l1.25,.08c.6,0,1.19-.08,1.43-.3l.07,.08c-.29,.26-.89,.32-1.5,.32-.77,0-1.56-.12-1.78-.14l.5,.7,.52,.45,.06,.06-.07,.03-.53,.1c-1.04,0-2.52-.88-2.87-1.09l.41,.95,.41,.52,.08,.08h-.11s-.13,0-.13,0c-1.69,0-3.52-2.1-3.52-2.1Zm3.22,11.22l-1.02-1.17-.45-.84-.06,1.15h-.1s.07-1.36,.07-1.36l.1-.02,.53,1.02,.88,1.1c-.05-.35-.19-1.65-.19-2.32l.03-.37,.09,.03-.03,.34,.1,1.49,.1,.91v.08s-.06-.02-.06-.02Zm6.15-.05h-.03c-.45-.07-.99-.75-1.46-1.41l-.46-.71c.31,1.05,.38,2.46,.38,2.46v.07s-.06-.02-.06-.02c-1.07-.27-2.05-1.91-2.35-2.46,.02,1.06,.66,1.88,.98,2.21l.18,.18,.07,.06-.09,.03-.17,.03-.86-.47-.86-1.01c-.54-.74-.95-1.48-.95-1.48l.09-.04,.57,.92,1.22,1.53,.79,.45h.06c-.27-.26-1.13-1.18-1.13-2.47v-.33s.1,.17,.1,.17l.2,.37,.53,.82,1.58,1.38-.13-1.12c-.09-.63-.24-1.37-.49-1.83l-.02-.04,.09-.05h0s0,.02,0,.02c.06,.1,.38,.68,.79,1.28,.44,.65,1,1.3,1.37,1.36l.04-.03,.13-.14,.2-.71v-.17s.09-.01,.09-.01v.19c0,.73-.41,.98-.42,.99Z"/>
  <polygon class="cls-1" points="61.54 27.99 61.21 27.78 61.16 27.79 60.97 27.97 60.88 28.4 60.93 28.81 61.21 29.39 61.55 29.6 61.6 29.59 61.79 29.41 61.88 28.98 61.82 28.58 61.54 27.99"/>
</svg>