<?xml version="1.0" encoding="UTF-8"?>
<svg id="Layer_1" data-name="Layer 1" xmlns="http://www.w3.org/2000/svg" viewBox="0 0 80 80">
  <defs>
    <style>
      .cls-1 {
        fill: #fff;
      }

      .cls-2 {
        fill: #bd2b26;
      }
    </style>
  </defs>
  <path class="cls-2" d="M60,0H20C8.95,0,0,8.95,0,20V60c0,11.05,8.95,20,20,20H60c11.05,0,20-8.95,20-20V20c0-11.05-8.95-20-20-20Zm7.21,47.67h-19.53v19.54h-15.35v-19.54H12.8v-15.35h19.53V12.79h15.35v19.53h19.53v15.35Z"/>
  <polygon class="cls-1" points="47.68 12.79 32.33 12.79 32.33 32.32 12.8 32.32 12.8 47.67 32.33 47.67 32.33 67.21 47.68 67.21 47.68 47.67 67.21 47.67 67.21 32.32 47.68 32.32 47.68 12.79"/>
</svg>