<?xml version="1.0" encoding="UTF-8"?>
<svg id="Layer_1" data-name="Layer 1" xmlns="http://www.w3.org/2000/svg" viewBox="0 0 80 80">
  <defs>
    <style>
      .cls-1 {
        fill: #fff;
      }

      .cls-2 {
        fill: #049d60;
      }

      .cls-3 {
        fill: #cd2028;
      }
    </style>
  </defs>
  <path d="M20,80H60c11.05,0,20-8.95,20-20v-5.92H0v5.92c0,11.05,8.95,20,20,20Z"/>
  <path class="cls-1" d="M80,25.92H0v28.16H80V25.92ZM19.78,47.96l-5.17-3.76-5.17,3.76,1.97-6.08-5.17-3.76h6.4l1.97-6.08,1.97,6.08h6.4l-5.17,3.76,1.97,6.08Zm45.61-3.76l-5.17,3.76,1.98-6.08-5.18-3.76h6.4l1.98-6.08,1.98,6.08h6.39l-5.17,3.76,1.97,6.08-5.17-3.76Z"/>
  <path class="cls-3" d="M80,20c0-11.05-8.95-20-20-20H20C8.95,0,0,8.95,0,20v5.92H80v-5.92Z"/>
  <polygon class="cls-2" points="16.58 38.11 14.61 32.04 12.64 38.11 6.24 38.11 11.41 41.87 9.44 47.96 14.61 44.2 19.78 47.96 17.81 41.87 22.98 38.11 16.58 38.11"/>
  <polygon class="cls-2" points="73.76 38.11 67.37 38.11 65.39 32.04 63.41 38.11 57.02 38.11 62.2 41.87 60.22 47.96 65.39 44.2 70.56 47.96 68.59 41.87 73.76 38.11"/>
</svg>