<?xml version="1.0" encoding="UTF-8"?>
<svg id="Layer_1" data-name="Layer 1" xmlns="http://www.w3.org/2000/svg" viewBox="0 0 80 80">
  <defs>
    <style>
      .cls-1 {
        fill: #0ea2dc;
      }

      .cls-2 {
        fill: #28b24b;
      }

      .cls-3 {
        fill: #fbd015;
      }
    </style>
  </defs>
  <path class="cls-2" d="M60,0H20C8.95,0,0,8.95,0,20v25.64L66.7,1.18c-2.1-.75-4.35-1.18-6.7-1.18Z"/>
  <path class="cls-1" d="M20,80H60c11.05,0,20-8.95,20-20v-25.65L13.3,78.82c2.1,.75,4.35,1.18,6.7,1.18Z"/>
  <path class="cls-3" d="M13.3,78.82L80,34.35v-6.57L7.87,75.87c1.63,1.25,3.46,2.25,5.43,2.95Z"/>
  <path class="cls-3" d="M0,45.64v6.57L72.13,4.12c-1.63-1.25-3.46-2.25-5.43-2.95L0,45.64Z"/>
  <path d="M0,60c0,6.48,3.09,12.22,7.87,15.87L80,27.78v-7.78c0-6.48-3.09-12.22-7.87-15.88L0,52.21v7.79Z"/>
</svg>