<?xml version="1.0" encoding="UTF-8"?>
<svg id="Layer_1" data-name="Layer 1" xmlns="http://www.w3.org/2000/svg" viewBox="0 0 80 80">
  <defs>
    <style>
      .cls-1 {
        fill: #fadf44;
      }

      .cls-2 {
        fill: #00aac8;
      }
    </style>
  </defs>
  <path class="cls-2" d="M20,80H60c11.05,0,20-8.95,20-20v-5.42H18.5L1.5,67.59c2.99,7.28,10.14,12.41,18.5,12.41Z"/>
  <polygon class="cls-1" points="37.54 40 18.5 54.58 80 54.58 80 25.42 18.5 25.42 37.54 40"/>
  <path class="cls-2" d="M80,25.42v-5.42c0-11.05-8.95-20-20-20H20C11.64,0,4.49,5.13,1.5,12.41l17,13.01h61.5Z"/>
  <path d="M37.54,40l-19.05-14.58L1.5,12.41c-.96,2.34-1.5,4.9-1.5,7.59V60c0,2.69,.54,5.25,1.5,7.59l17-13.01,19.04-14.58Z"/>
</svg>