<?xml version="1.0" encoding="UTF-8"?>
<svg id="Layer_1" data-name="Layer 1" xmlns="http://www.w3.org/2000/svg" viewBox="0 0 80 80">
  <defs>
    <style>
      .cls-1 {
        fill: #fff;
      }

      .cls-2 {
        fill: #bf2026;
      }
    </style>
  </defs>
  <path class="cls-2" d="M20,80H60c11.05,0,20-8.95,20-20V20c0-11.05-8.95-20-20-20h-20.93V40.01H0v19.99c0,11.05,8.95,20,20,20Z"/>
  <path class="cls-1" d="M39.07,0H20c-4.14,0-7.98,1.26-11.17,3.41h7.06V13.99h10.57v8.3H15.89v10.58H7.59v-10.58H0v17.72H39.07V0Z"/>
  <path class="cls-1" d="M7.59,4.34C4.49,6.79,2.14,10.13,.92,13.99H7.59V4.34Z"/>
  <path class="cls-2" d="M7.59,32.87H15.89v-10.58h10.57V13.99H15.89V3.41h-7.06c-.43,.29-.84,.61-1.24,.93V13.99H.92c-.6,1.9-.92,3.92-.92,6.01v2.29H7.59v10.58Z"/>
</svg>