<?xml version="1.0" encoding="UTF-8"?>
<svg id="Layer_1" data-name="Layer 1" xmlns="http://www.w3.org/2000/svg" viewBox="0 0 80 80">
  <defs>
    <style>
      .cls-1 {
        fill: #fff;
      }

      .cls-2 {
        fill: #cd2028;
      }
    </style>
  </defs>
  <path class="cls-2" d="M20,80H60c.49,0,.97-.04,1.45-.07L0,20.93V60c0,11.05,8.95,20,20,20Z"/>
  <path class="cls-2" d="M80,20c0-11.05-8.95-20-20-20H20c-.51,0-1,.04-1.5,.08l61.5,59.03V20Z"/>
  <path d="M79.18,65.62L12.4,1.51C6.81,3.8,2.51,8.55,.81,14.41L67.57,78.51c5.59-2.29,9.9-7.03,11.62-12.89Z"/>
  <path class="cls-1" d="M80,60v-.89L18.5,.08c-2.15,.16-4.2,.65-6.1,1.43L79.18,65.62c.52-1.78,.82-3.67,.82-5.62Z"/>
  <path class="cls-1" d="M67.57,78.51L.81,14.41c-.52,1.77-.81,3.64-.81,5.59v.93l61.45,58.99c2.15-.15,4.21-.64,6.12-1.42Z"/>
</svg>