<?xml version="1.0" encoding="UTF-8"?>
<svg id="Layer_1" data-name="Layer 1" xmlns="http://www.w3.org/2000/svg" viewBox="0 0 80 80">
  <defs>
    <style>
      .cls-1 {
        fill: #fff;
      }

      .cls-2 {
        fill: #e51e26;
      }
    </style>
  </defs>
  <path class="cls-2" d="M60,80c11.05,0,20-8.95,20-20V20c0-11.05-8.95-20-20-20H20C8.95,0,0,8.95,0,20V60c0,11.05,8.95,20,20,20H60ZM40,18.12c12.08,0,21.88,9.8,21.88,21.88s-9.8,21.88-21.88,21.88-21.88-9.8-21.88-21.88,9.79-21.88,21.88-21.88Z"/>
  <path class="cls-1" d="M40,61.88c12.08,0,21.88-9.8,21.88-21.88s-9.8-21.88-21.88-21.88-21.88,9.8-21.88,21.88,9.79,21.88,21.88,21.88Zm15.41-15.73l-7.14-2.37-4.46,6.06,.05-7.52-7.14-2.37,7.17-2.28,.05-7.52,4.38,6.11,7.17-2.28-4.46,6.06,4.39,6.11Zm-13.79-23.27c5.71,0,10.75,2.79,13.86,7.08-2.45-2.26-5.7-3.66-9.3-3.66-7.56,0-13.69,6.13-13.69,13.68s6.13,13.69,13.69,13.69c3.59,0,6.85-1.4,9.3-3.67-3.11,4.3-8.16,7.09-13.86,7.09-9.45,0-17.1-7.66-17.1-17.11s7.65-17.11,17.1-17.11Z"/>
  <path class="cls-2" d="M41.62,57.11c5.71,0,10.75-2.8,13.86-7.09-2.45,2.27-5.7,3.67-9.3,3.67-7.56,0-13.69-6.13-13.69-13.69s6.13-13.68,13.69-13.68c3.59,0,6.85,1.4,9.3,3.66-3.11-4.29-8.16-7.08-13.86-7.08-9.45,0-17.1,7.66-17.1,17.11s7.65,17.11,17.1,17.11Z"/>
  <polygon class="cls-2" points="48.31 36.27 43.93 30.15 43.88 37.67 36.71 39.95 43.85 42.32 43.81 49.85 48.26 43.79 55.41 46.16 51.02 40.04 55.48 33.99 48.31 36.27"/>
</svg>