<?xml version="1.0" encoding="UTF-8"?>
<svg id="Layer_1" data-name="Layer 1" xmlns="http://www.w3.org/2000/svg" viewBox="0 0 80 80">
  <defs>
    <style>
      .cls-1 {
        fill: #002868;
      }

      .cls-2 {
        fill: #fff;
      }

      .cls-3 {
        fill: #ce1126;
      }

      .cls-4 {
        fill: #ffa1a1;
      }

      .cls-5 {
        fill: #9e540a;
      }

      .cls-6 {
        fill: #f1b2dc;
      }

      .cls-7 {
        fill: #009e49;
      }

      .cls-8 {
        fill: #fcad56;
      }

      .cls-9 {
        fill: #fcd116;
      }
    </style>
  </defs>
  <path class="cls-1" d="M10.5,10.67H30s0,2.93,0,2.93v11.73H10.51l19.49,9.75v4.92h-9.84L0,29.92v30.08c0,11.05,8.95,20,20,20H60c11.05,0,20-8.95,20-20v-4.68c-1.72,1.33-3.63,2.51-5.75,3.49l-.25,.12-.25-.12c-5.28-2.46-9.34-6.02-12.08-10.56-2.39-3.98-3.66-8.6-3.66-13.38v-13.79h21.99v-1.08c0-11.05-8.95-20-20-20H30V.91L10.5,10.67Z"/>
  <path class="cls-2" d="M12.52,1.46c-.95,.39-1.86,.85-2.74,1.37l2.74-1.37Z"/>
  <path class="cls-2" d="M1.06,13.6H30s0-2.93,0-2.93H10.5S30,.91,30,.91V0h-8L3,9.5c-.79,1.28-1.45,2.65-1.94,4.1Z"/>
  <polygon class="cls-2" points="30 40 .67 25.33 7.23 25.33 30 36.72 30 35.08 10.51 25.33 30 25.33 30 22.4 0 22.4 0 29.92 20.16 40 30 40"/>
  <path class="cls-3" d="M30,22.4V13.6H1.06c-.68,2.01-1.06,4.16-1.06,6.4v2.4H30Z"/>
  <polygon class="cls-3" points=".67 25.33 30 40 30 36.72 7.23 25.33 .67 25.33"/>
  <path class="cls-3" d="M3,9.5L22,0h-2c-2.65,0-5.17,.53-7.48,1.46l-2.74,1.37c-2.76,1.65-5.09,3.94-6.78,6.67Z"/>
  <path class="cls-9" d="M59.19,34.87c0,4.57,1.21,8.98,3.49,12.78,2.57,4.27,6.38,7.63,11.32,9.98,2.24-1.07,4.24-2.35,6-3.82v-2.47c-.05,.12-.11,.24-.19,.35-.15,.21-.43,.45-.85,.4-.37,.58-1.67,1.07-2.17,.92-.24,.16-.73,.36-1.28,.43-.11,.01-.24,.02-.37,.02-.38,0-.81-.09-1.14-.38-.33,.3-.76,.38-1.14,.38-.13,0-.26,0-.37-.02-.54-.07-1.04-.27-1.28-.43-.5,.16-1.8-.33-2.17-.92-.42,.05-.7-.19-.85-.4-.28-.39-.38-.98-.27-1.21,.12-.24,.08-.45,.04-.63-.04-.2-.08-.38,.09-.57,.23-.22,.16-.43,.09-.63-.07-.19-.13-.38,.1-.53,.21-.15,.18-.34,.16-.55-.03-.21-.06-.43,.17-.6,.22-.17,.16-.36,.1-.55-.06-.19-.11-.38,.14-.51,.24-.12,.21-.33,.19-.56-.02-.21-.05-.42,.16-.54,.17-.1,.14-.28,.1-.48-.05-.23-.1-.49,.21-.64,.27-.14,.27-.33,.27-.52,0-.17,0-.34,.21-.44,.22-.12,.23-.3,.23-.47,0-.17,0-.34,.23-.43,.24-.1,.26-.29,.28-.47,.02-.17,.04-.34,.25-.41,.19-.07,.2-.2,.22-.36,0-.03,0-.06,.01-.09-.04-.04-.06-.09-.07-.13-.03-.11,.01-.23,.13-.37,.06-.07,.14-.1,.22-.11,.08-3.4,.72-4.46,2.56-4.46s2.48,1.06,2.56,4.46c.09,.01,.17,.04,.22,.11,.12,.14,.16,.26,.13,.37-.01,.04-.04,.09-.07,.13,0,.03,.01,.06,.01,.09,.02,.16,.03,.29,.22,.36,.21,.07,.23,.25,.25,.41,.02,.18,.05,.37,.28,.47,.22,.09,.22,.26,.23,.43,0,.17,0,.35,.23,.47,.21,.1,.21,.27,.21,.44,0,.19,0,.38,.27,.52,.31,.15,.26,.41,.21,.64-.04,.2-.07,.37,.1,.48,.2,.12,.18,.34,.16,.54-.02,.22-.05,.44,.19,.56,.25,.13,.19,.32,.14,.51-.06,.19-.12,.39,.1,.55,.23,.17,.2,.39,.17,.6-.03,.21-.05,.4,.16,.55,.23,.15,.16,.33,.1,.53-.07,.2-.14,.41,.09,.63,.02,.02,.03,.04,.05,.07v-10.47c-.07-.02-.13-.06-.17-.14-.09-.17-.07-.42-.03-.63-.13,.14-.25,.24-.37,.26-.03,0-.06,0-.08,0-.09,0-.17-.03-.26-.09-.07-.05-.12-.13-.13-.24-.03-.25,.13-.58,.31-.78,.1-.12,.42-.44,.74-.75v-1.67c-.07-.19-.14-.43-.1-.58-.09-.23-.3-.74-.11-.85-.02-.06-.05-.12-.07-.18-.08-.21-.17-.42-.18-.63l-.02-.06c-.08-.22-.22-.59-.09-.74-.03-.07-.16-.37-.2-.62-.39-.16-.89-.31-1.44-.38,0-.01,0-.03,0-.04,0-.13,0-.26,0-.39,0-.01,0-.03,0-.04,.04,0,.08,0,.12,0,.51,.05,.94,.15,1.3,.26-.03-.22-.05-.5,.05-.61h0c-.43-.16-.95-.33-1.48-.47v-.04c0-.15,0-.29,0-.45,0,0,0-.01,0-.02,0-.01,0-.03,0-.04,.14,.03,.29,.06,.43,.11,.43,.13,.8,.25,1.11,.36,.03-.15,.06-.3,.13-.37,0-.04,0-.2,.02-.38-.44-.24-1.02-.54-1.6-.79,0-.01,0-.03,0-.04,.03-.15,.06-.3,.11-.44,0-.01,.01-.02,.02-.04,.07,.02,.14,.04,.2,.07,.57,.26,1.05,.5,1.42,.7,0,0,0,0,0,0,.05-.07,.1-.12,.15-.19-.4-.32-.96-.76-1.5-1.15,0-.01,.02-.02,.02-.03,.1-.15,.22-.28,.35-.38,.01,0,.02-.02,.03-.03,.54,.35,.99,.68,1.32,.96v-.25c-.25-.29-.51-.65-.65-1,0,0,0,0,0,0,.01,0,.03,0,.04,0,.12-.02,.23-.02,.33,0,.02,0,.04,0,.05,0,.06,.11,.13,.21,.22,.31v-.38c-.21-.06-.43-.07-.67-.04-.55,.09-.99,.42-1.26,.93-.37,.68-.4,1.41-.42,2.13,0,2.47,.09,3.48,.17,5.92,.02,.72,.15,2.18-.18,3.34-.13,.49-.27,.95-.49,1.43,.15-.6,.22-.92,.29-1.38,.2-1.19,.15-2.31,.11-3.41-.07-2.26-.2-3.41-.28-6.14-.02-.83,.06-1.45,.44-2.11,.4-.68,1.1-1.17,1.89-1.17,.15,0,.28,.02,.41,.04v-1.02c-.15,.27-.29,.57-.34,.88-.01,0-.03,0-.04,0-.01,0-.02,0-.03,0-.1,0-.19,.03-.29,.04-.01,0-.03,0-.04,0,.08-.48,.41-1.07,.74-1.39v-1.81h-20.81v12.61Zm18.04-4.04c-.63,.06-1.29,.28-1.81,.46-.47,.16-.79,.27-.88,.19,0,0,0,0,0-.02,0-.04,.04-.1,.13-.17,.28-.25,1.26-.86,2.55-.94,0,.01,0,.03,0,.04,0,.13,.01,.28,.02,.4,0,.01,0,.02,0,.04Zm-1.61-6.08c.19-.14,1.01,.36,2.26,1.12,.08,.05,.17,.1,.25,.15-.01,0-.02,.02-.03,.03-.12,.11-.22,.23-.32,.37,0,.01-.02,.02-.02,.03-1.32-.92-2.14-1.52-2.14-1.68,0,0,0-.01,0-.02Zm-1.26,2.33c.21-.14,1.66-.19,2.99,.12,0,.01,0,.02-.01,.04-.04,.13-.08,.27-.11,.4,0,.01,0,.03,0,.04-.67-.19-1.4-.29-1.97-.36-.48-.06-.83-.1-.91-.18,0,0,0,0,0-.01,0-.02,.01-.03,.03-.05Zm-.14,1.98c.22-.16,1.59-.36,2.94-.18,0,.02,0,.03,0,.04,0,.16,0,.31,.01,.46,0,.01,0,.03,0,.04-.63-.1-1.32-.14-1.9-.17-.57-.03-.98-.04-1.08-.12,0,0,0,0,0-.02,0-.02,.01-.04,.04-.05Zm-13.1-.2c.05-.04,.3-.26,.32-.46,.02-.19,.25-.29,.68-.29,.21,0,.38-.13,.54-.25,.12-.09,.24-.18,.37-.21-.02-.01-.02-.04-.03-.06,0,0,0,0,0,0-.02-.03-.05-.06-.06-.11,0-.09,.02-.19,.07-.23-.3-.07-.43-.26-.41-.42,0-.1,.08-.18,.17-.2-.02-.05-.1-.12-.35-.2-.12-.04-.15-.11-.16-.16-.01-.1,.07-.24,.21-.34-.15-.31-.07-.58,.25-.86-.06-.01-.1-.03-.12-.07-.07-.12,.05-.35,.16-.57,.05-.1,.1-.2,.13-.28,.06-.17,.11-.26,.18-.27,.04,0,.09,.03,.15,.12l.02,.02c.15,.17,.47,.53,.83,.63,.38,.11,.6,.32,.67,.64,.07,.33,.22,.49,.61,.63,.3,.09,1,.4,.93,1.27,.27,.02,.47,.1,.66,.22-.01-.26-.03-.51-.06-.75,0-.1,.01-.19,.02-.28,0-.04,0-.07,0-.11,.08-.65,.48-1.11,.87-1.52,.05-.05,.1-.11,.15-.16,0,0,.01,0,.02,0,.3,.12,.68,.41,1,.79,.31,.36,.5,.71,.5,.92,0,.47,.24,.74,.45,.92h.02c.27,.23,.5,.42,.45,.7-.05,.26,.03,.44,.29,.64,.23,.16,.45,.39,.37,.79-.02,.09-.03,.16-.03,.23,0,.01,0,.02,0,.03,0,.22,.05,.39,.16,.58,.03,.06,.07,.12,.11,.18,.14,.21,.27,.42,.19,.77-.1,.41-.06,1,.09,1.31,.13,.27,.01,.49-.22,.94l-.04,.07c-.25,.47-.4,.66-.95,.85-.55,.16-.57,.49-.57,1.04,0,.28-.08,.49-.25,.63-.19,.17-.49,.22-.87,.16-.09,.07-.17,.12-.26,.16-.3,.46-.71,.65-1.11,.65-.17,0-.33-.03-.48-.1-.35-.14-.67-.69-1.01-1.28-.19-.33-.39-.67-.59-.93-.3-.38-.47-.45-.64-.52-.13-.05-.24-.1-.4-.27-.34-.38-.86-.66-1.75-1.08l-.05-.02c-.46-.21-.94-.43-1.26-1.25,0,0,0,0,0-.01,.13-.35,.48-.65,.76-.76,.28-.09,.48-.5,.52-.83,.03-.31,.29-.66,.68-.94-.2,.01-.52-.06-.69-.18-.16-.14-.43-.1-.58,.02-.17,.12-.38,.15-.67,.11,0,0-.01,0-.02-.01,0,0,0-.02,0-.02Z"/>
  <path class="cls-9" d="M64.59,25.01s.06,.1,.09,.16c-.02-.06-.05-.11-.09-.16Z"/>
  <path class="cls-9" d="M64.25,24.74s.09,.04,.13,.07c-.04-.03-.08-.05-.13-.07Z"/>
  <path d="M58.01,34.87c0,4.78,1.27,9.41,3.66,13.38,2.73,4.54,6.8,8.1,12.08,10.56l.25,.12,.25-.12c2.12-.99,4.03-2.16,5.75-3.49v-.09c-1.73,1.34-3.65,2.53-5.78,3.52l-.22,.1-.22-.1c-5.27-2.46-9.32-6-12.05-10.53-2.39-3.96-3.65-8.58-3.65-13.35v-13.71h21.91v-.07h-21.99v13.79Z"/>
  <path d="M59.11,34.87c0,4.58,1.21,9.01,3.5,12.82,2.58,4.29,6.41,7.66,11.39,10.03,2.24-1.07,4.23-2.35,6-3.81v-.09c-1.76,1.47-3.76,2.76-6,3.82-4.94-2.36-8.75-5.72-11.32-9.98-2.28-3.79-3.49-8.21-3.49-12.78v-12.61h20.81v-.07h-20.89v12.69Z"/>
  <path class="cls-2" d="M58.09,34.87c0,4.77,1.26,9.38,3.65,13.35,2.73,4.53,6.78,8.07,12.05,10.53l.22,.1,.22-.1c2.13-1,4.06-2.18,5.78-3.52v-1.32c-1.77,1.47-3.76,2.75-6,3.81-4.97-2.37-8.8-5.74-11.39-10.03-2.29-3.81-3.5-8.24-3.5-12.82v-12.69h20.89v-1.03h-21.91v13.71Z"/>
  <path class="cls-8" d="M63,27.58s0,0,0,0c0,0,0,0,0,0Z"/>
  <path class="cls-8" d="M64.08,27.62s.02-.01,.03,0c.01,0,.01,.02,0,.03-.03,.06-.11,.08-.22,.08-.09,0-.19-.01-.31-.02-.16-.02-.32-.03-.46-.03,0,0,0,0,0,0-.15,0-.29,.11-.44,.22-.17,.13-.35,.26-.57,.26-.41,0-.62,.09-.64,.26-.02,.19-.21,.38-.3,.46,.26,.03,.45,0,.6-.11,.17-.13,.45-.17,.63-.02,.18,.13,.56,.19,.73,.16,.11-.1,.3-.2,.48-.29,.23-.12,.48-.24,.55-.38,0,0,.02-.01,.03,0,0,0,.01,.02,0,.03-.09,.15-.33,.27-.57,.4-.18,.09-.37,.19-.48,.29,0,0,0,0,0,0,0,0,0,0,0,0-.41,.28-.69,.65-.72,.96-.04,.34-.25,.76-.55,.86-.27,.11-.61,.39-.74,.73,.32,.8,.78,1.01,1.24,1.22l.05,.02c.9,.42,1.42,.71,1.77,1.09,.15,.17,.27,.21,.39,.26,.16,.06,.35,.14,.66,.53,.2,.26,.4,.6,.6,.93,.32,.55,.65,1.12,.99,1.26,.46,.19,1.08,.09,1.5-.49-.06,.02-.11,.03-.17,.04h0s-.01,0-.02,0c-.06,0-.12,0-.17-.03-.19-.07-.52-.31-.71-1.22-.02-.12-.05-.24-.07-.35-.14-.79-.29-1.61-1.23-2.29-.43-.33-.66-.79-.64-1.29,.03-.57,.38-1.14,.89-1.46,.65-.39,.77-1.35,.73-2.26-.19-.13-.41-.21-.68-.23-.45,0-.77,.17-.92,.48,0,0-.01,.01-.02,.01,0,0,0,0,0,0-.01,0-.01-.02,0-.03,.11-.23,.35-.5,.93-.5,.07-.84-.61-1.14-.9-1.23-.4-.15-.56-.31-.64-.66-.01-.04-.03-.08-.05-.12-.02-.06-.05-.11-.09-.16-.05-.07-.12-.14-.21-.19-.04-.03-.09-.05-.13-.07-.05-.02-.11-.05-.17-.07-.38-.11-.7-.47-.85-.65l-.02-.02c-.05-.08-.09-.11-.12-.11-.05,0-.1,.13-.14,.25-.03,.08-.08,.18-.13,.28-.1,.2-.22,.43-.16,.53,.02,.04,.06,.06,.13,.06,.02,0,.04,0,.06,0,.11,0,.26,0,.32,.06,.02,.02,.04,.06,.04,.09,0,.01,0,.02-.02,.02s-.02,0-.02-.02c0-.03,0-.05-.03-.06-.06-.05-.19-.05-.3-.05-.02,0-.04,0-.05,0-.33,.27-.41,.53-.27,.83,.08-.05,.17-.05,.28-.06,.13,0,.29,0,.43-.1,0,0,.02,0,.03,0,0,0,0,.02,0,.03-.15,.1-.31,.11-.45,.11-.11,0-.21,0-.28,.06,0,0,0,0,0,0h0c-.14,.1-.22,.23-.21,.32,0,.06,.05,.1,.13,.13,.23,.08,.33,.15,.37,.24,.24,0,.49-.03,.75-.22,0,0,.02,0,.03,0s0,.02,0,.03c-.27,.2-.53,.22-.78,.22-.08,0-.15,.07-.16,.16-.01,.15,.11,.33,.43,.39,.18,0,.55-.13,.62-.37,0-.01,.01-.02,.02-.01,.01,0,.02,.01,.01,.02-.08,.26-.46,.4-.66,.4,0,0,0,0,0,0-.05,0-.1,.12-.09,.22,0,.05,.02,.16,.14,.16,0,0,0,0,0,0,.15,0,.32,.01,.46,.03,.23,.02,.45,.05,.49-.03Zm.85,2.78c-.42,.14-.57,.48-.72,.82-.02,.06-.05,.11-.07,.16-.13,.23-.26,.27-.36,.3-.06,.02-.1,.03-.12,.08-.08,.16-.38,.21-.57,.21-.17,.02-.2,.08-.26,.21-.06,.14-.17,.22-.31,.22-.02,0-.05,0-.08,0-.01,0-.02-.01-.02-.02s.01-.02,.02-.02c.2,.04,.3-.08,.34-.19,.06-.14,.1-.21,.29-.23,.17,0,.46-.05,.53-.19,.02-.07,.08-.08,.14-.1,.09-.03,.22-.07,.33-.28,.02-.05,.05-.11,.07-.16,.15-.34,.31-.69,.74-.84,.01,0,.02,0,.03,.01,0,.01,0,.02-.01,.03Zm-1.1-5.5c.28,.08,.32,.23,.36,.36,.02,.09,.05,.17,.13,.23,.22,.17,.22,.34,.22,.49,0,.12,0,.21,.14,.24,.34,.09,.33,.17,.26,.51v.02c-.06,.21,.02,.32,.09,.41,.07,.09,.13,.17,.05,.31,0,0-.01,.01-.02,.01,0,0,0,0,0,0,0,0-.01-.02,0-.03,.06-.12,.02-.18-.05-.27-.07-.09-.16-.21-.1-.44v-.02c.07-.35,.08-.38-.22-.47-.17-.05-.17-.16-.17-.28,0-.14,0-.3-.2-.45-.09-.07-.12-.16-.14-.25-.04-.13-.07-.26-.33-.33-.01,0-.02-.01-.01-.02,0-.01,.01-.02,.02-.01Z"/>
  <path d="M61.8,28.78c.15-.12,.42-.16,.58-.02,.17,.12,.49,.19,.69,.18-.39,.28-.64,.63-.68,.94-.03,.33-.24,.73-.52,.83-.28,.11-.63,.41-.76,.76,0,0,0,0,0,.01,.32,.82,.8,1.04,1.26,1.25l.05,.02c.9,.42,1.41,.7,1.75,1.08,.16,.18,.28,.22,.4,.27,.17,.06,.34,.13,.64,.52,.2,.26,.4,.6,.59,.93,.34,.58,.66,1.14,1.01,1.28,.15,.06,.31,.1,.48,.1,.39,0,.81-.19,1.11-.65,.08-.04,.17-.09,.26-.16,.38,.06,.68,0,.87-.16,.16-.14,.25-.35,.25-.63,0-.56,.03-.88,.57-1.04,.55-.19,.69-.38,.95-.85l.04-.07c.23-.44,.35-.67,.22-.94-.15-.31-.19-.89-.09-1.31,.09-.35-.05-.57-.19-.77-.04-.06-.08-.12-.11-.18-.1-.19-.16-.36-.16-.58,0-.01,0-.02,0-.03,0-.07,.01-.15,.03-.23,.08-.4-.14-.63-.37-.79-.26-.2-.34-.38-.29-.64,.06-.28-.18-.47-.45-.68h-.02c-.21-.19-.45-.46-.45-.93,0-.21-.19-.56-.5-.92-.32-.37-.69-.67-1-.79,0,0-.02,0-.02,0-.05,.05-.1,.11-.15,.16-.38,.4-.79,.86-.87,1.52,0,.04,0,.07,0,.11,0,.09-.03,.18-.02,.28,.03,.23,.05,.49,.06,.75-.19-.12-.39-.2-.66-.22,.07-.86-.63-1.17-.93-1.27-.39-.14-.54-.29-.61-.63-.07-.32-.29-.52-.67-.64-.36-.1-.68-.46-.83-.63l-.02-.02c-.06-.09-.11-.13-.15-.12-.06,0-.11,.11-.18,.27-.03,.08-.08,.18-.13,.28-.11,.22-.23,.45-.16,.57,.02,.04,.06,.06,.12,.07-.32,.27-.4,.55-.25,.86-.14,.11-.22,.24-.21,.34,0,.05,.04,.12,.16,.16,.25,.08,.32,.15,.35,.2-.09,.01-.16,.09-.17,.2-.01,.16,.11,.34,.41,.42-.05,.05-.08,.15-.07,.23,0,.05,.03,.08,.06,.11,0,0,0,0,0,0,.01,.02,.01,.05,.03,.06-.13,.03-.24,.12-.37,.21-.17,.12-.34,.25-.54,.25-.43,0-.66,.1-.68,.29-.02,.2-.27,.42-.32,.46,0,0,0,.01,0,.02,0,0,0,.01,.02,.01,.29,.04,.5,0,.67-.11Zm7.63-2.51c0,.49,.25,.76,.47,.95h.02c.26,.22,.48,.4,.43,.66-.05,.28,.03,.48,.3,.68,.22,.16,.43,.37,.36,.75-.08,.38-.01,.61,.13,.88,.03,.06,.07,.12,.11,.18,.13,.2,.27,.41,.18,.74-.11,.42-.06,1.02,.09,1.33,.12,.25,.01,.46-.22,.9l-.04,.07c-.25,.46-.39,.65-.92,.83-.57,.17-.6,.52-.6,1.08,0,.26-.08,.47-.23,.6-.18,.16-.47,.21-.84,.15,0,0-.01,0-.02,0,0,0-.02,0-.03,.02,.75-.65,.62-2.27,.48-2.88-.04-.16-.08-.33-.13-.52-.2-.75-.44-1.67-.16-2.42,.31-.8,.04-1.55-.17-2.16-.14-.41-.26-.74-.14-.94,.28-.47,.27-.74,.22-.95-.02-.1-.12-.18-.22-.17-.04,0-.14,.03-.15,.23-.02,.35-.11,.47-.32,.67-.19,.21-.19,.65,0,1.23,.02,.05,.03,.1,.05,.15,.17,.53,.41,1.25-.08,2.2-.53,1.02-.32,1.5-.12,1.97v.03s.01,0,.01,0c.29,.68,1.08,3.3,.31,3.75-.06,0-.13,.02-.19,0-.3-.11-.55-.54-.68-1.19-.02-.12-.05-.24-.07-.35-.15-.8-.29-1.63-1.24-2.32-.54-.41-.64-.91-.62-1.26,.03-.56,.37-1.12,.87-1.42,.4-.24,.64-.7,.73-1.39,.07-.58,.02-1.22-.04-1.71-.08-.86,.43-1.4,.88-1.87,.05-.05,.1-.1,.15-.15,.65,.26,1.46,1.25,1.46,1.66Zm-.5,6.44c.05,.18,.09,.36,.13,.52,.15,.68,.31,2.63-.77,3.04,.67-.6-.09-3.06-.38-3.74v-.03c-.21-.46-.41-.94,.11-1.94,.5-.96,.26-1.69,.09-2.23-.02-.05-.03-.1-.05-.15-.18-.56-.18-1,0-1.19,.21-.2,.32-.33,.34-.69,0-.12,.05-.19,.12-.19,.07,0,.16,.06,.17,.14,.04,.2,.05,.46-.22,.92-.12,.22,0,.55,.14,.97,.21,.6,.47,1.35,.17,2.13-.04,.11-.05,.24-.07,.36,0,0,0,.01,0,.02-.11,.68,.07,1.44,.24,2.07Zm-.59,3.55s-.03,.02-.05,.02c.02,0,.03-.01,.05-.02Zm-5.22-8.63c-.12,0-.14-.11-.14-.16,0-.1,.04-.21,.09-.22,0,0,0,0,0,0,0,0,0,0,0,0-.01,0-.02,0-.02-.02s0-.02,.02-.02c0,0,0,0,0,0-.32-.06-.45-.24-.43-.39,0-.09,.07-.16,.16-.16-.01,0-.02,0-.02-.02s0-.02,.02-.02c0,0,0,0,0,0-.03-.09-.14-.16-.37-.24-.08-.03-.12-.07-.13-.13-.01-.09,.07-.22,.21-.32h0s0,0-.01,0c0,0-.01,0-.02,0,0,0,0-.02,0-.03,0,0,.02,0,.03-.01-.14-.3-.06-.56,.27-.83,0,0,0,0,0,0-.01,0-.02,0-.02-.02s0-.02,.02-.02h0c-.07,0-.11-.02-.13-.06-.06-.1,.06-.33,.16-.53,.05-.1,.1-.2,.13-.28,.04-.12,.1-.24,.14-.25,.03,0,.06,.03,.12,.11l.02,.02c.16,.17,.48,.54,.85,.65,.06,.02,.12,.04,.17,.07,.05,.02,.09,.04,.13,.07,.08,.05,.15,.12,.21,.19,.04,.05,.07,.1,.09,.16,.02,.04,.04,.08,.05,.12,.08,.35,.24,.51,.64,.66,.3,.09,.97,.39,.9,1.23,0,0,.01,0,.02,0,.01,0,.02,0,.02,.02s0,.02-.02,.02c0,0,0,0,0,0,.28,.02,.5,.1,.68,.23,.04,.91-.08,1.88-.73,2.26-.51,.31-.86,.89-.89,1.46-.03,.5,.2,.96,.64,1.29,.94,.68,1.08,1.5,1.23,2.29,.02,.12,.04,.24,.07,.35,.19,.91,.52,1.15,.71,1.22,.06,.02,.11,.03,.17,.03,0,0,.01,0,.02,0h0c.05,0,.11-.02,.17-.04-.42,.58-1.04,.68-1.5,.49-.34-.14-.67-.71-.99-1.26-.19-.33-.39-.68-.6-.93-.31-.39-.49-.47-.66-.53-.12-.05-.24-.09-.39-.26-.34-.38-.86-.66-1.77-1.09l-.05-.02c-.45-.21-.92-.42-1.24-1.22,.13-.34,.47-.62,.74-.73,.29-.1,.51-.52,.55-.86,.03-.31,.31-.68,.72-.96,0,0,0,0,0,0,0,0,0,0-.01,0,0,0-.01,0-.01,0,0,0,0-.02,0-.03,0,0,0,0,0,0-.17,.03-.55-.04-.73-.16-.18-.16-.46-.11-.63,.02-.15,.1-.34,.14-.6,.11,.09-.08,.28-.27,.3-.46,.02-.17,.23-.26,.64-.26,.22,0,.4-.13,.57-.26,.15-.11,.29-.22,.44-.22-.01,0-.02,0-.02-.02,0-.01,0-.02,.02-.02,0,0,0,0,0,0,0,0,0,0,0,0Z"/>
  <path class="cls-4" d="M68.7,30.63s0-.01,0-.02c0,0,0,.01,0,.02Z"/>
  <path class="cls-4" d="M71.02,29.58s0-.02,0-.03c0,.01,0,.02,0,.03Z"/>
  <path class="cls-4" d="M66.92,26.36s0-.07,0-.11c0,.04,0,.07,0,.11Z"/>
  <path class="cls-4" d="M66.94,26.63c.06,.49,.11,1.13,.04,1.71-.08,.69-.33,1.15-.73,1.39-.5,.31-.85,.87-.87,1.42-.02,.35,.08,.84,.62,1.26,.95,.69,1.1,1.52,1.24,2.32,.02,.12,.04,.23,.07,.35,.13,.65,.38,1.08,.68,1.19,.06,.02,.13,0,.19,0,.78-.45-.02-3.07-.31-3.75,0,0,0,0,0,0v-.03c-.21-.47-.42-.95,.11-1.97,.5-.94,.26-1.67,.08-2.2-.02-.05-.03-.1-.05-.15-.19-.58-.18-1.02,0-1.23,.21-.19,.31-.32,.32-.67,.01-.2,.11-.23,.15-.23,.09,0,.19,.07,.22,.17,.05,.21,.06,.48-.22,.95-.12,.2,0,.53,.14,.94,.21,.61,.48,1.36,.17,2.16-.28,.75-.03,1.68,.16,2.42,.05,.18,.09,.36,.13,.52,.14,.61,.27,2.24-.48,2.88,0,0,.02,0,.03-.02,0,0,.01,0,.02,0,.37,.06,.66,0,.84-.15,.15-.13,.23-.33,.23-.6,0-.56,.03-.91,.6-1.08,.53-.18,.68-.37,.92-.83l.04-.07c.23-.45,.34-.65,.22-.9-.16-.31-.2-.91-.09-1.33,.08-.33-.05-.54-.18-.74-.04-.06-.08-.12-.11-.18-.14-.26-.21-.49-.13-.88,.08-.38-.14-.59-.36-.75-.27-.2-.35-.4-.3-.68,.05-.26-.17-.44-.43-.64h-.02c-.22-.2-.47-.48-.47-.97,0-.41-.81-1.4-1.46-1.66-.05,.05-.1,.1-.15,.15-.45,.47-.97,1.01-.88,1.87Z"/>
  <path class="cls-4" d="M68.35,36.25s-.03,.02-.05,.02c.01,0,.03-.02,.05-.02Z"/>
  <path class="cls-6" d="M68.77,30.26c.3-.78,.04-1.53-.17-2.13-.15-.42-.26-.75-.14-.97,.27-.46,.26-.72,.22-.92-.02-.08-.1-.15-.17-.14-.07,0-.11,.08-.12,.19-.02,.36-.12,.5-.34,.69-.18,.19-.18,.63,0,1.19,.02,.05,.03,.1,.05,.15,.18,.54,.42,1.27-.09,2.23-.52,1-.32,1.48-.12,1.94v.03c.3,.69,1.06,3.14,.39,3.74,1.09-.41,.93-2.36,.77-3.04-.04-.16-.08-.33-.13-.52-.17-.63-.35-1.39-.24-2.07,0,0,0-.01,0-.02,.02-.12,.03-.24,.07-.36Z"/>
  <path d="M63.64,28.64c.24-.12,.49-.25,.57-.4,0,0,0-.02,0-.03,0,0-.02,0-.03,0-.08,.14-.32,.26-.55,.38-.18,.09-.36,.19-.48,.29,0,0,0,0,0,0,0,0,0,.02,0,.03,0,0,0,0,.01,0,0,0,0,0,.01,0,0,0,0,0,0,0,.11-.1,.3-.2,.48-.29Z"/>
  <path d="M65.33,27.67s0,.02,0,.03c0,0,0,0,0,0,0,0,.02,0,.02-.01,.15-.32,.46-.48,.92-.48,0,0,0,0,0,0,.01,0,.02,0,.02-.02s0-.02-.02-.02c0,0-.01,0-.02,0-.58,0-.83,.28-.93,.5Z"/>
  <path d="M63.73,26.84s0-.02-.01-.02c-.01,0-.02,0-.02,.01-.07,.24-.44,.37-.62,.37,0,0,0,0,0,0-.01,0-.02,0-.02,.02s0,.02,.02,.02c0,0,0,0,0,0,.2,0,.58-.13,.66-.4Z"/>
  <path d="M62.8,25.88c.14,0,.3,0,.45-.11,0,0,.01-.02,0-.03,0,0-.02-.01-.03,0-.14,.1-.3,.1-.43,.1-.1,0-.2,0-.28,.06,0,0-.02,0-.03,.01,0,0-.01,.02,0,.03,0,0,0,0,.02,0,0,0,0,0,.01,0,0,0,0,0,0,0,.07-.05,.17-.06,.28-.06Z"/>
  <path d="M64.17,31.19c-.02,.05-.05,.11-.07,.16-.12,.21-.24,.25-.33,.28-.06,.02-.12,.04-.14,.1-.07,.14-.36,.19-.53,.19-.19,.02-.23,.1-.29,.23-.05,.11-.14,.23-.34,.19-.01,0-.02,0-.02,.02s0,.02,.02,.02c.03,0,.05,0,.08,0,.14,0,.25-.08,.31-.22,.06-.13,.09-.19,.26-.21,.19,0,.49-.06,.57-.21,.02-.05,.06-.06,.12-.08,.1-.03,.23-.07,.36-.3,.03-.05,.05-.11,.07-.16,.15-.33,.3-.68,.72-.82,.01,0,.02-.01,.01-.03,0-.01-.02-.02-.03-.01-.43,.14-.59,.5-.74,.84Z"/>
  <path d="M64.15,25.27c.02,.09,.05,.18,.14,.25,.2,.16,.2,.31,.2,.45,0,.12,0,.24,.17,.28,.31,.08,.3,.12,.23,.47v.02c-.06,.23,.02,.35,.1,.44,.06,.09,.11,.15,.05,.27,0,0,0,.02,0,.03,0,0,0,0,0,0,0,0,.01,0,.02-.01,.08-.14,.01-.22-.05-.31-.07-.09-.15-.2-.09-.41v-.02c.07-.35,.09-.42-.25-.51-.14-.04-.14-.12-.14-.24,0-.14,0-.32-.22-.49-.08-.06-.1-.14-.13-.23-.04-.13-.08-.28-.36-.36-.01,0-.02,0-.02,.01,0,.01,0,.02,.01,.02,.25,.07,.29,.2,.33,.33Z"/>
  <path d="M63.14,25.1s.03,.04,.03,.06c0,.01,0,.02,.02,.02s.02,0,.02-.02c0-.04-.01-.07-.04-.09-.07-.07-.22-.06-.32-.06-.02,0-.04,0-.06,0h0s-.02,0-.02,.02,0,.02,.02,.02c0,0,0,0,0,0,.02,0,.03,0,.05,0,.1,0,.24,0,.3,.05Z"/>
  <path d="M63.58,26.4s-.02-.01-.03,0c-.26,.19-.51,.22-.75,.22,0,0,0,0,0,0-.01,0-.02,0-.02,.02s0,.02,.02,.02c.25,0,.51-.03,.78-.22,0,0,.01-.02,0-.03Z"/>
  <path d="M63.11,27.64s0,.02,.02,.02c0,0,0,0,0,0,.14,0,.3,0,.46,.03,.12,.01,.22,.02,.31,.02,.11,0,.19-.02,.22-.08,0,0,0-.02,0-.03,0,0-.02,0-.03,0-.04,.08-.26,.06-.49,.03-.15-.02-.32-.03-.46-.03,0,0,0,0,0,0-.01,0-.02,0-.02,.02Z"/>
  <path class="cls-5" d="M79.39,26.08c.13,.32,.37,.66,.61,.93v-.55c-.11-.12-.2-.26-.28-.39-.11-.01-.22,0-.33,0Z"/>
  <path class="cls-5" d="M75.65,24.78c.05,.19,1.33,1.09,2.12,1.64,.1-.13,.2-.26,.32-.37-.08-.05-.16-.1-.24-.14-1.12-.68-2.01-1.23-2.2-1.13Z"/>
  <path class="cls-5" d="M79.24,30.9s-.02-.13-.04-.25c-.36-.11-.8-.21-1.31-.26-.04,0-.08,0-.12,0,0,.13,0,.26,0,.39,.55,.06,1.04,.21,1.43,.37-.01-.1,0-.19,.03-.25Z"/>
  <path class="cls-5" d="M74.38,27.11s0,0-.01,0c.09,.06,.44,.11,.88,.16,.57,.07,1.31,.17,1.98,.36,.03-.14,.07-.27,.11-.4-1.36-.32-2.78-.25-2.96-.13Z"/>
  <path class="cls-5" d="M79.59,28.19c-.38-.2-.85-.43-1.42-.69-.07-.03-.14-.04-.2-.07-.05,.14-.08,.29-.11,.44,.58,.25,1.15,.55,1.59,.79,.02-.19,.06-.38,.14-.47Z"/>
  <path class="cls-5" d="M74.24,29.09s-.01,0-.01,.01c.11,.06,.53,.08,1.05,.11,.58,.03,1.27,.06,1.9,.16,0-.15-.01-.29-.01-.46-1.35-.18-2.72,.03-2.92,.17Z"/>
  <path class="cls-5" d="M78.29,26.78c.54,.39,1.1,.83,1.5,1.16,.07-.08,.13-.16,.21-.23v-.32c-.34-.28-.8-.63-1.36-.98-.13,.1-.25,.24-.35,.38Z"/>
  <path class="cls-5" d="M79.59,25.41s.02,0,.03,0c.06-.34,.21-.67,.38-.96v-.33c-.3,.32-.62,.86-.7,1.33,.1-.01,.19-.04,.29-.04Z"/>
  <path class="cls-5" d="M79.28,29.49c-.31-.11-.68-.23-1.11-.37-.13-.04-.28-.07-.41-.11,0,0,0,.01,0,.02,0,.16,0,.31,0,.45,.53,.13,1.05,.31,1.48,.46,0-.08,.01-.26,.04-.46Z"/>
  <path class="cls-5" d="M74.68,31.31c-.07,.07-.11,.11-.11,.13,.09,.05,.44-.07,.83-.2,.52-.18,1.19-.4,1.82-.46,0-.13-.01-.27-.02-.4-1.28,.07-2.25,.68-2.52,.93Z"/>
  <path d="M79.72,26.07c.07,.13,.16,.26,.28,.39v-.07c-.09-.1-.16-.2-.22-.31-.02,0-.04,0-.05,0Z"/>
  <path d="M75.25,27.33c.57,.07,1.31,.17,1.97,.36,0-.01,0-.03,0-.04-.67-.19-1.4-.29-1.98-.36-.44-.05-.78-.1-.88-.16,0,0,0,0,.01,0,.18-.12,1.6-.2,2.96,.13,0-.01,0-.02,.01-.04-1.33-.32-2.78-.27-2.99-.12-.02,.01-.03,.03-.03,.05,0,0,0,.01,0,.01,.08,.08,.43,.12,.91,.18Z"/>
  <path d="M77.75,26.45s.02-.02,.02-.03c-.79-.55-2.07-1.45-2.12-1.64,.19-.1,1.08,.45,2.2,1.13,.08,.05,.16,.1,.24,.14,.01,0,.02-.02,.03-.03-.08-.05-.17-.1-.25-.15-1.25-.76-2.07-1.26-2.26-1.12,0,0,0,0,0,.02,0,.16,.82,.77,2.14,1.68Z"/>
  <path d="M75.27,29.25c.58,.03,1.27,.06,1.9,.17,0-.01,0-.03,0-.04-.63-.1-1.32-.14-1.9-.16-.52-.02-.93-.04-1.05-.11,0,0,0,0,.01-.01,.19-.14,1.56-.35,2.92-.17,0-.02,0-.03,0-.04-1.35-.18-2.72,.02-2.94,.18-.02,.02-.04,.03-.04,.05,0,0,0,.01,0,.02,.1,.08,.51,.1,1.08,.12Z"/>
  <path d="M78.64,26.39c.56,.36,1.02,.7,1.36,.98v-.05c-.34-.28-.78-.61-1.32-.96-.01,0-.02,.02-.03,.03Z"/>
  <path d="M79.3,25.45c.08-.46,.4-1.01,.7-1.33v-.06c-.32,.33-.66,.92-.74,1.39,.01,0,.03,0,.04,0Z"/>
  <path d="M79.66,25.41c.05-.31,.18-.61,.34-.88v-.08c-.17,.29-.32,.62-.38,.96,.01,0,.03,0,.04,0Z"/>
  <path d="M74.57,31.45s.04-.07,.11-.13c.27-.25,1.24-.85,2.52-.93,0-.01,0-.03,0-.04-1.29,.07-2.27,.69-2.55,.94-.08,.08-.13,.14-.13,.17,0,0,0,.01,0,.02,.1,.08,.41-.03,.88-.19,.52-.18,1.18-.4,1.81-.46,0-.01,0-.02,0-.04-.63,.06-1.3,.28-1.82,.46-.4,.14-.74,.25-.83,.2Z"/>
  <path d="M79.35,26.08s0,0,0,0c.14,.35,.4,.71,.65,1v-.07c-.24-.28-.47-.61-.61-.93-.01,0-.03,0-.04,0Z"/>
  <path class="cls-5" d="M79.59,25.52c-.79,0-1.48,.49-1.89,1.17-.39,.66-.46,1.28-.44,2.11,.07,2.73,.2,3.89,.28,6.14,.04,1.1,.09,2.22-.11,3.41-.07,.46-.15,.77-.29,1.38,.22-.48,.37-.93,.49-1.43,.33-1.15,.2-2.62,.18-3.34-.07-2.44-.17-3.45-.17-5.92,.02-.72,.06-1.45,.42-2.13,.27-.51,.71-.84,1.26-.93,.23-.04,.46-.03,.67,.04v-.45c-.13-.03-.26-.04-.41-.04Z"/>
  <path class="cls-5" d="M79.3,37.3c-.17,.19-.33,.52-.3,.75,.01,.09,.05,.16,.11,.21,.1,.07,.21,.09,.31,.07,.13-.03,.26-.14,.41-.31,.01-.05,.03-.1,.04-.13,.02-.06,.07-.17,.13-.3v-1.01c-.3,.3-.61,.6-.7,.72Z"/>
  <path d="M79.26,37.27c-.17,.2-.34,.54-.31,.78,.01,.1,.06,.18,.13,.24,.08,.06,.17,.09,.26,.09,.03,0,.06,0,.08,0,.12-.03,.25-.12,.37-.26-.05,.21-.06,.47,.03,.63,.04,.07,.1,.11,.17,.14v-.05c-.05-.02-.1-.05-.13-.11-.11-.2-.06-.58,.04-.82,.02-.05,.05-.12,.1-.22v-.1c-.06,.13-.11,.24-.13,.3-.02,.04-.03,.09-.04,.13-.14,.18-.28,.28-.41,.31-.1,.02-.21,0-.31-.07-.06-.05-.1-.12-.11-.21-.03-.23,.13-.56,.3-.75,.1-.11,.4-.42,.7-.72v-.06c-.31,.31-.63,.63-.74,.75Z"/>
  <path class="cls-5" d="M79.87,38.72c.03,.06,.08,.09,.13,.11v-1.15c-.04,.09-.08,.17-.1,.22-.1,.25-.14,.62-.04,.82Z"/>
  <path class="cls-5" d="M79.94,34.38s0,0,0,0c0,.1,.02,.23,.06,.36v-.32s-.05-.03-.05-.03c0,0,0,0,0,0Z"/>
  <path class="cls-5" d="M79.6,32.75c.03,.16,.09,.32,.15,.48,.03,.07,.05,.13,.08,.2,.03,.06,.1,.1,.17,.14v-.61c-.27-.08-.37-.17-.4-.21Z"/>
  <path class="cls-5" d="M79.55,32.55l.02,.06,.05,.11s.07,.11,.37,.21v-.84c-.34-.08-.5-.18-.55-.22-.1,.14,.03,.49,.1,.69Z"/>
  <path class="cls-5" d="M79.81,33.47c-.16,.11,.06,.63,.13,.8,0,0,0,0,0,0,0,0,0,0,0,0,.01,.04,.03,.07,.03,.08,0,0,.02,.01,.03,.01v-.75c-.1-.05-.16-.11-.19-.15Z"/>
  <path class="cls-5" d="M79.28,30s.23,.14,.72,.23v-.89c-.35-.09-.51-.18-.55-.22-.16,.19-.17,.81-.17,.88Z"/>
  <path class="cls-5" d="M79.61,28.24c-.13,.2-.14,.8-.14,.85,.02,.02,.15,.12,.53,.22v-.69s-.04-.02-.06-.03l-.34-.34Z"/>
  <path class="cls-5" d="M79.65,28.17s-.02,.02-.02,.03l.34,.34s.02,.01,.03,.02v-.81c-.13,.12-.25,.26-.35,.42Z"/>
  <path class="cls-5" d="M79.46,31.81s.14,.12,.54,.22v-.85c-.46-.09-.67-.21-.73-.24-.11,.16,.1,.68,.19,.87Z"/>
  <path class="cls-5" d="M79.27,30.04c-.14,.18,0,.81,.01,.86,.02,.01,.22,.14,.72,.24v-.86c-.47-.09-.68-.21-.73-.24Z"/>
  <path d="M79.79,27.93c-.4-.32-.96-.77-1.5-1.16,0,.01-.02,.02-.02,.03,.54,.39,1.1,.83,1.5,1.15-.05,.06-.11,.12-.15,.19,0,0,0,0,0,0-.38-.2-.85-.43-1.42-.7-.06-.03-.14-.04-.2-.07,0,.01-.01,.02-.02,.04,.07,.02,.14,.04,.2,.07,.57,.26,1.04,.5,1.42,.69-.08,.09-.12,.28-.14,.47-.44-.24-1.01-.54-1.59-.79,0,.01,0,.03,0,.04,.58,.26,1.16,.55,1.6,.79-.02,.18-.02,.34-.02,.38-.07,.07-.1,.22-.13,.37-.31-.11-.68-.23-1.11-.36-.14-.04-.28-.08-.43-.11,0,.01,0,.03,0,.04,.14,.03,.28,.06,.41,.11,.43,.13,.8,.26,1.11,.37-.03,.2-.04,.38-.04,.46-.43-.16-.95-.33-1.48-.46v.04c.53,.13,1.05,.31,1.48,.47h0c-.09,.12-.08,.39-.05,.61-.36-.11-.79-.21-1.3-.26-.04,0-.08,0-.12,0,0,.01,0,.03,0,.04,.04,0,.08,0,.12,0,.52,.05,.95,.15,1.31,.26,.02,.12,.04,.22,.04,.25-.04,.05-.04,.15-.03,.25-.39-.16-.88-.31-1.43-.37,0,.01,0,.03,0,.04,.55,.06,1.04,.22,1.44,.38,.04,.25,.17,.56,.2,.62-.13,.15,.01,.52,.09,.74l.02,.06c.01,.21,.1,.42,.18,.63,.02,.06,.05,.12,.07,.18-.19,.12,.02,.63,.11,.85-.04,.15,.03,.39,.1,.58v-.12c-.04-.13-.06-.25-.06-.36,0,0-.02-.04-.04-.09,0-.01,0-.02,.01-.03,.01,0,.02,0,.03,.01,0,0,0,0,0,0-.07-.18-.29-.69-.13-.8,0,0-.01-.02-.02-.02,0,0,0-.02,0-.03,0,0,.02,0,.03,0,0,0,0,0,0,0-.02-.06-.05-.13-.08-.2-.06-.16-.12-.32-.15-.48,0-.01-.01-.02-.01-.02l-.05-.11s0-.02,0-.03c0,0,.02,0,.03,0h0s-.02-.06-.02-.06c-.07-.2-.2-.55-.1-.69-.01-.01-.02-.02-.02-.02,0,0,0-.02,0-.03,0,0,.02,0,.03,0,0,0,0,0,0,0-.09-.2-.3-.72-.19-.87-.01,0-.02-.01-.02-.01,0,0-.01-.02,0-.03,0,0,.02-.01,.03,0,0,0,0,0,0,0-.01-.05-.15-.67-.01-.86,0,0-.02-.01-.02-.01,0,0-.01-.02,0-.03,0,0,.02-.01,.03,0,0,0,0,0,0,0,0-.06,.01-.69,.17-.88,0,0-.02-.01-.02-.02,0,0,0-.02,0-.03s.02,0,.03,0c0,0,0,0,0,0,0-.05,0-.64,.14-.85h-.01s0-.03,0-.04c0,0,.02,0,.03,0h0s.01,0,.02-.02c.1-.16,.22-.3,.35-.42v-.05c-.07,.07-.14,.15-.21,.23Z"/>
  <path d="M79.63,32.71l-.05-.11h0s-.02-.01-.03,0c-.01,0-.01,.02,0,.03l.05,.11s0,0,.01,.02c.03,.04,.13,.13,.4,.21v-.04c-.3-.1-.37-.2-.37-.21Z"/>
  <path d="M79.94,34.27s0,0,0,0c0-.01-.01-.02-.03-.01-.01,0-.02,.01-.01,.03,.02,.05,.04,.09,.04,.09,0,0,0,0,0,0,0,0,0,0,0,0,0,0,.03,.02,.05,.03v-.05s-.02-.01-.03-.01c0-.01-.02-.04-.03-.08Z"/>
  <path d="M79.83,33.43s0,0,0,0c0,0-.02-.01-.03,0,0,0-.01,.02,0,.03,0,0,.01,.02,.02,.02,.03,.04,.08,.09,.19,.15v-.05c-.07-.04-.14-.09-.17-.14Z"/>
  <path d="M79.63,28.2h0s-.02-.01-.03,0c0,0,0,.02,0,.03h.01s.34,.35,.34,.35c.01,.01,.04,.02,.06,.03v-.04s-.02-.01-.03-.02l-.34-.34Z"/>
  <path d="M79.28,30s0,0,0,0c0,0-.02,0-.03,0,0,0,0,.02,0,.03,0,0,.01,0,.02,.01,.05,.03,.26,.15,.73,.24v-.04c-.49-.1-.69-.22-.72-.23Z"/>
  <path d="M79.46,31.81s-.02,0-.03,0c0,0,0,.02,0,.03,0,0,0,0,.02,.02,.05,.04,.21,.14,.55,.22v-.04c-.4-.1-.53-.21-.54-.22,0,0,0,0,0,0Z"/>
  <path d="M79.46,29.08s-.02,0-.03,0,0,.02,0,.03c0,0,0,0,.02,.02,.05,.04,.2,.14,.55,.22v-.04c-.38-.09-.52-.2-.53-.22,0,0,0,0,0,0Z"/>
  <path d="M79.27,30.89s-.02,0-.03,0c0,0,0,.02,0,.03,0,0,.01,0,.02,.01,.06,.04,.27,.15,.73,.24v-.04c-.5-.1-.7-.23-.72-.24,0,0,0,0,0,0Z"/>
  <path class="cls-7" d="M71.27,44.88s0,.01,0,.02c0,0,0-.01,0-.02Z"/>
  <path class="cls-7" d="M73.98,52.35c-.05-.19-.08-.38-.01-.62,0-.02,0-.04,.01-.06v-.74s0,0,0,0c-.09-.18-.17-.36,0-.64v-.99c-.05-.21-.07-.44,0-.73v-.6s-.01-.08-.02-.12c-.06-.22-.12-.44,.02-.79v-.99c-.05-.2-.08-.39,0-.6v-1s0-.03,0-.05v-.82s0-.01,0-.02c-.06-.21-.13-.43,0-.76v-1.14c-.02-.15-.03-.31-.02-.47-.36,0-.73-.03-1.07-.08,.02,.11,.02,.23-.1,.37-.15,.19-.12,.31-.07,.45,.04,.13,.08,.27-.03,.48,.1,.04,.17,.13,.21,.26,.11,.35-.03,.92-.15,1.1-.05,.08-.02,.2,0,.33,.04,.21,.1,.47-.1,.73-.1,.13-.07,.26-.05,.42,.03,.19,.06,.4-.11,.64-.09,.13-.05,.27-.02,.43,.04,.19,.1,.41-.06,.65-.08,.11-.06,.27-.03,.44,.03,.2,.06,.42-.06,.61-.09,.15-.08,.29-.08,.44,.01,.2,.02,.42-.2,.69-.1,.12-.06,.34-.03,.55,.04,.23,.08,.44-.05,.55-.12,.1-.12,.39-.11,.63,0,.22,0,.41-.07,.47-.05,.04-.06,.14-.08,.26-.03,.21-.07,.47-.32,.56-.14,.2-.28,.49-.25,.65,.01,.05,.04,.08,.08,.1,0,0,0,0,0,0,0,0,0,0,0,0,.45,.31,1.97,.8,2.76,.08v-.69s0,0,0,0Z"/>
  <path class="cls-7" d="M71.75,49.96s0,0,0,0c0,0,0,0,0,0Z"/>
  <path class="cls-7" d="M69.22,51.33c.1-.1,.1-.22,.09-.37,0-.17-.01-.37,.18-.57,.15-.15,.13-.3,.1-.47-.03-.19-.06-.41,.16-.65,.21-.22,.2-.45,.19-.68-.01-.21-.02-.43,.16-.62,.17-.17,.16-.36,.14-.55-.02-.2-.03-.41,.17-.61,.18-.18,.16-.33,.14-.49-.02-.17-.04-.35,.15-.57,.19-.2,.17-.37,.16-.56-.02-.18-.03-.36,.16-.56,.19-.18,.18-.33,.16-.51-.01-.16-.03-.35,.15-.57,.17-.23,.14-.39,.11-.55-.03-.15-.06-.31,.09-.51,.07-.09,.11-.18,.12-.25,.01-.04,0-.08,.01-.13,0-.04,0-.07,0-.11,0-.18,0-.36,.21-.61,.14-.17,.16-.32,.15-.46-.11-.03-.22-.06-.31-.1-.25-.1-.42-.2-.52-.3,0,.02,0,.04,0,.06-.02,.16-.03,.31-.24,.39-.18,.07-.2,.21-.22,.38-.02,.18-.05,.39-.31,.5-.19,.08-.2,.22-.2,.39,0,.18,0,.38-.25,.5-.19,.09-.19,.23-.19,.4,0,.19,0,.4-.29,.55-.28,.14-.24,.37-.19,.6,.04,.2,.08,.4-.12,.52-.18,.11-.16,.3-.14,.51,.02,.23,.05,.47-.21,.6-.22,.11-.17,.27-.12,.46,.06,.19,.12,.41-.12,.6-.21,.16-.18,.36-.16,.57,.03,.21,.06,.43-.17,.59-.2,.13-.15,.3-.08,.48,.07,.2,.15,.44-.1,.67-.16,.17-.12,.34-.08,.53,.04,.19,.09,.4-.04,.66-.09,.19-.02,.77,.27,1.16,.15,.2,.41,.43,.8,.38-.08-.17-.03-.49,.2-.71Z"/>
  <path class="cls-7" d="M73.97,51.97c0,.06,0,.13,.01,.19v-.15s-.01-.02-.01-.04Z"/>
  <path class="cls-7" d="M71.36,52.18c.08-.11,.06-.23,.03-.36-.04-.17-.09-.36,.1-.6,.18-.21,.15-.44,.12-.66-.03-.18-.05-.36,.06-.5,.11-.14,.08-.31,.05-.48-.03-.2-.07-.41,.08-.61,.13-.17,.09-.32,.05-.49-.05-.18-.09-.38,.08-.59,.18-.22,.13-.41,.09-.59-.04-.17-.08-.34,.06-.51,.13-.15,.09-.28,.06-.43-.04-.16-.09-.35,.07-.59,.15-.21,.1-.37,.06-.53-.05-.17-.1-.35,.09-.59,.16-.21,.12-.4,.08-.6-.04-.2-.08-.4,.08-.62,.16-.22,.12-.36,.08-.5-.04-.13-.07-.27,.04-.49,.11-.2,.07-.34,.03-.47-.04-.14-.09-.28,.08-.49,.11-.13,.11-.24,.09-.35-.28-.04-.54-.1-.77-.17,0,.14-.01,.29-.16,.47-.17,.2-.19,.36-.2,.5,.04-.07,.07-.11,.09-.11,.01,0,.03,0,.05,.03,.07,.12,.05,.64-.02,.74-.08,.13-.07,.27-.07,.42,0,.18,.02,.39-.14,.59-.13,.19-.13,.4-.13,.6s0,.41-.14,.57c-.12,.13-.12,.34-.11,.53,.01,.23,.02,.46-.17,.59-.03,.02-.06,.06-.08,.09-.01,.02-.03,.03-.04,.05-.07,.13-.09,.31-.11,.49-.02,.23-.04,.45-.18,.56-.13,.11-.13,.33-.13,.55,0,.26,0,.52-.18,.71-.17,.19-.2,.49-.23,.76-.02,.21-.04,.39-.12,.47-.06,.06-.03,.16,0,.27,.05,.15,.11,.34-.06,.48-.14,.11-.22,.27-.3,.44-.1,.2-.2,.41-.41,.58,0,0,0,0,0,0-.24,.24-.26,.56-.18,.69h0s0,0,0,0c.34,.56,1.62,1.05,2.11,.91-.03-.03-.06-.05-.07-.1-.04-.18,.1-.47,.25-.69Z"/>
  <path d="M71.88,41.4c-.21,.25-.21,.43-.21,.61,0,.04,0,.07,0,.11,0-.03,0-.07,0-.1,0,0,0,0,0,0,.02-.04,.03-.05,.04-.08,0-.15,.03-.3,.2-.5,.15-.18,.17-.33,.16-.47-.01,0-.03,0-.04-.01,0,.14,0,.28-.15,.46Z"/>
  <path d="M72.76,41.47c-.17,.21-.13,.34-.08,.49,.04,.13,.08,.26-.03,.47,0,0,.02-.01,.02,0,0,0,.01,0,.02,.01,.11-.21,.07-.35,.03-.48-.04-.14-.08-.26,.07-.45,.12-.14,.12-.26,.1-.37-.01,0-.03,0-.04,0,.03,.11,.03,.22-.09,.35Z"/>
  <path d="M69.25,51.36s0,0,0,0c0,0,0,0,0,0,0,0,0,0-.01,0,0,0-.01,0-.02,0,0,0,0-.02,0-.03-.22,.22-.28,.54-.2,.71,0,0,0,.02,0,.03,0,0,.01,0,.02,0,0,0,0,0,.01,0,0,0,.01-.02,0-.03h0c-.08-.13-.06-.45,.18-.69Z"/>
  <path d="M71.15,52.86c-.04-.17,.1-.45,.25-.65,0,0,0,0,0,0,0,0,0,0,0,0,0,0-.01,0-.02,0,0,0,0-.02,0-.02-.16,.21-.29,.51-.25,.69,.01,.04,.04,.07,.07,.1,.01,0,.01,.03,.02,.03,0,0,0,0,0,0,0,0,.01,0,.02-.01,0,0,0-.02,0-.03,0,0,0,0,0,0-.04-.02-.06-.06-.08-.1Z"/>
  <path d="M71.53,42.5c.07-.09,.11-.17,.12-.25-.02,.08-.05,.16-.12,.25Z"/>
  <path class="cls-7" d="M74.02,41.98v.68c.05-.22,.03-.45,0-.68Z"/>
  <path class="cls-7" d="M74.02,43.77v.31c.02-.11,.02-.21,0-.31Z"/>
  <path class="cls-7" d="M79.83,48.64c.06-.19,.12-.35-.08-.48-.23-.16-.2-.38-.17-.59,.03-.21,.05-.41-.16-.57-.24-.18-.18-.4-.12-.6,.06-.19,.1-.35-.12-.46-.26-.13-.23-.37-.21-.6,.02-.2,.04-.4-.14-.51-.2-.12-.16-.32-.12-.52,.04-.22,.09-.46-.19-.6-.29-.15-.29-.36-.29-.55,0-.17,0-.31-.19-.4-.24-.13-.25-.33-.25-.5,0-.17,0-.32-.2-.39-.26-.11-.29-.32-.31-.5-.02-.17-.04-.32-.22-.38-.21-.08-.23-.23-.24-.39,0-.02,0-.04,0-.06-.1,.1-.27,.2-.52,.3-.09,.04-.2,.07-.31,.1,0,.14,0,.28,.15,.46,.21,.25,.21,.43,.21,.61,0,.16,0,.31,.14,.49,.16,.2,.12,.36,.09,.51-.03,.16-.07,.32,.11,.55,.18,.22,.16,.41,.15,.57-.01,.18-.03,.33,.16,.51,.19,.2,.17,.38,.16,.56-.02,.18-.03,.36,.16,.56,.19,.22,.17,.4,.15,.57-.02,.16-.03,.32,.14,.49,.2,.2,.18,.41,.17,.61-.02,.19-.03,.37,.14,.55,.18,.19,.17,.41,.16,.62-.01,.23-.02,.46,.19,.68,.22,.24,.19,.46,.16,.65-.03,.17-.05,.32,.1,.47,.2,.2,.19,.39,.18,.57,0,.14,0,.26,.09,.37,.22,.22,.28,.54,.2,.71,.4,.04,.66-.18,.8-.38,.1-.14,.17-.3,.22-.46v-.84c-.05-.18-.03-.33,0-.47v-.47s-.04-.07-.07-.11c-.24-.23-.17-.47-.1-.67Z"/>
  <path class="cls-7" d="M74.02,51.02v.55c.1-.24,.06-.4,0-.55Z"/>
  <path class="cls-7" d="M76.85,52.86c.04-.17-.1-.46-.25-.65-.09-.13-.06-.26-.03-.39,.04-.17,.08-.34-.1-.56-.2-.23-.16-.47-.13-.69,.03-.18,.05-.34-.05-.47-.12-.16-.09-.33-.06-.52,.03-.19,.07-.39-.07-.58-.14-.18-.09-.36-.05-.52,.05-.18,.09-.36-.08-.56-.19-.23-.14-.44-.1-.62,.04-.16,.07-.32-.05-.48-.14-.17-.1-.31-.06-.47,.04-.16,.08-.33-.06-.56-.16-.22-.11-.4-.06-.57,.05-.17,.09-.34-.08-.55-.17-.23-.13-.44-.09-.64,.04-.2,.08-.38-.07-.59-.17-.24-.13-.39-.09-.53,.04-.13,.07-.26-.04-.46-.12-.22-.07-.37-.03-.5,.04-.14,.08-.26-.07-.45-.12-.14-.12-.26-.1-.37-.35,.05-.72,.08-1.1,.08v.47c0,.05,.01,.11,.02,.16,.04,.27,.08,.53,.03,.79,.02-.02,.04-.05,.06-.05s.05,0,.09,.04c.09,.11,.13,.45,.08,.57-.03,.08,0,.2,.05,.35,.07,.21,.15,.48,.02,.7-.11,.17-.08,.39-.05,.62,.03,.24,.06,.49-.06,.72-.1,.21-.02,.45,.06,.7,.09,.26,.18,.54,.07,.81-.03,.07-.05,.14-.06,.21,0,0,0,.01,0,.02-.04,.23,0,.47,.04,.7,.04,.25,.08,.49,.03,.7-.04,.2,0,.48,.04,.76,.05,.38,.1,.77-.04,.97-.1,.15-.07,.24-.02,.38,.06,.18,.14,.42-.01,.9-.09,.26-.17,.4-.25,.41,0,0,0,0,0,0-.02,0-.04-.02-.07-.04v.26c.05,.2,.09,.4,0,.69,.79,.72,2.31,.23,2.75-.08,0,0,0,0,0,0,0,0,0,0,0,0,.04-.02,.06-.06,.07-.1Z"/>
  <path class="cls-7" d="M74.02,52.59v.17c0-.06,0-.11,0-.17Z"/>
  <path class="cls-7" d="M74.42,50.23s0,.03-.01,.05c0-.02,.01-.03,.01-.05Z"/>
  <path class="cls-7" d="M74.02,44.81v.43c.02-.15,.02-.3,0-.43Z"/>
  <path class="cls-7" d="M78.75,51.36c-.11-.11-.11-.25-.1-.4,0-.17,.01-.35-.17-.54-.16-.16-.14-.33-.11-.51,.03-.19,.06-.39-.15-.61-.22-.23-.21-.48-.2-.71,.01-.21,.02-.41-.15-.59-.19-.19-.17-.39-.15-.58,.02-.2,.03-.39-.16-.58-.19-.19-.17-.36-.15-.53,.02-.16,.04-.33-.14-.54-.2-.21-.18-.4-.17-.59,.02-.18,.03-.35-.14-.53-.2-.19-.19-.36-.17-.54,.01-.16,.03-.33-.14-.54-.19-.24-.15-.42-.12-.58,.03-.15,.06-.29-.09-.48-.15-.2-.15-.36-.15-.52,0-.17,0-.35-.2-.58-.15-.18-.17-.33-.16-.47-.23,.07-.49,.13-.77,.17-.03,.11-.03,.22,.09,.35,.17,.21,.13,.34,.08,.49-.04,.13-.08,.26,.03,.47,.12,.22,.08,.36,.04,.49-.04,.14-.07,.27,.08,.5,.16,.22,.12,.43,.08,.62-.04,.2-.08,.39,.08,.6,.18,.23,.13,.41,.09,.59-.04,.17-.09,.32,.06,.53,.16,.24,.11,.43,.07,.59-.04,.15-.07,.28,.06,.43,.14,.17,.1,.34,.06,.51-.04,.18-.09,.38,.09,.59,.18,.22,.13,.41,.08,.59-.04,.16-.08,.32,.05,.49,.15,.21,.11,.41,.08,.61-.03,.18-.06,.34,.05,.48,.11,.14,.09,.31,.06,.5-.03,.22-.06,.44,.12,.66,.19,.23,.14,.43,.1,.6-.03,.13-.06,.25,.03,.36,.16,.21,.29,.51,.25,.69-.01,.04-.04,.07-.07,.1,.49,.14,1.77-.35,2.11-.91t0,0h0c.08-.13,.06-.45-.18-.69Z"/>
  <path class="cls-7" d="M74.02,48.15h0s0,0,0,0Z"/>
  <path class="cls-7" d="M74.02,49.47s0-.01,0-.02v.74c.12-.25,.07-.47,0-.72Z"/>
  <path class="cls-7" d="M74.02,46.26v.65c.07-.25,.04-.45,0-.65Z"/>
  <path d="M79.87,48.65c.07-.19,.13-.38-.1-.53-.21-.15-.18-.34-.16-.55,.03-.21,.06-.43-.17-.6-.22-.17-.16-.36-.1-.55,.06-.19,.11-.38-.14-.51-.24-.12-.21-.33-.19-.56,.02-.21,.05-.42-.16-.54-.17-.1-.14-.28-.1-.48,.05-.23,.1-.49-.21-.64-.27-.14-.27-.33-.27-.52,0-.17,0-.34-.21-.44-.22-.12-.23-.3-.23-.47,0-.17,0-.34-.23-.43-.24-.1-.26-.29-.28-.47-.02-.17-.04-.34-.25-.41-.19-.07-.2-.2-.22-.36,0-.03,0-.06-.01-.09,.04-.04,.06-.09,.07-.13,.03-.11-.01-.23-.13-.37-.06-.07-.14-.1-.22-.11-.08-3.4-.72-4.46-2.56-4.46s-2.48,1.06-2.56,4.46c-.09,.01-.17,.04-.22,.11-.12,.14-.16,.26-.13,.37,.01,.04,.04,.09,.07,.13,0,.03-.01,.06-.01,.09-.02,.16-.03,.29-.22,.36-.21,.07-.23,.25-.25,.41-.02,.18-.05,.37-.28,.47-.22,.09-.22,.26-.23,.43,0,.17,0,.35-.23,.47-.21,.1-.21,.27-.21,.44,0,.19,0,.38-.27,.52-.31,.15-.26,.41-.21,.64,.04,.2,.07,.37-.1,.48-.2,.12-.18,.34-.16,.54,.02,.22,.05,.44-.19,.56-.25,.13-.19,.32-.14,.51,.06,.19,.12,.39-.1,.55-.23,.17-.2,.39-.17,.6,.03,.21,.05,.4-.16,.55-.23,.15-.16,.33-.1,.53,.07,.2,.14,.41-.09,.63-.18,.19-.14,.37-.09,.57,.04,.18,.08,.39-.04,.63-.11,.23-.01,.82,.27,1.21,.15,.21,.43,.45,.85,.4,.37,.58,1.67,1.07,2.17,.92,.24,.16,.73,.36,1.28,.43,.11,.01,.24,.02,.37,.02,.38,0,.81-.09,1.14-.38,.33,.3,.76,.38,1.14,.38,.13,0,.26,0,.37-.02,.54-.07,1.04-.27,1.28-.43,.5,.16,1.8-.33,2.17-.92,.42,.05,.7-.19,.85-.4,.08-.11,.14-.23,.19-.35v-.14c-.05,.16-.12,.32-.22,.46-.15,.2-.41,.43-.8,.38,0,0,0,.02,0,.03,0,0-.01,0-.02,0,0,0,0,0-.01,0,0,0-.01-.02,0-.03t0,0c-.34,.56-1.62,1.05-2.11,.91-.01,0-.01,.03-.02,.03,0,0,0,0,0,0,0,0-.01,0-.02-.01,0,0,0-.02,0-.03,0,0,0,0,0,0-.45,.31-1.97,.8-2.75,.08,0,0,0,0,0,0h0s0,0,0,0c0,0,0,0,0,0,0,0-.01,.01-.02,.01,0,0,0,0,0,0,0,0,0,0,0-.01,0,0,0,0,0,0h0c-.79,.71-2.31,.22-2.76-.09,0,0,0,0,0,0,0,0,.01,.02,0,.03,0,0-.01,.01-.02,.01,0,0,0,0,0,0-.01,0-.01-.02-.02-.03-.49,.14-1.77-.35-2.11-.91,0,0,0,0,0,0,0,0,0,.02,0,.03,0,0,0,0-.01,0,0,0-.01,0-.02,0,0,0,0-.02,0-.03-.4,.04-.66-.18-.8-.38-.29-.4-.36-.97-.27-1.16,.13-.26,.08-.47,.04-.66-.04-.19-.08-.36,.08-.53,.25-.24,.17-.47,.1-.67-.06-.19-.12-.35,.08-.48,.23-.16,.2-.38,.17-.59-.03-.21-.05-.41,.16-.57,.24-.18,.18-.4,.12-.6-.06-.19-.1-.35,.12-.46,.26-.13,.23-.37,.21-.6-.02-.2-.04-.4,.14-.51,.2-.12,.16-.32,.12-.52-.04-.22-.09-.46,.19-.6,.29-.15,.29-.36,.29-.55,0-.17,0-.31,.19-.4,.24-.13,.25-.33,.25-.5,0-.17,0-.32,.2-.39,.26-.11,.29-.32,.31-.5,.02-.17,.04-.32,.22-.38,.21-.08,.23-.23,.24-.39,0-.02,0-.04,0-.06,.1,.1,.27,.2,.52,.3,.09,.04,.2,.07,.31,.1,.01,0,.03,0,.04,.01,.23,.07,.49,.13,.77,.17,.01,0,.03,0,.04,0,.34,.05,.71,.08,1.07,.08,.01,0,.03,0,.04,0,0,0,0,0,0,0,0,0,.01,0,.02,0,.37,0,.74-.03,1.1-.08,.01,0,.03,0,.04,0,.28-.04,.54-.1,.77-.17,.01,0,.03,0,.04-.01,.11-.03,.22-.06,.31-.1,.26-.1,.42-.2,.52-.3,0,.02,0,.04,0,.06,.02,.16,.03,.31,.24,.39,.18,.07,.2,.21,.22,.38,.02,.18,.05,.39,.31,.5,.19,.08,.2,.22,.2,.39,0,.18,0,.38,.25,.5,.19,.09,.19,.23,.19,.4,0,.19,0,.4,.29,.55,.28,.14,.24,.37,.19,.6-.04,.2-.08,.4,.12,.52,.18,.11,.16,.3,.14,.51-.02,.23-.05,.47,.21,.6,.22,.11,.17,.27,.12,.46-.06,.19-.12,.41,.12,.6,.21,.16,.18,.36,.16,.57-.03,.21-.06,.43,.17,.59,.2,.13,.15,.3,.08,.48-.07,.2-.15,.44,.1,.67,.03,.04,.06,.07,.07,.11v-.07s-.02-.04-.05-.07c-.23-.22-.16-.43-.09-.63Zm-8.74-8.28c-.03-.1,.01-.2,.12-.34,.06-.08,.15-.11,.26-.11,.17,0,.38,.08,.63,.19,.36,.15,1.36,.26,1.86,.26s1.51-.11,1.86-.28c.37-.15,.72-.27,.89-.06,.11,.13,.15,.24,.12,.34-.04,.15-.23,.29-.61,.44-.55,.23-1.42,.37-2.27,.37s-1.71-.14-2.27-.37c-.38-.15-.57-.29-.61-.44Zm1.34-.3s0,0,0,0c0,0,0,0,0,0,0,0,0,0,0,0Zm-.22-2.03s.01,0,.02,0c0,0-.01,0-.02,0Zm3.92,1.9c-.04-2.74-.45-3.49-1.12-3.77-.28-.12-.35-.13-.38-.09-.03,.04,0,.1,.12,.25,.12,.16,.15,.38,.12,.45,0,.01-.01,.02-.02,.02-.01,0-.05-.02-.09-.08-.12-.19-.19-.28-.26-.28,0,0,0,0,0,0-.04,0-.08,.04-.1,.07-.06,.09,.07,.38,.28,.85,.05,.12,.11,.24,.16,.36,.1,.23,.1,.37,.06,.39-.03,.01-.1-.01-.22-.21-.09-.15-.16-.21-.21-.18-.07,.04,0,.29,.14,.51,.26,.37,.29,1.39,.29,2.03-.34,.04-.69,.07-.93,.07-.37,0-1.01-.06-1.46-.15,0-.06-.01-.12-.04-.14-.01-.01-.04-.03-.09,0-.02,.02-.05,.03-.06,.02-.03-.02-.02-.17,.08-.34,.11-.16,.13-.45,.03-.53-.04-.03-.11-.04-.21,.08-.05,.05-.07,.06-.07,.05-.05-.04,.1-.63,.32-.93,.16-.23,.15-.4,.08-.47-.05-.04-.15-.05-.27,.06-.03,.03-.06,.04-.07,.03-.06-.05,.05-.48,.19-.66,.13-.15,.24-.44,.17-.51-.03-.03-.07-.01-.13,.04-.13,.12-.17,.13-.17,.12,0,0-.03-.05,.08-.36,.14-.46,.7-1.18,1.61-1.18,1.81,0,2.44,1.05,2.52,4.42-.1,0-.22,0-.34,.05Z"/>
  <path d="M80,50.36v-.47c-.03,.14-.05,.3,0,.47Z"/>
  <path d="M76.64,52.18c-.08-.11-.06-.23-.03-.36,.04-.17,.09-.36-.1-.6-.18-.21-.15-.44-.12-.66,.03-.18,.05-.36-.06-.5-.11-.14-.08-.31-.05-.48,.03-.2,.07-.41-.08-.61-.13-.17-.09-.32-.05-.49,.05-.18,.09-.38-.08-.59-.18-.22-.13-.41-.09-.59,.04-.17,.08-.34-.06-.51-.13-.15-.09-.28-.06-.43,.04-.16,.09-.35-.07-.59-.15-.21-.1-.37-.06-.53,.05-.17,.1-.35-.09-.59-.16-.22-.12-.4-.08-.6,.04-.2,.08-.4-.08-.62-.16-.22-.12-.36-.08-.5,.04-.13,.07-.27-.04-.49-.11-.2-.07-.34-.03-.47,.04-.14,.09-.28-.08-.49-.11-.13-.11-.24-.09-.35-.01,0-.03,0-.04,0-.02,.11-.02,.23,.1,.37,.15,.19,.12,.31,.07,.45-.04,.13-.09,.28,.03,.5,.11,.2,.08,.33,.04,.46-.04,.14-.08,.29,.09,.53,.15,.21,.11,.4,.07,.59-.04,.2-.08,.41,.09,.64,.17,.22,.13,.38,.08,.55-.05,.17-.09,.34,.06,.57,.15,.23,.11,.4,.06,.56-.04,.15-.07,.3,.06,.47,.12,.16,.09,.31,.05,.48-.04,.18-.09,.39,.1,.62,.17,.2,.12,.37,.08,.56-.04,.17-.09,.34,.05,.52,.14,.19,.1,.39,.07,.58-.03,.18-.06,.36,.06,.52,.1,.13,.08,.28,.05,.47-.03,.22-.07,.46,.13,.69,.18,.22,.14,.39,.1,.56-.03,.14-.06,.26,.03,.39,.15,.2,.28,.49,.25,.65-.01,.05-.04,.08-.07,.1,0,0,0,0,0,0,0,0-.01,.02,0,.03,0,0,.01,.01,.02,.01,0,0,0,0,0,0,.01,0,.01-.02,.02-.03,.03-.03,.06-.05,.07-.1,.04-.18-.1-.47-.25-.69Z"/>
  <path d="M78.78,51.33c-.1-.1-.1-.22-.09-.37,0-.17,.01-.37-.18-.57-.15-.15-.13-.3-.1-.47,.03-.19,.06-.41-.16-.65-.21-.22-.2-.45-.19-.68,.01-.21,.02-.43-.16-.62-.17-.17-.16-.36-.14-.55,.02-.2,.03-.41-.17-.61-.18-.18-.16-.33-.14-.49,.02-.17,.04-.35-.15-.57-.19-.2-.17-.37-.16-.56,.02-.18,.03-.36-.16-.56-.19-.18-.18-.33-.16-.51,.01-.16,.03-.35-.15-.57-.17-.23-.14-.39-.11-.55,.03-.15,.06-.31-.09-.51-.14-.19-.14-.33-.14-.49,0-.18,0-.36-.21-.61-.14-.17-.16-.32-.15-.46-.01,0-.03,0-.04,.01,0,.14,.01,.29,.16,.47,.2,.24,.2,.41,.2,.58,0,.16,0,.32,.15,.52,.15,.19,.12,.33,.09,.48-.03,.17-.07,.34,.12,.58,.17,.21,.15,.38,.14,.54-.01,.18-.03,.35,.17,.54,.17,.18,.16,.35,.14,.53-.02,.19-.03,.38,.17,.59,.18,.2,.16,.37,.14,.54-.02,.17-.04,.34,.15,.53,.19,.19,.17,.38,.16,.58-.02,.19-.03,.39,.15,.58,.17,.18,.16,.38,.15,.59-.01,.23-.03,.48,.2,.71,.21,.22,.18,.42,.15,.61-.03,.18-.05,.34,.11,.51,.18,.18,.18,.36,.17,.54,0,.15-.01,.28,.1,.4,.24,.24,.26,.56,.18,.69h0s0,.02,0,.03c0,0,0,0,.01,0,0,0,.01,0,.02,0,0,0,0-.02,0-.03,.08-.17,.03-.49-.2-.71Z"/>
  <path class="cls-7" d="M74.02,41.68v-.47s-.01,0-.02,0c0,0,0,0,0,0,0,.16,0,.32,.03,.47Z"/>
  <path class="cls-7" d="M74.02,45.24v-.43s0-.05,0-.07c-.01-.09-.03-.18-.03-.27v1s0,0,0-.01c.03-.08,.03-.14,.04-.21Z"/>
  <path class="cls-7" d="M74.02,48.16h0c0-.07-.02-.13-.04-.2v.6s0,0,0,0c.04-.16,.05-.29,.04-.4Z"/>
  <path class="cls-7" d="M74.02,50.19v-.74c-.01-.05-.03-.11-.04-.16v.99s0,0,0,0c.02-.03,.02-.06,.04-.08Z"/>
  <path class="cls-7" d="M74.02,42.67v-.68s-.01-.09-.02-.13c0-.06-.01-.11-.02-.17v1.14s0,0,0,0c.02-.05,.03-.1,.04-.15Z"/>
  <path class="cls-7" d="M74.02,46.91v-.65s-.02-.08-.03-.11c0-.03,0-.05-.01-.08v.99s0,0,0,0c.02-.05,.03-.09,.04-.14Z"/>
  <path class="cls-7" d="M74.02,44.12s0-.03,0-.04v-.31c-.01-.06-.02-.11-.04-.17v.82c0-.1,0-.19,.04-.3Z"/>
  <path class="cls-7" d="M73.98,52.01v.15c.01,.06,.02,.12,.04,.18,0,0,0,.01,0,.02v-.26s0,0-.01,0c-.01-.02-.02-.04-.03-.07Z"/>
  <path class="cls-7" d="M74.02,51.58s0,0,0,0c0,0,0,0,0,0v-.55s-.03-.06-.04-.09v.74s.02-.06,.04-.09Z"/>
  <path class="cls-7" d="M73.98,53.05c.04-.11,.04-.2,.04-.29v-.17c-.01-.08-.02-.16-.04-.23v.69h0s0,.02,0,.02c0,0,0,0,0-.01Z"/>
  <polygon class="cls-7" points="74.02 53.05 74.02 53.05 74.02 53.05 74.02 53.05"/>
  <path d="M73.98,41.68c0,.06,.01,.11,.02,.17,0,.04,.01,.09,.02,.13,.03,.23,.05,.46,0,.68-.01,.05-.02,.1-.04,.15,.03-.09,.06-.14,.09-.18,.05-.26,.01-.52-.03-.79,0-.05-.01-.11-.02-.16-.02-.15-.03-.31-.03-.47-.01,0-.03,0-.04,0,0,.16,0,.32,.02,.47Z"/>
  <path d="M74.02,52.35s0-.01,0-.02c-.01-.06-.03-.12-.04-.18s-.01-.12-.01-.19c-.01-.07-.01-.16,0-.24-.07,.24-.03,.43,.01,.62,0,0,0,0,0,0,.02,.07,.03,.15,.04,.23,0,.05,0,.11,0,.17,0,.09,0,.18-.04,.29,0,0,0,0,0,.01,0,0,0,0,0,.01,0,0,0,0,0,0,0,0,.02,0,.02-.01,0,0,0,0,0,0,0,0,0,0,0,0,0,0,0,0,0,0,.09-.29,.05-.49,0-.69Z"/>
  <path d="M74.02,51.02c.06,.15,.1,.31,0,.55,0,0,0,0,0,0,0,0,0,0,0,0,0,0,0,0,0,0,.17-.28,.08-.45-.02-.64-.1-.19-.2-.38-.02-.66,0,0,0,0,0,0-.18,.28-.09,.46,0,.64,0,0,0,0,0,0,.01,.03,.03,.06,.04,.09Z"/>
  <path class="cls-9" d="M71,45.99s-.03,.03-.04,.05c.01-.02,.02-.04,.04-.05Z"/>
  <path class="cls-9" d="M71.71,50.1c-.1,.13-.08,.28-.05,.47,.03,.22,.07,.46-.13,.69-.18,.22-.14,.39-.1,.56,.03,.12,.05,.23,0,.34,.19-.09,.22-.32,.25-.51,.02-.13,.03-.24,.09-.29,.07-.05,.06-.23,.06-.43,0-.26-.01-.55,.12-.67,.11-.09,.07-.3,.04-.52-.04-.22-.08-.45,.04-.58,.21-.26,.2-.47,.19-.67,0-.16-.02-.3,.08-.47,.11-.18,.08-.38,.05-.58-.03-.18-.05-.35,.04-.47,.14-.22,.1-.42,.05-.62-.04-.17-.08-.32,.02-.47,.16-.22,.14-.42,.11-.61-.02-.16-.05-.31,.06-.45,.18-.25,.13-.49,.09-.7-.03-.14-.05-.27,0-.36,0,0,0,0,0,0,.11-.17,.25-.74,.14-1.07-.04-.12-.1-.2-.19-.24-.1,.19-.07,.32-.03,.44,.04,.14,.08,.29-.09,.53-.15,.21-.11,.4-.07,.59,.04,.2,.08,.41-.09,.64-.17,.22-.13,.38-.08,.55,.05,.17,.09,.34-.07,.57-.15,.23-.1,.4-.06,.56,.04,.15,.07,.3-.07,.47-.12,.16-.09,.31-.05,.47,.04,.18,.09,.39-.1,.63-.17,.2-.12,.37-.08,.56,.04,.17,.09,.34-.05,.52-.14,.19-.1,.39-.07,.58,.02,.13,.02,.26-.01,.38,0,0,0,0,0,0-.01,.04-.01,.09-.05,.13Z"/>
  <path class="cls-9" d="M71.45,42.89s.01,.07,.02,.11c.03,.17,.07,.34-.12,.58-.17,.21-.15,.38-.14,.54,.01,.18,.03,.35-.18,.54-.17,.18-.16,.35-.14,.53,.02,.19,.03,.38-.17,.59-.18,.2-.16,.37-.14,.54,.02,.17,.04,.34-.15,.53-.19,.19-.17,.38-.16,.58,.02,.19,.03,.39-.16,.58-.17,.18-.16,.38-.15,.59,.01,.23,.03,.48-.2,.71-.21,.22-.18,.42-.15,.61,.03,.18,.05,.34-.11,.51-.18,.18-.18,.36-.17,.54,0,.09,0,.19-.02,.27,.14-.14,.22-.31,.3-.47,.08-.18,.16-.34,.31-.46,.15-.13,.1-.28,.05-.43-.04-.12-.08-.23,0-.32,.07-.07,.09-.24,.11-.44,.03-.27,.06-.58,.24-.79,.16-.17,.16-.43,.16-.68,0-.24,0-.46,.15-.58,.12-.11,.14-.32,.16-.54,.02-.26,.05-.52,.24-.66,.17-.12,.16-.33,.15-.56,0-.15,0-.29,.05-.41,0,0,0-.01,0-.02,.02-.04,.02-.09,.06-.13,.13-.15,.13-.34,.13-.55s0-.43,.14-.63c.15-.2,.14-.39,.13-.57,0-.15-.01-.3,.07-.44,.06-.09,.08-.59,.02-.7,0,0,0-.01-.01-.01,0,0-.04,0-.09,.16,0,.15,0,.32-.15,.5-.11,.14-.12,.26-.11,.37Z"/>
  <path class="cls-9" d="M74.32,47.3s0,.01,0,.02c0,0,0-.01,0-.02Z"/>
  <path class="cls-9" d="M74.02,42.83c-.13,.32-.07,.53,0,.74,.05,.17,.1,.34,.04,.56-.07,.22-.04,.41,0,.61,.04,.22,.07,.45-.03,.73-.09,.23-.04,.44,.01,.67,.06,.26,.14,.56-.01,.93-.14,.34-.08,.55-.02,.76,.06,.2,.11,.41,.03,.74-.09,.36-.02,.64,.04,.89,.08,.29,.14,.54-.05,.84-.17,.26-.08,.44,.02,.62,.1,.19,.2,.38,.02,.68-.08,.12-.08,.37-.01,.46,.02,.02,.03,.03,.05,.03,.03,0,.11-.05,.22-.39,.15-.46,.07-.7,.01-.87-.05-.14-.09-.26,.03-.42,.03-.04,.04-.09,.06-.14,0-.02,.01-.03,.01-.05,.03-.2,0-.48-.04-.75-.04-.28-.08-.57-.04-.77,.05-.2,0-.44-.03-.68-.05-.32-.11-.66,.03-.96,.11-.25,.02-.52-.07-.78-.09-.26-.17-.5-.06-.73,.11-.22,.08-.46,.05-.7-.03-.24-.05-.46,.06-.64,.11-.21,.04-.45-.03-.67-.05-.15-.09-.29-.05-.38,.05-.11,0-.43-.07-.53-.01-.02-.03-.03-.04-.03,0,0,0,0,0,0-.02,0-.06,.03-.12,.21Z"/>
  <path d="M71.67,42.02s0,.07,0,.1c0,.04,0,.08-.01,.13-.02,.08-.05,.17-.12,.25-.16,.2-.12,.36-.09,.51,.03,.16,.07,.32-.11,.55-.18,.22-.16,.41-.15,.57,.01,.18,.03,.33-.16,.51-.19,.2-.17,.38-.16,.56,.02,.18,.03,.36-.16,.56-.19,.22-.17,.4-.15,.57,.02,.16,.03,.32-.14,.49-.2,.2-.18,.41-.17,.61,.02,.19,.03,.37-.14,.55-.18,.19-.17,.41-.16,.62,.01,.23,.02,.46-.19,.68-.22,.24-.19,.46-.16,.65,.03,.17,.05,.32-.1,.47-.2,.2-.19,.39-.18,.57,0,.14,0,.26-.09,.37,0,0,0,.02,0,.03,0,0,0,0,.02,0,0,0,0,0,.01,0,0,0,0,0,0,0,.22-.17,.32-.38,.41-.58,.08-.17,.16-.33,.3-.44,.18-.14,.11-.33,.06-.48-.04-.11-.07-.21,0-.27,.09-.08,.1-.26,.12-.47,.03-.27,.06-.57,.23-.76,.17-.18,.17-.45,.18-.71,0-.23,0-.44,.13-.55,.13-.12,.16-.33,.18-.56,.02-.18,.04-.35,.11-.49,.01-.02,.02-.04,.04-.05,.02-.03,.05-.06,.08-.09,.19-.13,.18-.37,.17-.59,0-.2-.02-.4,.11-.53,.14-.16,.14-.36,.14-.57s0-.42,.13-.6c.16-.21,.15-.41,.14-.59,0-.15-.01-.29,.07-.42,.07-.11,.09-.62,.02-.74-.02-.03-.04-.03-.05-.03-.02,0-.05,.04-.09,.11-.01,.03-.02,.04-.04,.08,0,0,0,0,0,0Zm.04,0c.06-.15,.09-.16,.09-.16,0,0,.01,0,.01,.01,.07,.11,.04,.61-.02,.7-.09,.14-.08,.28-.07,.44,0,.18,.02,.37-.13,.57-.14,.2-.14,.42-.14,.63s0,.4-.13,.55c-.03,.04-.04,.08-.06,.13,0,0,0,.01,0,.02-.05,.13-.06,.27-.05,.41,.01,.22,.02,.44-.15,.56-.19,.13-.22,.4-.24,.66-.02,.22-.04,.43-.16,.54-.14,.12-.14,.35-.15,.58,0,.25,0,.51-.16,.68-.18,.2-.21,.51-.24,.79-.02,.2-.04,.37-.11,.44-.08,.08-.04,.19,0,.32,.05,.15,.1,.31-.05,.43-.15,.11-.23,.28-.31,.46-.08,.16-.16,.33-.3,.47,.03-.08,.03-.18,.02-.27,0-.17-.01-.35,.17-.54,.16-.16,.14-.33,.11-.51-.03-.19-.06-.39,.15-.61,.22-.23,.21-.48,.2-.71-.01-.21-.02-.41,.15-.59,.19-.19,.17-.39,.16-.58-.02-.2-.03-.39,.16-.58,.19-.19,.17-.36,.15-.53-.02-.16-.04-.33,.14-.54,.2-.21,.18-.4,.17-.59-.02-.18-.03-.35,.14-.53,.2-.19,.19-.36,.18-.54-.01-.16-.03-.33,.14-.54,.18-.24,.15-.42,.12-.58,0-.04-.02-.07-.02-.11-.01-.11,0-.23,.11-.37,.15-.19,.15-.36,.15-.5Z"/>
  <path d="M72.64,42.43c-.12,.22-.08,.36-.04,.49,.04,.14,.07,.27-.08,.5-.16,.22-.12,.43-.08,.62,.04,.2,.08,.39-.08,.6-.18,.23-.14,.41-.09,.59,.05,.17,.09,.32-.06,.53-.16,.24-.11,.43-.07,.59,.04,.15,.07,.28-.06,.43-.14,.17-.1,.34-.06,.51,.04,.18,.09,.38-.09,.59-.18,.22-.13,.41-.08,.59,.04,.16,.08,.32-.05,.49-.15,.21-.11,.41-.08,.61,.03,.18,.06,.34-.05,.48-.11,.14-.09,.31-.06,.5,.03,.22,.06,.44-.12,.66-.19,.23-.14,.43-.1,.6,.03,.13,.06,.25-.03,.36,0,0,0,.02,0,.02,0,0,.01,0,.02,0,0,0,0,0,0,0,0,0,0,0,0,0,.26-.09,.3-.35,.32-.56,.02-.12,.03-.22,.08-.26,.08-.06,.08-.25,.07-.47,0-.25-.01-.53,.11-.63,.13-.11,.09-.33,.05-.55-.04-.21-.08-.43,.03-.55,.22-.28,.21-.5,.2-.69,0-.15-.02-.29,.08-.44,.12-.19,.09-.41,.06-.61-.03-.17-.05-.33,.03-.44,.15-.24,.1-.45,.06-.65-.04-.16-.07-.31,.02-.43,.17-.24,.14-.45,.11-.64-.02-.16-.04-.3,.05-.42,.19-.26,.14-.52,.1-.73-.03-.13-.05-.25,0-.33,.12-.18,.26-.75,.15-1.1-.04-.13-.11-.21-.21-.26,0,0-.01,0-.02-.01,0,0-.02,0-.02,0Zm-.89,7.53c.04-.12,.03-.25,.01-.38-.03-.19-.07-.39,.07-.58,.14-.18,.09-.36,.05-.52-.05-.18-.09-.36,.08-.56,.19-.23,.14-.44,.1-.63-.04-.16-.07-.32,.05-.47,.14-.17,.1-.31,.07-.47-.04-.16-.08-.33,.06-.56,.16-.22,.11-.4,.07-.57-.05-.17-.09-.34,.08-.55,.17-.23,.13-.44,.09-.64-.04-.2-.08-.38,.07-.59,.17-.24,.13-.39,.09-.53-.03-.13-.07-.25,.03-.44,.09,.04,.15,.12,.19,.24,.11,.33-.03,.9-.14,1.07,0,0,0,0,0,0-.05,.09-.03,.22,0,.36,.04,.21,.09,.46-.09,.7-.11,.14-.08,.29-.06,.45,.03,.19,.06,.39-.11,.61-.1,.14-.06,.3-.02,.47,.05,.19,.09,.4-.05,.62-.09,.12-.07,.29-.04,.47,.03,.2,.06,.4-.05,.58-.1,.16-.09,.31-.08,.47,.01,.2,.02,.4-.19,.67-.12,.13-.07,.36-.04,.58,.04,.22,.08,.42-.04,.52-.14,.12-.13,.41-.12,.67,0,.2,0,.39-.06,.43-.06,.05-.07,.16-.09,.29-.03,.2-.06,.42-.25,.51,.05-.11,.03-.22,0-.34-.04-.17-.08-.34,.1-.56,.2-.23,.16-.47,.13-.69-.03-.18-.05-.34,.05-.47,.03-.04,.03-.09,.05-.13,0,0,0,0,0,0Z"/>
  <path d="M73.98,42.82s0,0,0,0c-.13,.33-.07,.55,0,.76,0,0,0,.01,0,.02,.02,.06,.03,.11,.04,.17,.02,.09,.02,.2,0,.31,0,.02,0,.03,0,.04-.03,.11-.04,.2-.04,.3,0,.02,0,.03,0,.05,0,.09,.02,.19,.03,.27,0,.02,0,.04,0,.07,.02,.14,.02,.28,0,.43-.01,.07,0,.14-.04,.21,0,0,0,0,0,.01-.08,.21-.05,.4,0,.6,0,.03,0,.05,.01,.08,0,.04,.02,.08,.03,.11,.04,.2,.07,.41,0,.65-.01,.05-.02,.09-.04,.14,0,0,0,0,0,0-.14,.35-.09,.56-.02,.79,.01,.04,.01,.08,.02,.12,.02,.06,.03,.12,.04,.19,0,0,0,0,0,0,.01,.11,0,.24-.04,.4,0,0,0,0,0,0-.07,.28-.05,.52,0,.73,.01,.06,.03,.11,.04,.16,0,0,0,.01,0,.02,.07,.25,.11,.47,0,.72-.01,.03-.02,.05-.04,.08-.18,.28-.08,.48,.02,.66,.1,.19,.19,.36,.02,.64,0,0,0,0,0,0-.02,.03-.03,.06-.04,.09,0,.02,0,.04-.01,.06-.01,.08-.02,.17,0,.24,0,.02,0,.03,.01,.04,0,.03,.01,.05,.03,.07,0,0,0,0,.01,0,.02,.03,.05,.04,.07,.04,0,0,0,0,0,0,.08-.01,.17-.15,.25-.41,.16-.48,.07-.72,.01-.9-.05-.14-.08-.24,.02-.38,.14-.2,.09-.59,.04-.97-.04-.28-.07-.56-.04-.76,.05-.21,.01-.45-.03-.7-.04-.24-.08-.48-.04-.7,0,0,0-.01,0-.02,.01-.07,.03-.14,.06-.21,.11-.27,.02-.54-.07-.81-.08-.25-.17-.49-.06-.7,.11-.23,.08-.48,.06-.72-.03-.23-.05-.45,.05-.62,.12-.22,.04-.49-.02-.7-.04-.15-.08-.27-.05-.35,.06-.13,.01-.46-.08-.57-.03-.04-.07-.05-.09-.04s-.04,.03-.06,.05c-.03,.04-.06,.09-.09,.18Zm.16-.19s0,0,0,0c.01,0,.03,0,.04,.03,.08,.1,.12,.42,.07,.53-.04,.09,0,.22,.05,.38,.07,.22,.14,.46,.03,.67-.11,.18-.09,.4-.06,.64,.03,.24,.06,.48-.05,.7-.11,.22-.03,.47,.06,.73,.09,.26,.18,.52,.07,.78-.14,.3-.08,.63-.03,.96,.04,.25,.08,.48,.03,.68-.04,.21,0,.5,.04,.77,.04,.27,.07,.54,.04,.75,0,.02,0,.03-.01,.05-.01,.05-.03,.1-.06,.14-.11,.16-.07,.28-.03,.42,.06,.17,.14,.41-.01,.87-.11,.34-.19,.38-.22,.39-.02,0-.04,0-.05-.03-.06-.1-.07-.34,.01-.46,.18-.3,.08-.49-.02-.68-.1-.18-.19-.36-.02-.62,.19-.3,.12-.55,.05-.84-.07-.25-.14-.53-.04-.89,.09-.33,.03-.53-.03-.74-.06-.22-.12-.42,.02-.76,.15-.37,.08-.67,.01-.93-.05-.22-.11-.44-.01-.67,.11-.28,.07-.51,.03-.73-.03-.2-.06-.39,0-.61,.06-.22,0-.39-.04-.56-.06-.21-.12-.42,0-.74,.05-.18,.1-.2,.12-.21Z"/>
  <path class="cls-3" d="M72.26,38.04s.01,0,.02,0c0,0-.01,0-.02,0Z"/>
  <polygon class="cls-3" points="72.47 40.07 72.47 40.07 72.47 40.06 72.47 40.07"/>
  <path class="cls-3" d="M74,35.47c-.91,0-1.47,.72-1.61,1.18-.11,.31-.09,.35-.08,.36,0,0,.04,0,.17-.12,.06-.05,.1-.07,.13-.04,.07,.06-.04,.35-.17,.51-.14,.18-.25,.61-.19,.66,.01,.01,.04,0,.07-.03,.12-.11,.22-.1,.27-.06,.08,.07,.08,.24-.08,.47-.22,.3-.38,.88-.32,.93,0,0,.02,0,.07-.05,.11-.12,.17-.11,.21-.08,.1,.08,.08,.36-.03,.53-.11,.18-.11,.32-.08,.34,.01,0,.03,0,.06-.02,.05-.03,.08-.02,.09,0,.03,.02,.04,.08,.04,.14,.45,.09,1.09,.15,1.46,.15,.24,0,.59-.03,.93-.07,0-.64-.03-1.66-.29-2.03-.14-.22-.21-.47-.14-.51,.05-.03,.11,.03,.21,.18,.12,.19,.2,.22,.22,.21,.04-.02,.05-.16-.06-.39-.05-.12-.11-.24-.16-.36-.21-.47-.34-.76-.28-.85,.03-.04,.06-.07,.1-.07,0,0,0,0,0,0,.07,0,.13,.09,.26,.28,.04,.06,.07,.08,.09,.08,0,0,.01,0,.02-.02,.03-.07,0-.28-.12-.45-.12-.15-.15-.21-.12-.25,.03-.04,.1-.03,.38,.09,.68,.28,1.08,1.03,1.12,3.77,.13-.04,.24-.05,.34-.05-.08-3.36-.71-4.42-2.52-4.42Z"/>
  <path class="cls-3" d="M71.73,40.81c.55,.23,1.42,.37,2.27,.37s1.71-.14,2.27-.37c.38-.15,.57-.29,.61-.44,.03-.1-.01-.2-.12-.34-.17-.21-.52-.09-.89,.06-.35,.17-1.35,.28-1.86,.28s-1.5-.11-1.86-.26c-.25-.11-.47-.19-.63-.19-.11,0-.2,.03-.26,.11-.11,.13-.15,.24-.12,.34,.04,.15,.23,.29,.61,.44Z"/>
</svg>