<?xml version="1.0" encoding="UTF-8"?>
<svg id="Layer_1" data-name="Layer 1" xmlns="http://www.w3.org/2000/svg" viewBox="0 0 80 80">
  <defs>
    <style>
      .cls-1 {
        fill: #f7991c;
      }

      .cls-2 {
        fill: #fff;
      }

      .cls-3 {
        fill: #006b50;
      }

      .cls-4 {
        fill: #f7981d;
      }

      .cls-5 {
        fill: #961b1e;
      }

      .cls-6 {
        fill: #b31f36;
      }
    </style>
  </defs>
  <path class="cls-3" d="M14.43,2.63V79.2c1.77,.51,3.63,.8,5.57,.8H60c11.05,0,20-8.95,20-20V20c0-11.05-8.95-20-20-20H20c-1.93,0-3.8,.29-5.57,.8v1.83Zm19.31,4.96l1.24,.87,1.22-.92-.45,1.45,1.25,.87-1.52,.03-.45,1.46-.49-1.44-1.52,.03,1.23-.92-.5-1.43Zm9.77,6.72c0-3.45-1.62-6.52-4.15-8.48,4.12,1.53,7.06,5.5,7.06,10.17,0,5.98-4.85,10.84-10.84,10.84-2.77,0-5.3-1.04-7.22-2.75,1.35,.62,2.86,.95,4.44,.95,5.92,0,10.72-4.8,10.72-10.72ZM28.25,4.82l1.24,.88,1.22-.91-.44,1.45,1.24,.88-1.53,.02-.44,1.46-.49-1.44-1.52,.02,1.22-.91-.49-1.45Zm.49,6.98l-.49-1.45,1.24,.88,1.22-.93-.44,1.46,1.24,.88-1.53,.02-.44,1.45-.49-1.44-1.52,.03,1.22-.91Zm0,5.53l-.49-1.44,1.24,.87,1.22-.92-.44,1.46,1.24,.87-1.53,.03-.44,1.45-.49-1.43-1.52,.02,1.22-.92Zm-5.96-4.27l1.25,.87,1.22-.91-.45,1.45,1.25,.88-1.52,.03-.44,1.46-.5-1.44-1.52,.03,1.21-.93-.49-1.44Z"/>
  <polygon class="cls-6" points="4.13 42.01 5.09 42.01 4.61 41.71 4.13 42.01"/>
  <polygon class="cls-6" points=".69 33.66 1.45 33.66 1.06 33.36 .69 33.66"/>
  <polygon class="cls-6" points="2.14 42.01 3.1 42.01 2.62 41.71 2.14 42.01"/>
  <polygon class="cls-6" points=".15 42.01 1.11 42.01 .63 41.71 .15 42.01"/>
  <polygon class="cls-6" points="1.09 34.92 .17 34.92 .63 35.21 1.09 34.92"/>
  <polygon class="cls-6" points="2.24 33.66 3 33.66 2.62 33.36 2.24 33.66"/>
  <polygon class="cls-6" points="3.79 33.66 4.55 33.66 4.16 33.36 3.79 33.66"/>
  <polygon class="cls-6" points="6.92 40.25 6.92 39.77 6.77 40.01 6.92 40.25"/>
  <polygon class="cls-6" points="3.08 34.92 2.16 34.92 2.62 35.21 3.08 34.92"/>
  <polygon class="cls-6" points="5.07 34.92 4.15 34.92 4.61 35.21 5.07 34.92"/>
  <polygon class="cls-6" points="6.92 37.15 6.92 36.67 6.77 36.91 6.92 37.15"/>
  <polygon class="cls-6" points="6.92 38.7 6.92 38.22 6.77 38.46 6.92 38.7"/>
  <polygon class="cls-6" points="9.6 39.41 9.6 40.2 10.09 39.8 9.6 39.41"/>
  <polygon class="cls-6" points="1.65 48.52 1.27 48 0 48 0 48.5 .89 48.5 .5 49.04 0 49.04 0 49.54 .88 49.54 1.65 48.52"/>
  <polygon class="cls-6" points="7.64 41.39 9.25 41.39 9.25 39.89 7.64 41.39"/>
  <polygon class="cls-6" points="1.65 59.39 .88 58.36 0 58.36 0 58.87 .5 58.87 .89 59.4 0 59.4 0 59.91 1.27 59.91 1.65 59.39"/>
  <polygon class="cls-6" points="4.17 25.72 6.5 23.06 8.57 23.06 9.61 23.06 10.12 22.41 9.61 21.75 8.57 21.75 6.5 21.75 4.17 19.1 1.06 19.1 0 20.31 0 20.73 .03 20.7 .03 20.63 .55 20.04 .62 20.04 1.28 19.3 3.97 19.3 4.62 20.04 4.69 20.04 5.21 20.63 5.21 20.7 6.37 21.99 9.58 21.99 9.85 22.41 9.58 22.81 6.37 22.81 5.21 24.11 5.21 24.18 4.69 24.77 4.63 24.77 3.97 25.51 1.28 25.51 .62 24.77 .55 24.77 .03 24.18 .03 24.11 0 24.08 0 24.5 1.06 25.72 4.17 25.72"/>
  <path class="cls-6" d="M10.92,3.82v3.05l-.99,1.52v1.15l-1,1.14h-1.99l-1.66,1.15H1.76c-.77,1.72-1.3,3.56-1.56,5.5H.74v-.85h3.77v.85h2.41v1.7h2.14v.56h1.87v5.65h-1.87v.56h-2.14v1.68h-2.41v.85H.74v-.85H0v6.18H.32l.5-.3-.26-.31v-.31h.26l.25,.31,.26-.31h.27v.31l-.27,.31,.52,.3h.03l.5-.3-.26-.31v-.31h.26l.25,.31,.26-.31h.27v.31l-.27,.31,.5,.3h.03l.51-.3-.26-.31v-.31h.26l.25,.31,.26-.31h.27v.31l-.27,.31,.51,.3h2.66v-.3h0s.36-.01,.36-.01v.31h.33v.33h-.34v1.22h1.32v-.3h0s.35,0,.35,0v.31h.33v.33h-.33v.92h.08l.41,.45,.41-.22h.41v.22l-.41,.23,.41,.22v.23h-.41l-.41-.23-.41,.45,.41,.45,.41-.22h.41v.22l-.41,.22,.41,.23v.22h-.41l-.41-.22-.41,.44,.41,.45,.41-.23h.41v.23l-.41,.22,.41,.22v.22h-.41l-.41-.22-.41,.45h-.08v.92h.33v.33h-.33v.31h-.35v-.31h-1.32v1.22h.34v.32h-.34v.31h-.35v-.31h-2.65l-.51,.3,.27,.3v.31h-.27l-.26-.31-.25,.31h-.26v-.31l.26-.3-.51-.3h-.01l-.51,.3,.27,.3v.31h-.27l-.26-.31-.25,.31h-.26v-.31l.26-.3-.51-.3h-.01l-.52,.3,.27,.3v.31h-.27l-.26-.31-.25,.31h-.26v-.31l.26-.3-.51-.3h-.31v4.2H1.66l.77,.52,.77-.52h2.7l1.17,1.57h-2.71l-.4-.54h1.93l-.37-.5h-1.93l-.38,.51,.76,1.02h4.64v1.04h1.15v1.04h1.16v4.67h0s-1.16,0-1.16,0v1.03h0s-1.15,0-1.15,0v1.04H3.97l-.76,1.03,.38,.51h1.93l.37-.5h-1.93l.4-.53h2.71l-1.17,1.57H3.2l-.77-.52-.77,.52H.02c.02,1.05,.13,2.08,.31,3.09H5.4s5.53,3.27,5.53,3.27v5.43s-4.36,2.57-4.36,2.57c.87,.79,1.81,1.51,2.82,2.14l.02-.12,.21-.43,.2-.15,.11,.14,.1,.58v.36c.07,.04,.14,.09,.21,.13l-.13-.35-.07-1.5,.18-.69,.18-.23,.14,.08,.18,.49,.16,1.12v.33s.7-.59,.7-.59l.65-.35h.41s.12,.13,.12,.13l-.13,.28-.58,.65-.82,.65-.47,.25c.06,.03,.12,.06,.18,.09l.17-.09,.57-.09,.28,.17-.1,.26-.14,.13c.88,.4,1.79,.74,2.73,1.02v-11.36l-.92-1.58-.43-.76,.17-.35-.59-1,.4-.68-.4-.65-.58,1-1.39-2.31,1.39-2.38,.58,1,.4-.66-.4-.67,.59-1.01-.19-.33,1.37-2.35v-2.33l-.94-1.6-.41-.75,.17-.33-.59-1,.4-.67-.4-.66-.59,1-1.38-2.31,1.39-2.38,.58,.99,.4-.66-.4-.67,.59-1-.17-.33,.28-.52,1.07-1.82v-3.34l-1.37-2.35,.19-.33-.59-1.01,.4-.67-.4-.65-.59,.99-1.38-2.3,1.38-2.38,.6,1,.39-.65-.4-.67,.59-1.01-.14-.44,1.32-2.25v-3.32l-1.3-2.22,.12-.47-.59-1.01,.4-.66-.4-.66-.59,.99-1.38-2.3,1.38-2.38,.59,.99,.4-.65-.4-.66,.57-1.01-.18-.35,1.37-2.35V2.63l-.9-1.54c-1.18,.41-2.32,.91-3.39,1.52l.78,1.2Zm.68,68.39l.5-.88,.29-.25,.12,.02,.1,.43-.03,1.26-.1,.55-.15,.3-.33,.51-.24,.2-.18-.09-.12-.33-.08-.88,.22-.84Zm-.28,1.49l.23,1.08,.66-.74,.62-.46h.42l.05,.1h0s-.09,.27-.09,.27l-.32,.5-.57,.67-.7,.64-.42,.23-.15-.21-.37-.97-.12-1.1,.12-.69,.13-.16,.18,.12,.29,.72Z"/>
  <polygon class="cls-6" points="9.6 36.72 9.6 37.51 10.09 37.12 9.6 36.72"/>
  <polygon class="cls-6" points="1.03 28.02 4.21 28.02 4.21 27.18 6.62 27.18 6.62 25.49 8.76 25.49 8.76 24.93 10.63 24.93 10.63 24.82 10.38 24.54 10.12 24.83 9.86 24.54 9.61 24.83 9.35 24.54 9.09 24.83 8.83 24.54 8.57 24.83 8.57 25.45 8.31 25.16 8.05 25.45 7.79 25.16 7.54 25.45 7.27 25.16 7.02 25.45 6.76 25.16 6.5 25.45 6.5 26.87 6.24 27.17 5.99 26.87 5.73 27.17 5.47 26.87 5.21 27.17 4.95 26.87 4.69 27.17 4.43 26.87 4.17 27.17 4.17 28 3.91 27.7 3.66 28 3.4 27.7 3.14 28 2.88 27.7 2.62 28 2.37 27.7 2.11 28 1.84 27.7 1.58 28 1.32 27.7 1.06 28 1.06 27.17 .81 26.87 .55 27.17 .29 26.87 .03 27.17 0 27.14 0 27.18 1.03 27.18 1.03 28.02"/>
  <polygon class="cls-6" points="4.55 43.26 3.79 43.26 4.16 43.57 4.55 43.26"/>
  <polygon class="cls-6" points="9.6 38.07 9.6 38.85 10.09 38.46 9.6 38.07"/>
  <polygon class="cls-6" points="1.45 43.26 .69 43.26 1.06 43.57 1.45 43.26"/>
  <polygon class="cls-6" points="3 43.26 2.24 43.26 2.62 43.57 3 43.26"/>
  <path class="cls-6" d="M.55,17.65l.27,.29,.25-.29v-.84l.26,.3,.26-.3,.26,.3,.27-.3,.26,.3,.25-.3,.27,.3,.26-.3,.26,.3,.26-.3,.26,.3,.26-.3v.84l.26,.29,.26-.29,.26,.29,.26-.29,.26,.29,.26-.29,.26,.29,.26-.29,.26,.29v1.42l.26,.29,.26-.29,.26,.29,.26-.29,.26,.29,.26-.29,.26,.29,.26-.29v.62l.26,.29,.26-.29,.26,.29,.26-.29,.26,.29,.26-.29,.26,.29,.25-.28v-.1h-1.88v-.56h-2.13v-1.69h-2.41v-.85H1.03v.85H.15s-.01,.08-.02,.13l.15,.18,.26-.29Z"/>
  <polygon class="cls-6" points="9.25 37.04 9.25 35.53 7.63 35.53 9.25 37.04"/>
  <polygon class="cls-6" points="7.59 41.43 5.96 42.94 7.59 42.94 7.59 41.43"/>
  <polygon class="cls-6" points="0 41.44 0 41.85 .3 41.71 0 41.44"/>
  <path class="cls-6" d="M.63,41.4l.33-.31h.33v.31l-.33,.31,.63,.29h.06l.63-.29-.33-.31v-.31h.33l.33,.31,.34-.31h.33v.31l-.33,.31,.63,.29h.06l.63-.29-.33-.31v-.31h.33l.33,.31,.33-.31h.33v.31l-.33,.31,.63,.29h.02l1.33-1.24v-.18l-.16-.32-.24,.26h-.26v-.26l.26-.26-.26-.26v-.26h.26l.24,.26,.16-.32v-.39l-.16-.32-.24,.26h-.26v-.26l.26-.26-.26-.26v-.26h.26l.24,.26,.16-.32v-.39l-.16-.32-.24,.26h-.26v-.26l.26-.26-.26-.26v-.26h.26l.24,.26,.16-.32v-.18l-1.32-1.23h-.05l-.61,.28,.33,.31v.31h-.33l-.33-.31-.33,.31h-.33v-.31l.33-.31-.61-.28h-.1l-.61,.28,.33,.31v.31h-.33l-.34-.31-.33,.31h-.33v-.31l.33-.31-.61-.28h-.1l-.61,.28,.33,.31v.31h-.33l-.33-.31-.33,.31h-.3v5.26H.3l.33,.31Zm-.04-2.95v-.61h.65v-.57h.65v-.53h1.3v.53h.65v.57h.66v1.22h-.66v.56h-.65v.53H1.9v-.53h-.65v-.56H.59v-.61Z"/>
  <polygon class="cls-6" points="0 35.07 0 35.48 .3 35.21 0 35.07"/>
  <polygon class="cls-6" points="6.61 34.58 6.61 34.58 6.61 34.58 7.59 35.49 7.59 33.98 5.96 33.98 6.61 34.58"/>
  <path class="cls-4" d="M14.43,1.95l-.57-.97c-.11,.04-.22,.08-.33,.12l.9,1.54v-.69Z"/>
  <path class="cls-6" d="M14.43,.8c-.19,.06-.38,.11-.57,.17l.57,.97V.8Z"/>
  <polygon class="cls-4" points="13.46 18.34 13.64 17.99 13.07 17 13.26 16.67 13.65 17.34 13.79 16.91 12.48 14.66 12.27 15 12.47 15.34 12.07 16 11.1 14.33 12.08 12.72 12.47 13.32 12.27 13.67 12.48 14 13.62 12.05 13.84 11.67 13.65 11.31 13.26 11.98 13.09 11.66 13.63 10.67 13.46 10.32 14.43 8.65 14.43 7.97 13.06 10.32 13.24 10.66 12.66 11.67 13.06 12.33 12.66 12.98 12.07 11.99 10.69 14.37 12.07 16.67 12.66 15.68 13.06 16.34 12.66 17 13.25 18 13.13 18.47 14.43 20.7 14.43 20.01 13.46 18.34"/>
  <polygon class="cls-6" points="13.63 10.67 13.09 11.66 13.26 11.98 13.65 11.31 13.84 11.67 13.62 12.05 12.48 14 12.27 13.67 12.47 13.32 12.08 12.72 11.1 14.33 12.07 16 12.47 15.34 12.27 15 12.48 14.66 13.79 16.91 13.65 17.34 13.26 16.67 13.07 17 13.64 17.99 13.46 18.34 14.43 20.01 14.43 16.34 14.23 15.49 14.23 14.67 13.64 14.65 13.25 14.33 13.64 14.02 14.22 14 14.23 13.18 14.43 12.33 14.43 8.65 13.46 10.32 13.63 10.67"/>
  <polygon class="cls-4" points="14.22 14 13.64 14.02 13.25 14.33 13.64 14.65 14.23 14.67 14.23 15.49 14.43 16.34 14.43 12.33 14.23 13.18 14.22 14"/>
  <polygon class="cls-4" points="13.46 34.39 13.65 34.06 13.07 33.06 13.26 32.74 13.65 33.4 13.84 33.07 13.76 32.88 12.48 30.71 12.27 31.04 12.47 31.38 12.07 32.05 11.1 30.38 12.08 28.76 12.47 29.38 12.27 29.71 12.48 30.05 13.77 27.86 13.84 27.71 13.65 27.37 13.26 28.03 13.07 27.71 13.65 26.7 13.46 26.37 14.43 24.7 14.43 24.02 13.12 26.27 13.25 26.7 12.66 27.71 13.06 28.38 12.67 29.03 12.07 28.04 10.69 30.42 12.07 32.72 12.66 31.73 13.06 32.38 12.66 33.06 13.25 34.06 13.06 34.39 14.43 36.74 14.43 36.06 13.46 34.39"/>
  <polygon class="cls-6" points="13.65 26.7 13.07 27.71 13.26 28.03 13.65 27.37 13.84 27.71 13.77 27.86 12.48 30.05 12.27 29.71 12.47 29.38 12.08 28.76 11.1 30.38 12.07 32.05 12.47 31.38 12.27 31.04 12.48 30.71 13.76 32.88 13.84 33.07 13.65 33.4 13.26 32.74 13.07 33.06 13.65 34.06 13.46 34.39 14.43 36.06 14.43 32.39 14.22 31.52 14.23 30.72 13.66 30.71 13.25 30.38 13.64 30.05 14.23 30.04 14.23 29.21 14.43 28.38 14.43 24.7 13.46 26.37 13.65 26.7"/>
  <polygon class="cls-4" points="14.23 30.04 13.64 30.05 13.25 30.38 13.66 30.71 14.23 30.72 14.22 31.52 14.43 32.39 14.43 28.38 14.23 29.21 14.23 30.04"/>
  <polygon class="cls-4" points="13.46 50.44 13.65 50.11 13.07 49.1 13.26 48.78 13.65 49.45 13.86 49.11 12.47 46.77 12.27 47.11 12.47 47.43 12.07 48.1 11.1 46.43 12.08 44.81 12.47 45.43 12.27 45.76 12.47 46.09 13.39 44.56 13.84 43.75 13.65 43.42 13.26 44.08 13.07 43.75 13.65 42.75 13.46 42.41 14.43 40.75 14.43 40.08 13.36 41.9 13.08 42.42 13.25 42.75 12.66 43.75 13.06 44.42 12.66 45.08 12.08 44.09 10.69 46.47 12.07 48.78 12.66 47.78 13.06 48.44 12.66 49.1 13.25 50.11 13.08 50.43 13.5 51.18 14.43 52.79 14.43 52.1 13.46 50.44"/>
  <polygon class="cls-6" points="13.65 42.75 13.07 43.75 13.26 44.08 13.65 43.42 13.84 43.75 13.39 44.56 12.47 46.09 12.27 45.76 12.47 45.43 12.08 44.81 11.1 46.43 12.07 48.1 12.47 47.43 12.27 47.11 12.47 46.77 13.86 49.11 13.65 49.45 13.26 48.78 13.07 49.1 13.65 50.11 13.46 50.44 14.43 52.1 14.43 48.44 14.23 47.61 14.23 46.77 13.64 46.77 13.24 46.43 13.64 46.09 14.23 46.09 14.23 45.24 14.43 44.43 14.43 40.75 13.46 42.41 13.65 42.75"/>
  <polygon class="cls-4" points="14.23 46.09 13.64 46.09 13.24 46.43 13.64 46.77 14.23 46.77 14.23 47.61 14.43 48.44 14.43 44.43 14.23 45.24 14.23 46.09"/>
  <polygon class="cls-4" points="13.56 65.66 13.5 65.43 13.65 65.15 13.07 64.16 13.26 63.82 13.65 64.49 13.86 64.16 12.47 61.81 12.27 62.14 12.47 62.48 12.07 63.15 11.1 61.47 12.08 59.86 12.47 60.47 12.27 60.8 12.47 61.15 13.39 59.6 13.84 58.8 13.65 58.46 13.26 59.12 13.07 58.8 13.65 57.79 13.46 57.47 14.43 55.8 14.43 55.12 13.06 57.47 13.25 57.79 12.66 58.8 13.06 59.47 12.66 60.13 12.08 59.13 10.69 61.51 12.08 63.82 12.66 62.82 13.06 63.47 12.66 64.16 13.25 65.15 13.08 65.5 13.51 66.26 14.43 67.84 14.43 67.15 13.56 65.66"/>
  <polygon class="cls-6" points="13.65 57.79 13.07 58.8 13.26 59.12 13.65 58.46 13.84 58.8 13.39 59.6 12.47 61.15 12.27 60.8 12.47 60.47 12.08 59.86 11.1 61.47 12.07 63.15 12.47 62.48 12.27 62.14 12.47 61.81 13.86 64.16 13.65 64.49 13.26 63.82 13.07 64.16 13.65 65.15 13.5 65.43 13.56 65.66 14.43 67.15 14.43 63.49 14.23 62.65 14.23 61.81 13.64 61.8 13.25 61.47 13.65 61.15 14.23 61.15 14.23 60.29 14.43 59.48 14.43 55.8 13.46 57.47 13.65 57.79"/>
  <polygon class="cls-4" points="14.23 61.15 13.65 61.15 13.25 61.47 13.64 61.8 14.23 61.81 14.23 62.65 14.43 63.49 14.43 59.48 14.23 60.29 14.23 61.15"/>
  <polygon class="cls-1" points="11.58 74.26 11.76 74.35 12 74.15 12.33 73.64 12.48 73.34 12.58 72.79 12.62 71.54 12.52 71.1 12.39 71.08 12.1 71.33 11.6 72.21 11.38 73.05 11.46 73.93 11.58 74.26"/>
  <polygon class="cls-1" points="10.71 73.02 10.59 73.71 10.71 74.81 11.07 75.79 11.22 76 11.64 75.77 12.34 75.13 12.91 74.46 13.22 73.96 13.31 73.69 13.31 73.69 13.26 73.58 12.84 73.58 12.22 74.04 11.55 74.78 11.33 73.7 11.03 72.98 10.85 72.86 10.71 73.02"/>
  <path class="cls-1" d="M12.04,76.83l.58-.65,.13-.28-.12-.14h-.41s-.65,.36-.65,.36l-.69,.59v-.33s-.17-1.12-.17-1.12l-.18-.49-.14-.08-.18,.23-.18,.69,.07,1.5,.13,.35c.17,.09,.34,.18,.51,.27l.47-.25,.82-.65Z"/>
  <path class="cls-1" d="M9.93,76.37l-.11-.14-.2,.15-.21,.43-.02,.12c.21,.13,.42,.26,.64,.39v-.36s-.09-.58-.09-.58Z"/>
  <path class="cls-1" d="M11.95,77.8l-.28-.17-.57,.09-.17,.09c.25,.13,.51,.25,.77,.37l.14-.13,.1-.26Z"/>
  <path class="cls-3" d="M10.91,66.8l-5.52-3.25H.33c.01,.08,.02,.17,.04,.25H5.3l5.36,3.11v2.6h0v2.6h0s-4.29,2.5-4.29,2.5c.07,.06,.13,.12,.2,.18l4.35-2.56v-5.42Z"/>
  <path d="M10.93,66.8l-5.53-3.26H.33s0,0,0,0H5.39l5.52,3.25v5.42s-4.35,2.56-4.35,2.56c0,0,0,0,0,0l4.36-2.57v-5.43Z"/>
  <path class="cls-1" d="M5.56,71.58v-2.06h0s-.26,0-.26,0v1.81h-.8l-.68,.38c.05,.06,.09,.13,.14,.19l.54-.32h1.06Z"/>
  <polygon class="cls-1" points="6.91 71.85 6.91 73.39 10.09 71.85 6.91 71.85"/>
  <path class="cls-1" d="M2.35,66.66h0v-2.6H1.3l.79,.77v1.82l-.77,.45c.03,.07,.05,.15,.08,.22l1.2-.67h-.26Z"/>
  <polygon class="cls-2" points="5.3 67.69 5.3 69.51 5.56 69.51 5.56 69.5 5.56 67.43 4.49 67.43 3.15 66.65 3.15 64.83 3.94 64.06 2.89 64.06 2.89 66.66 2.63 66.66 2.63 66.66 4.49 67.69 5.3 67.69"/>
  <polygon class="cls-2" points="6.91 67.16 10.09 67.16 6.91 65.63 6.91 67.16"/>
  <path class="cls-1" d="M5.57,69.5h5.07v-2.59l-5.35-3.11H2.63v2.85h.26v-2.6h1.09l-.81,.78v1.82l1.33,.77h1.08v2.07Zm3.48-.26h-.34v-.78h-.66v.78h-.34v-1.81h.34v.77h.66v-.77h.34v1.81Zm-2.15-3.64l3.22,1.55h0s-3.21,.01-3.21,.01h0v-1.57Zm-1.4,1.04v-.77h-.67v.77h-.34v-1.82h.34v.78h.67v-.78h.33v1.82h-.33Z"/>
  <path d="M10.12,67.18h0s-3.22-1.57-3.22-1.57v1.57h3.22Zm-3.2-.01v-1.53l3.18,1.53h-3.18Z"/>
  <path class="cls-6" d="M3.71,70.71l-1.09-.95-.04,.04c.18,.31,.36,.61,.56,.92h.03v.06c.09,.14,.17,.29,.26,.42h.29v-.48Z"/>
  <path class="cls-6" d="M5.3,71.33v-3.64h-.8l-1.87-1.03h-.02l-1.2,.67c.03,.09,.06,.18,.1,.26h.85v.72h-.27v-.47h-.49c.13,.31,.29,.61,.44,.92l.58,.52,1.09-.96v-.47h-.55v.47h-.27v-.72h1.09v.72h.81v.96h-.81v-.24h.54v-.48h-.54l-1.09,.96,1.09,.95h.54v-.48h-.54v-.23h.81v.95h-.81v.72h-.38c.07,.09,.14,.18,.21,.28l.68-.38h.8Z"/>
  <path class="cls-2" d="M2.08,64.84l-.81-.78h1.1v2.6h.25v-2.85H.37c.07,.35,.16,.69,.24,1.03h.13v.52c.16,.59,.36,1.17,.57,1.74l.76-.44v-1.82Z"/>
  <path class="cls-2" d="M10.64,69.52H5.57v2.07h-1.08l-.54,.31c.18,.24,.35,.49,.54,.72v-.26h.34v.64s.08,.09,.12,.13h.56v-.77h.33v1.75c.17,.17,.35,.32,.52,.48l4.29-2.49v-2.58Zm-2.93,.25h.34v.78h.66v-.78h.34v1.82h-.34v-.78h-.66v.78h-.34v-1.82Zm2.41,2.08l-3.22,1.56v-1.57h3.22Z"/>
  <path class="cls-2" d="M5.18,73.4c.11,.12,.21,.24,.32,.36v-.36h-.32Z"/>
  <path d="M10.66,72.11v-2.59h0v-2.61l-5.36-3.11H.37s0,0,0,0H2.62v2.85h-.25v-2.6H1.27l.81,.78v1.82l-.76,.44s0,0,0,0l.77-.45v-1.82l-.79-.77h1.05v2.59h0s.26,0,.26,0h.28v-2.6h1.05l-.79,.77v1.82l1.34,.78h1.06v2.07h0v2.08h-1.06l-.54,.32s0,0,0,0l.54-.31h1.08v-2.07h5.07v2.58l-4.29,2.49s0,0,0,0l4.29-2.49h0Zm-6.16-4.68l-1.33-.77v-1.82l.81-.78h-1.09v2.6h-.26v-2.85h2.67l5.35,3.11v2.59H5.57v-2.07h-1.08Z"/>
  <path d="M6.9,71.84v1.57l3.22-1.56h0s-3.21,0-3.21,0h0Zm.01,0h3.18l-3.18,1.54v-1.54Z"/>
  <path class="cls-6" d="M.61,64.83c.04,.17,.09,.35,.13,.52v-.52h-.13Z"/>
  <polygon class="cls-6" points="8.71 68.21 8.04 68.21 8.04 67.43 7.71 67.43 7.71 69.25 8.04 69.25 8.04 68.47 8.71 68.47 8.71 69.25 9.05 69.25 9.05 67.43 8.71 67.43 8.71 68.21"/>
  <path class="cls-6" d="M5.5,72.37v.77h-.56c.08,.09,.16,.17,.23,.26h.32v.36c.11,.12,.21,.25,.33,.36v-1.75h-.33Z"/>
  <path class="cls-6" d="M4.49,72.37v.26c.11,.13,.23,.26,.34,.39v-.64h-.34Z"/>
  <polygon class="cls-6" points="8.04 70.8 8.71 70.8 8.71 71.58 9.05 71.58 9.05 69.76 8.71 69.76 8.71 70.55 8.04 70.55 8.04 69.76 7.71 69.76 7.71 71.58 8.04 71.58 8.04 70.8"/>
  <polygon class="cls-6" points="5.83 64.83 5.5 64.83 5.5 65.61 4.83 65.61 4.83 64.83 4.49 64.83 4.49 66.65 4.83 66.65 4.83 65.88 5.5 65.88 5.5 66.65 5.83 66.65 5.83 64.83"/>
  <path class="cls-3" d="M3.98,70.71h.81v-.95h-.81v.23h.54v.48h-.54l-1.09-.95,1.09-.96h.54v.48h-.54v.24h.81v-.96h-.81v-.72h-1.09v.72h.27v-.47h.55v.47l-1.09,.96-.58-.52c.17,.35,.34,.7,.54,1.05l.04-.04,1.09,.95v.48h-.29c.06,.08,.12,.16,.18,.24h.38v-.72Z"/>
  <path class="cls-3" d="M3.13,70.71s.02,.04,.03,.06v-.06h-.03Z"/>
  <path class="cls-3" d="M2.08,68.31h.27v-.72h-.85c.03,.08,.06,.16,.09,.24h.49v.47Z"/>
  <polygon class="cls-6" points=".49 58.89 0 58.89 0 59.39 .87 59.39 .49 58.89"/>
  <path class="cls-6" d="M2.43,59.91l.77,.52h2.7l1.14-1.54h-2.68l-.38,.5h1.93l-.39,.53h-1.93l-.39-.53,.77-1.04h4.62v-1.04h1.15v-1.04h1.16v-4.65h-1.16v-1.04h-1.15v-1.04H3.97l-.77-1.04,.39-.53h1.93l.39,.53h-1.93l.38,.51h2.68l-1.14-1.55H3.2l-.77,.53-.78-.53H0v.52H1.27l.39,.53-.78,1.04H0v.48H.85s1.58-1.58,1.58-1.58l.03,.03,1.51,1.53h4.29v1.05h1.15s0,.03,0,.03v.99h1.16v3.72h-1.16v1.04h-1.15v1.04H4s-1.58,1.58-1.58,1.58l-.03-.03-1.51-1.54H0v.47H.88l.78,1.04-.39,.53H0v.08c0,.14,.02,.28,.02,.42H1.65l.78-.52Z"/>
  <polygon class="cls-6" points=".87 48.52 0 48.52 0 49.02 .49 49.02 .87 48.52"/>
  <polygon points=".89 48.5 0 48.5 0 48.52 .87 48.52 .49 49.02 0 49.02 0 49.04 .5 49.04 .89 48.5"/>
  <path d="M2.43,59.92l.77,.52h2.7l1.17-1.57h-2.71l-.4,.53h1.93l-.37,.5h-1.93l-.38-.51,.76-1.03h4.64v-1.04h1.15v-1.03h1.16v-4.68h-1.16v-1.03h0s-1.15,0-1.15,0v-1.04H3.97l-.76-1.02,.38-.51h1.93l.37,.5h-1.93l.4,.54h2.71l-1.17-1.57H3.2l-.77,.52-.77-.52H0s1.65,0,1.65,0l.78,.53,.77-.53h2.7l1.14,1.55h-2.68l-.38-.51h1.93l-.39-.53h-1.93l-.39,.53,.77,1.04h4.62v1.04h1.15v1.04h1.16v4.65h-1.16v1.04h-1.15v1.04H3.97l-.77,1.04,.39,.53h1.93l.39-.53h-1.93l.38-.5h2.68l-1.14,1.54H3.2l-.77-.52-.78,.52H.02s0,0,0,.01H1.66l.77-.52Z"/>
  <polygon points=".5 58.87 0 58.87 0 58.89 .49 58.89 .87 59.39 0 59.39 0 59.4 .89 59.4 .5 58.87"/>
  <polygon points="1.66 48.52 1.27 47.99 1.27 47.99 0 47.99 0 48 1.27 48 1.65 48.52 .88 49.54 0 49.54 0 49.55 .88 49.55 1.66 48.52"/>
  <polygon points="1.66 59.39 .88 58.35 0 58.35 0 58.36 .88 58.36 1.65 59.39 1.27 59.91 0 59.91 0 59.92 1.27 59.92 1.66 59.39"/>
  <path class="cls-3" d="M2.43,59.33l1.54-1.54h4.2v-1.03h1.15v-1.05h1.16v-3.53h-1.16v-1.04h-1.15s0-.03,0-.03v-1.01H3.94s-1.51-1.53-1.51-1.53l-1.54,1.53H0v.47H.13l-.13,.14v2.29l.12,.16h0s0,.01,0,.01h0v.5h.38v.53H.12v.51h0l-.13,.17v2.28l.12,.13h0s-.13,0-.13,0v.48H.92s1.51,1.53,1.51,1.53Zm4.64-2.01h-2.34l2.34-2.61v2.61Zm0-6.75v2.62l-2.33-2.6h0s2.34-.01,2.34-.01Zm-2.71,3.64v-.52h0s.38,0,.38,0v-.51h0s.01,0,.01,0l.77-1.03h0s.77,1.03,.77,1.03h0s0,.01,0,.01h0v.5h.38v.53h-.38v.51h0s0,0,0,0l-.77,1.04h0s-.78-1.04-.78-1.04h0v-.52h-.38Zm-3.09-2.6v-.52h0s.38,0,.38,0v-.5h0s0-.01,0-.01l.77-1.03h0s.77,1.03,.77,1.03h0s0,.01,0,.01h0v.5h.39v.54h-.38v.51s0,0,0,0l-.77,1.04h-.01s-.78-1.04-.78-1.04h0v-.51h-.38Zm0,5.18v-.52h0s.38,0,.38,0v-.5h0l.78-1.04h0s.79,1.04,.79,1.04h-.01v.5h.39v.53h-.39v.51h0l-.77,1.05h-.01l-.78-1.04h0s0,0,0,0h0v-.51h-.38Z"/>
  <polygon class="cls-1" points="2.39 59.43 2.43 59.46 4 57.87 8.21 57.88 8.26 57.88 8.26 56.86 9.37 56.84 9.42 56.84 9.42 55.81 10.53 55.81 10.58 55.81 10.58 52.14 10.58 52.09 9.42 52.09 9.42 51.1 9.42 51.06 8.26 51.07 8.26 50.06 8.26 50.02 3.97 50.02 2.46 48.48 2.43 48.45 .85 50.03 0 50.03 0 50.11 .88 50.11 2.43 48.57 3.94 50.09 8.17 50.11 8.17 51.11 8.17 51.16 9.33 51.14 9.33 52.14 9.33 52.19 10.48 52.19 10.48 55.72 9.37 55.72 9.33 55.72 9.33 56.75 8.21 56.77 8.17 56.77 8.17 57.79 3.97 57.79 2.43 59.33 .92 57.81 0 57.81 0 57.88 .88 57.88 2.39 59.43"/>
  <polygon class="cls-6" points="0 50.59 0 50.7 .1 50.59 0 50.59"/>
  <polygon points=".11 50.57 0 50.57 0 50.59 .1 50.59 0 50.7 0 50.72 .13 50.57 .11 50.57"/>
  <polygon class="cls-6" points="7.05 50.59 4.75 50.59 7.05 53.16 7.05 50.59"/>
  <path d="M7.07,53.19v-2.62h-2.33s2.33,2.62,2.33,2.62Zm-.01-2.6v2.57l-2.3-2.57h2.3Z"/>
  <polygon class="cls-6" points="0 57.2 0 57.31 .1 57.31 0 57.2"/>
  <polygon points=".12 57.31 0 57.18 0 57.2 .1 57.31 0 57.31 0 57.32 .13 57.32 .12 57.31"/>
  <polygon class="cls-6" points="7.05 54.74 4.75 57.31 7.05 57.31 7.05 54.74"/>
  <path d="M4.74,57.32h2.33v-2.61l-2.34,2.61h0Zm2.31-2.58v2.57h-2.3l2.3-2.57Z"/>
  <polygon class="cls-6" points="5.52 52.15 4.75 53.17 6.28 53.17 5.52 52.15"/>
  <polygon class="cls-6" points="0 53.04 0 53.17 .1 53.17 0 53.04"/>
  <polygon class="cls-6" points="0 54.74 0 54.87 .1 54.74 0 54.74"/>
  <polygon points=".12 54.73 .12 54.22 .5 54.22 .5 53.69 .12 53.69 .12 53.18 .13 53.18 .12 53.17 .12 53.17 .12 53.17 0 53.01 0 53.04 .1 53.17 0 53.17 0 53.18 .11 53.18 .11 53.69 0 53.69 0 53.7 .12 53.7 .49 53.7 .49 54.2 .12 54.2 0 54.2 0 54.22 .11 54.22 .11 54.73 0 54.73 0 54.74 .1 54.74 0 54.87 0 54.9 .13 54.73 .12 54.73"/>
  <polygon class="cls-6" points="5.52 55.76 6.27 54.74 4.75 54.74 5.52 55.76"/>
  <polygon class="cls-1" points="2.43 58.35 3.19 57.32 1.66 57.32 2.43 58.35"/>
  <polygon class="cls-1" points="2.43 53.16 3.19 52.14 1.66 52.14 2.43 53.16"/>
  <polygon class="cls-1" points="2.43 49.56 1.66 50.57 3.19 50.57 2.43 49.56"/>
  <polygon class="cls-1" points="2.43 54.74 1.66 55.77 3.19 55.77 2.43 54.74"/>
  <path class="cls-1" d="M4.75,53.69h1.53v-.5h-1.53v.5Zm1.33-.41l.09,.13-.09,.13-.09-.13,.09-.13Zm-1.14,.01l.09,.12-.09,.14-.1-.14,.1-.12Z"/>
  <path class="cls-6" d="M5.14,54.2h.76v-.5h-.76v.5Zm.37-.4l.09,.12-.09,.13-.09-.13,.09-.12Z"/>
  <path class="cls-6" d="M3.2,50.59H1.66v.5h1.53v-.5Zm-1.34,.38l-.1-.13,.1-.13,.1,.13-.1,.13Zm1.15,0l-.1-.13,.1-.12,.09,.12-.09,.13Z"/>
  <path class="cls-6" d="M1.65,52.13h1.55s0-.51,0-.51H1.66v.51Zm1.35-.38l.09,.13-.09,.13-.1-.13,.1-.13Zm-1.07,.11l-.09,.12-.09-.12,.09-.13,.09,.13Z"/>
  <path d="M1.64,52.14h0l.78,1.05h.01s.77-1.05,.77-1.05h0v-.51h.39v-.54h-.39v-.5h0s0-.01,0-.01l-.77-1.04h0s-.77,1.04-.77,1.04h0s0,.01,0,.01h0v.5h-.38v.53h0s.38,0,.38,0v.51Zm1.93-.53H1.27v-.51H3.58v.51Zm-1.15,1.55l-.76-1.02h1.53l-.76,1.02Zm.77-1.02H1.65s0-.51,0-.51h1.54v.51Zm-.77-2.58l.76,1.02H1.66l.76-1.02Zm-.76,1.03h1.53v.5H1.66v-.5Z"/>
  <path class="cls-6" d="M1.65,51.1h-.38v.51H3.58v-.51H1.65Zm-.18,.38l-.1-.12,.1-.13,.1,.13-.1,.12Zm.97,0l-.1-.12,.1-.13,.09,.13-.09,.12Zm.95-.27l.09,.13-.09,.13-.1-.13,.1-.13Z"/>
  <path class="cls-6" d="M3.2,55.77H1.66v.5h1.53v-.5Zm-1.33,.39l-.1-.13,.1-.14,.09,.14-.09,.13Zm1.14-.01l-.09-.13,.09-.13,.09,.13-.09,.13Z"/>
  <path class="cls-6" d="M1.66,57.31h1.53v-.51H1.66v.51Zm1.34-.37l.09,.12-.09,.14-.09-.14,.09-.12Zm-1.15-.02l.1,.12-.1,.14-.1-.14,.1-.12Z"/>
  <path d="M1.65,57.31h0s0,0,0,0l.78,1.04h.01l.77-1.05h0v-.51h.39v-.53h-.39v-.5h.01l-.79-1.05h0s-.78,1.05-.78,1.05h0v.5h-.38v.53h0s.38,0,.38,0v.51Zm.78,1.04l-.76-1.03h1.53l-.76,1.03Zm.77-1.04H1.66v-.51h1.53v.51Zm-.77-2.58l.76,1.03H1.66l.76-1.03Zm-.76,1.04h1.53v.5H1.66v-.5Zm-.39,1.03v-.51H3.58v.51H1.27Z"/>
  <path class="cls-6" d="M3.58,56.8v-.51H1.27v.51H3.58Zm-.18-.39l.1,.12-.1,.14-.1-.14,.1-.12Zm-1.92,.27l-.09-.13,.09-.13,.1,.13-.1,.13Zm.96,0l-.09-.13,.09-.13,.1,.13-.1,.13Z"/>
  <path class="cls-1" d="M5.89,54.22h-1.14v.51h1.53v-.51h-.39Zm-.97,.35l-.1-.12,.1-.13,.1,.13-.1,.12Zm1.16-.24l.09,.13-.09,.12-.09-.12,.09-.13Z"/>
  <path d="M4.73,54.74h0l.78,1.04h0s.77-1.04,.77-1.04h0s0,0,0,0h0v-.51h.38v-.53h-.38v-.5h0s0-.01,0-.01l-.77-1.04h0s-.77,1.04-.77,1.04h-.01v.52h-.38v.53h0s.38,0,.38,0v.52Zm1.16-.53h-.76v-.5h.76v.5Zm-.77-.5v.5h-.76v-.5h.76Zm.39,2.06l-.77-1.02h1.52l-.75,1.02Zm.76-1.03h-1.53v-.51h1.53v.51Zm.38-.52h-.76v-.5h.76v.5Zm-.38-.52h-1.53v-.5h1.53v.5Zm-.76-1.53l.76,1.02h-1.53l.77-1.02Z"/>
  <polygon class="cls-1" points=".11 53.18 0 53.18 0 53.43 .01 53.44 0 53.46 0 53.69 .11 53.69 .11 53.18"/>
  <polygon class="cls-1" points=".11 54.22 0 54.22 0 54.49 .01 54.5 0 54.51 0 54.73 .11 54.73 .11 54.22"/>
  <path class="cls-1" d="M.49,54.2v-.5h-.49v.5H.49Zm-.19-.37l.1,.12-.1,.13-.09-.13,.09-.12Z"/>
  <path class="cls-1" d="M4.36,53.7v.5h.76v-.5h-.76Zm.18,.36l-.1-.13,.1-.12,.1,.12-.1,.13Z"/>
  <path class="cls-1" d="M5.9,53.7v.5h.76v-.5h-.76Zm.56,.09l.1,.12-.1,.13-.1-.13,.1-.12Z"/>
  <polygon class="cls-2" points="1.38 56.55 1.48 56.67 1.58 56.55 1.48 56.42 1.38 56.55"/>
  <polygon class="cls-2" points="2.35 56.55 2.44 56.67 2.54 56.55 2.44 56.42 2.35 56.55"/>
  <polygon class="cls-2" points="3.5 56.53 3.4 56.41 3.3 56.53 3.4 56.67 3.5 56.53"/>
  <polygon class="cls-2" points="1.77 56.03 1.87 56.16 1.96 56.03 1.87 55.89 1.77 56.03"/>
  <polygon class="cls-2" points="2.92 56.02 3.01 56.15 3.1 56.02 3.01 55.89 2.92 56.02"/>
  <polygon class="cls-2" points="1.95 57.05 1.85 56.93 1.75 57.05 1.85 57.19 1.95 57.05"/>
  <polygon class="cls-2" points="3.1 57.07 3.01 56.94 2.92 57.07 3.01 57.21 3.1 57.07"/>
  <polygon class="cls-2" points="4.45 53.93 4.54 54.06 4.64 53.93 4.54 53.81 4.45 53.93"/>
  <polygon class="cls-2" points="5.6 53.93 5.51 53.81 5.41 53.93 5.51 54.06 5.6 53.93"/>
  <polygon class="cls-2" points="6.57 53.91 6.47 53.79 6.37 53.91 6.47 54.05 6.57 53.91"/>
  <polygon class="cls-2" points="5.02 53.41 4.93 53.29 4.83 53.41 4.93 53.55 5.02 53.41"/>
  <polygon class="cls-2" points="6.16 53.41 6.08 53.27 5.98 53.41 6.08 53.53 6.16 53.41"/>
  <polygon class="cls-2" points="4.82 54.44 4.92 54.57 5.02 54.44 4.92 54.31 4.82 54.44"/>
  <polygon class="cls-2" points="6.16 54.46 6.08 54.33 5.98 54.46 6.08 54.58 6.16 54.46"/>
  <polygon class="cls-2" points="1.37 51.36 1.47 51.48 1.57 51.36 1.47 51.23 1.37 51.36"/>
  <polygon class="cls-2" points="2.34 51.36 2.44 51.48 2.53 51.36 2.44 51.23 2.34 51.36"/>
  <polygon class="cls-2" points="3.49 51.35 3.39 51.22 3.3 51.35 3.39 51.48 3.49 51.35"/>
  <polygon class="cls-2" points="1.75 50.84 1.85 50.97 1.95 50.84 1.85 50.71 1.75 50.84"/>
  <polygon class="cls-2" points="2.9 50.83 3.01 50.96 3.09 50.83 3.01 50.7 2.9 50.83"/>
  <polygon class="cls-2" points="1.84 51.99 1.94 51.86 1.84 51.74 1.75 51.86 1.84 51.99"/>
  <polygon class="cls-2" points="3.09 51.88 3.01 51.75 2.9 51.88 3.01 52.02 3.09 51.88"/>
  <polygon class="cls-2" points=".4 53.96 .3 53.84 .21 53.96 .3 54.09 .4 53.96"/>
  <polygon class="cls-2" points="0 53.43 0 53.46 .01 53.44 0 53.43"/>
  <polygon class="cls-2" points="0 54.49 0 54.51 .01 54.5 0 54.49"/>
  <polygon class="cls-3" points="5.93 33.99 4.77 33.99 5.27 34.58 5.61 34.58 5.61 34.58 5.62 34.58 5.62 34.58 5.63 34.58 6.57 34.58 5.93 33.99"/>
  <polygon class="cls-3" points="0 33.99 0 34.53 .47 33.99 0 33.99"/>
  <polygon class="cls-3" points="2.64 33.99 3.15 34.58 3.66 33.99 2.64 33.99"/>
  <polygon class="cls-3" points="3.65 42.93 3.15 42.34 2.65 42.93 3.65 42.93"/>
  <polygon class="cls-3" points="9.24 39.6 8.93 39.86 7.61 39.86 7.61 41.37 9.24 39.85 9.24 39.6"/>
  <polygon class="cls-3" points="8.93 38.18 9.24 38.43 9.24 37.93 8.93 38.18"/>
  <polygon class="cls-3" points="8.93 38.74 9.24 38.99 9.24 38.49 8.93 38.74"/>
  <polygon class="cls-3" points="8.94 39.3 9.24 39.54 9.24 39.05 8.94 39.3"/>
  <polygon class="cls-3" points="0 42.38 0 42.93 .47 42.93 0 42.38"/>
  <polygon class="cls-3" points="1.04 42.34 1.22 42.54 1.04 42.34 1.04 42.34"/>
  <polygon class="cls-3" points="3.7 33.99 4.21 34.58 4.72 33.99 3.7 33.99"/>
  <polygon class="cls-3" points="7.61 37.06 8.93 37.06 9.24 37.32 9.24 37.07 7.61 35.55 7.61 37.06"/>
  <polygon class="cls-3" points="1.59 42.93 2.59 42.93 2.09 42.34 1.59 42.93"/>
  <polygon class="cls-3" points="1.53 42.93 1.03 42.34 1.02 42.34 .52 42.93 1.53 42.93"/>
  <polygon class="cls-3" points="6.62 41.41 6.61 41.41 6.61 42.29 7.56 41.41 6.62 41.41"/>
  <polygon class="cls-3" points="7.56 35.51 6.61 34.62 6.61 35.51 6.61 35.51 7.56 35.51"/>
  <polygon class="cls-3" points="5.27 42.34 4.77 42.93 5.93 42.93 6.56 42.34 5.61 42.34 5.58 42.34 5.27 42.34"/>
  <polygon class="cls-3" points="1.03 34.58 1.53 33.99 .52 33.99 1.02 34.58 1.03 34.58"/>
  <polygon class="cls-3" points="1.58 33.99 2.09 34.58 2.59 33.99 1.58 33.99"/>
  <polygon class="cls-3" points="8.94 37.63 9.24 37.88 9.24 37.38 8.94 37.63"/>
  <polygon class="cls-3" points="4.72 42.93 4.21 42.34 3.71 42.93 4.72 42.93"/>
  <polygon class="cls-3" points="1.06 43.57 .69 43.26 .31 43.26 .81 43.57 .56 43.87 .56 44.18 .81 44.18 1.06 43.87 1.32 44.18 1.59 44.18 1.59 43.87 1.32 43.57 1.84 43.26 1.45 43.26 1.06 43.57"/>
  <polygon class="cls-3" points="2.62 43.57 2.24 43.26 1.86 43.26 2.37 43.57 2.11 43.87 2.11 44.18 2.37 44.18 2.62 43.87 2.87 44.18 3.14 44.18 3.14 43.87 2.87 43.57 3.38 43.26 3 43.26 2.62 43.57"/>
  <polygon class="cls-3" points="4.16 43.57 3.79 43.26 3.4 43.26 3.91 43.57 3.66 43.87 3.66 44.18 3.91 44.18 4.16 43.87 4.42 44.18 4.69 44.18 4.69 43.87 4.42 43.57 4.94 43.26 4.55 43.26 4.16 43.57"/>
  <polygon class="cls-3" points="1.06 33.36 1.45 33.66 1.84 33.66 1.32 33.36 1.59 33.05 1.59 32.74 1.32 32.74 1.06 33.05 .81 32.74 .56 32.74 .56 33.05 .81 33.36 .32 33.66 .69 33.66 1.06 33.36"/>
  <polygon class="cls-3" points="4.16 33.36 4.55 33.66 4.93 33.66 4.42 33.36 4.69 33.05 4.69 32.74 4.42 32.74 4.16 33.05 3.91 32.74 3.66 32.74 3.66 33.05 3.91 33.36 3.41 33.66 3.79 33.66 4.16 33.36"/>
  <polygon class="cls-3" points="2.62 33.36 3 33.66 3.38 33.66 2.87 33.36 3.14 33.05 3.14 32.74 2.87 32.74 2.62 33.05 2.37 32.74 2.11 32.74 2.11 33.05 2.37 33.36 1.87 33.66 2.24 33.66 2.62 33.36"/>
  <polygon class="cls-3" points="10.09 37.12 9.6 37.51 9.6 38.07 10.09 38.46 9.6 38.85 9.6 39.41 10.09 39.8 9.6 40.2 9.6 40.47 9.68 40.47 10.09 40.03 10.5 40.25 10.92 40.25 10.92 40.03 10.5 39.8 10.92 39.58 10.92 39.35 10.5 39.35 10.09 39.58 9.68 39.13 10.09 38.69 10.5 38.91 10.92 38.91 10.92 38.69 10.5 38.46 10.92 38.24 10.92 38.01 10.5 38.01 10.09 38.24 9.68 37.79 10.09 37.34 10.5 37.57 10.92 37.57 10.92 37.34 10.5 37.12 10.92 36.89 10.92 36.67 10.5 36.67 10.09 36.89 9.68 36.45 9.6 36.45 9.6 36.72 10.09 37.12"/>
  <rect class="cls-3" x="9.6" y="41.4" width=".32" height=".3"/>
  <rect class="cls-3" x="9.26" y="41.72" width=".32" height=".29"/>
  <rect class="cls-3" x="7.61" y="43.26" width=".31" height=".29"/>
  <rect class="cls-3" x="7.94" y="42.95" width=".32" height=".29"/>
  <rect class="cls-3" x="7.61" y="33.36" width=".31" height=".29"/>
  <rect class="cls-3" x="7.95" y="33.68" width=".31" height=".29"/>
  <rect class="cls-3" x="9.26" y="34.91" width=".32" height=".29"/>
  <rect class="cls-3" x="9.6" y="35.22" width=".32" height=".29"/>
  <polygon class="cls-2" points="2.55 37.44 2.55 36.74 1.9 36.74 1.9 37.27 1.25 37.27 1.25 37.84 .59 37.84 .59 38.45 1.55 38.45 2.55 37.44"/>
  <polygon class="cls-2" points="2.55 39.45 2.55 40.15 3.2 40.15 3.2 39.62 3.85 39.62 3.85 39.06 4.51 39.06 4.51 38.45 3.56 38.45 2.55 39.45"/>
  <polygon class="cls-1" points="1.25 39.62 1.9 39.62 1.9 40.15 2.55 40.15 2.55 39.45 1.55 38.45 .59 38.45 .59 39.06 1.25 39.06 1.25 39.62"/>
  <polygon class="cls-1" points="3.56 38.45 4.51 38.45 4.51 37.84 3.85 37.84 3.85 37.27 3.2 37.27 3.2 36.74 2.55 36.74 2.55 37.44 3.56 38.45"/>
  <polygon class="cls-6" points="2.55 38.45 2.55 39.45 3.56 38.45 2.55 38.45"/>
  <polygon class="cls-3" points="3.56 38.45 2.55 37.44 2.55 38.45 3.56 38.45"/>
  <polygon class="cls-3" points="1.55 38.45 2.55 39.45 2.55 38.45 1.55 38.45"/>
  <polygon class="cls-6" points="2.55 37.44 1.55 38.45 2.55 38.45 2.55 37.44"/>
  <polygon class="cls-3" points=".63 41.71 1.11 42.01 1.59 42.01 .96 41.71 1.29 41.4 1.29 41.09 .96 41.09 .63 41.4 .3 41.09 0 41.09 0 41.44 .3 41.71 0 41.85 0 42.01 .15 42.01 .63 41.71"/>
  <polygon class="cls-3" points="5.28 41.4 5.28 41.09 4.94 41.09 4.61 41.4 4.28 41.09 3.95 41.09 3.95 41.4 4.28 41.71 3.64 42.01 4.13 42.01 4.61 41.71 5.09 42.01 5.58 42.01 4.94 41.71 5.28 41.4"/>
  <polygon class="cls-3" points="3.28 41.4 3.28 41.09 2.95 41.09 2.62 41.4 2.29 41.09 1.96 41.09 1.96 41.4 2.29 41.71 1.65 42.01 2.14 42.01 2.62 41.71 3.1 42.01 3.58 42.01 2.95 41.71 3.28 41.4"/>
  <polygon class="cls-3" points=".63 35.52 .96 35.83 1.29 35.83 1.29 35.52 .96 35.21 1.57 34.92 1.59 34.91 1.11 34.91 1.09 34.92 .63 35.21 .17 34.92 .15 34.91 0 34.91 0 35.07 .3 35.21 0 35.48 0 35.83 .3 35.83 .63 35.52"/>
  <polygon class="cls-3" points="1.96 35.52 1.96 35.83 2.29 35.83 2.62 35.52 2.95 35.83 3.28 35.83 3.28 35.52 2.95 35.21 3.56 34.92 3.58 34.91 3.1 34.91 3.08 34.92 2.62 35.21 2.16 34.92 2.14 34.91 1.66 34.91 1.68 34.92 2.29 35.21 1.96 35.52"/>
  <polygon class="cls-3" points="3.95 35.52 3.95 35.83 4.28 35.83 4.61 35.52 4.94 35.83 5.28 35.83 5.28 35.52 4.94 35.21 5.56 34.92 5.58 34.91 5.09 34.91 5.07 34.92 4.61 35.21 4.15 34.92 4.13 34.91 3.65 34.91 3.67 34.92 4.28 35.21 3.95 35.52"/>
  <polygon class="cls-3" points="6.52 39.49 6.27 39.49 6.27 39.75 6.52 40.01 6.27 40.26 6.27 40.52 6.52 40.52 6.77 40.26 6.92 40.59 6.92 40.25 6.77 40.01 6.92 39.77 6.92 39.43 6.77 39.75 6.52 39.49"/>
  <polygon class="cls-3" points="6.52 37.94 6.27 37.94 6.27 38.2 6.52 38.46 6.27 38.72 6.27 38.98 6.52 38.98 6.77 38.72 6.92 39.04 6.92 38.7 6.77 38.46 6.92 38.22 6.92 37.88 6.77 38.2 6.52 37.94"/>
  <polygon class="cls-3" points="6.52 36.4 6.27 36.4 6.27 36.65 6.52 36.91 6.27 37.17 6.27 37.43 6.52 37.43 6.77 37.17 6.92 37.49 6.92 37.15 6.77 36.91 6.92 36.67 6.92 36.33 6.77 36.65 6.52 36.4"/>
  <polygon class="cls-1" points="2.08 42.34 1.04 42.34 1.22 42.54 1.56 42.94 2.08 42.34"/>
  <polygon class="cls-1" points="1.56 33.99 1.04 34.58 2.07 34.58 1.56 33.99"/>
  <polygon class="cls-1" points="3.68 33.99 3.17 34.58 4.19 34.58 3.68 33.99"/>
  <polygon class="cls-1" points="3.68 42.94 4.19 42.34 3.17 42.34 3.68 42.94"/>
  <polygon class="cls-6" points=".49 33.99 0 34.56 0 34.58 1.01 34.58 .49 33.99"/>
  <polygon class="cls-6" points="2.62 33.99 2.11 34.58 3.13 34.58 2.62 33.99"/>
  <polygon class="cls-6" points="4.74 33.99 4.24 34.58 5.26 34.58 4.74 33.99"/>
  <polygon class="cls-6" points="8.93 37.63 7.61 37.63 7.61 38.17 8.93 38.17 9.25 37.91 8.93 37.63"/>
  <polygon class="cls-6" points=".49 42.94 1.01 42.34 0 42.34 0 42.37 .49 42.94"/>
  <polygon class="cls-6" points="2.62 42.94 3.13 42.34 2.11 42.34 2.62 42.94"/>
  <polygon class="cls-6" points="5.26 42.34 4.23 42.34 4.74 42.94 5.26 42.34"/>
  <polygon class="cls-6" points="6.64 41.39 7.59 41.39 7.59 39.86 7.59 39.3 7.59 39.29 7.59 39.29 7.59 38.74 7.59 38.74 7.59 38.73 7.59 38.18 7.59 38.17 7.59 37.63 7.59 37.62 7.59 37.62 7.59 37.06 7.59 35.53 6.63 35.53 7.28 36.14 7.28 40.8 6.64 41.39"/>
  <polygon class="cls-6" points="6.6 42.32 6.6 41.43 5.63 42.32 6.6 42.32"/>
  <polygon class="cls-6" points="6.6 35.49 6.6 34.6 5.64 34.6 6.6 35.49"/>
  <polygon class="cls-3" points="5.59 42.31 7.26 40.78 7.26 36.15 5.59 34.6 0 34.6 0 34.89 5.62 34.89 6.95 36.14 6.95 40.78 6.93 40.78 6.95 40.8 5.61 42.03 0 42.03 0 42.31 5.59 42.31"/>
  <polygon points="5.61 42.03 6.95 40.8 6.93 40.78 6.95 40.78 6.95 36.14 5.62 34.89 0 34.89 0 34.91 .15 34.91 .17 34.92 1.09 34.92 1.11 34.91 1.59 34.91 1.57 34.92 1.68 34.92 1.66 34.91 2.14 34.91 2.16 34.92 3.08 34.92 3.1 34.91 3.58 34.91 3.56 34.92 3.67 34.92 3.65 34.91 4.13 34.91 4.15 34.92 5.07 34.92 5.09 34.91 5.58 34.91 5.56 34.92 5.6 34.92 6.92 36.15 6.92 36.33 6.92 36.67 6.92 37.15 6.92 37.49 6.92 37.88 6.92 38.22 6.92 38.7 6.92 39.04 6.92 39.43 6.92 39.77 6.92 40.25 6.92 40.59 6.92 40.77 5.59 42.01 5.58 42.01 5.09 42.01 4.13 42.01 3.64 42.01 3.58 42.01 3.1 42.01 2.14 42.01 1.65 42.01 1.59 42.01 1.11 42.01 .15 42.01 0 42.01 0 42.03 5.61 42.03"/>
  <polygon class="cls-1" points="8.93 38.18 7.61 38.18 7.61 38.73 8.93 38.73 9.25 38.46 8.93 38.18"/>
  <polygon class="cls-6" points="8.93 38.74 7.61 38.74 7.61 39.29 8.93 39.29 9.25 39.02 8.93 38.74"/>
  <polygon class="cls-1" points="8.93 39.3 7.61 39.3 7.61 39.85 8.93 39.85 9.25 39.57 8.93 39.3"/>
  <polygon class="cls-1" points="8.93 37.07 7.61 37.07 7.61 37.62 8.93 37.62 9.25 37.35 8.93 37.07"/>
  <polygon class="cls-5" points="7.59 43.25 7.92 43.25 7.92 42.95 7.92 42.94 7.92 41.7 9.25 41.7 9.58 41.7 9.58 41.4 9.58 41.39 9.58 35.53 9.58 35.22 9.25 35.22 7.93 35.22 7.92 35.22 7.92 33.99 7.92 33.67 0 33.67 0 33.97 7.61 33.97 7.61 35.51 9.26 35.51 9.26 41.4 9.26 41.4 7.61 41.4 7.61 41.41 7.61 42.95 0 42.95 0 43.25 7.59 43.25"/>
  <path d="M.69,43.26H7.59v.31h.35v-.31h.34v-.32h-.34v-1.22h1.32v.31h.35v-.31h.33v-.33h-.33v-5.86h.33v-.33h-.33v-.31h-.35v.31h-1.32v-1.22h.34v-.33h-.33v-.31h-.36v.31H0s7.92,.01,7.92,.01v1.54h1.66v6.17h0v.31h-1.66v1.24h0v.3H0v.02H.69Zm7.23,0v.29h-.31v-.29h.31Zm.02-.31h.32v.29h-.32v-.29Zm1.64-1.23v.29h-.32v-.29h.32Zm.34-.31v.3h-.32v-.3h.32Zm0-5.89h-.32v-.29h.32v.29Zm-.65-.6h.32v.29h-.32v-.29Zm-1.66-1.54h.31v.29h-.31v-.29Zm.65,.6h-.31v-.29h.31v.29Z"/>
  <path d="M7.61,42.95v-1.54h0s1.65,0,1.65,0h0v-5.89h-1.66v-1.54H0v.02H.47l-.47,.54v.02l.49-.57,.51,.59H0v.02H5.59l1.66,1.55v4.63l-1.66,1.53H0v.02H1.01l-.52,.6-.49-.57v.02l.47,.54h-.47v.02H7.61Zm-6.39-.41l-.17-.2h1.03l-.52,.6-.34-.4Zm3.5,.39h-1.01l.5-.59,.5,.59Zm-1.04,0l-.51-.6h1.03l-.51,.6Zm-.03,0h-1.01l.5-.59,.5,.59Zm-1.03,0l-.51-.6h1.02l-.51,.6Zm-.03,0H1.59l.5-.58,.5,.58Zm1.64-.59h1.03l-.52,.6-.51-.6Zm1.39-7.76h0s0,0,0,0h0s-.33,0-.33,0l-.51-.59h1.16l.64,.59h-.95Zm-4.58,0l.51-.59,.51,.59H1.04Zm.54-.59h1.01l-.5,.59-.51-.59Zm.53,.59l.5-.59,.51,.59h-1.01Zm.53-.59h1.01l-.51,.59-.51-.59Zm.53,.59l.51-.59,.51,.59h-1.02Zm.53-.59h1.01l-.51,.59-.51-.59Zm.53,.59l.51-.59,.51,.59h-1.02Zm5.01,2.74l-.31-.26h-1.32v-1.51l1.63,1.52v.25Zm-1.63,2.54h1.32l.31-.27v.25l-1.63,1.52v-1.5Zm1.32-.02h-1.32v-.54h1.32l.32,.27-.32,.28Zm0-.55l.3-.25v.5l-.3-.25Zm0,0h-1.32v-.55h1.32l.32,.28-.32,.27Zm0-.55l.31-.25v.51l-.31-.25Zm0,0h-1.32v-.55h1.32l.32,.28-.32,.28Zm0-.56l.31-.24v.5l-.31-.25Zm0,0h-1.32v-.54h1.32l.32,.28-.32,.27Zm0-.55l.3-.25v.51l-.3-.26Zm0,0h-1.32v-.55h1.32l.32,.28-.32,.27Zm-2.32-3l.95,.89h-.95v-.89Zm-.01-.02v.9l-.95-.9h.95Zm.04,.93h.96v2.09h0v.56h0v.56h0v.56h0v2.1h-.95l.64-.59v-4.66l-.65-.61Zm-.02,5.88h0s.95,0,.95,0l-.95,.89v-.88Zm-.01,.01v.89h-.97l.97-.89Zm-.03,.91l-.63,.59h-1.16l.5-.59h1.29Zm1.02-.91v1.51h-1.63l1.63-1.51Zm1.67-4.39l-1.63-1.51h1.63v1.51Zm-1.67-1.55l-.98-.91h0s-.65-.61-.65-.61h1.63v1.52Zm-6.05-1.5l-.51,.59h0l-.51-.59H1.53Zm-.5,8.35l.5,.59H.52l.5-.59h0Zm6.6-.95l1.62-1.5v1.5h-1.62Z"/>
  <path class="cls-6" d="M3.66,22.41l-1.04-1.18-1.04,1.18,1.04,1.19,1.04-1.19Zm-1.04-.29l.52,.29-.52,.3-.51-.3,.51-.29Z"/>
  <polygon class="cls-6" points="3.96 25.49 4.6 24.77 4.17 24.77 3.91 24.48 3.91 24.18 4.17 24.18 4.43 24.48 4.95 23.89 3.91 22.7 2.88 23.89 3.91 25.07 3.91 25.36 3.66 25.36 2.62 24.18 1.58 25.36 1.32 25.36 1.32 25.07 2.37 23.89 1.32 22.7 .29 23.89 .81 24.48 1.06 24.18 1.32 24.18 1.32 24.48 1.06 24.77 .64 24.77 1.29 25.49 3.96 25.49"/>
  <polygon class="cls-6" points=".03 23.59 1.06 22.41 .03 21.22 .03 20.74 0 20.77 0 22.24 .29 22.41 0 22.57 0 24.05 .03 24.08 .03 23.59"/>
  <polygon class="cls-6" points="1.29 19.32 .65 20.04 1.06 20.04 1.32 20.34 1.32 20.63 1.06 20.63 .81 20.34 .29 20.92 1.32 22.11 2.37 20.92 1.32 19.74 1.32 19.44 1.58 19.44 2.62 20.63 3.66 19.44 3.91 19.44 3.91 19.74 2.88 20.92 3.91 22.11 4.95 20.92 4.43 20.34 4.17 20.63 3.91 20.63 3.91 20.34 4.17 20.04 4.6 20.04 3.96 19.32 1.29 19.32"/>
  <path class="cls-6" d="M9.56,22.79l.26-.39-.26-.38h-3.2l-1.15-1.29v.49l-1.04,1.18,1.04,1.19v.5l1.15-1.29h3.2Zm-4.09-.09l-.52-.3,.52-.29,.52,.29-.52,.3Z"/>
  <polygon points=".03 24.08 0 24.05 0 24.08 .03 24.11 .03 24.08"/>
  <polygon points="5.21 20.73 6.36 22.02 9.56 22.02 9.82 22.41 9.56 22.79 6.36 22.79 5.21 24.09 5.21 24.11 6.37 22.81 9.58 22.81 9.85 22.41 9.58 21.99 6.37 21.99 5.21 20.7 5.21 20.73"/>
  <polygon points="4.6 24.77 3.96 25.49 1.29 25.49 .64 24.77 .62 24.77 1.28 25.51 3.97 25.51 4.63 24.77 4.6 24.77"/>
  <polygon points=".65 20.04 1.29 19.32 3.96 19.32 4.6 20.04 4.62 20.04 3.97 19.3 1.28 19.3 .62 20.04 .65 20.04"/>
  <polygon points=".03 20.7 0 20.73 0 20.77 .03 20.74 .03 20.7"/>
  <path class="cls-1" d="M.03,20.74v.49l1.04,1.18L.03,23.59v.59l.52,.59h.52l.26-.29v-.29h-.26l-.25,.29-.53-.58,1.04-1.19,1.04,1.19-1.04,1.18v.29h.26l1.04-1.18,1.04,1.18h.26v-.29l-1.03-1.18,1.03-1.19,1.04,1.19-.52,.58-.26-.29h-.26v.29l.26,.29h.52l.52-.59v-.59l-1.04-1.19,1.04-1.18v-.59l-.52-.59h-.52l-.26,.29v.29h.26l.26-.29,.52,.59-1.04,1.19-1.03-1.19,1.03-1.19v-.29h-.26l-1.04,1.19-1.04-1.19h-.26v.29l1.04,1.19-1.04,1.19-1.04-1.19,.53-.59,.25,.29h.26v-.29l-.26-.29H.55L.03,20.63v.11Zm2.59,.49l1.04,1.18-1.04,1.19-1.04-1.19,1.04-1.18Z"/>
  <polygon class="cls-3" points="0 22.24 0 22.57 .29 22.41 0 22.24"/>
  <polygon class="cls-3" points="3.14 22.41 2.62 22.11 2.11 22.41 2.62 22.7 3.14 22.41"/>
  <polygon class="cls-3" points="4.95 22.41 5.47 22.7 5.99 22.41 5.47 22.11 4.95 22.41"/>
  <path class="cls-1" d="M4.17,16.81l-.26,.3-.26-.3-.26,.3-.26-.3-.26,.3-.27-.3-.25,.3-.26-.3-.27,.3-.26-.3-.26,.3-.26-.3v2.28h3.11v-2.28Zm-1.43,2.13h-.24l-.55-.96,.55,.67v-.58l-.27-.44,.38-.44,.39,.44-.27,.44v.58l.54-.67-.54,.96Z"/>
  <path class="cls-1" d="M8.57,19.36l-.26,.29-.26-.29-.26,.29-.26-.29-.26,.29-.26-.29-.26,.29-.26-.29v2.39h2.07v-2.39Zm-.94,2.01h-.19l-.44-.77,.44,.55v-.47l-.22-.35,.31-.35,.31,.35-.21,.35v.47l.44-.55-.44,.77Z"/>
  <path class="cls-3" d="M1.06,17.65l-.25,.29-.27-.29-.26,.29-.15-.18c-.03,.24-.04,.48-.06,.72l.09,.1-.1,.16c-.01,.18-.02,.36-.03,.55l.35-.43-.36,.64c0,.17-.03,.34-.03,.51v.31l1.06-1.22v-1.45Z"/>
  <path class="cls-3" d="M6.5,17.94l-.26-.29-.26,.29-.26-.29-.26,.29-.26-.29-.26,.29-.26-.29-.26,.29-.26-.29v1.45l2.33,2.66v-3.81Zm-1.08,1.7h-.19l-.44-.78,.44,.55v-.47l-.21-.35,.31-.36,.31,.36-.22,.35v.47l.44-.55-.44,.78Z"/>
  <path class="cls-2" d="M.08,18.48c0,.08,0,.17-.01,.26l.1-.16-.09-.1Z"/>
  <path class="cls-2" d="M.04,19.29c0,.07,0,.14-.01,.21l.36-.64-.35,.43Z"/>
  <polygon class="cls-6" points="7.64 20.67 7.84 20.33 7.54 19.97 7.22 20.33 7.44 20.67 7.44 21.15 7 20.6 7.44 21.37 7.64 21.37 8.07 20.6 7.64 21.15 7.64 20.67"/>
  <polygon class="cls-2" points="5.42 18.93 5.64 18.58 5.33 18.23 5.02 18.58 5.23 18.93 5.23 19.4 4.8 18.85 5.23 19.64 5.42 19.64 5.86 18.85 5.42 19.4 5.42 18.93"/>
  <polygon class="cls-6" points="2.74 18.07 3.01 17.64 2.62 17.2 2.23 17.64 2.5 18.07 2.5 18.65 1.96 17.98 2.5 18.94 2.74 18.94 3.28 17.98 2.74 18.65 2.74 18.07"/>
  <path class="cls-1" d="M1.06,25.72v2.28l.26-.3,.26,.3,.26-.3,.27,.3,.26-.3,.25,.3,.27-.3,.26,.3,.26-.3,.26,.3,.26-.3,.26,.3v-2.28H1.06Zm1.68,.43v.58l.27,.44-.39,.43-.38-.43,.27-.44v-.58l-.55,.68,.55-.97h.24l.54,.97-.54-.68Z"/>
  <path class="cls-1" d="M6.5,23.06v2.4l.26-.29,.26,.29,.26-.29,.26,.29,.26-.29,.26,.29,.26-.29,.26,.29v-2.4h-2.07Zm1.13,.61v.47l.21,.35-.31,.35-.31-.35,.22-.35v-.47l-.44,.55,.44-.77h.19l.44,.77-.44-.55Z"/>
  <polygon class="cls-3" points=".29 26.87 .55 27.17 .81 26.87 1.06 27.17 1.06 25.72 0 24.5 0 25.28 .39 25.96 0 25.48 0 25.97 .16 26.23 0 26.41 0 27.14 .03 27.17 .29 26.87"/>
  <path class="cls-3" d="M4.17,25.72v1.45l.26-.3,.26,.3,.26-.3,.26,.3,.26-.3,.26,.3,.26-.3,.26,.3,.26-.3v-3.82l-2.33,2.67Zm1.25-.31v.47l.22,.35-.31,.35-.31-.35,.21-.35v-.47l-.44,.54,.44-.77h.19l.44,.77-.44-.54Z"/>
  <path class="cls-3" d="M10.12,19.98l-.26,.29-.26-.29-.26,.29-.26-.29-.26,.29-.26-.29v1.78h1.04l.52,.65-.52,.65h-1.04v1.78l.26-.29,.26,.29,.26-.29,.26,.29,.26-.29,.26,.29,.26-.29,.25,.28v-4.83l-.25,.28-.26-.29Zm-.46,1.46l-.34-.36,.05-.41,.13,.34,.16-.38,.16,.38,.14-.34,.04,.41-.34,.36Zm.3,2.71l-.14-.34-.16,.37-.16-.37-.13,.34-.05-.42,.34-.35,.34,.35-.04,.42Z"/>
  <polygon class="cls-2" points="0 25.97 0 26.41 .16 26.23 0 25.97"/>
  <polygon class="cls-2" points="0 25.28 0 25.48 .39 25.96 0 25.28"/>
  <polygon class="cls-6" points="7.44 23.44 7 24.21 7.44 23.66 7.44 24.13 7.22 24.48 7.54 24.84 7.84 24.48 7.64 24.13 7.64 23.66 8.07 24.21 7.64 23.44 7.44 23.44"/>
  <polygon class="cls-2" points="5.23 25.18 4.8 25.96 5.23 25.42 5.23 25.88 5.02 26.23 5.33 26.58 5.64 26.23 5.42 25.88 5.42 25.42 5.86 25.96 5.42 25.18 5.23 25.18"/>
  <polygon class="cls-6" points="2.5 25.87 1.96 26.84 2.5 26.16 2.5 26.74 2.23 27.18 2.62 27.61 3.01 27.18 2.74 26.74 2.74 26.16 3.28 26.84 2.74 25.87 2.5 25.87"/>
  <polygon class="cls-2" points="9.33 23.73 9.38 24.15 9.51 23.81 9.67 24.18 9.82 23.81 9.97 24.15 10.01 23.73 9.67 23.37 9.33 23.73"/>
  <polygon class="cls-2" points="9.82 21.01 9.67 20.63 9.51 21.01 9.38 20.67 9.33 21.08 9.67 21.44 10.01 21.08 9.97 20.67 9.82 21.01"/>
  <path class="cls-6" d="M.76,28.3h3.72v-.84h2.41v-1.69h2.13v-.56h1.88v-5.61h-1.88v-.56h-2.13v-1.69h-2.41v-.85H.76v.85H.19c-.01,.09-.03,.17-.04,.26h.85v-.85h3.23v.85h2.4v1.69h2.14v.57h1.87v5.07h0s-1.87,.01-1.87,.01v.56h-2.14v1.69h-2.4v.84H1.01v-.84H0v.26H.76v.84Z"/>
  <path d="M.74,28.32h3.77v-.85h2.41v-1.68h2.14v-.56h1.87v-5.65h-1.87v-.56h-2.14v-1.7h-2.41v-.85H.74v.85H.2s0,.02,0,.03H.76v-.85h3.72v.85h2.41v1.69h2.13v.56h1.88v5.61h-1.88v.56h-2.13v1.69h-2.41v.84H.76v-.84H0v.02H.74v.85Z"/>
  <path d="M1.01,28.04h3.23v-.84h2.4v-1.69h2.14v-.56h1.87v-5.09h-1.87v-.57h-2.14v-1.69h-2.4v-.85H1.01v.85H.16s0,.02,0,.02h.88v-.85h3.18v.85h2.41v1.69h2.13v.56h1.88v5.04h-1.88v.56h-2.13v1.69h-2.41v.85H1.03v-.85H0v.02H1.01v.84Z"/>
  <path class="cls-6" d="M6.92,10.66h1.99l1-1.13v-1.14l.99-1.52V3.82l-.78-1.2c-.14,.08-.27,.17-.41,.25l.86,1.33v2.28l-.99,1.53v1.14l-.99,1.15h-1.99l-1.65,1.14h-1.71l.71-.76h1.13l.61-.37-.3-.38-.62,.38h-.61l-.48-.89-.75,.51v.38h.31v-.38h.31v.38l-.93,1.14-.42-.52c-.08,.16-.15,.32-.23,.48l.04,.04h-.06c-.06,.13-.12,.25-.18,.38h3.5l1.66-1.15Z"/>
  <path d="M6.93,10.68h1.99l1-1.14v-1.15l.99-1.52V3.82l-.78-1.2s-.01,0-.02,.01l.78,1.2v3.04l-.99,1.52v1.14l-1,1.13h-1.99l-1.66,1.15H1.77s0,.01,0,.02h3.52l1.66-1.15Z"/>
  <path class="cls-1" d="M1.97,11.39s-.01,.03-.02,.04h.06l-.04-.04Z"/>
  <polygon class="cls-1" points="2.62 10.67 2.31 10.67 2.31 10.67 2.62 11.05 2.62 10.67"/>
  <polygon class="cls-1" points="9.07 5.34 9.68 5.34 9.38 4.96 9.07 5.34"/>
  <polygon class="cls-1" points="9.07 4.58 8.76 4.2 8.94 3.98 8.62 3.98 7.96 4.51 8.45 4.96 8.45 4.58 9.07 4.58"/>
  <path class="cls-1" d="M9.1,3.65l.12,.16h.16l.91,1.52h.29v-1.14l-.86-1.33c-.05,.03-.1,.06-.16,.09l.03,.04-.48,.65Z"/>
  <polygon class="cls-2" points="2.62 10.67 2.62 11.05 2.93 10.67 2.62 10.67"/>
  <polygon class="cls-2" points="9.38 5.72 9.68 5.34 9.07 5.34 9.38 5.72"/>
  <polygon class="cls-2" points="8.94 6.7 8.76 6.48 9.07 6.1 8.45 6.1 8.45 5.72 7.96 6.17 8.62 6.7 8.94 6.7"/>
  <polygon class="cls-2" points="9.38 6.86 9.22 6.86 9.1 7.03 9.58 7.68 9.34 8.01 8.62 7.68 8.38 8.01 8.27 7.13 7.53 6.57 7.52 6.58 7.52 7.87 7.96 8.22 8.68 8.22 8.44 8.55 8.92 9.21 8.68 9.53 7.96 9.21 7.72 9.53 7.6 8.66 7.05 8.23 5.69 8.23 6.63 8.99 7.35 8.99 7.11 9.31 7.59 9.96 7.35 10.3 8.59 10.3 9.58 9.15 9.58 8.01 10.58 6.48 10.58 5.34 10.29 5.34 9.38 6.86"/>
  <polygon class="cls-2" points="6.38 10.3 6.28 9.42 5.05 8.47 3.68 9.4 4.16 10.3 4.77 10.3 5.39 9.91 5.69 10.3 5.08 10.67 3.94 10.67 3.23 11.44 4.94 11.44 6.6 10.3 7.35 10.3 6.63 9.96 6.38 10.3"/>
  <path class="cls-2" d="M2.62,10.3v-.16c-.1,.18-.21,.36-.3,.54h.3v-.37Z"/>
  <path class="cls-2" d="M2.62,11.05l-.3-.38c-.04,.08-.08,.16-.12,.24l.42,.52v-.38Z"/>
  <path class="cls-6" d="M8.62,3.98h.32l-.18,.22,.31,.37h-.62v.38h.62l.31-.38-.31-.37h.31l.61,1.14-.61,1.14h-.31l.31-.37-.31-.38h-.62v.38h.62l-.31,.37,.18,.22h-.32l-.66-.53-.43,.39,.74,.56,.11,.88,.24-.33,.72,.33,.24-.33-.48-.65,.12-.17h.16l.91-1.52-.91-1.52h-.16l-.12-.16,.48-.65-.03-.04c-.65,.4-1.27,.83-1.87,1.29l.27,.25,.66-.53Z"/>
  <path class="cls-2" d="M8.59,5.34h.48l.31-.38,.3,.38h.31l-.61-1.14h-.31l.31,.37-.31,.38h-.62l-.49-.45-.27-.25c-.06,.05-.13,.09-.19,.14l1.09,.94Z"/>
  <path class="cls-3" d="M7.5,4.4c-.37,.3-.72,.61-1.07,.94h2.16l-1.09-.94Z"/>
  <polygon class="cls-6" points="7.11 9.31 7.35 8.99 6.63 8.99 5.69 8.23 5.42 8.23 5.05 8.47 6.28 9.42 6.38 10.3 6.63 9.96 7.35 10.3 7.59 9.96 7.11 9.31"/>
  <polygon class="cls-6" points="7.72 9.53 7.96 9.21 8.68 9.53 8.92 9.21 8.44 8.55 8.68 8.22 7.96 8.22 7.52 7.87 7.52 8.23 7.05 8.23 7.6 8.66 7.72 9.53"/>
  <path class="cls-1" d="M2.62,10.67h.31l-.31,.38v.38l.93-1.14v-.38h-.31v.38h-.31v-.38l.75-.51,1.37-.93,.36-.25h2.1v-1.65h.01s.43-.41,.43-.41l.49-.45h.62l.31,.38-.31,.37h.31l.61-1.14h-.31l-.3,.38-.31-.38h-.48l-1.33,1.14v1.53h-1.99l-2.42,1.73c-.08,.13-.16,.26-.24,.39v.54Z"/>
  <path class="cls-6" d="M5.6,6.86l.66,.76-.33,.38h1.32v-1.53l1.33-1.14h-2.16c-.39,.36-.77,.74-1.14,1.14h.64l-.33,.38Z"/>
  <path class="cls-6" d="M5.28,8.01h.66l-.99-.38-.33,.38-.1-.65c-.61,.75-1.16,1.55-1.66,2.39l2.42-1.73Z"/>
  <path class="cls-3" d="M4.94,7.62l.99,.38,.33-.38-.66-.76,.33-.38h-.64c-.26,.29-.53,.57-.78,.87l.1,.65,.33-.38Z"/>
  <path class="cls-2" d="M35.56,26.84c5.99,0,10.84-4.86,10.84-10.84,0-4.67-2.93-8.64-7.06-10.17,2.53,1.96,4.15,5.03,4.15,8.48,0,5.92-4.8,10.72-10.72,10.72-1.58,0-3.09-.34-4.44-.95,1.91,1.71,4.44,2.75,7.22,2.75Z"/>
  <polygon class="cls-2" points="34.53 9.92 35.03 11.36 35.48 9.9 37 9.87 35.75 9.01 36.2 7.55 34.98 8.47 33.74 7.6 34.24 9.03 33.01 9.95 34.53 9.92"/>
  <polygon class="cls-2" points="29.06 7.16 29.55 8.6 29.99 7.14 31.51 7.12 30.27 6.24 30.71 4.79 29.5 5.7 28.25 4.82 28.75 6.28 27.53 7.18 29.06 7.16"/>
  <polygon class="cls-2" points="23.59 15.39 24.08 16.83 24.53 15.37 26.05 15.34 24.8 14.47 25.25 13.02 24.03 13.93 22.78 13.06 23.28 14.5 22.07 15.43 23.59 15.39"/>
  <polygon class="cls-2" points="29.55 14.12 29.99 12.67 31.51 12.64 30.27 11.76 30.71 10.3 29.5 11.23 28.25 10.35 28.75 11.8 27.53 12.7 29.06 12.68 29.55 14.12"/>
  <polygon class="cls-2" points="29.55 19.65 29.99 18.2 31.51 18.17 30.27 17.3 30.71 15.84 29.5 16.75 28.25 15.88 28.75 17.32 27.53 18.24 29.06 18.22 29.55 19.65"/>
</svg>