<?xml version="1.0" encoding="UTF-8"?>
<svg id="Layer_1" data-name="Layer 1" xmlns="http://www.w3.org/2000/svg" viewBox="0 0 80 80">
  <defs>
    <style>
      .cls-1 {
        fill: #273376;
      }

      .cls-2 {
        fill: #fff;
      }

      .cls-3 {
        fill: #5d96b0;
      }

      .cls-4 {
        fill: #ce202c;
      }

      .cls-5 {
        fill: #fdce07;
      }
    </style>
  </defs>
  <path class="cls-3" d="M60,0h-20V40H0v20c0,11.05,8.95,20,20,20h22.89l1.27-3.92-3.51-2.55h4.34l1.33-4.12,1.35,4.12h4.33l-3.5,2.55,1.28,3.92h10.22c8.82,0,16.29-5.72,18.95-13.65l-3.16,.59-.56,4.31-2.08-3.81-4.26,.8,2.98-3.15-2.08-3.81,3.92,1.86,2.97-3.15-.55,4.29,3.02,1.44c.54-1.81,.84-3.73,.84-5.72v-9.01l-.79-.57h.79V24.19h0s0,0,0,0v-4.19c0-11.05-8.95-20-20-20Zm-4.67,48.51l4.01,1.67,2.83-3.29-.36,4.32,4.01,1.66-4.22,1.01-.35,4.32-2.26-3.7-4.22,1.01,2.82-3.29-2.26-3.7Zm6.41,22.87l-.61,4.29-2.03-3.84-4.27,.74,3.02-3.11-2.02-3.84,3.89,1.91,3.02-3.11-.61,4.29,3.88,1.91-4.27,.74Zm17.98-43.53l-4.31,.47-.9,4.24-1.78-3.96-4.3,.46,3.21-2.91-1.77-3.96,3.75,2.17,3.22-2.91-.9,4.24,3.76,2.17Z"/>
  <polygon class="cls-3" points="43.11 80 49.57 80 46.33 77.66 43.11 80"/>
  <polygon class="cls-1" points="40 34.97 40 24.7 24.59 24.7 40 34.97"/>
  <polygon class="cls-1" points="13.77 40 32.42 40 13.77 27.57 13.77 40"/>
  <path class="cls-1" d="M26.88,0h-6.88c-2.18,0-4.27,.36-6.23,1v7.74L26.88,0Z"/>
  <polygon class="cls-1" points="40 11.57 40 1.34 24.64 11.57 40 11.57"/>
  <polygon class="cls-1" points=".65 27.57 0 28 0 40 .65 40 .65 27.57"/>
  <polygon class="cls-2" points=".65 40 3.38 40 3.38 21.96 0 21.96 0 24.7 .65 24.7 .65 25.88 0 26.31 0 28 .65 27.57 .65 40"/>
  <path class="cls-2" d="M3.38,8.88c-1.11,1.65-1.97,3.48-2.55,5.43H3.38v-5.43Z"/>
  <polygon class="cls-2" points="11.03 21.96 11.03 40 13.77 40 13.77 27.57 32.42 40 40 40 40 39.87 17.18 24.7 22.37 24.7 40 36.42 40 34.97 24.59 24.7 40 24.7 40 21.96 11.03 21.96"/>
  <path class="cls-2" d="M11.03,14.31h28.97v-2.74h-15.36L40,1.34V0h-5.6L17,11.57h-3.23v-1.3L29.21,0h-2.33L13.77,8.74V1c-.95,.31-1.86,.7-2.74,1.14V14.31Z"/>
  <path class="cls-4" d="M3.38,40h7.65V21.96h28.97v-7.65H11.03V2.14c-3.09,1.56-5.73,3.88-7.65,6.74v5.43H.83c-.54,1.8-.83,3.71-.83,5.69v1.96H3.38v18.04Z"/>
  <polygon class="cls-4" points="17.18 24.7 40 39.87 40 36.42 22.37 24.7 17.18 24.7"/>
  <polygon class="cls-4" points="13.77 11.57 17 11.57 34.4 0 29.21 0 13.77 10.27 13.77 11.57"/>
  <polygon class="cls-4" points=".65 24.7 0 24.7 0 26.31 .65 25.88 .65 24.7"/>
  <polygon class="cls-5" points="52.01 73.53 47.68 73.53 46.33 69.41 45 73.53 40.66 73.53 44.17 76.08 42.89 80 43.11 80 46.33 77.66 49.57 80 49.78 80 48.51 76.08 52.01 73.53"/>
  <polygon class="cls-5" points="62.74 64.43 59.72 67.54 55.83 65.63 57.85 69.47 54.83 72.57 59.1 71.83 61.13 75.67 61.74 71.38 66.01 70.64 62.13 68.72 62.74 64.43"/>
  <polygon class="cls-5" points="59 54.49 61.26 58.2 61.6 53.88 65.82 52.87 61.81 51.2 62.17 46.88 59.34 50.17 55.33 48.51 57.6 52.21 54.78 55.5 59 54.49"/>
  <polygon class="cls-5" points="73.63 24.35 69.88 22.19 71.64 26.14 68.43 29.05 72.73 28.59 74.51 32.55 75.41 28.31 79.72 27.85 75.96 25.68 76.85 21.44 73.63 24.35"/>
  <polygon class="cls-5" points="80 24.19 80 24.19 79.99 24.2 80 24.19"/>
  <polygon class="cls-5" points="80 50.99 80 50.42 79.21 50.42 80 50.99"/>
  <path class="cls-5" d="M76.69,59.99l-2.97,3.15-3.92-1.86,2.08,3.81-2.98,3.15,4.26-.8,2.08,3.81,.56-4.31,3.16-.59c.07-.21,.14-.42,.21-.63l-3.02-1.44,.55-4.29Z"/>
</svg>