<?xml version="1.0" encoding="UTF-8"?>
<svg id="Layer_1" data-name="Layer 1" xmlns="http://www.w3.org/2000/svg" viewBox="0 0 80 80">
  <defs>
    <style>
      .cls-1 {
        fill: #fff;
      }

      .cls-2 {
        fill: #e31f26;
      }
    </style>
  </defs>
  <path class="cls-2" d="M60,80c11.05,0,20-8.95,20-20V20c0-11.05-8.95-20-20-20H20C8.95,0,0,8.95,0,20V60c0,11.05,8.95,20,20,20H60Zm-10.23-42.21l.16-7.17,4.08,5.89,6.87-2.07-4.34,5.7,4.08,5.9-6.76-2.37-4.34,5.7,.16-7.17-6.76-2.37,6.87-2.05ZM1.4,40c0-12.08,9.8-21.88,21.88-21.88,7.42,0,13.98,3.7,17.93,9.36-3.19-3.19-7.6-5.15-12.46-5.15-9.76,0-17.67,7.91-17.67,17.66s7.91,17.67,17.67,17.67c4.87,0,9.27-1.97,12.46-5.15-3.95,5.65-10.51,9.35-17.93,9.35-12.08,0-21.88-9.79-21.88-21.88Z"/>
  <path class="cls-1" d="M41.21,52.52c-3.19,3.18-7.6,5.15-12.46,5.15-9.76,0-17.67-7.91-17.67-17.67s7.91-17.66,17.67-17.66c4.87,0,9.27,1.97,12.46,5.15-3.95-5.66-10.51-9.36-17.93-9.36C11.2,18.12,1.4,27.92,1.4,40s9.8,21.88,21.88,21.88c7.42,0,13.98-3.7,17.93-9.35Z"/>
  <polygon class="cls-1" points="49.51 49.38 53.85 43.68 60.61 46.05 56.53 40.15 60.88 34.45 54.01 36.51 49.93 30.62 49.77 37.79 42.9 39.84 49.66 42.21 49.51 49.38"/>
</svg>