<?xml version="1.0" encoding="UTF-8"?>
<svg id="Layer_1" data-name="Layer 1" xmlns="http://www.w3.org/2000/svg" viewBox="0 0 80 80">
  <defs>
    <style>
      .cls-1 {
        fill: #dc3d26;
      }

      .cls-2 {
        fill: #9ba59c;
      }

      .cls-3 {
        fill: #fff;
      }

      .cls-4 {
        fill: #fce400;
      }

      .cls-5 {
        fill: #db3726;
      }

      .cls-6 {
        fill: #fde600;
      }

      .cls-7 {
        fill: #231f20;
      }
    </style>
  </defs>
  <path d="M80,40h-26.42c0,7.5-6.08,13.59-13.59,13.59s-13.58-6.09-13.58-13.59H0v14.57H80v-14.57Z"/>
  <path class="cls-6" d="M80,60v-5.43H0v5.43c0,3.3,.81,6.41,2.23,9.15H77.77c1.42-2.74,2.23-5.85,2.23-9.15Z"/>
  <path class="cls-1" d="M20,80H60c7.74,0,14.45-4.41,17.77-10.85H2.23c3.32,6.44,10.03,10.85,17.77,10.85Z"/>
  <path d="M60,0H20C12.26,0,5.55,4.41,2.23,10.85H77.77c-3.32-6.44-10.03-10.85-17.77-10.85Z"/>
  <path class="cls-6" d="M80,20c0-3.3-.81-6.41-2.23-9.15H2.23C.81,13.59,0,16.7,0,20v5.43H80v-5.43Z"/>
  <path class="cls-1" d="M40,26.42c7.51,0,13.59,6.08,13.59,13.58h26.42v-14.57H0v14.57H26.42c0-7.5,6.08-13.58,13.58-13.58Z"/>
  <path class="cls-3" d="M40,26.53c-7.43,.01-13.46,6.03-13.48,13.47,.01,7.45,6.04,13.46,13.48,13.48,7.45-.02,13.47-6.03,13.48-13.48-.01-7.44-6.03-13.46-13.48-13.47Zm7.73,20.02l-1.43,1.41-.85,.28,.04-.18,.46-.66-.44,.17-.19-.12,.17-.3-.84,.3-.17-.02-.03-.1,.29-.32-.3-.18v-.07s1.16-1.06,1.16-1.06l.29-1.55-.29,.45c-.04,.08-.1,.16-.15,.23l-.35,.54-.1-.09,.2-.73-.12,.02-.38-.71-1.26-.22-.9-.02-.21,.12,.1,.55,.62,1.15,.26,.41-.2,.73-.3,.14-1.2-.09-.76,.06-.09,.38,.02,1.29c.05,.72,.12,1.43,.22,2.15l1.5,.26,.66,.62c-.72-.1-1.46-.11-2.17,.02-.72,.13-1.39,.38-1.99,.76l-.95,.77-.09-.55,.68-1c-.61-.09-1.23-.08-1.85-.04l.65-.56c.63-.23,1.31-.29,1.98-.31l.72,.05c.01-.75-.09-1.5-.14-2.25l-.18-1.56c-.68,0-1.35-.03-2.03-.1l-.78,.13-.6,1.04-.17,.36-.24-.14-.21-.88-.19,.66-.03,.85-.47-1.07-.54,1.23-.02-1.69,.62-.91,1.18-.35c.85-.09,1.72-.04,2.58-.02l.95,.08,.05-.74-.09-1.38-1.06-1.02c-.61-.19-1.14-.56-1.62-.98l-.75-.75-.18,.07-1.04-1.57c-.25-.63-.32-1.31-.23-1.98,.11-.81,.44-1.58,.85-2.28,.41-.66,.91-1.27,1.45-1.82l-.41-.45,.44-.92-1.33,.16-.57-.05,1.37-.3,.57-.07,.03-.14h-.31s-1.72,.38-1.72,.38v.12s-.02-.22-.02-.22l.39-.29,1.58-.56,.02-1.14,.26-.42-.88-1.62c.48-.5,1.2-.66,1.87-.66,.69-.02,1.41,.09,2.03,.39l.99,.81,.76,1.28,.07,.49-1.37,.32c.04,.62-.21,1.22-.57,1.7l-.67,.69-.59,1.49c-.1,.76-.06,1.53,.07,2.29l1.07,.3c1.41,.68,2.81,1.4,4.25,2.03l.58,.21,.18,.22c.74,.28,1.46,.64,2.07,1.14l1.11,1.44,.3,1.47c0,1.1-.42,2.15-1.04,3.03Z"/>
  <path class="cls-7" d="M40,26.42c-7.5,0-13.58,6.08-13.58,13.58s6.08,13.59,13.58,13.59,13.59-6.09,13.59-13.59-6.08-13.58-13.59-13.58Zm0,27.06c-7.43-.02-13.46-6.03-13.48-13.48,.01-7.44,6.04-13.46,13.48-13.47,7.45,.01,13.47,6.03,13.48,13.47-.01,7.45-6.03,13.46-13.48,13.48Z"/>
  <path d="M47.36,40.6c-.61-.5-1.33-.87-2.07-1.14l-.18-.22-.58-.21c-1.44-.63-2.84-1.34-4.25-2.03l-1.07-.3c-.13-.76-.17-1.53-.07-2.29l.59-1.49,.67-.69c.36-.48,.61-1.08,.57-1.7l1.37-.32-.07-.49-.76-1.28-.99-.81c-.63-.3-1.34-.42-2.03-.39-.67,0-1.4,.16-1.87,.66l.88,1.62-.26,.42-.02,1.14-1.58,.56-.39,.29v.22s.02-.12,.02-.12l1.72-.36h.31s-.03,.12-.03,.12l-.57,.07-1.37,.3,.57,.05,1.33-.16-.44,.92,.41,.45c-.54,.56-1.04,1.16-1.45,1.82-.41,.7-.75,1.47-.85,2.28-.09,.67-.02,1.34,.23,1.98l1.04,1.57,.18-.07,.75,.75c.48,.42,1.01,.79,1.62,.98l1.06,1.02,.09,1.38-.05,.74-.95-.08c-.86-.02-1.73-.07-2.58,.02l-1.18,.35-.62,.91,.02,1.69,.54-1.23,.47,1.07,.03-.85,.19-.66,.21,.88,.24,.14,.17-.36,.6-1.04,.78-.13c.67,.07,1.35,.11,2.03,.1l.18,1.56c.05,.75,.15,1.5,.14,2.25l-.72-.05c-.66,.01-1.35,.08-1.98,.31l-.65,.56c.62-.04,1.24-.05,1.85,.04l-.68,1,.09,.55,.95-.77c.61-.38,1.28-.62,1.99-.76,.71-.13,1.45-.12,2.17-.02l-.66-.62-1.5-.26c-.1-.72-.17-1.43-.22-2.15l-.02-1.29,.09-.38,.76-.06,1.2,.09,.3-.14,.2-.73-.26-.41-.62-1.15-.1-.55,.21-.12,.9,.02,1.26,.22,.38,.71,.12-.02-.2,.73,.1,.09,.35-.54c-.05,.07-.09,.14-.16,.2l.05-.68-.77-1.52c-.59-.67-1.28-1.23-2.04-1.72l.95,.08-.39-.5,.09-.08,1.29,.35-.59-.89,.17,.05,1.52,.71,.06-.16-.85-.95-.44-.41,.78,.24c.69,.23,1.36,.56,1.96,1,.56,.42,1.04,.95,1.3,1.59l.29,1.35c-.01,1.21-.52,2.38-1.29,3.31l-1.22,1.07-.48,.19,.85-1.08v-.09s-.14,0-.14,0l-.9,.52,.39-.48v-.09s-.43,.13-.43,.13l-.78,.29,.24-.22,.02-.16-.23-.05v-.07c.54-.31,.99-.8,1.2-1.4,.24-.66,.19-1.4-.01-2.07h-.15c.09,.43,.05,.89-.14,1.28l.29-.45-.29,1.55-1.17,1.06v.07s.31,.18,.31,.18l-.29,.32,.03,.1,.17,.02,.84-.3-.17,.3,.19,.12,.44-.17-.46,.66-.04,.18,.85-.28,1.43-1.41c.62-.89,1.04-1.94,1.04-3.03l-.3-1.47-1.11-1.44Zm-7.38-8.95l-.75,.57-.49-.07-.04-.45,.7-.54,.18-1.42,.62,.64-.21,1.26Zm2.21-1.55l-1.28,.29-.36-.67,.78-1.21c.44,.41,.79,.97,.86,1.59Zm-3.59-2.7h.56c.75,.1,1.52,.37,2.04,.92l-.02,.16-.75,1.12-1.59-.63-.33,.02,.09-1.59Zm-.12,3.56l-.41,.21,.02-.47,.39,.27Zm-1.7-3.02l1.67-.54-.04,.82-.04,.81-.73,.38h-.08s-.78-1.46-.78-1.46Zm.17,4.86l.45-.7,.21,.09,.43,.49-.19,.36-.58,.23-.31-.48Zm-.51,3.79c.18-.72,.48-1.41,.86-2.03,.35-.59,.75-1.16,1.2-1.68l.13,.07c-.24,.88-.67,1.72-.76,2.64-.07,.66,.11,1.33,.45,1.89l-.57-.04,.2,.58-.59-.06,.25,.5-.46-.12,.1,.56-.1,.05-.3-.2-.1,.67-.29-.68c-.22-.69-.19-1.44-.01-2.14Zm3.62,5.54l-.67,.22-.02-1.78,1.11,1.25,.39,.32-.08,.11-.73-.12Zm1.7,3.89l-.32,.09-.73-.06c-.02-.64-.05-1.28-.05-1.92l1.13,1.36-.03,.53Zm2.74-6.35l.78,.87-1.6-.72-.39-.05,.68,.66,.18,.28-1.56-.37v.16s.63,.49,.63,.49l-.76-.04-1.06-.95-.42-.21-.73-.44-.26-.75,.28-.32,.69,.05,1.68,.76c.63,.21,1.24,.39,1.87,.59Zm-.66-.64l.39,.4-1.37-.42-.73-.29-1-.47-.83-.13-.46,.43,.43,.98,.95,.51,1.1,.97v.1l1.06,.79c.58,.47,1.13,.99,1.51,1.64l.19,.67-.24-.38c-.61-1.01-1.48-1.87-2.54-2.39l-1.17-.42c-.6-.15-1.18-.44-1.59-.91-.52-.59-.75-1.39-.73-2.16l.15-.75,.18-.31,.4-.04,.76,.32c1.47,.71,2.93,1.46,4.43,2.09l-.89-.24Z"/>
  <polygon class="cls-5" points="37.65 29.4 38.38 29.02 38.42 28.21 38.46 27.4 36.79 27.94 37.57 29.39 37.65 29.4"/>
  <path class="cls-4" d="M40.44,29.6l.75-1.12,.02-.16c-.52-.56-1.29-.82-2.04-.91h-.56s-.09,1.58-.09,1.58l.33-.02,1.59,.63Z"/>
  <path class="cls-5" d="M40.92,30.39l1.28-.29c-.07-.61-.42-1.18-.86-1.59l-.78,1.21,.36,.67Z"/>
  <polygon class="cls-2" points="39.4 31.17 38.7 31.71 38.74 32.16 39.23 32.23 39.99 31.65 40.2 30.39 39.58 29.75 39.4 31.17"/>
  <polygon class="cls-3" points="38.08 31.17 38.49 30.96 38.1 30.7 38.08 31.17"/>
  <polygon class="cls-5" points="37.85 33.05 38.05 32.69 37.62 32.19 37.41 32.1 36.96 32.8 37.27 33.28 37.85 33.05"/>
  <path class="cls-2" d="M36.75,39.41l.1-.67,.3,.2,.1-.05-.1-.56,.46,.12-.25-.5,.59,.06-.2-.58,.57,.04c-.34-.56-.52-1.24-.45-1.89,.09-.92,.51-1.76,.76-2.64l-.13-.07c-.45,.52-.85,1.09-1.2,1.68-.37,.63-.68,1.32-.86,2.03-.17,.7-.21,1.45,.01,2.14l.29,.68Z"/>
  <path class="cls-2" d="M39.55,36.85l-.4,.04-.18,.31-.15,.75c-.02,.77,.21,1.56,.73,2.16,.41,.47,.99,.76,1.59,.91l1.17,.42c1.06,.52,1.93,1.38,2.54,2.39l.24,.38-.19-.67c-.38-.65-.93-1.17-1.51-1.64l-1.06-.79v-.1l-1.1-.97-.95-.51-.43-.98,.46-.43,.83,.13,1,.47,.73,.29,1.37,.42-.39-.4,.89,.24c-1.51-.63-2.97-1.39-4.43-2.09l-.76-.32Z"/>
  <path class="cls-3" d="M40.96,38.33l-.69-.05-.28,.32,.26,.75,.73,.44,.42,.21,1.06,.95,.76,.04-.64-.49v-.16s1.57,.37,1.57,.37l-.18-.28-.68-.66,.39,.05,1.6,.72-.78-.87c-.62-.2-1.24-.38-1.87-.59l-1.68-.76Z"/>
  <path class="cls-5" d="M45.73,43.3h.15c.2,.67,.26,1.41,.01,2.07-.21,.6-.66,1.09-1.2,1.4v.07l.23,.05-.02,.16-.24,.22,.78-.29,.41-.13v.09s-.38,.48-.38,.48l.9-.52h.13s0,.08,0,.08l-.85,1.08,.48-.19,1.22-1.07c.76-.93,1.27-2.1,1.29-3.31l-.29-1.35c-.27-.63-.75-1.17-1.3-1.59-.6-.44-1.27-.76-1.96-1l-.78-.24,.44,.41,.85,.95-.06,.16-1.52-.71-.17-.05,.59,.89-1.29-.35-.09,.08,.39,.5-.95-.08c.75,.48,1.45,1.04,2.04,1.72l.77,1.52-.05,.68c.06-.06,.11-.14,.16-.2,.06-.08,.11-.15,.15-.23,.19-.39,.23-.85,.14-1.28Z"/>
  <polygon class="cls-2" points="40.87 42.14 40.48 41.82 39.37 40.57 39.39 42.35 40.06 42.13 40.79 42.25 40.87 42.14"/>
  <path class="cls-3" d="M40.71,46.05l.73,.06,.32-.09,.03-.53-1.13-1.36c0,.64,.03,1.28,.05,1.92Z"/>
</svg>