<?xml version="1.0" encoding="UTF-8"?>
<svg id="Layer_1" data-name="Layer 1" xmlns="http://www.w3.org/2000/svg" viewBox="0 0 80 80">
  <defs>
    <style>
      .cls-1 {
        fill: #fff;
      }

      .cls-2 {
        fill: #212f64;
      }

      .cls-3 {
        fill: #bf2033;
      }
    </style>
  </defs>
  <path class="cls-1" d="M0,60c0,1.21,.13,2.39,.33,3.54H79.67c.21-1.15,.33-2.33,.33-3.54v-3.18H0v3.18Z"/>
  <rect class="cls-3" y="50.09" width="80" height="6.73"/>
  <path class="cls-1" d="M9.5,77h61c2.72-1.68,4.99-3.99,6.64-6.73H2.86c1.65,2.74,3.92,5.05,6.64,6.73Z"/>
  <path class="cls-3" d="M20,80H60c3.86,0,7.45-1.11,10.5-3H9.5c3.05,1.89,6.64,3,10.5,3Z"/>
  <path class="cls-3" d="M2.86,70.27H77.14c1.22-2.04,2.1-4.3,2.53-6.73H.33c.43,2.42,1.31,4.69,2.53,6.73Z"/>
  <polygon class="cls-1" points="26.88 43.42 0 43.42 0 50.09 80 50.09 80 43.36 26.88 43.36 26.88 43.42"/>
  <rect class="cls-3" x="26.88" y="23.18" width="53.12" height="6.72"/>
  <path class="cls-1" d="M26.88,9.72h50.25c-1.65-2.74-3.93-5.05-6.65-6.73H26.88v6.73Z"/>
  <path class="cls-3" d="M26.88,16.45h52.78c-.44-2.42-1.31-4.69-2.53-6.73H26.88v6.73Z"/>
  <rect class="cls-3" x="26.88" y="36.63" width="53.12" height="6.73"/>
  <path class="cls-3" d="M26.88,0V2.99h43.6c-3.05-1.88-6.63-2.99-10.48-2.99H26.88Z"/>
  <path class="cls-1" d="M26.88,23.18h53.12v-3.18c0-1.21-.13-2.4-.33-3.55H26.88v6.73Z"/>
  <rect class="cls-1" x="26.88" y="29.9" width="53.12" height="6.73"/>
  <path class="cls-2" d="M26.88,43.36V0h-2.87l-.82,.6,.36,1.12-.95-.69-.95,.69,.36-1.12-.82-.6h-1.2c-1.92,0-3.77,.29-5.53,.79l.3,.92-.95-.69-.95,.69,.14-.43C7.26,3.43,2.76,8.13,.91,14.01l.18,.55h1.18l-.95,.69,.37,1.12-.95-.69-.31,.22c-.27,1.32-.42,2.69-.42,4.09v4.47H.28l.36-1.12,.36,1.12h1.18l-.95,.69,.37,1.12-.95-.69-.64,.47v8.22H.19l.36-1.12,.36,1.12h1.18l-.95,.68,.36,1.12-.95-.69-.56,.4v7.63H26.88v-.06Zm-20.9-2.47l-.95-.69-.95,.69,.36-1.11-.95-.69h1.18l.36-1.12,.36,1.12h1.18l-.95,.69,.36,1.11Zm-.36-10.68l.36,1.12-.95-.69-.95,.69,.36-1.12-.95-.68h1.18l.36-1.12,.36,1.12h1.18l-.95,.68Zm0-10.01l.36,1.11-.95-.69-.95,.69,.36-1.11-.95-.7h1.18l.36-1.11,.36,1.11h1.18l-.95,.7Zm0-9.8l.36,1.11-.95-.68-.95,.68,.36-1.11-.95-.7h1.18l.36-1.11,.36,1.11h1.18l-.95,.7Zm4.67,26.03l-.95-.69-.95,.69,.36-1.12-.95-.69h1.18l.36-1.12,.36,1.12h1.17l-.95,.69,.36,1.12Zm-.28-10.91l.36,1.11-.95-.69-.95,.69,.36-1.11-.95-.69h1.17l.37-1.11,.36,1.11h1.18l-.95,.69Zm.09-9.91l.36,1.12-.95-.69-.95,.69,.36-1.12-.95-.69h1.17l.36-1.12,.36,1.12h1.18l-.95,.69Zm0-10.11l.36,1.12-.95-.69-.95,.69,.36-1.12-.95-.68h1.17l.36-1.12,.36,1.12h1.18l-.95,.68Zm4.67,35.4l-.95-.69-.95,.69,.37-1.11-.95-.69h1.17l.36-1.12,.36,1.12h1.17l-.95,.69,.37,1.11Zm-.37-10.68l.37,1.12-.95-.69-.95,.69,.37-1.12-.95-.68h1.17l.36-1.12,.36,1.12h1.17l-.95,.68Zm0-10.01l.37,1.11-.95-.69-.95,.69,.37-1.11-.95-.7h1.17l.36-1.11,.36,1.11h1.17l-.95,.7Zm0-9.8l.37,1.11-.95-.68-.95,.68,.37-1.11-.95-.7h1.17l.36-1.11,.36,1.11h1.17l-.95,.7Zm4.67,26.03l-.95-.69-.95,.69,.36-1.12-.95-.69h1.18l.36-1.12,.36,1.12h1.18l-.95,.69,.37,1.12Zm-.28-10.91l.36,1.11-.95-.69-.95,.69,.36-1.11-.95-.69h1.18l.36-1.11,.36,1.11h1.18l-.95,.69Zm.09-9.91l.36,1.12-.95-.69-.95,.69,.37-1.12-.95-.69h1.17l.36-1.12,.36,1.12h1.18l-.95,.69Zm0-10.11l.36,1.12-.95-.69-.95,.69,.37-1.12-.95-.68h1.17l.36-1.12,.36,1.12h1.18l-.95,.68Zm4.67,35.4l-.95-.69-.95,.69,.36-1.11-.95-.69h1.17l.37-1.12,.36,1.12h1.18l-.95,.69,.36,1.11Zm-.36-10.68l.36,1.12-.95-.69-.95,.69,.36-1.12-.95-.68h1.17l.37-1.12,.36,1.12h1.18l-.95,.68Zm0-10.01l.36,1.11-.95-.69-.95,.69,.36-1.11-.95-.7h1.17l.37-1.11,.36,1.11h1.18l-.95,.7Zm0-9.8l.36,1.11-.95-.68-.95,.68,.36-1.11-.95-.7h1.17l.37-1.11,.36,1.11h1.18l-.95,.7Z"/>
  <polygon class="cls-2" points="0 25.12 0 25.34 .06 25.16 0 25.12"/>
  <path class="cls-1" d="M13.82,1.02l.95,.69-.3-.92c-.5,.14-.98,.31-1.46,.49l-.14,.43,.95-.69Z"/>
  <polygon class="cls-1" points="13.82 8.59 13.46 9.7 12.28 9.7 13.23 10.39 12.87 11.51 13.82 10.82 14.77 11.51 14.4 10.39 15.35 9.7 14.18 9.7 13.82 8.59"/>
  <polygon class="cls-1" points="13.82 18.39 13.46 19.5 12.28 19.5 13.23 20.19 12.87 21.31 13.82 20.62 14.77 21.31 14.4 20.19 15.35 19.5 14.18 19.5 13.82 18.39"/>
  <polygon class="cls-1" points="13.82 28.4 13.46 29.53 12.28 29.53 13.23 30.21 12.87 31.33 13.82 30.64 14.77 31.33 14.4 30.21 15.35 29.53 14.18 29.53 13.82 28.4"/>
  <polygon class="cls-1" points="14.18 39.09 13.82 37.98 13.46 39.09 12.28 39.09 13.23 39.78 12.87 40.89 13.82 40.2 14.77 40.89 14.4 39.78 15.35 39.09 14.18 39.09"/>
  <polygon class="cls-1" points="5.04 8.59 4.67 9.7 3.5 9.7 4.45 10.39 4.09 11.51 5.04 10.82 5.98 11.51 5.62 10.39 6.57 9.7 5.4 9.7 5.04 8.59"/>
  <polygon class="cls-1" points="5.04 18.39 4.67 19.5 3.5 19.5 4.45 20.19 4.09 21.31 5.04 20.62 5.98 21.31 5.62 20.19 6.57 19.5 5.4 19.5 5.04 18.39"/>
  <polygon class="cls-1" points="5.04 28.4 4.67 29.53 3.5 29.53 4.45 30.21 4.09 31.33 5.04 30.64 5.98 31.33 5.62 30.21 6.57 29.53 5.4 29.53 5.04 28.4"/>
  <polygon class="cls-1" points="5.4 39.09 5.04 37.98 4.67 39.09 3.5 39.09 4.45 39.78 4.09 40.89 5.04 40.2 5.98 40.89 5.62 39.78 6.57 39.09 5.4 39.09"/>
  <polygon class="cls-1" points="18.3 3.68 17.93 4.81 16.76 4.81 17.71 5.49 17.35 6.61 18.3 5.92 19.25 6.61 18.88 5.49 19.84 4.81 18.66 4.81 18.3 3.68"/>
  <polygon class="cls-1" points="18.3 13.8 17.93 14.91 16.76 14.91 17.71 15.6 17.35 16.72 18.3 16.03 19.25 16.72 18.88 15.6 19.84 14.91 18.66 14.91 18.3 13.8"/>
  <polygon class="cls-1" points="18.21 23.71 17.85 24.82 16.67 24.82 17.62 25.52 17.26 26.63 18.21 25.94 19.16 26.63 18.8 25.52 19.75 24.82 18.57 24.82 18.21 23.71"/>
  <polygon class="cls-1" points="18.49 34.62 18.12 33.5 17.76 34.62 16.59 34.62 17.54 35.31 17.17 36.42 18.12 35.74 19.07 36.42 18.71 35.31 19.66 34.62 18.49 34.62"/>
  <polygon class="cls-1" points="9.51 3.68 9.15 4.81 7.98 4.81 8.93 5.49 8.56 6.61 9.51 5.92 10.46 6.61 10.1 5.49 11.05 4.81 9.87 4.81 9.51 3.68"/>
  <polygon class="cls-1" points="9.51 13.8 9.15 14.91 7.98 14.91 8.93 15.6 8.56 16.72 9.51 16.03 10.46 16.72 10.1 15.6 11.05 14.91 9.87 14.91 9.51 13.8"/>
  <polygon class="cls-1" points="9.43 23.71 9.06 24.82 7.89 24.82 8.84 25.52 8.48 26.63 9.43 25.94 10.38 26.63 10.01 25.52 10.96 24.82 9.79 24.82 9.43 23.71"/>
  <polygon class="cls-1" points="9.7 34.62 9.34 33.5 8.98 34.62 7.8 34.62 8.75 35.31 8.39 36.42 9.34 35.74 10.29 36.42 9.93 35.31 10.87 34.62 9.7 34.62"/>
  <path class="cls-1" d="M1.68,16.37l-.37-1.12,.95-.69H1.09l-.18-.55c-.19,.62-.36,1.25-.49,1.89l.31-.22,.95,.69Z"/>
  <polygon class="cls-1" points="1.59 26.28 1.23 25.16 2.18 24.47 1 24.47 .64 23.36 .28 24.47 0 24.47 0 25.12 .06 25.16 0 25.34 0 26.05 .64 25.59 1.59 26.28"/>
  <polygon class="cls-1" points="1.51 36.08 1.14 34.96 2.09 34.27 .92 34.27 .56 33.16 .19 34.27 0 34.27 0 35.79 .56 35.39 1.51 36.08"/>
  <polygon class="cls-1" points="21.65 1.71 22.6 1.02 23.55 1.71 23.19 .6 24.01 0 21.2 0 22.01 .6 21.65 1.71"/>
  <polygon class="cls-1" points="22.6 8.59 22.24 9.7 21.07 9.7 22.01 10.39 21.65 11.51 22.6 10.82 23.55 11.51 23.19 10.39 24.14 9.7 22.96 9.7 22.6 8.59"/>
  <polygon class="cls-1" points="22.6 18.39 22.24 19.5 21.07 19.5 22.01 20.19 21.65 21.31 22.6 20.62 23.55 21.31 23.19 20.19 24.14 19.5 22.96 19.5 22.6 18.39"/>
  <polygon class="cls-1" points="22.6 28.4 22.24 29.53 21.07 29.53 22.01 30.21 21.65 31.33 22.6 30.64 23.55 31.33 23.19 30.21 24.14 29.53 22.96 29.53 22.6 28.4"/>
  <polygon class="cls-1" points="22.96 39.09 22.6 37.98 22.24 39.09 21.07 39.09 22.01 39.78 21.65 40.89 22.6 40.2 23.55 40.89 23.19 39.78 24.14 39.09 22.96 39.09"/>
</svg>